<?xml version="1.0" encoding="UTF-8"?>
<svg id="Layer_2" data-name="Layer 2" xmlns="http://www.w3.org/2000/svg" xmlns:xlink="http://www.w3.org/1999/xlink" viewBox="0 0 394 469">
  <defs>
    <linearGradient id="linear-gradient" x1="173.0422" y1="335.22273" x2="173.0422" y2="331.12504" gradientUnits="userSpaceOnUse">
      <stop offset="0" stop-color="#fff"/>
      <stop offset=".34875" stop-color="#fff"/>
      <stop offset=".90496" stop-color="#fff" stop-opacity="0"/>
      <stop offset="1" stop-color="#fff" stop-opacity="0"/>
    </linearGradient>
  </defs>
  <g id="CASE_1_Plants_LN_WH_CH" data-name="CASE 1 Plants LN WH CH">
    <g id="Day_16" data-name="Day 16">
      <g id="rectangle">
        <rect width="394" height="469" fill="none"/>
      </g>
      <g id="ROOTS_BACK" data-name="ROOTS BACK">
        <path d="m190.59306,340.96875c-.97253-.95984-2.0354-1.75226-3.16052-2.42273.06873-.56177-.18542-1.1582-.89178-1.40985-1.00024-.38245-2.65979-.76807-3.64838-.57495-.7207-.2251-1.45099-.42865-2.19403-.60052-1.95441-.34082-4.04205-.42188-5.82715-1.21161-.00012-.06097.00433-.11578.00378-.17725-.07587-2.30994-3.27667-2.44562-3.70013-.37347-1.22162,1.3678-3.05267,2.19257-4.90668,2.44189-.90326.15399-2.3208-.02753-3.79199.20776-1.54303.16687-5.6709,1.94214-4.07483,3.97284.85094.84135,1.72281.26689,2.43921-.3941.00391.34198.1438.67133.46954.96674.57355.4762,1.4245.39722,1.90063-.17639.60971-.72876,1.24129-1.35039,2.06842-1.50226.83453.0331,1.82187-.04432,2.6814-.23468-1.29614.73987-2.59644,1.56787-3.61407,2.70868-.89008,1.11011-3.06995,3.72833-1.08148,4.74261.68811.2865,1.47827-.03906,1.76483-.72711.75238-1.98145,2.59259-3.13776,4.52319-4.11707-.22626.32324-.42883.6452-.59998.94153-.28253.43481-.44604.65308-.74823.89386-2.40253,1.91193-4.32806,4.30737-5.48041,7.1897-.59796,1.63989,1.80371,2.60229,2.50452,1.00732.35614-.82812.84363-1.6311,1.39844-2.39191,1.07721.91675,2.26556-.16852,2.62787-1.30109.28601-.83191.1593-1.32593.51294-1.91345.54828-.43536,1.10114-.89038,1.49512-1.39606.00421.12323.00531.24969.00873.3736-.88379,1.62091-1.29694,3.31769-2.39459,4.67999-.96954.78387-1.78027,1.79211-2.37805,2.86108-.56525,1.28668-2.55176,4.26038-.44373,5.0368.73352.21649,1.50122-.2265,1.68872-.96625.38794-1.29022,1.11871-2.70935,2.03674-3.73828.31067-.36176.7027-.6618,1.06873-.95435.25183-.23425.47327-.48877.68005-.75262-.00195.06598-.00336.13171-.00586.198-.59094,1.95453-2.87378,3.9079-3.0741,6.20447-.23114,1.72961,2.32196,2.15625,2.66321.44373.03827-.16992.10834-.33368.17017-.49902.06976,1.11127.25537,2.20581.69446,3.24872.5954,1.64575,3.06594.8327,2.5636-.84735-.05658-.16132-.10022-.32446-.14447-.48761.08673.12341.1731.24567.26001.38776.71234,1.08539,2.13025.60901,2.43628-.33899.12823.58295.61084,1.04016,1.23499,1.06744,1.54016.00098,1.57141-1.6908,1.39465-3.20813,2.76405-1.12223-.57221-4.19459-1.83612-5.28339-.33893-.46558-.7052-.88739-1.08582-1.21729-.9361-1.01556-1.49084-2.03931-2.10669-3.32062.01373-.29315.02905-.58734.04749-.88269.00891.0271.01202.05682.02185.08337.31537.91522.7536,1.51776,1.0542,2.33368.46052,1.23533,2.34121,1.0643,2.57367-.21924.51624.63531.63477,1.43848.82446,2.44788.29913,1.72192,2.86475,1.35535,2.67224-.38092-.05908-.46667-.12408-.94769-.23077-1.44263.30505-.04364.59772-.21765.87897-.61926.40607-.83148.17438-1.3775-.33344-1.77405.42761.23145.96039.24335,1.39246-.04926,1.8338-1.52911-1.15314-3.51849-2.18829-4.2901-.12646-.09973-.26379-.17798-.39514-.26813.3963-.13239.71521-.45282.86707-.84064.90723.39905,1.63885.94958,2.14343,2.0033.3222.64172,1.09943.92279,1.76178.62329,1.87494-1.06189-.04633-3.44031-1.53961-4.5752,1.65222.67157,3.20966,1.56409,4.43494,2.71771,1.27118,1.19946,3.10168-.62939,1.91357-1.90326Zm-15.64337,15.43219c-.54553-.53778-.59485-.72095-.6601-1.32703.07538-.60919.16064-1.22083.23804-1.83252.37341.41791.75562.81201,1.13489,1.17181.99939,1.29095,1.31909,2.95056,1.36743,4.64337-.02039-.04742-.03516-.0943-.0614-.14221-.46857-.89587-1.30627-1.87604-2.01886-2.51343Zm6.76074-9.27887c.07843.11926.18445.20636.29028.29199-.71417-.45355-1.78485-.70154-2.51599-1.0058-.71375-.56201-1.50909-1.02765-2.22821-1.52905-.56158-.35162-1.37036-.84711-2.00403-1.35614,2.20533.94652,4.95754,1.75963,6.45795,3.599Zm-5.42218-6.52362c.3985.08289.79596.159,1.19232.2345.24664.21887.53516.47076.83856.72968-.69733-.29449-1.38397-.59833-2.03088-.96417Z" fill="#4c4c4c"/>
      </g>
      <path d="m197.61168,315.02582c-.94631-4.80513-7.03023-5.60414-10.79523-3.63568-4.01589-1.70373-10.85943-2.14375-13.65942,3.24829-2.22612-7.03355-9.36492-7.34631-14.64197-5.9848-9.75365-6.21427-17.38428,9.01549-8.40454,8.08221,1.55219,4.52185,6.85545,2.68064,8.63216-.55464,1.01448-1.75226.5626-2.97614.77836-4.42015,7.1406-1.70014,11.40335.5928,11.33301,9.315-.08533,1.5553-.40057,3.15143-.41046,4.77032.12256,2.98169,1.0246,5.60291.68555,8.52924-.10077,2.47528,3.51715,2.70825,3.74152.24872.34149-2.88989-.44745-5.98572-.677-8.75623.02765-1.453.29999-2.90887.39624-4.41809l.00751.00061c.49494-7.8302,5.11142-9.24171,10.90466-7.08112.2041.53003.41296,1.12732.45538,1.88391.19629,3.4964,3.32178,7.05878,6.19318,7.05878,2.4591.02342,3.6776-2.46685,3.33679-4.05786,1.58856-.96925,2.5046-2.27751,2.12427-4.22852Z" fill="#4c4208"/>
      <g id="ROOTS">
        <path d="m189.69139,341.83435c-1.75751-1.70959-3.94189-2.97003-6.27295-3.80194.00751.00049.01904-.00171.02539-.00043.89655-.05511,1.78101.22223,2.63843.47974.12149.04034.18612-.14971.06323-.18964-1.05762-.41357-2.25769-.63391-3.37463-.49945-2.86762-1.04736-6.10776-.74154-8.84113-2.12848-.12451-.07043-.23206-.15448-.32135-.23883.00647-.29431.01996-.58624.0166-.88348-.01111-.80646-1.22559-.80432-1.24945-.01141-.0033.04932-.00507.1012-.0083.15063-1.41522,1.77429-3.6416,2.8692-5.9538,3.17096-2.38843.15369-5.3988-.15466-7.14105,1.96808-.08929.09332.05994.22815.14453.13837,1.34387-1.43036,3.08081-1.56885,4.87024-1.55707-.8764.39838-1.63574,1.0694-2.19275,1.86121-.07971.10223.07916.22516.15729.12366.77826-1.0163,1.82281-1.77606,3.05347-1.97083.39301.00616.78552.00964,1.17389-.00226,2.08887-.18219,4.19623-.97711,5.81543-2.41272-.03198.60132-.05402,1.20422-.07172,1.81604-.82953,1.59845-3.12567,2.24792-4.59802,3.28192-1.73688,1.04413-3.2702,2.58551-3.93817,4.53296-.04401.12262.14594.18756.18768.06915.74927-1.8584,2.26801-3.23773,4.00568-4.172,1.41388-.89368,3.10938-1.28906,4.31525-2.45288-.00488.69086.01373,1.3808.04071,2.0719-1.0213.5672-1.67657,1.61029-2.24988,2.55518-.5603.98779-1.54004,1.51758-2.31122,2.30249-1.60815,1.5788-2.96417,3.43335-3.78687,5.53406-.04785.12329.1427.19043.18616.07312.93508-2.13046,2.42413-4.01265,4.18201-5.5144-.37937.83044-.13245,1.84725-.82202,2.53333-.0854.0956.06289.23001.14874.13379.85925-.85352.51514-2.22662,1.25952-3.14575.60901-.46954,1.22339-.93701,1.6286-1.58618.54456-.80383,1.07373-1.54626,1.79388-2.02417.05042.81067.12634,1.61676.23938,2.41034.00354.45685.00867.92645.01538,1.39795-1.02689,1.69086-1.48128,3.84111-2.81592,5.26147-1.73608,1.39435-2.8125,3.51416-3.36603,5.64191-.03082.1275.16528.17035.19403.04852.63525-2.05096,1.7381-4.03198,3.49194-5.32733,1.22754-1.22186,1.77789-2.828,2.52576-4.30713.03638,1.31219.10254,2.63165.24799,3.87146.01459.30884.01306.61804.00427.92749-.50525,2.28558-2.80457,3.89008-3.11865,6.30145-.02075.12701.17706.1568.19727.03284.35394-1.91815,1.88666-3.20245,2.82281-4.83984-.30518,2.46661-.4591,5.04132.46163,7.40264.04041.11879.22904.05878.18992-.0628-.52637-1.4826-.5625-2.98029-.44135-4.4856.66016,1.24744,2.11389,2.03937,2.79816,3.32446.06616.1109.23694.01074.1734-.09961-.74298-1.64978-2.78986-2.51056-2.84894-4.43323.22131-1.82367.54254-3.65576.39569-5.48358.31732.56641.65411,1.12653,1.04877,1.64709.60242.88904,1.52209,1.57465,2.17047,2.38757,1.35004,1.71686,1.45599,3.92969,1.6402,6.04736.01392.12744.20728.10175.19623-.01984-.08624-1.82715-.14996-3.84039-1.03223-5.51843.13245.12408.3891.36456.3891.36456.5415.56262,1.22681,1.11401,1.45264,1.87549.03065.1254.22777.07624.19378-.04945-.46338-1.27976-1.49876-1.90558-2.57544-3.02611-1.41089-1.54236-2.65338-3.08258-3.47217-5.03967.04816-1.22278.13293-2.45599.16095-3.68787.69196.61603,1.48346,1.08484,2.28607,1.53949-.04584,1.07703.79016,1.96466,1.09821,2.95972.01978.04999.07593.07599.12701.05768.14148-.63837-.96252-1.9353-.95282-2.86285.47113.26721.94043.53796,1.3877.84259.81305.508,1.63208.96814,2.09045,1.76941.46381.78998.65802,1.73578.80939,2.66418.01947.1283.21265.09967.19836-.02539-.112-.94641-.25604-1.91705-.71936-2.8028-.18073-.28394-.38965-.53802-.61194-.77789.70196.19137,1.41157.37756,2.03528.7447.04663.02697.10681.01232.13544-.03394-.40161-.62769-1.73395-.76709-2.64917-1.16064-1.62097-1.43652-3.85834-2.21661-5.2287-3.89032-.00751-.83514-.05023-1.6684-.16962-2.49524-.0025-.0553.00116-.11151-.00079-.16687.50543.46173,1.06317.87695,1.67596,1.18042,2.7016,1.15881,5.73901,1.89728,7.63641,4.28723.07507.10693.23511-.00519.16669-.11066-1.17639-1.66382-3.02557-2.65338-4.81207-3.53284-1.78503-.72198-3.48792-1.38428-4.67242-2.93115.00818-.5058.02582-1.01514.05286-1.52728.73566.46283,1.57654.71649,2.35394.8913.66779.16498,1.37842.30212,2.1004.44379.98737.61481,2.23889,2.08325,2.78094,2.06396.03351-.04388.02515-.10663-.01874-.1402-.54694-.41803-1.07666-.85614-1.57233-1.32782-.14514-.15033-.30151-.30243-.46387-.45032,2.61102.5343,5.24365,1.2738,6.48334,3.75836.06049.11548.23181.0282.18054-.08624-1.50494-3.5614-6.03052-4.03333-9.31-4.97217-.94293-.25549-1.84119-.62878-2.48132-1.24207.01477-.26404.02948-.52765.04193-.79382.33984.16492.71252.27905,1.07544.41022,2.23657.69897,4.58148.53503,6.83551,1.06476,2.90265.75281,5.85138,1.93451,8.05438,4.02454.0946.09387.22833-.04816.14441-.13861Z" fill="#fff"/>
      </g>
      <path d="m193.51695,311.99487c-1.98266-.68602-4.7659-.35873-6.61322.77289-5.91172-2.55943-12.87848-1.85768-14.09875,6.84631-.47611-10.049-7.07685-11.56003-14.53131-9.62653-2.46431-1.68897-4.8731-1.97741-7.25941-.95347-2.39013,1.08238-4.22814,4.21934-3.44695,5.76579.66073,1.32844,2.27797.35186,3.26595.82859.62016.46731.69834,2.17971,2.0922,2.48343,1.92021.44122,3.94426-1.1337,4.73009-2.54762,1.1092-1.95409.03749-3.36552.97157-4.8878,7.96796-2.04987,13.55035.2665,13.47809,10.43579h.0022c-.17368,2.72581-.74262,4.73414-.11344,7.40429.26554,1.48731.56681,3.17286.38272,5.9419-.05161.811,1.18799.90216,1.24707.08297.30121-4.12816-.49179-5.51477-.68124-8.55464.01042-1.79357.30583-2.73451.40359-4.6352l.00519.00043c.57922-9.15031,6.64418-10.63181,13.12604-7.94861.2384.65381.65814,1.53241.72815,2.77997.16583,2.95477,2.81653,5.87885,4.94513,5.87885.44525,0,.8678-.12805,1.23981-.4104,1.5578-1.18237.48663-2.86542.91046-3.11932.51862-.31061,1.23364-.83685,1.47357-1.0589,1.53821-1.42389.27155-4.52094-2.25751-5.4787Z" fill="#dbd2a9"/>
      <g id="leaf_1_right_hi" data-name="leaf 1 right hi">
        <path d="m186.38194,313.13924c2.39157-.02571,4.32569.75784,5.82878,1.90404,1.38358,1.05507,2.60877,3.17857,2.09016,3.4892-.42385.25388.64735,1.93692-.91048,3.11933-2.15066,1.63239-5.98438-1.89566-6.1849-5.46844-.07938-1.41443-.62303-2.3731-.82356-3.04413Z" fill="#f2e9c2"/>
      </g>
      <g id="leaf_1_left_hi" data-name="leaf 1 left hi">
        <path d="m158.8228,310.39258c-2.90981-.11117-3.90695.24707-5.3886,1.30197-2.13738,1.52176-3.25072,3.44443-2.60095,3.93399.62015.46724.69838,2.17963,2.09225,2.48334,1.98159.43178,3.93425-1.14553,4.7301-2.54762,1.17779-2.07498-.10549-3.53802,1.16721-5.17169Z" fill="#f2e9c2"/>
      </g>
      <path id="root_main_fade" data-name="root main fade" d="m172.375,334.57266l.00827-2.80002c.00108-.36615.2988-.66211.66496-.66104.3756.00022.67732.31661.66049.69168-.00515.04053-.08041,2.75149-.0844,2.79012-.02663.80561-1.2493.78506-1.24932-.02074Z" fill="url(#linear-gradient)"/>
    </g>
  </g>
</svg>