<?xml version="1.0" encoding="UTF-8"?>
<svg id="Layer_2" data-name="Layer 2" xmlns="http://www.w3.org/2000/svg" xmlns:xlink="http://www.w3.org/1999/xlink" viewBox="0 0 346 469">
  <defs>
    <linearGradient id="linear-gradient" x1="173.0422" y1="335.22273" x2="173.0422" y2="331.12504" gradientUnits="userSpaceOnUse">
      <stop offset="0" stop-color="#fff"/>
      <stop offset=".34875" stop-color="#fff"/>
      <stop offset=".90496" stop-color="#fff" stop-opacity="0"/>
      <stop offset="1" stop-color="#fff" stop-opacity="0"/>
    </linearGradient>
  </defs>
  <g id="CASE_1_Plants_LN_WH_CH" data-name="CASE 1 Plants LN WH CH">
    <g id="Day_12" data-name="Day 12">
      <g id="rectangle">
        <rect width="346" height="469" fill="none"/>
      </g>
      <g id="ROOTS_BACK" data-name="ROOTS BACK">
        <path d="m190.59306,340.96875c-.97253-.95984-2.0354-1.75226-3.16052-2.42273.06873-.56177-.18542-1.1582-.89178-1.40985-1.00024-.38245-2.65979-.76807-3.64838-.57495-.7207-.2251-1.45099-.42865-2.19403-.60052-1.95441-.34082-4.04205-.42188-5.82715-1.21161-.00012-.06097.00433-.11578.00378-.17725-.07587-2.30994-3.27667-2.44562-3.70013-.37347-1.22162,1.3678-3.05267,2.19257-4.90668,2.44189-.90326.15399-2.3208-.02753-3.79199.20776-1.54303.16687-5.6709,1.94214-4.07483,3.97284.85094.84135,1.72281.26689,2.43921-.3941.00391.34198.1438.67133.46954.96674.57355.4762,1.4245.39722,1.90063-.17639.60971-.72876,1.24129-1.35039,2.06842-1.50226.83453.0331,1.82187-.04432,2.6814-.23468-1.29614.73987-2.59644,1.56787-3.61407,2.70868-.89008,1.11011-3.06995,3.72833-1.08148,4.74261.68811.2865,1.47827-.03906,1.76483-.72711.75238-1.98145,2.59259-3.13776,4.52319-4.11707-.22626.32324-.42883.6452-.59998.94153-.28253.43481-.44604.65308-.74823.89386-2.40253,1.91193-4.32806,4.30737-5.48041,7.1897-.59796,1.63989,1.80371,2.60229,2.50452,1.00732.35614-.82812.84363-1.6311,1.39844-2.39191,1.07721.91675,2.26556-.16852,2.62787-1.30109.28601-.83191.1593-1.32593.51294-1.91345.54828-.43536,1.10114-.89038,1.49512-1.39606.00421.12323.00531.24969.00873.3736-.88379,1.62091-1.29694,3.31769-2.39459,4.67999-.96954.78387-1.78027,1.79211-2.37805,2.86108-.56525,1.28668-2.55176,4.26038-.44373,5.0368.73352.21649,1.50122-.2265,1.68872-.96625.38794-1.29022,1.11871-2.70935,2.03674-3.73828.31067-.36176.7027-.6618,1.06873-.95435.25183-.23425.47327-.48877.68005-.75262-.00195.06598-.00336.13171-.00586.198-.59094,1.95453-2.87378,3.9079-3.0741,6.20447-.23114,1.72961,2.32196,2.15625,2.66321.44373.03827-.16992.10834-.33368.17017-.49902.06976,1.11127.25537,2.20581.69446,3.24872.5954,1.64575,3.06594.8327,2.5636-.84735-.05658-.16132-.10022-.32446-.14447-.48761.08673.12341.1731.24567.26001.38776.70941,1.08093,2.11896.61298,2.43286-.32727.30833,1.58298,2.63209,1.35438,2.64465-.25568.00549-.05621-.00824-.82159-.00061-.8858-.00452-.33649-.02112-.67169-.04437-1.00592,2.82609-1.07159-.53229-4.20546-1.8028-5.28839-1.37805-1.547-2.3504-2.65527-3.19385-4.50873.01392-.3028.02985-.60669.04889-.91187.00891.0271.01202.05682.02185.08337.31537.91522.7536,1.51776,1.0542,2.33368.46052,1.23533,2.34121,1.0643,2.57367-.21924.51624.63531.63477,1.43848.82446,2.44788.29913,1.72192,2.86475,1.35535,2.67224-.38092-.05908-.46667-.12408-.94769-.23077-1.44263.30505-.04364.59772-.21765.87897-.61926.40607-.83148.17438-1.3775-.33344-1.77405.42761.23145.96039.24335,1.39246-.04926,1.8338-1.52911-1.15314-3.51849-2.18829-4.2901-.12646-.09973-.26379-.17798-.39514-.26813.3963-.13239.71521-.45282.86707-.84064.90723.39905,1.63885.94958,2.14343,2.0033.3222.64172,1.09943.92279,1.76178.62329,1.87494-1.06189-.04633-3.44031-1.53961-4.5752,1.65222.67157,3.20966,1.56409,4.43494,2.71771,1.27118,1.19946,3.10168-.62939,1.91357-1.90326Zm-15.64337,15.43219c-.54553-.53778-.59485-.72095-.6601-1.32703.0755-.61011.16095-1.22266.2384-1.83527.04535.0459.08557.10211.13153.14661,1.76447,1.43358,2.28671,3.43192,2.35248,5.6297-.01562-.03363-.0249-.06671-.04346-.10059-.46857-.89587-1.30627-1.87604-2.01886-2.51343Zm6.76074-9.27887c.07843.11926.18445.20636.29028.29199-.71417-.45355-1.78485-.70154-2.51599-1.0058-.71375-.56201-1.50909-1.02765-2.22821-1.52905-.56158-.35162-1.37036-.84711-2.00403-1.35614,2.20533.94652,4.95754,1.75963,6.45795,3.599Zm-5.42218-6.52362c.3985.08289.79596.159,1.19232.2345.24664.21887.53516.47076.83856.72968-.69733-.29449-1.38397-.59833-2.03088-.96417Z" fill="#4c4c4c"/>
      </g>
      <path d="m191.1328,298.48163c-2.93508-4.23396-9.16465-2.4302-11.87445,1.64117-3.04578,1.25909-4.7821,3.55206-5.85449,6.80634-.96417-3.51056-2.70673-5.7572-5.31317-7.01886-5.72089-10.5239-19.72508-.46541-11.36273,2.90594-.78665,4.54579,4.55178,5.70078,7.86293,3.60462,1.62273-1.03014,1.88593-2.14994,2.61498-3.30885,2.60742,1.61353,4.51074,5.66284,3.68115,17.47302-.20593,1.1391-.01117,2.57904-.08905,3.5813.05951,2.362.34766,4.57812.36102,6.89862.2085,1.72443-.91687,5.16888,1.82117,5.33044,2.71783-.14673,1.75024-3.4682,1.92853-5.38507-.04382-3.23969-.49792-6.34363-.31818-9.56024l.0069.00055c.909-11.45581,1.67029-16.32202,5.63922-18.20197.24158.28131.47754.60266.6825.99976,1.64001,3.3759,7.67928,6.28499,10.08534,2.49539.88604-1.61777.23247-2.9639-.16047-3.64523,1.02349-1.49602,1.34877-3.01126.28882-4.61694Z" fill="#4c4208"/>
      <g id="ROOTS">
        <path d="m189.69139,341.83435c-1.75751-1.70959-3.94189-2.97003-6.27295-3.80194.00751.00049.01904-.00171.02539-.00043.89655-.05511,1.78101.22223,2.63843.47974.12149.04034.18612-.14971.06323-.18964-1.05762-.41357-2.25769-.63391-3.37463-.49945-2.86762-1.04736-6.10776-.74154-8.84113-2.12848-.12451-.07043-.23206-.15448-.32135-.23883.00647-.29431.01996-.58624.0166-.88348-.01111-.80646-1.22559-.80432-1.24945-.01141-.0033.04932-.00507.1012-.0083.15063-1.41522,1.77429-3.6416,2.8692-5.9538,3.17096-2.38843.15369-5.3988-.15466-7.14105,1.96808-.08929.09332.05994.22815.14453.13837,1.34387-1.43036,3.08081-1.56885,4.87024-1.55707-.8764.39838-1.63574,1.0694-2.19275,1.86121-.07971.10223.07916.22516.15729.12366.77826-1.0163,1.82281-1.77606,3.05347-1.97083.39301.00616.78552.00964,1.17389-.00226,2.08887-.18219,4.19623-.97711,5.81543-2.41272-.03198.60132-.05402,1.20422-.07172,1.81604-.82953,1.59845-3.12567,2.24792-4.59802,3.28192-1.73688,1.04413-3.2702,2.58551-3.93817,4.53296-.04401.12262.14594.18756.18768.06915.74927-1.8584,2.26801-3.23773,4.00568-4.172,1.41388-.89368,3.10938-1.28906,4.31525-2.45288-.00488.69086.01373,1.3808.04071,2.0719-1.0213.5672-1.67657,1.61029-2.24988,2.55518-.5603.98779-1.54004,1.51758-2.31122,2.30249-1.60815,1.5788-2.96417,3.43335-3.78687,5.53406-.04785.12329.1427.19043.18616.07312.93508-2.13046,2.42413-4.01265,4.18201-5.5144-.37937.83044-.13245,1.84725-.82202,2.53333-.0854.0956.06289.23001.14874.13379.85925-.85352.51514-2.22662,1.25952-3.14575.60901-.46954,1.22339-.93701,1.6286-1.58618.54456-.80383,1.07373-1.54626,1.79388-2.02417.05042.81067.12634,1.61676.23938,2.41034.00354.45685.00867.92645.01538,1.39795-1.02689,1.69086-1.48128,3.84111-2.81592,5.26147-1.73608,1.39435-2.8125,3.51416-3.36603,5.64191-.03082.1275.16528.17035.19403.04852.63525-2.05096,1.7381-4.03198,3.49194-5.32733,1.22754-1.22186,1.77789-2.828,2.52576-4.30713.03638,1.31219.10254,2.63165.24799,3.87146.01459.30884.01306.61804.00427.92749-.50525,2.28558-2.80457,3.89008-3.11865,6.30145-.02075.12701.17706.1568.19727.03284.35394-1.91815,1.88666-3.20245,2.82281-4.83984-.30518,2.46661-.4591,5.04132.46163,7.40264.04041.11879.22904.05878.18992-.0628-.52637-1.4826-.5625-2.98029-.44135-4.4856.66016,1.24744,2.11389,2.03937,2.79816,3.32446.06616.1109.23694.01074.1734-.09961-.74298-1.64978-2.78986-2.51056-2.84894-4.43323.22131-1.82367.54254-3.65576.39569-5.48358.31732.56641.65411,1.12653,1.04877,1.64709.60242.88904,1.52209,1.57465,2.17047,2.38757,1.35004,1.71686,1.45599,3.92969,1.6402,6.04736.01392.12744.20728.10175.19623-.01984-.08624-1.82715-.14996-3.84039-1.03223-5.51843.13245.12408.3891.36456.3891.36456.5415.56262,1.22681,1.11401,1.45264,1.87549.03065.1254.22777.07624.19378-.04945-.46338-1.27976-1.49876-1.90558-2.57544-3.02611-1.41089-1.54236-2.65338-3.08258-3.47217-5.03967.04816-1.22278.13293-2.45599.16095-3.68787.69196.61603,1.48346,1.08484,2.28607,1.53949-.04584,1.07703.79016,1.96466,1.09821,2.95972.01978.04999.07593.07599.12701.05768.14148-.63837-.96252-1.9353-.95282-2.86285.47113.26721.94043.53796,1.3877.84259.81305.508,1.63208.96814,2.09045,1.76941.46381.78998.65802,1.73578.80939,2.66418.01947.1283.21265.09967.19836-.02539-.112-.94641-.25604-1.91705-.71936-2.8028-.18073-.28394-.38965-.53802-.61194-.77789.70196.19137,1.41157.37756,2.03528.7447.04663.02697.10681.01232.13544-.03394-.40161-.62769-1.73395-.76709-2.64917-1.16064-1.62097-1.43652-3.85834-2.21661-5.2287-3.89032-.00751-.83514-.05023-1.6684-.16962-2.49524-.0025-.0553.00116-.11151-.00079-.16687.50543.46173,1.06317.87695,1.67596,1.18042,2.7016,1.15881,5.73901,1.89728,7.63641,4.28723.07507.10693.23511-.00519.16669-.11066-1.17639-1.66382-3.02557-2.65338-4.81207-3.53284-1.78503-.72198-3.48792-1.38428-4.67242-2.93115.00818-.5058.02582-1.01514.05286-1.52728.73566.46283,1.57654.71649,2.35394.8913.66779.16498,1.37842.30212,2.1004.44379.98737.61481,2.23889,2.08325,2.78094,2.06396.03351-.04388.02515-.10663-.01874-.1402-.54694-.41803-1.07666-.85614-1.57233-1.32782-.14514-.15033-.30151-.30243-.46387-.45032,2.61102.5343,5.24365,1.2738,6.48334,3.75836.06049.11548.23181.0282.18054-.08624-1.50494-3.5614-6.03052-4.03333-9.31-4.97217-.94293-.25549-1.84119-.62878-2.48132-1.24207.01477-.26404.02948-.52765.04193-.79382.33984.16492.71252.27905,1.07544.41022,2.23657.69897,4.58148.53503,6.83551,1.06476,2.90265.75281,5.85138,1.93451,8.05438,4.02454.0946.09387.22833-.04816.14441-.13861Z" fill="#fff"/>
      </g>
      <path d="m190.37926,301.35571c.79639-1.86499-1.44281-4.08813-4.03406-4.08795-2.01543.02004-5.00081,1.59759-6.24982,3.8689-4.98431,1.87427-6.23547,6.71033-7.01581,14.6167.04828-8.56952-1.78601-13.10986-5.93073-14.90271-1.63047-3.22482-4.02574-4.33772-6.32645-4.39902-2.53567.00003-5.37204,1.79911-5.41549,3.45377-.04022,1.52808,2.14246,1.53912,2.48242,2.27826.3244.70544-.4187,2.25018.66443,3.17853,1.45545,1.27508,3.94153.9036,5.37256-.00001,1.85925-1.16686,1.64337-2.86333,3.07195-3.7777,3.39883,1.37306,6.1411,5.80165,5.12701,19.21423-.0069.0965-.01184.18774-.0191.28522l.00433.00031c-.28949,2.71459.5004,10.0315.28077,12.42203.0181.64106-.24052,1.55775.60895,1.6187.3452-.00002.62499-.27981.62499-.62502.26857-2.78601-.50481-9.89123-.27692-13.14819l.00299.00024c.93634-11.80109,1.66168-17.62018,7.20966-19.57971.45636.4516,1.01849,1.03009,1.46893,1.90283,1.1037,2.13837,3.69879,3.58759,5.67493,3.58759.96246,0,1.77838-.34399,2.20325-1.11957.93958-1.71521-.72522-2.81451-.44189-3.2193.34668-.49524.78467-1.26746.91309-1.56812Z" fill="#dbd2a9"/>
      <g id="leaf_1_right_hi" data-name="leaf 1 right hi">
        <path d="m180.03564,301.23217c2.17282-.99954,4.25833-1.07358,6.09833-.64064,1.69371.39852,3.67888,1.83708,3.3322,2.33233-.28333.40475,1.38149,1.50406.44189,3.2193-1.29717,2.36799-6.23696.7118-7.87817-2.46804-.64974-1.25887-1.5373-1.91219-1.99424-2.44295Z" fill="#f2e9c2"/>
      </g>
      <g id="leaf_1_left_hi" data-name="leaf 1 left hi">
        <path d="m167.40633,301.36241c-2.50915-1.47769-3.55693-1.63512-5.36163-1.40895-2.6034.32626-4.49532,1.49108-4.1554,2.23022.32443.70544-.4187,2.25016.66447,3.17852,1.53989,1.3198,4.007.85705,5.37255,0,2.0209-1.26836,1.58483-3.16497,3.48001-3.99978Z" fill="#f2e9c2"/>
      </g>
      <path id="root_main_fade" data-name="root main fade" d="m172.375,334.57266l.00827-2.80002c.00108-.36615.2988-.66211.66496-.66104.3756.00022.67732.31661.66049.69168-.00515.04053-.08041,2.75149-.0844,2.79012-.02663.80561-1.2493.78506-1.24932-.02074Z" fill="url(#linear-gradient)"/>
    </g>
  </g>
</svg>