<svg width="125" height="40" viewBox="0 0 125 40" xmlns="http://www.w3.org/2000/svg">
    <g fill-rule="nonzero" fill="none">
        <path d="M0 0h125v40H0z"/>
        <path d="M112.006 12.606c.246-.64 1.275-1.725 2.256-1.725.245 0 .441.049.686.098v2.219a1.958 1.958 0 0 0-.735-.148c-1.422 0-2.157 1.528-2.157 3.155v3.697h-2.06v-7.099h-1.177V10.98h1.864c.686 0 1.323.345 1.323 1.085v.542zm-29.566-.542c.687-.838 1.716-1.331 2.795-1.282 2.01 0 2.942 1.232 2.942 3.45v3.748h1.079v1.774h-1.864c-.686 0-1.275-.345-1.275-1.084v-4.141c0-1.134-.196-1.824-1.225-1.824-1.422 0-2.403 1.33-2.403 2.908v4.141h-2.108v-7h-1.079V10.93h1.863a1.1 1.1 0 0 1 1.275.838v.296zm-40.255-2.12c.343 0 .686.246.686.64v1.332h-1.226v-.887h-1.078v6.408h-1.324v-6.31h-1.079v.789h-1.177v-1.183c0-.444.196-.838.687-.838h4.51v.049zm2.844 2.711a2.19 2.19 0 0 1 1.667-.74c1.274 0 1.863.74 1.863 2.17v2.366h.784v1.134h-2.059v-3.253c0-.69-.147-1.085-.785-1.085-.833 0-1.47.74-1.47 1.824v2.613h-1.275v-6.557h-.442V9.944h1.766l-.05 2.711zm7.403 4.98c-1.52.049-2.745-1.184-2.794-2.712v-.197c0-1.726 1.127-2.909 2.647-2.909 1.52 0 2.305 1.183 2.305 2.613 0 .148-.05.542-.05.542h-3.579c.05.79.736 1.38 1.52 1.38.589 0 1.128-.295 1.52-.69l.589 1.036c-.05.098-.147.148-.245.197a2.74 2.74 0 0 1-1.913.74zM52.285 13c-.588 0-1.127.395-1.226.986h2.256c0-.542-.49-.986-1.03-.986zm11.229 6.853c-3.53 0-6.08-2.86-6.08-6.409 0-3.55 2.598-6.26 5.982-6.26 1.422 0 4.56.542 4.56 2.612v1.726h-2.01v-1.184c0-.887-1.864-1.084-2.452-1.084-2.256 0-3.874 1.725-3.874 4.19 0 2.613 1.716 4.437 3.972 4.437a4.292 4.292 0 0 0 3.58-1.725l1.029 1.479c-1.079 1.43-2.844 2.267-4.707 2.218zm10.345.197c-2.5.05-4.56-1.972-4.609-4.486v-.197c0-2.564 2.06-4.634 4.61-4.634 2.55 0 4.608 2.07 4.608 4.634.05 2.563-1.96 4.634-4.461 4.683h-.148zm0-7.395c-1.421 0-2.5 1.184-2.5 2.613v.099c-.098 1.43.98 2.613 2.402 2.711h.098a2.583 2.583 0 0 0 2.501-2.662v-.05a2.538 2.538 0 0 0-2.353-2.71h-.148zm20.79 7.395c-2.452.099-4.51-1.873-4.609-4.338v-.296c0-2.76 1.961-4.683 4.511-4.683 1.226 0 3.432.493 3.432 2.218v.888h-1.912v-.493c0-.493-1.128-.641-1.471-.641-1.47 0-2.452 1.035-2.452 2.711 0 1.775 1.128 2.712 2.55 2.712 1.177 0 1.814-.543 2.648-1.233l.833 1.726c-.931.887-2.206 1.38-3.53 1.43zm8.728 0c-2.5.05-4.56-1.972-4.61-4.486v-.197c0-2.564 2.06-4.634 4.61-4.634 2.55 0 4.609 2.07 4.609 4.634.049 2.563-1.961 4.634-4.462 4.683h-.147zm0-7.395c-1.422 0-2.5 1.184-2.5 2.613v.099c-.099 1.43.98 2.613 2.402 2.711h.098a2.583 2.583 0 0 0 2.5-2.662v-.05a2.538 2.538 0 0 0-2.353-2.71h-.147zm18.387-1.084V9.45h-.98V7.627h3.04V17.98h1.127v1.774h-1.863c-.54.05-1.079-.295-1.226-.838-.637.69-1.52 1.085-2.452 1.036-2.353 0-3.775-1.972-3.775-4.634 0-2.81 1.569-4.635 3.922-4.635.834.05 1.618.346 2.207.888zm-1.961 1.134c-1.08 0-2.06.887-2.06 2.711 0 1.726.883 2.712 2.01 2.712 1.03 0 2.06-.74 2.06-2.712 0-1.528-.736-2.711-2.01-2.711zM59.836 25.177c.638-.789 1.618-1.282 2.648-1.232 1.912 0 2.746 1.134 2.746 3.253v3.55h1.177v1.725h-1.962c-.686 0-1.226-.345-1.226-.986v-3.943c0-1.085-.196-1.726-1.127-1.726-1.324 0-2.256 1.233-2.256 2.76v3.945h-1.961v-6.656h-1.03v-1.725h1.765c.785 0 1.226.345 1.226 1.035zm-7.649 7.543a4.417 4.417 0 0 1-4.413-4.338c0-2.416 1.913-4.388 4.315-4.437a4.417 4.417 0 0 1 4.413 4.338v.05c.05 2.366-1.863 4.338-4.217 4.387h-.098zm0-6.902c-1.324.05-2.353 1.134-2.304 2.416v.098c0 1.48 1.03 2.564 2.304 2.564 1.275 0 2.305-1.085 2.305-2.564.098-1.33-.932-2.465-2.305-2.514.05 0 .05 0 0 0zm17.7 6.902c-1.176-.05-2.304-.64-3.088-1.578l1.079-1.33a2.67 2.67 0 0 0 2.059 1.133c.833 0 1.275-.345 1.275-.74 0-.69-1.226-.985-1.716-1.133-1.08-.395-2.501-.986-2.501-2.662 0-1.824 1.716-2.465 3.04-2.465 1.03 0 2.844.443 2.844 1.873v.838h-1.765v-.394c0-.197-.344-.542-1.08-.542-.735 0-1.078.295-1.078.64 0 .641 1.128.937 1.57 1.085 1.127.394 2.647.937 2.647 2.613 0 1.824-1.52 2.662-3.285 2.662zm8.68 0a4.417 4.417 0 0 1-4.413-4.338c0-2.416 1.912-4.388 4.314-4.437a4.417 4.417 0 0 1 4.413 4.338v.05c.05 2.366-1.863 4.338-4.216 4.387h-.098zm0-6.902c-1.324.05-2.354 1.134-2.305 2.416v.098c0 1.48 1.03 2.564 2.305 2.564 1.274 0 2.304-1.085 2.304-2.564a2.358 2.358 0 0 0-2.157-2.514h-.147zm8.09-.098c.245-.592 1.226-1.627 2.108-1.627.196 0 .638.049.638.049v2.021c-.246-.05-.442-.098-.687-.098-1.373 0-2.01 1.43-2.01 2.958v3.5h-1.961v-6.656h-1.226v-1.725h1.961c.687 0 1.226.345 1.226.986-.05.197-.05.394-.05.592zm7.453 6.901c-.98 0-3.138-.345-3.138-3.204v-3.55h-1.079v-1.725h1.079v-2.17h1.912v2.17h1.814v1.725h-1.814v3.402c0 1.331.833 1.479 1.324 1.479.196 0 .588-.05.588-.05v1.825a2.88 2.88 0 0 1-.686.098zm5.05-9.514h-2.01v-2.07h2.01v2.07zm.932 9.416h-2.06c-.49 0-.882-.395-.882-1.233v-5.423h-1.226v-1.725h2.01c.589-.05 1.128.345 1.177.937v5.669h.98v1.775zm7.06-.986a3.173 3.173 0 0 1-2.598 1.183c-1.815 0-2.746-1.085-2.746-3.254v-3.599h-1.03v-1.725h2.01c.54 0 .981.444.981.937v4.042c0 1.035.196 1.726 1.128 1.726 1.275 0 2.157-1.282 2.157-2.81v-3.895h1.962v6.606c0 .05 0 .05.049.05h.931v1.675h-1.716c-.54.1-1.03-.295-1.128-.838v-.098zm6.865-6.31c.588-.74 1.47-1.233 2.402-1.233 1.128 0 1.913.444 2.305 1.43a3.167 3.167 0 0 1 2.648-1.43c1.863 0 2.696 1.134 2.696 3.254v3.55H125v1.675h-2.942v-4.93c0-1.084-.196-1.725-1.079-1.725-1.176 0-1.96 1.282-1.96 2.81v3.845h-1.962v-4.93c0-1.035-.147-1.725-1.03-1.725-1.177 0-2.01 1.331-2.01 2.86v3.795h-1.961v-6.606h-1.226v-1.725h1.961a1.06 1.06 0 0 1 1.226.887v.198zm-71.49 7.444c-3.284 0-5.687-2.662-5.687-6.015 0-3.352 2.452-5.866 5.639-5.866 1.324 0 4.266.493 4.266 2.465v1.577h-1.913v-1.134c0-.838-1.765-1.035-2.304-1.035-2.109 0-3.629 1.578-3.629 3.895 0 2.465 1.57 4.14 3.727 4.14a3.972 3.972 0 0 0 3.334-1.577l.98 1.38c0 .05-1.225 2.17-4.412 2.17z" fill="#231F20"/>
        <path d="M30.662 14.775c2.108 1.578 4.119 3.895 4.02 5.177-.048.74-2.647 3.401-5.49 4.436.686 2.613.735 5.72-.099 6.656-.441.493-3.775.838-6.57-.099.196-.69.294-1.38.294-2.12.098-3.45 4.364-5.718 4.364-11.782 0-5.719-5.394-9.86-9.856-9.86s-9.855 4.141-9.855 9.86c0 6.064 4.266 8.331 4.364 11.782 0 .79.147 1.578.392 2.367-2.206.986-4.854 1.479-5.786.838-.588-.395-1.52-4.092-.931-7.198-2.452-.69-5.1-2.169-5.492-3.401-.196-.69 1.324-4.142 3.726-6.163-1.47-2.218-2.598-5.127-2.108-6.26.294-.69 3.58-2.268 6.668-2.268C8.5 4.077 9.48 1.12 10.56.528c.637-.345 4.168.64 6.472 2.76 1.814-1.922 4.364-3.549 5.54-3.253.687.148 2.796 3.303 3.286 6.458 2.55-.246 5.54.247 6.276 1.233.441.492.098 4.288-1.47 7.05z" fill="#E75300"/>
        <path d="M20.758 21.135c2.108.246 4.265-1.578 6.472-.247.784.493 1.47 1.923 1.863 3.5-.932.395-1.961.493-2.99.346-1.815-.296-3.923-2.022-5.345-3.6zm-8.434-2.317c-1.226 1.824-.833 4.634-3.04 5.965-.784.493-2.304.394-3.873-.05a6.384 6.384 0 0 1 1.225-2.908c1.177-1.43 3.678-2.465 5.688-3.007zm.294-3.55c-2.06.542-3.53 3.007-5.982 2.564-.931-.148-2.01-1.233-2.893-2.662.785-.69 1.717-1.184 2.697-1.38 1.765-.346 4.315.492 6.178 1.478zm2.403-2.563c-1.912-.937-4.511-.05-6.13-2.07-.588-.74-.735-2.318-.637-3.945 1.03-.05 2.06.247 2.942.74 1.57.887 2.991 3.303 3.825 5.275zm3.432-.345c-.883-2.071-3.432-3.106-3.432-5.72 0-.936.833-2.267 1.961-3.45.834.69 1.422 1.578 1.814 2.564.638 1.774.245 4.535-.343 6.606zm3.727 5.472c1.765-1.233 2.304-4.043 4.805-4.486.931-.148 2.304.443 3.579 1.43-.49.936-1.226 1.725-2.06 2.316-1.568.937-4.265 1.036-6.324.74zm3.628-11.438c.196 1.036.098 2.12-.196 3.156-.589 1.824-2.599 3.648-4.364 4.88.588-2.169-.736-4.634.882-6.655.638-.789 2.06-1.233 3.678-1.38z" fill="#AD441D"/>
        <path d="M13.599 32.572c-.441-.148-.785-.394-1.03-.789-.49-.887-.735-1.922-.735-2.958-.098-3.45-4.364-5.718-4.364-11.782 0-5.719 5.393-9.86 9.855-9.86 4.462 0 9.856 4.141 9.856 9.86 0 6.064-4.266 8.331-4.364 11.782.049 1.085-.245 2.12-.785 3.057-.245.345-.539.591-.931.74h-.098l-7.404-.05z" fill="#FFD26C"/>
        <path d="M19.238 18.522c.147-.197 1.225.05 2.206-.247.294-.098.54-.246.785-.394-1.57-.197-2.746-.592-2.795-.937 0-.246.98-.74 1.52-1.725.147-.296.245-.542.343-.838-1.324.887-2.452 1.38-2.697 1.134-.245-.247.294-1.233.147-2.317a4.181 4.181 0 0 0-.245-.838c-.441 1.528-1.03 2.711-1.373 2.711-.245 0-.54-1.134-1.324-1.873-.245-.198-.49-.345-.735-.493.637 1.479.882 2.76.588 3.007-.196.148-1.128-.493-2.157-.542-.294 0-.589.049-.883.098 1.373.74 2.354 1.48 2.305 1.923-.05.246-1.177.345-1.962 1.035-.245.197-.44.395-.588.641 1.52-.345 2.746-.444 2.942-.099.098.247-.686 1.036-.883 2.12-.049.296-.049.592-.049.888.932-1.282 1.864-2.17 2.158-2.07.294.098.147 1.232.637 2.218.147.246.343.542.54.739-.098-1.578.098-2.909.392-3.007.294-.099.882.838 1.863 1.232.245.099.54.197.834.197-1.08-1.133-1.766-2.267-1.57-2.563z" fill="#FFF"/>
        <path d="M21.542 30.55c-.294-.147-.54-.295-.784-.443a6.458 6.458 0 0 1-1.226-1.084c-1.177-1.43-1.716-4.19-1.863-6.36 1.47 1.578 4.216 1.627 5.099 4.141.049.099.049.148.049.247l.147.542c-.098.394-.196.789-.196 1.232-.05.74-.147 1.43-.294 2.17a16.82 16.82 0 0 0-.932-.444zm-7.208-8.774c.147 2.218 2.207 4.091 1.373 6.606-.245.69-.98 1.38-1.961 2.02-.343.247-.686.395-1.03.543-.147.05-.343.148-.49.247-.245-.74-.343-1.578-.392-2.367v-.936c0-.198 0-.444.049-.641.245-1.775 1.324-3.944 2.451-5.472zm10.493-10.747c-.98 1.33-2.206 2.514-3.58 3.401.54-1.923-.44-4.092.442-5.965 1.226.64 2.305 1.479 3.138 2.564zm-2.647 6.803c1.618-1.134 2.206-3.6 4.216-4.339a8.851 8.851 0 0 1 .736 3.55v.592c-1.618.394-3.285.443-4.952.197zm-3.727-5.423c-.784-1.824-2.844-2.81-3.334-4.831a8.488 8.488 0 0 1 2.206-.296c.589 0 1.226.05 1.815.197.049 1.627-.197 3.303-.687 4.93zm-3.432.296c-1.667-.838-3.874-.247-5.492-1.43a10.508 10.508 0 0 1 3.04-2.662 15.106 15.106 0 0 1 2.452 4.092zm-2.403 2.613c-1.814.492-3.138 2.415-5.1 2.612 0-.246-.048-.542-.048-.788 0-1.134.245-2.268.637-3.303 1.618.197 3.138.69 4.511 1.479zm-.294 3.549c-1.128 1.578-.883 4.092-2.452 5.521-.784-1.133-1.372-2.415-1.863-3.697 1.373-.838 2.795-1.479 4.315-1.824zm8.434 2.268c1.912.197 3.873-1.233 5.834-.543a14.531 14.531 0 0 1-1.863 3.698c-1.47-.789-2.795-1.873-3.971-3.155z" fill="#FFC656"/>
        <path d="M20.954 36.023v.493c.392.05.637.345.637.74.05.345-.245.64-.588.69h-.05l-2.402.64a.912.912 0 0 1 .245.592c0 .394-.245.69-.637.74h-1.765c-.393-.05-.687-.444-.638-.888.05-.197.147-.394.344-.493l-2.501-.591c-.392-.099-.638-.493-.589-.888.05-.296.295-.493.589-.591h5.933v-.148l-5.933-.345c-.392-.099-.638-.493-.589-.888.05-.296.295-.493.589-.591h5.884v-.148l-5.884-.345c-.392-.099-.638-.493-.589-.888.05-.295.295-.493.589-.591h7.355c.392.098.637.493.588.887-.049.296-.294.493-.588.592h-.05v.493h.05c.392.049.637.345.637.74 0 .443-.245.788-.637.788z" fill="#00758D"/>
    </g>
</svg>
