<svg viewBox="0 0 40 40" xmlns="http://www.w3.org/2000/svg">
    <g fill="none" fill-rule="evenodd">
        <path d="M0 0h40v40H0z"/>
        <circle class="background" fill="#FFF" fill-rule="nonzero" cx="20" cy="20" r="15"/>
        <path class="border" d="M20 5c8.284 0 15 6.716 15 15 0 8.284-6.716 15-15 15-8.284 0-15-6.716-15-15 0-8.284 6.716-15 15-15zm0 4C13.925 9 9 13.925 9 20s4.925 11 11 11 11-4.925 11-11S26.075 9 20 9z" fill="#005F99" fill-rule="nonzero"/>
        <path class="close" fill="#005F99" fill-rule="nonzero" d="M26.894 15.58 22.476 20l4.418 4.42-2.475 2.474-4.418-4.42-4.42 4.42-2.475-2.475 4.42-4.42-4.42-4.418 2.475-2.475L20 17.524l4.418-4.418z"/>
    </g>
</svg>
