<svg width="530" height="467" viewBox="0 0 530 467" xmlns="http://www.w3.org/2000/svg">
    <defs>
        <linearGradient x1="100%" y1="50%" x2="0%" y2="50%" id="q2zz92zvga">
            <stop stop-color="#D9E7F0" offset="0%"/>
            <stop stop-color="#FFF" offset="11.941%"/>
            <stop stop-color="#FFF" offset="100%"/>
        </linearGradient>
        <linearGradient x1="100%" y1="50%" x2="0%" y2="50%" id="qqiroa3s4b">
            <stop stop-color="#FFF" offset="0%"/>
            <stop stop-color="#FFF" offset="93.985%"/>
            <stop stop-color="#D4E4EE" offset="97.23%"/>
            <stop stop-color="#D4E4EE" offset="100%"/>
        </linearGradient>
        <linearGradient x1="100%" y1="50%" x2="0%" y2="50%" id="9dywqpwvlc">
            <stop stop-color="#D9E7F0" offset="0%"/>
            <stop stop-color="#FFF" offset="11.941%"/>
            <stop stop-color="#FFF" offset="100%"/>
        </linearGradient>
        <linearGradient x1="0%" y1="50%" x2="100%" y2="50%" id="glm399iovd">
            <stop stop-color="#FFF" stop-opacity=".5" offset="0%"/>
            <stop stop-color="#FFF" offset="30.843%"/>
            <stop stop-color="#FFF" stop-opacity=".306" offset="78.848%"/>
            <stop stop-color="#FFF" stop-opacity=".5" offset="100%"/>
        </linearGradient>
    </defs>
    <g fill="none" fill-rule="evenodd">
        <path d="M0 0h530v467H0z"/>
        <rect fill="#005F99" fill-rule="nonzero" x="10" y="16" width="510" height="441" rx="5"/>
        <g fill-rule="nonzero">
            <path d="M11 21c10.647 0 95.98-1 256-3v436l-255 1c-2.171-35.05-2.351-78.954-.54-131.715C14.179 244.145 10 201.702 10 163.507 10 125.312 10 73 11 21z" fill="#FFF"/>
            <path d="M267 18v436l-255 1c-2.171-35.05-2.351-78.954-.54-131.715C14.179 244.145 10 201.702 10 163.507v-11.223c.008-32.164.074-72.274.691-113.23l.05-3.279c.053-3.28.108-6.564.167-9.848l.06-3.285L11 21c10.647 0 95.98-1 256-3zm-3 3.037-1.742.022c-145.884 1.823-228.493 2.798-247.92 2.926l-.395.003-.007.442c-.107 5.818-.203 11.502-.287 17.148l-.036 2.417-.068 4.828-.032 2.414-.03 2.415c-.016 1.21-.03 2.42-.045 3.631l-.021 1.82c-.311 27.337-.406 56.095-.416 97.002v9.076c0 1.295.004 2.491.01 3.655l.004.58.005.576.002.287.008.862.003.288.007.578.008.63.006.424.007.428c.105 6.671.386 15.084 1.127 36.705 1.438 41.998 1.69 71.837.27 113.194-1.75 50.99-1.638 93.679.335 128.054l.031.547L264 451.012V21.037z" fill="#005F99"/>
            <path d="M16 16c85.358 8 198.043-32 251 2v437c-135.333-1.885-217.833-.885-247.5 3-3.684-30.676-4.684-83.3-3.437-117.283 2.278-62.085.437-110.793.437-146.717 0-52.145 1-103-.5-178z" fill="#FFF"/>
            <path d="M267 18v437c-135.333-1.885-217.833-.885-247.5 3-3.684-30.676-4.684-83.3-3.437-117.283 2.278-62.085.437-110.793.437-146.717v-1.564l.003-3.126c0-.521 0-1.042.002-1.563l.005-3.125.003-1.562.009-3.126c.071-24.496.294-49.213.304-76.79v-3.537C16.82 74.74 16.63 47.5 16 16c85.358 8 198.043-32 251 2zM203.542 7.078h-1.203c-.384 0-.767 0-1.15.006l-1.145.008-1.143.012c-17.885.22-35.198 1.887-74.415 6.458-8.522.993-14.01 1.622-19.308 2.203l-.881.097-.44.048-.883.095-.886.096c-34.848 3.752-59.772 4.976-82.436 3.222l-.588-.047.013.641c.245 12.702.423 24.336.543 35.905l.024 2.393.034 3.59c.098 11.178.144 22.455.148 34.734v3.982a9834.19 9834.19 0 0 1-.163 48.522c-.078 14.703-.116 22.433-.138 29.587l-.002.702-.003 1.05-.002.698-.002.7-.001.702a6536.59 6536.59 0 0 0-.015 12.054v1.303l.001.255v.505l.001.25.001.5.002.741.001.493v.246l.003.738.001.247.004.744c.029 6.15.114 13.178.337 30.37.38 29.294.487 51.321.178 72.667l-.031 2.064-.017 1.03-.036 2.092c-.024 1.395-.05 2.788-.08 4.183l-.043 2.094a1714.46 1714.46 0 0 1-.761 25.769c-.335 9.121-.504 19.143-.517 29.493v2.593c.036 29.034 1.281 60.252 3.534 81.2l.059.545.811-.088c32.383-3.495 112.314-4.363 240.044-2.625l1.007.013V19.665l-.143-.087c-14.06-8.456-33.065-12.298-58.181-12.491l-.922-.009h-1.21z" fill="#005F99"/>
            <path d="M14 10.231c112.5 10 179-32 243 6v438c-136.714 0-216.381 1-239 3-5-26-8-59.998-5-121.457 3.94-80.722 1.008-137.473 0-191.543-1.008-54.07-2-98 1-134z" fill="url(#q2zz92zvga)" transform="translate(10 1.769)"/>
            <path d="M267 18v438c-136.714 0-216.381 1-239 3-5-26-8-59.999-5-121.457C26.94 256.82 24.008 200.07 23 146c-1.008-54.07-2-98 1-134 112.5 10 179-32 243 6zM174.388 6.357c-5.177.513-10.68 1.14-17.435 1.974-1.607.198-4.999.625-8.442 1.062l-.626.079-1.247.158-.616.078-7.53.957-1.337.169c-45.237 5.673-74.502 7.351-110.067 4.44l-.342-.028-.043.562a579.21 579.21 0 0 0-.326 4.397l-.12 1.752c-.87 12.997-1.269 26.077-1.282 44.865v2.283c.016 18.484.383 42.438 1.024 76.84l.07 3.61.01.53.005.263.016.786.005.258.01.515.022 1.03.011.52.011.521.012.527.011.531c.127 5.795.301 12.743.663 26.973 1.673 65.878 1.722 103.014-.849 155.68-2.604 53.35-.96 88.41 4.438 118.013l.017.094.288-.02c25.94-1.835 103.252-2.757 232.173-2.776h1.087V19.722l-.093-.054c-16.95-9.711-34.778-14.2-56.072-14.823l-.986-.026c-9.609-.226-19.959.3-32.46 1.538z" fill="#005F99"/>
        </g>
        <g fill-rule="nonzero">
            <path d="M521 23c-10.647 0-96.647-1.667-258-5v436l255 1c1.873-36.775 2.72-80.68 2.54-131.715-.27-76.553-2.54-141.583-2.54-179.778C518 105.312 517.466 71 521 23z" fill="#D4E4EE"/>
            <path d="M263 18v436l255 1c1.873-36.775 2.72-80.68 2.54-131.715-.27-76.553-2.54-141.583-2.54-179.778v-2.598c-.004-6.05-.019-12.012-.025-17.956l-.003-3.82v-3.819l.002-2.547.005-2.55c.06-26.375.531-53.399 3.021-87.217-10.647 0-96.647-1.667-258-5zm3 3.062 1.758.037c147.126 3.037 230.37 4.662 249.892 4.877h.127l-.053.75c-2.116 30.002-2.746 54.461-2.753 90.276v2.694l.001.278v1.114l.001.282v.864l.001.147v.757l.002.96.001.682.009 5.571.011 7.8v.671l.001.328v.957l.001.312.001 3.088c0 9.354.132 20.608.401 35.909.07 3.94.25 13.298.43 22.533l.026 1.318.018.95.019.946c.187 9.59.36 18.335.39 19.817l.002.069v.013l.001.034v.016l.001.067.029 1.473c.572 29.795.935 53.81 1.116 77.487l.03 4.096c.033 5.004.059 10.007.076 15.06.173 49.073-.603 91.538-2.33 127.392l-.062 1.302L266 451.012V21.062z" fill="#005F99"/>
            <path d="M6 9.398c82.908 15 199.043-30 252 4v437c-135.667-5.218-218.333-5.884-248-2C7.425 421.1 5.063 370.18 5.063 336.115c0-44.67 3.437-110.793 3.437-146.717 0-52.145 2.5-110-2.5-180z" fill="url(#qqiroa3s4b)" transform="matrix(-1 0 0 1 521 4.602)"/>
            <path d="M263 18v437c135.667-5.218 218.333-5.885 248-2 1.39-14.741 2.719-36.37 3.647-58.514l.101-2.463c.732-18.066 1.189-36.318 1.189-51.306 0-17.868-.55-39.168-1.21-60.596l-.15-4.822c-.96-30.534-2.077-60.823-2.077-81.299 0-52.145-2.5-110 2.5-180-82.908 15-199.043-30-252 4zm63.296-10.02 1.11.014c.822.012 1.644.027 2.468.046l.99.024c15.355.402 31.696 2.034 65.607 5.981 9.492 1.105 15.543 1.794 21.427 2.422l.905.097 2.267.238c38.785 4.048 66.236 4.683 90.636.8l.035-.006-.007.096c-.597 8.686-1.086 16.979-1.48 25.22l-.11 2.353c-1.376 30.189-1.49 60.11-.977 106.593l.02 1.896c.171 15.103.256 23.515.292 30.904l.003.749.007 1.848.004 1.053.003 1.402.001.704.001.706.001.711v.179l.001 1.99v1.33l.007 2.204.004.882c.067 13.243.467 27.315 1.71 65.76.177 5.5.307 9.57.431 13.573.845 27.13 1.263 45.797 1.284 61.701v2.305c-.017 12.522-.353 27.5-.905 42.787l-.094 2.55-.098 2.554-.05 1.277-.103 2.555c-.844 20.433-2.038 40.67-3.344 55.617l-.049.561-.746-.079c-32.427-3.372-112.529-2.608-240.602 2.27l-.945.035V19.667l.115-.07c13.125-7.87 30.831-11.447 54.234-11.628l.903-.009c1.703 0 3.377 0 5.044.02z" fill="#005F99"/>
            <path d="M14 16.398c80.476 15.525 180-41 244-3v438c-138.048 0-218.381 1-241 3-2.997-29.163-6.604-65.282-6-108.457 1.133-81.025 5-137.45 3.992-191.52C13.984 100.351 11 57.513 14 16.398z" fill="url(#9dywqpwvlc)" transform="matrix(-1 0 0 1 521 4.602)"/>
            <path d="M263 18v438c138.048 0 218.381 1 241 3 2.997-29.164 6.604-65.282 6-108.457-1.133-81.026-5-137.45-3.992-191.52C507.016 104.953 510 62.115 507 21c-80.476 15.525-180-41-244-3zm61.725-10.323c2.416.068 4.769.163 7.118.293l1.085.063c.768.046 1.537.095 2.308.15l.927.066.93.07.934.075c13.887 1.134 29.346 3.625 57.74 8.744 9.034 1.63 14.382 2.576 19.793 3.487l.813.136 1.226.205c36.515 6.068 62.297 7.647 86.208 3.656l.436-.074.03.446c.149 2.237.282 4.43.4 6.61l.076 1.453c.394 7.742.588 15.438.599 24.61v1.738c-.02 14.629-.486 33.093-1.344 61.198-.392 12.836-.65 22.079-.846 31.024l-.029 1.307-.042 2.005-.026 1.337-.027 1.343-.025 1.348c-.138 7.361-.22 13.617-.227 20.12v1.505c.013 18.135.624 38.962 2.292 91.195.73 22.815 1.233 40.93 1.588 58.763l.043 2.228.021 1.114.044 2.366c.086 4.735.163 9.483.23 14.327.144 10.303.096 19.88-.16 29.402l-.055 1.969c-.646 21.657-2.372 43.257-5.355 72.676l-.115 1.147h-.057c-25.99-1.838-103.954-2.76-234.13-2.779h-1.127V19.729l.454-.256c15.933-8.884 34.878-12.45 58.27-11.796z" fill="#005F99"/>
        </g>
        <g transform="translate(242.5 307)">
            <path d="M0 0h44v20H0z"/>
            <circle fill="#005F99" opacity=".6" cx="34.5" cy="10" r="7.5"/>
            <path d="M34.5 2.5a7.5 7.5 0 1 1 0 15 7.5 7.5 0 0 1 0-15zm0 2.5a5 5 0 1 0 0 10 5 5 0 0 0 0-10z" fill="#005F99" fill-rule="nonzero"/>
            <circle fill="#005F99" opacity=".6" cx="9.5" cy="10" r="7.5"/>
            <path d="M9.5 2.5a7.5 7.5 0 1 1 0 15 7.5 7.5 0 0 1 0-15zm0 2.5a5 5 0 1 0 0 10 5 5 0 0 0 0-10z" fill="#005F99" fill-rule="nonzero"/>
            <path d="M22 4c4.226 0 8.45.557 12.665 1.67A4.478 4.478 0 0 1 38 10a3.637 3.637 0 0 1-4.569 3.515C29.619 12.505 25.811 12 22 12c-3.81 0-7.62.504-11.431 1.515A3.637 3.637 0 0 1 6 10a4.478 4.478 0 0 1 3.335-4.33C13.551 4.557 17.774 4 22 4z" fill="#737373" fill-rule="nonzero"/>
            <path d="M9.973 8.087C13.983 7.03 17.991 6.5 22 6.5c4.009 0 8.018.53 12.027 1.587A1.978 1.978 0 0 1 35.5 10a1.137 1.137 0 0 1-1.428 1.099C30.052 10.033 26.029 9.5 22 9.5s-8.053.533-12.072 1.599A1.137 1.137 0 0 1 8.5 10c0-.898.605-1.684 1.473-1.913z" fill="url(#glm399iovd)"/>
        </g>
        <g transform="translate(242.5 226.5)">
            <path d="M0 0h44v20H0z"/>
            <circle fill="#005F99" opacity=".6" cx="34.5" cy="10" r="7.5"/>
            <path d="M34.5 2.5a7.5 7.5 0 1 1 0 15 7.5 7.5 0 0 1 0-15zm0 2.5a5 5 0 1 0 0 10 5 5 0 0 0 0-10z" fill="#005F99" fill-rule="nonzero"/>
            <circle fill="#005F99" opacity=".6" cx="9.5" cy="10" r="7.5"/>
            <path d="M9.5 2.5a7.5 7.5 0 1 1 0 15 7.5 7.5 0 0 1 0-15zm0 2.5a5 5 0 1 0 0 10 5 5 0 0 0 0-10z" fill="#005F99" fill-rule="nonzero"/>
            <path d="M22 4c4.226 0 8.45.557 12.665 1.67A4.478 4.478 0 0 1 38 10a3.637 3.637 0 0 1-4.569 3.515C29.619 12.505 25.811 12 22 12c-3.81 0-7.62.504-11.431 1.515A3.637 3.637 0 0 1 6 10a4.478 4.478 0 0 1 3.335-4.33C13.551 4.557 17.774 4 22 4z" fill="#737373" fill-rule="nonzero"/>
            <path d="M9.973 8.087C13.983 7.03 17.991 6.5 22 6.5c4.009 0 8.018.53 12.027 1.587A1.978 1.978 0 0 1 35.5 10a1.137 1.137 0 0 1-1.428 1.099C30.052 10.033 26.029 9.5 22 9.5s-8.053.533-12.072 1.599A1.137 1.137 0 0 1 8.5 10c0-.898.605-1.684 1.473-1.913z" fill="url(#glm399iovd)"/>
        </g>
        <g transform="translate(242.5 146)">
            <path d="M0 0h44v20H0z"/>
            <circle fill="#005F99" opacity=".6" cx="34.5" cy="10" r="7.5"/>
            <path d="M34.5 2.5a7.5 7.5 0 1 1 0 15 7.5 7.5 0 0 1 0-15zm0 2.5a5 5 0 1 0 0 10 5 5 0 0 0 0-10z" fill="#005F99" fill-rule="nonzero"/>
            <circle fill="#005F99" opacity=".6" cx="9.5" cy="10" r="7.5"/>
            <path d="M9.5 2.5a7.5 7.5 0 1 1 0 15 7.5 7.5 0 0 1 0-15zm0 2.5a5 5 0 1 0 0 10 5 5 0 0 0 0-10z" fill="#005F99" fill-rule="nonzero"/>
            <path d="M22 4c4.226 0 8.45.557 12.665 1.67A4.478 4.478 0 0 1 38 10a3.637 3.637 0 0 1-4.569 3.515C29.619 12.505 25.811 12 22 12c-3.81 0-7.62.504-11.431 1.515A3.637 3.637 0 0 1 6 10a4.478 4.478 0 0 1 3.335-4.33C13.551 4.557 17.774 4 22 4z" fill="#737373" fill-rule="nonzero"/>
            <path d="M9.973 8.087C13.983 7.03 17.991 6.5 22 6.5c4.009 0 8.018.53 12.027 1.587A1.978 1.978 0 0 1 35.5 10a1.137 1.137 0 0 1-1.428 1.099C30.052 10.033 26.029 9.5 22 9.5s-8.053.533-12.072 1.599A1.137 1.137 0 0 1 8.5 10c0-.898.605-1.684 1.473-1.913z" fill="url(#glm399iovd)"/>
        </g>
    </g>
</svg>
