<?xml version="1.0" encoding="UTF-8"?>
<svg id="Layer_2" data-name="Layer 2" xmlns="http://www.w3.org/2000/svg" xmlns:xlink="http://www.w3.org/1999/xlink" viewBox="0 0 394 469">
  <defs>
    <linearGradient id="linear-gradient" x1="173.01754" y1="336.00184" x2="173.01754" y2="331.74652" gradientUnits="userSpaceOnUse">
      <stop offset=".34875" stop-color="#fff"/>
      <stop offset=".90496" stop-color="#fff" stop-opacity="0"/>
    </linearGradient>
  </defs>
  <g id="CASE_12_Plants_LH_WH_CL" data-name="CASE 12 Plants LH WH CL">
    <g id="Day_28" data-name="Day 28">
      <g id="rectangle">
        <rect width="394" height="469" fill="none"/>
      </g>
      <g id="ROOTS_Back" data-name="ROOTS Back">
        <path d="m198.05425,348.03015c-1.34473-1.92578-2.95544-3.37042-4.67584-4.81909.89728.34296,1.77124.71814,2.60449,1.13171.62701.34369,1.42004.138,1.79828-.47815,1.01337-2.01624-2.26642-2.66632-3.46686-3.35419-2.94531-1.17316-5.78552-2.14014-8.91364-2.75012-.93726-.46613-1.90765-.8736-2.92456-1.19495-2.43632-.54538-5.12635-.96504-7.34814-2.05243.00647-1.20831.00238-2.40393-.02869-3.56177-.19257-2.98285-4.55371-2.77472-4.49603.18243.03406.90607.04468,1.95746.0423,3.07178-3.07868,2.17338-7.10376,2.55333-10.44641,4.10093-4.1247,2.09982-7.53046,4.84835-10.7229,8.15152-1.16553,1.28595.67444,3.07513,1.9267,1.88983,1.34882-1.27362,2.84155-2.50739,4.41437-3.63159-.17133.43201-.34167.85864-.51605,1.26685-.20544.55286-.39954,1.10767-.58997,1.66296-1.1615.84784-2.59073,1.77883-3.94031,2.1322-.74597.10529-1.27161.8056-1.14783,1.55469.44156,1.92716,2.71086.87311,3.81073.3269-.28052,1.17482-1.33279,3.0077.3046,3.61427.7084.23271,1.4714-.15291,1.70406-.86134.42993-1.28986.8692-2.57489,1.32373-3.85217.63867.53613,1.67151.25598,2.62408-.18896-1.3421,1.50488-2.45776,3.198-3.14343,5.22784-.16626.62286.07092,1.1192.46332,1.41162-1.01935.6756-1.56464,1.50739-.80383,2.56628.51324.53595,1.36383.55426,1.89978.04102.14594-.1474.30151-.26062.54266-.38928-.7025.95955-2.47716,2.02417-1.37034,3.32448.50047.55296,1.35453.59556,1.90751.09507,1.39556-1.2622,2.6936-2.67958,3.8363-4.19012.01208.37207.16174.66925.38666.88306-1.48273,1.14441-2.83008,2.44403-4.27045,3.63025,0,0-.0304.02368-.03375.02637-1.41168.4483-1.10266,2.73901.55145,2.62372.75452-.09943,1.37-.65588,1.91956-1.08807,1.03107-.79443,2.11694-1.76147,3.26135-2.61438-.27081.64587-.51471,1.30359-.73889,1.96991-.84167.41992-1.69092.97076-2.45831,1.32947-1.73645.32861-1.56165,2.75562.23395,2.68988.41003-.05933.77582-.16687,1.11835-.30035-.18054.66595-.36005,1.33209-.54413,1.99548-.37427,1.68793,2.0979,2.34058,2.60791.69379.44702-1.51709.99097-3.09277,1.58209-4.59241.95685-2.29028,1.89758-4.75415,3.69525-6.38.20874-.22839.4082-.47449.60205-.73004.05328.6817.10486,1.34088.15063,1.9386-1.22949,2.84387-3.43414,5.68896-4.96967,8.44348-.60345,1.26947-2.9306,4.43549-.69891,5.29938.79059.2392,1.57446-.30121,1.7226-1.0954.17664-.40332.38232-.78528.5863-1.16852-.13538,1.01593-.4126,2.00623-.8562,2.90259-.31799.6474-.07001,1.43597.57007,1.78204.65594.35468,1.47516.11047,1.82983-.54547,1.36475-2.56714,1.72986-5.50702,1.224-8.34363.21948-.29425.43622-.59088.65631-.88556-.10101,1.88129.00543,3.77606.19757,5.65833-.36206,1.28717-1.10016,2.53027-1.77759,3.69312-.58807,1.05023-1.8877,2.05945-.72656,3.16382,1.29865.98688,2.32953-.42542,3.12921-1.75073.11438.96973.21857,1.96228.19067,2.76514-.06299.73553.47809,1.40045,1.22467,1.466,2.27032.00928,1.35968-3.23047,1.43732-4.56787-.16526-2.38596-.424-5.31503-.40759-7.65387.16132.23132.32196.46411.4787.70227.06647.09521.13739.19318.2049.28888-.10065,1.01068-.18005,2.1272-.11536,3.11737.21466,1.41669.07953,5.22491,2.2384,4.79858,1.77774-.4868.66105-2.455.67365-3.69159.16656.30121.34058.60187.4812.90515.27283.67377,1.04071,1.01892,1.72992.75677,1.57843-.72662.60992-2.4751-.19666-3.8299,1.04138.73248,2.65155-.44562,1.93719-1.77185,2.16186.47947,1.98512-1.84693,1.45801-3.31958.7406.55646,1.53278,1.04205,2.41162,1.40302,1.63623.57642,2.57941-1.81506.98993-2.50946-3.58147-1.90201-5.35859-5.80514-8.67102-8.37415-1.41817-1.49856-2.42923-3.09599-3.32587-5.05365.00735-.75722.04289-1.46541.08246-2.19318.20703.12219.41504.24109.62286.36035,1.23779,2.16101,4.02698,10.7785,6.68829,8.71344.237-.20844.36267-.48572.41547-.77374.03986.08221.08521.16376.14398.24359.65106,1.36066,1.16748,2.75342,1.48993,4.09741.10211.71808.76147,1.23914,1.49323,1.15277.97693-.11292,1.23132-.96271,1.08771-2.14648.44019.37427.84369.76038,1.16943,1.1615.44531.58002,1.28198.70288,1.87506.26172,2.30408-1.88257-3.64667-5.23102-4.76752-6.39178-.29968-.62482-.60712-1.22614-.9093-1.78845.55859.28168,1.10992.57312,1.64679.88336.12866.12323.29535.22552.49182.30682,1.32593.81006,2.5614,1.73773,3.59308,2.92682.43933.58112,1.26898.71039,1.86523.28021.99695-.8476.48083-1.86621-.36469-2.77405.54706.05872,1.07135.17261,1.55591.39594,1.59442.77942,2.79297-1.57129,1.22748-2.40472-.849-.45203-1.71289-.64746-2.57709-.74365.20074-.25543.31128-.57574.27679-.91833.02277-.00891.04333-.01178.06653-.02179.27081-.14288.46814-.36694.58783-.62476.0351.05481.07672.10999.11102.16467.32129.66876,1.13055.96729,1.80823.63794,1.73471-.95715-.01732-2.88409-.67432-3.95142.75721.12049,1.54084-.53242,1.48907-1.4516.31958.34033.63196.68396.91998,1.03699,1.03668,1.43073,3.18439-.05542,2.22626-1.52777Zm-39.23022,14.96185c.00562-.00317.00385-.00208.0116-.00641.08636-.0437.19116-.06323.2868-.05365-.10699.01117-.20593.0321-.2984.06006Zm16.34204-28.07385c-.0105-.03955-.0282-.07074-.04004-.10876,0-.00482.00006-.0097.00012-.01453.01367.04089.03009.07709.03992.12329Zm4.42993,15.17609c-.0639-.04535-.12769-.0744-.19159-.11011-1.31085-1.02362-2.76141-1.89124-4.01385-2.91888.43628.1593.87164.29718,1.29956.4184.90466.29309,1.82031.67792,2.73358,1.10944.16101.12091.36652.21289.59857.284.11975.05957.23846.12408.35797.18512,1.14606.72443,1.94678,1.85889,2.79956,2.97955-1.21606-.64331-2.42963-1.27332-3.5838-1.94751Zm-9.38733,1.87695c-1.02664,1.79767-1.56634,3.40017-2.64313,4.94409-.65466.16119-1.22601.40906-1.75525.68079.80096-1.71295,2.07733-3.30261,2.66376-5.17303.60266-.46313,1.18671-.98871,1.75995-1.53424-.01373.36475-.02466.73102-.02533,1.0824Zm-1.62299-4.70807c-.16699.18518-.33179.36816-.49725.5531.02368-.08862.04919-.17554.06799-.26947.14355-.09436.28613-.18921.42926-.28363Zm12.54535-2.78101c.23022.15271.49524.35858.73682.60651.76447.74341,1.43439,1.56531,2.1062,2.39056-.45026-.28265-.90094-.56671-1.35052-.85706-.07587-.04425-.15204-.08771-.22784-.1319-.37774-.26892-.81245-.57226-1.29376-.73743-1.02863-.57324-2.0968-1.11768-3.32318-1.56641-.71167-.28156-1.38824-.6283-1.96741-1.02002,1.65735.53033,3.53973.88971,5.3197,1.31573Zm-23.43579,3.61041c.48181-1.21637,1.00958-2.4093,1.59119-3.57446,1.90195,2.89615,4.71939-2.70107,5.32672-4.039,2.00641-.46674,4.02405-.81598,5.96954-1.63251-.01434.68378-.02924,1.34772-.0437,1.99597-.76495.84229-1.84924,1.67419-2.83441,2.45099-2.06854-.24298-4.1123.96375-5.68982,2.01105-1.04071.69476-3.25721,2.40863-4.31952,2.78796Zm4.95148,3.43402c.06958.35376.27704.67999.57251.89386-.67603.81903-1.27216,1.71289-1.82629,2.5802-.57532.24939-1.41681.5318-2.29205.86578.87457-1.67798,2.11096-3.08612,3.54584-4.33984Zm15.14246,18.10773c-.0777-.24329-.21411-.43982-.38544-.59436-1.13794-1.74725-2.29626-3.5097-2.8526-5.41357.03717-1.31488.02014-2.68439-.01636-4.0694.93729.76087,1.3955,1.71021,1.77963,2.94357.90354,2.65195,1.11936,5.58561,2.17795,8.26645-.22656-.3783-.46069-.7558-.70319-1.13269Zm9.66431-15.23547c.20734-.21393.34796-.48999.39404-.78363.39459.29797.76056.6095,1.08594.93842-.49902-.02472-.99268-.07172-1.47998-.15479Zm3.34747-7.67767c-2.06207-2.35431-5.19171-4.87585-8.40375-5.58392-1.65942-.58246-4.04541-1.09583-5.86542-1.92615,1.46503.28784,2.95831.47485,4.40594.6402,1.55475.1297,2.89069.86932,4.33411,1.59973,1.87152,1.0462,3.84003,2.2522,5.67511,3.60596.45367,1.25134,1.22107,2.17657,1.24982,3.29858-.44751-.54382-.90839-1.08344-1.39581-1.6344Z" fill="#4c4c4c"/>
      </g>
      <path d="m244.65099,217.64087c-5.20422,1.3031-10.69806,2.21613-16.05756,2.78076-.92944-.01941-1.89404-.2406-2.79254-.05762-13.62226,2.25432-28.02134,5.14954-39.50781,13.46698-1.44189,1.27686-2.56909,2.90417-4.05719,4.12421-3.08057,2.92853-5.57867,6.40015-7.54028,10.15826-.23737-8.72662-.53772-17.47711-.64777-26.09357,1.43274-3.02264,5.4328-6.95563,10.74976-10.51068.86084-.5752,1.09229-1.73975.5166-2.60059-.57471-.86084-1.73926-1.09375-2.60059-.5166-3.55524,2.37689-6.50873,4.86035-8.69885,7.26453.00128-1.25232-.00952-2.51294.00452-3.75665-.01111-.60706-.22571-1.06708-.54303-1.39563-.9743-4.34833-3.92883-10.31317-7.57074-12.43744-2.14915-1.20377-3.99821,1.9603-1.88958,3.2393,2.83611,1.65426,5.56579,7.6639,5.99291,11.04165-.05902,1.97284-.09705,3.94427-.12671,5.91504-.51467-1.44073-2.00546-2.54134-3.36781-1.43126-.79094.66838-.89055,1.85099-.22259,2.6425,1.23535,2.46119,1.82492,6.29946,3.53632,9.04413.01678,4.26025.06927,8.51697.13495,12.77087-3.16083-3.1748-6.57825-5.97919-10.08893-8.64728-1.21484-1.00842-2.57263-1.79749-3.78198-2.81433-1.12329-1.12329-2.26685-2.24139-3.66443-3.02264-7.93921-5.11749-16.48029-9.28619-25.39899-12.42151-.77521-.27972-1.50635-.54236-2.35901-.42249-.86414.09308-1.55298-.31079-2.32422-.48309-4.55927-1.27832-9.14514-2.36346-13.77771-3.33783-2.38312-.48138-3.00244,3.03223-.65936,3.44031,4.55121.59808,8.99847,1.80371,13.30646,3.3728.7027.29181,1.45978.43707,2.05701,1.03271.30475.27954.60504.56537.95215.71777,8.83032,3.4024,17.3963,7.591,25.55969,12.38525,1.25702.88989,2.75464,1.3479,4.14014,1.98254,5.15594,3.10608,10.01086,6.8924,14.12238,11.29852.65057.65344,1.35065,1.54767,2.0022,2.39752.05139,2.93646.11566,6.45209.16052,9.77765-2.98578-2.60223-6.07861-5.04089-9.25293-7.34882-2.21545-1.6485-4.61078-2.98346-6.44293-5.24573-2.19843-1.68176-4.6073-3.01154-6.9245-4.47034-5.29248-3.14368-10.67224-5.96338-15.96112-8.96472-4.50024-1.40137-8.42236-4.26337-12.17334-7.08112-.79828-.6684-2.03015-.48517-2.59229.39355-.52692.81189-.29584,1.89722.51611,2.42413,1.15912.7522,2.30182,1.52234,3.41559,2.33575,1.65051,1.08948,3.4613,2.38086,5.10498,3.49609,1.22424.66711,2.07477,1.89441,3.17224,2.70935,6.87086,4.36445,14.12678,8.26374,21.14288,12.25439,1.67548,1.17786,3.92529,1.32355,5.58929,2.46002,5.26434,3.31201,10.37097,7.24811,14.45459,11.91968.02026,5.15996-.099,9.50143-.23419,14.54199-1.90997-2.27203-4.32629-4.26227-7.14221-5.90564-.92139-1.56281-1.85346-3.05339-3.38698-3.41154-.50033-.42232-.89626-1.01862-1.60955-1.28852-.71731-.30382-1.67399-.34112-2.37212-.17726-.62469-.45752-1.77399-1.24872-2.41296-1.38043-.18542-.05078-1.54523-.53455-2.38531-.96082-.25616-.13-.94086-.69409-1.19861-.90643-.37569-.32132-.44665-.29453-.69104-.67969-.45409-.93435-2.07602-1.80702-3.10669-.87817-.15784.01685-.31329.03046-.37421.03186-.42117-.02431-.9071-.07446-1.32513-.01447-.09045-.04205-.19385-.09802-.24463-.13501-.7365-.56045-1.40184-.57897-2.18437-.48265-1.58887.36113-1.38883,1.96049-1.39406,2.92919-2.11628.82119-3.49071,1.45484-3.42895,3.97023-.01825.31639-.04779.83214-.11066,1.03954-.47498.56714-2.93835,3.56818-2.9046,4.55969-.00055-.01599-.00116-.03406.00012-.05408-.15336,1.1828-.58658,2.87562.67412,4.06691.68761.61874,1.64702.96772,2.55653.90233.5172.03126,1.03993.29866,1.60364.28868,1.12652.00008,1.97735-.52006,2.52508-.92393.29979.1199.72382.15325,1.06604.06854.10907.00385.22461.01648.31085.03101.72359.88818,1.37603,2.17405,2.65405,2.16693,1.00234-.13058,2.77756-.71974,3.0588-.67264.25532-.01656.34067.02864.70371.21591,1.38249.91312,3.47075.46852,4.09949-.94537.30887.16342.58577.19852.85187.19495,1.86828-.13008,2.70369-1.08168,3.39734-1.77625,1.5053.46733,2.60864-1.25099,4.065-1.47083.00037-.00012.00079-.00024.00116-.00037,4.13464,2.59625,7.07251,6.10291,8.43365,10.06793-.14771,4.38043-.29626,8.76416-.40643,13.14606-1.53082-2.0766-3.54279-3.64288-6.40802-4.85632.0835-.63062-.0127-1.40417-.38898-2.57117-.3515-1.09003-1.42712-1.68744-2.18439-1.9668-.27856-1.96567-1.17605-4.14027-2.75315-4.82301-.81456-.39587-1.83987-.45498-2.66507-.75512-.37875-.43576-.96639-1.12269-2.15019-1.71448-1.54746-.82109-3.72353-.86435-5.11966-.32684-.24215.11088-.70831.36193-1.49912.36908-1.0439-.08423-2.28595.00995-3.62613.74782-1.18696.70044-1.79437,1.79328-2.74953,2.49977-1.88606,1.16581-3.64051,2.03079-4.27664,4.01397-.39643,1.02613-.70646,1.28105-1.7265,1.79197-2.19414,1.13788-5.07831,3.78727-4.69702,6.14556-.06375,1.25277-.42638,2.89082,1.00083,4.21382.87546.77549,1.91887.67032,2.82992.86778.62856.37455,1.98925,1.27146,2.42073,1.36839,1.11833.41971,2.53625.02571,3.44945-.32371.11079-.024,1.03233.19073,2.29586.71125,1.3391.53416,2.82236-.21867,4.02745-.62721.89233.24861,1.20627.81872,2.1559,1.19363,1.35136.57212,2.76509.52682,4.34373.27121,1.94442-.32182,3.04844-1.44316,4.76269-2.14325.63106-.12704,1.2295.34571,2.03339.29025,2.08892.0561,4.55112-2.74651,4.52923-4.22086,3.18384,1.91888,4.57666,4.94531,6.28772,11.20868.11346,2.57947.29016,5.15076.48462,7.71753-2.56561-2.13409-5.39099-3.52838-9.15192-4.61646-2.20532-2.72081-8.8521-2.03092-11.61839-1.08386-5.58504,1.638-8.6885,4.55951-8.30166,7.815.28109,2.53754,2.6721,2.65146,4.67261,2.133.35308.99554.77487,1.98497,2.62078,2.69325.57813.21703,1.19111.32708,1.82203.32708,3.25665,0,6.1239-2.85553,7.11969-4.88318.82477-1.67944,1.54791-2.45557,2.67688-3.38965,5.17767,1.51483,7.9137,3.59399,10.57727,6.6853.27899,4.0321.47961,8.06372.35962,12.11407.03723,3.33002,4.87909,3.3313,4.99939.07697.09625-4.20447-.0849-8.6416-.36816-13.04645,3.99561-5.99945,6.71027-6.85321,9.87683-6.93091,1.84838,1.22044,3.44038,1.92898,5.78356,3.46519,2.78571,1.72939,5.24305,6.23659,8.62749,6.23265,4.32124-.12312,4.00295-4.52228,2.85988-6.97036.41876-.2326.87079-.50787,1.14532-1.00317.33734-.60852,1.04999-2.22571.38385-4.0946-1.5919-3.70373-5.85988-4.6156-10.45208-4.79282-3.81422.00032-6.82813,1.18899-8.8047,3.43784-3.43219.16071-6.41608,1.10358-9.8302,4.99457-.11981-1.50867-.24261-3.0047-.36359-4.46576-.1687-3.9588-.17981-7.91522-.12439-11.87286,1.47058-2.13971,5.54926-5.23181,9.48358-6.76416.50843.73028,1.8475,1.00737,2.89623,1.4626.7853.33351,1.27159.90991,2.16755,1.17331.91565.31164,2.01535-.06079,2.94402.02284.99774.39029,2.28016,1.17298,3.40791,1.15556.92498-.03256,1.93291-.40922,2.77801-.59562.50845-.04591,1.70925.05384,1.7865.11761.85022.30272,1.90556.92851,2.78155.92451,1.03111-.0145,1.70204-.57406,2.26648-.98664.45889-.10194,1.02936-.16084,1.47516-.22925,1.80238-.3092,2.28926-1.90857,2.50537-2.51691.1687-.41339.45972-1.0271.65125-1.42889.87708-.73724,1.37831-1.10147,2.13513-2.24707,3.06579-1.23028,2.61937-5.60494-.90013-7.20398-.58702-.20201-1.18376-.40036-1.83009-.67261-.93624-.52737-1.84303-1.36576-3.12209-1.47999-.97488-.13496-1.88798-.32045-2.55797-1.10975-.7345-.7106-1.95592-1.72998-3.54328-1.77768-.46881-.01112-1.5389.15105-2.05656.17791-.39987.01087-1.88759-.15478-2.52948-.22161-.94581-.0085-1.93751.60301-2.77343.96416-.69831.20672-1.85146.02138-2.50928.2216-1.20807.38375-2.03814,1.28835-2.43512,1.7452-2.41488.41814-3.45514,1.41475-3.50647,3.82404-.94636,1.05225-1.9797,2.7817-1.54871,4.47754-2.70837,1.05273-5.51947,2.68518-7.8269,4.513.26621-8.2917.58038-16.62175.58978-24.95062.52637-3.98834,2.18433-10.36713,7.36816-12.27576.84017.13178,1.22374.56214,1.9888.82175.93804.2603,1.96309-.08116,2.79025-.30054,1.20507.04965,2.42009.8373,3.83484.8154.75284-.01428,2.35331-.61204,3.1496-.60742,1.04088.17329,1.43104.55844,2.58746.56848,1.44245.10312,2.83158-.91355,3.51215-1.70148.77912-.13195,2.3236-.1554,2.75982-.4714,1.30775-.72733,2.16138-.98972,2.36994-1.00279.43622.01611.5639.10669.77545.25665.40018.39828,1.58693.71577,2.29315.30147,3.1665-1.79903-1.98823-6.47813-4.38837-7.9802-1.87149-1.27083-5.56659-2.5673-8.73697-2.09324-1.01503-.0094-1.97996-.36858-3.02175-.24303-.87766.09248-1.6339.69667-2.35663,1.10814-2.09647.08384-3.91233.61549-5.5274,2.47236-1.2972,1.65869-1.98504,2.3496-2.9856,3.62615-2.26111.703-4.21936,1.96552-5.83838,3.74414,1.97339-6.36456,5.83374-12.21259,11.29547-16.04413,2.41382-1.03363,4.43835-2.66913,6.7677-3.8736,10.23694-5.36542,21.69434-7.69379,33.07294-9.91913.89423-.13892,1.72473-.66846,2.5899-.9989.8689-.30469,1.77631-.40643,2.66449-.61572,1.85132-.39496,11.38654-2.21674,13.50244-2.62103,2.35498-.53223,1.51611-3.95673-.77899-3.41211Z" fill="#2e541a"/>
      <g id="ROOTS">
        <path d="m197.02361,348.73749c-1.35919-1.94849-3.159-3.50604-4.96393-5.00714-1.62115-1.28168-3.28741-2.5274-5.04938-3.61682,3.29846.6615,6.58453,1.64783,9.57843,3.1369.1098.06391.21355-.10468.1032-.17133-.90111-.55712-1.86285-.99487-2.83202-1.40423-2.9082-1.16608-5.85889-2.1673-8.95142-2.7475-3.20173-1.90851-7.97283-1.59322-10.93701-3.70514.03601-1.39984.05835-2.7962.05328-4.18585-.02838-1.32861-1.98938-1.27856-1.99957.01111.00403,1.20831-.00977,2.42767-.0304,3.651-3.08299,2.75718-7.64234,3.06206-11.27877,4.74602-3.90269,1.98408-7.32194,4.74086-10.33653,7.87733-.09253.0968.06409.22577.14441.13806,2.51544-2.27875,5.27893-4.52838,8.32208-6.15118-.29486.46997-.55206.96948-.82471,1.46515-.88062,1.81256-1.60107,3.68927-2.24213,5.59344-1.38312,1.15076-3.08264,2.19733-4.82275,2.64691-.05627.00763-.09595.06024-.08594.1167.00952.05432.06128.09064.11566.08112.98944-.17377,1.86511-.63013,2.72668-1.08118.65045-.37122,1.27454-.71393,1.86603-1.15112-.5426,1.6582-1.03455,3.33337-1.52142,5.00409-.03888.12561.15546.17572.19104.05914,1.24329-3.73267,2.49677-7.49445,4.3479-10.96619.53015-.91382,1.16278-2.0379,2.03589-2.62671.7666-.32922,1.55402-.60156,2.35577-.83246-.63642,1.50159-1.1993,3.27419-2.55389,4.2854-.11026.06564-.00642.23873.10345.1712,1.66168-1.03748,2.33105-3.09161,3.25488-4.68213.09021-.02155.17657-.05481.26727-.07495,2.18347-.37091,4.3053-.93774,6.37274-1.75641.54163-.23938,1.04083-.43958,1.51819-.68646-.03503,1.43799-.07672,2.87848-.11975,4.31842-.14124.23572-.36212.51837-.53082.69421-1.04639.96747-2.15558,1.86865-3.28033,2.75421-4.03679-.75832-6.8445,3.79633-10.3999,4.77411-.12512.026-.08289.21698.03809.19562,3.32743-.73001,5.98723-4.30372,9.51837-4.30743-3.68816,3.00519-8.16834,5.90832-9.72763,10.63923-.03561.12749.16244.17272.19217.05486,1.70929-3.93146,5.23358-6.44232,8.80365-8.81104-.27081,1.51111-1.37994,3.12311-2.5083,4.0351-.05743.02289-.09357.08362-.06445.14301.02399.04895.08319.06921.13214.04517.47839-.23456.76709-.60217,1.09143-.95038.85223-1.0708,1.75836-2.21753,1.89032-3.63098,1.66773-1.09781,3.2725-2.15801,4.77881-3.36261-.01233.65558-.04669,1.5296-.08795,2.49396-1.77313,1.48425-2.93365,3.1676-4.52509,4.66266-2.12533,1.4364-3.58614,3.14765-4.89343,5.33893-.35876.18201-.7536.33984-1.14966.4903-1.41876.58185-3.16351.97656-4.271,2.09882-.08594.0943.06274.22699.14716.13477,1.31415-1.14178,3.15424-1.41443,4.79663-2.00568-1.15497,1.74164-2.3313,3.44513-3.89661,4.92047-.09375.09186.05042.2262.13794.14453,1.84723-1.55066,3.29834-3.534,4.7406-5.47522.08171-.04002.12075-.10638.12976-.17444,1.06421-1.40919,2.06257-2.92299,3.5943-3.82104-.62451,2.06671-2.13,3.94458-2.51733,6.09351-.0174.12494.177.15186.1972.03027.6568-2.43994,2.5658-4.23193,3.20544-6.72101.14215-.09692.28485-.18927.42578-.29309,1.31274-1.05157,2.53076-2.38177,3.79358-3.46161-.0675,1.59454-.12677,3.20032-.12036,4.33899-1.18719,1.97876-1.797,4.08112-3.23987,5.80225-2.7428.60126-4.80579,2.62865-6.86145,4.38977-.58215.47913-1.47693,1.44635-2.13947,1.72437-.1626.02112-.14008.23724.0174.19928.83374-.36401,1.59985-1.18066,2.30646-1.7088,1.85083-1.43469,3.81018-3.21246,6.10754-3.83209-1.28992,1.80951-2.15997,3.8457-2.84644,5.95593-1.16821.45496-2.19189,1.39777-3.37628,1.67352-.12946.01538-.10107.21661.02625.19818,1.17188-.2442,2.10565-.94098,3.18567-1.37543-.4776,1.53223-.8764,3.09235-1.29041,4.61908-.0307.12848.16541.16675.19397.04852,1.34263-3.97386,2.53373-8.43022,5.55054-11.46771.99188-1.10596,1.73645-2.46204,2.49329-3.75818.12964,1.87799.32147,4.26343.45465,6.01257-1.6991,4.2674-5.29346,7.76337-6.64343,12.20068-.02954.12439.16406.16498.19318.04718.69037-1.8092,1.74084-3.40857,2.87354-4.96436.66593,2.62171.14112,5.17766-.74994,7.58887,1.55194-2.16077,1.69122-5.45544,1.13831-8.11517,1.1499-1.54932,2.34021-3.08026,3.32776-4.73889.12376,3.23695-.40474,6.51312.10486,9.75171-.34357,2.05328-1.75604,4.13983-2.94501,5.84888-.08057.09955.07465.22235.15454.12659,1.1839-1.45526,2.18158-3.05164,2.93451-4.76727.28973,2.28302.63788,4.55676.66705,6.84454-.01593.13544.19214.14087.19928.01807.17128-4.92375-.93691-9.80569-.17004-14.70538.80438,1.6051,1.87939,3.0459,2.95459,4.49103-.23224,2.28424-.36884,4.98566.55457,7.034.05365-.01331.0863-.0675.07306-.12115-.5238-2.1037-.5249-4.23474-.22046-6.36371,1.03503,1.40247,2.03394,2.83154,2.74414,4.44427.05029.12.23004.04285.1861-.07269-.67078-1.82007-1.7547-3.50018-2.84509-5.17462-.01544-.06024-.03961-.10638-.08789-.13513-1.29932-1.99493-2.58685-3.98859-3.185-6.20471.05829-2.62487-.18581-5.22858-.11127-7.86975.98901,1.43811,2.12799,2.65216,3.35754,4.04309,2.05383,3.59332,1.71661,8.08887,3.72791,11.72656.06525.11371.23389.00476.17291-.09967-1.66565-3.37506-1.39496-7.38641-2.76855-10.88361,1.13971,1.01556,2.17004,2.19366,3.23431,3.3277-.02399.02917-.0564.04761-.06525.09399-.46771,2.00275.90643,3.73193,1.04791,5.61127.00104.12946.19775.13196.20007.0036-.01892-1.81329-1.18756-3.50592-.79553-5.30255,1.33887,1.39539,2.75751,2.68292,4.53754,3.45636.12329.04388.18799-.14612.06873-.18762-3.81104-1.89893-5.69318-6.02368-9.02411-8.60333-.04822-.04004-.09784-.06512-.14691-.07812-1.35687-1.72498-2.63934-3.36078-3.52142-5.46838.03461-1.60657.09137-3.21637.16077-4.82776.74774.55957,1.71167,1.13354,2.62976,1.6626,1.70401,2.73399,2.37221,6.66939,4.98037,8.69429.04081-.03749.04349-.10078.00614-.1415-1.11383-1.25623-1.85815-2.77966-2.4715-4.33514-.48969-1.17657-.79865-2.35638-1.28638-3.51007.75861.44263,1.36151.82056,1.58099,1.08209,1.8194,1.88196,3.39301,4.12781,4.56854,6.54333.00702.02686.02136.05237.04047.07776.71857,1.48999,1.28552,3.04358,1.66064,4.61731.01727.13342.21332.09753.19861-.02557-.26392-1.3808-.67352-2.73657-1.18524-4.05664,1.56799,1.1543,3.26617,2.11505,4.49487,3.65594.07922.10187.23505-.01953.15961-.12042-1.30389-1.80469-3.30206-2.95331-4.94293-4.38123-.02228-.02484-.04669-.039-.07104-.05249-.87109-2.01056-2.00525-3.91449-3.34753-5.63635,2.01419.94321,4.04143,1.88315,5.98138,3.01489.03142.04824.07941.07342.13623.08258,1.50018.90283,2.89478,1.95209,4.02191,3.30182.07904.1037.23273-.01855.16089-.11884-.90796-1.17639-2.00659-2.13824-3.19244-2.99609,1.83335.15049,3.95399-.17924,5.65088.64637.11615.05828.20367-.12043.09094-.17805-1.97815-1.06763-4.41608-.46228-6.49719-1.01172-2.50336-1.65887-5.35065-2.89606-7.86646-4.40704-.01044-.008-.02319-.00928-.03412-.01611-1.7475-1.43518-3.94073-2.47406-5.39221-4.12488.03461-.73224.0694-1.46399.1059-2.19611,1.25629.78174,2.9679,1.39441,3.5144,1.50922,1.30377.44977,2.57874,1.01068,3.8299,1.63531,2.28918,1.25391,3.27588,4.24677,5.54059,5.59174.11029.06177.20557-.11011.09985-.17279-1.44873-1.04419-2.24646-2.71149-3.28149-4.15015,1.68073.96783,3.31354,2.02521,4.89294,3.09314.67773.50201,1.39825,1.00049,1.91388,1.63782.08087.10077.22949-.02484.15735-.12231-2.30402-2.54736-5.35498-4.25995-8.22559-6.09821-.33392-.24133-.69128-.45996-1.06262-.66528-.02686-.01398-.04736-.03406-.07465-.04761-.01093-.00446-.01996-.00226-.0307-.0058-2.41864-1.31049-5.43066-2.05768-7.17957-4.10889.03131-.63177.05853-1.26202.08832-1.89307,1.60974.88434,4.21667,1.4718,4.99237,1.66956,0,0,2.04419.4729,2.78046.64331,1.90198,1.01807,3.15674,3.31177,4.63782,4.83368.58093.65271,1.18793,1.29797,1.91174,1.81189.04352.02899.1051.02136.13751-.02094-1.33295-1.49573-2.06165-2.29681-3.31287-4.11755-.54541-.68524-1.04053-1.4212-1.61932-2.06848,2.16382.70416,3.97028,2.06696,5.65875,3.65674.00067.00525-.00409.00928-.00311.01459.38068,1.60651,1.01508,4.1015,2.08179,5.24768-.51263-1.57788-1.12561-2.75452-1.4389-4.64819,1.42926,1.44751,2.83844,2.97437,3.84125,4.74292.06494.11383.22797.01276.1759-.09424-2.59582-4.43511-6.37324-8.92562-11.5274-10.31903,0,0-2.98578-.90961-2.98584-.90955-1.73804-.61877-3.86005-1.07819-5.13544-2.4162-.02698-.03839-.06738-.05859-.0993-.091.02393-.5697.03888-1.13696.05914-1.70563.62311.23816,1.3056.37445,1.93121.5705,1.70258.40039,3.56274.63098,5.2901.82477,3.97534.65015,7.36432,3.26855,10.62897,5.50629.09302.07092.18488.14496.27789.21625.44429,1.47329,1.57342,2.7295,1.41431,4.3139-.00587.05292.03088.10199.08398.11029.05457.00848.10571-.02881.1142-.08344.21753-1.40643-.60229-2.65045-1.06537-3.91504,1.5625,1.21942,3.08197,2.51556,4.27863,4.0871.078.11279.23242-.01227.16492-.11316Z" fill="#fff"/>
      </g>
      <path d="m212.0454,286.10315c-.06622-.63934-1.11176-2.03052-1.92126-2.30908-.5603-.19281-1.23218-.41644-1.92554-.70923-.67456-.28479-1.34747-.97266-2.23346-1.27509-.3432-.11713-2.15002-.25055-2.97888-.83179-1.06921-.74982-1.70752-1.88849-3.29663-2.13501-.32623-.0506-1.79968.17603-2.20087.17041-.13306-.00189-1.68463-.07965-2.38867-.21051-.62238-.11572-1.91437.72418-2.46643.88879-.88007.26245-2.25653.1416-2.48969.21564-1.14758.3645-1.87616,1.50836-2.01611,1.57776-.82648.40985-1.55865.24878-2.31555.82281-.81091.61499-.27716,1.99847-.86536,2.64874-.55212.61029-1.48462,1.82776-1.32819,3.01733.08063.61328.25214,1.06561.49805,1.44916-4.19342,1.2771-8.77216,4.31085-11.3288,7.1167.17438-9.62903.6391-19.26965.72333-28.90735.6355-4.5238,2.64801-11.60052,8.94952-13.43561.12457.12634.2793.20929.45044.23193.92151.12207,1.50153.67987,1.77783.75018.67908.17273,1.48474-.1814,2.10907-.31396,1.20569-.25598,2.58228.73163,4.17041.78265.26898.00867,2.54468-.73846,3.39343-.58722,1.44495.25757,1.65399.71582,2.96661.48541,1.13281-.19891,1.66199-1.2713,2.25098-1.52197.49976-.21277,2.354-.23712,2.64484-.39893,1.26843-.70551,2.51886-1.21216,3.12469-1.19104,1.7218.06012,1.64172,1.03455,2.4397.68402.70551-.30988-1.88159-3.72528-4.55347-5.3186-1.47845-.88165-4.00769-2.25079-7.435-1.90814-1.40637.14062-2.39764-.33252-3.39471-.22516-.61176.06592-1.60114.92297-2.0827,1.05566-.4704.1297-1.60999.12219-2.29016.30048-.56335.14764-1.92194.93787-2.49493,1.66296-1.80624,2.33479-2.47083,2.79604-3.20172,3.97974-4.76044,1.24481-7.38947,4.99127-8.83923,8.83319-.22311-12.96289-.82183-26.52041-.93634-39.84033,1.46796-3.35413,5.65009-7.54907,11.4035-11.39557.40618-.26239-.01527-.90088-.41702-.62302-5.1542,3.44559-9.08444,7.19657-11.00137,10.42472-.02502-2.76996-.03918-5.51605-.02612-8.19312.00079-.24243-.17548-.44006-.40747-.48553-.74731-3.80933-3.48126-9.992-6.96246-12.02246-.41651-.2518-.80178.40821-.3779.64748,3.569,2.08189,6.31216,8.81096,6.73739,12.30131-.1579,4.69696-.20721,9.4447-.1958,14.22009-.77222-1.56525-1.31329-3.3078-1.77063-4.7807-.49551-1.38697-1.14178-4.29413-2.06048-3.77355-.15827.1339-.1778.37023-.0445.52892,1.46428,2.39052,2.02048,6.80468,3.88171,9.53937.14146,17.64744.77271,35.21118.08551,52.62567-2.01318-3.80859-5.32666-7.10229-9.63477-9.53333-.5199-.95215-1.54163-2.51562-2.07281-2.81372-.13812-.07745-.664-.15033-1.08972-.46228-.4787-.35071-.87317-.94708-1.26776-1.10089-1.23529-.48145-1.97974.22308-2.36682-.10626-.09985-.08496-1.76587-1.29529-2.17651-1.37994-.24744-.05096-1.79486-.60187-2.76117-1.09222-.55347-.28088-1.58533-1.19598-1.80511-1.35291-.62164-.44391-.7514-1.15277-1.24432-1.31525-.4209-.13879-.35101.2478-.66644.30072-.78361.19054-1.56912-.02768-2.29761.1068-.2478.06593-.96331-.29754-1.19873-.49938-.26648-.22845-.8172-.19519-.94592-.17004-.42065.08228.05029,2.13538-.38007,2.45618-.6391.47644-2.35406.89832-2.92371,1.52911-.5036.55774-.09656,2.70557-.73218,3.40088-.875.95715-2.59351,3.51495-2.59094,3.58923-.14632,1.37629-.78274,3.40904,1.61677,3.47063.65587-.0504,1.32097.28169,1.7282.28431,1.27478.00824,2.0741-1.18231,2.46606-1.16785.32336.0119.43652.48151.84717.33044.14191-.05219,1.05664-.00568,1.37115.21198.6106.42242,1.42206,2.08868,1.91785,1.961.27728-.07141,2.10736-.59674,2.87909-.66064,1.3692-.11334,1.7406.90869,2.83936.66107,1.02136-.23022.57465-1.17871,1.94128-1.68121.73016-.26849.57239.50964.9621.47974,1.76685-.13574,2.19507-1.4754,2.88837-1.6933,1.02191-.32123.8363.22388,1.43951-.11823.69119-.53009,2.20756-1.31586,3.36346-1.5705,4.83673,2.8609,8.27271,6.87292,9.76984,11.4613-.24689,6.46033-.52972,12.92615-.55432,19.39423-1.85455-5.14465-4.25098-8.08282-9.67261-9.98987.19238-.70264.79028-.74316.06793-2.9834-.23212-.71997-1.46326-1.11475-1.65491-1.13593-.4483-.04956-.5722-.99707-.79065-2.04779-.3208-1.54254-1.09503-2.41913-1.71027-2.71277-.70776-.33777-1.8974-.38507-2.82758-.82294-.30652-.14435-.69977-1.01288-2.00378-1.65436-1.36623-.65829-2.57485-.63391-3.81605-.31689-.18133.08404-1.24084.65283-2.68212.48101-.31635-.03766-1.62433.13885-2.2934.55432-1.13525.70496-1.72791,1.83856-2.72565,2.48456-.48254.31238-2.10492,1.28717-2.6767,1.72455-.84912.6496-1.10645,2.22913-1.8598,3.08459-.66608.75635-2.2854,1.26849-3.21552,2.12354-1.1969,1.10034-2.4848,2.42969-2.28094,3.52826.12335.66486-.48151,2.44501.5108,3.32037.54761.48303,1.67725.31793,2.38629.59662.37311.14667,1.83472,1.17529,2.33514,1.33777,1.16528.3783,2.24316-.33386,2.82715-.39111.81494-.08002,2.5235.62146,3.00122.80829,1.04565.40875,2.93707-.87311,3.61035-.73828,1.37396.27527,1.65967.91467,2.61505,1.32196,1.01862.43427,2.16956.38763,3.51642.17017,1.56866-.25323,2.62476-1.31232,4.43488-2.05121,1.49713-.61108,2.27911.88879,3.82367-.28363,2.46162-1.80708,1.93372-2.83634,1.21851-4.87445,6.09814,2.23145,7.76971,5.79822,9.91455,13.76898.02057.90234.0318,1.80475.0672,2.70715.23114,2.98004.48114,5.95422.69214,8.92792-2.88153-3.25403-6.04077-5.54675-11.81561-7.15985-3.2462-4.24223-18.23839-.21542-17.58109,5.23583.26536,2.23268,3.28641.1526,4.12833,1.00282.80353.81146.23859,1.85876,2.20288,2.59625,2.79248,1.0484,6.02277-1.68469,7.06799-3.81299,1.10278-2.24554,2.10016-3.12677,3.67883-4.38074,6.22882,1.68854,9.37537,4.15686,12.40234,7.7644.28247,4.23108.46954,8.46271.37885,12.71045.00106,1.31234,1.95714,1.34531,1.99969.03066.09894-4.31172-.09747-8.88936-.39697-13.42305,4.60394-7.08466,7.74536-8.00269,11.935-8.03381.85229.76746,2.74023,1.5705,6.0647,3.70563,3.07349,1.974,5.42627,6.18408,7.99054,5.98822,3.37109-.25745,1.44177-4.77972.98633-5.52869-.49774-.8186,1.2821-1.2124,1.53333-1.66553,3.40931-6.57741-12.50255-9.43573-16.82123-3.24396-4.17535.07843-7.41071,1.1319-11.77045,7.53723-.20001-2.8504-.43494-5.67249-.65979-8.38623-.14801-4.14417-.16028-8.2923-.11072-12.44257,1.72577-2.85413,7.25977-6.79865,11.94-8.1994-.09116,1.46253.81866,1.21763,2.48044,1.97459.89639.35897,1.39749.93514,2.04275,1.1296.6936.20898,1.74469-.17438,2.73602-.02411.73309.11121,2.4231,1.26147,3.34027,1.12787.91724-.13354,2.17914-.57489,2.5249-.58282.28339-.00647,1.43365-.05902,2.27301.16736.45123.1217,1.66528.74292,2.2243.85632.74438.15094,1.52911-.784,1.89941-.88361.57147-.15369,1.37457-.23438,1.77521-.29755.97375-.15356,1.2276-1.30084,1.34454-1.58777.23138-.56738.62317-1.37653.80908-1.76825.46824-.48895,1.65263-1.2673,2.17984-2.28449.37503-.65234,1.94242-.44836,1.72507-2.54711Z" fill="#95c172"/>
      <g id="root_main_fade" data-name="root main fade">
        <path d="m173.00023,335.99994c-.55127,0-.99902-.44629-1-.99805-.00146-.75439.03467-3.25537.03467-3.25537l2,.0293c0,.00049-.03613,2.47559-.03467,3.22217.00098.55273-.47314,1.03809-1,1.00195Z" fill="url(#linear-gradient)"/>
      </g>
      <g id="leaf_1_right_hi" data-name="leaf 1 right hi">
        <path d="m185.10727,312.54448c2.97184-.71096,7.30704.60511,10.14537,1.56297,2.48501.83862,4.82903,2.29751,5.32678,3.1161.45542.74898,2.38475,5.27125-.98636,5.52871-2.56429.19585-4.91705-4.01421-7.99054-5.98821-4.0532-2.60323-5.99802-3.22729-6.49525-4.21957Z" fill="#a6d67c"/>
      </g>
      <g id="leaf_1_left_hi" data-name="leaf 1 left hi">
        <path d="m159.84069,313.51752c-3.63462-1.61781-8.36609.54205-9.83673,1.60965-1.24676.90508-4.57666,3.62988-3.73475,4.4801.80352.81147.23861,1.85875,2.20286,2.59621,2.79248,1.04841,6.0228-1.68465,7.06804-3.81299,1.24158-2.52812,2.34513-3.3238,4.30058-4.87297Z" fill="#a6d67c"/>
      </g>
      <g id="leaf_2_left_hi" data-name="leaf 2 left hi">
        <path d="m131.77495,295.86974c-1.18874.93128-1.66569,2.49749-.67279,3.3722.54791.48269,1.67744.31684,2.38668.59505.37319.14639,1.83552,1.17406,2.33601,1.33618,1.16553.37753,2.24295-.33531,2.8269-.39301.81488-.08052,2.52391.61983,3.0018.80629,1.04592.40809,2.93645-.87507,3.60981-.74065,1.37415.27432,1.66032.91356,2.61593,1.3202,1.01893.43358,2.16984.38618,3.51653.16782,1.56853-.25432,2.62388-1.31411,4.43355-2.05419,1.49671-.61208,2.27972.88725,3.82347-.28622,2.23744-1.70077,2.09571-2.65147,1.30563-4.5178-.30971-.73161-.27317-.6332-.1812-1.09496-10.97118-2.5612-18.15708-6.24036-29.00232,1.48909Z" fill="#a6d67c"/>
      </g>
      <g id="leaf_2_right_hi" data-name="leaf 2 right hi">
        <path d="m210.32044,288.65029c-.52705,1.01424-1.70042,1.79515-2.17997,2.28443-.18591.39176-.57769,1.20095-.80904,1.76832-.11699.2869-.37079,1.43417-1.34454,1.58774-.40062.06318-1.20376.14389-1.77522.29759-.3703.09959-1.15506,1.03453-1.89943.88358-.55904-.11337-1.77307-.73461-2.22432-.85631-.83931-.22637-1.9896-.17382-2.273-.16735-.34572.0079-1.60763.44926-2.52486.58283s-2.60721-1.01671-3.34032-1.12787c-.99129-.15031-2.04237.2331-2.73601.02407-.64525-.19445-1.14634-.77062-2.04274-1.12963-1.06387-.42608-1.99824-.73001-2.16795-.88362-.62572-.56638-.07312-1.58149-.42336-1.9167,2.54931-.84737,4.44213-2.76743,10.48007-4.13689,3.0791-.69837,7.75503.09075,10.6357-.35333,3.81918-.58875,6.313.23945,6.34993.59603.21738,2.09878-1.35002,1.89477-1.72494,2.54713Z" fill="#a6d67c"/>
      </g>
      <g id="leaf_3_left_hi" data-name="leaf 3 left hi">
        <path d="m135.25033,272.22805c-.14873,1.39179-.77924,3.40571,1.61677,3.47063.65587-.0504,1.321.28169,1.72821.28432,1.27476.00821,2.07409-1.18229,2.4661-1.16787.32336.01189.43652.48152.84715.33049.14188-.05218,1.05663-.00569,1.37118.21194.61055.42243,1.42201,2.08872,1.91781,1.961.27729-.07143,2.10739-.59673,2.87911-.66061,1.3692-.11334,1.74061.90864,2.83936.66102,1.02134-.23017.57464-1.17871,1.94127-1.68118.7302-.26847.57238.50964.96213.4797,1.76684-.13574,2.19506-1.47536,2.88836-1.69329,1.02192-.32123.8363.22393,1.43948-.11821.39498-.22404,1.22666-.87371,2.13842-1.1882.89504-.30872,1.77217-.37986,1.8389-.96904-2.32251-.43948-6.07302-.98591-11.92278-3.67155-5.00627-2.62924-11.6954-1.4254-14.95145,3.75086Z" fill="#a6d67c"/>
      </g>
      <g id="leaf_3_right_hi" data-name="leaf 3 right hi">
        <path d="m207.78889,253.11794c-.79802.35054-.71793-.62393-2.43973-.684-.60582-.02114-1.85623.48552-3.12468,1.19104-.29083.16176-2.1451.18615-2.64485.39888-.58897.2507-1.11814,1.32309-2.25097,1.52198-1.31259.23045-1.52166-.22785-2.96662-.48537-.84877-.15127-3.12445.59585-3.39341.58721-1.58812-.05102-2.96472-1.03867-4.17045-.78267-.62432.13255-1.42998.48667-2.10903.31396-.27632-.07028-.85631-.62813-1.77783-.75016-.23176-.03069-.43434-.17088-.5712-.38158,4.02776-3.9166,7.38479-1.95937,11.53785-3.68361,5.87171-2.43777,8.75974-.98219,10.50983-.37245.71821.25023,2.52955,1.09385,2.87086,1.57725.56733.8035.81271,1.42545.53024,1.54953Z" fill="#a6d67c"/>
      </g>
      <g id="flower_5" data-name="flower 5">
        <g id="flower_5_back" data-name="flower 5 back">
          <path d="m182.13641,205.76135c-1.41899,2.15324-2.4954,5.02243-1.71594,6.17703,2.04927,4.10352,5.28013,2.81289,6.07479-.33369-.13354-.85771-.68204-4.38058-.80849-5.1927-.98128-.17982-2.56903-.47078-3.55037-.65063h0Z" fill="#2e541a"/>
          <path d="m186.12357,196.69687c-.86731-.00276-1.54523.47486-2.25158.76522-1.52523.58326-2.07554,2.74616-2.17609,3.86873-.65035-.15926-1.29476-.14566-1.96568-.15678-3.4026,0-4.06616.73329-4.28421.97425-.28937.31976-.42584.72461-.38426,1.13995.19911,1.99168,1.93832,2.54008,2.74403,2.75052-.05213.6239-.24504,1.33609.64672,2.3328.62093.66163,1.40618,1.33799,2.5225,1.33799.55831-.00537,1.15345-.18538,1.75992-.18814.03583.06679.07843.15211.12637.2578-.08498.39488-.05033.73286-.30142,1.03321-1.29343,1.71718-1.54983,4.92035-.50143,6.55656.70243,1.28118,2.48843,1.85744,3.53225,1.85744,1.10253.07997,2.12748-.98872,2.45823-1.64914.18127-.29185.33779-.54396.65923-.82078,1.64891-1.56818.37841-3.00948-.07301-3.95209.02607-.2572.13772-.67067.17668-1.00203.5005.85861,1.9412,1.11665,3.12343.97188.85782.3331,2.35986,1.2567,3.02228,1.18054,1.37991-.08873,1.62424-1.12516,2.08678-1.85579.72107-1.10376.00811-2.24093-.30097-2.74614.03544-.27356.08255-.62442.0753-1.19209-.08208-1.54783-1.15802-1.84842-1.80266-2.2164-.6975-.60136-1.83488-.40782-2.65773-.21617-1.24457-.54763-2.93353-1.4371-3.95729-1.38828l-.11046.00233c-.19461.00835-.38399.04466-.56848.10405-.00369-.16019-.00894-.29831-.01688-.41196-.07819-1.12004.07396-1.45421.0755-1.45744.53462-.62607,1.31153-1.26588,1.19565-2.45298-.15387-1.54599-1.08273-3.33444-2.85272-3.42707h0Z" fill="#726400"/>
        </g>
        <g id="flower_5-2" data-name="flower 5">
          <g>
            <path d="m196.32842,209.63263c-.03766-.06122-.07361-.11646-.10077-.16486.0429-.40973.09846-.66196.09106-1.29962-.01538-1.03998-.82507-1.42896-1.26007-1.63794-.47513-.23815-.7457-.52447-1.34291-.50027-.47397-.00985-1.00846.17172-1.42992.20779-1.06614-.42355-2.81526-1.42892-3.88501-1.39777l-.08893.00189c-.36469.01562-.72473.17517-1.08093.41571-.0033-.51709-.00653-.92944-.0246-1.18842-.09735-1.39423.13635-1.73517.14636-1.74902.47715-.6113,1.22378-1.14814,1.1272-2.13654-.13737-1.33301-.87252-2.87382-2.35646-2.98685-.75634-.00129-1.42413.47764-2.07842.73448-1.44817.59361-1.78544,2.72329-1.94668,4.07421-.12602.73224-.25627,1.48938.14949,2.59339.4483,1.21973,1.39471,3.93726,1.40424,3.96454l.03772.10846c.04509.06077.2016.27144.24933.33569.00539.36697.01638,1.11173.02179,1.47632.27398.021.87047.06672,1.13953.08734l.17456.23511.48102-.24591c.50296-.10591,1.63534-.35725,2.2395-.30438.13722-.00857.85921.77091,1.3491,1.41041.33675.57396,1.82921.73495,2.65383.5988.66231.20326,2.42955,1.27014,2.9361,1.18964,1.10534-.0803,1.25136-.96416,1.69227-1.63096.54272-.82375-.0044-1.71334-.29841-2.19124Z" fill="#726400"/>
            <path d="m195.48216,209.61554c-.03583-.29816.09869-.61682.08661-1.43634-.01215-.81952-.84698-.87646-1.32416-1.25122-.47711-.37469-1.47839.08258-1.99976.05884s-2.78302-1.44366-3.9007-1.39569c-.53516.02295-1.19733.63708-1.8374,1.34747-.03595-1.08649-.01465-2.33093-.04858-2.8172-.04718-.67584-.06396-1.75543.28662-2.24054s1.06311-1.00311.99042-1.60773c-.12514-1.02899-.45753-1.8213-1.34564-2.28632-.61505-.19879-1.39984.39526-2.08496.64801-.68518.25275-1.24689,1.60248-1.35278,2.70557s-.45581,1.75964,0,2.99969c.45575,1.23999,1.40851,3.97668,1.40851,3.97668l.42175.56793c-.03131.02844-.06396.05994-.09344.08411l.01208.81952.79797.06122s2.13074-.49976,2.71515-.31073c.58447.18896,1.35651,1.21954,1.711,1.65228.35443.43268,1.51483.38605,2.02594.32465.51111-.06146,2.47919,1.2077,2.99542,1.18884s.65234-.68335,1.05432-1.2934-.48248-1.4975-.51837-1.79565Z" fill="#f2e05c"/>
          </g>
          <g id="flower_pod_5" data-name="flower pod 5">
            <path d="m219.19463,196.37016c-5.54549.68175-11.03253,2.293-15.7346,5.36079-6.71829,2.98995-12.51812,6.95401-18.87477,10.80633-2.77111,1.56169-5.27956-2.35098-2.6877-4.21215,5.32592-3.72798,11.17549-7.50735,17.24688-10.17466,2.31264-1.28758,4.7703-1.59661,7.27016-2.28108,4.00944-1.22996,8.15549-2.20932,12.28504-2.96404,2.36551-.36525,2.88671,3.14459.49498,3.46481h0Z" fill="#2e541a"/>
          </g>
          <g id="flower_pod_5-2" data-name="flower pod 5">
            <path d="m219.01785,195.13272c-5.56736.68471-11.06876,2.24247-15.80902,5.2852-6.64455,2.88768-12.51938,6.84822-18.74249,10.60826-1.36706.78411-2.64478-1.19147-1.3405-2.10846,5.26363-3.67374,10.88046-7.27569,16.84396-9.84357,2.87709-1.53415,6.33212-1.75182,9.40203-2.80379,3.13955-.84988,6.30635-1.52985,9.50457-2.12758.65871-.11646.83001.91209.14143.98994h0Z" fill="#95c172"/>
          </g>
          <g>
            <path d="m182.39024,206.31619c-.97139,1.59592-2.22551,4.03031-1.52473,5.39456,1.59518,3.28555,4.23993,2.91006,5.11753-.14589-.07565-.48586-.67111-4.31036-.73567-4.72507-.67536-.12375-2.18151-.39978-2.85713-.52361h0Z" fill="#2e541a"/>
            <path d="m182.77099,207.14846c-.70246,1.19502-1.72169,3.27426-1.23769,4.22086,1.33098,2.64244,2.94189,2.37025,3.68141.1358l-.62647-4.02363-1.81725-.33303Z" fill="#95c172"/>
          </g>
          <g>
            <path d="m179.73026,201.67406c-1.45105,0-3.30789.14049-3.91353.80971-.19334.21365-.28481.48164-.25751.75461.22944,1.87555,1.80016,2.15383,2.68877,2.39832.20947.87628-.36807,1.36624.56915,2.39275.78663.83823,1.41181,1.18013,2.15783,1.18013.61379-.0123,1.38668-.25519,2.04941-.17151.26828.32643.64996,1.45483.82903,1.9758.58409-.36867,1.47302-.93063,2.0555-1.29892-.04928-1.25064.21331-2.39034-.17481-3.86609-.49734-2.03001-3.22216-4.55073-6.00382-4.17479h0Z" fill="#726400"/>
            <path d="m185.14861,209.30826c-.01439-.58243.19707-2.03026-.13821-3.26249-.34322-1.26137-2.04586-3.4545-4.176-3.58783s-4.58628.13198-4.5289.7058c.17645,1.76451,2.34929,1.58128,2.52912,1.94096.58817,1.17634-.26826,1.56161.52935,2.41149s1.2784,1.02168,1.9332.91513,1.7316-.27564,2.12104-.04429.83048,1.49013.83048,1.49013l.89992-.56891Z" fill="#f2e05c"/>
          </g>
          <g>
            <path d="m184.69307,208.23236c-1.31469-.02786-1.27516,1.6149-1.50894,2.50877-1.298,1.65747-1.74577,4.74846-.68725,6.38749.59759,1.08999,2.19941,1.59782,3.09379,1.59782.94612.05211,1.72492-.83714,2.03346-1.41287.1945-.31319.3782-.60907.7577-.93589,1.1765-1.01314.42017-2.28186.05672-2.89157-.30548-.48202-.36329-.62104-.22175-1.19071.24153-1.1854.49091-3.85284-2.0856-3.3681-.28224-.2701-.69718-.6896-1.43811-.69495h0Z" fill="#726400"/>
            <path d="m184.61004,208.98567c.77901-.06156,1.05247.75617,1.4019.71416s1.28254-.22602,1.43155.29331c.46107,1.60691-.20349,2.33494-.0216,3.11065s1.47058,1.84438.47053,2.70558c-1.01807.87671-.92077,1.62168-1.87354,2.09079-.56065.27604-2.36379-.21902-2.8645-1.13213-.49517-.903-.78754-2.14751-.14376-4.13477.30317-.93584.70724-1.14109.88225-1.64687.21439-.6196.18363-1.95855.71717-2.00072Z" fill="#f2e05c"/>
          </g>
        </g>
      </g>
      <g id="flower_6" data-name="flower 6">
        <g id="flower_6_back" data-name="flower 6 back">
          <path d="m163.80708,196.3696c-.25562.95399-1.18807,4.43394-1.45319,5.42352,1.11346,3.4871,4.23258,5.21586,6.34853.61647.66484-1.15435-.38204-3.74818-1.92702-5.85599-.84778-.05256-2.11971-.13142-2.96832-.18401h0Z" fill="#2e541a"/>
          <path d="m162.17084,187.53215c-1.78259.12667-2.62625,2.02564-2.69004,3.57478-.04449,1.22289.78081,1.77877,1.35812,2.41315-.00821-.00147.14947.34352.13595,1.41774-.00137.11394.00134.25215.00688.41228-1.428-.30886-3.24359.66435-4.63417,1.0537-.25456.0247-1.78751.21709-2.64586.97487-.5624.32845-1.59712.65744-1.58786,2.20299.02539.56756.09277.91437.14377,1.18591-.27952.5219-.92583,1.69862-.14251,2.75879.51079.70984.77534,1.67505,2.1169,1.73407.69223.04186,1.88553-.74443,2.67546-1.07213.48335.00067,2.51844-.21409,3.27402-1.24263.14587-.20278.23477-.33168.42352-.58474.07044.61188.24297,1.02457.34206,1.51619-.5532,1.03177-2.11749,2.75805-.32513,4.30102,1.22241.87953,1.98856,1.6304,3.43843,1.81718,1.05502.01188,2.16543-.90298,2.73786-2.19294.4831-1.00988,1.21314-2.53605.288-4.9152-.17734-.83858.30931-1.88301-.25046-2.74434,1.5805.26427,3.29669-.33532,4.61808-1.78577.95077-1.13783,1.3449-3.39998,1.22013-4.29088.30516-1.2108.45924-3.05431-1.31814-3.12028-.4067,0-.80738.13935-1.31467.31576-.80633.3613-2.15371.52124-3.17619.76274-.08427-.15923-.14851-.30501-.16711-.42551-.23802-1.54088-1.21005-2.82367-2.41876-3.19209-.64618-.30258-1.22053-.88075-2.10828-.87468h0Z" fill="#726400"/>
        </g>
        <g id="flower_6-2" data-name="flower 6">
          <g>
            <path d="m166.61559,192.59503c-.18878-.32397-.36707-.62988-.41187-.91974-.20605-1.33411-1.05743-2.48145-2.07037-2.79016-.73595-.31196-1.55374-1.1445-2.46443-.7596-1.16421.58855-1.62323,1.76287-1.68906,3.01248-.0486.78215.51805,1.3355.93175,1.73949.11493.11218.22821.22015.31653.32867.0108.01324.26367.34015.2467,1.73767-.00317.2597.01733.67175.04388,1.18829-1.4961-.95993-3.52273.39897-5.08191.76355-.16052.01654-1.64447.18707-2.40417.85791-.06915.06104-.19073.12183-.31946.18628-.40002.20013-1.14459.57269-1.09973,1.62042.02912.63757.09968.88493.16559,1.2923-.30527.59567-.89045,1.48362-.2629,2.37507.46547.62239.67534,1.49381,1.71584,1.53277.57108.0526,1.93466-.8617,2.60565-1.07379.59955.01131,2.32215-.22568,2.93952-1.03508.45743-.67253,1.12158-1.48039,1.2777-1.48989.58241-.08417,1.94738.13085,2.24139.17914l.49432.2179.16077-.24475c.26583-.03586.86207-.11628,1.13263-.15277-.01558-.36359-.04752-1.10938-.06317-1.47516.0122-.01858.18327-.27897.18866-.28717.08534-.16637,1.50032-2.92651,1.91812-4.2824.32791-1.08039-.13779-1.8794-.51199-2.52143Z" fill="#726400"/>
            <path d="m165.46251,191.78979c-.16919-1.09521-.84924-1.97437-1.54785-2.18726-.69855-.21295-1.3717-1.01178-1.97424-.77789-.86055.51505-1.14592,1.32643-1.21203,2.35988-.03773.60783.70342,1.08397,1.08135,1.54814.37787.46411.42328,1.54291.41504,2.22028-.00592.48743.0871,1.72852.11365,2.81531-.67987-.67242-1.37628-1.24738-1.91193-1.2395-1.11859.01642-3.38721,1.05853-3.90631,1.11224-.51917.05365-1.53638.27325-1.99115.6748-.45483.40155-1.20135.39355-1.16626,1.2124.03503.81891.18768,1.12927.16907,1.42896-.01868.29974-.85059,1.23663-.41425,1.82251.4364.58594.6106,1.24152,1.12701,1.23065.51648-.01093,2.08673-1.1062,2.60052-1.07422.51379.03192,1.99646-.27338,2.3255-.72571.32898-.45239,1.04047-1.5257,1.61304-1.74799.57263-.22229,2.72852.15405,2.72852.15405l.79315-.10706-.03503-.81885c-.03082-.02246-.06531-.052-.09821-.07861l.38843-.59125s1.4657-2.85779,1.84937-4.12201c.38367-1.26416-.7782-2.01373-.94739-3.10889Z" fill="#f2e05c"/>
          </g>
          <g id="flower_pod_6" data-name="flower pod 6">
            <path d="m135.20677,185.08989c4.16719,1.07387,8.03542,2.8507,12.25355,3.67027,1.40649.28377,2.65521.99345,3.9791,1.51807,3.91682,1.6981,7.74582,3.58538,11.40135,5.81547,1.69999,1.22372,6.00721,2.95405,4.00355,5.71831-.77772.9477-2.16726,1.0829-3.11922.34573-5.52254-3.74297-11.9147-6.4845-17.86877-9.49635-1.09178-.94918-2.40949-1.36007-3.66603-1.9107-2.54796-1.0246-5.15547-1.90433-7.81481-2.51854-2.12873-.55383-1.31401-3.71281.83129-3.14226h0Z" fill="#2e541a"/>
          </g>
          <g id="flower_pod_6-2" data-name="flower pod 6">
            <path d="m134.89165,186.29951c4.06222,1.04547,8.00635,2.84116,12.09336,3.61675,1.39306.27828,2.62906.9824,3.9402,1.50129,3.8726,1.67812,7.6664,3.54716,11.27563,5.7499,1.20526.75361,2.39381,1.48891,3.55656,2.45409.42485.35268.48337.98299.13071,1.40784-.34553.4177-.95942.47826-1.38136.15289-5.65345-3.85543-12.08655-6.5992-18.17503-9.67711-3.34057-2.28213-7.7529-3.42833-11.62903-4.48013-.48114-.10683-.31009-.87057.18897-.72553h0Z" fill="#95c172"/>
          </g>
          <g>
            <path d="m164.18422,196.89394c-.14365.53621-1.14685,4.28023-1.30475,4.86954.98983,2.94066,3.47247,4.55486,5.36541.44447.60384-1.3611-.69869-3.64477-1.74762-5.17062-.59889-.03711-1.71699-.10644-2.31303-.14339h0Z" fill="#2e541a"/>
            <path d="m166.08002,197.76289c.77005,1.15262,1.90721,3.16978,1.47848,4.14266-1.54885,3.35865-3.03838,1.98135-3.89065-.18658l1.0821-4.03852,1.33007.08244Z" fill="#95c172"/>
          </g>
          <g>
            <path d="m171.35597,191.44595c-1.10255.1207-2.02712.73792-3.41432.86678-2.33409.28168-4.61111,1.96446-4.97224,3.67473-.30053,1.4739.08909,3.13495.12558,4.51817.60202.33376,1.52339.84451,2.12668,1.17894.14879-.53075.46794-1.68928.71739-2.02534.45307-.09308,1.36184.03518,1.79958.05514.93176-.00001,2.49278-.67421,3.33149-1.67786.90056-1.07765,1.23453-3.34175,1.09668-3.9693.17577-.86404.59518-2.58823-.81084-2.62126h0Z" fill="#726400"/>
            <path d="m163.8306,200.0559c-.01914-.58229-.39122-2.66401-.12738-3.91348.27008-1.27903,2.20936-2.82937,4.32829-3.08503s3.43603-1.25426,3.56714-.69267-.25066,1.47064-.16439,1.86341-.19224,2.43309-.93963,3.32745-2.20959,1.47196-2.86944,1.40326-1.74459-.17556-2.12007.07781-.74337,1.53544-.74337,1.53544l-.93116-.51619Z" fill="#f2e05c"/>
          </g>
          <g>
            <path d="m164.66528,198.96161c-.80317.00651-1.23288.49438-1.49895.77954-3.06206-.3074-1.93095,2.89-1.72224,4.23798-.47294,1.05064-2.02744,2.54257-.51816,3.802,1.9513,1.54736,3.89093,2.86164,5.3722-.09183.48514-1.02922,1.18203-2.36075.32217-4.62091-.27759-.74288.21369-1.65126-.10198-2.40603-.1661-.41989-.72271-1.71569-1.85304-1.70075h0Z" fill="#726400"/>
            <path d="m164.68834,199.71185c-.78126-.01664-1.00722.81547-1.35849.79363s-1.29342-.15186-1.4123.37519c-.36785,1.63078.40235,2.44248.26539,3.22738s-1.84902,2.27529-.80109,3.07753c1.06682.81669,1.43468,1.09354,2.41286,1.50706.5756.24333,1.37879-.385,1.82614-1.3254.4424-.92999,1.05745-2.08009.30041-4.02703-.35651-.91685.10741-1.89735-.09641-2.39223-.24968-.60624-.60143-1.22472-1.13651-1.23612Z" fill="#f2e05c"/>
          </g>
        </g>
      </g>
      <g id="flower_4" data-name="flower 4">
        <g id="flower_4_back" data-name="flower 4 back">
          <path d="m172.8466,208.47487c-.78631-.01065-1.36635.68961-1.92996,1.2572-.2988.12203-1.45775.83996-1.92395,1.09192-.4242.03689-.97763-.12441-1.37587-.17643-1.87424-.2271-3.6441.42676-3.40791,2.64465-1.17734-.19702-2.02906.12777-2.78185.85402-.36272.26123-.81408.58649-.96154,1.16469-.1468.57778.13919,1.56048.07196,2.24649-.6432.59637-1.51423,1.09564-1.61967,2.21666-.12863.73625-.65136,1.78696-.41991,2.47307.56076,1.91956,2.78339,1.7945,3.8608.44405,1.20397-.00393,2.15757-1.01056,2.64536-2.12334,1.16298.67832,2.90051,1.22243,4.19918.5348.76195-.33906,1.52453-.26443,2.26861-1.09405,1.47359-1.65217,1.28851-4.05698-.854-5.25564.60778-.12413,1.2608-.21271,1.81883-.51803.92737-.51428,1.36591-1.58398,1.76767-2.51837.64368-1.60616.0253-3.12907-1.35774-3.24167h0Z" fill="#726400"/>
        </g>
        <g id="flower_4-2" data-name="flower 4">
          <g id="flower_pod_4" data-name="flower pod 4">
            <path d="m150.21013,205.25804l4.77823,1.26878c1.60101.48529,3.29341.55942,4.79681,1.37572,3.36433,1.56639,6.70645,3.10275,8.35154,7.00991.8612,2.52551-2.77594,3.83459-3.75685,1.37374-.3703-.78331-1.32202-1.72418-2.45437-2.5163-1.72742-1.26287-3.90852-2.16135-5.87048-3.15274-1.90169-1.31925-4.30558-1.92167-6.51615-2.43452-1.98841-.42802-1.31473-3.40641.67127-2.9246h0Z" fill="#2e541a"/>
          </g>
          <g id="flower_pod_4-2" data-name="flower pod 4">
            <path d="m149.96791,206.35664c1.68791.39253,5.38636,1.57043,7.05542,1.74542,2.37489.67303,4.58525,1.78038,6.65723,3.18765.91067.52951,4.86646,4.12723,2.88083,5.13063-.4311.15835-.90667-.04437-1.09504-.45474-1.6815-3.29085-5.83117-4.76876-9.00704-6.39846-1.96025-1.34085-4.37359-1.9457-6.6596-2.47953-.49094-.09805-.32733-.85824.1682-.73098h0Z" fill="#95c172"/>
          </g>
          <g>
            <path d="m173.3192,209.11786c-.79151-.50518-1.45727.39307-2.12634,1.03979-.23325.0708-1.57217.90253-2.0122,1.13269-.41551.13045-1.2056-.0899-1.62634-.14667-1.96874-.16845-3.17251.32475-2.79871,2.75946-.72136-.20012-2.0925-.2934-2.5905.29251-.39303.3909-1.07673.65686-1.21509,1.23892-.11876.51388.22808,1.83924.04614,2.36664-.52573.56542-1.53116,1.09132-1.57957,2.0088-.07045.6302-.62456,1.75013-.43634,2.30565.20104.78504.94032,1.2152,1.72051,1.0747.58629-.09646,1.02076-.60355,1.44994-.98436,2.41396.01649,3.40613-3.75927,2.9353-5.63501-.00762-.23736.18266-1.07032.39215-1.7226.36238.06702,1.16391.26229,1.61627.11761.90978-.11857,2.98712-.43806,3.0603-.61011.56673-.17742,1.50064-.24285,2.03985-.55843.75116-.41569,1.15778-1.36338,1.51654-2.19951.50041-1.05135.19474-2.10649-.39191-2.4801Z" fill="#726400"/>
            <path d="m164.74589,214.67696c-.45699-.14722-1.66942-.33976-2.04514.04361s-.96214.65659-1.024.89925.33388,2.0551-.05634,2.59403-1.41194,1.03945-1.4558,1.6499c-.09726,1.01354-1.17711,2.67243.41764,2.5861.46454-.07438,1.11152-.98371,1.37319-.98546s.86652-.07621,1.08262-.25207c1.05017-.91266,1.68232-3.20224,1.32807-4.42642-.15936-.39404.37976-2.10894.37976-2.10894Z" fill="#f2e05c"/>
            <path d="m165.52807,214.09239c-.02486-.23728-.21951-1.72149.16974-1.94607.59597-.34385,1.40284-.30384,1.7628-.25853s1.50129.36557,2.06962.06613,1.77343-1.06578,1.98959-1.11611,1.13746-1.26138,1.38066-1.09773c.87885.58495-.38314,3.02429-1.06903,3.4012-.54507.30158-1.68891.34763-2.06221.57127s-2.65072.45767-2.90507.53968-1.3361-.15985-1.3361-.15985Z" fill="#f2e05c"/>
          </g>
          <g>
            <path d="m166.44534,212.42461c-1.06928.07239-1.48957,1.22465-2.47318,1.65354-1.44881.83744-.08239,2.56803.4375,3.66452.26031.9286.04375,2.17392,1.39058,2.69019.66911.23521,1.36124.49395,2.06564.49402.6994.03674,1.17339-.37878,1.81794-.51212.43847-.11294.98413-.25355,1.41407-.73811,1.98996-2.33034.16164-4.59362-2.26904-5.16351-.79652-.74874-.97354-1.93881-2.38351-2.08853h0Z" fill="#726400"/>
            <path d="m164.32141,214.74197c-.77714.40887.5163,1.98474.79291,2.74398s.03757,1.92406.93461,2.23933,1.82879.67238,2.56046.27739,1.453-.289,1.92749-.82377.89522-1.54837.49768-2.32379c-.38721-.75526-1.79351-1.55141-2.32928-1.60138s-1.05661-1.09234-1.33421-1.42705-.79449-.90729-1.2547-.52559-.97656,1.01031-1.79496,1.44088Z" fill="#f2e05c"/>
          </g>
        </g>
      </g>
      <g id="flower_pod_2" data-name="flower pod 2">
        <g>
          <path d="m184.66322,233.71519c-.97948.04137-2.18906.7413-3.2014,1.05525-1.31072-.0271-4.10857-1.10329-4.71768.3244-.46437.40831-1.39278.93789-.97668,2.0242.32409.73496,1.09854.75841,1.47071.76969.93657-.03674.49426.57152,1.57252.60974.59915.04634,2.82821-.74017,3.68028-.88497.53876.13794,1.23101-.05042,1.70782-.21208.44504.20194,1.39295.63207,1.84334.83646l.32291-1.1073c.58807-2.01666.11311-2.62318-.29529-2.90398-.35991-.24744-.79507-.5114-1.40654-.5114h0Z" fill="#726400"/>
          <path d="m181.68205,235.75893c.36759-.15173,1.59542-.58986,2.1848-.83921.80239-.33947,1.11272-.22909,1.63636.13091.35544.24437-.09818,1.79999-.09818,1.79999l-1.17104-.53139s-1.12869.47942-1.56438.30382-3.80469,1.12231-4.01197.83325c-.64154-.89467-1.80111-.34599-1.97512-.74067s.90923-.81336.98756-1.23445,3.67695.41603,4.01197.27775Z" fill="#f4e58c"/>
        </g>
        <g id="flower_pod_2-2" data-name="flower pod 2">
          <path d="m245.15175,219.83432c-2.11431.40302-11.58448,2.21327-13.43622,2.60786-.88817.20924-1.79512.31088-2.66569.61585-.86639.33066-1.69766.86032-2.59473.99976-13.15445,2.61419-26.73685,5.25517-38.00165,12.81656-1.51915.89306-3.3044,1.52494-4.54738,2.86796-5.43379,4.74426-9.20288,11.29752-10.68555,18.36378-.10242.4865-.85385.32131-.73062-.16964,1.78539-7.14104,5.2903-13.89524,10.60871-19.05811,1.42868-1.19859,2.51673-2.79027,3.91794-4.02812,11.3428-8.20238,25.51129-11.01481,39.00232-13.25532.89566-.18254,1.85953.03883,2.78778.05842.92393-.00697,1.81221-.21304,2.71924-.31232,4.46754-.6269,9.04762-1.3471,13.40326-2.48159.57806-.15298.95806.78449.22259.97491h0Z" fill="#95c172"/>
        </g>
        <g>
          <path d="m186.93211,236.56421c-.39061,0-.66985.12274-.85118.24527-.5867.2147-1.31009.39293-1.6741,1.02862,0,0-.24077.42838-.24077.42838l.19127.46782c.22295.56812.84049.66143,1.45766.82919-.67051,1.11819-.39812,2.34153.69968,2.93672-.24009,1.13013-.93316,2.78924-.31636,3.46432.21291.28146.53877.44492.89398.44846.48103.00009,1.43906-.1844,2.09975-.87584.71071-.74374.70888-1.41414.7074-1.95282.05109-1.03714-.16037-2.28767-.8457-3.22632.39098-.72165.87683-1.67989.25307-2.44225-.48479-.70043-1.335-1.32756-2.37468-1.35156h0Z" fill="#726400"/>
          <path d="m185.27858,238.32804c.1982-.35265,1.14923-.52218,1.34441-.67696.56404-.31096,1.53393.28962,1.90981.89793.36164.44193-.81793,1.89854-.64051,2.0325.63305.47796,1.04346,1.66453,1.01012,2.69796-.0206.63856.08861,1.02057-.43338,1.56683-.42854.44847-1.09193.56946-1.36681.56672-.6097-.00607.7537-3.06433.39734-3.45697-.1602-.17651-1.00361-.49953-1.05588-1.01656-.064-.63308.68137-1.48523.66291-1.82802-.02176-.40394-1.90504-.6464-1.82802-.78344Z" fill="#f4e58c"/>
        </g>
        <g>
          <path d="m179.98497,235.19987l-.00018,1,.00018-1c-1.47275.00782-1.87331,1.58431-2.33368,2.54482-.83735,1.33308-1.03423,1.73088-1.05346,2.12819-.06191.65403.34154,1.8302,2.57671,2.03996,1.34766.02884,1.26783-1.4787,1.33722-2.3614.66553.34131,1.63236.363,2.22549-.23033.13436-.12346.39288-.36128.80408-.36128.96525.14688,2.00036.39536,2.9614-.42048.68295-.77307.14089-1.83778-.74105-2.2971-.19042-.33215-.87821-.84594-1.4667-.78038-.73262-.02171-1.75423.44934-2.44559.50961-.58703-.2323-1.07403-.78436-1.86443-.77161h0Z" fill="#726400"/>
          <path d="m184.53465,236.49006c-.67477-.18462-2.13667.60087-2.87568.46567s-1.3649-1.06504-2.03116-.64997-.64506,1.19894-1.12977,1.97073-.89178,1.44637-.90138,1.64472-.02834.80477,1.63392.99162c.45485.05113.01903-2.61195.76285-2.57593s1.41416.8406,2.07178.24374c.15892-.14424.89565-.87574,2.1124-.5281.56872.16249,1.65007-.02609,1.63224-.28524-.02613-.37971-.44127-.61392-.63466-.69926-.15273-.06739-.32083-.49052-.64053-.57799Z" fill="#f4e58c"/>
        </g>
      </g>
      <g id="flower_pod_1" data-name="flower pod 1">
        <g id="flower_pod_1-2" data-name="flower pod 1">
          <path d="m108.37113,211.37431c4.56778.96453,9.09058,2.03348,13.58761,3.29208.76272.16954,1.44453.57103,2.30083.47522.84483-.12245,1.56821.13729,2.33618.41432,6.62883,2.314,13.04029,5.26077,19.17179,8.6729,3.31838,2.04521,6.95032,3.74666,9.63329,6.63272,6.2194,4.63448,12.36054,9.47487,17.24796,15.59752.26391.34989-.23252.8968-.60317.44573-.85502-1.07257-1.98678-2.57642-2.9495-3.51947-3.67606-3.92296-8.03512-7.19641-12.50826-10.14874-1.27254-.90009-2.66052-1.57875-4.13463-2.09753-2.06052-1.0235-3.94677-2.34633-5.99913-3.39507-6.70398-3.68235-13.61988-7.0047-20.73523-9.81285-.75739-.25987-1.46832-.50703-2.03689-1.12629-.60505-.59826-1.36926-.74593-2.08044-1.04049-4.33569-1.57562-8.80905-2.79398-13.38771-3.40241-.64965-.05363-.58442-1.13241.15732-.98763h0Z" fill="#95c172"/>
        </g>
        <g>
          <path d="m165.34337,231.19965c-.66977-1.04706-1.62123-1.40175-2.46844-1.77655-1.01042-.40478-2.09207.03536-3.13965.4253-.71559-.68313-1.63349-1.58587-2.67657-1.3089-1.05901.26299-2.74633.57961-2.61133,2.07672-1.05048.00549-3.12885,1.06592-3.64789,1.73322-.56623.64443-.55836,2.25473-.59381,3.4812-.42689,1.2446,1.36712,2.4496,2.24902,3.41974-.10129.49301-.39674,1.04092-.02558,1.66565.59485,1.12538,3.00282,1.25586,3.55459.04547.48192-.96375.37242-2.34607.02471-3.15735-.24632-.63679-1.97986-1.6427-2.53302-2.30237.01514-.29865.05426-.80139.09113-1.23596l1.44287-1.14838.0014.16492,1.39972-.8161.58661-.25867-.00006-.03668c.11682-.05194.23596-.10187.34088-.14154.38861.41958.73225.77838,1.07953.97534.49579.28326,1.83136.35352,2.00403.35352.69088.03325,1.13566-.44,1.62671-.77899.5014.97715.74028,2.62908,1.97034,2.57251.6116-.07002,1.12637-.10451,1.34119-.11474,2.28981-.2977,1.11969-1.94616-.01636-3.83734Z" fill="#726400"/>
          <path d="m154.87736,231.94442c-.49195-.18862.43355-.3292-.4209-.3292-.74107,0-2.54339.93132-2.86761,1.34818-.48092.61832-.30299,2.83163-.41625,3.12893-.21237.55748,1.22832,1.61364,2.0215,2.48476.59072.64876-.0936,1.52489.08423,1.81093.35647.57338,1.60036.54749,1.81093.12634.3066-.6132.27282-1.67974,0-2.3163-.13895-.32422-2.62039-1.88438-2.62039-2.50196,0-.41685.13895-1.94531.13895-1.94531l2.26953-1.80636Z" fill="#f4e58c"/>
          <path d="m157.32257,229.50406c.67477-.18462,1.82242,1.2728,2.19847,1.47529.10984.05914,2.12859-1.00332,2.95073-.64112.71832.31647,1.54006.62144,2.02477,1.39323s1.15726,1.97098,1.16687,2.16933-.02674.06336-1.689.25022c-.45485.05113-.94519-2.72591-1.689-2.68989s-1.2023.70425-1.66513.87781c-.20095.07536-1.50422-.08678-1.70671-.20249-.39033-.22304-1.00214-1.00812-1.21495-1.15709-.28927-.20249-1.9001.66388-1.70671.57855.07636-.0337-.92818-.99795-.40498-1.41744s1.57579-.59267,1.73564-.6364Z" fill="#f4e58c"/>
        </g>
        <g>
          <path d="m154.68619,229.78238c-1.87953.00402-1.71893,1.50716-1.50513,2.73787-.10872.29967-.20697.92659.68002,2.74861.56723,1.16515.85452,1.42206,1.24841,1.53104,1.29534.32568,1.72364,1.08609,2.87843,1.41245-.27103.82996-.20242,2.06331.84657,2.30884.61694.48519,1.79472.73801,2.28976-.14194.95926-1.57545,1.00548-3.23716.11243-4.0409-.51615-.56338-3.07154-1.40368-4.06583-1.93712-.17302-.43564-.58665-1.20567-.62309-1.60011.01506-.0706.13974-.38487.20671-.55373,1.0456-1.97159-1.23147-2.49151-2.0683-2.465h0Z" fill="#726400"/>
          <path d="m156.01697,231.23117c-.1982-.35265-1.36564-.57719-1.80129-.36841s.11494,1.49428-.07663,1.95406c-.20553.49327,1.02285,2.96,1.23712,3.01927,1.82808.5057,2.296,1.53378,3.24574,1.42526,1.17905-.13472-.36656,2.17838.50741,2.30029.21849.03048.90743.68093,1.14081.2976.70016-1.14998.79361-2.33123.2976-2.77764-.72048-.64843-4.08135-1.61968-4.25324-2.1213-.18307-.53427-.79896-1.58671-.76541-2.20945.02176-.40394.54491-1.38267.46789-1.51971Z" fill="#f4e58c"/>
        </g>
      </g>
      <g id="flower_pod_3" data-name="flower pod 3">
        <g>
          <path d="m162.73961,246.72095c-.37445-.27563-.76172-.56067-.90808-.91199-.26694-.63936-1.50995-2.32828-2.71576-2.28735l-.08282.00616c-.99884.08891-1.10435.30864-1.919.43032-1.66179.17262-2.93083,1.02242-2.74539,2.38246.00745.119.02423.32614.01357.47928l-.85364.3905c-1.35746-.67214-2.23453.4813-2.47744,1.29308-.17712.43917-.06272,1.02523-.06418,1.52912-.36792.50739-.82312,1.21136-1.0025,1.51929-.56891.97675.67291,3.69061.68677,3.71582.48405.93369,1.62899,1.00279,2.70838.81747.44787-.06161.79815-.31905.96106-.70626.42698-1.00842-.73937-1.91349-1.20135-2.79498.53729-.46741,1.39771-1.22748,1.25592-2.19287.54107-.27752,1.43397-.6678,1.26971-1.59949.56688.15446,1.95535.5328,2.53699.69128-.0618-.28538-.41463-1.74349-.44879-2.0033.48444-.02075.86945-.15765,1.17444-.35089.53101.95697,1.19189,2.14569,2.27295,2.44281,2.97282.68771,3.62211-1.52291,1.53918-2.85046Z" fill="#726400"/>
          <path d="m160.90843,246.19357c-.23388-.56132-1.24046-1.72178-1.78091-1.67031-.94225.08974-1.02339.31708-1.8876.42685-.94043.11945-1.14597.26513-1.51151.50869-.52206.34784-.34643.49455-.34303,1.24738s-.29917.89121-.29917.89121l1.76485.48091c-.6428-3.09086.78871-.46912,2.01512-2.3179.46606-.8375,1.2996,2.48959,2.59925,2.84681.38659.10626,1.48531.14626,1.48531-.12378,0-.74843-1.54778-1.10299-2.0423-2.28986Z" fill="#f4e58c"/>
          <path d="m152.96679,248.0641c-.57741-.23437-.82891.39911-.98242.79821-.11444.29756.1241,1.33886-.0921,1.62713-.36841.49121-.87128,1.26954-1.04382,1.56573s.45802,2.29269.69886,2.73051.78144.43473,1.69578.30885-1.84867-2.23415-1.01312-3.03935c.3429-.33044,1.29981-1.01631,1.16662-1.56573-.2456-1.01312,1.25997-1.12519,1.28942-1.50433.0214-.27553-1.47218-.82074-1.71923-.92102Z" fill="#f4e58c"/>
        </g>
        <g id="flower_pod_3-2" data-name="flower pod 3">
          <path d="m118.71259,224.44057c3.78354,2.84031,7.7374,5.72821,12.27352,7.14779,7.64867,4.37276,15.58253,8.39462,22.88791,13.38809,1.98654,1.98154,4.28777,3.4339,6.48112,5.06593,4.16844,3.15036,8.68771,7.02011,12.3298,10.76503.33954.33078-.18671.89602-.53494.52574-4.48584-4.94848-10.1284-9.13933-15.7943-12.66234-2.3629-1.30197-4.98038-2.18515-7.24065-3.71423-6.46595-3.6562-13.09909-7.25243-19.40308-11.23633-1.09079-.81028-1.93362-2.0334-3.15081-2.6963-2.80348-1.9023-5.6135-3.91955-8.44174-5.77833-.55427-.36446.03363-1.25502.59317-.80503h0Z" fill="#95c172"/>
        </g>
        <g>
          <path d="m155.65634,246.64944c-.92735-.10428-2.12881,1.38607-1.93314,2.43756.07654.70468.9695,1.22249,1.21235,1.80999-.12878.69005.19666,1.25589.62093,1.73602-.54344.38869-.64234,1.30126-.10452,1.7934.30976.48747.67995,1.26313,1.64013,1.2911.26206-.00002.51676-.07334.75704-.2179.88062-.52992,1.89859-1.90239,1.43568-2.99786-.29331-.67759-1.10915-1.68221-1.50905-2.00061-.00047-.00084-.05927-.12492.01375-.51085.02167-.11453.03607-.138.07881-.20763,1.05884-1.67685-1.29106-3.13913-2.21198-3.13322h0Z" fill="#726400"/>
          <path d="m155.7884,247.67026c-.56372-.18138-1.1382.8718-1.07722,1.26251s1.37107,1.22055,1.21003,2.10627c-.09705.53378.44142,1.0189.99919,1.53806s-1.21143.68737-.75763,1.14595c.29172.2948.5897,1.26939,1.17077.91973s1.23544-1.26588,1.03011-1.75177-.93586-1.38194-1.15412-1.55672c-.24712-.19789-.59048-.5368-.4026-1.52988.13237-.69967.43129-.52317.26729-1.16511-.09384-.36731-.95345-.86208-1.28582-.96902Z" fill="#f4e58c"/>
        </g>
      </g>
    </g>
  </g>
</svg>