<?xml version="1.0" encoding="UTF-8"?>
<svg id="Layer_2" data-name="Layer 2" xmlns="http://www.w3.org/2000/svg" xmlns:xlink="http://www.w3.org/1999/xlink" viewBox="0 0 346 469">
  <defs>
    <linearGradient id="linear-gradient" x1="173.03848" y1="335.07172" x2="173.03848" y2="331.77435" gradientUnits="userSpaceOnUse">
      <stop offset=".34875" stop-color="#fff"/>
      <stop offset=".90496" stop-color="#fff" stop-opacity="0"/>
    </linearGradient>
  </defs>
  <g id="CASE_12_Plants_LH_WH_CL" data-name="CASE 12 Plants LH WH CL">
    <g id="Day_8" data-name="Day 8">
      <g id="rectangle">
        <rect width="346" height="469" fill="none"/>
      </g>
      <g id="ROOTS_Back" data-name="ROOTS Back">
        <path d="m190.50291,341.0553c-.98358-.96753-2.06219-1.76581-3.20648-2.43707.10016-.5332-.11877-1.12238-.79517-1.36353-1.04547-.3855-2.58893-.77002-3.66168-.55896-.71265-.2207-1.4342-.42023-2.16724-.58807-2.04815-.34441-4.18444-.41331-6.05182-1.27118.25744-2.12733-2.77816-2.55692-3.20245-.62537-1.26129,1.46545-3.18268,2.34106-5.1308,2.59216-.94122.14935-2.3418-.03888-3.79187.18805-1.44409.14612-5.5094,1.83679-4.00281,3.75836.47424.48584,1.25403.49304,1.7373.01624.23932-.23376.49829-.42035.76727-.58606-.07458.40015.02179.78589.39301,1.117.52039.43213,1.2926.36053,1.72467-.15991.66336-.80011,1.40368-1.49952,2.35712-1.57501,1.21913.02389,2.49258-.18742,3.68298-.57422-.75897.41339-1.55432.80774-2.09784,1.1839-1.45648.6413-6.30214,5.33342-3.74041,6.64953.63799.26392,1.36998-.05658,1.61315-.70178.6394-1.55389,1.88196-2.71667,3.51764-3.60413.49506-.29993,1.03247-.5575,1.57624-.81439-.37378.47076-.69458.966-.95288,1.40826-.28485.43732-.46655.67584-.78265.92468-1.42712,1.11011-2.67542,2.44214-3.70703,3.91895-.62085,1.13385-2.95819,3.84332-1.07104,4.77325.62372.26202,1.34174-.03119,1.60376-.65491.3653-.87427.89978-1.74646,1.49921-2.55554.9676,1.04335,2.1318.03712,2.52414-1.13019.27731-.82031.16403-1.34076.52023-1.93377.6413-.54968,1.25244-1.11365,1.72864-1.76483.02966-.04419.05273-.07544.08142-.11792.00946.29413.0163.58997.01917.88818-.95725,1.58723-1.387,3.56339-2.59174,4.88989-1.90308,1.56482-3.01263,3.76843-3.64868,6.13092-.36084,1.54034,1.90369,2.14856,2.3642.63788.54073-1.80151,1.58505-3.68233,3.1474-4.81036.34991-.32782.64038-.69525.9068-1.07776-.00195.19159-.01068.38641-.01813.58057-.54309,1.9975-2.87006,3.94843-3.0733,6.27203-.20477,1.56519,2.1037,1.95142,2.41663.40259.07538-.33545.21039-.65735.36768-.97449.03888,1.26892.22821,2.51898.73895,3.70551.5469,1.47429,2.76491.74582,2.32629-.76886-.11908-.34473-.20166-.69104-.26849-1.03827.57678.7468,1.10691,1.83089,2.2373,1.23724,1.29633-.78143.2348-2.19373-.4458-3.03491-.71735-.92059-1.66986-1.38116-1.76306-2.49658.09119-.71875.18915-1.44257.27252-2.17163.42407.4895.86206.95502,1.30151,1.37726.96814,1.21136,1.24774,3.04236,1.32953,4.61584.03107.30634-.0025.44928.11462,1.04651.42448,1.55393,2.74546.96112,2.37402-.60522.01025-.0788-.04974-1.17328-.05493-1.39868-.00708-.1073-.01837-.21411-.02728-.32123.67657-.06036,1.31494-.63434,1.1048-1.51324-.41302-1.44806-1.70502-2.50549-2.81873-3.52942-1.32116-1.42626-2.46223-2.74518-3.23956-4.58551.01263-.45581.02924-.90796.04779-1.35822.07581.04651.15027.09613.22656.14166.09595.48181.2782.94958.47614,1.3006.52814.93976.79602,2.53796,2.19635,2.08936.65479-.29462.83569-.72003.79681-1.19849.7149.69019.84729,1.60333,1.05627,2.74573.26935,1.5658,2.60168,1.2326,2.42487-.34485-.03851-.47418-.12665-1.01306-.26465-1.55957,1.0163-.09125,1.62946-1.56873.53455-2.26941-.83429-.58026-1.81952-.6944-2.63904-1.06293-1.53931-1.22186-3.52307-2.07715-4.78741-3.42236-.00061-.01105-.00104-.02197-.00165-.03296,2.40209,1.17565,5.52415,1.89774,7.20874,3.99725.3728.56982,1.14648.73096,1.71368.34528,1.85788-1.64023-1.78054-3.72217-2.85352-4.51367.54828-.02484,1.00519-.45386,1.13782-.96759,1.06399.40712,1.79007,1.05288,2.32721,2.14447.73511,1.39679,2.84033.38019,2.20642-1.06427-.66705-1.71936-2.05682-2.79028-3.63452-3.54773,2.23828.70667,4.42615,1.79315,6.05347,3.33179,1.15399,1.09485,2.81976-.56934,1.73779-1.72589Zm-15.12427-.85193c.67584.17224,1.35608.3009,2.02936.42914.02649.01465.06305.0282.08398.04419.46283.4101,1.07025.94373,1.65771,1.40814-1.30145-.57935-2.64233-1.0564-3.77106-1.88147Z" fill="#4c4c4c"/>
      </g>
      <path d="m187.37114,318.81665c-1.20851-1.8394-3.82637-2.60226-5.95172-1.75726.19495-.14227.31897-.3125.3949-.47333.71224-.14289,1.35162-1.17154.86529-1.95353-.27325-.49783-1.12847-.99856-1.83196-1.23586-.93008-.31044-2.47719-.27604-3.29199.2063-.50198-.06658-1.08408.14164-1.39764.4469-.56139.01839-1.10361.5659-1.2417,1.1073-.78073.14543-1.12699.81486-1.21442,1.52814-.26621.29279-.46186.51011-.56415.87335-.08472-.13684-.17798-.24298-.27087-.33807-.04445-.72626-.30884-1.4142-1.14752-1.56805-.04586-.15805-.19044-.39737-.33948-.53333-.06218-.21155-.26592-.4907-.46741-.64093-.15272-.35497-.54263-1.01483-1.34033-.99158-.02753.00115-.05829.00281-.08563.00537-.20044-.21039-.48511-.40521-.88812-.42926-.20843-.23179-.73078-.52311-1.23486-.46484l-.19397.0517c-.09741.02783-.18414.06421-.26105.10406-1.93697-.6703-3.28024.42022-2.66138,2.36127-.08931.19186-.14164.63805-.01141.94409-.24287.58531.13052,1.36857.63513,1.65228.04466.24872.29144.62548.57672.77893-.00037.01654.00098.0365.00079.05371-3.20022-1.82409-8.43829-.03136-8.77922,3.34545-.01357,1.71702,1.37937,2.24184,2.13902,2.59095-.62363,3.81348,4.08417,4.88101,6.88385,3.05374,1.47286-.92208,1.64915-1.97955,2.34955-2.95975,1.62443.3949,2.97227,1.70288,3.34808,3.34198.09886,1.85693.02634,4.70531-.01467,6.58363.02177,2.18222,3.22128,2.18475,3.25008,0,.0675-1.87451.10339-3.76276.03491-5.64801.14973-1.95472.94305-5.24033,3.32678-6.05774.24164.25861.48383.55554.68402.94342,1.05658,2.047,3.51575,3.59064,5.72021,3.59064,2.76788.07652,4.00829-2.80542,2.82202-4.62732.83988-1.24328,1.03174-2.56064.15814-3.88434Z" fill="#2e541a"/>
      <g id="ROOTS">
        <path d="m189.69139,341.83435c-1.77277-1.71619-3.97693-2.9754-6.32635-3.80109.0296-.00262.05902-.00525.0788-.00128.89655-.05511,1.78101.22223,2.63843.47974.12149.04034.18612-.14971.06323-.18964-1.073-.41956-2.29327-.64294-3.42389-.49561-2.86239-1.02808-6.08637-.71535-8.8147-2.0921-.172-.09717-.31781-.21826-.42078-.3374.0072-.27368.01404-.54767.01385-.82513-.00415-.65924-.99738-.6441-.99976,0-.00195.03265-.00311.06665-.00507.09937-1.43524,1.83728-3.71857,2.95325-6.07715,3.24963-2.3985.14325-5.38678-.18591-7.14563,1.92926-.09027.09344.06.229.14453.13837,1.34613-1.45166,3.11432-1.58997,4.9259-1.58508-.90051.39471-1.67938,1.08032-2.24841,1.88922-.07971.10223.07916.22516.15729.12366.82043-1.07135,1.93463-1.86371,3.25348-2.00232.32501.00238.64886.00146.96936-.00964,2.16315-.19836,4.34119-1.05206,5.96222-2.59125-.03174.61481-.05621,1.23071-.07544,1.85461-.0329.03357-.0625.07373-.08337.12683-.80853,1.66125-3.1488,2.2937-4.64685,3.34467-1.73816,1.04022-3.27258,2.57678-3.94452,4.52222-.04431.1228.14612.18787.18768.06915.74536-1.86041,2.263-3.24457,3.99927-4.1828,1.46832-.93219,3.25476-1.32666,4.46033-2.61163-.0083.73462.00439,1.46851.02887,2.20374-.01801.00641-.03687.00769-.05414.01727-1.05737.55438-1.72076,1.62323-2.30804,2.58551-.56268.98669-1.5451,1.51666-2.31812,2.30072-1.60962,1.57513-2.96838,3.4267-3.79449,5.52594-.0481.12341.14276.19067.18616.07312.93511-2.13958,2.42821-4.03161,4.19366-5.53961-.39452.83535-.13811,1.86518-.83368,2.55853-.0854.0956.06289.23001.14874.13379.87048-.86469.50226-2.26422,1.28595-3.18298.5954-.46045,1.19189-.92206,1.58765-1.55884.5741-.8512,1.13251-1.64191,1.92609-2.11707.04468.84332.11554,1.68274.22314,2.51215.00104.43024-.00085.86725-.00208,1.30457-1.074,1.71764-1.52203,3.91049-2.8905,5.36646-1.73816,1.39038-2.81738,3.50543-3.37543,5.63129-.03119.12775.16547.17065.19403.04852.6308-2.0528,1.73083-4.03857,3.48254-5.33801,1.26312-1.26141,1.80884-2.93158,2.59302-4.45117.00629,1.3504.03833,2.70856.18756,4.02625.01263.28088.01324.56195.00623.84326-.34329,2.26714-3.15389,4.20902-3.03772,6.49826.05444.01022.10675-.02554.11694-.0798.35803-1.89648,1.86292-3.16254,2.80798-4.76978-.31238,2.44317-.45667,5.00004.47646,7.33257.0411.11947.23.05989.18998-.0628-.51245-1.46716-.54449-2.94153-.42792-4.42206.45526.83044,1.24396,1.44556,1.95605,2.14423.31.34338.57953.72253.82861,1.1167.06635.11011.23627.01056.1734-.09961-.73712-1.65955-2.79895-2.52588-2.82776-4.46613.16455-1.34326.37878-2.69147.41687-4.04492-.04382-.50519-.06061-1.00397-.06812-1.50061.32874.59515.67688,1.18469,1.08948,1.7312.60095.89056,1.51733,1.5755,2.16516,2.39117,1.34821,1.72156,1.45013,3.93506,1.63055,6.0545.01373.12775.20758.10199.19629-.01984-.09015-1.83423-.15601-3.85773-1.05225-5.53717.14429.13519.40906.3833.40906.3833.5415.56262,1.22681,1.11401,1.45264,1.87549.03064.12539.22778.07625.19378-.04945-.47337-1.3051-1.58701-1.98644-2.67877-3.12426-1.37927-1.50989-2.59802-3.03131-3.40137-4.95178.02863-1.26331.10272-2.51624.10663-3.78656.70972.66052,1.53583,1.15198,2.37341,1.62885-.05707,1.08588.78778,1.97821,1.09772,2.97931.01978.04999.07593.07599.12701.05768.14246-.64264-.97601-1.95215-.95099-2.88086.47327.26959.94458.5426,1.39319.84961.81104.50934,1.63159.97308,2.08887,1.77716.46259.79248.65442,1.73871.80365,2.66742.01923.12872.21289.09985.19836-.02539-.11407-.94604-.26056-1.91632-.7251-2.7995-.18359-.28674-.39526-.54376-.62122-.7854.70686.19321,1.42203.37897,2.05029.74891.04663.02697.10681.01232.13544-.03394-.40704-.63611-1.76813-.77167-2.68396-1.17773-1.65619-1.44702-3.94226-2.22003-5.30072-3.95795-.00879-.2655-.01758-.53101-.03687-.79907-.09814-.65955-.14502-1.31152-.16254-1.96112.54175.52435,1.15332.99316,1.82892,1.3316,2.69153,1.16815,5.7345,1.92303,7.61926,4.31885.07501.10767.23566-.00507.16669-.11066-1.18195-1.65839-3.03302-2.63977-4.82129-3.51172-1.83459-.73309-3.60315-1.40509-4.79865-3.04004.0083-.53503.03162-1.07062.05951-1.60815.75989.53082,1.66119.81256,2.49677,1.00452.62689.15771,1.29205.2912,1.96942.42761,1.00269.56354,2.33435,2.15564,2.89789,2.13556.03351-.04388.02515-.10663-.01874-.1402-.54694-.41803-1.07666-.85614-1.57233-1.32782-.16492-.17084-.34473-.34332-.5321-.50879,2.63776.55054,5.31482,1.29877,6.55157,3.81683.0603.11646.23267.0285.18054-.08624-1.52594-3.55157-6.03943-3.99231-9.32404-4.91681-.98834-.2627-1.93915-.65637-2.60022-1.33209.01599-.29041.03033-.58221.04413-.87543.37476.21106.80609.33569,1.21918.48602,2.22437.70703,4.63086.55518,6.82788,1.08429,2.90277.76025,5.85004,1.94934,8.04901,4.04547.09454.09418.22888-.04803.14441-.13861Z" fill="#fff"/>
      </g>
      <path d="m186.56322,321.28046c.66858-1.56573-1.2973-3.44232-3.49011-3.31415-1.40405.08209-3.57745,1.19397-4.63605,2.7738-2.47156.41699-4.06561,2.30872-4.91205,4.61438-.0188-1.47937.06903-2.97156.60864-4.31207.21984-.27975.90493-.44701,1.11109-.52685.24066-.09022.45251-.46101.79992-.81812.51923-.53381.98401-.27985,1.06622-.33667.08215-.05676.36304-.68268.56836-.9281.20532-.24548.65295-.05475.73993-.13495.07135-.06573.31842-.45001.44623-.72894.0658-.14368.45032-.22028.50226-.255.02075-.01385.03363-.26172.14606-.33417.13623-.08789.43781-.12054.45215-.16815.0249-.08252.14594-.32452.15491-.43909.02618-.33429.52203-.21185.56622-.32721.01666-.0434.09326-.26276.24414-.42963.18018-.19928.75299-.19885.65277-.38153-.02551-.04645-.46045-.42511-1.1358-.65289-.46604-.20015-1.91434-.19983-2.41913.18855-.33768.21478-.4658.03461-.80274.08367-.21996.04846-.43163.33863-.5266.40827-.09052.06641-.39215-.02057-.49646.06824-.03455.02948-.26038.73145-.47083.85223-.18597.10681-.6178.21088-.67554.2467-.04755.02954-.15503.69409-.19812.76813-.21228.36432-.42645.53766-.45874.58118-.12891.17352-.18451.66968-.24896,1.00659-.06909.36096-.4447.6828-.4516.74915-.01031.09888.29565.53528.13391.8432-.08368.15936-.16681.33795-.24548.51935-.17426.39031-.43408,1.11364-.47284,1.24976l.02649.01721c-.11157.42145-.20349.84723-.27203,1.27234-.13226-.62787-.29639-1.24896-.47809-1.86597.23095-.46908-.17106-.61661-.22175-1.36214-.01782-.4254.03724-1.75633-.08947-1.99291-.0318-.05927-.26422-.25696-.38153-.43719-.05798-.08911-.10004-.83167-.15302-.87659-.28322-.0549-.55272.10355-.84404-.37077-.12257-.19149-.14796-.46059-.17415-.49361-.07587-.09534-.20166-.09967-.23975-.17786-.10864-.22314-.06305-.30804-.10016-.35046-.11194-.12805-.13251-.04901-.23163-.14709-.10394-.10278-.24561-.63037-.35596-.62433-.19939.06942-.54022.14421-.74383-.00303-.05835-.03347-.24695-.42269-.34033-.42342-.12756-.00098-.30408.01904-.46411-.06628-.19403-.10345-.39539-.43341-.53851-.39252-.14313.04095-.37494.40332-.63531.25684-.79852-.44916-1.42493-.26398-1.46472-.21155-.15631.20605.0188.67609.09564,1.17639.04236.27612-.11639.48096-.10388.53729.03333.14966.1496.10559.12091.52087-.00983.14233-.12469.28931-.10913.3952.00897.06104.39752.31622.54883.44891.12482.10944.09552.4162.11847.43701.05743.05206.51569.21606.57037.40454.10614.36578-.00513.8457.0705.93939.09222.11438,1.13361.37091,1.34106.70972.2074.33881.46588,1.12726.5564,1.21198.09058.08466,1.28717.01056,1.82758.7605.36163.50183.30511.77271.34985.8573.06134.11621.53357.08282.81512.26666.22406.14624.35773.22412.44775.28632.15546.90405.26855,1.81921.34375,2.74194-1.0068-1.68133-2.83555-2.81083-4.7749-3.04852-1.26746-2.44086-3.22345-3.37622-4.89911-3.49176-2.18408-.15063-4.77551,1.42664-4.81354,2.87177-.03351,1.27509,1.78772,1.2843,2.07135,1.901.27075.58862-.34937,1.87756.55444,2.65216,1.28491,1.10126,3.34351.71515,4.48291,0,1.56824-.98425,1.38269-2.41284,2.61853-3.16956,2.45063.32195,4.53511,2.28884,4.88788,4.75818.05658,2.16022-.00482,4.32892-.03387,6.43585-.00793.64673.96912.67004.99872.02972.0917-1.76954.13446-3.62922.03479-5.42303.16693-3.2912,1.64081-6.99481,4.91864-7.62512.38953.38593.91589.88165,1.32941,1.68286,1.33307,2.58276,5.34534,3.92798,6.39899,2.00464.76318-1.39319-.58905-2.28613-.35895-2.61487.28162-.40228.63739-1.02948.74164-1.27368Z" fill="#95c172"/>
      <path d="m173.00023,335.07172h-.0127c-.27588-.00732-.49414-.23633-.4873-.5127l.07666-2.78467,1,.02832-.07666,2.78174c-.00684.27148-.22949.4873-.5.4873Z" fill="url(#linear-gradient)"/>
      <g id="leaf_1_right_hi" data-name="leaf 1 right hi">
        <path d="m178.16176,321.1801c1.76485-.81186,3.45877-.872,4.95329-.52035,1.37569.32369,2.98812,1.49214,2.70654,1.89441-.23013.32876,1.1221,1.22165.35892,2.61484-1.05361,1.92337-5.0659.57815-6.39895-2.00464-.52774-1.0225-1.24866-1.55315-1.6198-1.98425Z" fill="#a6d67c"/>
      </g>
      <g id="leaf_1_left_hi" data-name="leaf 1 left hi">
        <path d="m167.93117,323.13806c-2.09364-1.23299-2.96792-1.36435-4.47377-1.17564-2.17229.27224-3.75092,1.24416-3.46729,1.8609.2707.58862-.34936,1.87754.55444,2.65217,1.28489,1.10125,3.34346.71512,4.48288,0,1.68625-1.05832,1.32239-2.64086,2.90374-3.33744Z" fill="#a6d67c"/>
      </g>
      <g id="leaf_2_right_hi" data-name="leaf 2 right hi">
        <path d="m181.58388,315.23404c.10025.18266-.47255.18225-.65273.38151-.15091.16689-.22748.38626-.24413.42966-.04424.11533-.54005-.00712-.56625.32721-.00898.11456-.13.35655-.15491.43908-.01436.04758-.31593.08025-.45217.1681-.11238.07247-.12525.32033-.14602.33421-.05193.03472-.43645.11128-.50229.25499-.12779.27894-.37489.66318-.4462.72894-.08699.08022-.53463-.11053-.73994.13494s-.48622.87134-.56838.92813-.54698-.19713-1.06618.33663c-.34743.35716-.55928.72795-.79995.81813-.12308.00982-1.50623.59555-1.43716.54701.72431-1.67149,2.82072-3.85424,3.16597-4.2285,2.41637-2.61937,4.58484-1.64651,4.61034-1.60004Z" fill="#a6d67c"/>
      </g>
      <g id="leaf_2_left_hi" data-name="leaf 2 left hi">
        <path d="m165.41309,313.89678c-.15636.20605.01879.67613.09561,1.17644.04239.27608-.11641.48092-.10387.53725.03333.14968.14957.10559.12088.52091-.00983.14231-.12465.28931-.10909.3952.00897.06105.3975.31624.54881.44892.12481.10945.09549.41615.11847.43699.05745.05209.5157.2161.57038.40455.10614.3658-.00511.84568.07049.93942.09222.11435,1.1336.37089,1.34104.70968s.46589,1.12727.55645,1.21197,1.28714.01056,1.82755.76051c.36161.50183.30513.77271.34982.85732.06136.11617.53359.08282.81513.26662.65871.43002.8964.50463.8964.50463-1.26294-2.03382-2.09835-4.34348-3.416-5.68308-1.58737-1.61382-2.74128-2.3614-3.68209-3.48732Z" fill="#a6d67c"/>
      </g>
    </g>
  </g>
</svg>