<?xml version="1.0" encoding="UTF-8"?>
<svg id="Layer_2" data-name="Layer 2" xmlns="http://www.w3.org/2000/svg" xmlns:xlink="http://www.w3.org/1999/xlink" viewBox="0 0 346 469">
  <defs>
    <linearGradient id="linear-gradient" x1="172.92336" y1="336.00184" x2="172.92336" y2="330.74771" gradientUnits="userSpaceOnUse">
      <stop offset=".34875" stop-color="#fff"/>
      <stop offset=".90496" stop-color="#fff" stop-opacity="0"/>
    </linearGradient>
  </defs>
  <g id="CASE_12_Plants_LH_WH_CL" data-name="CASE 12 Plants LH WH CL">
    <g id="Day_24" data-name="Day 24">
      <g id="rectangle">
        <rect width="346" height="469" fill="none"/>
      </g>
      <g id="ROOTS_Back" data-name="ROOTS Back">
        <path d="m196.53752,346.92157c-1.05841-1.53345-2.27655-2.77057-3.56012-3.91333.31073.14215.61932.28662.91583.44147,1.52734.86578,2.87207-1.36713,1.39307-2.31299-3.32043-1.93158-6.72766-2.96411-10.42871-3.66211-.65393-.30109-1.32343-.57898-2.02356-.81146-2.42651-.63141-5.26996-.836-7.50647-1.97583-.04736-1.31482-.12396-2.6344-.25238-3.96521-.5058-2.98285-4.88123-2.27069-4.44519.69916.06952.90039.12225,1.80908.16675,2.72144-2.32601,1.59043-5.32849,2.48152-8.06055,3.18176-4.68628,1.42694-8.5,4.52136-11.79291,7.99561-1.15906,1.30133.71118,3.07819,1.95105,1.86627,1.04578-.98944,2.17194-1.95221,3.35974-2.836-.24792.61902-.47321,1.24567-.68805,1.875-.49884.66864-1.13129,1.49286-1.90582,1.58557-1.80455.40465-1.10789,3.11653.66595,2.61261-.13932,1.57476,2.08937,2.03475,2.6003.53962.28722-.83576.57756-1.67237.8817-2.5019.6048,1.20074,1.78271.79919,2.84912.24268-1.65112,1.68414-3.03723,3.59375-3.83972,5.96167-.1369.51105-.00092.93573.26831,1.23389-.03644.03674-.07715.06366-.11285.10211-1.13495,1.31647.75867,3.06641,1.98053,1.82709.12122-.13342.26538-.23413.54852-.3653-.39716.47339-.82166.92523-1.2951,1.33881-1.20123,1.24982.56891,3.09515,1.86493,1.95239,1.21362-1.09613,2.34692-2.32678,3.36841-3.64221.02087.32629.12341.6059.32361.82831-.70209.58588-1.37848,1.20917-2.05322,1.82068-.36298.34082-1.15155,1.10754-1.52148,1.39313.04077-.02094.23352-.10583.34204-.08069-2.31592.43805-1.01776,3.6546,1.02234,2.42139,1.27222-.86798,2.4729-2.07581,3.75562-3.10187-.28796.66577-.55695,1.34021-.79706,2.02863-.73083.35864-1.48914.86389-2.07855,1.26263-1.76587.1839-1.53564,2.81354.23389,2.68994.24689-.02942.466-.09033.67535-.16248-.05933.20721-.11914.41351-.17847.62115-.39093,1.6825,2.07233,2.3609,2.59937.72003,1.12747-3.34735,2.46391-7.11445,4.92328-9.69684.01031.61786.01862,1.19543.02167,1.69031-.63269,1.55713-1.82666,3.25378-2.74194,4.71515-.78906,1.49591-5.06982,6.80365-2.23975,7.77753.71674.1958,1.45648-.2265,1.65222-.9433.1991-.521.44025-1.02197.70605-1.51154.11682.89252.08569,1.76654-.28174,2.50177-.65149,1.30762.81873,2.36176,1.83173,1.82178-.43317.56067-.36371,1.36707.17725,1.83905.66925.52808,1.30402.37231,1.86597-.1413.03247.40784.05695.81262.06287,1.21179.05652,1.72156,2.5932,1.73596,2.69751.03967.12164-3.13934-.43762-6.0932-.60425-9.07721.22528.28864.45203.57635.67883.86401-.50555,1.75897-.35455,4.0741.19598,5.82849.19537.69727.91058,1.12164,1.61969.9491,1.53666-.43779.87561-1.93077.73029-3.04602.09271.18152.18512.36316.26813.54987.2735.66809,1.0351,1.00983,1.72101.75317,1.05817-.49683.98199-1.41455.58374-2.35455.9401.16121,1.68388-.82245,1.42896-1.70612-.05573-.32971-.11566-.68988-.1781-1.06165.6972.8028,2.31274.54791,2.38086-.82916.0141-.14783-.00073-.28894-.0116-.43097.09656.06805.18213.14667.28137.2121,1.51093.85767,2.85925-1.33594,1.41211-2.2959-2.89853-2.30825-4.55564-5.98819-7.64429-8.38391-.03668-.05219-.06628-.10767-.10407-.15936-1.09185-1.09772-1.86004-2.25348-2.5191-3.61725.03925-.7392.07684-1.38806.10986-1.85803.01044-.12615.03344-.28644.04126-.42029.01257-.13367.02557-.2757.03888-.42542.1864.10999.37311.21747.55994.32428,1.38684,2.59985,2.15869,5.88922,4.48883,8.06305.7287.71356,1.67413.39191,2.09534-.2583.52765,1.08905.97955,2.20673,1.16211,3.20538.31475,1.79793,2.8701,1.49457,2.63177-.48236.25659.24036.50421.49512.73041.78864.44556.58087,1.28223.70276,1.87518.26184,2.1225-1.8606-2.75342-4.56024-4.09613-5.71686-.26746-.55859-.55609-1.11957-.85474-1.66754,1.85925.86334,3.59241,1.86884,4.9071,3.50226.95248,1.25963,2.93471.12028,2.29755-1.33142.11255.04889.22418.08972.33807.14874,1.58356.74536,2.75751-1.57281,1.21924-2.40875-1.00714-.60504-2.3244-.83154-3.54486-1.03522.65759-.18268,1.17493-.8562.99817-1.58716.09088-.02148.17877-.03516.27594-.07318.38397-.20264.6225-.56635.69177-.96307.09125.1416.18134.28333.26068.42511.85864,1.50635,3.12976.31793,2.39166-1.24524-.27643-.53552-.57385-1.02344-.88782-1.48364.59729.1051,1.25903-.14838,1.50183-.82538.14697.17224.30426.33984.44293.51556,1.0664,1.36406,3.14983-.14071,2.18414-1.58337Zm-17.05267-3.74408c.24353.13861.54663.35419.83447.64215.43604.31213,1.07062,1.11774,1.79437,2.03131-1.42059-.87067-2.89856-1.65027-4.51831-2.25763-.79797-.32684-1.46973-.68237-2.04816-1.18036,1.28406.34698,2.63776.52008,3.93762.76453Zm7.76074,6.12433c.0155.07007.03369.1391.05035.20886-.05035-.04065-.10059-.08167-.15131-.12201.03418-.02649.06769-.05573.10095-.08685Zm-28.70966-2.63385c-.01605.00647-.02936.0166-.04504.02362.47522-1.15436,1.00903-2.27441,1.63373-3.33783.32196.61462,1.0675,1.0097,1.86829.55243,1.53748-.92029,2.44739-2.25696,3.36218-3.57825,1.85675-.39032,3.67322-.89429,5.4549-1.60791.02319.14734.06403.29132.11938.4325.00208.32507.00305.65021.00281.97559-.77551.79712-1.78162,1.56433-2.70764,2.29541-.24591-.02155-.48169-.02563-.68695.00635-3.41882.38928-6.0813,2.84705-9.00165,4.2381Zm1.45624,7.66406c1.06207-1.78943,2.55255-3.25922,4.22729-4.58252.01312.08282.03247.16571.06189.24756.06909.17218.15466.31439.25171.43219-.92365.97577-1.67554,2.0824-2.39722,3.21033-.68829.27277-1.41858.46979-2.14368.69244Zm9.13739-3.27594c.51874-.39844,1.02606-.85022,1.52637-1.32361-.00879.16797-.01599.33795-.02509.50549-.00671.20367-.00983.4408-.01355.67169-.84796,1.65814-1.216,3.1358-2.29675,4.56519-.62415.13965-1.20892.34839-1.76233.61145.79895-1.65735,2.01013-3.21387,2.57135-5.03021Zm1.36145,14.97717c.01819.52155.05017,1.03827.09784,1.55029-.09747-.41821-.21106-.83203-.32922-1.2431.07727-.10236.15363-.20496.23138-.30719Zm.43121,4.35272c.00128-.0545-.00391-.10889-.00372-.16333.00494.0321.01013.06372.01508.09576-.00269.02191-.00854.04553-.01135.06757Zm3.68939-11.78906c1.57947,1.9577,2.11273,4.63464,2.80841,7.06964.21063.8205.44067,1.86615.6554,2.87207-1.29004-2.13629-3.33105-4.50385-3.89178-6.73523.0863-.7063.16125-1.40271.17352-2.0578.0177-.36169.03912-.81952.06311-1.33624.06592.05896.12427.13086.19135.18756Zm5.41315-8.84399c-1.18579-1.15784-3.07452-2.08197-4.43817-3.20996.81219.29761,1.61115.5473,2.4082.84418.1573.06687.32478.12443.48395.19196,1.18622.70795,2.03204,1.82141,2.9021,2.94818-.4043-.2002-.79999-.40497-1.19019-.61346-.06042-.06323-.11615-.11768-.16589-.16089Zm6.74884,3.59729c-.17358-.11041-.35162-.21375-.52838-.31927.10016-.1745.16486-.36798.18628-.56799.32611.28418.64349.57599.94006.88513.0705.07684.14417.14258.22003.19843-.28912-.05762-.56549-.12091-.81799-.19629Zm2.69305-7.95587c-2.14117-2.09784-4.72577-4.33069-7.72656-5.1925-.42853-.15552-.9054-.28552-1.39703-.40955.39862.04376.77142.08289.98737.10052,1.12799.16205,2.15466.62042,3.28015,1.15619,1.88251.96283,3.82562,2.14368,5.6048,3.49908.4173,1.10101,1.1673,1.76617,1.08777,2.8299-.5733-.67322-1.18634-1.31372-1.83649-1.98364Z" fill="#4c4c4c"/>
      </g>
      <path d="m213.03941,287.44257c-.12152-1.17303-1.52319-3.09045-2.92529-3.57288-.81494-.30666-1.67748-.48866-2.4604-1.06224-.4486-.30562-1.00695-.68599-1.70202-.9233-.656-.20989-1.97737-.26871-2.60224-.64032-1.22667-.96273-2.18854-2.30768-4.28878-2.41424-.46795-.01004-1.53956.15029-2.05662.17785-.39987.0109-1.88753-.15484-2.52942-.22155-.94581-.00855-1.93747.60303-2.77343.9641-.69835.20673-1.85167.02143-2.5094.22172-1.20794.38369-2.03802,1.28829-2.43493,1.74508-2.41495.4182-3.45529,1.41468-3.50653,3.8241-.81311.92297-1.68011,2.27643-1.63318,3.76941-2.58038.78571-4.80157,2.41864-6.55939,4.06738-.25401-6.86788-.4424-13.7166-.50061-20.58368.78113-2.38519,3.47693-6.26776,6.80469-8.77228.62241.12997,1.14194.54474,1.82239.4999,1.07603.02872,1.70835-.539,2.60477-.68767,1.11436.07262,2.38618.52503,3.63015.38157.70652-.07314,2.34433-.92426,3.10907-.98616.8334.04444,1.2792.28221,2.12256.28626.43396,0,.87018-.07093,1.3728-.22315,1.31337-.42392,1.81179-1.22815,2.39294-1.91711.75757-.22455,2.28809-.43313,2.68322-.79928,1.21107-.87913,2.02705-1.24205,2.23249-1.28007.82803-.08904,1.03749.5289,1.9867.51139,1.00721.01917,2.05547-.81221,1.95338-1.90839-.10757-1.84-3.74306-4.74942-6.14138-5.8129-1.45886-.64691-3.4469-1.38947-5.89117-1.38947-1.25511-.05971-2.38414.34293-3.65087.39358-.78678-.01219-1.68749-.09604-2.41188.08794-.86036.19721-1.53847.88782-2.20666,1.38304-2.07738.33803-3.80349,1.07579-5.19067,3.11798-1.15382,2.00465-1.9671,2.77552-2.75953,4.47595-1.65411,1.18994-3.17834,2.64172-4.49219,4.18079.00061-.24713-.00055-.49426.00024-.74139,1.67419-5.34467,3.92767-11.05463,7.7088-14.90271.72559-.73828.71533-1.92578-.02344-2.65137-.7373-.72559-1.9248-.71484-2.65137.02344-2.02411,2.06-3.62775,4.53259-4.96558,7.16229.03943-4.65576.078-9.31219.08655-13.96942,2.32768-1.71133,6.55305-4.66316,9.29458-10.46628.4365-.93899.02928-2.05422-.91018-2.49026-.93701-.43896-2.05469-.02979-2.49023.91016-1.59167,3.4245-3.9621,5.76282-5.90259,7.34418-.00403-1.0141-.00287-2.02802-.01166-3.04218-.06903-1.15723-.85388-1.77667-1.71008-1.88654-1.00122-2.58649-2.30811-5.52057-3.58173-7.20795-1.51841-1.94096-4.44485.26706-2.99311,2.25983,1.33796,1.77148,3.15797,6.25323,4.2082,9.42798-.03705,1.224-.07062,2.44019-.11426,3.67859-.38782-1.16034-.78168-2.09821-1.31519-2.73016-1.61083-1.83124-4.36571.50608-2.86664,2.41802,1.28546,2.67082,2.00058,7.11318,3.82318,9.96931-.05017,1.3454-.09918,2.68823-.14417,4.02478-2.30963-1.9776-4.92975-3.68384-6.85779-4.58496-2.25093-1.00595-3.80274,2.31642-1.58782,3.39749,2.42528,1.13333,6.07408,3.73202,8.29589,6.26852-.0655,2.24405-.08597,4.48805-.1048,6.73779-1.99115-1.91815-4.03571-3.547-5.36499-4.48535-2.03695-1.38617-4.15244,1.60733-2.16302,3.06352,1.98156,1.399,5.28967,4.18355,7.52374,6.91866.01007,2.59656.03162,5.19482.07141,7.7948-1.94519-2.02498-4.05002-3.65775-6.10284-5.41571-.53081-1.73379-1.08818-3.39315-2.49131-4.09984-.38717-.52786-.6324-1.20054-1.2623-1.63019-.89861-.62599-1.74474-.70728-2.26439-.72883-.5-.59137-1.43182-1.63019-2.02185-1.90808-.16821-.09271-1.37665-.88208-2.0932-1.49353-.21857-.18652-.75189-.89557-.95264-1.16248-.28976-.40035-.36502-.39109-.5122-.82269-.23362-1.04041-1.60246-2.2333-2.81849-1.58307-.15576-.02051-.30756-.0434-.36658-.05621-.40804-.11981-.7853-.26976-1.2851-.32513-.07794-.06207-.16528-.14062-.20593-.18848-.69399-.92622-1.93786-.97845-2.04297-.98303-1.58522.00991-1.7868,1.59266-2.00952,2.52179-2.24994.30178-3.73462.59529-4.26473,3.05503-.09196.30318-.24168.79769-.35148.98452-.59467.43982-3.6933,2.77905-3.89319,3.75079.00317-.01544.00684-.03314.01282-.05237-.42722,1.11333-1.24446,2.65807-.29885,4.11152.5248.76928,1.39595,1.33526,2.27352,1.47692.46277.13249.95882.54439,1.49116.65684.85404.25115,2.02679.00469,2.67681-.30759.30554.21008.64459.31476,1.01868.31866.08618.02417.20251.065.29083.10278.52871,1.08087.89214,2.73984,2.47632,2.77759.46171-.02183,2.4079-.05846,2.72659.01546.23844.03703.34201.11962.63346.37499,1.06382,1.1415,3.17685,1.33443,4.20844.04114,1.34527,1.07745,3.6267.11262,4.50012-.53864,1.32194.80995,2.9174-.63237,4.37817-.47968,3.45349,2.9072,7.40012,5.91731,8.71552,10.07202.10779,4.85248.22711,9.69769.32733,14.52637-1.77838-2.41254-3.93524-4.34369-6.68903-6.07605.37805-.74615.47961-1.60913.10254-3.29614-.24988-1.1178-1.26605-1.81146-1.99451-2.15912-.09676-1.98295-.79075-4.23079-2.2985-5.0555-.77476-.46905-1.79032-.62201-2.58444-.99668-.44734-.91837-2.74536-2.68514-4.11215-2.74242-.76052-.11785-2.17992-.26005-2.93942.04206-.21492.07515-.59396.23755-1.23998.24291-1.31666-.10885-2.14625-.34388-3.96622.39839-1.24642.58857-1.95143,1.62086-2.96755,2.23665-1.98519.98769-3.81162,1.68783-4.62723,3.60425-.48904.98534-.82106,1.2107-1.88378,1.62575-2.28937.93149-5.40476,3.3049-5.24165,5.68817-.17869,1.24157-.69007,2.83941.60954,4.28792.80054.85275,1.84923.84374,2.7383,1.12407.59149.43071,1.86398,1.44885,2.28475,1.58494,1.04003.50927,2.49113.27073,3.46635-.00578.02045-.03075.95509.2512,2.21905.91938,1.25298.64978,2.8244.0498,4.06806-.25458.8657.3295,1.12598.92607,2.03713,1.38663,1.11937.64614,2.79232.79866,4.30046.66901,1.96577-.14188,3.16812-1.15697,4.93945-1.69674.66733-.0705,1.32816.54752,2.29512.48959,1.66753.0464,3.83316-1.84504,4.32622-2.96738,3.05408,2.35913,5.30035,5.51501,7.29358,11.23492-.03912,2.49048-.09509,4.99585-.1427,7.51495-2.52411-2.48865-5.26495-4.79608-9.32184-4.99188-2.28574-2.28811-8.77518-1.56185-11.20621-.69804-5.58505,1.63798-8.68851,4.55955-8.30167,7.81498.28112,2.53761,2.67205,2.65136,4.67261,2.133.35308.99554.77487,1.98491,2.62078,2.69319.57813.21703,1.19111.32708,1.82203.32708,3.25665,0,6.1239-2.85547,7.11969-4.88312.89246-1.81732,1.65997-2.57458,2.95874-3.6217,3.81276.04894,6.64382,3.64243,9.56842,6.43542-.02466,4.00049.03204,8.03009.3064,12.08502.31622,3.31842,5.14423,2.91003,4.98834-.34131-.29663-4.32214-.31738-8.68536-.2619-13.08881,3.20892-5.06097,5.46509-6.16711,8.81146-6.6637,2.04962.98739,4.04463,1.39838,6.70562,2.53096,2.86073,1.12244,5.85015,4.5968,8.90491,4.59919,4.80206-.34356,4.10811-4.90608,2.24873-7.44515.36859-.30597.76202-.65997.94043-1.19745.21918-.66034.62103-2.38123-.37878-4.09509-1.21218-2.2738-4.71538-3.18164-7.58493-3.10709-6.86252-.00002-10.03543,3.03208-11.38235,5.02525-3.25293.51843-5.71869,1.52448-8.15619,4.04724.12849-5.03319.09781-10.14891-.07556-15.16809,1.4068-1.68549,4.28668-5.11041,7.61603-6.14606.41862,1.25267,1.91014,1.49587,3.233,2.05345.78532.33359,1.27153.90996,2.16764,1.1734.91553.31161,2.01539-.06084,2.94396.02278.99772.39031,2.28008,1.17301,3.40791,1.15556.92502-.03248,1.93281-.40918,2.77795-.59562.50854-.04579,1.7093.05379,1.78656.11768.85023.30274,1.90554.92852,2.78155.92451,1.03112-.0145,1.70202-.57406,2.26642-.98664.45902-.10201,1.02937-.16083,1.47522-.22931,1.80241-.30911,2.28933-1.90862,2.50537-2.51697.1687-.41333.45966-1.02686.65118-1.42883.87714-.73706,1.37832-1.1015,2.13519-2.24701.75472-.39803,2.25635-1.07771,2.02515-3.63104Z" fill="#2e541a"/>
      <g id="ROOTS">
        <path d="m195.50707,347.62866c-2.42804-3.18024-5.5592-5.89789-9.07166-7.8927,2.80072.51068,5.59491,1.33008,8.10278,2.64301.04626.02551.10699.01178.13531-.03375-1.07953-1.06055-3.48889-1.76086-4.98419-2.3421-1.73385-.56255-3.49044-1.08352-5.32397-1.34375-.612-.28564-1.23273-.55023-1.86151-.79059-2.64917-.69037-6.35773-.94867-8.41766-2.48041-.02734-.10602-.07672-.18585-.12598-.2652-.02643-1.38336-.06842-2.76569-.14282-4.14545-.08545-1.3222-2.03577-1.20349-1.99768.08923.05194,1.23199.07831,2.48291.11035,3.72974-2.90219,2.43969-6.87002,2.9974-10.35004,4.24579-3.77344,1.5766-6.97125,4.19135-9.73346,7.1416-.09167.0957.0636.22522.14447.13824,2.20117-2.10742,4.69055-4.02832,7.42517-5.40112-.16736.23737-.32446.47882-.47467.71851-.9505,1.63647-1.65375,3.38556-2.25507,5.16992-.71585.98461-1.51727,2.01483-2.77455,2.22386-.12645.01937-.09846.21808.02968.19777,1.03363-.13269,1.82501-.83954,2.47864-1.61017-.30914.96802-.59662,1.94257-.87891,2.91333-.0379.12408.15466.17639.19104.0592,1.01636-2.96271,2.05817-5.97058,3.75775-8.60522.55243-.82281,1.2276-1.62604,2.02301-1.98346.12421-.04663.24518-.10187.3703-.146.66315-.19983,1.35004-.3692,2.04736-.52875-.75037,1.24396-1.46448,2.49994-2.68768,3.3349-.10742.06927-.00549.23517.10339.1712,1.4472-.8421,2.35553-2.33936,3.29712-3.66589,2.53168-.55542,5.15582-1.06042,7.34509-2.37366.02539,1.33179.0368,2.66382.05017,3.99524-.05145.05981-.10596.13019-.15179.17804-1.05438.97253-2.17224,1.87781-3.30548,2.76746-.84003-.17755-1.65894.01831-2.37781.25-2.6084.89911-4.74841,2.67523-7.20886,3.8432-.11981.05042-.04333.23175.07343.18604,2.90002-1.11841,5.48745-3.36906,8.65717-3.6087-3.68136,2.9917-8.14721,5.88535-9.70621,10.6009-.0358.12762.16251.1729.19223.05486,1.74884-3.99219,5.26569-6.48108,8.85809-8.86511-.13452,1.18317-.63605,2.5343-1.55176,3.24744-.13102.04153-.05966.24375.06781.18829,1.1803-.77783,1.77716-2.34454,1.94476-3.74103,1.55457-1.02789,3.10767-2.04926,4.52679-3.17303-.00372.73553-.01813,1.49561-.02948,2.24811-1.19116,1.05731-2.13556,2.21149-3.15881,3.29346-1.10638,1.36823-2.65424,2.02765-3.7713,3.34399-.75378.98212-1.41345,1.99963-2.06824,3.00958-1.61855.80435-3.76805.85888-5.0983,2.18885-.08622.09816.07059.23178.15329.12847,1.2254-1.10754,3.02185-1.20282,4.56781-1.74066-1.0459,1.60309-2.11987,3.16711-3.58185,4.51392-.09369.09174.05011.22668.13794.14453,2.6026-2.13574,4.31342-5.25812,6.42853-7.74695.46106-.48083,1.01245-.87238,1.57355-1.25299-.61682,2.10022-2.16553,3.98859-2.56622,6.16791-.01782.12537.17731.15228.19727.03027.65076-2.45306,2.57648-4.26318,3.19476-6.77185.56696-.38672,1.11951-.78534,1.57068-1.27777.81152-.75079,1.59705-1.54132,2.3974-2.25201-.02814,1.4566-.06067,2.93152-.08582,4.40784-.65222,1.20416-1.11304,2.42371-1.67126,3.56958-.29492.71344-.7525,1.29993-1.22357,1.87256-2.62909.42513-4.58515,2.38269-6.46259,4.09802-.51794.44867-1.3175,1.37775-1.92151,1.62396-.16187.01947-.13953.23621.01733.19928.7793-.3313,1.44745-1.11597,2.08862-1.62073,1.68982-1.4126,3.51929-3.08655,5.70386-3.59265-.29028.3681-.56396.7475-.77844,1.17023-.87036,1.56091-1.55542,3.19513-2.13959,4.86658-.53956.20037-1.06199.49654-1.54858.81085-.48535.29736-.90851.73157-1.44092.77716-.13122.00788-.11339.21422.0174.1994,1.09558-.24658,1.83081-1.06531,2.85339-1.43457-.38422,1.13354-.7337,2.27979-1.03558,3.44171-.03009.12909.16559.16852.19391.0484,1.2027-3.51813,2.50922-7.31165,5.08337-10.05536.97345-.9137,1.61804-2.12036,2.23962-3.3136-.0144,1.98132-.00995,3.95032.06555,5.85229-.00104.02881-.00244.05756-.00354.08636-1.48145,3.85602-4.83051,6.92572-5.96399,10.94611-.02747.12476.16681.16302.19421.04419.55902-1.55872,1.43982-2.93317,2.40826-4.2608.65847,1.96625,1.26968,4.2155.31732,6.18061-.02343.04834-.00561.10949.04242.13464,1.38788-1.75708.50684-4.68512-.06665-6.70636,1.01331-1.35938,2.07806-2.69379,2.97681-4.13104-.11847,2.79218-.18372,5.56451.30182,8.3208-.05457,1.53076-.67792,3.16327-1.54443,4.38416-.08142.09912.07312.22382.15411.1275.74316-.99512,1.31586-2.15112,1.59418-3.36908.28748,1.79205.61298,3.57684.61963,5.38165-.00336.13129.1958.1261.19995.00696.16592-4.3672-1.07771-8.7008-.50647-13.04974.82605,1.6734,2.02783,3.12177,3.18549,4.60016-.00635.02069-.0246.03076-.02417.05652-.55463,1.82886-.50891,3.89575.07355,5.73273.03284.12463.22601.07056.19354-.05103-.4953-1.80719-.46033-3.57159.05615-5.35205.89709,1.1637,1.7417,2.36121,2.32404,3.71997.05115.12006.23053.04358.1861-.07269-1.33673-3.76666-4.83667-6.68323-5.75739-10.54419.09052-.72119.1709-1.44037.18762-2.15253.0744-1.47217.15491-2.94806.23621-4.42529.44666.65814.94409,1.28851,1.51569,1.84131.60889.55731,1.08105,1.00165,1.45868,1.71442,1.8183,3.44464,2.50842,7.33783,3.33759,11.14478.02502.12866.21667.08252.19598-.03644-.62976-3.5672-1.16376-7.28296-2.61853-10.66235,1.19604,1.08698,2.22766,2.3653,3.28473,3.61499-.505,1.79871,1.17664,3.16205,1.29596,4.80841-.00146.12872.1972.13007.20007.0036-.01831-1.59119-1.42712-2.84888-1.16132-4.4176.99658,1.15906,2.0376,2.26721,3.29053,3.13043.11011.06665.20972-.10675.10333-.17065-3.08142-2.35693-4.69696-6.12341-7.81561-8.52173-.01007-.00836-.02057-.00934-.03076-.01636-.30615-.40991-.65851-.79535-.96936-1.12769-.83752-.95526-1.43689-2.04132-1.98242-3.21252.09583-1.75452.18622-3.51105.2677-5.26917.82239.65063,1.72687,1.15521,2.64142,1.66302,1.52673,2.62518,2.14301,5.94238,4.46198,8.10876.08858.08977.23222-.04538.14446-.13831-1.04076-1.16247-1.77142-2.55553-2.3258-4.00732-.45685-1.11517-.72528-2.24945-1.19238-3.34467.0863.05066.17322.09918.25909.15112,2.30389,1.50415,3.61963,4.19812,4.99353,6.52472.73315,1.42383,1.43225,2.89954,1.7168,4.47321.02295.12848.21301.08856.19751-.03156-.23157-1.18408-.58862-2.33893-1.0274-3.46503.6059.43646,1.2406.79352,1.84387,1.24683.78278.5611,1.5072,1.20361,2.10498,1.95593.03339.04193.09528.05151.13879.01935-.78345-1.71149-2.98749-2.6803-4.37097-3.94922-.00244-.00269-.00665-.00153-.00922-.00403-.78949-1.83429-1.82092-3.5719-3.00165-5.1825,3.23322,1.38069,6.81216,2.65854,9.08215,5.50649.0799.10374.23389-.01778.16083-.11873-.72015-1.00226-1.60712-1.8067-2.57397-2.5116.79749.15948,1.83929.27417,1.9632.28815.91736.12659,1.81305.3728,2.64026.78479.04865.02423.10809.00519.13342-.04327-1.37714-1.19269-3.75946-.87592-5.43512-1.52332-2.18494-1.42242-4.7196-2.39703-6.9433-3.64227-.05701-.07001-.11053-.14362-.16809-.21307-1.67505-1.53961-3.92584-2.41681-5.36554-4.13007.0307-.7337.0575-1.46729.0824-2.20111.94067.64911,2.01019,1.08203,3.0307,1.34625.67578.2038,1.33807.45245,1.98981.73145,2.59491,1.25555,3.68152,4.53229,6.13385,6.03564.11023.06323.20679-.10913.10083-.17218-1.6402-1.18591-2.5437-3.09296-3.79523-4.6582,1.18738.65515,2.34204,1.37659,3.47021,2.10059,1.22113.83893,2.51007,1.67432,3.45844,2.78418.03387.04962.09845.06567.14844.02856-.42627-1.13239-2.3866-2.34784-3.35443-3.17175-1.21222-.89807-2.46344-1.74298-3.758-2.52673-2.2561-1.6369-5.62976-2.06152-7.36945-4.30487.01605-.6156.02655-1.23096.03687-1.84644.02637-.05493.04816-.10938.06006-.16327,1.34088.7334,2.85675.88562,4.3551,1.22253.4668.09131.93359.17273,1.39618.258,2.73322,1.28741,4.00476,4.74622,6.52325,6.44031.10404.07212.22344-.08354.11859-.16101-1.26971-1.04462-2.17194-2.46161-3.164-3.79382-.54803-.69519-1.05481-1.44598-1.66223-2.08673,2.48921.67809,4.48784,2.40033,6.47107,4.03192.23798,1.45428.25385,3.52643,1.32251,4.58478.04822-.02686.06555-.08777.0387-.13605-.6908-1.24213-.78888-2.61981-.88147-4.01422,1.32007,1.2251,2.50824,2.58289,3.45026,4.07861.05823.125.23639.02771.1806-.08624-1.92529-3.37555-4.85303-6.04828-8.05505-8.21307-3.0296-2.08954-7.44147-1.57391-10.1283-3.96478.00244-.46515-.00104-.92981-.00281-1.39465.04883.02209.09686.04352.14667.06683,2.10443.77875,4.3772.99066,6.57288,1.24567,1.58655.07062,3.05298.65869,4.48517,1.36304,2.11584,1.09644,4.20459,2.37115,6.10876,3.86304.37418,1.28122,1.46815,2.30466,1.25165,3.70294-.01656.12761.18171.15555.19812.02692.24438-1.25464-.59631-2.30011-1.0282-3.39893,1.33008,1.08221,2.56165,2.27502,3.62469,3.60834.08105.10791.23022-.01154.1651-.1134Z" fill="#fff"/>
      </g>
      <path d="m211.54741,287.59711c-.06622-.63934-1.11176-2.03052-1.92126-2.30902-.5603-.19281-1.23218-.4165-1.92554-.70923-.67456-.28485-1.34747-.97266-2.23352-1.27515-.34314-.11713-2.14996-.25049-2.97888-.83179-1.06915-.74976-1.70746-1.88849-3.29657-2.13501-.32623-.0506-1.79968.17609-2.20087.17041-.13312-.00183-1.68463-.07959-2.38867-.21051-.62238-.11572-1.91437.72424-2.46643.88885-.88013.26239-2.25653.1416-2.48969.21564-1.14764.3645-1.87616,1.50836-2.01611,1.5777-.82648.40985-1.55865.24884-2.31555.82288-.81091.61499-.27716,1.99847-.86536,2.64868-.84941.84407-1.81747,2.59112-1.07062,3.99927-4.26141.68896-7.7337,4.27631-9.711,6.57269-.21887-8.16681-.47729-16.31512-.60022-24.47339.8382-2.77808,3.88434-7.30457,7.9104-10.10107.86719.00996,1.76263.49654,2.0191.5619.69489.08989,1.45222-.35835,2.0561-.56489,1.16632-.39893,2.65149.41638,4.23425.27637.26807-.02368,2.43762-1.03857,3.2984-.9903,1.46539.08221,1.72797.51208,3.00342.12573,1.10077-.33344,1.49738-1.46161,2.052-1.78119.47058-.27118,2.30853-.51794,2.57782-.71344,1.17462-.85272,2.35516-1.5058,2.95911-1.55756,1.71661-.14703,1.75409.83002,2.50421.38617.66321-.39233-2.31519-3.47247-5.159-4.73352-1.57361-.69775-4.2489-1.75342-7.61029-1.00183-1.37933.30841-2.42023-.0423-3.39722.18396-.59943.13885-1.47876,1.10846-1.94086,1.29803-.45142.18524-1.58374.31458-2.23755.57318-.54156.21423-1.79547,1.1618-2.27728,1.9505-1.57336,2.72821-2.25159,3.04615-2.77393,4.6405-2.99396,2.04694-5.64124,5.10571-7.26733,7.92035-.0177-1.84515-.02747-3.69104-.02582-5.53802,1.73901-5.6142,4.09485-11.69122,8.17456-15.84344.34448-.33993-.19789-.87911-.53518-.52536-3.63822,3.70242-5.92289,8.8541-7.62058,13.88052.00781-1.22711.00909-2.45355.02789-3.68188-.01971-6.28857.16101-12.54938.18207-18.83057,2.8251-2.16163,6.55647-4.45018,9.39604-10.32461.08736-.18802.00582-.41117-.18168-.49808-.18896-.0874-.41064-.00586-.49805.18164-2.55875,5.3746-6.28625,7.89565-8.71643,9.69775.00122-1.99225-.01074-3.98627-.05756-5.98474-.00836-.26178-.21936-.47662-.48474-.48444-.39195-.01466-.55771.36581-.5213.70715-1.0423-2.8877-2.59033-6.61102-3.98364-8.45624-.125-.16553-.35938-.19971-.52539-.07324-.16504.125-.19824.35986-.07324.52539,1.6474,2.18152,3.59656,7.3114,4.51379,10.1062-.12469,3.90662-.2674,7.8244-.4104,11.74927-.89551-1.72784-1.53717-3.82495-2.06873-5.58057-.52904-1.5367-1.20807-4.62383-2.12786-4.07139-.15827.13389-.1778.37022-.0445.52891,1.51859,2.53952,2.21029,7.7615,4.19092,10.53436-.0943,2.62146-.18091,5.24353-.25824,7.86603-2.50659-2.79834-6.33838-5.47235-8.8941-6.6665-.18848-.08691-.41064-.00537-.49854.18115-.0874.1875-.00635.41064.18115.49854,2.70605,1.26416,6.8717,4.25519,9.17834,7.08051-.11541,3.6802-.12525,7.36205-.12726,11.04767-2.52075-2.99603-5.97144-5.78467-7.7254-7.02271-.39425-.28672-.83372.33786-.43259.61232,1.86356,1.31596,5.67551,4.41099,8.15836,7.60301.01221,4.25732.0799,8.51697.16254,12.77625-2.30736-3.72506-5.85532-6.27142-9.01288-9.01294-.27478-1.03992-.91302-2.84827-1.367-3.26959-.11603-.10767-.61011-.30194-.95081-.70508-.38306-.45319-.62659-1.12549-.97412-1.36755-1.08783-.75781-1.97681-.24756-2.27582-.65857-.07709-.10602-1.41272-1.6734-1.79205-1.85199-.22852-.10767-1.60352-1.00623-2.4278-1.70959-.47217-.40289-1.26056-1.53455-1.43738-1.73859-.50012-.57739-.46002-1.29688-.901-1.5705-.37659-.2337-.39935.15857-.71844.13599-.80643.00137-1.5189-.39505-2.25853-.43525-.25636.00599-.86659-.51519-1.04811-.76665-.20544-.28455-.7486-.38141-.87964-.38715-.42822-.01874-.45209,2.08752-.94568,2.2984-.73303.31323-2.49915.32098-3.20087.8006-.62036.42395-.72858,2.60736-1.50958,3.13416-1.07513.72516-3.34576,2.80841-3.36072,2.88123-.46492,1.30363-1.56094,3.12994.75746,3.75306.64934.10485,1.21801.58373,1.61327.68182,1.23724.30707,2.29358-.66272,2.67126-.5567.31152.0874.31134.57043.74597.51996.15015-.0174,1.02844.24237,1.28314.52771.49445.55389.89233,2.36407,1.40424,2.3562.28632-.00439,2.1886-.08563,2.95374.03333,1.3576.211,1.47888,1.29163,2.60504,1.30865,1.04681.01587.83514-1.01099,2.28149-1.17883.77283-.08966.43683.6297.82275.69202,1.74939.28259,2.47992-.91919,3.20502-.96838,1.06873-.07251.76038.41388,1.427.22278.43652-.12512,1.3974-.56152,2.35754-.65332.47827-.04572.93158-.03705,1.29468-.0863,3.71654,3.18977,8.20571,6.39675,9.71613,11.34302.15021,6.88245.31665,13.75812.4212,20.61743-2.62152-5.85651-5.81274-8.80695-10.2005-11.30261.29555-1.40998,1.11753-.81587.55196-3.56095-.16512-.73824-1.35482-1.24447-1.54366-1.28316-.44189-.09052-.47821-1.04541-.5993-2.11176-.17767-1.56549-.86816-2.50952-1.4538-2.8584-.67377-.40131-1.854-.55768-2.74005-1.07916-.29199-.17188-.60376-1.07288-1.84338-1.83142-1.29999-.78104-2.50565-.86773-3.77081-.66607-.18824.06707-1.29554.53607-2.71497.23266-.31152-.06659-1.63019-.01099-2.33453.34131-1.19525.59772-1.88953,1.67212-2.94238,2.22369-.50922.26672-2.21429,1.08838-2.82379,1.47144-.90521.56885-1.30652,2.11804-2.13531,2.9007-.73267.69196-2.39221,1.05322-3.39691,1.81921-1.29291.98572-2.69745,2.19116-2.5954,3.30383.06177.67334-.70404,2.39038.20367,3.35321.50092.53131,1.64093.4707,2.32141.81329.35803.1803,1.71899,1.33887,2.20239,1.54657,1.12555.48376,2.26434-.12634,2.85114-.12976.81879-.00476,2.45569.85071,2.9143,1.08057,1.00367.50311,3.00483-.59967,3.66285-.4035,1.3429.40027,1.56866,1.06323,2.48254,1.55652.97449.526,2.12482.58533,3.48596.49249,1.58533-.10815,2.73419-1.06573,4.60455-1.63519,1.54694-.47101,2.18787,1.09436,3.83356.06873,2.15857-1.34521,2.31799-2.26147,1.87408-3.85461,4.54205,2.74982,7.54895,6.15009,10.14819,13.73645-.05713,3.75287-.15723,7.52069-.20087,11.29987-3.35273-3.2093-6.30521-7.06115-11.37396-7.0434-3.51534-3.85578-18.02267.02171-17.4121,5.44792.26537,2.23262,3.28643.1526,4.12835,1.00282.80353.81146.23859,1.85876,2.20288,2.59619,2.79242,1.0484,6.02277-1.68463,7.06799-3.81299,1.13257-2.30615,2.1579-3.17633,3.81213-4.48627,5.08662-.1824,8.04604,4.07878,11.56396,7.31909-.03528,4.19495.0144,8.40289.29999,12.61847.11755,1.35461,2.08264,1.12134,1.99481-.14355-.30878-4.51935-.32056-9.05969-.25806-13.61743,3.66095-5.89508,6.32593-7.20013,10.66217-7.78125.86023.69977,2.89941,1.07092,6.91211,2.69794,3.38513,1.37262,6.47479,5.07587,8.9588,4.40991,3.26562-.87543.53448-4.96375-.05139-5.61578-.64032-.71259,1.03619-1.42822,1.1994-1.91992,2.11563-7.0317-13.69534-6.93523-16.99872-.3313-4.29285.56244-7.12817,1.80951-10.66089,7.1261.05878-3.53076.14764-7.07147.16956-10.62238-.05127-3.16931-.12506-6.33276-.20587-9.49384,1.97134-2.31132,5.57883-6.92556,10.48297-7.4201.01929.45337-.16925,1.12506.29755,1.54761.16968.15363,1.10406.45752,2.16791.88361.89642.35901,1.39752.93518,2.04279,1.12964.6936.20905,1.74469-.17438,2.73596-.02405.73315.11115,2.4231,1.26141,3.34033,1.12787s2.17914-.57495,2.5249-.58282c.28339-.00647,1.43365-.05902,2.27295.16736.45129.1217,1.66528.74292,2.22437.85632.74432.15094,1.52911-.784,1.89941-.88361.57147-.15369,1.37457-.23444,1.77521-.29761.97375-.15356,1.22754-1.30078,1.34454-1.58771.23138-.56738.62311-1.37659.80902-1.76831.46832-.4889,1.65264-1.26727,2.1799-2.28443.37503-.6524,1.94242-.44836,1.72507-2.54717Z" fill="#95c172"/>
      <g id="leaf_1_right_hi" data-name="leaf 1 right hi">
        <path d="m184.15098,312.78c2.78948-1.24745,7.29313-.75444,10.25952-.33712,2.59713.36538,5.17021,1.36639,5.81054,2.07901.58588.65201,3.31702,4.7403.05141,5.61578-2.48404.66594-5.57368-3.03733-8.9588-4.40991-4.46416-1.8101-6.49077-2.06434-7.16267-2.94776Z" fill="#a6d67c"/>
      </g>
      <g id="leaf_1_left_hi" data-name="leaf 1 left hi">
        <path d="m160.62712,314.24778c-3.63462-1.61781-8.36609.54205-9.83673,1.60965-1.24676.90508-4.57666,3.62988-3.73475,4.4801.80352.81147.23861,1.85875,2.20286,2.59621,2.79248,1.04841,6.0228-1.68465,7.06804-3.81299,1.24158-2.52812,2.34513-3.3238,4.30058-4.87297Z" fill="#a6d67c"/>
      </g>
      <g id="leaf_2_left_hi" data-name="leaf 2 left hi">
        <path d="m132.53302,293.23563c-1.26617.82294-1.87924,2.34103-.96726,3.29981.50326.52908,1.64301.46338,2.32498.803.35884.1787,1.72495,1.3312,2.20921,1.53678,1.12774.47874,2.26377-.13641,2.85053-.14244.81881-.00841,2.45949.83977,2.91909,1.06761,1.00591.49864,3.00212-.61298,3.66103-.41975,1.34464.39431,1.57338,1.05628,2.48945,1.54552.97677.52166,2.12738.57583,3.48807.47697,1.58484-.11515,2.72945-1.07784,4.59728-1.65561,1.54482-.47784,2.19269,1.08464,3.83382.05174,2.37858-1.49704,2.32115-2.45653,1.69857-4.38521-.24406-.75605-.21633-.65481-.08403-1.10667-10.70281-3.51782-17.53692-7.81567-29.02074-1.07176Z" fill="#a6d67c"/>
      </g>
      <g id="leaf_2_right_hi" data-name="leaf 2 right hi">
        <path d="m209.82244,290.14428c-.52705,1.01424-1.70042,1.79515-2.17997,2.28443-.18591.39176-.57769,1.20095-.80904,1.76832-.11699.2869-.37079,1.43417-1.34454,1.58774-.40062.06318-1.20376.14389-1.77522.29759-.3703.09959-1.15506,1.03453-1.89943.88358-.55904-.11337-1.77307-.73461-2.22432-.85631-.83931-.22637-1.9896-.17382-2.273-.16735-.34572.0079-1.60763.44926-2.52486.58283s-2.60721-1.01671-3.34032-1.12787c-.99129-.15031-2.04237.2331-2.73601.02407-.64525-.19445-1.14634-.77062-2.04274-1.12963-1.06387-.42608-1.99824-.73001-2.16795-.88362-.62572-.56638-.07312-1.58149-.42336-1.9167,2.54931-.84737,4.44213-2.76743,10.48007-4.13689,3.0791-.69837,7.75503.09075,10.6357-.35333,3.81918-.58875,6.313.23945,6.34993.59603.21738,2.09878-1.35002,1.89477-1.72494,2.54713Z" fill="#a6d67c"/>
      </g>
      <g id="leaf_3_left_hi" data-name="leaf 3 left hi">
        <path d="m136.3125,266.79382c-.47095,1.31815-1.55677,3.12756.75742,3.75306.64939.10488,1.21804.58374,1.61327.68183,1.23726.30705,2.29358-.6627,2.67126-.55672.31155.08742.31137.57049.74598.52001.15016-.01744,1.02848.24236,1.28319.52771.49441.55387.8923,2.36404,1.40422,2.3562.28631-.00438,2.18857-.08568,2.95374.03327,1.35758.21105,1.47886,1.29164,2.60504,1.3087,1.04683.01586.83513-1.011,2.2815-1.17883.7728-.08967.43684.6297.82274.69203,1.74937.28256,2.47992-.91922,3.205-.96841,1.06876-.07252.76042.41388,1.42704.2228.43652-.12512,1.3974-.56155,2.3575-.65335.94248-.09012,1.81183.0465,2.01492-.51058-2.15458-.97209-5.67223-2.38315-10.72867-6.36622-4.2501-3.73057-11.0347-4.12923-15.41414.13851Z" fill="#a6d67c"/>
      </g>
      <g id="leaf_3_right_hi" data-name="leaf 3 right hi">
        <path d="m205.68195,258.1909c-.75017.4438-.78764-.53323-2.5042-.38618-.60398.05174-1.78453.70484-2.95911,1.55751-.26931.1955-2.10724.4423-2.57785.71348-.55462.31959-.95123,1.44775-2.05199,1.78118-1.27543.38634-1.538-.04354-3.00343-.12575-.8608-.04829-3.03033.9666-3.29839.99031-1.58276.13999-3.06796-.67527-4.23425-.27639-.6039.20654-1.36122.65481-2.05609.56486-.28276-.0366-.92552-.5208-1.85503-.53132-.23377-.00265-.45171-.1175-.61287-.31026,3.52849-4.37177,7.09619-2.83167,11.01224-5.04198,5.53663-3.12499,8.5785-2.02661,10.38913-1.63136.74305.16221,2.64256.7823,3.03943,1.22122.65968.72959.97795,1.31758.71241,1.47467Z" fill="#a6d67c"/>
      </g>
      <g id="root_main_fade" data-name="root main fade">
        <path d="m173.00023,335.99994c-.55127,0-.99902-.44629-1-.99805-.00146-.71289-.15039-3.16895-.15186-3.19385-.03369-.55127.38623-1.0249.9375-1.05859.54346-.03223,1.0249.38623,1.05859.9375.00635.10303.1543,2.54004.15576,3.31104.00098.55273-.47314,1.03809-1,1.00195Z" fill="url(#linear-gradient)"/>
      </g>
      <g id="flower_1" data-name="flower 1">
        <g id="flower_1_back" data-name="flower 1 back">
          <path d="m158.92215,236.6508c-1.01622-.09911-2.67818,1.36362-3.66209,2.22672-.89851.32685-1.22494,3.62177-1.30484,5.42221-1.1577-.36568-2.25074.12517-3.36119.17791-2.80773-.11502-4.25771,2.77059-3.94911,5.03121.08215,1.39653,1.45955,2.56439,3.58895,2.46203,1.90979-.0734,2.32589-.11748,3.92216-.93902-.35362.72642-.5057,1.0529-.92557,1.54736-.49042.60509-1.79311,2.21239-.38533,3.48918.66901.65874,1.69701.79432,2.52972.56956.67235.01804,1.6022-.18406,2.26274-.82047.41235-.38439.70336-1.19458,1.08186-1.60606.98325-.38025,2.3185-1.3961,2.89932-2.47839.53624-.99925.74603-2.67102.07362-3.56796.72964-.2756,1.60347-.61652,2.36873-1.08467,1.80664-1.10527,1.96931-3.88264,2.02277-4.79533.06766-1.21605-.49339-1.85321-.77536-2.18318-.00768-.01915-.01503-.03729-.02089-.05736.28045-2.95781-3.40597-4.01645-4.62126-1.31694.12588-1.01698-.67811-2.08446-1.74423-2.0768h0Z" fill="#726400"/>
        </g>
        <g id="flower_1-2" data-name="flower 1">
          <g id="bud_1" data-name="bud 1">
            <path d="m158.5958,244.85696c-1.90591.00002-2.43539,1.17117-2.57455,1.67468-.59627,2.03992,2.43729,4.39443,4.28339,4.69113,2.30678.49866,3.82617-.63659,4.04254-1.905.73694-3.06955-2.99959-4.41809-5.75138-4.46082h0Z" fill="#2e541a"/>
            <path d="m157.22607,246.86466c.32504-1.17604,2.24609-.72256,3.73939-.36171s2.44738,1.33629,2.16541,2.52682c-.28464,1.20181-1.71706,1.11781-2.61123.96169-1.35128-.23593-3.60091-2.0148-3.29357-3.12679Z" fill="#95c172"/>
          </g>
          <g>
            <path d="m160.44975,247.89679l.40942-.48151-.75543-.30988-.12891-.2948c-.27185-.66742-.49078-1.4834-.47772-1.77173.92996-1.33243.61957-4.14226.26068-5.3797.73668-.90579.46738-2.42332-.83568-2.5084-1.3644.12586-2.34787,1.35908-3.37476,2.13584-.59199.41571-.75923,1.47144-.97651,3.61585-.07752.82609-.21904,1.27754.01672,2.07275-.59595-.1748-1.24091-.31213-1.82428-.31213-.75995.00557-1.45307.36454-2.15089.31402-1.60675-.17531-3.28261,1.46569-3.34972,2.84861-.97627,3.81052,2.49553,4.01877,5.29498,3.38104.50702-.13298,2.27495-1.12765,2.83465-1.28036.34125.00629,1.52545.09528,2.42737.16846l.22955.29449.36169-.24561.11975.00995.18359-.216c.37323-.25348,1.67713-1.13904,2.02606-1.37604-.02799-.06404-.27018-.61814-.29059-.66486Z" fill="#726400"/>
            <path d="m159.57481,247.76788l.0434-.05103s-.0329-.01343-.08008-.03278l-.25049-.57306s-.81122-1.98499-.44305-2.45203c.36816-.4671.39978-1.05969.51062-1.88885.11078-.82916-.21387-2.61908-.32123-2.91174-.1073-.2926.04504-.55603.25714-.88281.2121-.32684.19739-.81946-.216-1.04132s-1.64233.72699-1.83496.88068-.76685.73785-1.26184,1.08545c-.49493.3476-.62378,3.0509-.76746,4.0166-.09589.64417.35956,1.68378.67603,2.31152-.82367-.32159-2.71887-1.06952-3.74731-.72827-1.1839.39282-1.97046.05884-2.73486.46381-1.40167.82113-1.51113,2.05677-1.54199,3.26318-.00595,2.01969,3.49405,1.49663,4.48747,1.25884.52546-.15129,2.54939-1.30877,3.00538-1.31005.45605-.00134,2.85333.19824,2.85333.19824l1.59467-1.08301-.22876-.52338Z" fill="#f2e05c"/>
          </g>
          <g id="flower_pod_1" data-name="flower pod 1">
            <path d="m149.68015,241.69997c1.56452.28853,2.91973.81093,4.40125,1.2359,1.47549.23884,2.78807,1.012,4.04694,1.74917,1.29445.88662,3.97359,1.95719,2.68587,3.87457-1.33563,1.62113-3.14388-.3186-4.44654-.97378,0-.00004-2.29593-1.39015-2.29593-1.39015-1.30552-1.10443-2.98117-1.96673-4.69829-2.01452-1.80235-.12256-1.47699-2.79976.3067-2.48119h0Z" fill="#2e541a"/>
          </g>
          <g id="flower_pod_1-2" data-name="flower pod 1">
            <path d="m149.55748,242.69241c3.01625.78546,5.85224,1.39525,8.05198,2.84744.81081.49018,1.60156,1.00718,2.3472,1.57486.2756.20934.32932.60246.11996.87805-.19054.25085-.53403.31741-.80188.16956-1.40514-.79629-3.34263-2.02722-4.74844-2.85732-.75029-.53157-1.46684-1.1765-2.35776-1.47958-.8534-.34863-1.7585-.59909-2.6724-.63678-.34915-.01161-.28574-.57042.06133-.49623h0Z" fill="#95c172"/>
          </g>
          <g>
            <path d="m162.84708,237.68234c-1.04773-.05436-1.60415.91714-1.94225,1.69742-.55721.86-.85644,2.66448-1.39904,3.44576-.79449.61337-1.73535,2.68977-1.67169,3.43684.04217.44391.23015.73132.3895,1.05722-.09399.65669.47599,1.13964,1.15418,1.12619.77123-.01784,1.13801-.43193,1.98749-.69163.73804-.27805,1.65656-.62404,2.43494-1.10023,1.58366-.96878,1.73485-3.5499,1.78455-4.39806.04464-1.08169-.40419-1.52352-.71233-1.89462-.08593-.23403-.10341-.21886-.10624-.83549.01961-1.06716-.86308-1.8582-1.91909-1.8434h0Z" fill="#726400"/>
            <path d="m158.58138,246.19867c-.03892-.45662.77033-2.30672,1.3848-2.78115s.96165-2.46932,1.35903-3.19612.66426-1.69621,1.33976-1.77802,1.3523.29241,1.35121,1.08133.06233.84865.16968,1.14127.70731.57053.65017,1.54601-.24091,3.07644-1.42721,3.80214-2.81282,1.15641-3.39439,1.49426-1.14127.16968-1.0389-.11688-.35522-.73623-.39414-1.19285Z" fill="#f2e05c"/>
          </g>
          <g>
            <path d="m160.00873,247.18782h-.05798l-.1003.01236c-1.21523.17468-1.39996.78329-2.0224,1.14549-.86325.21729-2.01856.16091-2.44648,1.15491-.40161.93128-1.07445,2.62371-1.76255,3.39337-.52264.64478-1.49542,1.84501-.438,2.8041.58873.58533,1.45272.62253,2.1778.43803.61069.02932,1.41143-.17704,1.92774-.67455.39891-.36777.76087-1.4301,1.20441-1.69833.8808-.32309,2.15867-1.28156,2.68728-2.2666.48775-.90889.69339-2.60812-.05846-3.21162-.16279-.387-.28767-1.06039-1.11105-1.09717h0Z" fill="#726400"/>
            <path d="m159.96572,247.94127c-1.2089.18793-1.19236.93543-1.95075,1.13066s-1.72046.17465-1.93863.7112-1.0019,2.35959-1.48586,3.07664-1.58974,1.66223-.90559,2.28276,1.32546.21926,1.70834.2448,1.03154-.12942,1.3668-.45992.77767-1.61332,1.47265-1.86828,1.84102-1.0904,2.28472-1.91719.44349-2.07173.11667-2.28384-.27573-.97786-.66835-.91683Z" fill="#f2e05c"/>
          </g>
        </g>
      </g>
      <g id="flower_2" data-name="flower 2">
        <g id="flower_2_back" data-name="flower 2 back">
          <path d="m179.82445,233.94589c-1.85665.08948-3.50404,1.39902-3.91511,3.07366-.10842.58289.07586,1.27911.73011,2.75752.11291.8927.12469,1.8937.65237,2.89412-1.87816.50733-3.95496,2.11726-4.03968,4.2535-.0442.91131,1.10308,2.81833,3.36336,3.09521.8867.39011,1.86925.83268,2.87788.86018.89924.18598,2.02152.07843,2.69065-.58691.21381-.18689.4053-.38507.57463-.59447.00537,1.28949.1342,1.87309.51987,2.29802.59373.65421,2.00966,1.2587,2.97063,1.26823,3.1587,1.34952,6.03597-1.93738,4.14455-4.96738,2.32587-1.24619,2.05908-3.22087,2.10224-5.63198.08584-1.77241-3.04097-3.16874-3.07277-3.17835-2.16974-.70663-3.62224-.89244-4.99649,1.8343-.01199-.12445-.0116-.81247.08463-2.46826.05901-1.06005-.521-1.86644-.93397-2.80135-.8566-1.71862-2.56651-1.95664-3.75289-2.10605h0Z" fill="#726400"/>
        </g>
        <g id="flower_2-2" data-name="flower 2">
          <g>
            <path d="m189.27849,239.96588c-2.71552-.91545-3.4048-.53164-5.0174,2.72168-.50735-2.16826-.35488-.41445-.24906-3.86334.05643-.90093-.51637-1.71022-.89053-2.56684-.60041-1.33227-2.10169-1.61542-2.99866-1.78461-.65319-.12866-1.44481.23014-1.94086.45764-.75112.22668-1.61852,1.44595-1.78114,2.18055-.10137.42862.14775,1.24712.72682,2.53368.12287.9368.12548,2.14831.77973,3.07068.33886.4726,1.70245,1.06683,2.32946,1.32178.31951.25334,1.38141,1.77039,1.89197,2.57318l.43982-.15869c.27592.1344,2.07064.96518,2.7624,1.19048.86523.21797,3.49313.39251,4.5119.30077,1.13177-.2017,1.83953-1.55394,2.005-2.17717.15562-.43218.1199-2.24903.14861-3.12433.06391-1.31878-2.52636-2.61755-2.71807-2.67547Z" fill="#726400"/>
            <path d="m189.06157,240.68384c-.3045-.09198-1.3869-.47272-2.16412-.37518-1.11071.3015-1.98265,3.39677-2.92352,4.13721-.26825-.94348-.7439-2.63971-.7843-2.94556-.05652-.42761.04437-2.21295.07379-2.71954.03705-.63885-.38977-1.24786-.82574-2.21527-.43591-.96747-1.63672-1.2016-2.45386-1.35571-.52429-.09888-1.36102.35706-1.72864.50879-.33502.13831-1.03864,1.10846-1.11694,1.52954s.50165,1.69928.67566,2.09399c.17401.39465.06146,2.0415.703,2.93616.20728.28906,1.61688.90875,2.05255,1.08435.43573.1756,1.86084,2.34155,1.86084,2.34155l.43213-.15601.11816.26807s1.98297.92645,2.57281,1.10956c.58984.18304,3.74023.35303,4.15808.27863.68182-.12152,1.26984-1.09729,1.41156-1.63116s.09174-2.29376.12445-2.96814c.03168-.65509-1.88135-1.82928-2.18591-1.92126Z" fill="#f2e05c"/>
          </g>
          <g id="flower_pod_2" data-name="flower pod 2">
            <path d="m188.76239,241.52498c-2.36421,1.09603-3.67847,3.42714-5.48559,5.19443-.26708.28057-.51531.53813-.91969.87973-1.59571,1.30352-3.60943-.92367-2.19927-2.39283,1.38826-1.8462,3.36138-3.2866,5.33505-4.47403,1.12079-.55396,2.56218-2.48818,3.74009-1.08198.46626.62198.23221,1.54627-.4706,1.87469h0Z" fill="#2e541a"/>
          </g>
          <g id="flower_pod_2-2" data-name="flower pod 2">
            <path d="m188.24875,240.66698c-2.82988,1.35466-4.22623,4.20758-6.56836,6.19588-.57498.4916-1.37353-.31773-.87662-.88478.95254-1.10366,2.05121-2.36659,3.31879-3.19517,1.33621-.81083,2.60465-1.64011,3.86937-2.54493.28506-.21154.5826.27481.25682.429h0Z" fill="#95c172"/>
          </g>
          <g>
            <path d="m185.51935,244.47922c-.44528,0-.8084.20097-1.03217.35699-.63981-.1591-1.40388.10148-1.55206.50273-.33856.47798.25232,1.3793.37344,1.93598.00688.13162-.00549.49199-.01859.8735-.07736,2.25348-.03635,3.07693.35878,3.51228.49841.54916,1.78891,1.09615,2.60532,1.10429,1.81269.63816,3.6364.28245,4.19466-1.96076.33839-1.3489-.78749-2.88461-1.50079-3.45115-.36542-.50141-.92944-1.39713-1.27302-1.66523-.57222-.44732-1.33823-1.18789-2.15557-1.20864h0Z" fill="#726400"/>
            <path d="m183.58891,245.7063c.1982-.35265.99635.00233,1.19153-.15245s.60896-.4632,1.04462-.25441.95586.60936,1.36131.95746,1.087,1.52573,1.26442,1.65968c.63305.47796,1.50307,1.77806,1.27048,2.70525s-.75188,1.55122-1.62585,1.67312-1.22416-.27386-1.83386-.27992-1.70108-.46575-2.05744-.85839-.11376-3.3079-.14731-3.93064c-.02176-.40394-.54491-1.38267-.46789-1.51971Z" fill="#f2e05c"/>
          </g>
          <g>
            <path d="m177.82457,243.129c-.70361-.02341-1.08028.2638-1.62023.55795-1.15621.42057-2.46547,1.9873-2.45276,3.26195-.0315.64825.96814,2.35498,2.9636,2.57928.85698.34896,1.89318.85033,2.85156.85729.76184.15373,1.71608.10578,2.28124-.46249.757-.66193,1.19743-1.47127,1.33694-2.43011.22024-.49246,1.03913-1.42975.94149-1.90701-.03623-.52663-.38438-.98678-.96119-1.27782-.45957-.86401-1.78973-.81144-2.63317-.75569-.92653-.02179-1.73989-.43952-2.70748-.42335h0Z" fill="#726400"/>
            <path d="m182.10302,244.36009c-.67477-.18462-1.44284.02953-2.18185-.10567s-2.15041-.62745-2.81666-.21238-1.57808.72365-2.06279,1.49544-.5315,1.24923-.54111,1.44758.63609,1.61095,2.29834,1.7978c.45485.05113,1.57266.75988,2.31647.7959s1.57089.38572,2.2285-.21114c.15892-.14424.91661-.73049,1.09881-1.98274.06473-.44488.95331-1.48839.93548-1.74755-.02613-.37971-.44127-.61392-.63466-.69926-.15273-.06739-.32083-.49052-.64053-.57799Z" fill="#f2e05c"/>
          </g>
        </g>
      </g>
      <g id="flower_3" data-name="flower 3">
        <g id="flower_3_back" data-name="flower 3 back">
          <path d="m161.34959,247.57455c-1.74287.11917-2.92922,1.71671-2.51526,3.6104-.62929-1.09573-1.94066-1.5378-3.15823-1.31639-2.55336-.47666-3.97166,1.17064-4.27333,2.94061-.32592.66925-.85423,1.6779-.83541,2.2204-.02946.80053.55735,1.99766,1.36701,2.65412-.91977.79429-1.73177,2.46852-1.92165,3.02681-2.22278,2.94798,2.69955,3.8482,4.33636,3.89638,1.57466-.05364,3.81508-.597,4.86869-2.35097-.14756,1.63171,1.45289,2.50378,2.56174,3.0493.6471.31113,1.34381.73005,2.21837.74062.39266,0,.75198-.09641,1.06801-.28657.81587-.49097,2.44826-2.60223,1.8743-3.96051-.12238-.28964-.19753-.71964-.19699-.85303.08104-.80349-.29109-3.34321-2.25117-3.58183,2.68125-1.31771,1.39449-6.02978,1.13123-6.70415-.35692-1.1389-2.09505-3.00169-4.27366-3.0852h0Z" fill="#726400"/>
        </g>
        <g id="flower_3-2" data-name="flower 3">
          <g>
            <path d="m165.14891,250.81763c-.38009-1.54839-4.35473-4.47675-5.71696-1.30753-.16024.48368-.43538,1.31431.24919,2.31645.19391.2815.32726.43049.4903.62701-.53863.74742-.82283,1.68978-.97595,2.69-.16272-.39429-.24017-.83832-.2265-1.15875.12819-1.61846-.70426-4.11353-3.26447-3.617-2.10379-.37297-3.44761.61657-3.81543,2.55762-.2514.60102-.85668,1.66716-.82204,2.12263-.02885.78349.77602,2.17558,1.63863,2.52568.51257.20807,3.13843,1.16656,4.05139,1.36737.37051.05622,1.26107,1.34469,1.57867,1.99176.35412-.13478,1.1556-.4416,1.51605-.57977.19299.18929.96811.94937,1.17542,1.15265.13553-.44473.4144-1.38151.5556-1.81555l.65356-.25031-.39258-.5379c.17865-.52094.34564-.96967.45123-1.19.93538-.30005,2.28113-.61422,2.98524-1.82372.96209-1.72847-.12031-5.03743-.13136-5.07063Z" fill="#726400"/>
            <path d="m164.43724,251.0542c-.09925-.80812-3.23218-3.65284-4.2929-1.30976-.1277.38807-.33528.9397.15606,1.65907.49139.71936.86371.80927.55463,1.36469-.30914.55542-.37189.46686-.5636,1.06421-.44684,1.01593-.2314,2.06487-.7265,3.21552-.8042-1.04397-1.40171-1.90604-1.34522-3.09506.02589-.60904-.06384-1.79221-.69274-2.42362-.62885-.63147-1.34949-.43713-1.77985-.41266-1.63208-.22121-2.73755.05528-3.12856,1.98325-.08793.36764-.7844,1.49612-.80204,1.9758-.0177.47968.60126,1.57184,1.1712,1.80316.57001.23138,3.09747,1.14661,3.93042,1.32983.83295.18317,1.75,1.79468,1.75,1.79468l1.36505-.52277.63489.62256s.13397-.44202.31226-.98535l.07227-.02765s-.01807-.02472-.04352-.05963c.26617-.8056.61725-1.7901.78259-1.91589.28497-.21686,2.19507-.4444,2.83325-1.59106.63824-1.14667.12823-3.51904-.18768-4.4693Z" fill="#f2e05c"/>
          </g>
          <g id="flower_pod_3" data-name="flower pod 3">
            <path d="m153.76865,253.26265c1.43554,1.09158,3.17996,1.61396,4.85828,2.209,1.54058.8795,7.03291,2.7575,5.08153,5.21661-.54373.60465-1.43881.70526-2.09749.27072-1.29816-.86639-3.04205-1.76245-4.47905-2.61912-1.48272-1.07205-2.9486-2.16042-4.65062-2.9334-1.59361-.8291-.19934-3.16304,1.28735-2.14382h0Z" fill="#2e541a"/>
          </g>
          <g id="flower_pod_3-2" data-name="flower pod 3">
            <path d="m153.25591,254.12119c2.21533,1.64711,5.01349,1.99164,7.34381,3.45185.58229.43334,3.1701,1.48215,2.37693,2.4688-.22382.24513-.59471.26621-.84893.06894-1.39357-.94094-3.05246-1.77077-4.53358-2.65768-1.46779-1.0584-2.92115-2.14769-4.59466-2.90254-.31776-.15122-.03282-.6408.25642-.42937h0Z" fill="#95c172"/>
          </g>
          <g>
            <path d="m166.47966,261.99335c-.1698-.40179-.24713-.94299-.23584-1.07373.05518-.38873-.09583-2.39844-1.26483-2.87286-.6241-.25464-1.29776-.36141-1.95563-.30945-.50151-.03681-.94644-.59768-1.48487-.57145-.67016-.00015-.91564.60459-1.03362.89524-.20511.14217-.4516.22289-.66241.57928-.38113-.10096-.61172-.31519-.99088-.49889-.6255-.30058-1.33615.10528-1.89864.22118-.59874-.28094-2.00053-1.1593-2.2908-1.06732-1.16346-.11522-2.19409.3357-2.95321,1.37544-.84687,1.15876-.98136,1.64585-1.25409,2.27312-.25431.37714-.74928.86544-.31132,1.74122.49619.90191,3.38016,1.42181,4.20548,1.42181,1.18763-.10895,2.60875-.25412,3.78152-1.31556.567-.61725,1.05136-1.46547,1.83506-1.80407-.30408.98279-.4176,2.06433.23694,2.67358.72563.68194,1.29759.95879,2.05744,1.32384.49652.25001,1.11444.56111,1.73791.56111.3006,0,.57318-.07233.8103-.21503.67303-.40497,2.10022-2.32281,1.67151-3.33746Z" fill="#726400"/>
            <path d="m161.98806,258.11424c-.50463-.3099-.58421-.27372-.78825.22898s-.78174.43396-.72075.82466.63229.90061.42824,1.40331-.75156,2.02153-.19379,2.54069,1.0122.7877,1.59641,1.06143,1.53045.86457,2.11152.5149,1.57267-1.91701,1.36735-2.4029-.3275-1.18769-.28831-1.46455-.14378-1.8113-.80358-2.07911c-1.16598-.50979-1.78527.0352-2.70885-.62742Z" fill="#f2e05c"/>
          </g>
          <path d="m158.56946,258.83647c-.57741-.23437-1.20066.41752-1.8426.24758-.30819-.08159-1.73657-1.02412-2.09658-1.03945s-1.39444-.17362-2.31897,1.07297-1.03592,1.90768-1.20846,2.20387-.54299.56437-.30215,1.00219,2.88385,1.1444,3.79819,1.01851,2.17559-.2857,3.01115-1.0909c.3429-.33044.81695-1.12218,1.26877-1.46196s1.09977-.56312,1.12923-.94225c.0214-.27553-.37192-.52326-.68212-.59685s-.50941-.31343-.75646-.41371Z" fill="#f2e05c"/>
        </g>
      </g>
      <g id="flower_5" data-name="flower 5">
        <g id="flower_5_back" data-name="flower 5 back">
          <path d="m185.72136,220.91487c-1.06696.50405-3.33644,1.57617-4.41621,2.08627-.87066,2.48613-1.09574,5.17955-.14144,6.09888.72255.84622,1.8528,1.85492,3.13335,1.85492,2.12585.0076,2.8711-2.79772,3.50441-4.85075-.44955-1.12156-1.64192-4.09614-2.08011-5.18932h0Z" fill="#2e541a"/>
          <path d="m183.61049,212.88957c-2.7511.27006-4.17114,1.88277-4.6698,4.61551-2.45889.23373-6.25444,1.2527-3.98068,4.74657.77524,3.39586,4.04157,5.7584,7.66306,4.02658-.0182.11639-.03357.23785-.04616.36472-1.57019,2.89744-.26931,5.69539,1.33908,7.24816.83005,1.06127,2.56913,1.22214,3.02949,1.1998,1.85449.09007,2.89276-1.47176,3.93792-2.89631,1.41439-2.15455-.73876-3.44-1.19875-4.89405.98095.51958,2.40529.92627,3.43127.59895.57297-.08363,2.25015-.06188,2.68906-.22043,1.30797-.43639,1.28075-1.46434,1.5661-2.2805.44516-1.24089-.51215-2.18154-.93002-2.60123-.02807-.27398-.06529-.62681-.20341-1.17706-.33701-1.32565-1.60305-2.08344-2.32772-2.41716-.83165-.41615-1.89499-.06748-2.67662.15928-1.43597.20387-3.49014.11987-4.70591.75573-.04076-.15498-.07791-.28809-.112-.39679-.336-1.07121-.26552-1.4317-.26477-1.43523.37475-.73301.98201-1.53565.59383-2.66342-.49592-1.38326-1.52553-2.64364-3.13397-2.73312h0Z" fill="#726400"/>
        </g>
        <g id="flower_5-2" data-name="flower 5">
          <g>
            <path d="m196.1024,223.16577c-.05084-.05084-.09863-.09619-.13629-.13696-.05277-.40835-.05829-.6669-.21307-1.28534-.28589-1.12451-1.40851-1.78974-2.05225-2.08618-.74595-.35946-1.66492.01545-2.37365.19625-1.5313.28804-4.01838-.05783-5.08918,1.1677-.12317-.5022-.22198-.90259-.29968-1.15033-.41821-1.33356-.27002-1.71942-.26349-1.73517.32217-.70547.92399-1.40071.60065-2.33985-.97471-2.65212-3.0206-2.96516-5.05052-1.55077-.84127.56029-1.97292,2.54863-1.77895,3.9406.16443,1.18073.31335,2.25,1.12817,3.47644.79071,1.17896,2.93825,3.41379,3.06873,3.54968.00682.00569.24719.20726.26337.22083.09042.3557.27394,1.07758.36377,1.43097.27138-.04316.86221-.1371,1.12872-.17944l.22437.18811.40985-.35004c.88104-.435,1.85199-.8125,2.1087-.81653.13088-.04074,1.01498.55098,1.6395,1.05885.74985.49734,2.25758.94081,3.16152.66588.5363-.12547,2.29518-.08081,2.72864-.23323,1.01142-.32173.9603-1.23216,1.22981-1.96933.33678-.9272-.40186-1.66554-.79871-2.06215Z" fill="#726400"/>
            <path d="m195.27525,223.34546c-.10406-.28168-.04712-.62286-.24908-1.41718-.20197-.79437-1.08801-1.336-1.6391-1.58972-.55109-.25378-1.40668.15375-1.91931.25165s-2.99353.1911-4.06958.49707c-.51526.14655-1.01678.89752-1.47455,1.73712-.28711-1.04852-.55511-2.26398-.70099-2.72906-.2027-.64642-.46954-1.69263-.24109-2.24585.22839-.55322.80133-1.22247.59033-1.7937-.36042-.9717-.86782-1.66542-1.83949-1.91163-.64439-.05065-1.48393.32026-2.09172.72511-.60785.40485-1.60486,2.11536-1.45184,3.21295.15295,1.09753.27893,2.06451,1.01001,3.16492.73102,1.1004,2.95679,3.41589,2.95679,3.41589l.54205.45453c-.02386.03491-.04834.07318-.07141.10358l.20197.79431.79041-.12567s1.95654-.98053,2.56891-.93231,1.60248.87152,2.04767,1.21014,1.96466.73773,2.44757.55939c.48291-.17841,2.29016-.11426,2.78796-.25244.49774-.13812.47601-.81604.7254-1.50275.24945-.68665-.81683-1.34467-.9209-1.62634Z" fill="#f2e05c"/>
          </g>
          <g id="flower_pod_5" data-name="flower pod 5">
            <path d="m190.92282,219.76678c-1.10192.86903-1.93538,2.0412-2.50835,3.31638-1.33442,1.88662-2.67519,3.78889-3.97588,5.6934-1.1669,1.67413-3.72203.1083-2.77614-1.68988,1.19617-2.16445,2.61823-4.18409,4.27809-6.005,1.19185-.9057,2.27769-1.91813,3.22438-3.09364,1.20057-1.37659,3.15185.58976,1.75789,1.77874h0Z" fill="#2e541a"/>
          </g>
          <g id="flower_pod_5-2" data-name="flower pod 5">
            <path d="m190.21782,219.05759c-1.13146.89994-1.98569,2.09092-2.58079,3.39661-1.36425,1.92389-2.72438,3.85329-4.05264,5.80243-.44034.6452-1.43255.03325-1.06777-.64995,1.16868-2.1198,2.57122-4.11246,4.20137-5.89601,1.16451-.87657,2.23265-1.86421,3.14729-3.00772.22567-.27838.63631.1268.35254.35464h0Z" fill="#95c172"/>
          </g>
          <g>
            <path d="m184.67572,223.02052c-.68564.03633-2.21473.11736-2.90065.1537-.57455,1.77776-1.22946,4.43679-.23127,5.60111,2.29178,2.79731,4.7951,1.87962,4.94398-1.32944-.18631-.45505-1.65302-4.03697-1.81206-4.42537h0Z" fill="#2e541a"/>
            <path d="m182.33856,223.89541c-.40598,1.32541-.91489,3.58441-.22444,4.39286,1.90781,2.26137,3.41157,1.62301,3.61243-.72219l-1.54306-3.76842-1.84493.09776Z" fill="#95c172"/>
          </g>
          <g>
            <path d="m179.07167,218.00278c-2.23439.10616-4.59047,1.20737-4.31964,2.35668.02737.6327.48094,1.24126.69795,1.77694.04451.61096,1.01559,2.68332,2.18805,3.45639,1.23205.73715,2.67936.97124,3.85359.58465.32116-.13415,1.16012-.4844,1.53156-.50296.3411.26124.96946,1.26339,1.26469,1.73079.48249-.49475,1.21709-1.24801,1.6985-1.74161-.36335-1.33446-.46679-3.03882-1.17934-4.36335-.72513-1.32785-3.45294-3.29754-5.73537-3.29754h0Z" fill="#726400"/>
            <path d="m185.15246,225.44452c-.14915-.56319-.39157-2.66395-1.00365-3.78474-.62656-1.14729-3.48398-3.22934-5.58691-2.86473s-3.09742.94207-3.06147,1.51764.66307,1.3364.69342,1.73738.88395,2.27497,1.857,2.91657,2.5396.77421,3.1518.51862,1.62037-.66994,2.05286-.53528,1.1536,1.25674,1.1536,1.25674l.74333-.76221Z" fill="#f2e05c"/>
          </g>
          <g>
            <path d="m184.85539,224.4568c-.17848,0-.35767.02872-.53262.08536-1.06923.3461-1.20401,1.70403-1.24831,2.15025-.20521.70268-.6429,1.33266-.70054,2.2606-.18279,2.30591,1.17946,3.799,1.91131,4.60114.96417,1.08055,2.97634,1.40403,4.18591.62352.90309-.74808,1.22624-1.19534,2.00696-2.27588.90181-1.24818-.06064-2.5116-.63568-3.26646-.87407-1.18349-.70314-1.87876-1.64565-3.42562-.37665-.77658-1.54617-.66727-2.17698-.36375-.27471-.16121-.63725-.38573-1.1644-.38916h0Z" fill="#726400"/>
            <path d="m184.55374,225.25571c.74346-.24065,1.19921.4913,1.52936.36935s1.19508-.51747,1.46054-.04689c.82137,1.45605.91016,2.16603,1.26708,2.87836s1.83236,1.93627,1.05946,3.00602c-.78683,1.08903-1.05952,1.45999-1.87742,2.13739-.48129.39861-2.35009.33548-3.04902-.43651-.6912-.76344-1.98724-2.06876-1.82218-4.15117.07773-.98065.64639-1.71318.69925-2.24576.06476-.65244.22374-1.34596.73293-1.51078Z" fill="#f2e05c"/>
          </g>
        </g>
      </g>
      <g id="flower_6" data-name="flower 6">
        <g id="flower_6_back" data-name="flower 6 back">
          <path d="m163.32306,217.40462c-.26443,1.13916-.99271,4.27647-1.26416,5.44592,1.72106,4.07884,4.17334,6.26376,7.01728,1.9482.80299-1.05168.16973-3.68495-1.07037-6.00591-1.14818-.3404-3.54795-1.05179-4.68275-1.38821h0Z" fill="#2e541a"/>
          <path d="m164.68161,209.11456c-1.80054-.00456-2.89495,1.63959-3.177,3.21585-.21312,1.20502.52762,1.86951,1.0117,2.57761-.00773-.0017.10043.3622-.06123,1.42285-.0171.11267-.03352.24994-.05017.40933-1.41292-.45088-3.34137-.03847-4.75534-.02901-.82161-.11313-1.98085-.27095-2.68041.25103-.66517.44016-1.8008,1.38215-1.93169,2.7438-.05316.5654-.0346.91844-.0215,1.19434-.34908.47804-1.15147,1.55451-.52231,2.71263.40503.76226.53755,1.78392,1.89554,2.01496.75324.08061,1.97628-.19405,2.7356-.18528,1.24367.15814,2.97669-.71651,3.68781-1.55299-.13244.61485-.15534,1.05267-.48982,1.5906-.45078.82938-1.3888,2.55517-.04651,3.91523.93973.95219,1.36864,1.38678,2.43004,2.02098,1.41895.6885,3.65047.14979,4.71472-1.40697,1.37501-1.83693,2.2024-4.70993.21077-7.39058-.02548-.09964-.05522-.20801-.09068-.32175,1.62567.49587,3.34745.07858,4.82001-1.13191,1.09892-.99553,1.80175-3.18137,1.80126-4.08107,1.70078-3.83293-2.1782-4.21223-4.65813-4.08369-.92504-2.54431-2.22247-3.70271-4.82265-3.88596h0Z" fill="#726400"/>
        </g>
        <g id="flower_6-2" data-name="flower 6">
          <g>
            <path d="m163.69003,218.03493c-.16268.7008-.93203,4.01516-1.10529,4.76157,1.49378,3.41964,3.4786,5.73477,6.06612,1.73931.78018-1.25497-.17412-3.67311-.99901-5.32641-.76889-.22791-3.2155-.95324-3.96182-1.17447h0Z" fill="#2e541a"/>
            <path d="m167.12093,219.83428c.60342,1.24796,1.45097,3.40289.89193,4.30721s-1.46866,1.95163-2.38433,1.71177-2.25503-3.13782-2.25503-3.13782l.86701-3.73504,2.88041.85389Z" fill="#95c172"/>
          </g>
          <g>
            <path d="m169.10936,213.79926c-.0213-1.45435-1.44299-3.24683-2.35992-3.67224-.33203-.15411-1.19824-.51245-2.06775-.51245-1.53765.00206-2.43729,1.44137-2.6871,2.8155-.1763.97755.52471,1.57277.95058,2.22081.00885.01465.21411.37336.00421,1.75513-.03894.25671-.07556.66742-.12067,1.18256-.62353-.52004-1.12182-.54791-1.91968-.54551-1.00089-.0068-2.34812.13465-3.25946.16819-.74271-.07276-1.76874-.29317-2.40435.16782-.59101.39114-1.599,1.21981-1.71003,2.37478-.05916.63527-.02373.89034-.01453,1.3028-.3854.54713-1.08648,1.34674-.58864,2.31598.37821.68706.46767,1.59537,1.51588,1.75875.748.06973,1.98732-.21997,2.73603-.18508.91248.15341,2.45738-.59784,3.01918-1.14102.54615-.6031,1.31583-1.31182,1.47155-1.29916.48694.00055,1.56335.28876,2.19531.48749l.45905.28381.19305-.22021c.26823.00121.86983.00395,1.14282.00519.03481-.36225.10625-1.10529.1413-1.46973.01472-.0168.21997-.2509.2265-.25842.10747-.15292,1.89026-2.69115,2.49143-3.97625.61813-1.33631.60214-2.41584.58523-3.55873Z" fill="#726400"/>
            <path d="m168.35875,213.76117c-.01624-1.10803-1.26251-2.64648-1.92499-2.95386s-1.54871-.5459-2.1778-.39752c-.47144.11127-.90338.67932-1.10339.98389-.20007.3045-.30164.58923-.42303,1.18597s.54694,1.17072.85706,1.68262.20605,1.58661.10431,2.25635c-.07318.48193-.15265,1.724-.27643,2.80402-.58051-.75989-1.1908-1.42554-1.72235-1.49176-1.11011-.13831-3.57617.14801-4.09778.12952-.52155-.01855-1.42932-.29083-1.93518.04407-.50592.33484-1.29901,1.00531-1.37744,1.82117s.02991,1.14429-.02997,1.4386c-.05988.29425-1.01331,1.10718-.66205,1.7478.35126.64056.43317,1.3139.94617,1.37451.51306.06055,2.28937-.2785,2.79388-.1759.50446.10266,1.94519-.52362,2.33356-.92615.38837-.40259,1.24127-1.36731,1.83911-1.50836s2.68109.52954,2.68109.52954l.80029.0036.07843-.81586c-.02747-.02649-.05743-.06055-.08636-.09143l.46631-.53186s1.84656-2.62793,2.40118-3.82697c.55463-1.1991.53162-2.17395.51538-3.28198Z" fill="#f2e05c"/>
          </g>
          <g id="flower_pod_6" data-name="flower pod 6">
            <path d="m156.35873,213.983c1.2444.88875,2.61499,1.57646,4.06399,2.07508,2.23621,1.28369,4.25636,3.16192,5.85649,5.06082,1.30148,1.56776-.87906,3.6133-2.36328,2.23101-1.75481-1.71628-3.38093-3.22255-5.26859-4.6507-.94348-1.11872-2.17157-1.94619-3.52192-2.54157-1.64836-.7804-.28912-3.19083,1.23332-2.17465h0Z" fill="#2e541a"/>
          </g>
          <g id="flower_pod_6-2" data-name="flower pod 6">
            <path d="m155.86542,214.85284c1.22933.87875,2.57137,1.55432,3.99941,2.03516,2.18094,1.25029,4.09368,3.02953,5.68724,4.91737.22416.26309.19262.65807-.07046.88224-.24501.20879-.60919.19119-.83849-.02412-2.05383-2.15489-4.40389-3.81601-6.4934-5.86016-.78843-.59128-1.62478-1.1178-2.53097-1.51557-.32902-.14179-.04897-.64726.24666-.43492h0Z" fill="#95c172"/>
          </g>
          <g>
            <path d="m170.02647,213.46704c-2.48552-.00129-5.21056,2.71086-5.74101,4.17906-.50189,1.41846-.34446,3.11705-.49988,4.4922.55015.41371,1.3921,1.04686,1.94341,1.46143.22118-.50587.69283-1.59962.98711-1.90334.7059-.03626,1.43724.31657,2.1221.3222.91249-.00002,2.3003-.4204,3.1872-1.22387,1.04079-.94287,1.68437-3.1391,1.63457-3.77968,1.08844-2.50363.05197-3.47229-3.63348-3.548h0Z" fill="#726400"/>
            <path d="m164.57627,221.7945c.06149-.57935-.01939-2.69251.41455-3.89355.44421-1.22944,2.95058-3.72301,5.08452-3.68346s3.20488.45855,3.25715,1.03286-.45145,1.4219-.42027,1.82282-.52656,2.38319-1.39036,3.16571-2.39178,1.15255-3.0358.99335-1.7036-.41492-2.11049-.21586-.94838,1.41801-.94838,1.41801l-.85091-.63989Z" fill="#f2e05c"/>
          </g>
          <g>
            <path d="m165.31114,220.80899c-.66225.00495-1.06997.355-1.34921.58195-.21432-.04587-.4986-.09909-.78673-.09909-.91281-.00003-1.21979.55293-1.3094.79068-.39523,1.04855-.53214,1.74004-.64214,2.29567-.15225,1.58045-2.08899,2.94455-.59156,4.66611,1.10479,1.02312,1.84113,2.07956,3.31085,2.16669.83899-.00012,2.32423-.36,2.97751-1.35142,1.10214-1.37873,2.2302-4.3227.51906-6.58125-.53636-.75672-.50546-2.41173-2.12837-2.46935h0Z" fill="#726400"/>
            <path d="m165.47332,221.57226c-.77147-.12443-1.11023.66848-1.45511.59832s-1.26003-.32911-1.4506.17646c-.58964,1.56431-.56908,2.27952-.81317,3.03796s-1.51555,2.19313-.58851,3.13245c.94375.95625,1.26983,1.28127,2.1815,1.82598.53646.32052,2.37376-.02694,2.94675-.89652.56665-.85995,1.6484-2.3477,1.16761-4.38055-.22641-.95731-.90016-1.59452-1.03365-2.11281-.16353-.63492-.42644-1.29607-.95482-1.38129Z" fill="#f2e05c"/>
          </g>
        </g>
      </g>
      <g id="flower_4" data-name="flower 4">
        <g id="flower_4_back" data-name="flower 4 back">
          <path d="m175.19611,228.28723c-.48704.00357-.87875.19248-1.25391.34576-.37445.02184-2.07356.96362-2.60526,1.14064-.38942.04333-1.05789-.11211-1.34323-.19864-1.69319-.51197-3.65542-.28768-3.81137,2.01948-.71137-.24296-1.82616-.36559-2.46031.13336-.10042.07211-.2739.15628-.42696.23056-.40227.19521-.90292.43814-1.14743.98268-.02771.06172-.07356.18181-.1311.34047-.32027.88306-.49319,1.18474-.58188,1.28233-.98825.84287-1.80543,1.5835-2.14041,2.86113-.224.52254-.55621,1.29811-.129,2.0201.61175,2.05187,2.02908,1.37145,3.3541,1.06981,1.42094.24868,2.41768-.50051,3.1913-1.60864.88427.72009,1.97836,1.318,3.20076,1.37722.53785.01748.93037-.22028,1.48092-.23301,1.80636.05839,3.87088-2.1589,3.28076-4.10345-.10504-.33817-.4696-1.09779-.9649-1.8216,1.64135.14698,2.78547-.95415,3.5449-2.29455,1.03375-1.54175.57101-3.45195-1.05698-3.54367h0Z" fill="#726400"/>
        </g>
        <g id="flower_4-2" data-name="flower 4">
          <g id="flower_pod_4" data-name="flower pod 4">
            <path d="m161.02516,225.75606c1.80817.8376,3.19642,2.08236,4.79843,3.20191.8206.53134,1.41446,1.28945,1.99539,2.04266.87567,1.25274,2.65683,3.6265.55888,4.62671-.7636.31584-1.6292.00454-2.03036-.68857-1.74609-2.50637-3.12213-5.8852-6.27189-6.87015-1.7117-.59628-.68317-3.08885.94955-2.31256h0Z" fill="#2e541a"/>
          </g>
          <g id="flower_pod_4-2" data-name="flower pod 4">
            <path d="m160.64533,226.68111c2.32991,1.33894,4.83502,2.58993,6.36782,4.89371.52687.73824,1.00264,1.51851,1.35223,2.36862.13158.31995-.02113.68599-.34109.81758-.29005.11928-.618.00491-.77478-.25587-.85608-1.44781-1.82292-2.83826-2.91123-4.12765-.89745-1.45336-2.20248-2.72697-3.88293-3.23381-.3378-.10125-.12694-.62988.18999-.46258h0Z" fill="#95c172"/>
          </g>
          <g>
            <path d="m164.91994,231.87749c-.6183-.02536-.90407.30042-1.40656.53079-.38026.1845-.73942.3588-.90955.73753-.17756.42329-.46863,1.39231-.81487,1.7708-.97072.83206-1.71873,1.49644-2.03506,2.70531-.22631.52788-.48267,1.1263-.10354,1.65216.21871,1.5999,1.79696,1.00565,2.85121.73459.46137.07019,1.20427.05079,1.53334-.15793,1.57582-1.05937,2.53018-3.06716,2.44825-4.87502.03885-.34854.68089-1.65873.99855-2.24132-.76092-.40701-1.50778-.82477-2.56175-.8569h0Z" fill="#726400"/>
            <path d="m166.47344,233.05142c-.42491-.22353-1.58626-.62145-2.02224-.3083s-1.06062.48157-1.16323.71001-.49913,1.53724-.97612,2.00113-1.47448,1.20445-1.62253,1.7983-.63631,1.29754-.43059,1.58287.05987.77184.53032.77839,1.51154-.39834,1.76962-.35511.86673.07375,1.10983-.06238c1.19133-.71872,2.20732-2.8657,2.06861-4.13253-.08931-.41555.73634-2.01238.73634-2.01238Z" fill="#f2e05c"/>
          </g>
          <g>
            <path d="m175.19608,228.78725c-.39657-.0005-.77605.19677-1.12604.33202-.27073-.01877-2.13115.99989-2.5806,1.13055-1.17999.14787-1.70091-.40027-2.91353-.39475-1.83704-.10027-1.92391,1.41431-2.01648,3.24154.61916.25229,1.52207.66306,2.08882.65254l.08885-.00954.05028.00148c.74271-.0038,2.51379.14373,3.06963-.07692.58891-.07787,1.51996.01879,2.10545-.1998.83702-.28937,1.40988-1.19904,1.91867-1.97811.74661-1.17759.50573-2.60645-.68506-2.69901h0Z" fill="#726400"/>
            <path d="m167.3444,232.60989c.01626-.23802.07944-1.73361.50148-1.888,1.55057-.45134,2.30616.58329,3.87399.24165.61131-.19735,2.23578-1.08889,2.45737-1.10135s.9661-.47665,1.17757-.27365c.76533.7272-.8969,2.91354-1.63733,3.16704-.58877.20348-1.72352.05238-2.12968.20858s-2.68994-.00442-2.9546.03269-1.28879-.38696-1.28879-.38696Z" fill="#f2e05c"/>
          </g>
          <g>
            <path d="m168.32394,231.10617c-.96494.08481-1.52661.96725-2.5099,1.22246-1.49495.52827-.92276,2.46116-.7292,3.53096.17187,1.02454.31394,2.47368,1.54155,3.10104.68658.38566,1.4648.8228,2.28506.8228.50566.00562.93195-.23214,1.44103-.23128,1.56271.05867,3.31353-1.85335,2.84313-3.45681-.23984-.77219-1.46231-2.84904-2.41426-3.10799-.3324-.09042-.81148-.49722-.92476-.69518-.18562-.32436-.67873-1.18599-1.53265-1.18599h0Z" fill="#726400"/>
            <path d="m166.0441,233.04257c-.83582.26931-.36303,1.8897-.22093,2.68516s.2373,2.05615,1.06686,2.52081,1.68612.9765,2.47476.71305,1.48104-.03514,2.04034-.48047,1.33266-1.33116,1.07421-2.16334c-.25173-.81054-1.37563-2.46549-1.89485-2.60674s-1.16285-.66894-1.37883-1.04635-.62684-1.03027-1.14578-.73329-1.13558.82756-2.01577,1.11117Z" fill="#f2e05c"/>
          </g>
        </g>
      </g>
    </g>
  </g>
</svg>