<?xml version="1.0" encoding="UTF-8"?>
<svg id="Layer_2" data-name="Layer 2" xmlns="http://www.w3.org/2000/svg" xmlns:xlink="http://www.w3.org/1999/xlink" viewBox="0 0 394 469">
  <defs>
    <linearGradient id="linear-gradient" x1="173.01265" y1="335.87494" x2="173.01265" y2="331.77386" gradientUnits="userSpaceOnUse">
      <stop offset=".34875" stop-color="#fff"/>
      <stop offset=".90496" stop-color="#fff" stop-opacity="0"/>
    </linearGradient>
  </defs>
  <g id="CASE_12_Plants_LH_WH_CL" data-name="CASE 12 Plants LH WH CL">
    <g id="Day_20" data-name="Day 20">
      <g id="rectangle">
        <rect width="394" height="469" fill="none"/>
      </g>
      <g id="ROOTS_Back" data-name="ROOTS Back">
        <path d="m192.15379,342.24994c.36261-.06433.69958-.26111.91058-.59778,1.699-2.93262-7.97554-4.43479-9.74652-4.65662-.89081-.3443-1.80615-.63892-2.76154-.85394-1.90191-.34541-4.02701-.68233-5.70447-1.56628.0528-1.36932.09943-2.58893.12567-3.50366.02228-2.84735-4.14532-2.92029-4.24896-.09973-.01593,1.09955-.04675,2.20544-.08038,3.3136-2.51036,1.83027-5.79122,2.50002-8.75037,3.34393-3.84772,1.22809-7.09802,3.6405-9.68243,6.47357-1.14929,1.29639.70361,3.06781,1.94623,1.87109.9989-.98438,2.07306-1.87506,3.20874-2.64941-.76404,1.84729-1.32202,3.71539-1.8446,5.5517-.19434.68903.1839,1.42041.87006,1.65015,1.90251.50881,1.95993-2.05153,2.54767-3.24146.95941.79706,2.612-.40027,3.61578-.85577-1.20425,1.16153-5.06529,5.81479-3.35828,7.39331-.6546.61501-.89837,1.62806-.04956,2.245-1.55078,1.20286.06833,3.44316,1.62299,2.20846,1.45443-1.3366,2.5533-2.37942,3.96954-3.86575-.01294.07843-.03674.15393-.04608.23334-.01599.16254-.0011.30908.02759.4469-1.16901.93817-2.23029,1.99982-3.3653,2.96918.00128-.00024-.0025.00262-.00482.00458-1.41339.4472-1.1048,2.73981.55005,2.62439,1.56939-.37895,2.36339-1.70091,3.67834-2.64142-.82507,1.89623-1.44042,3.78341-1.92548,5.80316-.16399.69611.24512,1.40888.93989,1.60889.71643.2063,1.46442-.20721,1.67072-.92365.97808-3.10496,2.1529-6.52908,4.55249-8.78247-.01514.65424-.03833,1.30713-.0672,1.96033-1.11377,2.61279-6.60535,8.57452-3.3808,9.75018.3075.07483.61328.03229.87994-.0907.35266.89435,1.63049,1.10089,2.25977.39661.23441,2.1343.86573,4.246,1.45024,6.21442.20759.68438.9192,1.09619,1.62068.92083.72351-.18091,1.16339-.91412.98248-1.63763-.73132-2.88593-1.30809-5.64608-1.13391-8.57806.11371.13751.2276.27423.3407.41663.06567.0777.12775.15399.19293.23138-.0745,1.5212.23876,5.72396,2.7179,3.92139.3421.49683.9726.73853,1.56549.5163.83295-.39514.96826-1.10645.70984-1.98267.87607.00504,1.43254-.88873,1.24982-1.70459-.01404-.14526-.02936-.30896-.04395-.46356.24341.0863.52441.10754.86115.02319.24274-.08008.44373-.22552.59857-.40656.19324.15765.37213.32672.58655.46729,1.57819.87189,2.88245-1.46204,1.31726-2.35681-1.03125-.73688-1.79077-2.4549-2.53986-3.66724-.56281-.96075-1.22394-1.94794-2.01648-2.87201.70704.17037,1.488-.3866,1.56476-1.10492.5332,1.02179.95972,2.07233,1.16479,3.10315.09314.74036.77417,1.27777,1.52228,1.17456.70135-.13513,1.03699-.59497,1.11334-1.25775,1.01404.24829,2.19104-.83911,1.49347-2.0166-.76672-1.26495-1.95636-1.6875-2.79181-2.41382-.24182-.48486-.5036-.97107-.77563-1.44641,1.71234.68176,3.35791,1.4585,4.69037,2.70935.50104.51978,1.32764.5542,1.87061.06897.98779-1.11664.08099-2.29059-1.53967-3.38989,1.75931-1.1045-.40035-2.95098-1.25574-3.74139-.36957-.32355-.75208-.62793-1.13171-.93646.53455.14667,1.03845-.07526,1.35431-.45911.12457.88348.48993,1.83813.90747,2.47705.57739.93787,1.6825.77161,2.216.1355.01385.02155.03101.04187.04468.06348.32031.6731,1.13409.9715,1.81268.63965,2.44733-1.35602-1.99384-5.23517-3.07361-6.36676-1.45752-1.32544-3.0874-2.62653-4.88751-3.57977,3.37152,1.27521,6.74133,3.25189,8.91351,5.79919.43738.57196,1.25226.70117,1.84674.28333,1.42047-1.08588-.19336-2.89355-1.87799-4.30334Zm-30.76898,15.80658c.0058-.00323.0061-.00311.01331-.00714.08411-.03918.18256-.05713.27344-.05054-.10278.01074-.19739.03143-.28674.05768Zm15.6543-11.65216c.89343.36932,1.68286,1.16278,2.40601,1.99609-.258-.1239-.47968-.23785-.65387-.34009-.74908-.70563-1.84271-1.35828-2.79065-2.0094.34424.12604.69055.2439,1.03851.35339Zm.44421,8.92352c-.0863-.11163-.1673-.22388-.26044-.33368-1.14594-1.11743-1.83801-2.25208-2.53131-3.72662.01282-.68958.01392-1.37976-.00098-2.07074.03333.01855.06665.03723.09991.05573,1.06568,2.13978,1.5734,4.17365,2.80414,6.17761-.03894-.0329-.07184-.06976-.11133-.10229Zm-9.19269-2.32471c.60791-1.06842,1.28424-2.12134,1.63184-3.41388.26434-.24994.5307-.53174.797-.82404.0061.0675.00946.13525.01581.2027-.57922,1.11041-.98535,2.43231-1.39423,3.07495-.13458.28259-.26251.52856-.3916.76367-.22339.05402-.44446.12146-.65881.19659Zm.43011-7.16034c.02606-.08948.05554-.17767.07684-.26855.08508-.05847.17004-.11713.25519-.17566-.11096.14856-.22162.29718-.33203.44421Zm-3.3808,2.28101c.24884.19354.56006.29309.88129.28046-1.30811,1.19562-2.76453,2.9967-3.83801,4.21924-.2182.06201-.52081.11371-.85083.17194.73791-1.80786,2.28346-3.40961,3.80756-4.67163Zm-5.27924-3.55414c.48259-.99646.99547-1.99006,1.68976-2.85052.28485.67102,1.06805,1.13763,1.90491.67456.92456-.45367,1.8252-1.4151,2.46161-2.30493,1.49585-.34296,2.96527-.78699,4.39984-1.3645-.00684.26416-.01373.52832-.01959.79266-.60913.70923-1.30609,1.34076-2.04474,1.93958-2.61969-.3714-4.87274,1.27496-7.10455,2.42761-.35767.26929-.82874.47412-1.28723.68555Zm13.99304,15.00018c-.00018-.00354-.00122-.00641-.0014-.00995.07153-.58783.13953-1.17584.20282-1.7641.01208-.07092.01678-.13873.02063-.20667.03479-.3291.06573-.65833.09723-.98761.07544.07141.1485.14795.22559.21576.15698.13184.29535.27081.42053.41766.05334.09222.11804.18207.19586.26843,1.34316,2.11148,1.68892,4.80755,2.08734,7.31818-1.45374-2.05347-3.26764-4.16852-3.2486-5.25171Zm4.5943-16.04791c-1.20154-.47198-2.41278-.97717-3.40845-1.77966,1.13733.28918,2.26624.43896,3.37354.6311,1.68414.68219,2.80499,2.21704,4.15436,3.57513-1.30499-.90698-2.66949-1.72742-4.11945-2.42657Z" fill="#4c4c4c"/>
      </g>
      <path d="m206.24956,283.60632c-.33313-1.22253-2.06848-2.75104-3.37598-2.97351-.81674-.1635-1.65396-.19942-2.48224-.61894-.47601-.22133-1.06842-.49679-1.77203-.61471-.64878-.0979-1.9105.05152-2.55005-.19665-1.2918-.69794-2.15153-1.66458-4.12147-1.6585-.29532-.05325-1.67785.38269-2.27672.52214-.15959.0207-1.44176.16324-2.03504.15473-1.10895-.00639-2.03983.82849-2.89233,1.38067-.62662.301-1.75174.30483-2.3429.60045-1.08923.55385-1.73938,1.5367-2.05072,2.04042-2.22027.76144-3.07845,1.92394-2.74554,4.19879-.71862,1.13613-1.42771,2.89375-.79773,4.43848-.95288.63861-1.90961,1.33563-2.81085,2.09918.0882-1.9668.1803-3.93494.27417-5.90448.03943-.20532.05048-.41626.03003-.63135.12799-2.68524.25433-5.37244.3689-8.06061.34711-2.36713,1.07581-5.06915,3.62372-7.63202.24792.08364.51332.16972.82501.17438,1.07756.00974,1.79963-.50211,2.55151-.87567.05762-.02649.18225-.0581.44885-.0581,1.00773.03634,2.24191.24542,3.26892.01981.67006-.13649,2.13555-1.10143,2.86383-1.24179.58856-.02929,1.06444.08295,1.64679.08655.56567,0,1.09161-.11439,1.70532-.37086,1.21893-.53492,1.6281-1.3546,2.11041-2.06671.71901-.2898,2.12964-.63207,2.47991-1.02681,1.05281-.94157,1.78761-1.36564,1.97853-1.4235.66027-.15403.95948.32583,1.72864.30657,1.06485.02366,2.16081-.94647,1.93428-2.09193-.28512-1.76487-4.05684-4.20652-6.46047-4.99137-1.16064-.37897-2.73029-.81396-4.58142-.81396-1.78876-.11791-3.45596.71837-5.20152.83376-.89782.03138-2.0123.18887-2.72652.88078.19403-.6582.02588-1.39758-.50916-1.89874-.75635-.7085-1.94287-.66895-2.65039.08691-1.65503,1.76776-3.13837,3.50726-4.60968,5.59137.00702-2.37256-.01758-4.74384-.08008-7.11328,1.39868-1.05908,3.25342-2.70563,5.66339-7.89264,1.00025-2.25062-2.32397-3.80053-3.40042-1.58-.94516,2.03368-1.7518,3.3936-2.45822,4.35662-.05457-1.04602-.11536-2.09167-.18842-3.1366-.18585-2.60101-3.97119-2.4502-3.99841.11438.02771,1.36255.03729,2.88409.03571,4.4873-1.21595-1.58367-2.37511-4.1361-4.46882-2.64017-.79095.668-.89056,1.8511-.2221,2.64212.99697,1.1511,2.95975,4.08667,4.63593,6.57703-.00977.70312-.02039,1.40472-.03137,2.10327-2.34949-1.38019-4.98523-2.22229-7.27203-2.95276-.98682-.31543-2.04199.229-2.35645,1.21582-.31494.98633.22949,2.0415,1.21582,2.35645,2.9007.92633,6.13153,1.96387,8.33636,3.92664-.02032,1.18127-.03918,2.31085-.05505,3.36877-2.06525-1.93945-4.47076-3.31335-6.19196-3.84912-2.3789-.67847-3.45744,2.78685-1.11518,3.58009,1.91602.59697,5.68494,3.08873,7.1634,6.16832-.05811,1.72058-.12921,3.43958-.20892,5.15778-1.58864-1.64871-3.38204-2.95339-5.15497-4.28394-.1817-1.6601-.41809-2.86431-1.46888-3.76367-.26248-.59967-.35464-1.3097-.87537-1.86664-.73998-.80726-1.5479-1.0716-2.05028-1.20624-.35852-.68622-1.04047-1.9035-1.55573-2.30383-.14392-.12738-1.15063-1.1618-1.71613-1.9151-.17255-.2298-.53796-1.03827-.67548-1.34259-.19517-.45398-.27077-.46145-.32-.9148-.02722-1.15282-1.09442-2.50658-2.40326-2.16058-.14783-.05414-.29144-.10986-.34631-.13538-.37223-.20613-.70857-.43557-1.18304-.59827-.0625-.07758-.13049-.17334-.15967-.22888-.58289-1.17281-1.65229-1.34598-1.93872-1.44916l-.23163-.00458c-1.29189.02227-1.6967,1.20694-2.12079,2.06982-2.25811-.20099-3.78234-.22837-4.82914,2.04828-.15609.27582-.4103.72565-.55825.88391-.67645.29919-4.21155,1.90448-4.61902,2.80902.00653-.01447.01392-.03094.02399-.04834-.66031.993-1.79537,2.32174-1.19051,3.94672.34395.86548,1.07033,1.60815,1.89571,1.93823.42264.23042.81654.7408,1.31141.96696.76122.41006,1.85306.46169,2.68261.28432.2915.31189.62219.46429.92163.53461.07874.04248.18304.10754.2608.16364.5561,3.99179,1.68718,2.94895,4.46656,3.86281.22448.08836.30749.19157.53607.5045.70901,1.24242,2.7335,2.05903,4.09766.96021,1.09552,1.29707,3.26612.96898,4.51044.45764.71951.81911,2.23369.38474,3.30086.35849.75917-.00778,1.43174.28696,2.18822.24069,3.13281,2.34198,5.62006,4.31873,6.80023,8.06946-.23987,4.44098-.47595,8.88739-.62976,13.35327-1.90192-2.29199-4.10834-3.841-6.62946-5.28534.18951-.56708.26617-1.30145.20093-2.40436-.06769-1.14337-.95966-1.99078-1.62305-2.45062.22201-1.97289-.10301-4.3029-1.45921-5.35837-.68965-.58696-1.6676-.90075-2.3915-1.39767-.29467-.97823-2.27999-3.0904-3.62011-3.36555-1.31509-.44154-2.24176-.56433-3.65101-.34638-.39978-.00011-.78595-.07158-1.14777-.21251-.89197-.31174-2.44448-.35816-3.35095-.07093-1.61821.489-2.43638,1.59582-3.97345,1.94971-1.04193.32551-1.94519.61226-2.44708.82454-1.2858.50841-1.92062,1.89196-2.82968,2.66142-.93432.44747-2.48467.57803-3.50921,1.1701-1.92564,1.02846-3.72587,2.22756-3.87742,4.02187-.37514,1.197-1.13593,2.69231-.08498,4.33021.65367.96992,1.6902,1.12901,2.52291,1.54809.51515.51988,1.60777,1.72861,2.00149,1.93035.91448.64427,2.29898.67583,3.43473.54951.07196.01794.53796.17706,1.93622,1.19397l.09485.06885c.9901.80306,2.82961.51954,4.05719.40063.80096.4639.96262,1.09422,1.78787,1.69449,1.44249,1.07655,3.1071,1.29995,4.68283,1.37421,1.73456-.00117,3.01104-.72296,4.68867-.91539.78059.2104,1.42407.93761,2.61031.89819,2.17154-.08009,4.67696-2.04796,4.77818-3.56084,3.61841,2.23798,6.01202,4.77698,7.97021,10.66278.13727,2.409.32166,4.81836.51062,7.22491-1.75079-1.81982-3.68481-3.76935-6.27155-4.75262-4.40635-4.66236-20.63721-1.38121-20.10661,5.19588.05919,1.93093,1.43254,3.03517,4.44596,2.57182.18346,1.78842,2.37358,3.54012,4.67027,3.45871,2.87447.00009,5.76107-2.16507,7.01772-4.2023,1.03949-1.68518,1.86603-2.37384,3.20483-3.26141,2.74301,1.33895,4.94593,4.58644,7.46576,6.6098.28186,3.93262.49475,7.84821.44861,11.72626-.02789,1.32727,1.04333,2.42377,2.3714,2.42413,1.31165.00189,2.37646-1.05994,2.37817-2.37158.03729-4.45026-.23883-8.8277-.57843-13.1806,3.13592-4.54661,6.12202-4.27816,10.02887-4.99591,2.04906.66737,3.60499.96601,6.19055,1.85251,2.85351.92945,5.95223,4.05617,8.91259,4.05938.43495-.00002.85572-.06692,1.25056-.19887,1.72668-.57697,2.24347-1.77972,2.39777-2.44531.41846-1.80463-.75952-3.82477-1.59998-4.93109.34943-.3277.72064-.7049.86621-1.25214.17877-.67242.47577-2.41443-.62598-4.06464-1.11104-1.85069-4.0829-2.75221-6.63059-2.67717-6.85097.00023-10.7994,3.01927-12.4089,6.13359-2.83293.43843-5.71847.71123-8.79614,3.3476-.39459-4.85254-.75183-9.69653-.72314-14.59576.01019-.32178.02307-.6441.03387-.966.54688-1.78882,2.34241-3.73279,5.35187-5.80164.78094.72177,2.65766.59105,3.76287,1.19527.4688.22239,1.12113.4873,1.74275.47617.83694.01913,1.66971-.41258,2.44049-.45928.84793.18267,1.98538.61629,2.91663.60283,1.09044-.00174,2.1081-.67486,3.0487-1.03746.29125-.05748,1.14337-.21908,1.68933-.16498.6666.12995,1.73369.46597,2.36414.47278,1.19858.01868,1.93536-.79471,2.45001-1.32629,1.78231-.50706,3.06409-.98813,3.36951-3.26166.09381-.41046.27094-1.0274.38977-1.43781.71332-.8311,1.12915-1.25558,1.66876-2.45319.65089-.49092,1.99113-1.40007,1.36273-3.81024Z" fill="#2e541a"/>
      <g id="ROOTS">
        <path d="m193.32896,345.38129c-2.19781-2.82831-5.26471-4.82904-8.52362-6.34003,2.44163.28667,4.92079.7765,7.08374,1.99206.11139.06525.20929-.10595.10321-.17126-2.6405-1.65771-5.78064-2.14868-8.8045-2.62482-.06305-.01282-.12286-.00031-.17865.02191-.58319-.23657-1.16821-.46112-1.75214-.67255-2.33527-.56073-4.66333-.74933-6.76971-1.86932-.35974-.1806-.65094-.51862-.59705-.53131-.0144-.05884-.04553-.09796-.06848-.14709.0246-.47131.05255-.93951.07153-1.41583.02118-1.19153-1.73926-1.18768-1.74982-.02576-.01373.33929-.03143.685-.047,1.02692-.07434.05243-.14685.1131-.2085.20404-2.58059,2.379-6.34691,3.01807-9.63849,4.00073-3.58478,1.14886-6.66437,3.427-9.1308,6.13812-.09167.09473.06342.22534.14447.13824,2.09229-2.06982,4.55304-3.7973,7.25482-4.86829-.22003.26923-.42621.54645-.61145.82776-1.55804,2.51263-2.37305,5.37921-3.18671,8.18115-.0379.12378.15454.17664.19104.0592.61737-1.83887,1.26038-3.67181,2.0871-5.41162.79785-1.58624,1.75128-3.52429,3.39606-4.27222.02319-.00818.03638-.02283.05615-.03333.76922-.19147,1.56455-.35146,2.36505-.51886-.50116.81732-1.04437,1.56763-1.90961,2.08362-.10675.06757-.00476.23419.10339.17108,1.01807-.50885,1.7442-1.44897,2.36823-2.37335,2.32867-.49036,4.67902-1.06183,6.62866-2.3775-.05109,1.0343-.09894,2.07556-.14221,3.12061-.04187.05725-.08685.10938-.11749.18542-.10522.22229-.32166.54205-.48682.71643-.79169.77985-1.64349,1.50006-2.51337,2.20331-3.24432-.72076-6.17572,2.21021-9.00574,3.34485-.12061.05066-.04388.23285.07336.18579,2.58209-.87286,5.43402-3.32977,8.23755-2.97467-3.2284,2.57053-6.89235,5.29086-8.07837,9.44043-.03564.12518.16064.17157.19226.05493,1.29053-3.50146,4.16553-5.68652,7.14343-7.75787-.12079.77094-.47906,1.53949-1.17438,1.87524-.12484.04145-.0553.23633.06769.18823.91577-.39612,1.3371-1.36261,1.46027-2.30859,1.42175-.98358,2.84863-1.95618,4.13049-3.03955-.01605.61084-.03326,1.22198-.03741,1.83148-.00537.18933-.00183.37781-.00317.56677-1.02625.96564-1.77509,2.07233-2.5799,3.08228-.89001,1.25983-2.27832,1.98993-3.24561,3.16321-.81982.94617-1.80536,2.08533-2.81445,3.21851-1.02551.47656-2.47827.22461-3.24835,1.26453-.08131.09928.07033.22872.15327.12847.68298-.83044,1.73541-.71825,2.69573-.94671-1.02112,1.13702-2.04871,2.24304-2.93988,3.11145-.09393.09119.04999.22754.13812.14459,2.69491-2.26426,5.37253-5.71654,8.13202-7.90137-.48267,1.82202-1.80634,3.40533-2.1037,5.31921-.01692.12852.18482.15256.19855.02338.49847-2.11267,2.2254-3.72009,2.66437-5.91156,1.09125-.92578,1.98138-2.16846,2.97235-3.17627.04492,1.20935.13507,2.41589.216,3.62732-.84802,1.53876-1.35083,3.17682-2.28821,4.6012-3.36487.53406-5.50598,3.66833-7.92249,5.2901-.15607.01685-.13544.23334.01733.19928.7536-.29828,1.3858-1.05786,2.00092-1.53656,1.61877-1.36414,3.38495-2.91711,5.48883-3.37909-2.4386,2.61432-3.52783,6.23962-4.41602,9.62585-.03107.12769.16528.16772.19391.04846,1.06299-3.34973,2.26196-6.87659,4.87775-9.33807.9126-1.04669,1.51819-2.32355,2.1546-3.54749.0296.78241.04108,1.56885.01263,2.36267.05035,1.38019-.01617,2.7616-.11554,4.1427-1.02338,2.90076-3.75128,5.22382-4.39972,8.3186-.00543.05164.02911.10419.08118.11365.34467-.95428.85864-1.81415,1.43219-2.64447.29016,1.06048.4504,2.1563.29784,3.25098-.00682.05353.02998.104.08369.11249.48395-.73602.06781-2.68121-.1579-3.68536.81281-1.13422,1.72186-2.22388,2.50159-3.40717-.57811,4.6553-.22227,9.33932,1.33533,13.77161.03333.1261.22675.06232.19287-.0531-.83759-3.2204-1.45343-6.53296-1.12225-9.85992.10565-.7984.21387-1.5957.3197-2.39288.67511,1.33215,1.69659,2.45691,2.69043,3.60291-.17786.73242.13788,3.57812.49426,3.48553.05225-.01788.08002-.07477.06213-.12701-.31964-.97992-.35852-2.02521-.29724-3.05878.86884,1.01624,1.68506,2.06793,2.18329,3.31714.04968.11896.22955.04303.1861-.07269-1.0462-3.25891-4.39948-5.48438-5.06995-8.82324-.00146-.03802-.01544-.06567-.02368-.09821.08429-.68079.16121-1.36471.23303-2.04572.13428-1.26373.25055-2.52948.31122-3.80273.01282-.12561.01758-.2522.0282-.37805.80426,1.20251,1.79578,2.32733,2.77515,3.27808.00897.0199.02277.03784.03711.05634,1.87756,2.86523,2.09442,6.44556,2.63538,9.76593.01868.12805.21143.09338.19647-.02692-.34863-2.89423-.47479-6.00537-1.64362-8.72955,1.04919,1.04956,1.82703,2.36029,2.64246,3.63312-.09741.7652.33838,3.24475.63892,3.14594.05237-.01764.08044-.0744.06274-.12677-.27423-.83228-.41925-1.70825-.41882-2.57855.71393,1.08063,1.49054,2.09943,2.53906,2.85382.11011.06604.20966-.10773.10242-.1712-2.66681-2.13171-3.34967-6.05756-6.29218-8.20972-.01654-.01373-.03363-.01697-.05048-.02679-1.28943-1.42017-2.36066-2.87-3.13348-4.64844.03021-1.55267-.03754-3.1192-.08209-4.68829.67041.51996,1.55597,1.02771,2.29492,1.43481,1.39624,2.21765,1.85242,5.37415,3.62378,7.28839.04694-.02911.0614-.09076.03229-.1377-1.31922-2.09482-1.83997-4.3585-2.79401-6.67505.18506.10468.33362.19305.42242.25818,2.85065,2.43433,5.12,5.95184,5.99683,9.61011.0213.1308.2124.09875.19855-.02545-.18054-1.03278-.49109-2.03052-.8822-2.9986.77759.60344,1.78128.99573,2.32552,1.82243.02879.04567.09038.06276.13707.03505.04749-.0282.06317-.08954.03497-.13702-.64246-1.04602-1.8963-1.44183-2.71851-2.26691-.00269-.00281-.00708-.00165-.00995-.00421-.77222-1.73474-1.82129-3.35876-3.00031-4.8476,3.0116,1.28916,6.40629,2.14753,8.82349,4.46057.08537.09375.23647-.03666.1491-.13331-2.6888-2.82179-6.771-3.66921-10.03979-5.5548-1.41589-1.33453-3.60474-2.15533-4.61609-3.7179-.00177-.00287-.00494-.00409-.00677-.0069-.00462-.65445.00239-1.30827.03381-1.96149,1.76962,1.26036,2.63601,1.36003,4.24237,1.99384,2.27307,1.05011,3.54657,3.48621,5.32214,5.18909.08899.09064.22827-.04767.14435-.138-1.10919-1.2168-1.97809-2.7337-3.09143-3.98511,2.4201,1.22913,4.66284,2.82111,6.51495,4.75781.0741.1167.24152-.00507.16675-.11078-2.28113-2.75348-5.36737-4.72754-8.52142-6.35413-1.79462-.69135-3.49731-1.48492-4.71094-2.96173.03101-.63501.06531-1.27124.10382-1.90649,1.25195.71899,2.71259.86957,4.11621,1.15265.3858.03546.76184.09351,1.13501.15814,2.67456.81427,4.09106,3.74835,6.396,5.23596.10214.0725.22114-.08416.11864-.16102-1.61396-1.28367-2.76677-3.06767-4.27337-4.49151,2.34523.80614,4.46907,2.20345,6.35089,3.92566.05365,1.1178.17017,2.36572.85327,3.32758.06499.11055.23814.00972.17267-.10114-.5979-.92188-.68188-1.8985-.71967-2.95227,1.0968.99237,2.13635,2.06812,2.85706,3.34558.05792.1239.23596.02783.18066-.08618-1.77753-3.16364-4.66919-5.52814-7.72351-7.41443-2.76123-1.85602-6.9762-1.3866-9.36816-3.52411.02844-.44556.05609-.89301.08368-1.34094.04407.02307.08569.04779.13037.07074,2.24957,1.02698,4.86597,1.01965,7.19171,1.44098,4.43017,1.39192,9.07214,3.50526,12.1247,7.11376.07965.10469.22888-.01811.16149-.11772Z" fill="#fff"/>
      </g>
      <path d="m204.80235,284.00073c-.16235-.59564-1.36981-1.75128-2.18042-1.88922-.56104-.09546-1.2326-.20282-1.93536-.37231-.68359-.16492-1.42853-.71204-2.31531-.86072-.34344-.05756-2.07666.09735-2.95276-.32446-1.13-.54407-1.91229-1.52393-3.45673-1.51007-.31708.00281-1.67828.44708-2.05939.50421-.1264.01892-1.60895.18689-2.29657.17242-.60791-.01276-1.70154.9845-2.19916,1.22644-.79321.38574-2.11658.4856-2.32599.59204-1.03088.52417-1.54327,1.72168-1.66504,1.80927-.71948.51709-1.43848.47845-2.06647,1.14038-.67273.70911.04852,1.93719-.40765,2.64502-.42822.66443-1.12244,1.96344-.78894,3.06647.15601.51605.36322.89337.61774,1.20355-2.92841,1.84216-5.06702,3.64948-6.43115,5.45172.13281-3.33325.2796-6.66785.4386-10.00403.0318-.11322.04248-.23145.01648-.35358.13123-2.75293.2572-5.50641.37457-8.26044.40094-2.66715,1.26556-6.03735,4.67041-9.125.61969.06512,1.08307.30658,1.29877.31238.67084.01813,1.34888-.48273,1.90424-.73828,1.07251-.49359,2.56702.13873,4.06158-.14868.25311-.04871,2.22162-1.22687,3.04657-1.26465,1.40436-.06427,1.69641.31982,2.87415-.17242,1.01642-.42487,1.28455-1.53845,1.78192-1.89691.42206-.3042,2.14935-.71826,2.38696-.93073,1.03625-.92682,2.0976-1.664,2.66809-1.77209,1.62134-.30713,1.75214.62018,2.42377.12433.59375-.43842-2.54401-3.08356-5.37653-4.00842-1.56732-.51178-4.2193-1.25739-7.34912-.21411-1.28436.42816-2.3103.19525-3.21918.50592-.55774.19061-1.30127,1.20013-1.72314,1.42572-.41211.22046-1.47845.45392-2.07629.76392-.49524.25684-1.59778,1.2818-1.98016,2.08014-1.08423,2.26392-1.67029,3.21466-2.03345,4.03546-.19611.44312-.20099.8457-.10077,1.16791-1.37982,1.3316-2.35394,2.70477-3.0484,4.0545.0401-1.21045.09235-2.42084.12219-3.63129,2.67535-5.01245,4.99768-7.9444,7.84747-10.9873.33644-.34931-.21858-.8727-.54788-.51267-2.63914,2.81894-4.83243,5.54166-7.25901,9.86057.08832-4.37982.09045-8.75934-.04169-13.13678,1.65169-1.28441,3.18137-2.21139,5.8193-7.79558.08738-.18801.00583-.41115-.18167-.49806-.18848-.08691-.41064-.00635-.49805.18164-2.28473,4.91602-3.94135,6.27228-5.16809,7.18744-.07587-2.18604-.18463-4.37158-.33832-6.55634-.03182-.6382-1.00376-.61451-.99957.0286,0-.00003.04907,5.49564.04913,5.49594-.00421.96741-.0202,2.32172-.04193,3.85168-1.78658-2.65278-3.37054-5.01076-4.44312-6.26758-.30746-.3726-.89358.11533-.57321.4844,1.08718,1.24834,3.30133,4.58152,4.99698,7.09537-.02679,1.75525-.05859,3.65314-.08881,5.44714-2.54736-2.29071-6.03882-3.41614-9.17725-4.41852-.19873-.06104-.4082.04688-.47168.24316-.06299.19727.0459.40869.24316.47168,3.27545,1.04578,6.93738,2.23785,9.38824,4.745-.06042,3.31479-.0649,5.15662-.15027,8.0351-2.05756-3.4165-6.0116-5.83813-8.05096-6.47296-.19873-.06055-.40771.04932-.46924.24658-.06152.19775.04883.40771.24658.46924,2.16064.67285,6.59552,3.45325,8.22937,7.29462-.10522,3.21918-.26276,6.43481-.42993,9.65002-1.89512-3.40093-4.90515-5.42073-7.88226-7.67413-.08118-1.08643-.28955-2.53455-.58862-2.9696-.08972-.13049-.52936-.42804-.77374-.89587-.27466-.526-.36536-1.23529-.65149-1.54742-.89594-.97736-1.87488-.67377-2.07684-1.14026-.05206-.12024-1.0127-1.94171-1.34381-2.19897-.19946-.15497-1.34479-1.3324-1.99536-2.19897-.37262-.49634-.89459-1.77295-1.02252-2.01074-.36182-.67273-.16534-1.36609-.53589-1.72949-.31641-.31036-.42438.06744-.73077-.02435-.78726-.17494-1.39571-.71748-2.10874-.91846-.25149-.05023-.733-.69219-.85519-.97723-.13824-.32263-.64703-.53589-.77368-.57013-.41376-.11188-.89752,1.93823-1.42529,2.03607-.78375.14539-2.50885-.23309-3.29846.08148-.69806.27808-1.28094,2.38501-2.15826,2.72833-1.20758.4726-3.87872,2.00909-3.90924,2.07684-.73861,1.17038-2.20747,2.71287-.08141,3.82784.61077.2443,1.06097.83592,1.42522,1.01804,1.1402.57007,2.383-.14526,2.72833.04071.28491.15338.17914.62476.61426.67047.15033.01581.95062.46136,1.13678.79547.36139.64856.35388,2.50195.85516,2.6062.28033.05835,2.15436.39484,2.875.67822,1.27863.50275,1.16071,1.58368,2.25592,1.84656,1.01807.24432,1.03595-.80402,2.48407-.65155.77368.08142.28857.70996.65149.85516,1.64532.65814,2.62091-.35486,3.33923-.24438,1.05872.1629.65155.57013,1.34381.52942.45331-.02667,1.48633-.24249,2.4433-.12219.81506.10248,1.5365.35553,1.92285.09564,3.49574,2.61232,6.60116,4.85072,7.95581,9.43671-.27106,5.03961-.54541,10.08081-.69623,15.1355-.0127,1.19995.00677,2.39984.03589,3.59967-2.53259-5.25342-5.81421-7.50549-10.21613-9.88483.36243-.62238.94733-.51782.8089-2.85663-.04468-.75513-1.13794-1.44531-1.31818-1.51373-.42163-.16016-.30463-1.10852-.25336-2.18048.07532-1.57379-.45508-2.61615-.97729-3.05432-.60077-.50403-1.74078-.84741-2.53186-1.50409-.26068-.21637-.42419-1.15564-1.52631-2.10291-1.15816-.9792-2.33437-1.25778-3.61552-1.26135-.19656.03601-1.36465.32171-2.71712-.20514-.29688-.1156-1.60742-.27185-2.35913-.03693-1.27551.39856-2.13293,1.3479-3.2605,1.72375-.54535.18182-2.35999.71979-3.02295,1.00024-.98462.41656-1.62885,1.88153-2.57227,2.52136-.83405.56567-2.53003.65649-3.64447,1.25171-1.43402.76599-3.01349,1.7309-3.09094,2.84558-.04688.67456-1.07776,2.24683-.33594,3.34259.40936.60468,1.54437.72736,2.16119,1.17456.32458.23529,1.48242,1.59686,1.92627,1.87927,1.03363.65778,2.25537.23792,2.83514.32849.80902.1264,2.28784,1.23297,2.70367,1.53333.91016.65729,3.06207-.11072,3.68018.18823,1.26147.61017,1.37817,1.30078,2.20129,1.93402.87762.67529,2.00366.91803,3.36206,1.04437,1.58221.14716,2.86957-.61414,4.80701-.87671,1.60242-.21722,1.98438,1.4306,3.77307.68176,2.86441-1.1391,2.5669-2.29182,2.39923-4.46002,5.13973,2.75983,8.44099,5.34224,10.95966,12.92706.21063,3.80017.53613,7.59814.82446,11.3924-2.9278-2.43482-5.1696-6.02323-8.89807-7.29156-3.26831-3.99573-17.84692-1.57899-17.77995,3.86533.04966,2.24789,3.25657.46761,4.01292,1.3948.72186.88489.05896,1.87305,1.9433,2.79578,2.67889,1.31177,6.15674-1.09839,7.40161-3.11646,1.37885-2.23541,2.50342-2.98883,4.34656-4.17761,3.6184,1.30689,5.95159,5.23543,9.0506,7.52954.30853,4.18713.54828,8.36932.49854,12.5434.021,1.18518,1.73895,1.10919,1.74988.00275.03851-4.54913-.25897-9.05994-.61475-13.56006,3.8026-5.74047,7.24173-5.26551,11.69604-6.1557,1.08832.46783,3.09308.82727,6.53802,1.98669,3.46198,1.16516,6.77014,4.67462,9.20929,3.8595,3.20667-1.07153.23303-4.987-.39124-5.60236-.68225-.67255.94788-1.48834,1.08099-1.98901,1.71544-7.25127-14.65728-6.1108-17.18262,1.12585-3.9585.69757-7.35152.59806-11.04559,5.5882-.49109-6.06317-1.04694-12.11078-1.00671-18.2066.01282-.41241.03369-.82538.04761-1.23792.91577-3.26093,4.80231-6.07135,7.39557-7.68103.10011,1.47519.92895,1.12839,2.66876,1.58156.90545.20067,1.47009.66868,2.11194.75248.68994.09009,1.6264-.43695,2.58929-.44885.7121-.00879,2.49286.81824,3.34137.54883.84851-.26947,1.97571-.88422,2.30212-.94556.26764-.05029,1.34961-.27917,2.1803-.19531.44659.04504,1.69397.44476,2.24139.46515.729.02716,1.32715-.98108,1.6626-1.13312.5177-.23468,1.2663-.43622,1.63611-.55847.89899-.29718.96088-1.42401,1.02704-1.71417.13092-.57373.37622-1.40161.49146-1.80182.36765-.53637,1.36888-1.45831,1.71024-2.50457.25381-.67664,1.77109-.72736,1.23825-2.68262Z" fill="#95c172"/>
      <g id="leaf_1_right_hi" data-name="leaf 1 right hi">
        <path d="m184.16622,314.2718c2.70885-1.41402,7.23409-1.19452,10.2203-.95752,2.61448.2075,5.24344,1.05093,5.92573,1.72348.62427.61536,3.59787,4.53083.39124,5.60237-2.43918.81508-5.74731-2.69438-9.20931-3.85953-4.56555-1.53656-6.60382-1.66766-7.32796-2.50879Z" fill="#a6d67c"/>
      </g>
      <g id="leaf_1_left_hi" data-name="leaf 1 left hi">
        <path d="m162.97805,314.17421c-3.46242-1.95944-8.37947-.26404-9.94586.65737-1.32793.78114-4.90415,3.1735-4.14781,4.10066.72187.8849.05897,1.87308,1.94331,2.7958,2.67887,1.31179,6.15676-1.09836,7.40161-3.11647,1.47867-2.39718,2.65355-3.08318,4.74876-4.43736Z" fill="#a6d67c"/>
      </g>
      <g id="leaf_2_left_hi" data-name="leaf 2 left hi">
        <path d="m131.41322,290.12121c-1.3843.60341-2.23878,1.99996-1.49696,3.09572.40935.60467,1.54438.72738,2.16119,1.17456.32455.2353,1.48243,1.59685,1.92628,1.8793,1.03361.65775,2.25536.23788,2.83512.32847.80903.12641,2.28781,1.23296,2.70367,1.5333.91016.65734,3.06206-.11072,3.6802.18828,1.26145.61016,1.37816,1.30074,2.20126,1.93403.87764.67525,2.00366.91798,3.36207,1.04433,1.58219.14716,2.86958-.61411,4.80702-.87671,1.60238-.21718,1.98437,1.4306,3.77307.68177,2.59246-1.08532,2.69367-2.04119,2.39687-4.04601-.11635-.7859-.10565-.68147.09918-1.10541-9.97837-5.23067-16.01172-10.59434-28.44898-5.83162Z" fill="#a6d67c"/>
      </g>
      <g id="leaf_2_right_hi" data-name="leaf 2 right hi">
        <path d="m203.56417,286.68338c-.34161,1.04337-1.33201,1.96609-1.71033,2.50451-.11519.40023-.36049,1.22814-.4914,1.80189-.0662.29013-.12809,1.41696-1.02705,1.71413-.36985.12226-1.11845.32381-1.63611.55847-.33544.15205-.93361,1.16033-1.66258,1.13317-.54748-.0204-1.7948-.42012-2.24142-.4652-.8307-.08385-1.91269.14507-2.18028.19534-.32642.06132-1.45366.67612-2.30216.94553s-2.62928-.5576-3.34139-.54879c-.96289.01191-1.89934.53895-2.58929.44885-.64181-.08382-1.20643-.55185-2.11189-.75251-1.07462-.23815-2.00749-.3807-2.19225-.49987-.68122-.43935-.31557-1.48746-.69969-1.75061,2.28414-1.20006,3.77906-3.31452,9.28822-5.55261,2.80944-1.14134,7.36389-1.12157,10.02488-1.991,3.52792-1.15269,6.02038-.7561,6.11091-.4239.53283,1.95525-.98443,2.00597-1.23817,2.68262Z" fill="#a6d67c"/>
      </g>
      <g id="leaf_3_left_hi" data-name="leaf 3 left hi">
        <path d="m139.2598,265.01458c-.74766,1.18334-2.20294,2.71144-.08138,3.82787.61076.24431,1.06097.83591,1.42519,1.01802,1.14021.5701,2.38298-.14526,2.72836.04072.2849.15342.17912.62476.61425.67051.15034.01581.95062.46134,1.13678.79547.36136.64856.3539,2.50193.85516,2.60619.28034.05831,2.15436.39485,2.87501.6782,1.2786.50273,1.16072,1.5837,2.25592,1.84655,1.01804.24433,1.03595-.80398,2.48402-.65155.77371.08144.28861.70997.65155.85515,1.64529.65816,2.62089-.35483,3.33918-.24433,1.05876.16289.65155.5701,1.34382.52938.45331-.02667,1.48636-.24247,2.4433-.12217.93939.1181,1.75784.44147,2.0778-.05774-1.88995-1.4196-5.01404-3.56554-9.0774-8.55767-3.36161-4.58092-9.83285-6.43959-15.07157-3.23461Z" fill="#a6d67c"/>
      </g>
      <g id="leaf_3_right_hi" data-name="leaf 3 right hi">
        <path d="m200.28527,262.62536c-.67163.49588-.80241-.43146-2.42377-.1243-.57048.10808-1.63184.84528-2.6681,1.77207-.23759.2125-1.96489.62652-2.38693.93071-.49738.3585-.76552,1.47209-1.78196,1.89693-1.17773.49225-1.46976.10818-2.87413.17245-.82493.03775-2.79347,1.21594-3.04658,1.26462-1.49455.28741-2.98909-.3449-4.0616.14868-.55534.25557-1.23335.75641-1.90423.73832-.273-.00736-.93258-.40619-1.81931-.32576-.22301.02023-.44186-.06801-.61418-.236,2.93678-4.50911,6.48622-3.38878,10.00263-5.876,4.97161-3.5165,7.97702-2.7659,9.74078-2.56547.72382.08225,2.59416.48828,3.01504.8679.69959.63101,1.06008,1.16032.82234,1.33585Z" fill="#a6d67c"/>
      </g>
      <g id="root_main_fade" data-name="root main fade">
        <path d="m173.00023,335.87494c-.48242,0-.87402-.39062-.875-.87305-.00146-.75342.0249-3.22803.0249-3.22803l1.75.01855c0,.00049-.02637,2.45801-.0249,3.20605.00103.48342-.3911.87634-.875.87646Z" fill="url(#linear-gradient)"/>
      </g>
      <g id="bud_flower_1" data-name="bud flower 1">
        <path d="m179.60982,238.41747c-.49069,0-1.78334.0114-3.24011,4.38139-1.05731,2.57323-3.55014,6.17493.17013,7.18496.87955.32152,1.73417,1.05409,2.89441.63696,1.0498-.31111,3.02737-1.96088,3.713-2.83208.81093-1.03041,2.52301-4.55092,2.16484-5.85846-.81424-1.94802-2.75546-.8413-4.14258.38141.19973-1.76308.32353-3.74534-1.55969-3.89418h0Z" fill="#2e541a"/>
        <g>
          <path d="m181.5385,236.39442c-1.81961-.08006-2.24466,2.8118-3.1198,4.07663-.57816.89979-3.28822,5.36671-.88832,7.44355.45216.38778.99751.59277,1.5771.59277,1.87317,0,3.55872-2.06825,5.10115-4.30331.73819-.9875,1.96561-3.57536,1.58732-5.69132-.39875-1.55761-1.51616-2.02274-2.78436-1.74772-.33974-.18864-.7709-.37059-1.4731-.37059h0Z" fill="#726400"/>
          <path d="m179.45175,241.17558c.78471-1.08842,1.32265-3.52473,2.06304-3.53105s.91757.28478,1.2403.39237.82008-.28542,1.3289.00003c1.29725.72776-.05072,4.26515-.67722,5.13209s-3.373,5.24594-5.06257,3.79676,1.10754-5.7902,1.10754-5.7902Z" fill="#f2e05c"/>
        </g>
        <g>
          <path d="m179.61397,238.91747c-.94464-.00021-1.87621,1.35886-2.76993,4.03952-.43755,1.19738-1.60425,3.18628-1.75959,4.3408-.204,2.18093,1.37804,1.9158,2.32308,2.52006.43435.3017,1.24639.56164,1.88458.32361.86097-.2552,2.76867-1.78074,3.46224-2.662.82481-1.04807,2.36726-4.35201,2.07552-5.41713-.9411-1.88956-3.09473.55479-4.37209,1.46918.25555-1.68767.94039-4.41871-.84381-4.61404h0Z" fill="#2e541a"/>
          <path d="m184.0301,242.15768c-.70105-.27136-2.39504,1.51455-3.66303,2.36963-.35662.24049-.95237.9412-1.53598,1.7193.21039-.42357.37987-.81205.47025-1.08318.335-1.00494,1.22898-5.31867.37218-5.49007-.73717-.14747-1.78296,2.51587-2.11796,3.52081s-1.54855,3.06968-1.73029,4.22059c-.18997,1.203.75347,1.23615,1.41049,1.47978.66625.24705,1.02816.76952,1.84318.5279.65358-.19376,2.43091-1.57439,3.08604-2.40682.98045-1.24582,2.32215-4.68102,1.86512-4.85794Z" fill="#95c172"/>
        </g>
      </g>
      <g id="bud_flower_2" data-name="bud flower 2">
        <path d="m169.722,235.06581c-1.87263.20885-1.63831,2.14804-1.16473,3.93501-1.43081-.86127-2.92268-1.80138-4.02911-.52167-.32695.44065-1.19561,1.61106,2.41989,5.06687.92802.95726,2.20272,2.82495,3.23839,3.49611,1.39731,1.01464,2.75522.23135,3.51796-.78388.62712-.5235,1.37712-.78239,1.62537-2.14438.16668-1.0822-.48101-3.57479-.97615-4.56673-.47896-.9595-3.10876-4.48132-4.63161-4.48132h0Z" fill="#2e541a"/>
        <g>
          <path d="m166.48715,233.12094c-1.11494-.08084-2.08829,1.01349-2.16023,1.84305-2.67712,2.11487.057,3.75851,1.39075,5.73541.45312.72414,2.72959,4.20147,5.25286,4.21404,1.07834.01023,2.11541-.66784,2.42945-1.71297.84339-2.61262-2.97627-9.81725-6.91283-10.07953h0Z" fill="#726400"/>
          <path d="m166.79577,240.06596c-.64928-1.17425-2.62282-2.70073-2.31247-3.37297s.64923-.7082.88429-.95412.09197-.86345.56731-1.20173c1.21189-.86244,3.83535,1.86659,4.35189,2.80322s3.30406,5.28963,1.27231,6.1989-4.76333-3.4733-4.76333-3.4733Z" fill="#f2e05c"/>
        </g>
        <g>
          <path d="m169.722,235.56581c-1.83044.26935-.68372,2.96043-.36668,4.5943-1.40243-.9281-3.35736-2.56457-4.42561-1.38304-.61881.8339.17648,2.31677,2.36381,4.4075.896.90749,2.19656,2.81046,3.17429,3.44423.37878.25787.7567.38864,1.12321.38864.91917-.0267,1.30615-.6537,1.76369-1.11642.59724-.52813,1.27468-.69494,1.48087-1.86329.13671-.88753-.42847-3.2639-.92933-4.2673-.49179-.98518-2.98766-4.20462-4.18425-4.20462h0Z" fill="#2e541a"/>
          <path d="m169.63831,236.34497c-.54466.51813.34721,2.81239.57918,4.32406.06525.42516.44458,1.26302.89909,2.12294-.29323-.37107-.57219-.69017-.77878-.88764-.76577-.73194-4.28507-3.38183-4.80582-2.68019-.44804.60368,1.514,2.68632,2.27976,3.41826s2.11488,2.71076,3.07808,3.36642c1.00678.68533,1.4395-.15367,1.94029-.64382.50782-.49703,1.13479-.60128,1.26421-1.44145.10379-.67375-.38602-2.87037-.85912-3.81816-.70807-1.41845-3.24178-4.09819-3.59688-3.76042Z" fill="#95c172"/>
        </g>
      </g>
      <g id="flower_1" data-name="flower 1">
        <g id="flower_1_back" data-name="flower 1 back">
          <path d="m159.88953,253.94745c-.03202,1.169-.12022,4.38854-.15311,5.58862,2.30422,3.37153,5.24992,5.51756,7.2648.51014.57723-1.19061-.56832-3.64477-2.24617-5.67196-1.19299-.10467-3.68643-.32337-4.86552-.4268h0Z" fill="#2e541a"/>
          <path d="m160.45313,245.46971c-2.21649-.13923-3.44806,1.92225-3.35703,3.86797.03127,1.22334.88972,1.72671,1.50524,2.32418-.00855-.00139.17045.333.22356,1.40639.00571.11388.01698.25168.03247.41127-1.35845-.1762-3.26048.61559-4.6769.9216-.80812.08822-1.77221.017-2.56533.77804-.56414.56415-1.48918,1.71369-1.34596,3.074.06092.56454.14902.90697.21706,1.17464-.24665.53812-.81857,1.75282.02893,2.76227.53277.66151.88358,1.5905,2.15934,1.60297l.1002-.00638c.49683-.00803,2.03207-.61495,2.64334-.72684.96533.00127,2.39372-1.05752,2.96638-1.75235.07242,1.5373-1.50364,3.47144.57136,5.00964,1.26159.80209,2.0166,1.43846,3.45165,1.60292,1.16914.00304,3.1681-.93617,3.6721-2.42586.98123-2.07357,1.21904-5.05471-1.26675-7.28394-.05147-.10622-.10408-.20775-.1579-.30461.31368-.01469.74094.00055,1.03105.01335,1.11055.02284,2.8633-.81683,3.80993-2.08814.8784-1.19465,1.13139-3.4768.95153-4.35825.81846-3.62552-2.18576-3.89083-5.37877-3.0731-1.14042-1.98081-2.62709-2.9397-4.61551-2.92975h0Z" fill="#726400"/>
        </g>
        <g id="flower_1-2" data-name="flower 1">
          <g>
            <path d="m160.3748,254.49194c-.01972.71917-.11289,4.12036-.13388,4.88632,1.96375,2.80352,4.4994,5.09315,6.29111.49506.5143-1.38524-.90286-3.56464-2.04079-5.0203-.79888-.07007-3.341-.29307-4.11644-.36108h0Z" fill="#2e541a"/>
            <path d="m164.09553,255.5712c.84009,1.10262,2.10023,3.04533,1.73269,4.04294s-1.05011,2.20524-1.99522,2.15273-2.83531-2.62528-2.83531-2.62528l.10501-3.83292,2.99282.26253Z" fill="#95c172"/>
          </g>
          <g>
            <path d="m160.45306,245.96971c-1.93305-.12803-2.92912,1.65808-2.85697,3.36797.022.99342.82772,1.43612,1.37415,1.98668.01158.01255.28426.32312.35405,1.71901.07143,1.02273.35726,2.93305.34989,3.91136.09001,1.6679,1.34498,2.19576,2.37185,2.54705.22371-.39151,1.04442-1.82774,1.28214-2.24376.07494-.17055,1.31574-3.01452,1.64871-4.39312.33931-1.43274.10848-2.48739-.13592-3.60396-.65713-2.04292-2.50032-3.35413-4.38789-3.29121h0Z" fill="#726400"/>
            <path d="m159.40927,246.90707c.58684-.27085,1.50288-.21378,2.21332-.04463s2.23839,1.42824,2.4752,2.51082.45372,2.03327.14925,3.31883-1.59003,4.22882-1.59003,4.22882l-.94725,1.6577s-1.28556-.47363-1.28556-1.62387-.31699-3.2722-.35082-3.94881-.14606-1.75049-.55202-2.19029-1.17528-.86905-1.17528-1.478c.00216-1.03891.23615-1.86132,1.06321-2.43057Z" fill="#f2e05c"/>
          </g>
          <g>
            <path d="m167.74538,248.52689c-.56411,0-1.24049.07191-2.01033.21373-2.46547.45413-4.62297,3.67844-4.85429,5.2516-.20874,1.48977.28364,3.1233.40569,4.50166.62158.29575,1.57288.74835,2.19576,1.04472.11532-.53834.36366-1.72138.59195-2.06857.056-.06238,1.29539-.08818,1.62219-.05107.96324.0201,2.55545-.75507,3.39669-1.8843.83192-1.13145,1.02474-3.4119.84825-4.02969.29682-1.71544.21686-2.99226-2.19589-2.97809h0Z" fill="#726400"/>
            <path d="m161.99273,257.99937c-.05524-.57998-.55577-2.6346-.36997-3.89803.19019-1.29332,2.14915-4.23649,4.24814-4.62315s3.23196-.18957,3.39767.3628-.15892,1.48336-.04845,1.87002-.04089,2.44033-.73135,3.37935-2.114,1.60623-2.77684,1.57861-1.75212-.06697-2.11116.20921-.64666,1.57861-.64666,1.57861l-.96139-.45741Z" fill="#f2e05c"/>
          </g>
          <g>
            <path d="m158.43568,253.93803c-1.10822.04218-3.02104.68738-4.17236.95624-.741.09064-1.64403.00801-2.29464.63847-.50113.50114-1.3237,1.51415-1.20224,2.66805.06911.63413.15401.87728.2455,1.27953-.26791.61324-.79661,1.53613-.11509,2.38682.48939.57995.76119,1.41515,1.75678,1.4259l.07941-.00464c.45974-.00756,2.09603-.65942,2.6441-.72678.82588.00006,2.32899-1.08832,2.73102-1.72009.41555-.70007,1.02758-1.5475,1.18304-1.56638.20263-.12386,2.50961.03983,2.33575.0489.00002-.00004.11521.01275.11521.01275.41614-.08263,1.15509-.22958,1.57008-.31204-.05584-.53038-.13961-1.32627-.19534-1.8557-1.37936-.83354-3.18022-3.27873-4.68123-3.23102h0Z" fill="#726400"/>
            <path d="m162.40892,257.60748c-.9438-.6006-2.9172-3.003-4.0326-2.9172s-3.4749.858-3.9897.9438-1.4586,0-1.8876.429-1.0725,1.2441-.9867,2.0592.2574,1.1154.2574,1.4157-.7722,1.287-.3003,1.8447.6864,1.2012,1.2012,1.1583,2.1879-.7293,2.7027-.7293,1.8018-.9009,2.1021-1.3728.9438-1.5873,1.5015-1.8447,2.73283-.01558,2.73283-.01558l.78497-.15602-.0858-.8151Z" fill="#f2e05c"/>
          </g>
          <path d="m162.58373,258.73187c-.29004,0-.53955-.19971-.60693-.47705-1.90659-1.26309-4.62271-2.113-6.68891-4.02352-.6058-.5447.21838-1.47451.83201-.9325,1.42136,1.26706,3.27292,2.17575,4.62497,2.83884,1.55127.76123,2.40576,1.18018,2.4624,1.92139.02936.3612-.26198.6743-.62354.67285Z" fill="#2e541a"/>
          <g>
            <path d="m162.51744,256.86423h-.01529c-.8216.01042-1.28394.56322-1.53073.8746-1.33179-.04663-1.86838.58196-1.91582,1.09515-.34811,1.77744.05318,2.37069-.35655,3.78362-.27794.90737-.743,2.42602.53546,3.28438,1.23024.78154,1.84308,1.32293,3.17293,1.51807,1.00703.00136,2.78969-.83268,3.20882-2.11394.77209-1.49343,1.21223-4.61118-.86053-6.41148-.71547-.63722-.74173-1.9059-2.23829-2.03041h0Z" fill="#726400"/>
            <path d="m162.48894,257.6148c-.78079.03187-.95468.8764-1.30663.8764s-1.30035-.07131-1.3863.4621c-.26595,1.65046-.10323,2.34721-.19121,3.13909s-1.04791,2.45124.04778,3.1869c1.11544.74892,1.49977,1.00241,2.50173,1.35443.58959.20715,2.32074-.49962,2.70888-1.46598.38384-.95565,1.14728-2.62919.27089-4.52539-.41271-.89296-1.19997-1.38306-1.4341-1.86433-.28682-.58958-.67626-1.18504-1.21102-1.16322Z" fill="#f2e05c"/>
          </g>
        </g>
      </g>
      <g id="flower_2" data-name="flower 2">
        <g id="flower_2_back" data-name="flower 2 back">
          <path d="m177.23776,245.71619c-1.89131.11121-3.53938,1.54971-3.87046,3.26211-.08013.58742.13755,1.27376.86264,2.71897.15593.88594.21606,1.88467.79106,2.85826-1.85559.60456-3.84292,2.29908-3.82865,4.44477-.00006.91246,1.23821,2.76173,3.50919,2.92897,1.57306.63415,4.21362,1.38058,5.5752.00357.20451-.19702.38618-.40424.54518-.62158.06775,1.28772.22466,1.86441.63042,2.27017.66295.66296,2.07556,1.12497,2.92871,1.12497l.09982-.00189c3.23216,1.19486,5.93077-2.2344,3.89938-5.16205,2.2629-1.3573,1.90086-3.31664,1.82733-5.72709.00003-1.77459-3.19075-3.01794-3.22298-3.026-2.22413-.60527-3.65993-.7074-4.90184,2.07385-.01799-.12364-.05086-.81079-.03488-2.4695.00768-1.06162-.61067-1.83902-1.06837-2.75285-.8987-1.64302-2.61642-1.80532-3.74175-1.92468h0Z" fill="#726400"/>
        </g>
        <g id="flower_2-2" data-name="flower 2">
          <g>
            <path d="m189.73448,254.6568c-.01398-.33673-.02686-.63928-.02686-.84143-.04241-1.37715-2.68013-2.51555-2.9511-2.56875-2.71034-.76076-3.34359-.25536-4.77309,2.98904-.61175-2.14119-.37444-.39673-.43564-3.84679.01276-.9026-.59842-1.68327-1.0137-2.52076-.66413-1.3017-2.17737-1.51184-3.08149-1.63745-.66341-.09569-1.42824.29848-1.91644.55103-.73928.26285-1.54659,1.52253-1.67354,2.26411-.08053.43317.20802,1.23855.84852,2.4956.16807.92972.22925,2.13974.92737,3.02936.36126.45557,1.75201.98322,2.39068,1.20752.33137.23743,1.46538,1.70159,2.01422,2.4787l.4317-.17981c.28398.11847,2.11351.8657,2.81666,1.05547.58684.15138,2.48485.15907,2.85937.15907.87921,0,1.43835-.02588,1.66187-.07697,1.12061-.25616,1.76215-1.64105,1.89728-2.27155.09259-.43213.06842-1.22021.02417-2.28638Z" fill="#726400"/>
            <path d="m188.95763,253.81537c0-.65588-1.96759-1.73615-2.27625-1.81329-.30859-.07715-1.40814-.40509-2.17975-.27008-1.09348.35467-1.81698,3.48891-2.71997,4.2738-.31354-.92944-.87067-2.60065-.92584-2.90417-.07721-.42438-.06274-2.21252-.05792-2.71991.00616-.63995-.44958-1.22754-.93188-2.17279-.48224-.94519-1.69293-1.12097-2.51654-1.23541-.5285-.07336-1.34216.42249-1.70203.59186-.32794.1543-.98376,1.15741-1.04163,1.58179-.05792.42438.58325,1.67303.77612,2.05884.19293.38574.16016,2.03613.84424,2.89868.22101.27869,1.65894.82947,2.1026.98383.44366.1543,1.97192,2.24878,1.97192,2.24878l.42407-.1767.13104.26202s2.02545.82947,2.62341.98376c.59802.15436,3.75299.17175,4.16669.07715,1.84125-.75034,1.30996-3.06222,1.31171-4.66815Z" fill="#f2e05c"/>
          </g>
          <path d="m180.16039,257.71478c-.54146.01913-.84536-.71353-.42917-1.07911.20212-.1914.44138-.37011.73776-.58788.71045-.52344,1.78467-1.31445,3.51904-3.33887.22412-.26123.61816-.29248.88135-.06787.26221.22461.29248.61914.06787.88135-1.82715,2.13281-2.9707,2.97461-3.72705,3.53174-.41293.23859-.60221.63315-1.0498.66064Z" fill="#2e541a"/>
          <g>
            <path d="m183.39761,255.96262c-.47849,0-.85628.23181-1.08406.40782-.65266-.12577-1.40023.16898-1.52626.5776-.31508.49383.31872,1.3655.46664,1.91567.01324.13115.01831.4917.02368.87344.03174,2.25455.11253,3.07504.52824,3.49075.55107.55106,1.83684.97852,2.57523.97852.63805.03561,1.3081.37121,2.03634.17678,1.12002-.21187,1.87966-1.04277,2.13905-2.33959.27272-1.36368-.92609-2.84312-1.66597-3.37459-.38928-.48318-.99595-1.35055-1.35211-1.60174-.57519-.40945-1.3525-1.07867-2.14078-1.10467h0Z" fill="#726400"/>
            <path d="m181.45808,257.28337c.18091-.36182.99529-.04587,1.18276-.20991s.58585-.49211,1.03109-.30464.98422.56241,1.40603.89048,1.15953,1.47136,1.34322,1.59658c.65543.44678,1.58732,1.70327,1.39985,2.64062s-.67596,1.58577-1.54302,1.74981-1.23598-.21432-1.84526-.19089-1.72162-.38292-2.09656-.75786-.27364-3.29852-.33727-3.91891c-.04127-.40242-.61115-1.35469-.54085-1.49529Z" fill="#f2e05c"/>
          </g>
          <g>
            <path d="m175.7522,254.98376c-.80133-.02351-1.19349.27946-1.76772.63982-1.13451.47603-2.36644,2.10418-2.29211,3.37678-.00011.64902,1.08095,2.30536,3.08487,2.43293.69334.19805,1.64708.70138,2.39991.6844.93308.09021,2.08733.20718,2.74601-.53834.72412-.69781,1.12486-1.52753,1.2178-2.49196.19622-.50252.96876-1.47838.84815-1.95033-.06164-.52426-.43159-.96704-1.02186-1.2298-.54064-.89872-1.9177-.6857-2.85262-.62257-.77612-.03492-1.53016-.31293-2.36243-.30092h0Z" fill="#726400"/>
            <path d="m179.9088,256.01062c-.68292-.15176-1.43972.09929-2.18441,0s-2.17824-.52269-2.82363-.07588-1.54123.79914-1.98804,1.59347-.47045,1.27348-.47045,1.47206.71327,1.57829,2.38261,1.68452c.45679.02907,1.60758.68292,2.35226.68292s1.58771.30928,2.21568-.31869c.15176-.15176.8802-.77397,1.00161-2.03357.04313-.44749.8802-1.53276.84985-1.79075-.04447-.378-.47045-.59186-.66774-.66774-.15581-.05993-.34419-.47443-.66774-.54633Z" fill="#f2e05c"/>
          </g>
        </g>
      </g>
      <g id="flower_4" data-name="flower 4">
        <g id="flower_4_back" data-name="flower 4 back">
          <path d="m172.72035,242.77678c-.51193.00395-.91596.21856-1.30174.39308-.37336.03563-2.03718,1.04019-2.56165,1.23648-.36255.05907-1.08366-.07554-1.3493-.1489-1.71712-.46036-3.67741-.12356-3.73395,2.1594-.72383-.22003-1.85187-.29211-2.45368.22426-.09769.07579-.26792.16633-.41811.24621-.39478.20998-.88609.47128-1.11026,1.02455-.02536.06256-.06679.18436-.11845.34518-.28732.8942-.44896,1.20206-.53394,1.30283-.95637.8789-1.74551,1.64927-2.03299,2.93844-.2045.53051-.50785,1.31783-.05408,2.02353.29876,1.16647,1.14584,1.36462,1.61372,1.3586.59335-.01126,1.20592-.25403,1.77789-.41382,1.46944.18627,2.37993-.58577,3.1293-1.72568.88169.67132,1.96171,1.20108,3.1431,1.25972.5802.02337.99437-.24982,1.57775-.28968,1.8073-.00854,3.7883-2.30075,3.12654-4.22213-.11749-.33404-.50993-1.07963-1.03169-1.78462,1.64563.08611,2.74821-1.05662,3.45746-2.42418.96148-1.56081.46142-3.41342-1.12593-3.50328h0Z" fill="#726400"/>
        </g>
        <g id="flower_4-2" data-name="flower 4">
          <path d="m165.21751,249.10687c-.25049,0-.4873-.15186-.58301-.3999-.90039-2.33105-3.85449-4.34619-4.82471-5.00879-.28516-.19434-.35889-.58301-.16406-.86816.19336-.28564.58398-.35938.86816-.16406,1.82275,1.24316,4.354,3.17578,5.28662,5.59082.12451.32178-.03564.68359-.35791.80811-.07373.02881-.1499.04199-.2251.04199Z" fill="#2e541a"/>
          <g>
            <path d="m173.36455,243.51251c-.43405-.45805-1.308-.12375-1.80017.13855-.27088-.009-2.09292,1.07826-2.53699,1.22534-.38158.13141-1.40057-.06141-1.64861-.13581-1.85508-.40914-3.18815-.17727-3.14612,2.35816-.6605-.2716-1.94837-.60097-2.60614-.06261-.44248.33447-1.15541.50511-1.3714,1.06328-.16214.42986-.41649,1.4085-.74872,1.7998-.93882.86699-1.6624,1.55937-1.93348,2.7788-.2066.53589-.44067,1.14337-.04229,1.65485.10879.64801.55055,1.06214,1.13531,1.04755.51859-.00437,1.21913-.29179,1.74133-.41907.4952.10434,1.53604-.12332,1.52622-.21461,1.53553-1.11696,2.41484-3.15868,2.26608-4.96227.02449-.23693.32574-1.03698.62158-1.65411.48727.16481,1.12373.4071,1.58508.33539.91742.00528,3.01904-.03031,3.11493-.19092.58548-.09924,1.5197-.03784,2.09662-.27767.80048-.31034,1.33142-1.19438,1.79993-1.97441.63786-.97405.47754-2.06077-.05316-2.51025Z" fill="#726400"/>
            <path d="m164.97258,247.38838c.00743-.23846.01518-1.73536.43121-1.90527,1.53279-.50845,2.32618.49748,3.88028.09801.60359-.21986,2.19392-1.17095,2.41489-1.1916s.94778-.5121,1.16662-.31708c.79174.69836-.78838,2.94476-1.51892,3.22551-.58083.22514-1.7204.11617-2.12049.28731s-2.68825.09521-2.95136.14209-1.30224-.33897-1.30224-.33897Z" fill="#f2e05c"/>
            <path d="m164.11857,247.86187c-.4329-.20764-1.60818-.56228-2.03227-.2332s-1.04205.52052-1.13614.7526-.44186,1.55467-.90134,2.03591-1.42886,1.25823-1.55482,1.85716-.58782,1.32022-.37168,1.59773.08842.7691.55878.75822,1.49575-.45404,1.75526-.42041.86887.0416,1.10676-.10344c1.16389-.76234,2.09969-2.94549,1.91415-4.20631-.10464-.41196.66131-2.03827.66131-2.03827Z" fill="#f2e05c"/>
          </g>
          <g>
            <path d="m165.94086,245.84859c-.98557.08265-1.52139,1.0242-2.508,1.31539-1.47437.58327-.83099,2.49367-.59793,3.55556.20971,1.01745.40532,2.46023,1.65526,3.04175.70714.36345,1.43835.73928,2.22604.73928.54157.01269.98106-.2651,1.51947-.28615,1.5638.00078,3.24261-1.97473,2.71316-3.55969-.26828-.76281-1.56683-2.79294-2.52772-3.01647-.33551-.07805-.82932-.46683-.94983-.66043-.19232-.30888-.70308-1.12926-1.53046-1.12926h0Z" fill="#726400"/>
            <path d="m163.6892,247.86892c-.82528.30008-.2928,1.90184-.12134,2.6915s.31328,2.04595,1.15948,2.47957,1.72113.91338,2.49947.62091,1.47872-.08996,2.02114-.5557,1.28245-1.3796.99336-2.20164c-.28157-.80066-1.466-2.41285-1.99009-2.53477s-1.18682-.62542-1.41664-.99457-.66457-1.00635-1.17215-.69035-1.10415.86905-1.97324,1.18506Z" fill="#f2e05c"/>
          </g>
        </g>
      </g>
      <g id="flower_3" data-name="flower 3">
        <g id="flower_3_back" data-name="flower 3 back">
          <path d="m163.10918,252.77182c-1.89083.01976-3.14314,2.06043-2.35979,3.97902-.70711-.93389-2.16601-1.2223-3.17913-.85278-.15108.04633-.2492.04943-.44303.05892-2.38954-.04268-3.46882,1.93097-3.47253,3.53829-.21958.71139-.5869,1.7891-.48507,2.32233.09342.79489.85607,1.88721,1.75614,2.41217-.77566.91128-1.33658,2.7161-1.43333,3.2865-1.49433,2.8164,2.02412,3.28425,3.91941,3.24862.61085-.00168,1.04272-.04987,1.42509-.16888,1.03993-.28985,2.78817-.88684,3.59584-2.26383.22916,1.45197,1.88037,2.01031,2.95608,2.35513.5922.18021,1.18892.41692,1.90958.42133.55524,0,1.02882-.16031,1.40759-.47647.73099-.61026,2.02045-2.94687,1.24493-4.20111-.16539-.26755-.30565-.68109-.3255-.81284-.06489-.91818-.83524-3.31233-2.91238-3.20419,3.18217-1.72319,1.23076-6.11742.66454-7.22295-.50156-.97561-2.20508-2.4192-4.26844-2.41926h0Z" fill="#726400"/>
        </g>
        <g id="flower_3-2" data-name="flower 3">
          <g>
            <path d="m163.10915,253.2718c-2.26814.08824-2.89079,3.14039-.84401,4.52768-.49058,1.03851-.64733,2.15916-.49386,3.44902.07578.41366-.38012,2.08112-.67898,2.92435.88085.63108,2.5318,1.81398,3.40628,2.44055.14574-1.09012.4652-3.27867.67126-3.94324.87848-.4392,2.15989-.95719,2.67038-2.25984.68563-1.85556-.89122-4.95942-.90722-4.99057-.3851-.74898-1.90207-2.14795-3.82385-2.14795h0Z" fill="#726400"/>
            <path d="m162.92894,254.02681c-1.06884.21665-1.64167,1.66967-.69737,2.71524.5959.63554.97764.6673.75732,1.26354-.47269,1.03666-.60952,1.92001-.47699,3.1246.11882.7434-.53629,2.75289-.53629,2.75289l1.95307,1.39936s.40379-2.86745.65214-3.12544,2.101-.77569,2.55586-2.00664-.41282-3.4971-.87069-4.38767c-.28943-.56295-1.64076-1.83045-3.33705-1.73588Z" fill="#f2e05c"/>
          </g>
          <g>
            <path d="m158.60513,256.2384c-.62712-.00168-.89127.21086-1.45145.2179-1.86825-.06624-2.98768,1.39964-3.00064,3.07922-.15623.63246-.59096,1.77879-.48687,2.22358.09157.77868,1.10036,2.03091,2.00649,2.24462.53848.12701,3.28038.67166,4.21309.73007.37479-.0013,1.45231,1.13549,1.8654,1.7262.89562-.51064,2.73578-1.56458,3.62558-2.0733l-.69249-.69394c-.0002-.00021-2.16852-2.17307-2.67677-2.69247-.39114-.39969-.6461-1.05881-.69582-1.5033-.02124-.92478-.87357-3.35963-2.70653-3.25858h0Z" fill="#726400"/>
            <path d="m155.9961,257.45267c.57783-.30611,1.27049-.20591,1.69204-.29608s1.10388-.39269,1.82212.13489c1.43047,1.21902.66807,2.99086,1.96121,4.23331.5092.52045,2.68189,2.6977,2.68189,2.6977l-2.21625,1.26793s-1.15331-1.45184-2.0045-1.50517-3.48909-.57026-4.0878-.7115-1.37775-1.12557-1.43383-1.60229.45915-1.69866.48961-2.07552c.07686-.95097.2874-1.71519,1.09549-2.14327Z" fill="#f2e05c"/>
          </g>
          <path d="m163.57933,265.32318c-.21631,0-.42676-.1123-.54199-.31299-.75375-1.29844-2.99862-2.65188-4.54053-3.68995-.67558-.4566.01702-1.49253.6973-1.03708,1.01837.67652,6.88467,4.31807,4.38522,5.04001Z" fill="#2e541a"/>
          <g>
            <path d="m164.05841,262.66931c-.79082-.00009-.97166.76644-1.03972,1.05502-.249.23779-.7837.53122-.5704,1.3255.11932.39119.42771.64763.61323.96243-.27077,1.1702-.39406,2.67456.51692,3.29193,1.26829.79073,2.30497,1.13199,3.71998,1.3046.43497-.00013.80074-.12138,1.08716-.36045.60303-.50348,1.7193-2.61746,1.14009-3.55432-.22939-.371-.38878-.89392-.39763-1.02484-.22865-1.82403-1.22327-3.22832-3.67036-2.65095-.43871.04853-.97875-.38246-1.39928-.34892h0Z" fill="#726400"/>
            <path d="m164.49248,263.54939c-.54617-.22887-.61926-.18092-.74383.34712s-.70596.54868-.5858.92541.76289.79303.63832,1.32107-.43275,2.11285.19802,2.54037,1.121.62321,1.74027.80413,1.64491.61971,2.1655.18509,1.26018-2.13546.98279-2.58412-.50571-1.12344-.50944-1.40303-.41977-1.76784-1.11283-1.93133c-1.23035-.32501-1.75877.30848-2.77301-.2047Z" fill="#f2e05c"/>
          </g>
          <g>
            <path d="m157.67873,263.42227h-.04169c-.64981.07284-1.82574.09176-2.7812,1.81833-.72992,1.36718-.66046,1.80379-.96122,2.57909-1.50213,2.73454,3.87671,2.58085,4.7992,2.2973.91693-.27413,2.30263-.68834,3.13939-1.78908.31475-.40287.64187-1.2141.96992-1.56986.48563-.48093,1.22881-.83748,1.18189-1.68472-.15024-1.01047-.9889-1.03213-1.67743-1.26668-.20688-.10976-.53521-.23285-.80606-.22254-.62361-.02036-1.05795.42503-1.53524.55016-.56457-.18895-2.02154-.78244-2.28757-.71201h0Z" fill="#726400"/>
            <path d="m161.6607,264.35252c-.60652-.14308-1.12246.59666-1.78286.52714-.31706-.03337-1.87305-.74578-2.23115-.70573s-1.40457.04222-2.12706,1.41582-.7312,2.04394-.85629,2.36308-.45004.64095-.14493,1.03667,3.0252.68874,3.90944.42416,2.10607-.61587,2.80831-1.53965c.28819-.37911.63525-1.23416,1.02964-1.6392s1.00044-.72507.97142-1.10423c-.02109-.27555-.44775-.46006-.76556-.48522s-.55144-.23163-.81094-.29284Z" fill="#f2e05c"/>
          </g>
        </g>
      </g>
    </g>
  </g>
</svg>