<?xml version="1.0" encoding="UTF-8"?>
<svg id="Layer_2" data-name="Layer 2" xmlns="http://www.w3.org/2000/svg" xmlns:xlink="http://www.w3.org/1999/xlink" viewBox="0 0 394 469">
  <defs>
    <linearGradient id="linear-gradient" x1="173.29466" y1="334.8168" x2="173.29466" y2="331.60261" gradientUnits="userSpaceOnUse">
      <stop offset="0" stop-color="#fff"/>
      <stop offset=".34875" stop-color="#fff"/>
      <stop offset=".90503" stop-color="#fff" stop-opacity="0"/>
      <stop offset="1" stop-color="#fff" stop-opacity="0"/>
    </linearGradient>
  </defs>
  <g id="CASE_13_Plants_LN_WL_CL" data-name="CASE 13 Plants LN WL CL">
    <g id="Day_12" data-name="Day 12">
      <g id="rectangle">
        <rect width="394" height="469" fill="none"/>
      </g>
      <g id="ROOTS_BACK" data-name="ROOTS BACK">
        <path d="m174.25157,334.82965c.2052-1.55686-1.86922-2.00287-2.39771-.73126-1.02795,1.19922-2.85657,1.80695-4.47119,2.12201-1.38391.22974-7.55469,2.64117-6.05255,4.47534.38159.47925,1.08337.55328,1.55713.16528,1.98242-1.83832,4.59918-2.12372,6.99109-2.88501-.40167.16077-.83405.31573-1.28601.47583-1.56714.50854-3.42346,1.60944-3.94183,3.38171-.41632,1.3454,1.55042,2.04382,2.07336.73462.76622-1.89387,3.24796-1.90216,4.90338-2.776-1.13733,1.07501-1.88226,2.24091-3.07245,3.2005-1.3858,1.13367-3.11786,2.39557-3.75891,4.25342-.48517,1.34308,1.4903,2.11621,2.04773.8042.58638-1.47754,1.92541-2.2441,3.17664-3.27795.63019-.47345,1.20367-1.08087,1.76019-1.69055.00116.10126.0022.20245.00336.30389-.41516.66669-.71252,1.52081-.98499,1.98254-.35541.76703-.67834,1.33221-1.12885,1.672-1.60254,1.0542-2.48834,3.34467-2.75183,5.06519-.31592,1.41339,1.77789,1.9129,2.13855.51593.36951-1.64789.64978-2.81671,1.98303-3.78894.31915-.24951.57428-.52386.80426-.80774.00598.42328.01196.84369.01788,1.26245-.66235,1.87738-2.72711,3.58081-2.94702,5.75244-.21277,1.43347,1.91034,1.78345,2.16998.36151.11896-.67023.44489-1.29095.83514-1.90088.20052,1.19278-.59336,3.53842,1.06652,3.68046,1.1505-.0227,1.09708-1.16185,1.07398-2.02421.95825.78467,2.21741,1.3089,2.80334.09888.20715-.57111-.08789-1.20203-.659-1.40918-1.26544-.43701-1.73242-1.58978-2.09052-2.84412.00403-.28564.00818-.57617.01227-.86542.46356.44128.99176.82104,1.55225,1.10913,1.02203.63971,1.42444,1.54974,1.71741,2.79547.35382,1.39581,2.43536.91309,2.14294-.49353-.29272-1.75024-1.48151-3.70618-3.21832-4.50641-1.27124-.78619-1.52277-1.79224-2.13434-3.20941.00122-.09216.0025-.18433.00372-.27649,1.65027,1.95844,4.56317,2.37524,5.56226,4.87714.66064,1.28204,2.58663.33615,1.97406-.97083-.71893-1.7597-2.56519-3.33044-4.17389-4.1217-1.71851-.87506-1.97345-2.08954-3.32031-3.46375,0-.00281,0-.00549.00006-.0083.72717.53125,1.52039.98755,2.38977,1.30975,1.58075.5434,2.87152,1.01764,4.02881,2.17548,1.021.98969,2.5448-.53564,1.55579-1.55566-1.42523-1.57178-3.40271-2.16846-5.20526-3.04895,1.60931.42413,3.28674.58612,4.63501.58447,1.42737-.09637,1.33875-2.21802-.08899-2.19727-1.74054.00183-3.67621-.41101-5.33118-1.1604.82153.10223,1.64917.15448,2.41711.2616,1.82416.20789,4.0545.32898,5.57483,1.17792.51514.34442,1.21729.19623,1.54559-.33038,1.44434-3.42334-9.43073-2.63831-11.50232-4.25482Z" fill="#4c4c4c"/>
      </g>
      <path d="m189.34209,329.3905c-.70666-1.86671-4.52687-1.66252-6.38983-.46515-1.29932.29553-2.31415.37341-3.1499.35016-1.39201-1.57237-3.34859-1.90295-6.422-1.25018-2.00167-.47878-5.26143.40867-6.1289,2.13989-.36544.80361.32548,1.68065,1.09692,1.70807.69055,1.20835,2.60373.69545,3.77319.27356-.33095,1.07056-.95561,3.51759.87868,3.60311.69041-.00002,1.24998-.55959,1.24998-1.25002,0-.72607.13574-2.46582,1.39258-2.94189.53857-.20459,1.00635-.14551,1.92969-.00146,1.23004.19098,2.88708.43536,5.52917-.10632.92677,1.10838,2.99452,1.13666,4.30921.5348.22655-.0984.78991-.34315.93993-.91145.12555-.04608.24536-.1015.35748-.18152.79028-.56433.70648-1.2381.63379-1.50159Z" fill="#4c4208"/>
      <g id="ROOTS">
        <path d="m184.86101,338.40784c-2.78638-1.55878-6.14832-1.27264-9.18097-1.92932-.93353-.2124-1.99084-.54077-2.44946-1.27008.00659-.21228.02008-.42303.01941-.6366.00222-.34751-.53461-.3088-.50079.02655-1.92548,2.50226-5.48566,2.24371-8.06567,3.65582-.91266.46552-1.77979,1.02197-2.56311,1.68365-.04053.03534-.04718.09772-.01294.13965.03491.04279.09796.04913.14075.01416,1.57251-1.24695,3.43427-2.17572,5.38953-2.57074,1.81628-.32935,3.7196-.90546,5.07233-2.23224.00409.01733.00806.03455.01654.05249-.02441.65283-.06458,1.30994-.09875,1.97363-1.6814,2.32565-6.41453,1.77753-6.97223,4.97351.05194.0188.10931-.00812.12805-.06006,1.07996-2.88507,4.87256-2.33453,6.82751-4.27997-.01959.68201-.01782,1.36682.07349,2.05542.00958.05621.01031.11249.01898.1687-.64716.53632-1.17047,1.16449-1.70685,1.76849-1.42998,2.06164-4.7036,3.29207-5.21404,5.79973.0515.02046.10961-.00456.13005-.05583.62604-1.65155,2.14734-2.61713,3.47174-3.68439,1.26105-.95782,2.19678-2.3089,3.37457-3.33539.10968.98627.1156,1.97534.0882,2.97168-.40552.52142-1.05731,1.97168-1.14581,2.16144-.56293,1.74432-2.37524,2.4187-3.08069,4.04651-.38184.79303-.53497,1.65942-.72833,2.4856-.03185.12564.16421.17579.19409.04852.32758-1.66864.88763-3.34015,2.34589-4.34088,1.24255-.97949,1.62415-2.54956,2.40222-3.84985-.01208.39081-.02496.78235-.03113,1.17615-.09869,1.32532.08435,2.66016.11493,3.98804-.51874,2.14172-3.00293,3.74664-2.93475,5.96722.0545.00885.1059-.0282.11475-.0827.30371-1.99957,2.00446-3.33374,2.79901-5.12457-.00726.21661-.00055.4339-.02246.6499-.14752,1.77002-.50269,3.6369.07733,5.39722.01923.06366.11578.02625.09521-.03058-.41028-1.4408-.22046-2.91577-.021-4.39496.45435,1.40796,1.29767,2.79541,2.78259,3.2453.12311.04382.18872-.14874.06598-.1889-1.61294-.51063-2.37364-2.13268-2.76849-3.65771.13245-1.02509.2312-2.05035.09967-3.06592-.01355-.45001-.00671-.90063.00623-1.3515.22327.54596.43298,1.11633.75183,1.63293.73425,1.53644,2.61365,1.8952,3.51233,3.25336.453.65033.70569,1.41064.88849,2.19287.03424.12915.22754.07568.19373-.04932-.28888-1.59924-1.24829-3.15271-2.75739-3.84906-1.42462-.80219-1.97705-2.30969-2.57013-3.7536.04602-1.0545.12518-2.11047.14484-3.16614,1.1001,1.1875,1.9599,2.79681,3.5296,3.47351,1.59259.80005,2.99011,1.8905,3.74396,3.54156.05656.11605.23796.02753.17938-.0882-.72296-1.67816-2.19836-2.88287-3.78003-3.69904-1.71667-.79913-2.37213-2.48175-3.659-3.76666-.00488-.00452-.01019-.00134-.01514-.00525-.00323-.82947-.04852-1.65857-.19379-2.48639-.0174-.12921-.01416-.25964-.026-.38916,1.06519,1.14929,2.33759,2.13861,3.82349,2.68701,1.60522.53369,3.1817,1.17407,4.37939,2.40265.09247.09204.23071-.05243.14142-.14142-1.17316-1.26746-2.81348-1.99414-4.40796-2.55688-1.57499-.59958-2.88529-1.73854-3.97699-2.99976-.01764-.5108-.01471-1.02374.01105-1.54022,1.7049,2.32184,5.82715,2.9234,8.45215,2.92694.13098-.00909.11542-.20947-.01172-.19958-2.38757-.00665-4.87054-.59698-6.92828-1.82513-.64111-.41058-1.23029-.95026-1.47357-1.62366.01562-.25562.0307-.51025.04462-.76752.65302.57581,1.5556.77765,2.38983.95856,3.04236.56476,6.36377.23157,9.1535,1.6983.1123.07074.21539-.09924.10883-.16791Z" fill="#fff"/>
      </g>
      <path d="m186.47258,328.99689c-.80969-.06616-2.20007.23981-3.20422.88263-1.7796.41516-3.06403.45026-4.09149.36652-.68824-1.59187-3.15865-1.86727-5.79517-1.19263-1.54539-.54475-4.65845.38807-5.19728,1.47212-.2343.60674,1.13845.23363,1.36348.45305.21478.20941-.68494.40857-.09589.58209.8374.2467,2.77661-.37921,3.3374-.90723.64899-.61108.48499-.79187.76691-1.12848,2.48109-.59364,4.06771-.38221,5.06781.66534-3.33238-.79635-5.81878.20748-5.8739,4.30975-.00339.32272.50385.32537.5-.00014-.03149-3.09509,1.82819-4.5896,4.47513-3.93151,1.23727.19124,2.92843.44551,5.73037-.21855.69698,1.18986,2.38671,1.23876,3.55669.71801.84107-.36534-.01763-.40801.14039-.5775.19336-.2074.82709-.30695.9743-.41211.80005-.57123-.39117-.97815-1.65454-1.08136Z" fill="#dbd2a9"/>
      <path id="leaf_1_right_hi" data-name="leaf 1 right hi" d="m183.00046,330.05861c1.66179-.17956,1.75708.23449,2.49846.17882,1.26417-.09492,1.84728.04554,1.65389.25294-.15805.1695.70068.21218-.14042.57759-.97617.42408-2.64074.54038-3.31009-.427-.41148-.59469-.52457-.30591-.70184-.58234Z" fill="#f2e9c2"/>
      <g id="leaf_1_left_hi" data-name="leaf 1 left hi">
        <path d="m173.91819,329.19623c-1.00239.20971-1.44959.49982-2.57348,1.00298-1.18418.53016-2.02182.55999-1.79681.7794.21475.20941-.68491.40854-.09587.58209.83741.24672,2.77661-.37921,3.33738-.90725.8299-.78146.3187-.85501,1.12878-1.45722Z" fill="#f2e9c2"/>
      </g>
      <path id="root_main_fade" data-name="root main fade" d="m172.75,334.57217c.00305-.48965.05222-.96643.13841-1.44385.09538-.47537.20621-.95337.48775-1.41385.07201-.11777.22586-.15488.34363-.08286.11832.07226.15513.22734.08197.34509-.42695.73561-.52857,1.73826-.55178,2.59478.00769.32582-.50682.3281-.49998.00068Z" fill="url(#linear-gradient)"/>
    </g>
  </g>
</svg>