<?xml version="1.0" encoding="UTF-8"?>
<svg id="Layer_2" data-name="Layer 2" xmlns="http://www.w3.org/2000/svg" xmlns:xlink="http://www.w3.org/1999/xlink" viewBox="0 0 394 469">
  <defs>
    <linearGradient id="linear-gradient" x1="173.22341" y1="334.81671" x2="173.22341" y2="331.59972" gradientUnits="userSpaceOnUse">
      <stop offset="0" stop-color="#fff"/>
      <stop offset=".34875" stop-color="#fff"/>
      <stop offset=".90503" stop-color="#fff" stop-opacity="0"/>
      <stop offset="1" stop-color="#fff" stop-opacity="0"/>
    </linearGradient>
  </defs>
  <g id="CASE_13_Plants_LN_WL_CL" data-name="CASE 13 Plants LN WL CL">
    <g id="Day_8" data-name="Day 8">
      <g id="rectangle">
        <rect width="394" height="469" fill="none"/>
      </g>
      <g id="ROOTS_BACK" data-name="ROOTS BACK">
        <path d="m174.25157,334.82965c.2052-1.55686-1.86922-2.00287-2.39771-.73126-1.02795,1.19922-2.85657,1.80695-4.47119,2.12201-1.38391.22974-7.55469,2.64117-6.05255,4.47534.38159.47925,1.08337.55328,1.55713.16528,1.98242-1.83832,4.59918-2.12372,6.99109-2.88501-.40167.16077-.83405.31573-1.28601.47583-1.56714.50854-3.42346,1.60944-3.94183,3.38171-.41632,1.3454,1.55042,2.04382,2.07336.73462.76622-1.89387,3.24796-1.90216,4.90338-2.776-1.13733,1.07501-1.88226,2.24091-3.07245,3.2005-1.3858,1.13367-3.11786,2.39557-3.75891,4.25342-.48517,1.34308,1.4903,2.11621,2.04773.8042.58638-1.47754,1.92541-2.2441,3.17664-3.27795.63019-.47345,1.20367-1.08087,1.76019-1.69055.00116.10126.0022.20245.00336.30389-.41516.66669-.71252,1.52081-.98499,1.98254-.35541.76703-.67834,1.33221-1.12885,1.672-1.60254,1.0542-2.48834,3.34467-2.75183,5.06519-.31592,1.41339,1.77789,1.9129,2.13855.51593.36951-1.64789.64978-2.81671,1.98303-3.78894.31915-.24951.57428-.52386.80426-.80774.00598.42328.01196.84369.01788,1.26245-.66235,1.87738-2.72711,3.58081-2.94702,5.75244-.21277,1.43347,1.91034,1.78345,2.16998.36151.11896-.67023.44489-1.29095.83514-1.90088.20052,1.19278-.59336,3.53842,1.06652,3.68046,1.1505-.0227,1.09708-1.16185,1.07398-2.02421.95825.78467,2.21741,1.3089,2.80334.09888.20715-.57111-.08789-1.20203-.659-1.40918-1.26544-.43701-1.73242-1.58978-2.09052-2.84412.00403-.28564.00818-.57617.01227-.86542.46356.44128.99176.82104,1.55225,1.10913,1.02203.63971,1.42444,1.54974,1.71741,2.79547.35382,1.39581,2.43536.91309,2.14294-.49353-.29272-1.75024-1.48151-3.70618-3.21832-4.50641-1.27124-.78619-1.52277-1.79224-2.13434-3.20941.00122-.09216.0025-.18433.00372-.27649,1.65027,1.95844,4.56317,2.37524,5.56226,4.87714.66064,1.28204,2.58663.33615,1.97406-.97083-.71893-1.7597-2.56519-3.33044-4.17389-4.1217-1.71851-.87506-1.97345-2.08954-3.32031-3.46375,0-.00281,0-.00549.00006-.0083.72717.53125,1.52039.98755,2.38977,1.30975,1.58075.5434,2.87152,1.01764,4.02881,2.17548,1.021.98969,2.5448-.53564,1.55579-1.55566-1.42523-1.57178-3.40271-2.16846-5.20526-3.04895,1.60931.42413,3.28674.58612,4.63501.58447,1.42737-.09637,1.33875-2.21802-.08899-2.19727-1.74054.00183-3.67621-.41101-5.33118-1.1604.82153.10223,1.64917.15448,2.41711.2616,1.82416.20789,4.0545.32898,5.57483,1.17792.51514.34442,1.21729.19623,1.54559-.33038,1.44434-3.42334-9.43073-2.63831-11.50232-4.25482Z" fill="#4c4c4c"/>
      </g>
      <path d="m184.00774,326.10657c-.79215-.07741-1.92945-.18039-2.62299.14618-1.02985-.11121-2.02557-.07458-2.96655.10547-1.46517-1.31657-3.55447-1.57901-5.82361-.54773-1.07191-.5364-2.00088.41523-2.85221.79272-1.08724.4947-2.44027,1.11036-2.10122,2.45673.13257.52643.51227.88513,1.02136.9859.20873,1.86139,2.81595,1.65514,3.89075.76129-.49545,1.19993-1.80162,4.76975.44684,4.94283.69055-.00002,1.25012-.55959,1.25012-1.25002-.04741-3.37426,2.53206-5.80623,5.84332-5.81354.40551,2.16009,4.8797,3.24326,5.23187.565,1.98185-.65023,1.06529-3.02439-1.31769-3.14484Zm-9.9707,2.55963c.0589-.2677.07776-.53186.05652-.78918.38562-.13593.75293-.18732,1.08917-.18372-.4134.28174-.80326.60769-1.14569.9729Z" fill="#4c4208"/>
      <g id="ROOTS">
        <path d="m184.86101,338.40784c-2.78638-1.55878-6.14832-1.27264-9.18097-1.92932-.93353-.2124-1.99084-.54077-2.44946-1.27008.00659-.21228.02008-.42303.01941-.6366.00222-.34751-.53461-.3088-.50079.02655-1.92548,2.50226-5.48566,2.24371-8.06567,3.65582-.91266.46552-1.77979,1.02197-2.56311,1.68365-.04053.03534-.04718.09772-.01294.13965.03491.04279.09796.04913.14075.01416,1.57251-1.24695,3.43427-2.17572,5.38953-2.57074,1.81628-.32935,3.7196-.90546,5.07233-2.23224.00409.01733.00806.03455.01654.05249-.02441.65283-.06458,1.30994-.09875,1.97363-1.6814,2.32565-6.41453,1.77753-6.97223,4.97351.05194.0188.10931-.00812.12805-.06006,1.07996-2.88507,4.87256-2.33453,6.82751-4.27997-.01959.68201-.01782,1.36682.07349,2.05542.00952.05621.01031.11255.01898.16876-.64703.53632-1.17047,1.16443-1.70685,1.76843-1.42998,2.06164-4.7036,3.29207-5.21404,5.79973.0515.02046.10961-.00456.13005-.05583.62604-1.65155,2.14734-2.61713,3.47174-3.68439,1.26105-.95782,2.19678-2.30884,3.37445-3.33533.10956.98639.11566,1.97565.08789,2.97211-.40552.52191-1.05688,1.97125-1.14539,2.16095-.56293,1.74432-2.37524,2.4187-3.08069,4.04651-.38184.79303-.53497,1.65942-.72833,2.4856-.03185.12564.16421.17579.19409.04852.32758-1.66864.88763-3.34015,2.34589-4.34088,1.24225-.97925,1.62396-2.54877,2.40155-3.84882-.01227.39044-.02539.78162-.03198,1.17505-.09863,1.32642.08508,2.66248.11566,3.99146-.52057,2.14008-3.00214,3.74445-2.93396,5.96387.0545.00885.1059-.0282.11475-.0827.30365-1.9989,2.00317-3.33282,2.7981-5.1228-.00726.216-.00049.43262-.02228.64801-.14728,1.77002-.5022,3.63715.07806,5.39734.01923.06366.11578.02625.09521-.03058-.40991-1.44031-.22009-2.91473-.02051-4.39343.45447,1.40741,1.29773,2.79407,2.7821,3.24377.12311.04382.18872-.14874.06598-.1889-1.61215-.51068-2.374-2.13154-2.76788-3.65692.13269-1.02539.23169-2.0509.10022-3.06677-.01337-.44897-.00659-.89862.00629-1.34845.22278.54504.43231,1.11426.75061,1.62994.73425,1.53644,2.61365,1.8952,3.51233,3.25336.453.65033.70569,1.41064.88849,2.19287.03424.12915.22754.07568.19373-.04932-.28888-1.59924-1.24829-3.15271-2.75739-3.84906-1.42371-.80164-1.97632-2.30768-2.56891-3.75073.04584-1.0553.12469-2.11206.14404-3.16858,1.09998,1.18762,1.95972,2.79645,3.52917,3.47308,1.59259.80005,2.99011,1.8905,3.74396,3.54156.05656.11605.23796.02753.17938-.0882-.72296-1.67816-2.19836-2.88287-3.78003-3.69904-1.71667-.79913-2.37213-2.48175-3.659-3.76666-.00476-.00446-.01001-.00134-.01489-.00519-.00348-.82947-.04883-1.65863-.19403-2.48645-.0174-.12921-.01416-.25964-.026-.38916,1.06519,1.14929,2.33759,2.13861,3.82349,2.68701,1.60522.53369,3.1817,1.17407,4.37939,2.40265.09247.09204.23071-.05243.14142-.14142-1.17316-1.26746-2.81348-1.99414-4.40796-2.55688-1.57499-.59958-2.88529-1.73854-3.97699-2.99976-.01764-.5108-.01471-1.02374.01105-1.54022,1.7049,2.32184,5.82715,2.9234,8.45215,2.92694.13098-.00909.11542-.20947-.01172-.19958-2.38757-.00665-4.87054-.59698-6.92828-1.82513-.64111-.41058-1.23029-.95026-1.47357-1.62366.01562-.25562.0307-.51025.04462-.76752.65302.57581,1.5556.77765,2.38983.95856,3.04236.56476,6.36377.23157,9.1535,1.6983.1123.07074.21539-.09924.10883-.16791Z" fill="#fff"/>
      </g>
      <path d="m183.92094,327.10284c-.83234-.07251-1.92865-.19159-2.32898.17407-1.27069-.1778-2.48706-.10565-3.59662.19891-.88438-1.53747-3.50552-1.71447-5.41327-.5188-.6955-.69102-1.41546.03243-2.12152.41725-1.04444.48308-1.99976.8455-1.84967,1.44145.13239.52582.82483.0451.96429.29504.23621.42328-.25055,1.1098.56647,1.32117,1.67988.35809,3.571-1.5605,2.76526-3.0957,1.66673-.99701,3.74588-.85351,4.61713.28973-2.92419.9747-4.80047,3.68662-4.77378,6.87398-.00395.32263.50421.32562.49997-.00004-.06086-4.35672,3.64266-7.29353,7.927-6.76261-.83616,1.40238,2.09243,2.68425,2.97764,1.83687.37796-.36141-.00034-.89809.19265-1.14931.21222-.27637.43207-.12109.69635-.14124.65466-.0498.45367-1.04346-1.12292-1.18079Z" fill="#dbd2a9"/>
      <g id="leaf_1_right_hi" data-name="leaf 1 right hi">
        <path d="m181.4652,327.46606c.38532-.2236.65228.24426,1.38867.35213.78684.11526,1.7059.33029,1.49362.60669-.19294.25121.18536.78793-.19262,1.14935-1.02602.96767-4.3537-.83196-2.68967-2.10817Z" fill="#f2e9c2"/>
      </g>
      <g id="leaf_1_left_hi" data-name="leaf 1 left hi">
        <path d="m173.00504,328.67994c.17444-.48696.12957-.97769-.10143-1.36224-.16193-.26956-1.25282.04677-1.66652.48088-.8398.88124-1.80137,1.0623-1.66191,1.31221.23621.42326-.25055,1.10982.56645,1.32119,1.28066.26602,2.48078-.69959,2.86341-1.75204Z" fill="#f2e9c2"/>
      </g>
      <path id="root_main_fade" data-name="root main fade" d="m172.75,334.57217c.02875-.97543.10603-1.89709.4664-2.82633.05353-.12725.20006-.18707.32731-.13357s.18706.20004.13356.3273c-.31655.79744-.40685,1.76639-.4273,2.63192.00748.32574-.50661.32793-.49998.00068Z" fill="url(#linear-gradient)"/>
    </g>
  </g>
</svg>