<?xml version="1.0" encoding="UTF-8"?>
<svg id="Layer_1" data-name="Layer 1" xmlns="http://www.w3.org/2000/svg" xmlns:xlink="http://www.w3.org/1999/xlink" viewBox="0 0 86 160">
  <defs>
    <linearGradient id="linear-gradient" x1="-506.06" y1="-3423.9" x2="-509.63" y2="-3487.18" gradientTransform="translate(3515.42 -238.57) rotate(-86.99)" gradientUnits="userSpaceOnUse">
      <stop offset="0" stop-color="#d5a764"/>
      <stop offset=".04" stop-color="#d8ad6d"/>
      <stop offset=".21" stop-color="#e5c28d"/>
      <stop offset=".39" stop-color="#eed3a5"/>
      <stop offset=".57" stop-color="#f5dfb7"/>
      <stop offset=".77" stop-color="#f9e6c1"/>
      <stop offset="1" stop-color="#fbe9c5"/>
    </linearGradient>
  </defs>
  <g>
    <path d="m53.81,14.81c.95.49,2.11-.02,2.96-.66.85-.65,1.65-1.46,2.7-1.67,1.08-.22,2.17.26,3.27.36,1.1.1,2.47-.51,2.44-1.61,1.45,1.59,3.94,2.14,5.92,1.29-.78,1.11-1.38,2.32-1.85,3.59-4.84,0-9.04.11-13.14,1.94-.45-1.3-1.17-2.46-2.29-3.24Z" fill="#fff" stroke-width="0"/>
    <path d="m56.73,21.78c-.04-1.25-.22-2.55-.63-3.73,4.11-1.84,8.31-1.94,13.14-1.94-.75,2.03-1.16,4.22-1.41,6.37-.41,3.51-.46,7.07-1.17,10.53-.71,3.46-2.18,6.91-4.89,9.18l-11.48-4.03c4.24-4.29,6.62-10.35,6.44-16.38Z" fill="#f2bb9d" stroke-width="0"/>
    <path d="m62.41,42.95c2.54-2.13,4.35-5.5,5.22-9.74.47-2.31.66-4.66.85-6.94.1-1.21.2-2.46.34-3.67.31-2.64.96-6.5,3.08-9.51.26-.37.24-.86-.04-1.21-.28-.35-.76-.47-1.17-.29-1.6.68-3.61.25-4.78-1.04-.28-.31-.73-.41-1.12-.25-.39.16-.64.54-.62.96,0,.04,0,.11-.12.23-.25.24-.78.39-1.23.35-.33-.03-.68-.1-1.05-.18-.75-.16-1.61-.34-2.5-.16-1.07.22-1.88.87-2.6,1.46-.17.14-.34.27-.51.4-.59.45-1.4.83-1.9.57-.47-.24-1.04-.08-1.31.37-.27.45-.15,1.03.28,1.33,1.95,1.36,2.44,4.11,2.5,6.18.17,5.72-2.13,11.57-6.15,15.65l1.42,1.4c4.4-4.46,6.91-10.85,6.73-17.11-.06-1.87-.42-4.21-1.67-6.05.44-.18.88-.43,1.31-.76.19-.14.37-.29.56-.44.59-.48,1.15-.93,1.73-1.05.49-.1,1.07.03,1.69.16.41.09.84.18,1.29.22,1.02.09,2.11-.26,2.78-.89.04-.03.07-.07.1-.1,1.05.7,2.31,1.07,3.57,1.07-1.47,2.93-1.99,6.14-2.26,8.46-.15,1.25-.25,2.52-.35,3.74-.18,2.22-.36,4.51-.81,6.7-.54,2.65-1.78,6.29-4.55,8.61l1.28,1.53Z" fill="#644f28" stroke-width="0"/>
    <path d="m65.64,15.91c-.22,5.06-.76,10.1-1.79,15.05-.77,4.85-2.78,10.37-8.15,11.51,5.6-.8,7.81-6.5,8.62-11.41.99-4.98,1.48-10.07,1.32-15.15h0Z" fill="#644f28" stroke-width="0"/>
    <path d="m62.68,14.96c-.22,5.06-.76,10.1-1.79,15.05-.77,4.85-2.78,10.37-8.15,11.51,5.6-.8,7.81-6.5,8.62-11.41.99-4.98,1.48-10.07,1.32-15.15h0Z" fill="#644f28" stroke-width="0"/>
    <path d="m61.18,14.34c-.22,5.06-.76,10.1-1.79,15.05-.77,4.85-2.78,10.37-8.15,11.51,5.6-.8,7.81-6.5,8.62-11.41.99-4.98,1.48-10.07,1.32-15.15h0Z" fill="#644f28" stroke-width="0"/>
  </g>
  <path d="m49.85,29.51c2.92-1.27,7.9,8.27,9.51,9.31s6.45,4.15,7.95,7.32c1.5,3.17,8.88,34.99,9.44,42.4s.7,36.46-3.23,43.4c-3.94,6.94-12.38,13.63-18.07,13.1s-8.29-5.44-10.62-6.27c-2.34-.84-25.13-11.08-33.61-31.05C2.74,87.75,20.66,50.35,49.85,29.51Z" fill="url(#linear-gradient)"/>
  <path d="m32.05,123.11c-.3-7.92-.1-15.46.68-23.28.68-7.07,1.57-14.28.31-21.34-1.49-8.35-4.39-16.16-8.64-23.04-3.85,5.52-7.06,11.22-9.53,16.86.76,1.28,1.5,2.57,2.2,3.9,2.69,5.61,5.37,11.07,7.69,16.92,3.67,9.02,3.6,19.5-1.31,28.04-.4.77-.83,1.54-1.26,2.31,3.13,3.12,6.44,5.77,9.53,7.93.12-.96.22-1.92.25-2.89.07-1.62.17-3.79.09-5.41Z" fill="#e7c591" stroke-width="0"/>
  <path d="m68.05,104.68c-1.14-4.93-3.39-9.18-5.38-12.93l-26.64-50.35c-4.09,4.18-7.81,8.65-11.08,13.26l23.58,44.57c1.68,3.17,3.26,6.16,3.93,9.06,1.52,6.57-1.53,13.17-3.48,16.51-2.4,4.11-5.68,7.92-9.16,11.58,2.57,1.37,4.42,2.16,5,2.37,2.11.76,4.44,4.81,9.06,5.99,3.24-3.59,6.37-7.5,8.92-11.87,5.44-9.32,7.31-19.33,5.25-28.2Z" fill="#e7c591" stroke-width="0"/>
  <g>
    <path d="m73.1,111.02c-.46,8.85-1.6,18.24-3.63,28.08l-1.96-.4c12.66-61.63-10.02-99.54-10.24-99.92l1.98-1.41c6.44,10.73,15.74,37.64,13.85,73.66Z" fill="#644f28" stroke-width="0"/>
    <path d="m27.57,127.77l-.86-.51c1.48-2.48,3.61-9,4.28-11.73.72-2.92,2.71-16.38,1.34-19.25-1.44-3-9.52-14.61-13.19-16.41-1.95-.96-3.57-.95-4.58-.78-1.29.22-1.94.76-2.06.99l-.9-.44c.34-.69,1.46-1.31,2.78-1.54,1.16-.2,3-.21,5.19.87,3.92,1.93,12.13,13.72,13.65,16.88,1.6,3.33-.57,17.07-1.27,19.92-.66,2.67-2.8,9.33-4.39,12Z" fill="#644f28" stroke-width="0"/>
    <path d="m38.07,134.51l-.85-.52c1.01-1.66,6.29-21.42,6.28-26.48,0-4.36-16.25-26.13-22.16-33.57-2.58-3.25-4.23-2.77-5.43-2.42l-.24.07-.27-.96.22-.06c1.31-.38,3.49-1.01,6.49,2.76.22.28,22.37,28.49,22.38,34.19,0,5.36-5.36,25.25-6.42,27Z" fill="#644f28" stroke-width="0"/>
    <path d="m46.01,139.26l-.75-.66c2.2-2.47,10.45-12.75,10.73-17.95.32-6.11-4.36-46.45-8.37-56.99-.71-1.87-1.32-3.59-1.9-5.26-2.71-7.71-4.5-12.8-10.86-14.78l.3-.96c6.84,2.13,8.7,7.41,11.51,15.4.58,1.66,1.19,3.38,1.89,5.24,4.04,10.63,8.76,51.25,8.43,57.4-.33,6.34-10.87,18.44-10.98,18.56Z" fill="#644f28" stroke-width="0"/>
    <path d="m48.94,142.25l-.58-.81c.07-.05,6.56-4.73,7.96-6.12,1.37-1.35,5.85-14.39,7.01-23.38,1.17-9.05-10.63-43.45-13.85-52.16-3.84-10.39-11.28-19.39-12.79-19.9l.33-.95c2.25.77,9.72,10.54,13.4,20.5,3.98,10.76,15.07,43.54,13.9,52.64-1.14,8.83-5.66,22.35-7.3,23.97-1.46,1.45-7.81,6.03-8.08,6.22Z" fill="#644f28" stroke-width="0"/>
    <path d="m62.1,143.5l-.95-.3c1.03-3.22,7.89-27.81,7.73-32.27-.16-4.52-4.16-30.51-5.1-33.1-.13-.35-.36-1.01-.67-1.89-1.91-5.41-7.71-21.88-9.56-24.8-2.48-3.93-9.22-13.67-11.04-15.02l.6-.8c2.14,1.59,9.3,12.15,11.28,15.29,1.91,3.01,7.53,18.99,9.65,25,.31.88.54,1.54.67,1.89.99,2.74,4.98,28.65,5.15,33.4.17,4.83-7.01,30.23-7.77,32.61Z" fill="#644f28" stroke-width="0"/>
  </g>
  <path d="m56.1,147.07c-.28,0-.56-.01-.84-.04-4.39-.42-7.14-2.96-9.15-4.81-.72-.66-1.53-1.41-1.96-1.57-.25-.09-25.49-10.29-34.77-32.15C.42,87.39,19.15,48.97,48.68,27.88l.36-.21c3.47-1.51,6.67,2.99,9.51,6.96.68.96,1.61,2.26,1.94,2.54,2.92,1.88,7.06,4.8,8.62,8.11,1.7,3.6,9.05,35.56,9.62,43.1.45,5.98.99,36.64-3.49,44.54-3.99,7.03-12.46,14.14-19.15,14.14Zm-5.53-115.61c-13.38,9.67-25.15,23.63-32.36,38.36-7.11,14.54-8.99,28.07-5.15,37.11,8.49,20.01,32.21,29.87,32.44,29.95,1.19.43,2.18,1.34,3.32,2.39,1.77,1.63,3.77,3.48,6.81,3.77,4.53.42,12.37-5.45,16.14-12.09,3.52-6.21,3.59-34.14,2.98-42.26-.56-7.36-7.93-38.89-9.25-41.7-.83-1.76-3.26-3.95-7.22-6.49-.81-.52-1.58-1.57-2.98-3.54-1.08-1.51-3.52-4.94-4.73-5.5Z" fill="#644f28"/>
</svg>