<?xml version="1.0" encoding="UTF-8"?>
<svg id="Layer_1" data-name="Layer 1" xmlns="http://www.w3.org/2000/svg" xmlns:xlink="http://www.w3.org/1999/xlink" viewBox="0 0 86 160">
  <defs>
    <linearGradient id="linear-gradient" x1="-1125.39" y1="-1648.7" x2="-1156.29" y2="-1704.48" gradientTransform="translate(2069.24 65.35) rotate(-56.45)" gradientUnits="userSpaceOnUse">
      <stop offset="0" stop-color="#d5a764"/>
      <stop offset=".04" stop-color="#d8ad6d"/>
      <stop offset=".21" stop-color="#e5c28d"/>
      <stop offset=".39" stop-color="#eed3a5"/>
      <stop offset=".57" stop-color="#f5dfb7"/>
      <stop offset=".77" stop-color="#f9e6c1"/>
      <stop offset="1" stop-color="#fbe9c5"/>
    </linearGradient>
  </defs>
  <g>
    <path d="m59.19,19.73c.8.7,2.05.49,3.03.07.98-.42,1.95-1.02,3.02-.97,1.1.05,2.04.78,3.08,1.14,1.04.36,2.52.11,2.75-.97,1.02,1.9,3.31,3.02,5.43,2.68-1.03.89-1.9,1.92-2.66,3.04-4.7-1.16-8.8-2.08-13.22-1.29-.12-1.37-.54-2.67-1.44-3.7Z" fill="#fff" stroke-width="0"/>
    <path d="m60.35,27.2c.27-1.22.4-2.53.29-3.77,4.43-.79,8.53.12,13.22,1.29-1.22,1.79-2.14,3.81-2.91,5.85-1.24,3.31-2.15,6.75-3.68,9.93-1.53,3.19-3.78,6.18-6.96,7.73l-10.17-6.68c5.15-3.14,8.92-8.45,10.2-14.34Z" fill="#f2bb9d" stroke-width="0"/>
    <path d="m60.75,49.12c2.98-1.46,5.55-4.29,7.42-8.19,1.02-2.12,1.77-4.36,2.5-6.53.39-1.15.79-2.34,1.22-3.48.94-2.49,2.5-6.07,5.29-8.48.34-.29.44-.77.25-1.18-.19-.4-.62-.64-1.07-.56-1.72.28-3.57-.63-4.39-2.17-.2-.37-.61-.58-1.02-.52-.42.06-.75.37-.84.78,0,.04-.02.11-.17.19-.31.17-.85.19-1.28.05-.31-.11-.63-.27-.97-.43-.69-.34-1.48-.72-2.39-.76-1.09-.05-2.04.39-2.87.79-.2.09-.39.18-.59.27-.68.29-1.56.47-1.98.1-.4-.35-.99-.33-1.36.05-.37.37-.39.97-.05,1.36,1.57,1.8,1.37,4.58.93,6.6-1.22,5.59-4.86,10.72-9.75,13.7l1.04,1.71c5.34-3.26,9.33-8.86,10.66-14.98.4-1.83.61-4.19-.16-6.27.47-.07.96-.21,1.46-.42.22-.09.43-.19.65-.29.69-.32,1.34-.62,1.93-.6.5.02,1.04.28,1.6.56.38.19.77.38,1.2.53.97.34,2.11.26,2.92-.19.04-.02.08-.05.12-.07.85.93,1.99,1.59,3.21,1.9-2.13,2.49-3.41,5.47-4.24,7.66-.44,1.18-.85,2.38-1.24,3.55-.71,2.11-1.44,4.29-2.41,6.3-1.17,2.44-3.24,5.68-6.49,7.26l.88,1.8Z" fill="#644f28" stroke-width="0"/>
    <path d="m70.41,23.65c-1.43,4.86-3.17,9.62-5.37,14.18-1.92,4.52-5.2,9.39-10.69,9.2,5.63.58,9.14-4.42,11.12-9,2.16-4.59,3.86-9.42,4.93-14.38h0Z" fill="#644f28" stroke-width="0"/>
    <path d="m67.77,22.02c-1.43,4.86-3.17,9.62-5.37,14.18-1.92,4.52-5.2,9.39-10.69,9.2,5.63.58,9.14-4.42,11.12-9,2.16-4.59,3.86-9.42,4.93-14.38h0Z" fill="#644f28" stroke-width="0"/>
    <path d="m66.46,21.05c-1.43,4.86-3.17,9.62-5.37,14.18-1.92,4.52-5.2,9.39-10.69,9.2,5.63.58,9.14-4.42,11.12-9,2.16-4.59,3.86-9.42,4.93-14.38h0Z" fill="#644f28" stroke-width="0"/>
  </g>
  <g>
    <path d="m36.94,148.12c-4.77-1.48-29.16-33.45-30.4-38.35s4.72-31.95,6.93-36.26c.53-1.04,7.58-13.82,15.86-24.56,9.17-11.89,19.64-18.3,20.62-18.2,0,0,7.97,6.35,9.91,9.55,2.44,1.62,16.13,13.22,18.16,27.46,2.03,14.24,1.31,29.33-3.83,40.86s-20.09,36.22-21.47,36.4c0,0-1.19.61-2.43.81-.83,1.36-6.18,4.5-13.37,2.28Z" fill="url(#linear-gradient)"/>
    <path d="m31.55,123.25c1.36-5.17,4.7-9.43,6.47-14.46,2.53-7.49,3.89-15.4,3.66-23.26.06-10.83-.38-24.18-9.31-32.04-1.24-1.11-2.82-1.97-4.54-2.54-2.02,2.72-3.93,5.51-5.68,8.16.31.46.57.95.79,1.45,1.03,4.07.55,7.88.94,12.51.34,4.85,1.58,9.59,2.79,14.34.85,3.55,1.86,7.2,3.41,10.54,8.64,16.58-5.68,17.64-13.97,26.63,2.88,3.88,6.07,7.98,9.11,11.66,1.43-1.8,2.72-3.72,3.76-5.8,1.06-2.24,1.76-4.75,2.56-7.19Z" fill="#e7c591" stroke-width="0"/>
    <path d="m51.92,139.59c2.27-2.56,4.26-5.34,5.72-8.52,2.29-4.81,3.39-10.27,5.49-15.28l2.25-5.36c3.11-7.21,3.29-15.39,4.08-23.02.51-5.53,1-10.58.59-15.97,0,0-.44-5.14-.44-5.14-.47-6.41-1.17-13.21-2.82-19.66-3.13-3.4-5.93-5.67-6.92-6.32-1.93-3.19-9.91-9.55-9.91-9.55-.6-.06-4.77,2.33-10.01,6.91,1.47,4.85,1.89,12.59,3.44,18.63,1.21,5,3.02,9.83,4.74,14.69,0,0,1.74,4.86,1.74,4.86,1.78,4.88,4.5,9.63,7.1,14.06,3.05,5.3,5.61,11.69,1.8,17.01-1.7,2.35-4.57,4.2-7.67,6.22-6.06,3.7-11.89,7.75-15.62,13.83-2.75,4.16-5.18,8.47-7.11,13,3.86,4.45,7.12,7.71,8.56,8.16,1.95.6,3.75.8,5.37.76,3.48-2.81,6.65-5.92,9.6-9.29Z" fill="#e7c591" stroke-width="0"/>
    <path d="m41.89,150.89c-1.73,0-3.6-.25-5.54-.85h0c-6.08-1.88-30.55-35.08-31.75-39.76-1.42-5.57,4.83-33.27,7.09-37.67.97-1.89,8.05-14.49,16.06-24.87,8.78-11.38,19.96-19.2,22.41-18.96l.58.06.46.37c.81.65,7.77,6.24,10.12,9.69,3.8,2.72,16.64,14.36,18.68,28.6,2.3,16.12.89,31.02-3.98,41.96-2.33,5.24-6.91,13.71-12.25,22.67-7.66,12.85-9.4,14.52-10.4,14.83-.38.18-1.12.49-1.98.72-1.59,1.6-5.1,3.23-9.51,3.23Zm-4.35-4.67c6.05,1.87,10.44-.61,11.08-1.45l.48-.77.88-.12c.69-.12,1.46-.44,1.78-.59,2.27-2.34,15.6-24.2,20.62-35.46,4.57-10.26,5.87-24.38,3.67-39.77-1.9-13.33-14.82-24.44-17.29-26.08l-.37-.25-.23-.38c-1.27-2.09-6-6.2-8.56-8.3-2.68,1.43-11.04,7.24-18.68,17.14-8.57,11.12-15.61,24.14-15.67,24.26-.85,1.65-2.79,8.6-4.58,17.4-2.04,10-2.57,15.97-2.19,17.46.43,1.67,5.67,9.62,13.39,19.55,9.27,11.92,14.45,16.92,15.67,17.38Zm14.12-2.83h0Zm.81-.33h-.02s.02,0,.02,0Z" fill="#644f28" stroke-width="0"/>
    <g>
      <path d="m58.8,41.5s9.88,30.96,10.03,38.15.22,26.84-4.79,36.78c-5.02,9.94-14.48,29.28-16.14,30.43-1.66,1.15,3.43-2.27,3.43-2.27,0,0,14.17-24.35,15.92-30.62s5.49-30.24,4.09-37.14-8.22-34.25-8.22-34.25" fill="#644f28" stroke-width="0"/>
      <g>
        <path d="m18.4,125.54l-.65-.76c4.5-3.84,6.29-9.91,7.72-14.78.47-1.58.91-3.07,1.39-4.3,1.3-3.31.61-11.28.06-17.68-.24-2.83-.46-5.27-.46-6.9-.01-5.45-3.46-9.37-4.79-10.42-.07-.06-.2-.13-.46-.09-1.61.26-5.02,4-8.7,9.54l-.83-.55c1.89-2.85,6.59-9.53,9.37-9.98.47-.08.9.02,1.24.29,2.07,1.64,5.16,5.97,5.17,11.2,0,1.59.21,4.01.46,6.82.56,6.51,1.26,14.6-.12,18.13-.46,1.18-.9,2.66-1.36,4.21-1.47,5-3.3,11.22-8.03,15.25Z" fill="#644f28" stroke-width="0"/>
        <path d="m23.17,132.36l-.78-.63c2.53-3.13,17.57-23.95,17.08-28.88-.57-5.7-10.13-34.35-13.26-36.63-1.99-1.45-3.8-2.07-5.24-1.81-1,.18-1.85.79-2.52,1.81l-.83-.55c.83-1.26,1.9-2.01,3.18-2.24,1.74-.31,3.76.36,6.01,1.99,3.54,2.58,13.13,31.95,13.67,37.34.57,5.64-15.54,27.44-17.3,29.61Z" fill="#644f28" stroke-width="0"/>
        <path d="m34.56,147.07c-.64-.65-.9-1.66-.77-2.91.25-2.43,2.11-5.97,5.17-8.02,3.92-2.63,14.25-15.24,17.12-22.53,2.91-7.41.94-24.47-.41-31.12-1.52-7.51-10.08-29.38-12.63-33.67-1.23-2.06-3.11-2.84-4.47-3.12-2.15-.45-4.28.03-5.29.75l-.58-.81c1.4-.99,3.9-1.37,6.07-.91,1.55.33,3.7,1.22,5.12,3.59,2.58,4.32,11.22,26.4,12.75,33.98,1.42,7.02,3.38,24,.36,31.68-2.92,7.44-13.48,20.3-17.49,23-2.77,1.86-4.51,5.15-4.73,7.29-.07.66-.04,1.57.49,2.11l-.71.7Z" fill="#644f28" stroke-width="0"/>
      </g>
    </g>
  </g>
</svg>