<?xml version="1.0" encoding="UTF-8"?>
<svg id="Layer_1" data-name="Layer 1" xmlns="http://www.w3.org/2000/svg" xmlns:xlink="http://www.w3.org/1999/xlink" viewBox="0 0 86 160">
  <defs>
    <linearGradient id="linear-gradient" x1="-653.94" y1="-3378.59" x2="-653.59" y2="-3437.4" gradientTransform="translate(3491.91 -269.25) rotate(-85.04)" gradientUnits="userSpaceOnUse">
      <stop offset="0" stop-color="#d5a764"/>
      <stop offset=".04" stop-color="#d8ad6d"/>
      <stop offset=".21" stop-color="#e5c28d"/>
      <stop offset=".39" stop-color="#eed3a5"/>
      <stop offset=".57" stop-color="#f5dfb7"/>
      <stop offset=".77" stop-color="#f9e6c1"/>
      <stop offset="1" stop-color="#fbe9c5"/>
    </linearGradient>
  </defs>
  <g>
    <path d="m54.41,15.65c.8.7,2.05.49,3.03.07.98-.42,1.95-1.02,3.02-.97,1.1.05,2.04.78,3.08,1.14,1.04.36,2.52.11,2.75-.97,1.02,1.9,3.31,3.02,5.43,2.68-1.03.89-1.9,1.92-2.66,3.04-4.7-1.16-8.8-2.08-13.22-1.29-.12-1.37-.54-2.67-1.44-3.7Z" fill="#fff" stroke-width="0"/>
    <path d="m55.57,23.12c.27-1.22.4-2.53.29-3.77,4.43-.79,8.53.12,13.22,1.29-1.22,1.79-2.14,3.81-2.91,5.85-1.24,3.31-2.15,6.75-3.68,9.93-1.53,3.19-3.78,6.18-6.96,7.73l-10.17-6.68c5.15-3.14,8.92-8.45,10.2-14.34Z" fill="#f2bb9d" stroke-width="0"/>
    <path d="m55.98,45.04c2.98-1.46,5.55-4.29,7.42-8.19,1.02-2.12,1.77-4.36,2.5-6.53.39-1.15.79-2.34,1.22-3.48.94-2.49,2.5-6.07,5.29-8.48.34-.29.44-.77.25-1.18-.19-.4-.62-.64-1.07-.56-1.72.28-3.57-.63-4.39-2.17-.2-.37-.61-.58-1.02-.52-.42.06-.75.37-.84.78,0,.04-.02.11-.17.19-.31.17-.85.19-1.28.05-.31-.11-.63-.27-.97-.43-.69-.34-1.48-.72-2.39-.76-1.09-.05-2.04.39-2.87.79-.2.09-.39.18-.59.27-.68.29-1.56.47-1.98.1-.4-.35-.99-.33-1.36.05-.37.37-.39.97-.05,1.36,1.57,1.8,1.37,4.58.93,6.6-1.22,5.59-4.86,10.72-9.75,13.7l1.04,1.71c5.34-3.26,9.33-8.86,10.66-14.98.4-1.83.61-4.19-.16-6.27.47-.07.96-.21,1.46-.42.22-.09.43-.19.65-.29.69-.32,1.34-.62,1.93-.6.5.02,1.04.28,1.6.56.38.19.77.38,1.2.53.97.34,2.11.26,2.92-.19.04-.02.08-.05.12-.07.85.93,1.99,1.59,3.21,1.9-2.13,2.49-3.41,5.47-4.24,7.66-.44,1.18-.85,2.38-1.24,3.55-.71,2.11-1.44,4.29-2.41,6.3-1.17,2.44-3.24,5.68-6.49,7.26l.88,1.8Z" fill="#644f28" stroke-width="0"/>
    <path d="m65.64,19.57c-1.43,4.86-3.17,9.62-5.37,14.18-1.92,4.52-5.2,9.39-10.69,9.2,5.63.58,9.14-4.42,11.12-9,2.16-4.59,3.86-9.42,4.93-14.38h0Z" fill="#644f28" stroke-width="0"/>
    <path d="m62.99,17.94c-1.43,4.86-3.17,9.62-5.37,14.18-1.92,4.52-5.2,9.39-10.69,9.2,5.63.58,9.14-4.42,11.12-9,2.16-4.59,3.86-9.42,4.93-14.38h0Z" fill="#644f28" stroke-width="0"/>
    <path d="m61.68,16.97c-1.43,4.86-3.17,9.62-5.37,14.18-1.92,4.52-5.2,9.39-10.69,9.2,5.63.58,9.14-4.42,11.12-9,2.16-4.59,3.86-9.42,4.93-14.38h0Z" fill="#644f28" stroke-width="0"/>
  </g>
  <path d="m39.39,19.63c1.11-1.38,11.82,14.33,13.1,16.66s5.77,13.07,7.74,15.95c1.97,2.88,6.37,8.93,7.15,14.18.78,5.24,2.22,31.25.65,43.68-1.57,12.43-8.53,38.69-12.61,40.31-4.08,1.62-7.93,6.21-11.34,5.67-3.4-.54-30.31-28.51-31.72-32.08-1.42-3.57-4.82-35.42-3.16-43.16,1.66-7.74,5.87-30.78,30.2-61.21Z" fill="url(#linear-gradient)" stroke-width="0"/>
  <path d="m21.14,66.72c-1.27-2.42-2.96-5.42-5.15-8.45-2.15,5.21-3.61,9.73-4.64,13.46.02.03.03.06.05.1,6.07,11.58,8.95,23.24,8.32,33.73-.44,7.39-2.7,14.34-6.35,20.03,1.43,1.91,4.16,5.03,7.43,8.57,5.73-7.73,9.28-17.54,9.9-27.95.76-12.67-2.46-25.95-9.56-39.5Z" fill="#e7c591" stroke-width="0"/>
  <path d="m43.51,124.08c1.26-6.26.91-12.88,1.22-19.19.25-9.39,1.77-18.94,1.49-28.42-.96-16-5.42-31.99-15.35-44.82-.06-.08-.12-.16-.19-.23-2.11,3.1-4.01,6.1-5.71,8.98,3.62,9.48,6.88,19.03,10.05,28.88,2.96,11.48,8.31,23.17,6.19,35.25-.95,5.95-3.99,11.39-6.45,16.79-2.48,5.44-4.27,11.08-6.24,16.75-.34,1.05-.68,2.1-1.02,3.15,1.87,1.91,3.75,3.79,5.54,5.55,1.14-1.67,2.23-3.38,3.27-5.14,3.13-5.48,5.97-11.26,7.2-17.54Z" fill="#e7c591" stroke-width="0"/>
  <path d="m44.65,158.13c-.29,0-.59-.02-.88-.07-.76-.12-3.09-.49-17.72-15.48-1.46-1.5-14.3-14.7-15.54-17.84-1.55-3.91-4.98-36.26-3.25-44.31l.18-.86c1.81-8.6,6.63-31.44,30.41-61.18h0c.47-.58,1.2-.89,1.96-.83,3.64.32,14.36,17.6,14.46,17.78.5.92,1.38,2.84,2.48,5.28,1.69,3.72,4,8.83,5.15,10.51l.48.7c2.17,3.15,6.21,9,7,14.31.81,5.49,2.24,31.65.65,44.23-1.21,9.55-8.04,39.61-13.86,41.92-1.39.55-2.87,1.58-4.3,2.58-2.3,1.61-4.68,3.27-7.2,3.27Zm-.16-4.01c1.25.14,3.2-1.23,5.07-2.54,1.62-1.13,3.29-2.3,5.12-3.03,2.79-1.79,9.63-24.96,11.37-38.7,1.52-12.02.13-37.94-.64-43.14-.65-4.39-4.35-9.75-6.33-12.63l-.49-.71c-1.35-1.97-3.55-6.83-5.49-11.11-.98-2.17-1.91-4.22-2.35-5-1.26-2.29-8-11.97-10.86-15.01-22.25,28.33-26.81,49.93-28.54,58.15l-.19.88c-1.56,7.27,1.77,38.74,3.06,42,1.41,3.19,26.16,29.1,30.27,30.85Zm-3.53-133.24h0s0,0,0,0h0Z" fill="#644f28"/>
  <g>
    <path d="m62.26,67.82c-.14,1.63-.4,3.42-.8,5.43-.77,3.83-1.68,12.77-2.74,23.12-3.26,31.94-6.13,56.63-10.86,59.78l-1.11-1.66c4.32-2.88,7.86-37.58,9.98-58.32,1.06-10.41,1.98-19.4,2.77-23.32,1.82-9.04.52-13.46-.99-18.58-.56-1.91-1.15-3.89-1.63-6.25l1.96-.4c.46,2.28,1.04,4.21,1.59,6.08,1.25,4.24,2.36,8.02,1.84,14.12Z" fill="#644f28" stroke-width="0"/>
    <path d="m15.58,126.72l-.89-.46c.08-.14,7.51-14.42,6.94-19.27-1.1-9.35-5.19-37.35-7.98-39.99l.69-.73c3.74,3.52,8.24,40.23,8.29,40.6.6,5.15-6.73,19.25-7.05,19.85Z" fill="#644f28" stroke-width="0"/>
    <path d="m20.96,133.72l-.95-.31c1.2-3.64,9.8-31.67,8.77-35.41l-.62-2.26c-8.24-30.25-10.61-37.39-11.15-38.05l.25-.2.25-.64c.48.19,1.21.48,11.61,38.63l.62,2.26c1.22,4.41-8.68,35.67-8.78,35.98Z" fill="#644f28" stroke-width="0"/>
    <path d="m39.12,151.64l-.34-.94s-.05.03-.05.03c1.53-1.21,9.43-29.28,9.18-32.66-.04-.57-.11-1.82-.2-3.51-.36-6.81-1.1-20.98-2.11-26.04-1.97-9.87-8.78-42.44-13.91-47.05-3.34-3.01-4.69-3.08-5.11-2.97-.25.07-.32.23-.33.26l-.96-.27c.02-.07.21-.71.98-.94,1.28-.38,3.33.69,6.09,3.17,5.21,4.69,11.68,34.85,14.22,47.6,1.02,5.14,1.77,19.35,2.13,26.19.09,1.68.15,2.93.19,3.49.15,2.02-7.44,32.79-9.79,33.64Z" fill="#644f28" stroke-width="0"/>
    <path d="m43.7,155.7l-.2-.98c.52-.1,2.46-2.23,5.9-25.15,2.04-13.61,3.86-29.48,4.84-38,.29-2.52.51-4.46.65-5.58,1.05-8.36-8.96-42.69-10.85-48.66-1.15-3.64-6.81-11.41-8.42-11.55l.09-1c2.48.21,8.26,9.01,9.28,12.25.12.39,12.08,39.56,10.89,49.08-.14,1.12-.36,3.05-.65,5.57-5.08,44.26-8.53,63.41-11.54,64.02Z" fill="#644f28" stroke-width="0"/>
    <path d="m55.89,85.91l-.99-.15c1.02-6.56-1.76-33.24-4.45-42.6-2.67-9.33-11.38-21.05-12.25-21.86l.68-.73c.93.86,9.76,12.61,12.54,22.32,2.7,9.44,5.5,36.38,4.47,43.03Z" fill="#644f28" stroke-width="0"/>
  </g>
</svg>