<?xml version="1.0" encoding="UTF-8"?>
<svg id="Layer_1" data-name="Layer 1" xmlns="http://www.w3.org/2000/svg" xmlns:xlink="http://www.w3.org/1999/xlink" viewBox="0 0 86 160">
  <defs>
    <linearGradient id="linear-gradient" x1="1916.21" y1="369.98" x2="1955.32" y2="321.99" gradientTransform="translate(-916.54 -1631.06) rotate(50.77)" gradientUnits="userSpaceOnUse">
      <stop offset="0" stop-color="#d5a764"/>
      <stop offset=".29" stop-color="#e3c089"/>
      <stop offset=".58" stop-color="#f0d6aa"/>
      <stop offset=".83" stop-color="#f8e4bd"/>
      <stop offset="1" stop-color="#fbe9c5"/>
    </linearGradient>
  </defs>
  <g>
    <path d="m43.16,16.29c-1.02.31-2.07-.4-2.79-1.19-.72-.79-1.36-1.74-2.35-2.14-1.02-.41-2.18-.13-3.28-.24-1.1-.1-2.34-.95-2.1-2.02-1.71,1.3-4.26,1.38-6.05.19.57,1.23.93,2.54,1.16,3.87,4.76.88,8.87,1.75,12.57,4.3.68-1.19,1.6-2.2,2.84-2.77Z" fill="#fff" stroke-width="0"/>
    <path d="m39.01,22.61c.26-1.22.68-2.46,1.3-3.55-3.7-2.55-7.82-3.42-12.57-4.3.37,2.14.37,4.36.23,6.53-.23,3.52-.83,7.03-.76,10.56.07,3.53.89,7.19,3.14,9.91l12.02-1.87c-3.38-4.99-4.63-11.38-3.36-17.28Z" fill="#f2bb9d" stroke-width="0"/>
    <path d="m29.58,42.39c-2.11-2.56-3.28-6.2-3.36-10.53-.05-2.35.19-4.7.43-6.98.12-1.21.25-2.45.33-3.67.18-2.65.23-6.56-1.3-9.91-.19-.41-.08-.89.26-1.18.34-.29.83-.32,1.2-.07,1.45.96,3.51.9,4.89-.15.33-.25.79-.27,1.14-.05.35.23.53.65.44,1.06,0,.04-.02.11.07.25.21.28.7.52,1.15.57.33.03.69.02,1.07.01.77-.02,1.64-.05,2.49.29,1.01.41,1.69,1.2,2.29,1.9.14.16.28.33.42.49.5.54,1.22,1.07,1.76.91.5-.15,1.04.11,1.22.61.19.49-.04,1.04-.52,1.26-2.17.99-3.14,3.6-3.58,5.62-1.21,5.6,0,11.77,3.21,16.5l-1.66,1.12c-3.51-5.18-4.82-11.93-3.51-18.05.39-1.83,1.18-4.06,2.74-5.64-.4-.25-.78-.58-1.15-.99-.16-.17-.31-.35-.47-.54-.49-.58-.96-1.12-1.51-1.34-.47-.19-1.06-.17-1.69-.15-.42.01-.86.03-1.31-.02-1.02-.1-2.03-.64-2.57-1.38-.03-.04-.06-.08-.08-.12-1.16.49-2.47.63-3.71.4.91,3.15.84,6.4.69,8.73-.08,1.26-.21,2.52-.34,3.74-.23,2.21-.46,4.5-.42,6.73.05,2.7.6,6.51,2.91,9.3l-1.54,1.27Z" fill="#644f28" stroke-width="0"/>
    <path d="m31.32,15.21c-.71,5.01-1.09,10.07-.98,15.13-.13,4.91.85,10.7,5.92,12.8-5.36-1.8-6.5-7.81-6.4-12.79-.07-5.08.38-10.17,1.46-15.14h0Z" fill="#644f28" stroke-width="0"/>
    <path d="m34.4,14.82c-.71,5.01-1.09,10.07-.98,15.13-.13,4.91.85,10.7,5.92,12.8-5.36-1.8-6.5-7.81-6.4-12.79-.07-5.08.38-10.17,1.46-15.14h0Z" fill="#644f28" stroke-width="0"/>
    <path d="m35.99,14.48c-.71,5.01-1.09,10.07-.98,15.13-.13,4.91.85,10.7,5.92,12.8-5.36-1.8-6.5-7.81-6.4-12.79-.07-5.08.38-10.17,1.46-15.14h0Z" fill="#644f28" stroke-width="0"/>
  </g>
  <g>
    <path d="m43.58,27.76c4.76-2.76,20.8,22.15,23.58,26.66,2.78,4.51,10.71,25.86,10.49,41.65-.23,15.79-2.97,25.72-5.75,32.29-2.78,6.57-12.79,15.64-18.84,17.65-.89,1.4-3.06.69-5.42-.55-2.37-1.24-13.09-3.56-15.07-4.88s-12.1-10.93-15.08-17.09c-2.99-6.15-13.3-40.94-12.73-44.12,0,0,13.91-40.31,17.44-43.19,3.53-2.88,8.83-1.1,10.61-.3,2.96-2.19,6.02-5.37,10.78-8.13Z" fill="url(#linear-gradient)" stroke-width="0"/>
    <path d="m66.2,136.43c-13.99-18.71-19.46-43.74-14.31-66.54.48-2.12,1.11-4.45,2.15-5.65.95-1.11,2.89-1.89,5.17-2.09,2.94-.26,6.25.31,9.75.91l.6-3.53c-.95-2.34-1.8-4.12-2.41-5.1-.84-1.36-2.88-4.58-5.46-8.33-1.27-.03-2.57,0-3.89.11-6.52.58-12.17,3.26-15.88,7.57-3.35,3.88-4.73,8.54-5.65,12.58-6.16,27.25.36,57.16,17.04,79.56,3.73-1.33,8.85-5.19,12.88-9.49Z" fill="#e7c591" stroke-width="0"/>
    <path d="m51.56,148.78c-1.92,0-3.96-1.06-4.86-1.54-.91-.48-3.93-1.32-6.59-2.06-4.56-1.27-7.42-2.11-8.66-2.93-2.1-1.4-12.53-11.2-15.77-17.88-2.47-5.08-13.67-41.04-12.9-45.35l.08-.3c3.31-9.58,14.38-41.08,18.06-44.09,3.89-3.18,9.12-1.9,11.56-1.03.65-.52,1.33-1.09,2.03-1.68,2.21-1.86,4.71-3.96,8.07-5.9,3.19-1.85,7.71,1.48,15.12,11.12,4.66,6.06,9.34,13.27,11.17,16.23,2.86,4.64,11.01,26.55,10.78,42.73-.19,13.29-2.12,24.1-5.91,33.04-2.82,6.67-12.65,15.97-19.48,18.56-.75.79-1.71,1.07-2.69,1.07ZM6.71,79.81c-.05,3.76,9.55,36.62,12.56,42.81,2.71,5.58,12.46,15.01,14.39,16.3.8.53,4.84,1.66,7.52,2.41,3.79,1.06,6.17,1.74,7.37,2.37,1.82.95,2.62,1.08,2.91,1.09l.28-.45.68-.22c5.28-1.75,14.97-10.24,17.63-16.53,3.58-8.46,5.41-18.78,5.59-31.54.22-15.16-7.57-36.32-10.19-40.58-8.47-13.75-18.21-25.77-20.98-25.92-3,1.75-5.33,3.71-7.4,5.44-1.07.9-2.08,1.75-3.1,2.5l-.94.7-1.07-.48c-.56-.25-5.57-2.4-8.53.02-2.05,1.95-10.11,22.89-16.74,42.08Z" fill="#644f28" stroke-width="0"/>
    <path d="m33.2,37.34c-4.48,4.16-12.54,19.12-13.45,31.76s-.68,39.6,9.45,53.45c10.13,13.85,16.24,14.56,18.01,17.13,1.77,2.58,5.25,5.6,5.25,5.6l-3.76.73s-5.6-6.65-9.53-9.82-16.93-16.39-19.12-23.99c-2.18-7.6-5.39-35.01-2.97-47.03s7.37-25.04,11.04-27.88c4.39-3.39,5.07.05,5.07.05Z" fill="#644f28" stroke-width="0"/>
    <g>
      <path d="m73.82,117.33c-6.17,0-17.44-17.39-17.55-17.57-2.68-4.21-.04-17.87,1.09-23.71.16-.83.29-1.49.36-1.92.48-2.85,1.9-9.66,4.65-11.2.6-.33,1.33-.37,2.2-.11,2.95.88,6.91,5.14,8.62,8.41l-.89.46c-1.79-3.42-5.61-7.2-8.02-7.92-.6-.18-1.08-.17-1.43.03-1.94,1.08-3.42,6.13-4.15,10.49-.07.43-.2,1.1-.36,1.94-1.01,5.23-3.7,19.11-1.23,22.98,3.64,5.71,13.01,17.94,17.11,17.07l.21.98c-.2.04-.4.06-.61.06Z" fill="#644f28" stroke-width="0"/>
      <path d="m69.16,126.41c-2.74,0-5.78-.36-6.56-.91-1.04-.73-16.69-22.24-16.83-25.56-.14-3.44,1.68-18.73,3.75-23.34.47-1.04,1.02-2.36,1.63-3.79,2.1-4.99,4.72-11.2,6.54-12.69,2.34-1.91,10.87-.69,11.84-.55l-.15.99c-2.5-.38-9.36-1.05-11.06.33-1.63,1.33-4.3,7.67-6.26,12.3-.61,1.44-1.17,2.76-1.64,3.81-1.98,4.4-3.8,19.6-3.66,22.89.12,2.9,15.33,23.9,16.41,24.79.77.53,6.11,1.02,9.02.52l.17.98c-.88.15-2.02.22-3.21.22Z" fill="#644f28" stroke-width="0"/>
      <path d="m68.02,129.76c-9.8,0-14.64-9.03-20.19-19.39l-.25-.46c-5.14-9.58-4.98-17.5-4.91-20.88.01-.55.02-.97,0-1.25-.07-.96,1.07-4.07,2.93-9.05,1.75-4.67,3.72-9.96,3.71-11.53-.03-3.33,6.75-13.64,7.61-14.72,1.1-1.4,5.59-2.07,7.67-1.97l-.05,1c-2.25-.1-6.11.67-6.83,1.59-.96,1.22-7.42,11.26-7.39,14.09.02,1.75-1.91,6.9-3.77,11.88-1.37,3.67-2.93,7.83-2.87,8.62.02.3.01.75,0,1.34-.07,3.3-.22,11.04,4.79,20.39l.25.46c5.77,10.76,10.75,20.05,21.35,18.73l.12.99c-.75.09-1.46.14-2.16.14Z" fill="#644f28" stroke-width="0"/>
      <path d="m62.5,139.84c-1.47-1.1-3.77-3.34-6.21-5.71-2.85-2.77-5.79-5.64-7.33-6.58-2.86-1.75-13.63-9.29-16.6-13.19-3.09-4.05-5.54-23.11-3.73-35.52,1.62-11.14,6.87-33.75,12.2-38.1,5.14-4.19,12.2-6.39,15.13-2.8l-.77.63c-2.5-3.06-9.07-.86-13.73,2.95-4.66,3.81-9.97,24.57-11.85,37.47-1.9,13.04.82,31.21,3.54,34.77,2.9,3.8,13.51,11.21,16.33,12.94,1.63,1,4.62,3.9,7.5,6.71,2.42,2.35,4.7,4.57,6.11,5.63l-.6.8Z" fill="#644f28" stroke-width="0"/>
      <path d="m60.53,141.9c-1.68,0-3.33-1.6-6-4.21-2.18-2.12-4.88-4.75-8.71-7.63-8.66-6.51-20.21-24.72-21.19-26.71-1.07-2.16-.36-19.64.11-22.19.13-.71.26-2.66.42-5.13.45-6.85,1.19-18.31,3.35-26.56,3.44-13.12,10.74-19.25,13.73-21.27l.56.83c-2.89,1.96-9.97,7.91-13.32,20.7-2.14,8.16-2.88,19.56-3.32,26.37-.17,2.6-.29,4.48-.44,5.25-.56,3.02-1.01,19.93-.2,21.57.97,1.96,12.36,19.93,20.89,26.35,3.88,2.92,6.61,5.58,8.81,7.71,2.48,2.41,4.12,4.01,5.41,3.92l.06,1c-.06,0-.11,0-.17,0Z" fill="#644f28" stroke-width="0"/>
    </g>
  </g>
</svg>