<?xml version="1.0" encoding="UTF-8"?>
<svg id="Layer_1" data-name="Layer 1" xmlns="http://www.w3.org/2000/svg" xmlns:xlink="http://www.w3.org/1999/xlink" viewBox="0 0 86 160">
  <defs>
    <linearGradient id="linear-gradient" x1="3803.16" y1="-22.59" x2="3810.19" y2="-66.63" gradientTransform="translate(-52.93 -3716.11) rotate(89.21)" gradientUnits="userSpaceOnUse">
      <stop offset="0" stop-color="#d5a764"/>
      <stop offset=".04" stop-color="#d8ad6d"/>
      <stop offset=".21" stop-color="#e5c28d"/>
      <stop offset=".39" stop-color="#eed3a5"/>
      <stop offset=".57" stop-color="#f5dfb7"/>
      <stop offset=".77" stop-color="#f9e6c1"/>
      <stop offset="1" stop-color="#fbe9c5"/>
    </linearGradient>
    <clipPath id="clippath">
      <path d="m40.12,31.23c1.02-.59,7.14,2.31,11.56,7.06s16.96,32.56,18.07,37.7c1.1,5.14,5.32,26.21-7.92,47.05-13.24,20.84-22.47,23.34-24.37,23.37-1.94-2.82-5.54-5.62-7.47-7.97-1.93-2.35-10.67-16-11.19-19.31-.52-3.32-4.47-14.42-4.04-17.04.44-2.62,3.21-25.21,4.36-28.08,1.15-2.86,7.47-26.22,9.58-28.15s8.43-8.43,9.84-9.63c1.14-3.34,1.58-5.01,1.58-5.01Z" fill="url(#linear-gradient)" stroke-width="0"/>
    </clipPath>
  </defs>
  <g>
    <path d="m40.86,14.81c-.95.49-2.11-.02-2.96-.66-.85-.65-1.65-1.46-2.7-1.67-1.08-.22-2.17.26-3.27.36-1.1.1-2.47-.51-2.44-1.61-1.45,1.59-3.94,2.14-5.92,1.29.78,1.11,1.38,2.32,1.85,3.59,4.84,0,9.04.11,13.14,1.94.45-1.3,1.17-2.46,2.29-3.24Z" fill="#fff" stroke-width="0"/>
    <path d="m37.94,21.78c.04-1.25.22-2.55.63-3.73-4.11-1.84-8.31-1.94-13.14-1.94.75,2.03,1.16,4.22,1.41,6.38.41,3.51.46,7.07,1.17,10.53.71,3.46,2.18,6.91,4.89,9.18l11.48-4.03c-4.24-4.29-6.62-10.35-6.44-16.38Z" fill="#f2bb9d" stroke-width="0"/>
    <path d="m32.25,42.95c-2.54-2.13-4.35-5.5-5.22-9.74-.47-2.31-.66-4.66-.85-6.94-.1-1.21-.2-2.46-.34-3.67-.31-2.64-.96-6.5-3.08-9.51-.26-.37-.24-.86.04-1.21.28-.35.76-.47,1.17-.29,1.6.68,3.61.25,4.78-1.04.28-.31.73-.41,1.12-.25.39.16.64.54.62.96,0,.04,0,.11.12.23.25.24.78.39,1.23.35.33-.03.68-.1,1.05-.18.75-.16,1.61-.34,2.5-.16,1.07.22,1.88.87,2.6,1.46.17.14.34.27.51.4.59.45,1.4.83,1.9.57.47-.24,1.04-.08,1.31.37.27.45.15,1.03-.28,1.33-1.95,1.36-2.44,4.11-2.5,6.18-.17,5.72,2.13,11.57,6.15,15.65l-1.42,1.4c-4.4-4.46-6.91-10.85-6.73-17.11.06-1.87.42-4.21,1.67-6.05-.44-.18-.88-.43-1.31-.76-.19-.14-.37-.29-.56-.44-.59-.48-1.15-.93-1.73-1.05-.49-.1-1.07.03-1.69.16-.41.09-.84.18-1.29.22-1.02.09-2.11-.26-2.78-.89-.04-.03-.07-.07-.1-.1-1.05.7-2.31,1.07-3.57,1.07,1.47,2.93,1.99,6.14,2.26,8.46.15,1.25.25,2.52.35,3.74.18,2.22.36,4.51.81,6.7.54,2.65,1.78,6.29,4.55,8.61l-1.28,1.53Z" fill="#644f28" stroke-width="0"/>
    <path d="m29.02,15.91c.22,5.06.76,10.1,1.79,15.05.77,4.85,2.78,10.37,8.15,11.51-5.6-.8-7.81-6.5-8.62-11.41-.99-4.98-1.48-10.07-1.32-15.15h0Z" fill="#644f28" stroke-width="0"/>
    <path d="m31.98,14.96c.22,5.06.76,10.1,1.79,15.05.77,4.85,2.78,10.37,8.15,11.51-5.6-.8-7.81-6.5-8.62-11.41-.99-4.98-1.48-10.07-1.32-15.15h0Z" fill="#644f28" stroke-width="0"/>
    <path d="m33.49,14.34c.22,5.06.76,10.1,1.79,15.05.77,4.85,2.78,10.37,8.15,11.51-5.6-.8-7.81-6.5-8.62-11.41-.99-4.98-1.48-10.07-1.32-15.15h0Z" fill="#644f28" stroke-width="0"/>
  </g>
  <g>
    <path d="m40.12,31.23c1.02-.59,7.14,2.31,11.56,7.06s16.96,32.56,18.07,37.7c1.1,5.14,5.32,26.21-7.92,47.05-13.24,20.84-22.47,23.34-24.37,23.37-1.94-2.82-5.54-5.62-7.47-7.97-1.93-2.35-10.67-16-11.19-19.31-.52-3.32-4.47-14.42-4.04-17.04.44-2.62,3.21-25.21,4.36-28.08,1.15-2.86,7.47-26.22,9.58-28.15s8.43-8.43,9.84-9.63c1.14-3.34,1.58-5.01,1.58-5.01Z" fill="url(#linear-gradient)"/>
    <g clip-path="url(#clippath)">
      <path d="m52.3,77.06c-.81,2.42-.97,5.06-.98,7.54.22,4.77.2,8.98-.71,13.54-.7,3.85-2.06,7.88-2.57,11.85-.39,2.87-.18,5.77.18,8.6.55,4.52,1.41,9.17,3.62,13.36.48.91,1.01,1.8,1.58,2.69,2.57-3.04,5.38-6.83,8.41-11.6,1-1.57,1.89-3.15,2.7-4.72-1.34-2.92-2.71-5.83-3.97-8.81-2.73-5.12-6.18-11.15-4.08-17,1.09-3.7,4.7-6.41,7.38-8.76,2.47-2.23,3.93-4.87,5.96-7.43-.02-.11-.05-.23-.07-.33-.37-1.72-2.02-5.99-4.22-11.07-5.91,1.85-11.15,6.33-13.23,12.14Z" fill="#e7c591" stroke-width="0"/>
      <path d="m44.71,77.39c1.62-4.31,5.5-8.22,9.25-12l8.11-8.17c-2.61-5.61-5.43-11.21-7.67-14.98l-11.79,11.88c-4.48,4.51-10.05,10.12-12.88,17.65-2.67,7.1-2.37,14.46-2.13,20.36.62,15.39,1.45,30.89,2.43,46.36,1.94,2.34,5.5,5.12,7.43,7.92,1.02-.01,4.13-.74,8.83-4.6-1.1-16.79-2.02-33.62-2.7-50.33-.19-4.7-.41-10.03,1.12-14.09Z" fill="#e7c591" stroke-width="0"/>
    </g>
  </g>
  <path d="m36.42,148.43l-.61-.88c-1.02-1.48-2.62-3.03-4.17-4.53-1.19-1.15-2.32-2.24-3.19-3.3-1.86-2.26-11.01-16.37-11.62-20.27-.18-1.13-.86-3.48-1.58-5.97-1.74-5.99-2.77-9.77-2.45-11.71.11-.63.37-2.61.71-5.11,1.79-13.31,2.97-21.4,3.77-23.38.31-.79,1.16-3.63,2.15-6.92,4.19-14,6.33-20.5,7.94-21.97.99-.91,3.01-2.92,4.95-4.86,1.9-1.89,3.57-3.56,4.51-4.43.97-2.89,1.36-4.36,1.37-4.38l.21-.81.73-.42c2.78-1.6,10.29,3.42,14.02,7.43,4.83,5.19,17.47,33.6,18.56,38.65,3.69,17.19.78,34.43-8.19,48.54-14.91,23.47-24.93,24.28-26.03,24.29h-1.07Zm5.13-114.96c-.26.83-.62,1.97-1.11,3.41l-.18.52-.41.36c-.67.57-2.72,2.62-4.71,4.61-1.98,1.97-4.02,4.01-5.08,4.98-1.23,1.53-5,14.11-6.81,20.16-1.21,4.03-1.9,6.35-2.27,7.25-.76,1.91-2.69,16.29-3.52,22.43-.35,2.64-.61,4.54-.73,5.23-.18,1.23,1.46,6.89,2.34,9.93.79,2.73,1.48,5.09,1.69,6.46.4,2.56,8.49,15.59,10.76,18.35.73.89,1.78,1.9,2.88,2.97,1.36,1.31,2.76,2.66,3.9,4.08,2.56-.76,10.52-4.47,21.82-22.25,8.4-13.22,11.12-29.4,7.65-45.56-1.08-5.03-13.54-32.42-17.57-36.76-3.04-3.27-6.77-5.41-8.67-6.18Z" fill="#644f28" stroke-width="0"/>
  <g>
    <path d="m39.84,37.06l-8.07,28.15s-9.47,37.59-9.18,40.92c.28,3.33.14,10.23,1.97,13.77s12.22,23.5,12.22,23.5l-1.12.02s-12.66-20.9-13.24-23.49c-.76-3.44-2.52-10.19-.97-18.3,1.55-8.11,13.66-61.08,13.66-61.08l4.73-3.48Z" fill="#644f28" stroke-width="0"/>
    <path d="m53.63,133.5c-.1-.36-2.33-8.84-2.53-11.99-.17-2.65,2.42-12.17,4.49-19.82.43-1.59.83-3.05,1.15-4.27,1.82-6.89,8.17-16.45,9.78-17.95.69-.64,1.39-.89,2.08-.75.95.2,1.77,1.09,2.5,2.74l-.91.41c-.58-1.29-1.2-2.04-1.79-2.17-.36-.08-.76.09-1.2.5-1.51,1.4-7.75,10.88-9.5,17.47-.32,1.22-.72,2.69-1.15,4.28-1.84,6.77-4.62,17-4.46,19.49.2,3.05,2.48,11.71,2.5,11.79l-.97.26Z" fill="#644f28" stroke-width="0"/>
    <path d="m50.54,137.56c-2.27-1.99-4.75-6.4-4.26-12.29.5-5.98,6.47-40.43,7.92-43.44,1.53-3.17,9.26-8.99,15.74-6.31l-.38.92c-6.26-2.59-13.27,3.37-14.46,5.82-1.31,2.72-7.26,36.29-7.83,43.08-.61,7.27,3.45,11.04,3.92,11.45l-.66.75Z" fill="#644f28" stroke-width="0"/>
    <path d="m43.32,144.84c-3.76-.88-5.86-6.64-6.78-9.99-1.2-4.39.42-30.71,2.24-41.67,1.88-11.28,9.59-31.65,13.32-35.14,3.87-3.64,8.74.57,11.65,3.09l-.61.8-.05-.04c-2.83-2.44-7.1-6.13-10.31-3.12-3.27,3.07-11.07,22.89-13.02,34.58-1.96,11.8-3.36,37.24-2.26,41.24,1.46,5.34,3.67,8.73,6.04,9.29l-.23.97Z" fill="#644f28" stroke-width="0"/>
    <path d="m28.46,129.6c-2.77-5.68-2.81-25.48-2.61-29.29.21-3.92,6.23-28.34,8.8-38.77.56-2.29.97-3.94,1.13-4.61.85-3.61,3.99-12.2,8.27-15.76,5.14-4.27,9.01-.82,10.44.87l-.76.65c-1.53-1.81-4.75-4.31-9.04-.75-4.05,3.36-7.14,11.86-7.93,15.22-.16.67-.57,2.33-1.13,4.62-2.56,10.4-8.57,34.76-8.77,38.58-.26,4.97,0,23.67,2.51,28.8l-.9.44Z" fill="#644f28" stroke-width="0"/>
  </g>
</svg>