<?xml version="1.0" encoding="UTF-8"?>
<svg id="Layer_1" data-name="Layer 1" xmlns="http://www.w3.org/2000/svg" xmlns:xlink="http://www.w3.org/1999/xlink" viewBox="0 0 86 160">
  <defs>
    <linearGradient id="linear-gradient" x1="4048.47" y1="-1414.8" x2="4066.66" y2="-1486.29" gradientTransform="translate(359.96 -4196.44) rotate(113.73)" gradientUnits="userSpaceOnUse">
      <stop offset="0" stop-color="#d5a764"/>
      <stop offset=".04" stop-color="#d8ad6d"/>
      <stop offset=".21" stop-color="#e5c28d"/>
      <stop offset=".39" stop-color="#eed3a5"/>
      <stop offset=".57" stop-color="#f5dfb7"/>
      <stop offset=".77" stop-color="#f9e6c1"/>
      <stop offset="1" stop-color="#fbe9c5"/>
    </linearGradient>
  </defs>
  <g>
    <path d="m46.16,16.47c-.95.49-2.11-.02-2.96-.66-.85-.65-1.65-1.46-2.7-1.67-1.08-.22-2.17.26-3.27.36-1.1.1-2.47-.51-2.44-1.61-1.45,1.59-3.94,2.14-5.92,1.29.78,1.11,1.38,2.32,1.85,3.59,4.84,0,9.04.11,13.14,1.94.45-1.3,1.17-2.46,2.29-3.24Z" fill="#fff" stroke-width="0"/>
    <path d="m43.24,23.44c.04-1.25.22-2.55.63-3.73-4.11-1.84-8.31-1.94-13.14-1.94.75,2.03,1.16,4.22,1.41,6.38.41,3.51.46,7.07,1.17,10.53.71,3.46,2.18,6.91,4.89,9.18l11.48-4.03c-4.24-4.29-6.62-10.35-6.44-16.38Z" fill="#f2bb9d" stroke-width="0"/>
    <path d="m37.55,44.61c-2.54-2.13-4.35-5.5-5.22-9.74-.47-2.31-.66-4.66-.85-6.94-.1-1.21-.2-2.46-.34-3.67-.31-2.64-.96-6.5-3.08-9.51-.26-.37-.24-.86.04-1.21.28-.35.76-.47,1.17-.29,1.6.68,3.61.25,4.78-1.04.28-.31.73-.41,1.12-.25.39.16.64.54.62.96,0,.04,0,.11.12.23.25.24.78.39,1.23.35.33-.03.68-.1,1.05-.18.75-.16,1.61-.34,2.5-.16,1.07.22,1.88.87,2.6,1.46.17.14.34.27.51.4.59.45,1.4.83,1.9.57.47-.24,1.04-.08,1.31.37.27.45.15,1.03-.28,1.33-1.95,1.36-2.44,4.11-2.5,6.18-.17,5.72,2.13,11.57,6.15,15.65l-1.42,1.4c-4.4-4.46-6.91-10.85-6.73-17.11.06-1.87.42-4.21,1.67-6.05-.44-.18-.88-.43-1.31-.76-.19-.14-.37-.29-.56-.44-.59-.48-1.15-.93-1.73-1.05-.49-.1-1.07.03-1.69.16-.41.09-.84.18-1.29.22-1.02.09-2.11-.26-2.78-.89-.04-.03-.07-.07-.1-.1-1.05.7-2.31,1.07-3.57,1.07,1.47,2.93,1.99,6.14,2.26,8.46.15,1.25.25,2.52.35,3.74.18,2.22.36,4.51.81,6.7.54,2.65,1.78,6.29,4.55,8.61l-1.28,1.53Z" fill="#644f28" stroke-width="0"/>
    <path d="m34.33,17.56c.22,5.06.76,10.1,1.79,15.05.77,4.85,2.78,10.37,8.15,11.51-5.6-.8-7.81-6.5-8.62-11.41-.99-4.98-1.48-10.07-1.32-15.15h0Z" fill="#644f28" stroke-width="0"/>
    <path d="m37.29,16.62c.22,5.06.76,10.1,1.79,15.05.77,4.85,2.78,10.37,8.15,11.51-5.6-.8-7.81-6.5-8.62-11.41-.99-4.98-1.48-10.07-1.32-15.15h0Z" fill="#644f28" stroke-width="0"/>
    <path d="m38.79,15.99c.22,5.06.76,10.1,1.79,15.05.77,4.85,2.78,10.37,8.15,11.51-5.6-.8-7.81-6.5-8.62-11.41-.99-4.98-1.48-10.07-1.32-15.15h0Z" fill="#644f28" stroke-width="0"/>
  </g>
  <g>
    <path d="m55.87,24.11c1.87,1.96,15.14,32.39,15.85,35.44s.24,44.52-2.36,54.07c-2.61,9.56-7.11,22.38-13.54,28.21s-24.28,14.83-27.61,13.6-10.89-3.19-12.83-6.55-7.63-18.39-7.18-26.16c.46-7.77,2.5-45.59,28.35-81.59,8.02-11.51,17.45-18.97,19.32-17.01Z" fill="url(#linear-gradient)"/>
    <path d="m60,95.2c-14.84,8.87-18.41,17.72-24.59,32.73-2.81,6.56-5.87,13-8.46,19.66-.14,2.44-.19,4.9-.15,7.35.52.17.99.34,1.4.49.83.31,2.55-.02,4.77-.77.01-2.2.06-4.41.2-6.63.97-14.95,7.47-23.39,18.24-32.88,5.27-4.59,12.29-13.39,19.77-17.38.12-2.01.23-4.11.33-6.23-4.08.21-8.3,1.78-11.51,3.66Z" fill="#e7c591" stroke-width="0"/>
    <path d="m24.83,154.27c.45-1.74.94-3.47,1.54-5.17.19-.51.39-1.01.58-1.51,1.03-17.77,6.91-35.18,17.16-49.93,5.02-7.22,9.79-11.75,15.01-14.23,3.64-1.73,8.49-2.55,12.72-1.36.1-4,.16-7.84.17-11.19-5.67-.94-11.89-.1-17.61,2.62-7.03,3.34-13.17,9.02-19.33,17.89-11.9,17.13-18.51,37.49-19.22,58.16,1.77,2.11,5.73,3.62,8.98,4.73Z" fill="#e7c591" stroke-width="0"/>
    <path d="m28.85,157.5c-.52,0-.98-.07-1.35-.2-.56-.21-1.25-.44-2.02-.7-4.17-1.39-9.87-3.3-11.85-6.73-1.98-3.43-7.93-18.99-7.44-27.27v-.16c1.75-29.82,11.95-59.11,28.73-82.48,6.86-9.84,15.55-17.82,19.78-18.15,1.04-.08,1.97.25,2.62.92,2.43,2.55,15.69,33.52,16.35,36.36.76,3.24.37,44.96-2.38,55.05-2.71,9.92-7.35,23.03-14.13,29.17-5.39,4.88-22,14.19-28.3,14.19ZM54.66,25.86c-2.31.62-9.48,6.38-16.47,16.41-16.35,22.78-26.29,51.33-27.99,80.4v.16c-.42,7.08,5,21.76,6.9,25.04,1.22,2.12,6.5,3.88,9.66,4.94.81.27,1.54.52,2.14.74,2.6.48,19.02-7.26,25.57-13.2,4.73-4.28,9.33-13.96,12.95-27.25,2.44-8.95,3.01-49.91,2.34-53.1-.64-2.75-12.49-29.92-15.11-34.14Z" fill="#644f28" stroke-width="0"/>
    <path d="m28.11,65.54c5.78-13.15,13.42-26.52,22.88-40.02l2.27.34C0,101.91,21.16,151.13,21.39,151.59l-1.79.9c-.07-.13-6.7-13.66-4.4-39.1,1.41-15.53,5.73-31.52,12.9-47.85Z" fill="#644f28" stroke-width="0"/>
    <g>
      <path d="m36.16,152.99c-.79-2.73-1.44-6.43-.3-13.09.69-4.02,8.86-15.2,12.35-19.83,3.14-4.17,11.66-15.04,13.31-15.33,1.69-.3,3.96,1.33,6.14,2.91.81.58,1.57,1.13,2.25,1.55l-.52.85c-.72-.44-1.5-1-2.32-1.59-1.92-1.38-4.1-2.96-5.38-2.73-2.13.73-23.82,28.29-24.85,34.34-1.1,6.46-.48,10.02.28,12.64l-.96.28Z" fill="#644f28" stroke-width="0"/>
      <path d="m27.7,155.44c-.01-.35-.04-.91-.08-1.61-.26-5.01-.47-10.48.39-12.04.22-.41,25.17-40.86,29.5-41.37,3.81-.45,10.18,1,12.9,2.2l-.4.92c-2.56-1.12-8.8-2.54-12.38-2.12-3.36.4-27.01,37.75-28.74,40.87-.79,1.43-.42,8.49-.26,11.5.04.71.07,1.28.08,1.64l-1,.03Z" fill="#644f28" stroke-width="0"/>
      <path d="m19.59,149.01c-1.41-19.3,10.37-43.67,17.55-55.03,7.53-11.91,21.26-18.33,24.27-18.98,2.93-.65,9.11,4.85,10.62,7.2l-.84.54c-1.52-2.38-7.32-7.24-9.56-6.76-2.93.64-16.28,6.89-23.64,18.54-7.12,11.26-18.79,35.39-17.4,54.42l-1,.07Z" fill="#644f28" stroke-width="0"/>
      <path d="m17.57,133.69l-.99-.11c.97-8.49,9.34-29.59,15.7-39.62,5.23-8.24,13.01-14.08,17.65-17.56.93-.7,1.74-1.3,2.39-1.82,3.98-3.19,13.52-5.73,15.27-5.45,2.1.36,3.79,6.39,4.01,8.17l-.99.12c-.31-2.42-2.07-7.12-3.19-7.31-1.38-.25-10.58,2.12-14.48,5.25-.66.53-1.48,1.14-2.41,1.84-4.59,3.44-12.27,9.21-17.41,17.29-6.31,9.94-14.59,30.82-15.55,39.2Z" fill="#644f28" stroke-width="0"/>
      <path d="m17.59,110.51l-.92-.4.68-1.55c3.64-8.32,11.22-25.62,16.02-30.57,13-13.41,22.68-21.37,28.78-23.64,2.01-.75,3.79-.62,5.31.39,4.48,2.96,4.95,12.58,4.97,12.98l-1,.04c0-.09-.47-9.51-4.52-12.2-1.25-.83-2.69-.92-4.4-.28-5.96,2.22-15.51,10.09-28.41,23.4-4.67,4.82-12.2,22.01-15.82,30.27l-.68,1.55Z" fill="#644f28" stroke-width="0"/>
      <path d="m18.18,102.89l-.93-.37s2.32-5.77,4.73-11.72c2.48-6.14,13.02-22.99,17.52-30.18,5.21-8.32,12.46-14.25,17.34-16.44,2.69-1.21,4.96-1.47,6.73-.8,1.28.49,2.28,1.48,2.89,2.87l-.91.41c-.51-1.16-1.3-1.94-2.34-2.34-1.52-.58-3.52-.32-5.97.77-4.74,2.12-11.81,7.91-16.9,16.06-4.49,7.17-14.99,23.97-17.44,30.02-2.4,5.95-4.73,11.72-4.73,11.72Z" fill="#644f28" stroke-width="0"/>
    </g>
  </g>
</svg>