<?xml version="1.0" encoding="UTF-8"?>
<svg id="Layer_2" data-name="Layer 2" xmlns="http://www.w3.org/2000/svg" xmlns:xlink="http://www.w3.org/1999/xlink" viewBox="0 0 346 469">
  <defs>
    <linearGradient id="linear-gradient" x1="187.00138" y1="325.3133" x2="181.4429" y2="315.68573" gradientUnits="userSpaceOnUse">
      <stop offset="0" stop-color="#64681e"/>
      <stop offset=".54811" stop-color="#64681e"/>
      <stop offset=".85115" stop-color="#64681e" stop-opacity="0"/>
      <stop offset="1" stop-color="#64681e" stop-opacity="0"/>
    </linearGradient>
    <linearGradient id="linear-gradient-2" x1="158.26699" y1="323.11181" x2="168.07855" y2="317.4471" gradientUnits="userSpaceOnUse">
      <stop offset="0" stop-color="#64681e"/>
      <stop offset=".4763" stop-color="#64681e"/>
      <stop offset=".81828" stop-color="#64681e" stop-opacity="0"/>
      <stop offset="1" stop-color="#64681e" stop-opacity="0"/>
    </linearGradient>
    <linearGradient id="linear-gradient-3" x1="172.95409" y1="335.07172" x2="172.95409" y2="331.88422" gradientUnits="userSpaceOnUse">
      <stop offset="0" stop-color="#fff"/>
      <stop offset=".34875" stop-color="#fff"/>
      <stop offset=".90496" stop-color="#fff" stop-opacity="0"/>
      <stop offset="1" stop-color="#fff" stop-opacity="0"/>
    </linearGradient>
    <linearGradient id="linear-gradient-4" x1="186.49332" y1="324.45338" x2="181.92902" y2="316.54777" gradientUnits="userSpaceOnUse">
      <stop offset="0" stop-color="#c6c359"/>
      <stop offset=".46799" stop-color="#c6c359"/>
      <stop offset=".91864" stop-color="#c6c359" stop-opacity="0"/>
      <stop offset="1" stop-color="#c6c359" stop-opacity="0"/>
    </linearGradient>
    <linearGradient id="linear-gradient-5" x1="159.13147" y1="322.61189" x2="167.18795" y2="317.96048" gradientUnits="userSpaceOnUse">
      <stop offset="0" stop-color="#c6c359"/>
      <stop offset=".40238" stop-color="#c6c359"/>
      <stop offset=".81543" stop-color="#c6c359" stop-opacity="0"/>
      <stop offset="1" stop-color="#c6c359" stop-opacity="0"/>
    </linearGradient>
    <linearGradient id="linear-gradient-6" x1="185.40663" y1="325.08078" x2="181.53746" y2="318.37918" gradientUnits="userSpaceOnUse">
      <stop offset="0" stop-color="#cfd16b"/>
      <stop offset=".48889" stop-color="#cfd16b"/>
      <stop offset=".87689" stop-color="#cfd16b" stop-opacity="0"/>
      <stop offset="1" stop-color="#cfd16b" stop-opacity="0"/>
    </linearGradient>
    <linearGradient id="linear-gradient-7" x1="159.77633" y1="323.72883" x2="167.80546" y2="319.09321" gradientUnits="userSpaceOnUse">
      <stop offset="0" stop-color="#cfd16b"/>
      <stop offset=".41694" stop-color="#cfd16b"/>
      <stop offset=".86856" stop-color="#cfd16b" stop-opacity="0"/>
      <stop offset="1" stop-color="#cfd16b" stop-opacity="0"/>
    </linearGradient>
  </defs>
  <g id="CASE_14_Plants_LL_WL_CL" data-name="CASE 14 Plants LL WL CL">
    <g id="Day_24" data-name="Day 24">
      <g id="rectangle">
        <rect width="346" height="469" fill="none"/>
      </g>
      <g id="ROOTS_Back" data-name="ROOTS Back">
        <path d="m189.58086,340.62567c1.19938.40885,1.99252-1.2905.91492-1.95935-2.14954-1.54181-5.30652-1.54803-7.68591-1.73584-.01355-.00531-.03094-.01257-.04346-.01733-2.48547-1.17053-5.78961-.82483-8.25885-2.04431-.0047-.09851-.00238-.19855-.00757-.297-.00463-1.65892-2.34746-2.05418-2.90265-.51093-1.99664,1.94199-4.92139,2.91575-7.64789,3.28986-1.72858.27179-11.21332,3.94159-9.20569,6.26642.43451.44824,1.15863.43976,1.58734-.01184.72675-.7085,1.68146-1.3078,2.69641-1.82678-.63654,1.14618-1.13599,2.37866-1.55615,3.56567-.38953,1.36938,1.62274,2.00916,2.09564.66791.20551-.54803.45062-1.13367.73511-1.72021-.0722.828.89294,1.63898,1.76593.99066.76202-.56042,1.64777-.9845,2.58319-1.28992-2.23059,1.94604-5.61041,5.51959-3.50214,6.64111.56866.2251,1.21301-.05853,1.43158-.62958,1.44408-3.14952,4.88205-4.97944,7.67438-6.91608-.53186.84833-.94672,1.76892-1.58069,2.49628-2.80725,2.36267-5.34338,4.71185-7.0199,8.11646-.54407,1.3233,1.39856,2.17627,2.00824.89026.67828-1.28766,1.66058-2.51917,2.76538-3.66138-.00602.77748-.24746,1.80316.69775,2.10986-.80652.43634-1.58173.93427-2.30688,1.53235-.73108.51593-2.36011,2.5932-.71075,3.2757.60889.22064,1.26788-.14148,1.43787-.76025.17346-.25446.39215-.48328.62775-.7016-.54871,1.23102-.94135,2.5213-1.33453,3.90649-.32222,1.40583,1.75526,1.92779,2.13422.53357.76788-2.3172,1.66504-4.93518,3.617-6.46436.31403-.31592.57404-.68262.81177-1.06824.03571.66913.06824,1.33185.09631,1.98712-.60309,2.02905-5.54169,7.14899-2.71088,8.2019.60406.12433,1.19342-.276,1.30292-.88245.23969-.95404.8064-1.8316,1.44452-2.70624-.03601,2.922-.06897,5.84222.54816,8.82654.31427,1.39423,2.38458.98077,2.16083-.41302-.27722-1.7691-.31427-3.59662-.27374-5.44214.67352.78778,1.35498,1.55096,1.84058,2.35693.62762,1.00751,1.99786.44073,2.04474-.50433,1.76361.21183,1.21759-1.88461,1.24945-3.01044.00745.0188.0166.03754.02393.05634.46813,1.33011,2.46701.70907,2.09459-.65483-.14397-.49898-.27238-.7715-.41991-1.11458-.90686-1.97211-2.03363-3.77643-3.50073-5.38544-1.27576-1.4289-2.41247-2.72144-3.20679-4.51178-.00928-.89258-.00989-1.74365.0033-2.50189.32507.20551.6557.39563.98914.58533.96521,1.79584,1.34088,4.935,2.77777,6.7439.80444,1.16962,2.57782.03632,1.85382-1.18433-.55444-.90326-.95593-1.86475-1.25183-2.91278,1.12799,1.37366,1.91376,3.06024,2.18707,4.75665.09076.58319.62842.99359,1.21887.92218,2.08344-.33101.1495-4.22304-.35602-5.36487,1.20886.43457,2.34814.966,3.24213,1.96387.96848,1.02771,2.55899-.411,1.62933-1.47766-.77673-.9483-1.74866-1.58618-2.79077-2.09637.80402.08063,1.63251-.80444,1.05249-1.70526-1.87512-2.39954-4.48737-3.81531-7.18066-5.0813-1.30756-.45569-2.07654-1.00482-2.94476-2.05798.86353.31665,1.78448.48285,2.70978.60016.02643.00537.04865.01495.07617.01917,2.13438.43335,3.64877,3.01887,5.61946,4.2748.69063.5209,1.77692-.03026,1.71941-.90193.70184.76202,1.3053,1.58344,1.73676,2.3786.67456,1.25598,2.56832.30865,1.96613-.98535-1.6142-2.95416-3.67413-5.14728-6.78607-6.59937-1.86346-.68823-4.33008-.57355-6.09778-1.36969,1.43286.30145,2.89319.43585,4.29175.54565,3.62585.81738,7.53088,2.87268,10.3017,5.32703.4201.44232,1.12762.4613,1.56714.03125.901-.82715-.27753-2.12018-2.04968-3.38098Zm-28.87469,2.92908c-.01569.01312-.026.02771-.04071.04114.82715-1.51929,1.92926-2.94135,3.33679-3.62585.96289-.21387,1.93658-.37732,2.92059-.52655,1.65259-.4361,3.19751-.9632,4.60583-1.79016.00128.08545.00238.17072.00366.25604-.0025.05396-.0022.10797.00232.16315.0022.1524.0047.30634.00659.45819-.80597.90765-1.76514,1.65118-2.763,2.36438-2.92682.0401-5.74176.82745-8.07208,2.65967Zm7.98383,7.1333c.02289-1.18774.47919-1.91809,1.23291-2.85272.11029-.08588.22217-.17664.33154-.26019.34106-.2381.65179-.60425.94623-1.01495-.00586.30396-.0105.60822-.01031.9137-.91614,1.60437-1.21069,3.11249-2.01434,4.59607-.23029.09833-.46088.19598-.68842.2995.18994-.52673.18848-1.21375.20239-1.6814Zm6.33014,5.02423c1.69648,1.79615,1.72584,4.74156,1.89178,7.14532-1.10394-1.4859-2.52594-2.81519-2.76959-4.48053.03503-.87305.06354-1.74426.06451-2.60822-.00568-.28369-.01227-.58527-.01923-.89502.26984.29309.54193.58423.83252.83844Zm7.79852-6.66968c.05859.08545.12311.15558.19037.21753-.44476-.19501-.89484-.37878-1.34845-.55157.12482-.16077.20819-.35046.23273-.5517.32794.28125.64319.57233.92535.88574Zm-6.26178-3.94604c.12976.05377.26221.11267.39337.16876.83887.54865,1.3811,1.44232,2.02802,2.33801-.08826-.0434-.18158-.08099-.26819-.1264-.09125-.06445-.18256-.11328-.27338-.15192-.16809-.1377-.3291-.2832-.50525-.41174-1.14581-.7951-2.74933-1.62396-3.6062-2.58752.00525-.07709.01208-.15442.01715-.23145.70026.44794,1.45715.81171,2.21448,1.00226Z" fill="#4c4c4c"/>
      </g>
      <path d="m190.26585,301.62366c-1.49717-1.74255-5.88376-2.14199-7.93683-.57629-.06104.03326-.12317.07129-.18573.11108-.25773-.00733-.57701-.03199-1.07349.08653-.52625.16628-.88776.57638-1.13635.88119-.30988.02155-.73993.07257-1.07611.41498-.35816.37104-.3857,1.0703-.65857,1.56744-.34988.18882-.89178.34393-1.15344.54046-.44913.23191-.49009,1.19768-.58331,1.90357-.2578.5184-.45251.66385-.65253.95874-.31465.45333-.36655,1.49496-.434,2.31214-.11492.56233-.71022.91316-.71101,1.53503-.01028.48861.3111.78907.43719,1.2146-.1604.38947-.29016.75836-.32483,1.1059-.38495.80841-.76428,1.67383-1.11389,2.565-.26105-1.24646-.57556-2.38605-.93506-3.34082-.02228-.31866-.10687-.71082-.23071-1.26636-.07902-.34658.22826-.59155.27128-.97413.07782-.60506-.35867-1.27834-.30305-1.93457.18158-2.14204.71385-3.57852-.34811-4.62988-.0189-.67494.06906-1.5479-.31668-1.87095-.38913-.39408-.76857-.35967-1.08188-.38222-.11866-.10852-.17312-.37762-.18321-.54981.00573-.29482-.21633-.75106-.47591-.932.06292-.27008-.28484-.90739-.57806-1.05231-.16784-.57437-.36818-1.42594-1.25391-1.46802-.22779-.0086-.38847.04372-.57892.07526-.20624-.42657-.47131-.93201-1.08466-1.00897-.09323-.01237-.28038-.02359-.35016-.04651-.28877-.39828-.70736-.98166-1.44214-.94348l-.10461.01501c-.28046.04559-.4942.18121-.66675.29364-1.36662-.8018-2.683-1.00507-3.47047-.3436-.6951.72842-.37817,1.81324-.35192,2.74692-.08847.3002-.32708.4883-.27934.95887.0219.21453.08629.3753.1356.47796-.00269.02423-.00702.0567-.01422.09888-.13021.24067-.29476.4861-.28943.90887-.01476.51501.48933.9274.95649,1.36902-.01029.23011-.0455.55147.24609.89856.18628.21214.42328.31569.66633.49798-.01075.60368-.29568,1.22647.06085,1.78888.31109.54323,1.61075.92398,2.09259,1.40021.25556.56254.49081,2.00871.82976,2.35773.74515.73319,2.1995.40815,2.84281,1.49817.42783.77203.16577.77786.36421,1.40131.31078.77546,1.0854.72612,1.62368,1.02336.63708.51679.64776.59956,1.14092.93416.38513,1.14075.70935,2.55573.94891,4.08221-.83807-.62537-2.05096-1.18805-3.66357-1.23621-1.05861-1.73171-3.07365-2.58373-5.0558-2.23719-2.78704.39454-5.74266,2.04408-5.73052,4.32392.00854,1.60889,1.33783,1.91589,1.85583,2.03052-.19961,1.25154-.9062,2.5492.86758,3.99039,3.73016,2.81255,9.43415-1.0488,8.93009-5.48965,1.69383.34743,2.9651,2.32263,3.05212,3.79602-.08107,3.81823-.46888,6.60412-.25731,11.06458.03674.82877.74812,1.46872,1.56835,1.42871.82763-.03857,1.46728-.74072,1.42871-1.56836-.20024-4.18956.16168-6.90472.25482-10.60107.23285-1.89526,1.81388-3.59266,3.76715-3.77783-1.592,4.66136,5.88423,8.39651,8.90896,4.70955.92192-1.27217.45896-2.37533.46451-3.44612.02863-.04626.05243-.06799.05267-.06818,1.59811-.28904,2.27628-2.60689,1.32297-4.05436-1.63887-2.96433-7.94144-3.26643-9.43784.35978-1.58875-.13708-3.0686.18726-4.33203.9657.37469-1.12152.85535-2.32178,1.45551-3.59583.3363-.15997.67853-.34967.94324-.5799.26858-.20309.92043-.38891,1.19769-.51874.97384-.33583,1.39702-2.27682,2.42645-2.30743.05856.00111.17853.00336.2373.00446.11652,0,.47101,0,.77991-.25714.375-.26874.69669-1.35167.99719-1.87115.43778-.02387.88886.06609,1.33155-.39287.23992-.26454.60687-1.00807.8153-1.52412.51683-.1775.99999-.51411,1.0296-1.02338.34-.12734.8523-.28468.98944-.9054.05861-.18571.14271-.44226.18121-.61908.28949-.06952.82922-.23608.99957-.83551.06317-.22833.12695-.3645.17798-.44708.4988-.24626,1.11772-.34697,1.35352-1.05609.09905-.32386.04455-.67548-.1496-.96466Z" fill="#2e541a"/>
      <g id="ROOTS">
        <path d="m190.92918,343.14416c-2.05835-1.91309-4.46442-3.50574-7.05243-4.66345,2.0793-.02898,4.18114.10362,5.99992,1.21345.04628.02642.10585.01207.1346-.03352-1.836-1.72095-4.97083-1.45709-7.34662-1.73907-.02997-.00427-.05292.01587-.08087.02191-.86334-.32867-1.74078-.6167-2.63287-.84088-2.01172-.28113-4.1156-.46045-5.94141-1.3623-.19342-.10382-.36316-.23743-.4776-.36462-.01227-.26837-.01398-.53406-.03192-.80383-.00507-.63763-.92401-.63464-.9884-.05573-2.11005,2.29205-5.31482,3.37103-8.3587,3.81366-3.15778.85663-6.31415,2.13965-8.68896,4.44611-.09271.09637.06183.23016.14447.13812,1.84827-1.68378,4.20868-2.77057,6.61768-3.51001-1.89447,1.5332-3.01031,3.99597-3.79944,6.23602-.03851.12433.15515.17957.19092.05896.99786-2.58484,2.52795-5.59613,5.18195-6.72937.15399-.03821.30865-.08075.46216-.11658,2.90924-.32355,5.96295-1.18744,8.24646-3.12592.00903,1.02618.02649,2.05054.03717,3.06903-.74225,1.28689-2.27254,2.17593-3.44263,3.0957-2.76208-.05006-5.6011.72077-7.77747,2.44829-.10113.08027.02576.2353.12378.15706,1.97882-1.44824,4.49072-2.0816,6.92432-2.07385-2.73761,1.96466-5.64337,3.97351-6.91864,7.16602-.04614.12231.14722.185.18756.06909,1.65826-3.68115,5.52771-5.59698,8.69257-7.82251.76672-.5625,1.55371-1.03821,2.20837-1.69427-.00317.6842-.02313,1.36554-.05511,2.04431-1.55542.96582-1.87598,2.63275-2.88037,3.87158-2.65369,2.33136-5.46149,4.76221-7.0224,8.00879-.05353.11908.13446.19379.18268.08051,1.25806-2.40332,3.23096-4.32568,5.30035-6.08771-.77304,1.18496-.59244,2.67978-.68716,3.97237-.01633.12821.18142.15324.19808.02702.15765-.93231.03381-1.88287.3139-2.73132.25964-.83392.78668-1.56549,1.35223-2.25037.26123-.21466.52271-.42908.7821-.64117.89404-.98669,1.43408-2.47034,2.40991-3.27087-.19403,1.48523-.25781,3.02643-.24902,4.58563-.64111,1.04926-1.00684,2.1676-1.42975,3.23657-.25146.70752-.5567,1.33923-.96533,1.90796-1.96033.91119-4.48914,1.75226-5.39679,3.84973-.03601.12402.16016.17609.19214.05316.8266-1.75586,2.91681-2.56866,4.71228-3.31641-.13934.14276-.27332.28802-.43671.41949-1.61816,1.90454-2.40204,4.27533-3.05481,6.63385-.03119.12817.16553.1701.19397.04852.70618-2.2359,1.60956-4.61652,3.20624-6.34735.41718-.38348,1.00195-.81274,1.28552-1.35199.70557-1.14612,1.13354-2.48535,1.72089-3.68689.05945,2.05347.19916,4.10944.28326,6.08368-.64697,2.54364-3.15045,4.43091-3.59222,7.12195-.01881.12639.17621.16037.19727.03284.51263-2.25977,2.3587-3.76648,3.43414-5.75793.06384,3.95251-.29059,7.94788.52704,11.8548.02399.12842.22089.08057.19647-.03754-.44757-2.85419-.31689-5.73297-.18402-8.61469.85419,1.79181,2.62103,3.12555,3.60004,4.84351.06476.11145.23523.00885.1734-.09967-1.08362-2.12714-3.42334-3.73511-3.71216-6.17529.03625-.88751.06604-1.77496.06781-2.66168,0,0-.06769-3.12775-.08704-4.01465.38556.64276.80432,1.27124,1.28479,1.85028.75464.97479,1.82861,1.63397,2.32855,2.80286,1.06921,2.24768,1.04614,4.76056,1.25018,7.22095.01172.12799.20538.10419.19611-.01678-.13379-2.23218-.03021-4.78229-.87439-6.92932,1.14325,1.42633,2.09698,3.02527,2.75568,4.70477.02764.13135.2343.08079.19378-.04945-.81967-2.30493-2.15745-4.39405-3.79626-6.20116-.12921-.1745-.26685-.34509-.41821-.50909-1.27795-1.22754-2.17377-2.71576-2.93976-4.31165-.01361-1.57214.03949-3.12585.12396-4.67041.7724.74414,1.69061,1.26593,2.60431,1.78723,1.24176,1.85406,1.33459,5.37646,3.01459,6.96136.04688-.02924.0611-.09094.03186-.13782-.66211-1.07184-1.138-2.24249-1.45319-3.46112-.27515-.95245-.42139-1.97253-.84869-2.92419,2.69458,1.57029,4.55801,4.46764,5.07072,7.5455.01924.12961.21181.09805.19832-.02536-.26849-2.29822-1.33429-4.46222-2.86707-6.20703.97003.38971,1.98584.62207,2.96417,1.00616,1.32544.4873,2.59155,1.17999,3.55591,2.21887.03662.03937.09882.0434.13965.00775-1.52637-2.46033-5.13629-2.7157-7.49127-4.13367-.02301-.01709-.05115-.01062-.07727-.01776-1.54352-1.30603-3.60388-2.05707-4.7843-3.66248.0506-.84747.10071-1.6947.14905-2.54224.56073.57513,1.19061,1.11993,1.93262,1.47675.70654.28101,1.42407.5686,2.13654.87488,1.34039.89313,2.06738,2.55566,3.21906,3.69806.09343.08876.23349-.05374.13916-.14355-.84589-.91016-1.44293-2.11615-2.27814-3.06842,1.90039.89355,3.70111,1.98566,5.07129,3.57318.07263.11353.2395-.00519.16669-.11066-1.3476-1.77734-3.31305-2.89539-5.21313-3.98627-1.9527-.94617-3.82794-1.51892-5.11328-3.39771.03174-.63965.05579-1.28119.0733-1.92426,1.14764.8103,2.52264,1.06982,3.90289,1.24054.0069.00146.00793.00842.01526.0094,2.58112.39661,4.005,3.40613,6.17834,4.43414.03363-.04382.02533-.10663-.01849-.14026-1.61665-1.20264-2.76433-2.96087-4.4502-4.09979,3.52582.27856,6.35046,3.16162,8.07758,6.0741.06006.11804.23297.02771.1806-.08618-1.37915-2.59601-3.51892-4.85132-6.22821-6.09149-2.46051-.84357-5.7713-.44348-7.64478-2.39612.00525-.51141.00781-1.02344-.00262-1.5387.40332.19849.85638.31744,1.29022.46674,1.64581.43939,3.34375.57935,5.0174.71277,3.96368.88989,7.85309,2.93909,10.90143,5.62708.09564.09467.22876-.04846.14447-.13867Z" fill="#fff"/>
      </g>
      <path d="m184.38199,314.89011c-2.3944-.04445-4.27274,1.30544-4.9664,3.67746-3.02222,3.19018.66278,7.8911,4.64346,7.65811,2.72525.06723,4.40245-1.94915,3.8762-4.25524-.02774-.2208-.06984-.55457-.04102-.65579.02858-.04626.0524-.06796.05263-.06818,1.59889-.2887,2.27575-2.60753,1.32298-4.0543-.84256-1.44146-2.66983-2.30206-4.88785-2.30206h0Z" fill="url(#linear-gradient)"/>
      <path d="m163.69878,314.78638c-2.8765.04382-6.68965,1.8616-6.64537,4.39157.00854,1.60889,1.3378,1.91586,1.85583,2.03049-.1998,1.2524-.90607,2.5486.86753,3.99039,1.73184,1.35381,4.37377,1.16002,6.15597-.05231,4.48943-2.75723,3.34571-10.24047-2.23396-10.36014h0Z" fill="url(#linear-gradient-2)"/>
      <path d="m177.24236,313.5874c.37677-.32776,1.24524-.58124,1.42114-.66571.42712-.20514.75519-.92084,1.33441-1.63385.75154-.88946,1.24236-.7148,1.90246-.79336.14154-.11783.55445-1.31332.89112-1.79782s1.19-.20782,1.33655-.36945c.12018-.13245.51074-.87866.69952-1.41187.09723-.27472.79077-.47852.88043-.55084.03583-.02887.01874-.48615.2132-.6377.23572-.18372.78412-.29327.80267-.38306.03217-.15564.2146-.61987.21222-.83173-.00684-.61823.92377-.47491.98602-.69397.02344-.0824.12793-.4978.37762-.8291.2981-.39551,1.35004-.48895,1.13586-.80786.01586-.15633-2.27003-1.29204-3.24263-1.13317-.79213-.01915-2.78063.25377-3.36146.86506-.17936.08945-.36961.2692-.57487.2692-.21061-.05519-.75881-.02224-.88544.0163-.39593.12511-.73694.6928-.89984.8363-.1554.13684-.72351.02673-.90045.20691-.05865.05981-.35791,1.38599-.72443,1.6424-.32404.22662-1.09979.48871-1.20001.56409-.0824.06201-.17053,1.30005-.23755,1.44299-.32977.70386-.69458,1.0575-.74677,1.14264-.20819.33984-.2287,1.26007-.29169,1.88934-.0675.67419-.70435,1.32697-.70612,1.44983-.00269.18335.63098.93439.38458,1.52637-.12531.30109-.20093.51892-.24213.67999-.93018,1.89703-1.8634,4.13312-2.38995,6.31958-.02197-.01373-.04382-.02734-.06812-.03766-.29901-2.78674-.89294-5.42078-1.65131-7.18127-.03546-.19244-.09351-.45422-.17627-.82562-.16071-.72101.22644-1.14294.26019-1.35144.02264-.13977-.37189-1.07159-.31317-1.84998.05481-.7265.41461-2.97693.24658-3.40424-.04205-.10706-.39746-.48944-.56073-.81921-.08075-.16302-.00354-1.43317-.08466-1.52008-.09851-.10559-.43988-.00854-.77051-.14026-.12152-.0484-.39056-.24878-.58948-.65857-.16992-.34998-.15924-.81232-.19714-.8736-.1098-.17725-.32269-.20972-.37177-.35022-.13995-.40082-.04553-.53595-.1001-.61554-.16455-.23999-.21533-.1098-.36414-.2962-.15601-.1955-.2912-1.1203-.47986-1.13208-.36369.0774-.93914.13881-1.26336-.15405-.09242-.06848-.33497-.76758-.49354-.78747-.21655-.02716-.52057-.02844-.77533-.20551-.29883-.20764-.56708-.77655-.81177-.77661-.27453.02887-.76384.62175-1.15564.31119-1.002-.67435-1.74464-.84256-2.44641-.65258-.30695.31893-.10333,1.15273-.07294,2.01814.01678.4776-.29401.79388-.28394.89209.02667.26099.23297.20935.10114.9093-.04517.23987-.26965.46667-.2644.64972.00299.10547.61212.61688.84271.87256.19019.21094.07898.72626.11383.76624.08722.09998.83307.47034.88824.80151.10718.64276-.17786,1.43591-.06818,1.61035.13385.21271,1.85199.85699,2.13666,1.47418.28467.61713.5661,2.00861.703,2.17065.13696.16199,2.185.27545,2.95319,1.65784.51404.92505.36389,1.37402.42285,1.52673.08105.20966.89014.2475,1.33173.61609,1.0083.84167.71423.64825,1.16003.9389.73859,1.96685,1.33526,5.08779,1.50031,7.91992-.91189-2.07646-3.05311-3.49477-5.43451-3.31299-.61906-1.36215-2.19189-2.38167-3.58132-2.30274-2.38542.02024-5.69859,1.61779-5.64533,3.38618.00742,1.40282,1.66837.78411,1.82883,1.51323.27173,1.23492-1.07098,2.52844.49792,3.71545,3.64617,2.57237,8.62988-1.93315,7.09467-5.81622,2.72254-.24378,5.08365,2.33723,5.2818,4.70575-.05517,3.93509-.47134,6.71057-.25591,11.23254.03428.65142,1.02658.6078.999-.04691-.20285-4.23506.15865-6.95206.25434-10.67166.52241-3.15641,2.84275-5.24585,6.53076-4.68866-2.66899,2.65869.64505,6.28973,3.77411,6.10956,1.04126.00012,2.01782-.32221,2.56848-1.06202.85229-1.14508-.04944-2.5376.38202-3.31067.47467-.85052,1.02301-.36218,1.46429-1.146,1.69031-3.88987-6.86555-5.69298-8.02338-1.06659-3.44071-.47557-5.2632.72219-6.63959,3.2135.24316-2.12457,1.11395-4.75885,2.57654-7.76868.30603-.1377.63684-.30804.85504-.49786Z" fill="#95c172"/>
      <path d="m173.00023,335.07172c-.2749,0-.49854-.22217-.5-.49756-.00342-.75928-.09229-2.64307-.09229-2.64307l.99902-.04688s.08984,1.91406.09326,2.68506c.00155.27721-.22328.50241-.5.50244Z" fill="url(#linear-gradient-3)"/>
      <path d="m180.30853,319.0887c.44419-1.73516,1.58745-3.11577,3.78772-3.1935,3.64442-.12875,5.27719,2.21392,4.3775,3.81185-.44131.78381-.98963.29544-1.46433,1.146-.43144.77304.47031,2.16555-.382,3.31066-1.21885,1.63757-4.52418,1.2295-5.99972-.19139-1.40918-1.35699-1.94358-3.35728-.31918-4.88361Z" fill="url(#linear-gradient-4)"/>
      <path d="m167.13056,322.42316c1.8258-3.03091-.63253-7.29411-4.20656-6.579-2.38392.33746-4.87909,1.73857-4.87063,3.32848.00746,1.4028,1.66844.78409,1.82888,1.51324.27174,1.23493-1.07098,2.52843.49791,3.71544,2.53549,1.74024,5.52427.20453,6.7504-1.97816Z" fill="url(#linear-gradient-5)"/>
      <g id="leaf_1_right_hi" data-name="leaf 1 right hi">
        <path d="m180.30853,319.0887c1.10782.19136,2.32631.72626,3.49276.58629,2.03753-.2445,3.68282.3275,3.20812,1.17806-.43144.77304.47031,2.16555-.382,3.31066-1.21885,1.63757-4.52418,1.2295-5.99972-.19139-1.40918-1.35699-1.94359-3.35728-.31917-4.88361Z" fill="#a6d67c"/>
      </g>
      <g id="leaf_1_left_hi" data-name="leaf 1 left hi">
        <path d="m167.13056,322.42316c.69035-1.21155.79224-2.67045.32491-3.92799-.22604-.60825-2.52209-.42939-3.76436-.25351-2.38402.33754-3.9693,1.71507-3.80886,2.44422.27174,1.23493-1.07098,2.52843.49791,3.71544,2.53553,1.74028,5.52424.2045,6.7504-1.97816Z" fill="#a6d67c"/>
      </g>
      <g id="leaf_2_left_hi" data-name="leaf 2 left hi">
        <path d="m161.25033,296.578c-.3069.31883-.10334,1.15262-.07291,2.01809.01679.47759-.29402.79387-.28398.89209.02669.26099.23303.20934.10118.90929-.04518.23984-.26968.46665-.26443.64968.00303.10552.61215.61688.8427.8726.19018.21094.079.72622.11388.76622.0872.10001.83302.47036.88823.80151.10717.64278-.17788,1.43594-.06819,1.61034.13382.21274,1.85198.857,2.13666,1.47418s.56609,2.00864.70302,2.17066,2.18496.27546,2.95316,1.65787c.51404.92504.36387,1.374.42288,1.52671.08102.20966.89009.24749,1.3317.61612,1.03322.86247,1.42218,1.0368,1.42218,1.0368-1.73903-3.70848-2.69645-7.80011-4.66733-10.33994-2.37432-3.05974-4.18543-4.56087-5.55876-6.66222Z" fill="#a6d67c"/>
      </g>
      <g id="leaf_2_right_hi" data-name="leaf 2 right hi">
        <path d="m189.43562,302.18111c.21412.31893-.83778.41236-1.13588.80787-.24968.33127-.35421.74669-.37765.82912-.06227.21905-.99286.07571-.98599.69395.00235.21184-.1801.67609-.21226.83175-.01854.08974-.56694.1993-.80268.38302-.19445.15155-.17733.6088-.21319.63772-.08966.0723-.78316.2761-.88042.55081-.18879.53323-.57937,1.27942-.6995,1.4119-.14655.16161-.99991-.11506-1.33656.36944s-.74957,1.67996-.89112,1.79775-1.03682-.27205-1.90247.79344c-.57925.71297-.9073,1.42867-1.33442,1.63384-.17587.08448-.9879.41736-1.42111.66568-1.01356.58099-1.12799.57506-1.12799.57506,1.05523-3.18842,4.54595-7.54124,5.1184-8.28525,4.00648-5.20718,8.14835-3.77726,8.20283-3.69612Z" fill="#a6d67c"/>
      </g>
      <g id="leaf_1_right_hi_yellow" data-name="leaf 1 right hi yellow">
        <path d="m180.30853,319.0887c1.10782.19136,2.32631.72626,3.49276.58629,2.03753-.2445,3.68282.3275,3.20812,1.17806-.43144.77304.47031,2.16555-.382,3.31066-1.21885,1.63757-4.52418,1.2295-5.99972-.19139-1.40918-1.35699-1.94359-3.35728-.31917-4.88361Z" fill="url(#linear-gradient-6)"/>
      </g>
      <g id="leaf_1_left_hi_yellow" data-name="leaf 1 left hi yellow">
        <path d="m167.13056,322.42316c.69035-1.21155.79224-2.67045.32491-3.92799-.22604-.60825-2.52209-.42939-3.76436-.25351-2.38402.33754-3.9693,1.71507-3.80886,2.44422.27174,1.23493-1.07098,2.52843.49791,3.71544,2.53553,1.74028,5.52424.2045,6.7504-1.97816Z" fill="url(#linear-gradient-7)"/>
      </g>
    </g>
  </g>
</svg>