<?xml version="1.0" encoding="UTF-8"?>
<svg id="Layer_2" data-name="Layer 2" xmlns="http://www.w3.org/2000/svg" xmlns:xlink="http://www.w3.org/1999/xlink" viewBox="0 0 346 469">
  <defs>
    <linearGradient id="linear-gradient" x1="173" y1="334.93717" x2="173" y2="331.45816" gradientUnits="userSpaceOnUse">
      <stop offset=".01522" stop-color="#fff"/>
      <stop offset=".34875" stop-color="#fff"/>
      <stop offset=".90503" stop-color="#fff" stop-opacity="0"/>
      <stop offset="1" stop-color="#fff" stop-opacity="0"/>
    </linearGradient>
  </defs>
  <g id="CASE_5_Plants_LL_WL_CH" data-name="CASE 5 Plants LL WL CH">
    <g id="Day_8" data-name="Day 8">
      <g id="rectangle">
        <rect width="346" height="469" fill="none"/>
      </g>
      <g id="ROOTS_BACK" data-name="ROOTS BACK">
        <path d="m174.3748,334.83319c-.00061-.08636.00085-.17511.00018-.26135-.0625-1.61346-2.24353-1.74518-2.67279-.41394-1.02008,1.12085-2.77753,1.71387-4.32672,2.02563-1.38678.23877-7.52405,2.67572-6.04523,4.50244.3786.4823,1.08075.56067,1.55701.17505,1.71967-1.56793,3.89105-1.98706,5.9873-2.54645-.09753.03546-.19379.0708-.29315.10663-1.56445.51965-3.42316,1.63605-3.93091,3.41241-.40456,1.33492,1.53694,2.03524,2.0713.73934.19139-.49153.48357-.85469.93932-1.16036,1.12354-.67511,2.5047-.96271,3.7677-1.48969-1.04156,1.03436-1.76398,2.13049-2.89081,3.04944-1.38098,1.14172-3.11426,2.41791-3.74493,4.28143-.46405,1.33533,1.49164,2.09344,2.05054.79651.59673-1.47401,1.93638-2.22852,3.19342-3.25757.58459-.43488,1.12225-.98706,1.64337-1.54907.00159.08893.00311.17639.0047.26434-.71972,1.10646-1.13955,2.76414-2.04053,3.49896-1.59277,1.06366-2.47638,3.36053-2.72223,5.08075-.32855,1.41083,1.76233,1.92957,2.13434.53363.38167-1.64188.67157-2.80003,2.00842-3.75568.27344-.21155.49866-.44196.70587-.67914.00769.40924.01538.81848.02332,1.22772-.70117,1.82343-2.67267,3.50903-2.87946,5.62531-.20642,1.42706,1.90552,1.77606,2.16998.36151.11835-.6463.4292-1.24548.80298-1.83337.02063.85876.03711,1.71753.06219,2.57629.05914,1.34357,2.0437,1.33612,2.1001.00006.0072-.32263.01544-.65387.02289-.97791.95673.77905,2.2074,1.29401,2.79083.08917.20715-.57111-.08789-1.20203-.659-1.40918-1.20557-.41632-1.68585-1.48273-2.03845-2.66711.0072-.30273.01331-.60461.02039-.90802.44421.40112.94611.74304,1.47162,1.00781,1.02435.62463,1.43304,1.52222,1.73785,2.76239.37579,1.40955,2.47424.87329,2.13171-.54333-.2796-1.73566-1.46954-3.68805-3.18445-4.4939-1.24078-.78729-1.4754-1.7475-2.06122-3.13513.00104-.05157.00238-.10284.00336-.15442.61169.67615,1.29291,1.29779,2.09674,1.63348,1.5769.82007,2.5979,1.5249,3.37012,3.08459.26758.5332.91772.75818,1.45959.49707,1.60931-.92584-.41248-3.0498-1.25128-3.96838-1.33417-1.31335-3.05237-1.67554-4.06622-3.07758-.34442-.43732-.68231-1.01758-1.17737-1.61194.59125.37592,1.20972.71582,1.88428.96039,1.58756.52873,2.87596.97775,4.04949,2.1211,1.02149.96135,2.52064-.53529,1.55579-1.55568-1.30206-1.46942-3.08875-2.10425-4.76917-2.90283,1.4729.32959,2.9707.44836,4.19891.43835,1.41302-.10474,1.33105-2.20349-.08539-2.19696-1.64197-.01392-3.46094-.39557-5.04449-1.08221.72607.07764,1.44958.12646,2.12341.2146,1.8252.19843,4.05249.30804,5.57825,1.14642.51257.33978,1.21082.19397,1.53961-.32916,1.44684-3.36993-9.17712-2.70386-11.37311-4.2525Z" fill="#4c4c4c"/>
      </g>
      <path d="m185.24571,321.65466c-1.53749-2.77189-7.39652-3.00795-8.73633.40558-1.44255-.05752-2.65816.48477-3.47369,1.60455-.70501-1.03209-1.79253-1.5345-3.10645-1.74951-.72508-1.67131-2.20808-2.68552-4.1214-2.74388-2.46786-.11896-5.48514.90278-5.83306,2.94732-.25087,1.39544.78905,1.94811,1.26763,2.15923-.39752,1.01906-1.16215,2.10028.16762,3.64919,2.81469,3.1075,8.56739.68164,8.89213-3.35054,1.06689.40588,1.32579,1.69366,1.32304,2.70393.00002-.00001.00002,7.21941.00002,7.21941.02983,1.80486,2.71931,1.80901,2.75-.00006,0,.00006,0-6.75385,0-6.75385.06335-1.32599.35187-2.29559.82874-2.78229-.55549,5.74623,10.17806,7.33112,8.80664.50482.0155-.02484.02441-.03436.02448-.03448,1.454-.22115,2.09938-2.48748,1.21063-3.77942Z" fill="#2e541a"/>
      <g id="ROOTS">
        <path d="m184.86101,338.40784c-2.776-1.57379-6.14655-1.30054-9.17059-1.9801-.88129-.20343-1.86859-.52972-2.32751-1.15521.00488-.23346.01807-.46466.01208-.70068-.02182-.52208-.798-.45012-.75238.05463-1.20898,1.47748-3.21045,2.15912-5.05469,2.53845-2.0144.46167-3.87231,1.45483-5.44751,2.77295-.09991.08362.03284.23383.12781.15381,1.57983-1.23712,3.44696-2.15302,5.39679-2.53387,1.75238-.30774,3.58075-.83496,4.93848-2.04657-.03284.61072-.07068,1.22791-.09845,1.85345-1.79004,2.22681-5.92078,1.71417-6.8902,4.79779-.0426.12122.14862.18451.18884.0658,1.07635-2.79401,4.66858-2.3288,6.68579-4.07019-.00677.61664.00604,1.23627.08856,1.86041.01184.06451.01446.12933.02521.19391-.60803.52625-1.10632,1.12531-1.61499,1.703-1.42288,2.06813-4.6829,3.31265-5.18578,5.82457.05138.02077.10967-.00401.13036-.05516.63544-1.64886,2.1579-2.60236,3.48853-3.66406,1.21686-.91467,2.14185-2.19995,3.2605-3.20386.10907.92114.13586,1.84656.12494,2.78064-.94981,1.34075-1.25054,3.15434-2.53503,4.20392-1.47552,1.04095-2.07208,2.84027-2.35925,4.52881-.03186.12701.1651.17169.19409.04852.34106-1.66235.90997-3.32227,2.37128-4.30762,1.19086-.92554,1.60864-2.3822,2.31805-3.63568-.00677.30823-.01392.61603-.01971.92682-.0979,1.34357.09589,2.70044.12457,4.04785-.54327,2.10571-2.97174,3.71375-2.89734,5.90881.0545.00909.10602-.02771.11505-.08221.30548-1.95374,1.93121-3.26355,2.75531-4.99011-.0658,1.94887-.56467,3.97963.09857,5.91266.01947.06281.1153.02637.09515-.03058-.38672-1.41772-.19983-2.86603.00226-4.31891.46008,1.38153,1.30127,2.72748,2.7594,3.16925.12311.04382.18872-.14874.06598-.1889-1.58093-.50342-2.35217-2.07324-2.74274-3.58112.14148-1.05103.25098-2.10254.11658-3.14502-.0119-.35382-.01172-.70776-.0047-1.06171.53003,1.22241,1.19891,2.47644,2.41553,3.12665,1.50653.68976,2.37598,2.08179,2.70538,3.66522.03491.12756.2262.07489.19373-.04932-.2724-1.60272-1.23029-3.17932-2.73468-3.88635-1.43298-.82471-1.94824-2.32904-2.54633-3.79889.04803-.96436.12592-1.92938.16357-2.89551,1.04596,1.15674,1.93848,2.6886,3.44434,3.31989,1.59985.78973,2.99615,1.86121,3.76398,3.50714.05859.11646.23438.02478.17938-.0882-.70911-1.68329-2.18561-2.90686-3.76001-3.73346-1.71643-.82025-2.32324-2.4751-3.61145-3.78345.00806-.8175-.02325-1.6358-.14984-2.4552-.00378-.02789-.00177-.05627-.00525-.08423,1.03741,1.05054,2.25372,1.94666,3.65533,2.45117,1.6131.51855,3.18622,1.13251,4.40015,2.34833.09229.08997.22882-.05243.14142-.14142-1.1571-1.27997-2.8006-2.03308-4.38721-2.61121-1.52875-.60797-2.81824-1.69946-3.86719-2.96448-.01086-.39941-.00757-.8017.01123-1.20605,1.88367,2.05353,5.81348,2.6283,8.32141,2.61182.13025-.00861.11462-.20892-.01172-.19958-2.40973-.03021-4.90332-.68542-6.96124-1.94226-.53827-.35236-1.02747-.79785-1.30896-1.31738.01593-.25256.03149-.50519.04535-.76031.64624.47223,1.4704.64923,2.24707.81293,3.05078.54272,6.36346.19623,9.16388,1.64758.11206.06989.2146-.09912.10883-.16791Z" fill="#fff"/>
      </g>
      <path d="m180.48961,320.53217c-1.86346.0658-2.87982,1.17084-3.33093,2.59991-2.2651-.39478-3.62078.74752-4.09143,3.0025-.01654-.00305-.03186-.00909-.04907-.00995-.34558-2.06279-1.68601-3.19477-3.80939-3.30585-.40551-1.57385-1.93188-2.68325-3.44352-2.64824-2.14291-.09127-4.55575.73112-4.8063,2.12504-.22107,1.22992,1.33417.95752,1.35638,1.62219.0376,1.12579-1.34833,2.04083-.16681,3.33514,2.93631,2.8621,7.78979-.30796,7.16254-3.91907,2.32343.1824,3.3282,1.63753,3.31415,4.06439v7.10169c-.00736.48395.75734.48832.75-.00004,0,.00004,0-6.75204,0-6.75204.17188-2.7873.97336-4.43843,3.526-4.13715-1.23358,1.35101-.75903,3.04626.45581,4.21613,1.33258,1.2832,4.31775,1.65179,5.41852.17285.76978-1.03418-.04468-2.29181.34497-2.98999.42871-.76813.92395-.32709,1.32251-1.03497.8125-1.44312-.66205-3.55884-3.95343-3.44257Z" fill="#95c172"/>
      <path id="root_main_fade" data-name="root main fade" d="m172.625,334.57236v-2.7496c-.00685-.48561.75742-.4868.75.00043.00019.00007-.00013,2.74889,0,2.74917.00716.48583-.75722.48702-.75,0Z" fill="url(#linear-gradient)"/>
      <g id="leaf_1_right_hi" data-name="leaf 1 right hi">
        <path d="m177.0688,323.41632c1.0005.17282,2.10095.65591,3.15441.52949,1.84015-.22082,3.32606.29578,2.89735,1.06393-.38965.69815.42475,1.95577-.34499,2.98995-1.10078,1.47894-4.08591,1.1104-5.41851-.17285-1.27267-1.22553-1.75531-3.03205-.28825-4.41053Z" fill="#a6d67c"/>
      </g>
      <g id="leaf_1_left_hi" data-name="leaf 1 left hi">
        <path d="m168.38216,326.6156c.80126-.94917,1.12722-2.21048.92194-3.38777-.09929-.56944-2.1394-.78534-3.25603-.83285-2.14291-.09119-3.75496.85815-3.73275,1.52284.03763,1.12576-1.34832,2.04085-.16676,3.33511,1.93834,1.93557,4.8052,1.07571,6.23359-.63732Z" fill="#a6d67c"/>
      </g>
    </g>
  </g>
</svg>