<svg width="100" height="80" viewBox="0 0 100 80" xmlns="http://www.w3.org/2000/svg">
    <defs>
        <clipPath id="n3pvppj4ha">
            <path d="M5370 0v5280H0V0h5370z"/>
        </clipPath>
        <clipPath id="ibbgy2o8jb">
            <path d="M100 0v80H0V0h100z"/>
        </clipPath>
        <clipPath id="3gc3smdigc">
            <path d="m51.95 0 .703.71-4.728 4.681L31.093 38.09l11.868 22.03-.88.474-11.794-21.89-19.064 6.388L.369 49.397 0 48.467l10.88-4.315 18.707-6.27-15.23-14.659-3.048 6.491-.905-.424 3.193-6.8-.02-.018 3.188-5.704.873.488-2.812 5.03L30.391 37.27 47.165 4.736 51.95 0z"/>
        </clipPath>
        <clipPath id="wb0bpaj4ld">
            <path d="M2.5 0C3.878 0 5 1.122 5 2.5S3.878 5 2.5 5A2.503 2.503 0 0 1 0 2.5C0 1.122 1.122 0 2.5 0z"/>
        </clipPath>
        <clipPath id="n40mgbd1ye">
            <path d="M2.5 0C3.878 0 5 1.122 5 2.5S3.878 5 2.5 5A2.503 2.503 0 0 1 0 2.5C0 1.122 1.122 0 2.5 0z"/>
        </clipPath>
        <clipPath id="s0m20tz9bf">
            <path d="M2.5 0C3.878 0 5 1.122 5 2.5S3.878 5 2.5 5A2.503 2.503 0 0 1 0 2.5C0 1.122 1.122 0 2.5 0z"/>
        </clipPath>
        <clipPath id="v2vk8qfr8g">
            <path d="M2.5 0C3.878 0 5 1.122 5 2.5S3.878 5 2.5 5A2.503 2.503 0 0 1 0 2.5C0 1.122 1.122 0 2.5 0z"/>
        </clipPath>
        <clipPath id="fgzw9p1kph">
            <path d="M2.5 0C3.878 0 5 1.122 5 2.5S3.878 5 2.5 5A2.503 2.503 0 0 1 0 2.5C0 1.122 1.122 0 2.5 0z"/>
        </clipPath>
        <clipPath id="ottt4x0o5i">
            <path d="M1.5 0a1.5 1.5 0 1 1 0 3 1.5 1.5 0 0 1 0-3z"/>
        </clipPath>
        <clipPath id="3y5kxzkm1j">
            <path d="M1.5 0a1.5 1.5 0 1 1 0 3 1.5 1.5 0 0 1 0-3z"/>
        </clipPath>
        <clipPath id="vychk1r8jk">
            <path d="M1.5 0a1.5 1.5 0 1 1 0 3 1.5 1.5 0 0 1 0-3z"/>
        </clipPath>
        <clipPath id="q5vc0gg50l">
            <path d="M1.5 0a1.5 1.5 0 1 1 0 3 1.5 1.5 0 0 1 0-3z"/>
        </clipPath>
        <clipPath id="62xsbfsezm">
            <path d="M1.5 0a1.5 1.5 0 1 1 0 3 1.5 1.5 0 0 1 0-3z"/>
        </clipPath>
        <clipPath id="ck1wqh1q7n">
            <path d="M1.5 0a1.5 1.5 0 1 1 0 3 1.5 1.5 0 0 1 0-3z"/>
        </clipPath>
        <clipPath id="5lhp6y74ko">
            <path d="M1.5 0a1.5 1.5 0 1 1 0 3 1.5 1.5 0 0 1 0-3z"/>
        </clipPath>
        <clipPath id="jms03wy3hp">
            <path d="M1.5 0a1.5 1.5 0 1 1 0 3 1.5 1.5 0 0 1 0-3z"/>
        </clipPath>
        <clipPath id="iufb3u0upq">
            <path d="M1.5 0a1.5 1.5 0 1 1 0 3 1.5 1.5 0 0 1 0-3z"/>
        </clipPath>
    </defs>
    <g clip-path="url(#n3pvppj4ha)" transform="translate(-1346 -226)">
        <g clip-path="url(#ibbgy2o8jb)" transform="translate(1346 226)">
            <path d="M0 0h100v80H0V0z"/>
        </g>
        <g clip-path="url(#3gc3smdigc)" transform="translate(1369.757 235.645)">
            <path fill="#FFF" d="M0 0h52.653v60.593H0V0z"/>
        </g>
        <g clip-path="url(#wb0bpaj4ld)" transform="translate(1419.559 233.5)">
            <path d="M0 0h5v5H0V0z"/>
        </g>
        <g clip-path="url(#n40mgbd1ye)" transform="translate(1414.774 238.236)">
            <path d="M0 0h5v5H0V0z"/>
        </g>
        <g clip-path="url(#s0m20tz9bf)" transform="translate(1409.778 293.5)">
            <path d="M0 0h5v5H0V0z"/>
        </g>
        <g clip-path="url(#v2vk8qfr8g)" transform="translate(1378.321 277.761)">
            <path d="M0 0h5v5H0V0z"/>
        </g>
        <g clip-path="url(#v2vk8qfr8g)" transform="translate(1397.785 271.239)">
            <path d="M0 0h5v5H0V0z"/>
        </g>
        <g clip-path="url(#wb0bpaj4ld)" transform="translate(1384.459 250.157)">
            <path d="M0 0h5v5H0V0z"/>
        </g>
        <g clip-path="url(#fgzw9p1kph)" transform="translate(1381.459 255.524)">
            <path d="M0 0h5v5H0V0z"/>
        </g>
        <g clip-path="url(#v2vk8qfr8g)" transform="translate(1378.113 262.646)">
            <path d="M0 0h5v5H0V0z"/>
        </g>
        <g clip-path="url(#v2vk8qfr8g)" transform="translate(1367.441 282.077)">
            <path d="M0 0h5v5H0V0z"/>
        </g>
        <g clip-path="url(#ottt4x0o5i)" transform="translate(1368.441 283.077)">
            <path fill="#FFF" d="M0 0h3v3H0V0z"/>
        </g>
        <g clip-path="url(#3y5kxzkm1j)" transform="translate(1379.113 263.646)">
            <path fill="#FFF" d="M0 0h3v3H0V0z"/>
        </g>
        <g clip-path="url(#vychk1r8jk)" transform="translate(1382.459 256.524)">
            <path fill="#FFF" d="M0 0h3v3H0V0z"/>
        </g>
        <g clip-path="url(#q5vc0gg50l)" transform="translate(1385.459 251.157)">
            <path fill="#FFF" d="M0 0h3v3H0V0z"/>
        </g>
        <g clip-path="url(#62xsbfsezm)" transform="translate(1398.785 272.239)">
            <path fill="#FFF" d="M0 0h3v3H0V0z"/>
        </g>
        <g clip-path="url(#ck1wqh1q7n)" transform="translate(1379.321 278.761)">
            <path fill="#FFF" d="M0 0h3v3H0V0z"/>
        </g>
        <g clip-path="url(#5lhp6y74ko)" transform="translate(1410.778 294.5)">
            <path fill="#FFF" d="M0 0h3v3H0V0z"/>
        </g>
        <g clip-path="url(#jms03wy3hp)" transform="translate(1415.774 239.236)">
            <path fill="#FFF" d="M0 0h3v3H0V0z"/>
        </g>
        <g clip-path="url(#iufb3u0upq)" transform="translate(1420.559 234.5)">
            <path fill="#FFF" d="M0 0h3v3H0V0z"/>
        </g>
    </g>
</svg>
