<svg width="100" height="80" viewBox="0 0 100 80" xmlns="http://www.w3.org/2000/svg">
    <defs>
        <clipPath id="xwfezv8fqa">
            <path d="M5370 0v5280H0V0h5370z"/>
        </clipPath>
        <clipPath id="0nfz2ao8gb">
            <path d="M100 0v80H0V0h100z"/>
        </clipPath>
        <clipPath id="wlyrmsx3fc">
            <path d="m76.32 0 4.326 6.17-.82.574-3.837-5.475-12.985 6.23-1.53 9.145 7.445 7.615-.353 12.726-42.236-10.13-26.094.03L0 25.944l26.332-14.067.158.02 34.036 4.358 1.578-9.433L76.321 0zM26.926 12.96l-.035 13 40.71 9.765.308-11.07-7.204-7.369-33.779-4.325zm-1 .268L2.236 25.883l23.653-.027.034-12.628z"/>
        </clipPath>
        <clipPath id="7euxuesegd">
            <path d="M2.5 0C3.878 0 5 1.121 5 2.5S3.878 5 2.5 5A2.503 2.503 0 0 1 0 2.5C0 1.121 1.121 0 2.5 0z"/>
        </clipPath>
        <clipPath id="aleun1thve">
            <path d="M2.5 0C3.878 0 5 1.121 5 2.5S3.878 5 2.5 5A2.503 2.503 0 0 1 0 2.5C0 1.122 1.121 0 2.5 0z"/>
        </clipPath>
        <clipPath id="ou2t27e7jf">
            <path d="M2.5 0C3.878 0 5 1.122 5 2.5S3.878 5 2.5 5A2.503 2.503 0 0 1 0 2.5C0 1.122 1.121 0 2.5 0z"/>
        </clipPath>
        <clipPath id="hcse66solg">
            <path d="M2.5 0C3.878 0 5 1.122 5 2.5S3.878 5 2.5 5A2.503 2.503 0 0 1 0 2.5C0 1.122 1.121 0 2.5 0z"/>
        </clipPath>
        <clipPath id="29poex0w9h">
            <path d="M2.5 0C3.878 0 5 1.122 5 2.5 5 3.879 3.878 5 2.5 5A2.503 2.503 0 0 1 0 2.5C0 1.122 1.121 0 2.5 0z"/>
        </clipPath>
        <clipPath id="2w4gatdwai">
            <path d="M2.5 0C3.878 0 5 1.121 5 2.5S3.878 5 2.5 5A2.503 2.503 0 0 1 0 2.5C0 1.122 1.121 0 2.5 0z"/>
        </clipPath>
        <clipPath id="vl701pr9nj">
            <path d="M1.5 0a1.5 1.5 0 1 1 0 3 1.5 1.5 0 0 1 0-3z"/>
        </clipPath>
        <clipPath id="imcxkjw73k">
            <path d="M1.5 0a1.5 1.5 0 1 1 0 3 1.5 1.5 0 0 1 0-3z"/>
        </clipPath>
        <clipPath id="abkerka2il">
            <path d="M1.5 0a1.5 1.5 0 1 1 0 3 1.5 1.5 0 0 1 0-3z"/>
        </clipPath>
        <clipPath id="ou2hzga7pm">
            <path d="M1.5 0a1.5 1.5 0 1 1 0 3 1.5 1.5 0 0 1 0-3z"/>
        </clipPath>
        <clipPath id="7kuas2oihn">
            <path d="M1.5 0a1.5 1.5 0 1 1 0 3 1.5 1.5 0 0 1 0-3z"/>
        </clipPath>
        <clipPath id="mll32jtkfo">
            <path d="M1.5 0a1.5 1.5 0 1 1 0 3 1.5 1.5 0 0 1 0-3z"/>
        </clipPath>
        <clipPath id="bcbttivltp">
            <path d="M1.5 0a1.5 1.5 0 1 1 0 3 1.5 1.5 0 0 1 0-3z"/>
        </clipPath>
        <clipPath id="z8v6qv88oq">
            <path d="M1.5 0a1.5 1.5 0 1 1 0 3 1.5 1.5 0 0 1 0-3z"/>
        </clipPath>
    </defs>
    <g clip-path="url(#xwfezv8fqa)" transform="translate(-1236 -496)">
        <g clip-path="url(#0nfz2ao8gb)" transform="translate(1236 496)">
            <path d="M0 0h100v80H0V0z"/>
        </g>
        <g clip-path="url(#wlyrmsx3fc)" transform="translate(1245.764 517.505)">
            <path fill="#FFF" d="M0 0h80.646v36.985H0V0z"/>
        </g>
        <g clip-path="url(#7euxuesegd)" transform="translate(1311.347 551.36)">
            <path d="M0 0h5v5H0V0z"/>
        </g>
        <g clip-path="url(#aleun1thve)" transform="translate(1311.678 539.462)">
            <path d="M0 0h5v5H0V0z"/>
        </g>
        <g clip-path="url(#ou2t27e7jf)" transform="translate(1323.5 521.462)">
            <path d="M0 0h5v5H0V0z"/>
        </g>
        <g clip-path="url(#ou2t27e7jf)" transform="translate(1319.419 515.64)">
            <path d="M0 0h5v5H0V0z"/>
        </g>
        <g clip-path="url(#ou2t27e7jf)" transform="translate(1305.818 522.166)">
            <path d="M0 0h5v5H0V0z"/>
        </g>
        <g clip-path="url(#hcse66solg)" transform="translate(1304.204 531.818)">
            <path d="M0 0h5v5H0V0z"/>
        </g>
        <g clip-path="url(#hcse66solg)" transform="translate(1269.69 527.398)">
            <path d="M0 0h5v5H0V0z"/>
        </g>
        <g clip-path="url(#29poex0w9h)" transform="translate(1269.653 541.36)">
            <path d="M0 0h5v5H0V0z"/>
        </g>
        <g clip-path="url(#2w4gatdwai)" transform="translate(1243.5 541.39)">
            <path d="M0 0h5v5H0V0z"/>
        </g>
        <g clip-path="url(#vl701pr9nj)" transform="translate(1244.5 542.39)">
            <path fill="#FFF" d="M0 0h3v3H0V0z"/>
        </g>
        <g clip-path="url(#imcxkjw73k)" transform="translate(1270.653 542.36)">
            <path fill="#FFF" d="M0 0h3v3H0V0z"/>
        </g>
        <g clip-path="url(#abkerka2il)" transform="translate(1270.69 528.398)">
            <path fill="#FFF" d="M0 0h3v3H0V0z"/>
        </g>
        <g clip-path="url(#ou2hzga7pm)" transform="translate(1305.204 532.818)">
            <path fill="#FFF" d="M0 0h3v3H0V0z"/>
        </g>
        <g clip-path="url(#7kuas2oihn)" transform="translate(1306.818 523.166)">
            <path fill="#FFF" d="M0 0h3v3H0V0z"/>
        </g>
        <g clip-path="url(#7kuas2oihn)" transform="translate(1320.419 516.64)">
            <path fill="#FFF" d="M0 0h3v3H0V0z"/>
        </g>
        <g clip-path="url(#mll32jtkfo)" transform="translate(1324.5 522.462)">
            <path fill="#FFF" d="M0 0h3v3H0V0z"/>
        </g>
        <g clip-path="url(#bcbttivltp)" transform="translate(1312.678 540.462)">
            <path fill="#FFF" d="M0 0h3v3H0V0z"/>
        </g>
        <g clip-path="url(#z8v6qv88oq)" transform="translate(1312.347 552.36)">
            <path fill="#FFF" d="M0 0h3v3H0V0z"/>
        </g>
    </g>
</svg>
