<svg width="100" height="80" viewBox="0 0 100 80" xmlns="http://www.w3.org/2000/svg">
    <defs>
        <clipPath id="uhgk7wv5ya">
            <path d="M5370 0v5280H0V0h5370z"/>
        </clipPath>
        <clipPath id="5kdtal3rxb">
            <path d="M100 0v80H0V0h100z"/>
        </clipPath>
        <clipPath id="51qjtn1jpc">
            <path d="M33.564 0 59.13 24.997l-11 36.812-31-38.067L.475 32.69 0 31.81l16.921-9.092L33.564 0zm.125 1.521-15.8 21.569 29.824 36.623L58 25.29 33.689 1.52z"/>
        </clipPath>
        <clipPath id="8n2zyp4ktd">
            <path d="M2.5 0C3.878 0 5 1.121 5 2.5S3.878 5 2.5 5A2.503 2.503 0 0 1 0 2.5C0 1.121 1.122 0 2.5 0z"/>
        </clipPath>
        <clipPath id="1vo94wbsbe">
            <path d="M2.5 0C3.878 0 5 1.122 5 2.5S3.878 5 2.5 5A2.503 2.503 0 0 1 0 2.5C0 1.122 1.122 0 2.5 0z"/>
        </clipPath>
        <clipPath id="mn2wc8axqf">
            <path d="M2.5 0C3.878 0 5 1.122 5 2.5S3.878 5 2.5 5A2.503 2.503 0 0 1 0 2.5C0 1.122 1.122 0 2.5 0z"/>
        </clipPath>
        <clipPath id="05xtf0r0pg">
            <path d="M2.5 0C3.878 0 5 1.122 5 2.5S3.878 5 2.5 5A2.503 2.503 0 0 1 0 2.5C0 1.122 1.122 0 2.5 0z"/>
        </clipPath>
        <clipPath id="oosre7sr0h">
            <path d="M1.5 0a1.5 1.5 0 1 1 0 3 1.5 1.5 0 0 1 0-3z"/>
        </clipPath>
        <clipPath id="j32kjktxwi">
            <path d="M1.5 0a1.5 1.5 0 1 1 0 3 1.5 1.5 0 0 1 0-3z"/>
        </clipPath>
        <clipPath id="v4bb6q36gj">
            <path d="M1.5 0a1.5 1.5 0 1 1 0 3 1.5 1.5 0 0 1 0-3z"/>
        </clipPath>
        <clipPath id="2xnkarw8lk">
            <path d="M1.5 0a1.5 1.5 0 1 1 0 3 1.5 1.5 0 0 1 0-3z"/>
        </clipPath>
    </defs>
    <g clip-path="url(#uhgk7wv5ya)" transform="translate(-1346 -496)">
        <g clip-path="url(#5kdtal3rxb)" transform="translate(1346 496)">
            <path d="M0 0h100v80H0V0z"/>
        </g>
        <g clip-path="url(#51qjtn1jpc)" transform="translate(1366.6 505.24)">
            <path fill="#FFF" d="M0 0h59.13v61.809H0V0z"/>
        </g>
        <g clip-path="url(#8n2zyp4ktd)" transform="translate(1412.02 563.5)">
            <path d="M0 0h5v5H0V0z"/>
        </g>
        <g clip-path="url(#1vo94wbsbe)" transform="translate(1422.664 527.883)">
            <path d="M0 0h5v5H0V0z"/>
        </g>
        <g clip-path="url(#mn2wc8axqf)" transform="translate(1397.726 503.5)">
            <path d="M0 0h5v5H0V0z"/>
        </g>
        <g clip-path="url(#05xtf0r0pg)" transform="translate(1381.357 525.845)">
            <path d="M0 0h5v5H0V0z"/>
        </g>
        <g clip-path="url(#1vo94wbsbe)" transform="translate(1364.336 534.99)">
            <path d="M0 0h5v5H0V0z"/>
        </g>
        <g clip-path="url(#oosre7sr0h)" transform="translate(1365.336 535.99)">
            <path fill="#FFF" d="M0 0h3v3H0V0z"/>
        </g>
        <g clip-path="url(#j32kjktxwi)" transform="translate(1382.357 526.845)">
            <path fill="#FFF" d="M0 0h3v3H0V0z"/>
        </g>
        <g clip-path="url(#v4bb6q36gj)" transform="translate(1398.726 504.5)">
            <path fill="#FFF" d="M0 0h3v3H0V0z"/>
        </g>
        <g clip-path="url(#2xnkarw8lk)" transform="translate(1423.664 528.883)">
            <path fill="#FFF" d="M0 0h3v3H0V0z"/>
        </g>
        <g clip-path="url(#2xnkarw8lk)" transform="translate(1413.02 564.5)">
            <path fill="#FFF" d="M0 0h3v3H0V0z"/>
        </g>
    </g>
</svg>
