<svg width="100" height="80" viewBox="0 0 100 80" xmlns="http://www.w3.org/2000/svg">
    <defs>
        <clipPath id="ownyvnb91a">
            <path d="M5370 0v5280H0V0h5370z"/>
        </clipPath>
        <clipPath id="d8zrqsatpb">
            <path d="M100 0v80H0V0h100z"/>
        </clipPath>
        <clipPath id="jsb0h4dakc">
            <path d="M10.162 0 3.357 13.018l2.382 9.93 3.63 4.745 9.222-5.082 4.948 7.175 15.884-1.34-.186-3.155-2.129-2.618.777-.63 2.331 2.868.203 3.452.197-.017-.929 3.497-.839 5.832-2.898 1.984-.565-.826 2.536-1.735.788-5.454.577-2.182-15.594 1.314-2.943 12.088 8.424 15.026-16.742 3.27 3.179-15.393L8.81 28.578l-3.935-5.124-4.838-9.378L0 9.447 3.858.482 4.302.18l5.86-.18zm9.912 43.703-1.58 1.306-1.921 1.042-2.86 13.84 13.912-2.718-7.551-13.47zm-1.792-19.78-8.405 4.632 6.511 16.461 1.55-.832 1.832-1.526 2.983-12.25-4.471-6.485zM2.48 13.65l-1.255.548 2.595 5.038-1.34-5.586zM8.483 1.052 4.65 1.17 1.003 9.65l.029 3.542 1.434-.627L8.483 1.052z"/>
        </clipPath>
        <clipPath id="kjwtstr72d">
            <path d="M2.5 0C3.879 0 5 1.121 5 2.5S3.879 5 2.5 5A2.503 2.503 0 0 1 0 2.5C0 1.121 1.121 0 2.5 0z"/>
        </clipPath>
        <clipPath id="xwju3n5yve">
            <path d="M2.5 0C3.879 0 5 1.121 5 2.5S3.879 5 2.5 5A2.503 2.503 0 0 1 0 2.5C0 1.121 1.121 0 2.5 0z"/>
        </clipPath>
        <clipPath id="yewg97hx3f">
            <path d="M2.5 0C3.879 0 5 1.122 5 2.5S3.879 5 2.5 5A2.503 2.503 0 0 1 0 2.5C0 1.122 1.121 0 2.5 0z"/>
        </clipPath>
        <clipPath id="fd0w1xkqmg">
            <path d="M2.5 0C3.879 0 5 1.122 5 2.5S3.879 5 2.5 5A2.503 2.503 0 0 1 0 2.5C0 1.122 1.121 0 2.5 0z"/>
        </clipPath>
        <clipPath id="qkxasjnzhh">
            <path d="M2.5 0C3.879 0 5 1.121 5 2.5S3.879 5 2.5 5A2.503 2.503 0 0 1 0 2.5C0 1.121 1.121 0 2.5 0z"/>
        </clipPath>
        <clipPath id="7n1htdkigi">
            <path d="M2.5 0C3.879 0 5 1.121 5 2.5S3.879 5 2.5 5A2.503 2.503 0 0 1 0 2.5C0 1.122 1.121 0 2.5 0z"/>
        </clipPath>
        <clipPath id="timujy745j">
            <path d="M2.5 0C3.879 0 5 1.122 5 2.5S3.879 5 2.5 5A2.503 2.503 0 0 1 0 2.5C0 1.122 1.121 0 2.5 0z"/>
        </clipPath>
        <clipPath id="l4xfykvmwk">
            <path d="M2.5 0C3.879 0 5 1.122 5 2.5S3.879 5 2.5 5A2.503 2.503 0 0 1 0 2.5C0 1.122 1.121 0 2.5 0z"/>
        </clipPath>
        <clipPath id="tcvwsww2il">
            <path d="M2.5 0C3.879 0 5 1.122 5 2.5S3.878 5 2.5 5A2.503 2.503 0 0 1 0 2.5C0 1.122 1.122 0 2.5 0z"/>
        </clipPath>
        <clipPath id="0k612vdncm">
            <path d="M2.5 0C3.878 0 5 1.122 5 2.5S3.878 5 2.5 5A2.503 2.503 0 0 1 0 2.5C0 1.122 1.122 0 2.5 0z"/>
        </clipPath>
        <clipPath id="wmax5jbvin">
            <path d="M2.5 0C3.878 0 5 1.122 5 2.5S3.878 5 2.5 5A2.503 2.503 0 0 1 0 2.5C0 1.122 1.122 0 2.5 0z"/>
        </clipPath>
        <clipPath id="fdvzcav19o">
            <path d="M2.5 0C3.879 0 5 1.122 5 2.5S3.879 5 2.5 5A2.503 2.503 0 0 1 0 2.5C0 1.122 1.121 0 2.5 0z"/>
        </clipPath>
        <clipPath id="4tyjevlnkp">
            <path d="M1.5 0a1.5 1.5 0 1 1 0 3 1.5 1.5 0 0 1 0-3z"/>
        </clipPath>
        <clipPath id="pgqlthbu4q">
            <path d="M1.5 0a1.5 1.5 0 1 1 0 3 1.5 1.5 0 0 1 0-3z"/>
        </clipPath>
        <clipPath id="73bfc0h7er">
            <path d="M1.5 0a1.5 1.5 0 1 1 0 3 1.5 1.5 0 0 1 0-3z"/>
        </clipPath>
        <clipPath id="3bs5egqyqs">
            <path d="M1.5 0a1.5 1.5 0 1 1 0 3 1.5 1.5 0 0 1 0-3z"/>
        </clipPath>
        <clipPath id="16j5t0wq1t">
            <path d="M1.5 0a1.5 1.5 0 1 1 0 3 1.5 1.5 0 0 1 0-3z"/>
        </clipPath>
        <clipPath id="jkymdmooeu">
            <path d="M1.5 0a1.5 1.5 0 1 1 0 3 1.5 1.5 0 0 1 0-3z"/>
        </clipPath>
        <clipPath id="vdjz6a7snv">
            <path d="M1.5 0a1.5 1.5 0 1 1 0 3 1.5 1.5 0 0 1 0-3z"/>
        </clipPath>
        <clipPath id="vdqzhuvaiw">
            <path d="M1.5 0a1.5 1.5 0 1 1 0 3 1.5 1.5 0 0 1 0-3z"/>
        </clipPath>
        <clipPath id="wz4fu21osx">
            <path d="M1.5 0a1.5 1.5 0 1 1 0 3 1.5 1.5 0 0 1 0-3z"/>
        </clipPath>
        <clipPath id="asjdmrzdpy">
            <path d="M1.5 0a1.5 1.5 0 1 1 0 3 1.5 1.5 0 0 1 0-3z"/>
        </clipPath>
        <clipPath id="f7yfq027dz">
            <path d="M1.5 0a1.5 1.5 0 1 1 0 3 1.5 1.5 0 0 1 0-3z"/>
        </clipPath>
    </defs>
    <g clip-path="url(#ownyvnb91a)" transform="translate(-1236 -586)">
        <g clip-path="url(#d8zrqsatpb)" transform="translate(1236 586)">
            <path d="M0 0h100v80H0V0z"/>
        </g>
        <g clip-path="url(#jsb0h4dakc)" transform="translate(1265.774 595.474)">
            <path fill="#FFF" d="M0 0h40.616v61.16H0V0z"/>
        </g>
        <g clip-path="url(#kjwtstr72d)" transform="translate(1291.673 650.505)">
            <path d="M0 0h5v5H0V0z"/>
        </g>
        <g clip-path="url(#kjwtstr72d)" transform="translate(1276.346 653.5)">
            <path d="M0 0h5v5H0V0z"/>
        </g>
        <g clip-path="url(#xwju3n5yve)" transform="translate(1283.491 635.91)">
            <path d="M0 0h5v5H0V0z"/>
        </g>
        <g clip-path="url(#xwju3n5yve)" transform="translate(1281.45 637.598)">
            <path d="M0 0h5v5H0V0z"/>
        </g>
        <g clip-path="url(#xwju3n5yve)" transform="translate(1279.404 638.696)">
            <path d="M0 0h5v5H0V0z"/>
        </g>
        <g clip-path="url(#yewg97hx3f)" transform="translate(1300.77 615.332)">
            <path d="M0 0h5v5H0V0z"/>
        </g>
        <g clip-path="url(#fd0w1xkqmg)" transform="translate(1303.001 618.075)">
            <path d="M0 0h5v5H0V0z"/>
        </g>
        <g clip-path="url(#qkxasjnzhh)" transform="translate(1298.942 632.22)">
            <path d="M0 0h5v5H0V0z"/>
        </g>
        <g clip-path="url(#7n1htdkigi)" transform="translate(1301.66 630.36)">
            <path d="M0 0h5v5H0V0z"/>
        </g>
        <g clip-path="url(#fd0w1xkqmg)" transform="translate(1302.478 624.689)">
            <path d="M0 0h5v5H0V0z"/>
        </g>
        <g clip-path="url(#fd0w1xkqmg)" transform="translate(1303.225 621.878)">
            <path d="M0 0h5v5H0V0z"/>
        </g>
        <g clip-path="url(#timujy745j)" transform="translate(1286.566 623.283)">
            <path d="M0 0h5v5H0V0z"/>
        </g>
        <g clip-path="url(#l4xfykvmwk)" transform="translate(1281.71 616.241)">
            <path d="M0 0h5v5H0V0z"/>
        </g>
        <g clip-path="url(#timujy745j)" transform="translate(1272.525 621.303)">
            <path d="M0 0h5v5H0V0z"/>
        </g>
        <g clip-path="url(#tcvwsww2il)" transform="translate(1268.547 616.123)">
            <path d="M0 0h5v5H0V0z"/>
        </g>
        <g clip-path="url(#0k612vdncm)" transform="translate(1266.101 605.927)">
            <path d="M0 0h5v5H0V0z"/>
        </g>
        <g clip-path="url(#wmax5jbvin)" transform="translate(1263.811 606.927)">
            <path d="M0 0h5v5H0V0z"/>
        </g>
        <g clip-path="url(#0k612vdncm)" transform="translate(1263.775 602.523)">
            <path d="M0 0h5v5H0V0z"/>
        </g>
        <g clip-path="url(#fdvzcav19o)" transform="translate(1272.597 593.5)">
            <path d="M0 0h5v5H0V0z"/>
        </g>
        <g clip-path="url(#0k612vdncm)" transform="translate(1267.592 593.654)">
            <path d="M0 0h5v5H0V0z"/>
        </g>
        <g clip-path="url(#4tyjevlnkp)" transform="translate(1268.592 594.654)">
            <path fill="#FFF" d="M0 0h3v3H0V0z"/>
        </g>
        <g clip-path="url(#pgqlthbu4q)" transform="translate(1273.597 594.5)">
            <path fill="#FFF" d="M0 0h3v3H0V0z"/>
        </g>
        <g clip-path="url(#73bfc0h7er)" transform="translate(1264.775 603.523)">
            <path fill="#FFF" d="M0 0h3v3H0V0z"/>
        </g>
        <g clip-path="url(#3bs5egqyqs)" transform="translate(1264.811 607.927)">
            <path fill="#FFF" d="M0 0h3v3H0V0z"/>
        </g>
        <g clip-path="url(#16j5t0wq1t)" transform="translate(1267.101 606.927)">
            <path fill="#FFF" d="M0 0h3v3H0V0z"/>
        </g>
        <g clip-path="url(#jkymdmooeu)" transform="translate(1269.547 617.123)">
            <path fill="#FFF" d="M0 0h3v3H0V0z"/>
        </g>
        <g clip-path="url(#vdjz6a7snv)" transform="translate(1273.525 622.303)">
            <path fill="#FFF" d="M0 0h3v3H0V0z"/>
        </g>
        <g clip-path="url(#vdqzhuvaiw)" transform="translate(1282.71 617.241)">
            <path fill="#FFF" d="M0 0h3v3H0V0z"/>
        </g>
        <g clip-path="url(#wz4fu21osx)" transform="translate(1287.566 624.283)">
            <path fill="#FFF" d="M0 0h3v3H0V0z"/>
        </g>
        <g clip-path="url(#vdjz6a7snv)" transform="translate(1304.225 622.878)">
            <path fill="#FFF" d="M0 0h3v3H0V0z"/>
        </g>
        <g clip-path="url(#vdjz6a7snv)" transform="translate(1303.478 625.689)">
            <path fill="#FFF" d="M0 0h3v3H0V0z"/>
        </g>
        <g clip-path="url(#wz4fu21osx)" transform="translate(1302.66 631.36)">
            <path fill="#FFF" d="M0 0h3v3H0V0z"/>
        </g>
        <g clip-path="url(#vdjz6a7snv)" transform="translate(1299.942 633.22)">
            <path fill="#FFF" d="M0 0h3v3H0V0z"/>
        </g>
        <g clip-path="url(#vdjz6a7snv)" transform="translate(1304.001 619.075)">
            <path fill="#FFF" d="M0 0h3v3H0V0z"/>
        </g>
        <g clip-path="url(#asjdmrzdpy)" transform="translate(1301.77 616.332)">
            <path fill="#FFF" d="M0 0h3v3H0V0z"/>
        </g>
        <g clip-path="url(#vdjz6a7snv)" transform="translate(1280.404 639.696)">
            <path fill="#FFF" d="M0 0h3v3H0V0z"/>
        </g>
        <g clip-path="url(#vdjz6a7snv)" transform="translate(1282.45 638.598)">
            <path fill="#FFF" d="M0 0h3v3H0V0z"/>
        </g>
        <g clip-path="url(#vdjz6a7snv)" transform="translate(1284.491 636.91)">
            <path fill="#FFF" d="M0 0h3v3H0V0z"/>
        </g>
        <g clip-path="url(#vdjz6a7snv)" transform="translate(1277.346 654.5)">
            <path fill="#FFF" d="M0 0h3v3H0V0z"/>
        </g>
        <g clip-path="url(#f7yfq027dz)" transform="translate(1292.673 651.505)">
            <path fill="#FFF" d="M0 0h3v3H0V0z"/>
        </g>
    </g>
</svg>
