<svg width="100" height="80" viewBox="0 0 100 80" xmlns="http://www.w3.org/2000/svg">
    <defs>
        <clipPath id="w6yir479ga">
            <path d="M5370 0v5280H0V0h5370z"/>
        </clipPath>
        <clipPath id="qy2c97petb">
            <path d="M100 0v80H0V0h100z"/>
        </clipPath>
        <clipPath id="4a22uel2pc">
            <path d="m30.448 0 .872.454-4.82 15.732-8.522 17.896-7.325 12.314-8.332 11.03 3.912-.672 6.231-4.435 6.493-1.378 11.821-2.917 6.832 1.183 12.175-1.754 9.657 2.075 9.194 2.064 5.767-1.846 6.337 6.371-5.421 4.716-7.908-1.06.707-7.272-8.89-1.996-9.478-2.036-12.155 1.75-6.78-1.174-11.635 2.871-6.405 1.36L6.63 57.7 0 58.84l9.824-13.001 7.273-12.228 8.37-17.571-2.86-5.988L30.447 0zm43.678 50.885-5.001 1.6-.625 6.425 6.503.872 4.274-3.718-5.151-5.18zM29.572 2.748l-5.797 7.43 2.148 4.495 3.65-11.925z"/>
        </clipPath>
        <clipPath id="865gw42god">
            <path d="M2.5 0C3.879 0 5 1.121 5 2.5S3.879 5 2.5 5A2.503 2.503 0 0 1 0 2.5C0 1.121 1.121 0 2.5 0z"/>
        </clipPath>
        <clipPath id="w9n6rblw1e">
            <path d="M2.5 0C3.879 0 5 1.121 5 2.5S3.879 5 2.5 5A2.503 2.503 0 0 1 0 2.5C0 1.121 1.121 0 2.5 0z"/>
        </clipPath>
        <clipPath id="l3yrbjghgf">
            <path d="M2.5 0C3.879 0 5 1.121 5 2.5S3.879 5 2.5 5A2.503 2.503 0 0 1 0 2.5C0 1.121 1.121 0 2.5 0z"/>
        </clipPath>
        <clipPath id="138bu4l0kg">
            <path d="M2.5 0C3.879 0 5 1.121 5 2.5S3.879 5 2.5 5A2.503 2.503 0 0 1 0 2.5C0 1.121 1.121 0 2.5 0z"/>
        </clipPath>
        <clipPath id="uo6rhcle9h">
            <path d="M2.5 0C3.879 0 5 1.121 5 2.5S3.879 5 2.5 5A2.503 2.503 0 0 1 0 2.5C0 1.121 1.121 0 2.5 0z"/>
        </clipPath>
        <clipPath id="w4vcobonzi">
            <path d="M2.5 0C3.879 0 5 1.121 5 2.5S3.879 5 2.5 5A2.503 2.503 0 0 1 0 2.5C0 1.121 1.121 0 2.5 0z"/>
        </clipPath>
        <clipPath id="35k9twad7j">
            <path d="M2.5 0C3.879 0 5 1.122 5 2.5S3.879 5 2.5 5A2.503 2.503 0 0 1 0 2.5C0 1.122 1.121 0 2.5 0z"/>
        </clipPath>
        <clipPath id="s9nis2fzak">
            <path d="M2.5 0C3.879 0 5 1.122 5 2.5S3.879 5 2.5 5A2.503 2.503 0 0 1 0 2.5C0 1.122 1.121 0 2.5 0z"/>
        </clipPath>
        <clipPath id="te7btffqul">
            <path d="M2.5 0C3.879 0 5 1.121 5 2.5S3.879 5 2.5 5A2.503 2.503 0 0 1 0 2.5C0 1.121 1.121 0 2.5 0z"/>
        </clipPath>
        <clipPath id="jcj0ncz75m">
            <path d="M1.5 0a1.5 1.5 0 1 1 0 3 1.5 1.5 0 0 1 0-3z"/>
        </clipPath>
        <clipPath id="m73alx4qfn">
            <path d="M1.5 0a1.5 1.5 0 1 1 0 3 1.5 1.5 0 0 1 0-3z"/>
        </clipPath>
        <clipPath id="jdyf58fvdo">
            <path d="M1.5 0a1.5 1.5 0 1 1 0 3 1.5 1.5 0 0 1 0-3z"/>
        </clipPath>
        <clipPath id="7k0lfv3mcp">
            <path d="M1.5 0a1.5 1.5 0 1 1 0 3 1.5 1.5 0 0 1 0-3z"/>
        </clipPath>
        <clipPath id="oj9yiw03hq">
            <path d="M1.5 0a1.5 1.5 0 1 1 0 3 1.5 1.5 0 0 1 0-3z"/>
        </clipPath>
        <clipPath id="1ol9oh877r">
            <path d="M1.5 0a1.5 1.5 0 1 1 0 3 1.5 1.5 0 0 1 0-3z"/>
        </clipPath>
        <clipPath id="pygtykt5xs">
            <path d="M1.5 0a1.5 1.5 0 1 1 0 3 1.5 1.5 0 0 1 0-3z"/>
        </clipPath>
        <clipPath id="v7e4kwwuwt">
            <path d="M1.5 0a1.5 1.5 0 1 1 0 3 1.5 1.5 0 0 1 0-3z"/>
        </clipPath>
    </defs>
    <g clip-path="url(#w6yir479ga)" transform="translate(-1346 -586)">
        <g clip-path="url(#qy2c97petb)" transform="translate(1346 586)">
            <path d="M0 0h100v80H0V0z"/>
        </g>
        <g clip-path="url(#4a22uel2pc)" transform="translate(1355.416 595.692)">
            <path fill="#FFF" d="M0 0h80.74v60.833H0V0z"/>
        </g>
        <g clip-path="url(#865gw42god)" transform="translate(1420.87 652.534)">
            <path d="M0 0h5v5H0V0z"/>
        </g>
        <g clip-path="url(#865gw42god)" transform="translate(1428.077 653.5)">
            <path d="M0 0h5v5H0V0z"/>
        </g>
        <g clip-path="url(#865gw42god)" transform="translate(1432.924 649.283)">
            <path d="M0 0h5v5H0V0z"/>
        </g>
        <g clip-path="url(#w9n6rblw1e)" transform="translate(1427.18 643.508)">
            <path d="M0 0h5v5H0V0z"/>
        </g>
        <g clip-path="url(#l3yrbjghgf)" transform="translate(1421.574 645.301)">
            <path d="M0 0h5v5H0V0z"/>
        </g>
        <g clip-path="url(#w9n6rblw1e)" transform="translate(1412.253 643.21)">
            <path d="M0 0h5v5H0V0z"/>
        </g>
        <g clip-path="url(#138bu4l0kg)" transform="translate(1402.683 641.153)">
            <path d="M0 0h5v5H0V0z"/>
        </g>
        <g clip-path="url(#138bu4l0kg)" transform="translate(1390.518 642.905)">
            <path d="M0 0h5v5H0V0z"/>
        </g>
        <g clip-path="url(#138bu4l0kg)" transform="translate(1383.712 641.727)">
            <path d="M0 0h5v5H0V0z"/>
        </g>
        <g clip-path="url(#138bu4l0kg)" transform="translate(1371.976 644.623)">
            <path d="M0 0h5v5H0V0z"/>
        </g>
        <g clip-path="url(#uo6rhcle9h)" transform="translate(1365.484 646)">
            <path d="M0 0h5v5H0V0z"/>
        </g>
        <g clip-path="url(#w4vcobonzi)" transform="translate(1359.347 650.42)">
            <path d="M0 0h5v5H0V0z"/>
        </g>
        <g clip-path="url(#35k9twad7j)" transform="translate(1376.106 603.308)">
            <path d="M0 0h5v5H0V0z"/>
        </g>
        <g clip-path="url(#35k9twad7j)" transform="translate(1383.758 593.5)">
            <path d="M0 0h5v5H0V0z"/>
        </g>
        <g clip-path="url(#35k9twad7j)" transform="translate(1378.938 609.232)">
            <path d="M0 0h5v5H0V0z"/>
        </g>
        <g clip-path="url(#s9nis2fzak)" transform="translate(1370.442 627.06)">
            <path d="M0 0h5v5H0V0z"/>
        </g>
        <g clip-path="url(#138bu4l0kg)" transform="translate(1363.139 639.333)">
            <path d="M0 0h5v5H0V0z"/>
        </g>
        <g clip-path="url(#te7btffqul)" transform="translate(1354.076 651.325)">
            <path d="M0 0h5v5H0V0z"/>
        </g>
        <g clip-path="url(#jcj0ncz75m)" transform="translate(1355.076 652.325)">
            <path fill="#FFF" d="M0 0h3v3H0V0z"/>
        </g>
        <g clip-path="url(#m73alx4qfn)" transform="translate(1364.139 640.333)">
            <path fill="#FFF" d="M0 0h3v3H0V0z"/>
        </g>
        <g clip-path="url(#m73alx4qfn)" transform="translate(1371.442 628.06)">
            <path fill="#FFF" d="M0 0h3v3H0V0z"/>
        </g>
        <g clip-path="url(#jdyf58fvdo)" transform="translate(1379.938 610.232)">
            <path fill="#FFF" d="M0 0h3v3H0V0z"/>
        </g>
        <g clip-path="url(#jdyf58fvdo)" transform="translate(1384.758 594.5)">
            <path fill="#FFF" d="M0 0h3v3H0V0z"/>
        </g>
        <g clip-path="url(#7k0lfv3mcp)" transform="translate(1377.106 604.308)">
            <path fill="#FFF" d="M0 0h3v3H0V0z"/>
        </g>
        <g clip-path="url(#m73alx4qfn)" transform="translate(1360.347 651.42)">
            <path fill="#FFF" d="M0 0h3v3H0V0z"/>
        </g>
        <g clip-path="url(#oj9yiw03hq)" transform="translate(1366.484 647)">
            <path fill="#FFF" d="M0 0h3v3H0V0z"/>
        </g>
        <g clip-path="url(#m73alx4qfn)" transform="translate(1372.976 645.623)">
            <path fill="#FFF" d="M0 0h3v3H0V0z"/>
        </g>
        <g clip-path="url(#1ol9oh877r)" transform="translate(1384.712 642.727)">
            <path fill="#FFF" d="M0 0h3v3H0V0z"/>
        </g>
        <g clip-path="url(#pygtykt5xs)" transform="translate(1391.518 643.905)">
            <path fill="#FFF" d="M0 0h3v3H0V0z"/>
        </g>
        <g clip-path="url(#pygtykt5xs)" transform="translate(1403.683 642.153)">
            <path fill="#FFF" d="M0 0h3v3H0V0z"/>
        </g>
        <g clip-path="url(#1ol9oh877r)" transform="translate(1413.253 644.21)">
            <path fill="#FFF" d="M0 0h3v3H0V0z"/>
        </g>
        <g clip-path="url(#pygtykt5xs)" transform="translate(1422.574 646.301)">
            <path fill="#FFF" d="M0 0h3v3H0V0z"/>
        </g>
        <g clip-path="url(#pygtykt5xs)" transform="translate(1428.18 644.508)">
            <path fill="#FFF" d="M0 0h3v3H0V0z"/>
        </g>
        <g clip-path="url(#v7e4kwwuwt)" transform="translate(1433.924 650.283)">
            <path fill="#FFF" d="M0 0h3v3H0V0z"/>
        </g>
        <g clip-path="url(#pygtykt5xs)" transform="translate(1429.077 654.5)">
            <path fill="#FFF" d="M0 0h3v3H0V0z"/>
        </g>
        <g clip-path="url(#pygtykt5xs)" transform="translate(1421.87 653.534)">
            <path fill="#FFF" d="M0 0h3v3H0V0z"/>
        </g>
    </g>
</svg>
