<svg width="100" height="80" viewBox="0 0 100 80" xmlns="http://www.w3.org/2000/svg">
    <defs>
        <clipPath id="unvtaq9zfa">
            <path d="M5370 0v5280H0V0h5370z"/>
        </clipPath>
        <clipPath id="vkpjiw9dtb">
            <path d="M100 0v80H0V0h100z"/>
        </clipPath>
        <clipPath id="6xuu14ze1c">
            <path d="m50.74 0 .767.64-11.16 13.417 13.045-7.205.484.875-13.702 7.568 14.103-.144.01 1-15.816.162-3.47 4.172-6.658 14.344-.563 10.175-.428 10.572-9.026 3.775L6.622 60.85 0 53.528l2.024-3.043 4.343-6.369.826.564-5.93 8.755 5.75 6.356 11.119-1.424 8.247-3.467.402-9.943.615-10.462 6.792-14.597 3.624-4.4L50.74 0z"/>
        </clipPath>
        <clipPath id="zirgn0l05d">
            <path d="M2.5 0C3.878 0 5 1.122 5 2.5S3.878 5 2.5 5A2.503 2.503 0 0 1 0 2.5C0 1.122 1.122 0 2.5 0z"/>
        </clipPath>
        <clipPath id="7b8ozi485e">
            <path d="M2.5 0C3.878 0 5 1.122 5 2.5S3.878 5 2.5 5A2.503 2.503 0 0 1 0 2.5C0 1.122 1.122 0 2.5 0z"/>
        </clipPath>
        <clipPath id="u05gwqduqf">
            <path d="M2.5 0C3.878 0 5 1.122 5 2.5S3.878 5 2.5 5A2.503 2.503 0 0 1 0 2.5C0 1.122 1.122 0 2.5 0z"/>
        </clipPath>
        <clipPath id="ucuqakt6tg">
            <path d="M2.5 0C3.878 0 5 1.122 5 2.5S3.878 5 2.5 5A2.503 2.503 0 0 1 0 2.5C0 1.122 1.122 0 2.5 0z"/>
        </clipPath>
        <clipPath id="oior6na5ih">
            <path d="M2.5 0C3.878 0 5 1.121 5 2.5S3.878 5 2.5 5A2.503 2.503 0 0 1 0 2.5C0 1.121 1.122 0 2.5 0z"/>
        </clipPath>
        <clipPath id="15zfnpi0wi">
            <path d="M2.5 0C3.878 0 5 1.121 5 2.5S3.878 5 2.5 5A2.503 2.503 0 0 1 0 2.5C0 1.121 1.122 0 2.5 0z"/>
        </clipPath>
        <clipPath id="qpmzvjz1zj">
            <path d="M2.5 0C3.878 0 5 1.121 5 2.5S3.878 5 2.5 5A2.503 2.503 0 0 1 0 2.5C0 1.121 1.122 0 2.5 0z"/>
        </clipPath>
        <clipPath id="24g034o1rk">
            <path d="M2.5 0C3.878 0 5 1.121 5 2.5S3.878 5 2.5 5A2.503 2.503 0 0 1 0 2.5C0 1.121 1.122 0 2.5 0z"/>
        </clipPath>
        <clipPath id="ibkbxxjywl">
            <path d="M2.5 0C3.878 0 5 1.121 5 2.5S3.878 5 2.5 5A2.503 2.503 0 0 1 0 2.5C0 1.121 1.122 0 2.5 0z"/>
        </clipPath>
        <clipPath id="nglwtlwzwm">
            <path d="M2.5 0C3.878 0 5 1.121 5 2.5S3.878 5 2.5 5A2.503 2.503 0 0 1 0 2.5C0 1.121 1.122 0 2.5 0z"/>
        </clipPath>
        <clipPath id="pkdz9rkt6n">
            <path d="M1.5 0a1.5 1.5 0 1 1 0 3 1.5 1.5 0 0 1 0-3z"/>
        </clipPath>
        <clipPath id="1ovcsub28o">
            <path d="M1.5 0a1.5 1.5 0 1 1 0 3 1.5 1.5 0 0 1 0-3z"/>
        </clipPath>
        <clipPath id="45glllhi0p">
            <path d="M1.5 0a1.5 1.5 0 1 1 0 3 1.5 1.5 0 0 1 0-3z"/>
        </clipPath>
        <clipPath id="36sbe4jszq">
            <path d="M1.5 0a1.5 1.5 0 1 1 0 3 1.5 1.5 0 0 1 0-3z"/>
        </clipPath>
        <clipPath id="d6j3avijfr">
            <path d="M1.5 0a1.5 1.5 0 1 1 0 3 1.5 1.5 0 0 1 0-3z"/>
        </clipPath>
    </defs>
    <g clip-path="url(#unvtaq9zfa)" transform="translate(-1346 -676)">
        <g clip-path="url(#vkpjiw9dtb)" transform="translate(1346 676)">
            <path d="M0 0h100v80H0V0z"/>
        </g>
        <g clip-path="url(#6xuu14ze1c)" transform="translate(1368.543 685.68)">
            <path fill="#FFF" d="M0 0h54.287v60.85H0V0z"/>
        </g>
        <g clip-path="url(#zirgn0l05d)" transform="translate(1417.166 683.5)">
            <path d="M0 0h5v5H0V0z"/>
        </g>
        <g clip-path="url(#zirgn0l05d)" transform="translate(1419.677 690.469)">
            <path d="M0 0h5v5H0V0z"/>
        </g>
        <g clip-path="url(#zirgn0l05d)" transform="translate(1420.326 698.83)">
            <path d="M0 0h5v5H0V0z"/>
        </g>
        <g clip-path="url(#7b8ozi485e)" transform="translate(1404.241 698.995)">
            <path d="M0 0h5v5H0V0z"/>
        </g>
        <g clip-path="url(#u05gwqduqf)" transform="translate(1400.617 703.396)">
            <path d="M0 0h5v5H0V0z"/>
        </g>
        <g clip-path="url(#ucuqakt6tg)" transform="translate(1393.892 717.885)">
            <path d="M0 0h5v5H0V0z"/>
        </g>
        <g clip-path="url(#oior6na5ih)" transform="translate(1393.324 728.157)">
            <path d="M0 0h5v5H0V0z"/>
        </g>
        <g clip-path="url(#15zfnpi0wi)" transform="translate(1392.908 738.418)">
            <path d="M0 0h5v5H0V0z"/>
        </g>
        <g clip-path="url(#qpmzvjz1zj)" transform="translate(1368.483 733.942)">
            <path d="M0 0h5v5H0V0z"/>
        </g>
        <g clip-path="url(#24g034o1rk)" transform="translate(1384.305 742.034)">
            <path d="M0 0h5v5H0V0z"/>
        </g>
        <g clip-path="url(#ibkbxxjywl)" transform="translate(1372.86 743.5)">
            <path d="M0 0h5v5H0V0z"/>
        </g>
        <g clip-path="url(#nglwtlwzwm)" transform="translate(1366.674 736.66)">
            <path d="M0 0h5v5H0V0z"/>
        </g>
        <g clip-path="url(#qpmzvjz1zj)" transform="translate(1372.823 727.577)">
            <path d="M0 0h5v5H0V0z"/>
        </g>
        <g clip-path="url(#pkdz9rkt6n)" transform="translate(1373.823 728.577)">
            <path fill="#FFF" d="M0 0h3v3H0V0z"/>
        </g>
        <g clip-path="url(#1ovcsub28o)" transform="translate(1367.674 737.66)">
            <path fill="#FFF" d="M0 0h3v3H0V0z"/>
        </g>
        <g clip-path="url(#45glllhi0p)" transform="translate(1373.86 744.5)">
            <path fill="#FFF" d="M0 0h3v3H0V0z"/>
        </g>
        <g clip-path="url(#36sbe4jszq)" transform="translate(1385.305 743.034)">
            <path fill="#FFF" d="M0 0h3v3H0V0z"/>
        </g>
        <g clip-path="url(#45glllhi0p)" transform="translate(1369.483 734.942)">
            <path fill="#FFF" d="M0 0h3v3H0V0z"/>
        </g>
        <g clip-path="url(#36sbe4jszq)" transform="translate(1393.908 739.418)">
            <path fill="#FFF" d="M0 0h3v3H0V0z"/>
        </g>
        <g clip-path="url(#36sbe4jszq)" transform="translate(1394.324 729.157)">
            <path fill="#FFF" d="M0 0h3v3H0V0z"/>
        </g>
        <g clip-path="url(#36sbe4jszq)" transform="translate(1394.892 718.885)">
            <path fill="#FFF" d="M0 0h3v3H0V0z"/>
        </g>
        <g clip-path="url(#d6j3avijfr)" transform="translate(1401.617 704.396)">
            <path fill="#FFF" d="M0 0h3v3H0V0z"/>
        </g>
        <g clip-path="url(#d6j3avijfr)" transform="translate(1405.241 699.995)">
            <path fill="#FFF" d="M0 0h3v3H0V0z"/>
        </g>
        <g clip-path="url(#d6j3avijfr)" transform="translate(1421.326 699.83)">
            <path fill="#FFF" d="M0 0h3v3H0V0z"/>
        </g>
        <g clip-path="url(#d6j3avijfr)" transform="translate(1420.677 691.469)">
            <path fill="#FFF" d="M0 0h3v3H0V0z"/>
        </g>
        <g clip-path="url(#d6j3avijfr)" transform="translate(1418.166 684.5)">
            <path fill="#FFF" d="M0 0h3v3H0V0z"/>
        </g>
    </g>
</svg>
