<svg width="100" height="80" viewBox="0 0 100 80" xmlns="http://www.w3.org/2000/svg">
    <defs>
        <clipPath id="her131xbaa">
            <path d="M5370 0v5280H0V0h5370z"/>
        </clipPath>
        <clipPath id="2dcmvaczdb">
            <path d="M100 0v80H0V0h100z"/>
        </clipPath>
        <clipPath id="6nwaebpexc">
            <path d="M6.152 0 30.55 13.918l8.23 9.179 1.948 3.226.909.294L62.516 6.215l.699.715L42.36 27.31l1.704 4.15 12.17 6.855 24.034 6.25-.252.97L55.8 39.218l-12.265-6.91-4.733-.061-4.629-1.246L0 20.83l.285-.959L34.07 29.928l3.73-6.442-7.938-8.84L5.657.87 6.152 0zm32.265 24.415-3.353 5.791L39 31.266l3.92.037-1.524-3.712-1.331-.432-1.649-2.744z"/>
        </clipPath>
        <clipPath id="zv2ejf8bfd">
            <path d="M2.5 0C3.878 0 5 1.121 5 2.5S3.878 5 2.5 5A2.503 2.503 0 0 1 0 2.5C0 1.121 1.121 0 2.5 0z"/>
        </clipPath>
        <clipPath id="ls5co52g7e">
            <path d="M2.5 0C3.878 0 5 1.121 5 2.5S3.878 5 2.5 5A2.503 2.503 0 0 1 0 2.5C0 1.121 1.121 0 2.5 0z"/>
        </clipPath>
        <clipPath id="va72c83z8f">
            <path d="M2.5 0C3.878 0 5 1.121 5 2.5S3.878 5 2.5 5A2.503 2.503 0 0 1 0 2.5C0 1.121 1.121 0 2.5 0z"/>
        </clipPath>
        <clipPath id="b2wham2mkg">
            <path d="M2.5 0C3.878 0 5 1.121 5 2.5S3.878 5 2.5 5A2.503 2.503 0 0 1 0 2.5C0 1.121 1.121 0 2.5 0z"/>
        </clipPath>
        <clipPath id="2z7v10yelh">
            <path d="M2.5 0C3.878 0 5 1.121 5 2.5S3.878 5 2.5 5A2.503 2.503 0 0 1 0 2.5C0 1.121 1.121 0 2.5 0z"/>
        </clipPath>
        <clipPath id="7ltsjphjli">
            <path d="M1.5 0a1.5 1.5 0 1 1 0 3 1.5 1.5 0 0 1 0-3z"/>
        </clipPath>
        <clipPath id="8rati8rrcj">
            <path d="M1.5 0a1.5 1.5 0 1 1 0 3 1.5 1.5 0 0 1 0-3z"/>
        </clipPath>
        <clipPath id="2msrzpktok">
            <path d="M1.5 0a1.5 1.5 0 1 1 0 3 1.5 1.5 0 0 1 0-3z"/>
        </clipPath>
        <clipPath id="v4115zy6ol">
            <path d="M1.5 0a1.5 1.5 0 1 1 0 3 1.5 1.5 0 0 1 0-3z"/>
        </clipPath>
        <clipPath id="zfthjhgiwm">
            <path d="M1.5 0a1.5 1.5 0 1 1 0 3 1.5 1.5 0 0 1 0-3z"/>
        </clipPath>
        <clipPath id="69isnuyq8n">
            <path d="M1.5 0a1.5 1.5 0 1 1 0 3 1.5 1.5 0 0 1 0-3z"/>
        </clipPath>
    </defs>
    <g clip-path="url(#her131xbaa)" transform="translate(-1236 -766)">
        <g clip-path="url(#2dcmvaczdb)" transform="translate(1236 766)">
            <path d="M0 0h100v80H0V0z"/>
        </g>
        <g clip-path="url(#6nwaebpexc)" transform="translate(1245.857 783.258)">
            <path fill="#FFF" d="M0 0h80.269v45.534H0V0z"/>
        </g>
        <g clip-path="url(#zv2ejf8bfd)" transform="translate(1243.5 801.108)">
            <path d="M0 0h5v5H0V0z"/>
        </g>
        <g clip-path="url(#ls5co52g7e)" transform="translate(1277.662 811.278)">
            <path d="M0 0h5v5H0V0z"/>
        </g>
        <g clip-path="url(#ls5co52g7e)" transform="translate(1282.29 812.524)">
            <path d="M0 0h5v5H0V0z"/>
        </g>
        <g clip-path="url(#ls5co52g7e)" transform="translate(1287.026 812.568)">
            <path d="M0 0h5v5H0V0z"/>
        </g>
        <g clip-path="url(#ls5co52g7e)" transform="translate(1299.404 819.54)">
            <path d="M0 0h5v5H0V0z"/>
        </g>
        <g clip-path="url(#va72c83z8f)" transform="translate(1323.5 825.808)">
            <path d="M0 0h5v5H0V0z"/>
        </g>
        <g clip-path="url(#ls5co52g7e)" transform="translate(1306.223 787.33)">
            <path d="M0 0h5v5H0V0z"/>
        </g>
        <g clip-path="url(#ls5co52g7e)" transform="translate(1285.129 807.944)">
            <path d="M0 0h5v5H0V0z"/>
        </g>
        <g clip-path="url(#ls5co52g7e)" transform="translate(1283.755 807.499)">
            <path d="M0 0h5v5H0V0z"/>
        </g>
        <g clip-path="url(#ls5co52g7e)" transform="translate(1281.767 804.188)">
            <path d="M0 0h5v5H0V0z"/>
        </g>
        <g clip-path="url(#b2wham2mkg)" transform="translate(1273.536 795.01)">
            <path d="M0 0h5v5H0V0z"/>
        </g>
        <g clip-path="url(#2z7v10yelh)" transform="translate(1249.262 781.192)">
            <path d="M0 0h5v5H0V0z"/>
        </g>
        <g clip-path="url(#7ltsjphjli)" transform="translate(1250.262 782.192)">
            <path fill="#FFF" d="M0 0h3v3H0V0z"/>
        </g>
        <g clip-path="url(#8rati8rrcj)" transform="translate(1274.536 796.01)">
            <path fill="#FFF" d="M0 0h3v3H0V0z"/>
        </g>
        <g clip-path="url(#2msrzpktok)" transform="translate(1282.767 805.188)">
            <path fill="#FFF" d="M0 0h3v3H0V0z"/>
        </g>
        <g clip-path="url(#2msrzpktok)" transform="translate(1284.755 808.499)">
            <path fill="#FFF" d="M0 0h3v3H0V0z"/>
        </g>
        <g clip-path="url(#2msrzpktok)" transform="translate(1286.129 808.944)">
            <path fill="#FFF" d="M0 0h3v3H0V0z"/>
        </g>
        <g clip-path="url(#v4115zy6ol)" transform="translate(1307.223 788.33)">
            <path fill="#FFF" d="M0 0h3v3H0V0z"/>
        </g>
        <g clip-path="url(#2msrzpktok)" transform="translate(1324.5 826.808)">
            <path fill="#FFF" d="M0 0h3v3H0V0z"/>
        </g>
        <g clip-path="url(#2msrzpktok)" transform="translate(1300.404 820.54)">
            <path fill="#FFF" d="M0 0h3v3H0V0z"/>
        </g>
        <g clip-path="url(#zfthjhgiwm)" transform="translate(1288.026 813.568)">
            <path fill="#FFF" d="M0 0h3v3H0V0z"/>
        </g>
        <g clip-path="url(#2msrzpktok)" transform="translate(1283.29 813.524)">
            <path fill="#FFF" d="M0 0h3v3H0V0z"/>
        </g>
        <g clip-path="url(#2msrzpktok)" transform="translate(1278.662 812.278)">
            <path fill="#FFF" d="M0 0h3v3H0V0z"/>
        </g>
        <g clip-path="url(#69isnuyq8n)" transform="translate(1244.5 802.108)">
            <path fill="#FFF" d="M0 0h3v3H0V0z"/>
        </g>
    </g>
</svg>
