<svg width="100" height="80" viewBox="0 0 100 80" xmlns="http://www.w3.org/2000/svg">
    <defs>
        <clipPath id="g3p55rczla">
            <path d="M5370 0v5280H0V0h5370z"/>
        </clipPath>
        <clipPath id="nglo886n1b">
            <path d="M100 0v80H0V0h100z"/>
        </clipPath>
        <clipPath id="gen2okfkkc">
            <path d="m49.533 0 2.882 12.647 5.4 7.38 8.617-.891 13.254-11.95.67.742-13.497 12.169-9.058.935-16.917 15.86-21.55.043-2.075-7.414-14.075.245-.018-1 14.848-.26 2.078 7.427 19.939-.04-4.39-16.064-11.99-3.695L0 15.154l.041-1 23.843 1.005L36.026 18.9l15.343-6.342L48.56.223 49.532 0zm2.246 13.472L36.65 19.726l4.3 15.733L56.915 20.49l-5.137-7.018z"/>
        </clipPath>
        <clipPath id="8gn134edxd">
            <path d="M2.5 0C3.878 0 5 1.121 5 2.5S3.878 5 2.5 5A2.503 2.503 0 0 1 0 2.5C0 1.121 1.122 0 2.5 0z"/>
        </clipPath>
        <clipPath id="b3u8v26u3e">
            <path d="M2.5 0C3.879 0 5 1.121 5 2.5S3.879 5 2.5 5A2.503 2.503 0 0 1 0 2.5C0 1.121 1.121 0 2.5 0z"/>
        </clipPath>
        <clipPath id="ww8z675rhf">
            <path d="M2.5 0C3.879 0 5 1.121 5 2.5S3.879 5 2.5 5A2.503 2.503 0 0 1 0 2.5C0 1.121 1.121 0 2.5 0z"/>
        </clipPath>
        <clipPath id="5z7bh9a7rg">
            <path d="M1.5 0a1.5 1.5 0 1 1 0 3 1.5 1.5 0 0 1 0-3z"/>
        </clipPath>
        <clipPath id="2jjw6skjth">
            <path d="M1.5 0a1.5 1.5 0 1 1 0 3 1.5 1.5 0 0 1 0-3z"/>
        </clipPath>
        <clipPath id="qpsj6m5jti">
            <path d="M1.5 0a1.5 1.5 0 1 1 0 3 1.5 1.5 0 0 1 0-3z"/>
        </clipPath>
        <clipPath id="o57ir0z7pj">
            <path d="M1.5 0a1.5 1.5 0 1 1 0 3 1.5 1.5 0 0 1 0-3z"/>
        </clipPath>
        <clipPath id="zzfok2m8dk">
            <path d="M1.5 0a1.5 1.5 0 1 1 0 3 1.5 1.5 0 0 1 0-3z"/>
        </clipPath>
        <clipPath id="60b0vomxll">
            <path d="M1.5 0a1.5 1.5 0 1 1 0 3 1.5 1.5 0 0 1 0-3z"/>
        </clipPath>
    </defs>
    <g clip-path="url(#g3p55rczla)" transform="translate(-1236 -856)">
        <g clip-path="url(#nglo886n1b)" transform="translate(1236 856)">
            <path d="M0 0h100v80H0V0z"/>
        </g>
        <g clip-path="url(#gen2okfkkc)" transform="translate(1245.98 877.728)">
            <path fill="#FFF" d="M0 0h80.355v36.935H0V0z"/>
        </g>
        <g clip-path="url(#8gn134edxd)" transform="translate(1246.654 904.493)">
            <path d="M0 0h5v5H0V0z"/>
        </g>
        <g clip-path="url(#8gn134edxd)" transform="translate(1261.116 904.242)">
            <path d="M0 0h5v5H0V0z"/>
        </g>
        <g clip-path="url(#8gn134edxd)" transform="translate(1263.193 911.661)">
            <path d="M0 0h5v5H0V0z"/>
        </g>
        <g clip-path="url(#b3u8v26u3e)" transform="translate(1284.165 911.62)">
            <path d="M0 0h5v5H0V0z"/>
        </g>
        <g clip-path="url(#ww8z675rhf)" transform="translate(1323.5 882.784)">
            <path d="M0 0h5v5H0V0z"/>
        </g>
        <g clip-path="url(#ww8z675rhf)" transform="translate(1310.125 894.844)">
            <path d="M0 0h5v5H0V0z"/>
        </g>
        <g clip-path="url(#ww8z675rhf)" transform="translate(1301.06 895.78)">
            <path d="M0 0h5v5H0V0z"/>
        </g>
        <g clip-path="url(#b3u8v26u3e)" transform="translate(1292.525 875.339)">
            <path d="M0 0h5v5H0V0z"/>
        </g>
        <g clip-path="url(#b3u8v26u3e)" transform="translate(1295.43 888.087)">
            <path d="M0 0h5v5H0V0z"/>
        </g>
        <g clip-path="url(#b3u8v26u3e)" transform="translate(1279.531 894.659)">
            <path d="M0 0h5v5H0V0z"/>
        </g>
        <g clip-path="url(#8gn134edxd)" transform="translate(1267.216 890.864)">
            <path d="M0 0h5v5H0V0z"/>
        </g>
        <g clip-path="url(#8gn134edxd)" transform="translate(1243.5 889.882)">
            <path d="M0 0h5v5H0V0z"/>
        </g>
        <g clip-path="url(#5z7bh9a7rg)" transform="translate(1244.5 890.882)">
            <path fill="#FFF" d="M0 0h3v3H0V0z"/>
        </g>
        <g clip-path="url(#2jjw6skjth)" transform="translate(1268.216 891.864)">
            <path fill="#FFF" d="M0 0h3v3H0V0z"/>
        </g>
        <g clip-path="url(#qpsj6m5jti)" transform="translate(1280.531 895.659)">
            <path fill="#FFF" d="M0 0h3v3H0V0z"/>
        </g>
        <g clip-path="url(#2jjw6skjth)" transform="translate(1296.43 889.087)">
            <path fill="#FFF" d="M0 0h3v3H0V0z"/>
        </g>
        <g clip-path="url(#o57ir0z7pj)" transform="translate(1293.525 876.339)">
            <path fill="#FFF" d="M0 0h3v3H0V0z"/>
        </g>
        <g clip-path="url(#2jjw6skjth)" transform="translate(1302.06 896.78)">
            <path fill="#FFF" d="M0 0h3v3H0V0z"/>
        </g>
        <g clip-path="url(#qpsj6m5jti)" transform="translate(1311.125 895.844)">
            <path fill="#FFF" d="M0 0h3v3H0V0z"/>
        </g>
        <g clip-path="url(#zzfok2m8dk)" transform="translate(1324.5 883.784)">
            <path fill="#FFF" d="M0 0h3v3H0V0z"/>
        </g>
        <g clip-path="url(#2jjw6skjth)" transform="translate(1285.165 912.62)">
            <path fill="#FFF" d="M0 0h3v3H0V0z"/>
        </g>
        <g clip-path="url(#60b0vomxll)" transform="translate(1264.193 912.661)">
            <path fill="#FFF" d="M0 0h3v3H0V0z"/>
        </g>
        <g clip-path="url(#60b0vomxll)" transform="translate(1262.116 905.242)">
            <path fill="#FFF" d="M0 0h3v3H0V0z"/>
        </g>
        <g clip-path="url(#5z7bh9a7rg)" transform="translate(1247.654 905.493)">
            <path fill="#FFF" d="M0 0h3v3H0V0z"/>
        </g>
    </g>
</svg>
