<svg width="40" height="40" viewBox="0 0 40 40" xmlns="http://www.w3.org/2000/svg">
    <g fill="none" fill-rule="evenodd">
        <path d="M0 40h40V0H0z"/>
        <path class="main-shape" d="M20 7.083c1.783 0 3.468.34 5.045 1.02a13.028 13.028 0 0 1 4.093 2.759 13.025 13.025 0 0 1 2.757 4.093A12.613 12.613 0 0 1 32.917 20c0 1.781-.341 3.467-1.022 5.045a13.025 13.025 0 0 1-2.757 4.093 13.025 13.025 0 0 1-4.093 2.757A12.613 12.613 0 0 1 20 32.917c-1.781 0-3.467-.341-5.045-1.022a13.025 13.025 0 0 1-4.093-2.757 13.025 13.025 0 0 1-2.757-4.093A12.613 12.613 0 0 1 7.083 20c0-1.781.341-3.467 1.022-5.045a13.025 13.025 0 0 1 2.757-4.093 13.028 13.028 0 0 1 4.093-2.758c1.577-.68 3.262-1.02 5.045-1.02zm0 2.5c-1.446 0-2.794.272-4.055.816a10.53 10.53 0 0 0-3.315 2.23 10.527 10.527 0 0 0-2.23 3.316A10.115 10.115 0 0 0 9.583 20c0 1.444.273 2.792.817 4.055a10.527 10.527 0 0 0 2.23 3.315 10.527 10.527 0 0 0 3.315 2.23c1.263.544 2.61.817 4.055.817 1.444 0 2.792-.273 4.055-.817a10.527 10.527 0 0 0 3.315-2.23 10.527 10.527 0 0 0 2.23-3.315c.544-1.263.817-2.61.817-4.055 0-1.444-.273-2.792-.817-4.055a10.527 10.527 0 0 0-2.23-3.315 10.53 10.53 0 0 0-3.315-2.23c-1.261-.545-2.61-.817-4.055-.817zm4.958 5.925 1.634 1.634-8.225 8.225-4.959-4.959 1.634-1.633 3.325 3.325 6.591-6.592z" fill="#005F99" fill-rule="nonzero"/>
    </g>
</svg>
