<svg width="33" height="33" viewBox="0 0 33 33" xmlns="http://www.w3.org/2000/svg">
    <defs>
        <clipPath id="4y2kyyotea">
            <path d="M5370 0v4730H0V0h5370z"/>
        </clipPath>
        <clipPath id="3mags6ksgb">
            <path d="M20 0a3 3 0 0 1 3 3v17a3 3 0 0 1-3 3H3a3 3 0 0 1-3-3V3a3 3 0 0 1 3-3h17z"/>
        </clipPath>
        <clipPath id="yuijiqv9vc">
            <path d="m12.65 0 1.789 1.789-9.008 9.008L0 5.367l1.789-1.79L5.43 7.22 12.65 0z"/>
        </clipPath>
    </defs>
    <g clip-path="url(#4y2kyyotea)" transform="translate(-1236 -156)">
        <g clip-path="url(#3mags6ksgb)" transform="translate(1241 161)">
            <path fill="#FFF" d="M0 0h23v23H0V0z"/>
        </g>
        <g clip-path="url(#3mags6ksgb)" transform="translate(1241 161)">
            <path d="M3 0h17a3 3 0 0 1 3 3v17a3 3 0 0 1-3 3H3a3 3 0 0 1-3-3V3a3 3 0 0 1 3-3z" stroke="#005E99" stroke-width="4" fill="none" stroke-miterlimit="5"/>
        </g>
        <g>
            <g clip-path="url(#yuijiqv9vc)" transform="translate(1245.28 167.07)">
                <path fill="#005E99" d="M0 0h14.439v10.797H0V0z"/>
            </g>
        </g>
    </g>
</svg>
