<svg width="37" height="37" viewBox="0 0 37 37" xmlns="http://www.w3.org/2000/svg">
    <g fill-rule="nonzero" fill="none">
        <circle stroke="#1e2749" stroke-width="3" fill="#e7edf6" cx="18.5" cy="18.5" r="12"/>
        <path d="m14.38 12.53.1.09 4.02 4.02 4.02-4.02.1-.09a1.315 1.315 0 0 1 1.855 1.843l-.095.107-4.02 4.02 4.02 4.02a1.315 1.315 0 0 1-1.76 1.95l-.1-.09-4.02-4.02-4.02 4.02-.1.09a1.315 1.315 0 0 1-1.855-1.843l.095-.107 4.02-4.02-4.02-4.02a1.315 1.315 0 0 1 1.76-1.95z" fill="#1e2749"/>
    </g>
</svg>
