<svg width="18" height="18" viewBox="0 0 18 18" xmlns="http://www.w3.org/2000/svg">
    <defs>
        <clipPath id="2o4cm5m3ra">
            <path d="M5370 0v4730H0V0h5370z"/>
        </clipPath>
        <clipPath id="5e8u31jp0b">
            <path d="M7.5 0c1.037 0 2.012.197 2.925.59a7.572 7.572 0 0 1 2.381 1.604 7.57 7.57 0 0 1 1.603 2.381c.394.913.591 1.888.591 2.925a7.305 7.305 0 0 1-.591 2.925 7.57 7.57 0 0 1-1.603 2.381 7.57 7.57 0 0 1-2.381 1.603A7.305 7.305 0 0 1 7.5 15a7.305 7.305 0 0 1-2.925-.591 7.57 7.57 0 0 1-2.381-1.603A7.57 7.57 0 0 1 .59 10.425 7.305 7.305 0 0 1 0 7.5c0-1.037.197-2.012.591-2.925a7.57 7.57 0 0 1 1.603-2.381A7.572 7.572 0 0 1 4.575.59 7.305 7.305 0 0 1 7.5 0z"/>
        </clipPath>
        <clipPath id="ilet8hg67c">
            <path d="M6 0c1.663 0 3.078.584 4.247 1.753S12 4.337 12 6c0 1.663-.584 3.078-1.753 4.247S7.663 12 6 12c-1.663 0-3.078-.584-4.247-1.753S0 7.663 0 6c0-1.663.584-3.078 1.754-4.247C2.921.584 4.337 0 6 0z"/>
        </clipPath>
        <clipPath id="8x21f4qrwd">
            <path d="m7.425 0 1.05 1.05-5.287 5.288L0 3.15 1.05 2.1l2.138 2.137L7.425 0z"/>
        </clipPath>
    </defs>
    <g clip-path="url(#2o4cm5m3ra)" transform="translate(-1307 -156)">
        <g clip-path="url(#5e8u31jp0b)" transform="translate(1308.5 157.5)">
            <path fill="#005E99" d="M0 0h15v15H0V0z"/>
        </g>
        <g clip-path="url(#ilet8hg67c)" transform="translate(1310 159)">
            <path fill="#BAEBA1" d="M0 0h12v12H0V0z"/>
        </g>
        <g clip-path="url(#8x21f4qrwd)" transform="translate(1311.763 162.113)">
            <path d="M0 0h8.475v6.338H0V0z"/>
        </g>
    </g>
</svg>
