<?xml version="1.0" encoding="UTF-8"?>
<svg xmlns="http://www.w3.org/2000/svg" xmlns:xlink="http://www.w3.org/1999/xlink" version="1.1" width="18px" height="18px" viewBox="0 0 18.0 18.0">
  <defs>
    <clipPath id="i0">
      <path d="M5370,0 L5370,4730 L0,4730 L0,0 L5370,0 Z"/>
    </clipPath>
    <clipPath id="i1">
      <path d="M8.75,0 C13.5824916,0 17.5,3.91750844 17.5,8.75 C17.5,13.5824916 13.5824916,17.5 8.75,17.5 C3.91750844,17.5 0,13.5824916 0,8.75 C0,3.91750844 3.91750844,0 8.75,0 Z M8.75,1.5 C4.74593556,1.5 1.5,4.74593556 1.5,8.75 C1.5,12.7540644 4.74593556,16 8.75,16 C12.7540644,16 16,12.7540644 16,8.75 C16,4.74593556 12.7540644,1.5 8.75,1.5 Z"/>
    </clipPath>
  </defs>
  <g transform="translate(-1655.0 -106.0)">
    <g clip-path="url(#i0)">
      <g transform="translate(1655.0 106.0)">
        <g transform="translate(0.25 0.25)">
          <g clip-path="url(#i1)">
            <polygon points="0,0 17.5,0 17.5,17.5 0,17.5 0,0" stroke="none" fill="#005E99" class="main-shape"/>
          </g>
        </g>
      </g>
    </g>
  </g>
</svg>