<?xml version="1.0" encoding="UTF-8"?>
<svg xmlns="http://www.w3.org/2000/svg" xmlns:xlink="http://www.w3.org/1999/xlink" version="1.1" width="18px" height="18px" viewBox="0 0 18.0 18.0">
  <defs>
    <clipPath id="i0">
      <path d="M5370,0 L5370,4730 L0,4730 L0,0 L5370,0 Z"/>
    </clipPath>
    <clipPath id="i1">
      <path d="M8.75,0 C13.529346,0 17.5,1.98532701 17.5,4.75 C17.5,7.51467299 13.529346,9.5 8.75,9.5 C3.97065402,9.5 0,7.51467299 0,4.75 C0,1.98532701 3.97065402,0 8.75,0 Z M8.75,1.5 C4.69278998,1.5 1.5,3.09639499 1.5,4.75 C1.5,6.40360501 4.69278998,8 8.75,8 C12.80721,8 16,6.40360501 16,4.75 C16,3.09639499 12.80721,1.5 8.75,1.5 Z"/>
    </clipPath>
  </defs>
  <g transform="translate(-1627.0 -106.0)">
    <g clip-path="url(#i0)">
      <g transform="translate(1627.0 106.0)">
        <g transform="translate(0.25 4.25)">
          <g clip-path="url(#i1)">
            <polygon points="0,0 17.5,0 17.5,9.5 0,9.5 0,0" stroke="none" fill="#005E99" class="main-shape"/>
          </g>
        </g>
      </g>
    </g>
  </g>
</svg>