<svg width="18" height="18" viewBox="0 0 18 18" xmlns="http://www.w3.org/2000/svg">
    <defs>
        <clipPath id="twzfu490sa">
            <path d="M5370 0v4730H0V0h5370z"/>
        </clipPath>
        <clipPath id="btolf4vrkb">
            <path d="m8.25 0 8.25 14.25H0L8.25 0z"/>
        </clipPath>
        <clipPath id="m2v2aoosvc">
            <path d="m5.662 0 5.663 9.75H0L5.662 0z"/>
        </clipPath>
        <clipPath id="8c82mvtb9d">
            <path d="M.75 0c.212 0 .39.072.535.216A.726.726 0 0 1 1.5.75c0 .212-.072.39-.215.534A.727.727 0 0 1 .75 1.5a.724.724 0 0 1-.534-.216A.724.724 0 0 1 0 .75C0 .538.072.36.216.216A.724.724 0 0 1 .75 0z"/>
        </clipPath>
        <clipPath id="7eeawy453e">
            <path d="M1.5 0v3.75H0V0h1.5z"/>
        </clipPath>
    </defs>
    <g clip-path="url(#twzfu490sa)" transform="translate(-1335 -156)">
        <g clip-path="url(#btolf4vrkb)" transform="translate(1335.75 157.5)">
            <path fill="#005E99" d="M0 0h16.5v14.25H0V0z"/>
        </g>
        <g clip-path="url(#m2v2aoosvc)" transform="translate(1338.338 160.5)">
            <path fill="#FAA1B1" d="M0 0h11.325v9.75H0V0z"/>
        </g>
        <g clip-path="url(#8c82mvtb9d)" transform="translate(1343.25 168)">
            <path d="M0 0h1.5v1.5H0V0z"/>
        </g>
        <g clip-path="url(#7eeawy453e)" transform="translate(1343.25 163.5)">
            <path d="M0 0h1.5v3.75H0V0z"/>
        </g>
    </g>
</svg>
