<?xml version="1.0" encoding="UTF-8"?>
<svg xmlns="http://www.w3.org/2000/svg" xmlns:xlink="http://www.w3.org/1999/xlink" version="1.1" width="18px" height="18px" viewBox="0 0 18.0 18.0">
  <defs>
    <clipPath id="ir0">
      <path d="M5370,0 L5370,4730 L0,4730 L0,0 L5370,0 Z"/>
    </clipPath>
    <clipPath id="ir1">
      <path d="M8.75,0 C13.529346,0 17.5,1.98532701 17.5,4.75 C17.5,6.90695316 15.0831153,8.5895287 11.7509224,9.22502119 L11.7504542,7.69223419 C14.2753636,7.1497636 16,5.96533325 16,4.75 C16,3.09639499 12.80721,1.5 8.75,1.5 C4.69278998,1.5 1.5,3.09639499 1.5,4.75 C1.5,6.07329284 3.54464878,7.35994863 6.44071532,7.8211738 L5.45,6.83 L6.5,5.78 L9.5,8.78 L6.5,11.78 L5.45,10.73 L6.76107358,9.38204211 C2.91753624,8.91705646 0,7.11985009 0,4.75 C0,1.98532701 3.97065402,0 8.75,0 Z"/>
    </clipPath>
  </defs>
  <g transform="translate(-1683.0 -106.0)">
    <g clip-path="url(#ir0)">
      <g transform="translate(1683.0 106.0)">
        <g transform="translate(0.25 4.249999999999999)">
          <g clip-path="url(#ir1)">
            <polygon points="0,0 17.5,0 17.5,11.78 0,11.78 0,0" stroke="none" fill="#005E99" class="main-shape"/>
          </g>
        </g>
      </g>
    </g>
  </g>
</svg>