<?xml version="1.0" encoding="UTF-8"?>
<svg id="Layer_2" data-name="Layer 2" xmlns="http://www.w3.org/2000/svg" xmlns:xlink="http://www.w3.org/1999/xlink" viewBox="0 0 394 469">
  <defs>
    <linearGradient id="linear-gradient" x1="192.5234" y1="318.46042" x2="185.91306" y2="307.01098" gradientUnits="userSpaceOnUse">
      <stop offset="0" stop-color="#64681e"/>
      <stop offset=".31808" stop-color="#64681e"/>
      <stop offset=".85115" stop-color="#64681e" stop-opacity="0"/>
      <stop offset="1" stop-color="#64681e" stop-opacity="0"/>
    </linearGradient>
    <linearGradient id="linear-gradient-2" x1="152.91984" y1="315.46257" x2="165.22122" y2="308.36037" gradientUnits="userSpaceOnUse">
      <stop offset="0" stop-color="#64681e"/>
      <stop offset=".20624" stop-color="#64681e"/>
      <stop offset=".75666" stop-color="#64681e" stop-opacity="0"/>
      <stop offset="1" stop-color="#64681e" stop-opacity="0"/>
    </linearGradient>
    <linearGradient id="linear-gradient-3" x1="196.98575" y1="269.51944" x2="179.32113" y2="290.57132" gradientUnits="userSpaceOnUse">
      <stop offset="0" stop-color="#64681e"/>
      <stop offset=".20624" stop-color="#64681e"/>
      <stop offset=".61945" stop-color="#64681e" stop-opacity="0"/>
      <stop offset="1" stop-color="#64681e" stop-opacity="0"/>
    </linearGradient>
    <linearGradient id="linear-gradient-4" x1="151.4501" y1="257.12502" x2="168.73472" y2="287.06285" gradientUnits="userSpaceOnUse">
      <stop offset=".48806" stop-color="#64681e"/>
      <stop offset=".87132" stop-color="#64681e" stop-opacity="0"/>
      <stop offset="1" stop-color="#64681e" stop-opacity="0"/>
    </linearGradient>
    <linearGradient id="linear-gradient-5" x1="191.9727" y1="317.366" x2="186.59947" y2="308.0593" gradientUnits="userSpaceOnUse">
      <stop offset="0" stop-color="#c6c359"/>
      <stop offset=".327" stop-color="#c6c359"/>
      <stop offset=".86107" stop-color="#c6c359" stop-opacity="0"/>
      <stop offset="1" stop-color="#c6c359" stop-opacity="0"/>
    </linearGradient>
    <linearGradient id="linear-gradient-6" x1="154.00991" y1="314.83969" x2="163.96562" y2="309.09176" gradientUnits="userSpaceOnUse">
      <stop offset=".00347" stop-color="#c6c359"/>
      <stop offset=".20125" stop-color="#c6c359"/>
      <stop offset=".75611" stop-color="#c6c359" stop-opacity="0"/>
      <stop offset="1" stop-color="#c6c359" stop-opacity="0"/>
    </linearGradient>
    <linearGradient id="linear-gradient-7" x1="196.17769" y1="270.48767" x2="180.1802" y2="289.55274" gradientUnits="userSpaceOnUse">
      <stop offset="0" stop-color="#c6c359"/>
      <stop offset=".20125" stop-color="#c6c359"/>
      <stop offset=".62294" stop-color="#c6c359" stop-opacity="0"/>
      <stop offset="1" stop-color="#c6c359" stop-opacity="0"/>
    </linearGradient>
    <linearGradient id="linear-gradient-8" x1="152.07146" y1="258.19664" x2="168.03899" y2="285.85321" gradientUnits="userSpaceOnUse">
      <stop offset="0" stop-color="#c6c359"/>
      <stop offset=".45034" stop-color="#c6c359"/>
      <stop offset=".87851" stop-color="#c6c359" stop-opacity="0"/>
      <stop offset="1" stop-color="#c6c359" stop-opacity="0"/>
    </linearGradient>
    <linearGradient id="linear-gradient-9" x1="191.22843" y1="317.79571" x2="186.05034" y2="308.827" gradientUnits="userSpaceOnUse">
      <stop offset="0" stop-color="#cfd16b"/>
      <stop offset=".3177" stop-color="#cfd16b"/>
      <stop offset=".84202" stop-color="#cfd16b" stop-opacity="0"/>
      <stop offset="1" stop-color="#cfd16b" stop-opacity="0"/>
    </linearGradient>
    <linearGradient id="linear-gradient-10" x1="157.32878" y1="317.67226" x2="161.99438" y2="309.59121" gradientUnits="userSpaceOnUse">
      <stop offset="0" stop-color="#cfd16b"/>
      <stop offset=".19853" stop-color="#cfd16b"/>
      <stop offset=".74644" stop-color="#cfd16b" stop-opacity="0"/>
      <stop offset="1" stop-color="#cfd16b" stop-opacity="0"/>
    </linearGradient>
    <linearGradient id="linear-gradient-11" x1="197.87018" y1="271.92244" x2="181.99058" y2="290.84701" gradientUnits="userSpaceOnUse">
      <stop offset="0" stop-color="#cfd16b"/>
      <stop offset=".15877" stop-color="#cfd16b"/>
      <stop offset=".61696" stop-color="#cfd16b" stop-opacity="0"/>
      <stop offset="1" stop-color="#cfd16b" stop-opacity="0"/>
    </linearGradient>
    <linearGradient id="linear-gradient-12" x1="149.44991" y1="259.71206" x2="165.45998" y2="287.44233" gradientUnits="userSpaceOnUse">
      <stop offset="0" stop-color="#cfd16b"/>
      <stop offset=".40431" stop-color="#cfd16b"/>
      <stop offset=".87688" stop-color="#cfd16b" stop-opacity="0"/>
      <stop offset="1" stop-color="#cfd16b" stop-opacity="0"/>
    </linearGradient>
    <linearGradient id="linear-gradient-13" x1="172.97423" y1="335.22245" x2="172.97423" y2="331.10155" gradientUnits="userSpaceOnUse">
      <stop offset="0" stop-color="#fff"/>
      <stop offset=".34875" stop-color="#fff"/>
      <stop offset=".90496" stop-color="#fff" stop-opacity="0"/>
      <stop offset="1" stop-color="#fff" stop-opacity="0"/>
    </linearGradient>
  </defs>
  <g id="CASE_2_Plants_LL_WH_CH" data-name="CASE 2 Plants LL WH CH">
    <g id="Day_28" data-name="Day 28">
      <g id="rectangle">
        <rect width="394" height="469" fill="none"/>
      </g>
      <g id="ROOTS_BACK" data-name="ROOTS BACK">
        <path d="m192.40752,342.7345c-.49152-.50189-.9975-.93512-1.50928-1.34485.39484-.04529.76855-.24213.995-.60571,1.59808-3.06256-7.32318-3.93744-9.06512-4.10211-.75446-.30304-1.53485-.57062-2.36609-.77917-1.93842-.33185-3.84467-.4303-5.58252-1.19189-.00122-.04584-.00336-.09314-.00452-.13892-.00068-2.13735-3.04715-2.58155-3.65942-.55243-1.87273,1.66858-4.41937,2.65698-6.90033,2.97797-.28973.06348-.56824.15027-.85095.22839-.67603.05585-1.19135.24908-1.63043.52667-1.09106.40875-2.14362.88898-3.16815,1.39996-1.18835.74646-6.23804,3.02979-4.48889,5.00507.5332.55579,1.42743.54517,1.95514-.01245.62549-.55554,1.35516-1.06378,2.13794-1.52954-.41234,1.3376-2.33016,4.00738-.34053,4.81822.71363.24227,1.48896-.14964,1.71858-.86692.09241-.25281.19293-.51599.29828-.78308.4668.51746,1.25452.61316,1.81647.17743.59943-.4278,1.28851-.78741,2.01819-1.09027-1.61847,1.48358-3.03076,3.15552-3.90948,5.29877-.57211,1.66839,1.88451,2.57715,2.53339.93335,1.40472-2.92169,4.34387-4.86505,7.04462-6.79504-.26154.50842-.50739.96002-.94397,1.33441-2.99834,2.4201-5.26568,5.70482-7.97382,8.37775-1.2608,1.16449.38116,3.10303,1.7384,2.05548,1.44941-1.23685,2.50756-2.5561,3.81903-3.92114-.22751.49697-.42259,1.07324-.15643,1.5033-.8761.72131-1.65564,1.57831-2.34454,2.4353-.09589.11053-.18262.20209-.23987.25647-.00409.00446-.00153.00122-.00458.00446-1.32654.50305-1.00464,2.70758.62079,2.59424.68821-.07143,1.20863-.55084,1.62762-1.04187-.42596,1.17224-.7674,2.3786-1.11896,3.66229-.39434,1.72429,2.1541,2.36444,2.61938.65485.32751-1.15192.75836-2.37415,1.23187-3.50726.58997-1.3244,1.13837-2.63654,2.0882-3.49225.15173-.11536.35339-.29681.54285-.48865.01422.55365.02393,1.10663.05371,1.66278-.85315,2.43738-3.17206,4.32104-3.56714,7.07056-.24158,1.71539,2.2843,2.17255,2.65607.4787.18469-.72797.57397-1.41974,1.03296-2.10565.03082,2.79279.1048,5.58295.6861,8.453.37585,1.70752,2.91345,1.22235,2.65503-.48834-.29553-1.79578-.35815-3.66187-.34747-5.56079.6933.7677,1.32733,1.48071,1.78253,2.22882.6476,1.1465,2.48076.68656,2.487-.62976.76593-.00739,1.53046-.65771,1.32874-1.7135-.03766-.51331-.07263-1.03418-.1098-1.55695.75867,1.07379,1.6557,1.72473,2.72308.67102.45361-.59167.34167-1.43909-.25-1.89276-1.00161-1.55942-1.89381-3.58011-3.10577-5.07623.53034.37494,1.36782.17222,1.71216-.4198.06989.26453.13617.5293.18323.7926.09705.72919.76709,1.25354,1.50385,1.16156,1.97778-.34192,1.08502-3.26514-.15631-5.71472,1.24756.50543,2.41986,1.10388,3.34821,2.07928,1.2063,1.30341,3.17218-.45764,2.01276-1.7995-.60547-.69067-1.28845-1.23682-2.01379-1.70001.72528-.28711,1.22845-1.16199.65442-2.0177-.6358-.77991-1.33856-1.44653-2.08148-2.04999.53179-.01355,1.06923-.39739,1.20349-.93677.62427.69257,1.17639,1.41119,1.59607,2.09833.79016,1.61945,3.2005.46307,2.43671-1.1629-.82953-1.67407-1.90186-2.82819-3.04639-3.99567-.89935-.84692-1.93353-1.77301-3.1001-2.47363,2.65759,1.1427,5.2641,2.73395,7.27393,4.51282,1.27583,1.19435,3.10572-.64692,1.90039-1.91559Zm-28.93634,13.57599c.08569-.03351.17706-.06104.2594-.05212-.09302.0097-.17743.02966-.2594.05212Zm13.74677-10.33649c.0578.02405.11505.05365.17285.07819.4823.34296.90076.83002,1.29883,1.36462-.89221-.67383-1.92029-1.27393-2.78363-1.90643.44897.18854.89343.34631,1.31195.46362Zm-12.78864-4.36578c-.63916.25055-2.03491.7207-3.16455,1.37122.57056-1.00153,1.23724-1.89374,1.99359-2.51068.53815-.16022,1.07172-.30603,1.58655-.41937,2.20221-.24817,4.41364-.82202,6.36279-1.87384.00427.11969.00787.24017.01215.35968-.20465.30029-.45453.55829-.73956.84235-.53186.48804-1.08923.95526-1.65747,1.41406-1.49121-.05695-3.45844.59113-4.39349.81659Zm5.76813,6.60693c.13843-.11066.27313-.22711.414-.33398.17273-.12604.32953-.26788.47504-.42047-.01129.20972-.01892.41925-.02942.62885-.74548,1.37585-1.13849,2.7041-1.87006,3.92828-.07599.01508-.15479.0224-.22961.04028.29968-1.35388.33099-2.70392,1.24005-3.84296Zm4.0307,10.76764c.02087-1.08325.0451-2.16925.06934-3.25946.21948.22723.44159.44409.66766.63483,1.4817,1.79911,1.70055,4.52962,1.96051,6.84778-1.15112-1.40033-2.45081-2.71478-2.69751-4.22314Zm2.91083-4.64508c-1.23804-1.20282-1.90448-2.2558-2.63568-3.77411.04279-.69574.09137-1.38983.15363-2.07996.17206.10022.34424.2005.51709.29755.70233,1.13226,1.55206,4.33069,2.69226,6.23029-.23047-.23309-.47357-.45715-.72729-.67377Zm5.73602-5.02191c.01367-.04236.02423-.08508.03357-.12866.14221.09744.28023.21177.40649.31519-.14612-.0639-.29315-.12469-.44006-.18652Zm-4.46771-6.1687c-1.25525-.49286-2.14539-.8833-2.96826-1.67114.78461.20239,1.60101.32196,2.41809.41693,1.11894.37425,2.43643,1.83423,3.44617,2.79407-.93866-.53912-1.90955-1.03906-2.896-1.53986Zm1.21967-4.22253c.09143.00928.1842.01752.27509.02728.03339.00909.06769.02179.10114.03107-.12268-.02087-.25055-.03912-.37622-.05835Z" fill="#4c4c4c"/>
      </g>
      <path d="m202.16203,273.96783c-.32953-.51697-2.00745-1.65344-3.99158-2.33014-2.26946-.70628-5.78226-.88078-7.81519.15344-.13457.04491-.27734.10375-.41302.1626-1.56359-.3784-2.58823.01402-3.46698.87585-.58894-.02696-1.04372-.10701-1.66144.29722-.58456.42872-.7101,1.41287-1.18517,2.02456-.50444.1868-1.47221.31274-1.87824.51573-.70517.23851-.85057,1.51412-1.07232,2.48079-.4496.64922-.7692.81245-1.10566,1.17107-.54502.56888-.72607,1.98744-.91208,3.10622-.25435.74689-1.19224,1.0809-1.26192,1.96715-.0638.67122.40617,1.13305.56652,1.74072-.38812.67737-.71021,1.37482-.6225,2.04114-.97809,2.01996-1.70795,4.05786-2.38263,6.1153-.60889,2.05872-1.19214,4.11505-1.72058,6.1781-.802-5.00867-2.05475-9.9267-4.11481-14.60455.12482-.56512-.0318-1.27667-.32117-2.56732-.0791-.3526.03308-.57751.2226-.91528.82282-1.12266-.3238-2.44905-.1712-3.74275.31197-1.87715.89182-5.74568.47628-5.99771-.16798-.41381-.63644-.83417-.91373-1.25246.04509-2.27871.22696-3.31049-2.17841-3.36115-.26485-.13803-.51618-.72152-.50385-1.12063.02624-.4922-.38957-1.16367-.80883-1.39017.00807-.20278.03744-.60217-.27038-1.026-.22937-.31042-.45484-.48321-.66254-.59259-.28195-.87157-.5149-2.11618-1.73993-2.17743-.36567-.01401-.62711.08369-.97272.11743l-.06116.00232c-.11304,0-.23535-.02332-.34448-.06329-.34161-.66614-.70681-1.44269-1.57684-1.54419-.24802-.03159-.66476-.04012-.8316-.14123-.57773-.56069-1.08078-1.47406-2.16144-1.42657l-.13147.01569c-.52747.07876-.86763.36187-1.30127.57416-1.71539-1.08966-3.25677-1.2561-4.03656-1.2561-1.13708,0-1.48755.31891-1.61951.43896-1.11486,1.01904-.62076,2.74334-.6139,4.13641-.10401.51767-.60407.7785-.52962,1.50343.03103.346.14944.59545.22702.73949-.00531.05121-.0177.13562-.04633.26367-1.11153,1.51603-.35938,2.25743,1.10492,3.44739-.01324.411-.13192.83328.32817,1.3592.30603.3199.82619.5224,1.22591.83221.01191.93205-.57465,1.97736.00066,2.82794.4819.77987,3.00681,1.48614,3.64784,2.23175.37298.71982.848,3.28949,1.33367,3.68982.32313.35285.71101.43988,1.35358.58405,1.72672.30266,4.14051,1.20489,4.12242,3.35794-.09566,1.07375.84269,1.65985,1.787,1.84146.35522.09839.84186.2331,1.0542.39551,1.2007.89095,1.11017.96442,2.1344,1.57397,3.12989,8.05841,4.03322,16.94493,4.43311,25.5611-1.33313-1.26459-3.00671-2.22821-5.01575-2.71399-4.13726-4.71763-10.62471-3.71294-13.70878-.68887-.87386.95047-.99825,1.8522-.94875,2.44125.24332,2.14359,2.12873,2.26431,3.21259,2.47052-.23532,2.11597.48414,4.38926,3.34348,4.4263,2.0809.00003,4.29819-1.5253,5.4346-2.43454,1.47848-1.20496,1.58567-1.95681,2.16986-2.97919,3.06921.86871,5.00629,3.34845,5.75275,6.10681.12512,5.03528.15106,10.09296.10571,15.0896.05536,2.44067,3.60614,2.48871,3.74731.07214.22052-4.3858.16638-8.94855.00586-13.46252,1.03394-4.09619,3.81146-7.98682,7.55219-8.40253.39844.32391.77148.67249,1.07153,1.2829,1.50067,3.0531,4.97546,4.44373,7.56891,4.44373,3.20141.10862,5.0665-2.45451,3.71033-4.65527,1.12658-.8016,1.21099-2.46553.37727-3.66418-2.4341-3.51701-9.1411-4.01057-13.15913-.62897-3.0069.33258-5.50323,2.07654-7.33661,4.51532.1142-3.77484.81281-7.69965,1.50806-11.34967.94836-4.4079,2.06567-9.05273,3.91138-13.15613.52185-.14679,1.05322-.33075,1.46851-.58063.45871-.24571,1.51191-.37282,1.98938-.49933,1.47397-.30738,2.37628-2.69652,3.89297-2.71266.56912.02007,1.17617.23687,1.69022-.08699.60503-.29538,1.23714-1.7769,1.76483-2.40664.67032.02004,1.5321.2644,2.08501-.22124.40131-.31471,1.0528-1.27125,1.42811-1.93867.38043-.12286.75159-.15081,1.06751-.3244.44037-.24268.58307-.64014.64404-.88202.58398-.12332,1.33773-.16989,1.63458-1.03284.11553-.25178.27412-.59545.35223-.83801.43981-.0349,1.27888-.07267,1.63538-.91369.10736-.26673.21527-.45459.33074-.58301.78307-.26217,1.80589-.22603,2.22474-1.19861.17639-.4267.12957-.9035-.1283-1.30817Z" fill="#2e541a"/>
      <g id="ROOTS">
        <path d="m191.50591,343.59998c-2.2428-2.07623-4.85004-3.79718-7.64587-5.08057,2.36354.14274,4.7771.43049,6.85351,1.64669.04639.02659.10639.01218.13508-.03372-2.14479-1.76082-5.59881-1.93556-8.30627-2.17792-.75928-.30396-1.52637-.586-2.30615-.82239-2.1084-.34668-4.25427-.47363-6.17145-1.4126-.15607-.08228-.30005-.18542-.4118-.28668-.00952-.28705-.02069-.57532-.02795-.86096-.00296-.83365-1.26329-.80425-1.24982.01068-2.14209,2.30463-5.44263,3.28558-8.47668,3.79602-.1026.03259-.20459.06921-.30713.1026-.02783-.00604-.05444-.01385-.08795-.0116-.43817.04193-.79022.20795-1.10095.4201-2.67822.96857-5.26196,2.26514-7.3183,4.25323-.09259.09692.06177.23016.14447.13812,1.77594-1.59973,3.97791-2.71234,6.2511-3.53418-.02234.02539-.0473.05121-.06934.07635-1.48151,1.85773-2.44653,4.0661-3.14752,6.31488-.03827.12427.15497.17914.19098.05914.92387-2.47247,2.06378-5.10718,4.12769-6.82483.48651-.15564.97333-.30371,1.45789-.43726,2.91675-.37628,6.01764-1.12506,8.35803-3.03528.0199.98987.04913,1.97534.08435,2.95459-.65599,1.28478-2.15671,2.2622-3.2688,3.21399-.01379-.00183-.02417-.00818-.03925-.00818-2.97363.06708-5.94446.95496-8.30865,2.76215-.10162.08057.02582.23578.12378.15704,2.15698-1.53101,4.90509-2.29803,7.53955-2.35913-2.88989,2.27203-6.06354,4.50732-7.48413,7.98145-.0459.12335.1474.18561.18756.06909,1.76801-3.83295,5.71851-5.97491,8.95129-8.45319.81726-.65039,1.65338-1.18951,2.34418-1.93561.02167.68463.03394,1.36884.04156,2.05188-1.25421.78705-1.77325,2.22693-2.49274,3.38904-.80841,1.13733-2.07605,1.85663-2.97369,2.92877-1.9809,2.00879-3.69763,4.31567-5.70801,6.26801-.11572.08118.02081.2442.12079.15948,2.11206-1.92053,3.86078-4.13751,5.91962-6.09698.26398-.29395.55682-.55859.85889-.8136-.26508.55835-.46118,1.14752-.55804,1.75189-.21344,1.07672-.12048,2.21442-.66418,3.12384-.06848.10938.09656.21606.16699.10999.61737-.94781.5647-2.11877.81598-3.17041.19641-.97583.63544-1.86987,1.24127-2.6413.47095-.38678.92822-.7854,1.29901-1.26642.68488-.99341,1.18726-2.08356,1.98444-2.73828-.00018.03522.00134.07037.0011.10559-.05475,1.69122-.20752,3.37885-.31506,5.06836-.55469.98987-.95807,2.01581-1.41602,3.00098-.25092.66736-.57104,1.18634-.94293,1.66235-2.31683.22906-3.99353,2.05811-5.38739,3.76056-.2038.23212-.44861.50128-.68011.56787-.15424.01111-.13245.23035.01733.19922.40039-.11725.58264-.40002.81653-.62787,1.30811-1.52148,2.84698-3.17126,4.89508-3.5036-.29285.33606-.60217.66748-.93994,1.02899-1.50525,2.19897-2.26141,4.7356-2.94208,7.2713-.03168.12842.16565.16968.19403.04858.9256-3.065,2.01898-6.2923,4.49536-8.42139.74261-1.00745,1.25092-2.17822,1.80237-3.30121-.07126,2.12106.11148,4.2467.1004,6.36719-.71338,2.51617-3.14996,4.42719-3.60291,7.10919-.01867.12674.17622.16091.19727.0329.50537-2.21973,2.32709-3.79163,3.41888-5.74182.03241,4.04993.05548,8.08905.75366,12.09485.02344.12958.22162.08044.19647-.03754-.51031-3.08533-.37851-6.22656-.29919-9.35126.98364,1.92517,2.97101,3.31256,4.04883,5.18036.06512.11127.23517.00897.17334-.09967-1.18341-2.30579-3.82635-4.01257-4.1889-6.64325.04578-2.3324.08789-4.67041.19214-7.0036.87115,1.94386,2.83578,3.04866,3.70618,4.95331,1.03979,2.33398,1.15979,4.90125,1.44409,7.43097.01495.12848.20911.09937.19653-.02185-.24921-2.64856-.24396-5.61835-1.50317-8.04242,1.70251,1.78943,2.64514,4.15961,4.19281,6.07812.09491.08844.22821-.06329.13403-.14691-1.7478-2.31061-2.71869-5.26373-5.09845-7.14935-.00183-.00232-.00299-.00494-.00482-.00726-1.34247-1.27057-2.23187-2.74316-3.0011-4.40808.05573-.95978.11902-1.91882.21179-2.87421.09003-.55334.1618-1.10919.21863-1.66681.71692.64362,1.5329,1.11243,2.35461,1.57446,1.4649,2.2027,1.80927,5.4574,3.6098,7.39893.04675-.02942.06085-.09113.03149-.13788-.71906-1.16388-1.26666-2.42102-1.71588-3.71484-.38165-1.02753-.66901-2.10144-1.17639-3.11517.2644.15637.52667.31683.78113.492,2.34473,1.90387,4.03052,4.76312,4.56683,7.74194.01941.12994.21259.09851.19849-.02545-.37122-2.5473-1.54156-4.99725-3.25726-6.93622,2.72699,1.04814,5.41732,1.88091,7.58728,3.82141-1.8017-2.63354-5.6947-3.08954-8.32446-4.69678-.04468-.03326-.09839-.03796-.14996-.03473-.10339-.09601-.20001-.19971-.30646-.29211-1.35052-1.02899-3.08881-1.79712-4.1203-3.10553.05627-.79999.09332-1.60187.10333-2.40558.64978.57983,1.39038,1.07727,2.18829,1.39655.68573.25232,1.37579.52417,2.06171.81281,1.40582.99097,2.19135,2.7735,3.41559,3.99481.09159.09298.23553-.05411.13922-.14355-.94086-1.01007-1.5929-2.34894-2.52466-3.39606,2.18317,1.00354,4.26288,2.25531,5.89038,3.98053.07324.11615.24194-.00458.16675-.11072-1.91809-2.28833-4.63025-3.72437-7.26093-5.05017-1.59973-.59198-3.03918-1.35974-4.0769-2.72864-.00635-.71014-.02087-1.41998-.04407-2.12866.41675.26025.8457.46265,1.06525.55017.99573.3623,2.02484.52899,3.06055.65216,2.48236.68549,3.97467,3.33307,6.09296,4.72424.1021.07445.22214-.08448.11864-.16102-1.70691-1.28687-2.92496-3.15254-4.68773-4.3944.36597.04059.73138.0835,1.0946.13763,3.14349.89026,5.82947,3.54578,7.52521,6.2804.05713.12122.23468.02747.18066-.0863-1.64813-2.89258-4.35284-5.75122-7.60907-6.75702-2.25726-.5163-5.31458-.48065-6.89038-2.28937-.01996-.50714-.03979-1.01257-.05951-1.51703.39758.17328.83282.28577,1.2514.42615,1.68823.44946,3.49146.53149,5.18365.71484,4.0683,1.10742,8.05377,3.23889,11.23364,6.0163.09613.0946.22864-.04858.14441-.13867Z" fill="#fff"/>
      </g>
      <path d="m188.82137,307.22336c-1.24028.00003-5.44565.21685-7.48776,3.00613,0,0-.57516.78561-.57516.78561l.62094.74997c.72756.84932,1.57896,1.09454,2.12247,2.22489,1.92672,3.82154,7.44679,5.70291,10.57589,3.5569,1.71868-1.40945,1.11655-2.99035.70334-3.76846,1.12748-.80126,1.21037-2.46581.37728-3.66421-1.12625-1.75303-3.93371-2.98133-6.337-2.89084h0Z" fill="url(#linear-gradient)"/>
      <path d="m158.47821,306.85178c-3.07125.01153-7.50388,1.8505-7.37234,4.96866.24318,2.14377,2.12903,2.26424,3.21269,2.47052-.23507,2.11541.48359,4.38923,3.34348,4.4263,2.08095.00003,4.2982-1.5253,5.43464-2.43451,1.19354-.9549,1.59833-1.8241,1.89389-2.45877.25562-.54892.38393-.82446,1.02165-1.19534l1.25267-.72852-.90448-1.13223c-3.22348-3.97299-6.19749-3.89134-7.8822-3.91611h0Z" fill="url(#linear-gradient-2)"/>
      <path d="m194.27701,271.10101c-1.23441-.08673-3.14156.18343-3.92168.69012-.13456.04486-.27738.10377-.4131.1626-1.56359-.37837-2.58826.014-3.46696.87585-.58708-.02686-1.04335-.10738-1.66146.29725-.58453.4287-.71007,1.41285-1.18517,2.02453-.5043.1868-1.47201.31272-1.87802.51564-.7054.23864-.85078,1.51406-1.07251,2.48091-.44958.64917-.76928.81252-1.10581,1.17117-.54485.56868-.7259,1.98738-.91192,3.10607-.25438.74689-1.19224,1.08094-1.26191,1.96718-.06381.67119.40608,1.13307.56649,1.74069-.57277.99969-1.0247,2.04483-.18326,2.96555l.16667.32086c.26133.10455.67009.26797.93021.37201.88953-.19972,1.92459-.4289,2.672-.87732.45835-.24554,1.51203-.37288,1.98928-.49927,1.47459-.30762,2.376-2.69637,3.8931-2.71275.5692.02002,1.17589.2369,1.68998-.08687.60545-.29545,1.23711-1.77673,1.76503-2.40671.6704.02002,1.53204.26439,2.08501-.22127.40137-.31474,1.05283-1.27125,1.42811-1.93867.38053-.12285.75161-.15083,1.06766-.32443.44023-.24259.58296-.64005.64395-.88196.58391-.12347,1.33781-.16992,1.6346-1.03299.11552-.25172.2741-.59544.35217-.83789.43984-.03498,1.27886-.07264,1.63543-.91369.1074-.26682.21525-.45463.33073-.58304.78309-.26205,1.80586-.22604,2.22474-1.19858.17636-.42667.12959-.90347-.12833-1.30817-.96103-1.39518-5.4258-3.16708-7.88501-2.86682h0Z" fill="url(#linear-gradient-3)"/>
      <path d="m150.83575,257.99774c-2.99665-.00825-2.27533,2.60578-2.23341,4.57539-.1042.51771-.60399.77846-.52963,1.50342.03106.346.14944.59548.22702.73949-.00529.05121-.01767.13565-.04633.26361-1.11153,1.51614-.35934,2.2575,1.10493,3.44748-.01322.41097-.13193.83325.32817,1.35917.30604.31991.8262.52241,1.22591.83221.01187.93206-.57466,1.97737.00063,2.82797.48193.77981,3.00682,1.48618,3.64784,2.23172.37299.71972.84804,3.28944,1.33361,3.68979.32322.35291.71108.43991,1.35365.58411,1.72756.30302,4.14016,1.20459,4.12244,3.35794-.09527,1.07425.84237,1.65953,1.78698,1.84143.35527.09842.8419.23309,1.05423.39554,1.25043.94045,1.26727,1.08536,2.39606,1.72992.34856.0489.92026.12917,1.2733.17874.13578-.14092.49291-.56507.62393-.68299.89861-.89889.77141-1.46618.29818-3.57696-.15078-.6066.40633-1.00296.51502-1.61362.1333-.93762-.59486-2.00342-.46357-3.04438.31167-1.87459.8918-5.74757.47627-5.99771-.16809-.41395-.63639-.83408-.91376-1.25246.04513-2.27874.22696-3.31047-2.17841-3.36118-.26484-.13801-.51617-.72155-.50386-1.1206.02629-.4922-.38959-1.16368-.8088-1.39017.00803-.20282.03741-.60213-.27037-1.02594-.22939-.31045-.4549-.48328-.66254-.59268-.28207-.87154-.51486-2.11626-1.73994-2.1774-.36571-.01402-.62712.08367-.97275.11743l-.06116.00229c-.11301,0-.23537-.02328-.34448-.06329-.34162-.66612-.70684-1.44267-1.57684-1.54416-.24802-.03162-.66479-.04012-.83157-.14126-.57781-.56066-1.08079-1.47407-2.16147-1.42659l-.1315.01573c-.52742.07874-.86765.36183-1.30121.57416-1.71547-1.08986-3.25674-1.25613-4.03656-1.25613h0Z" fill="url(#linear-gradient-4)"/>
      <path d="m201.1079,274.63965c-.07764-.12183-1.36755-1.14581-3.34094-1.81885-1.70341-.60624-5.4319-.76547-6.98572.14646-.26434.07955-.55029.26015-.84283.26015-.34953-.07205-.93492-.17854-1.34784-.16317-.66764-.01017-1.33039.79965-1.61591.97225-.28055.12117-.68643.00463-1.01049.01864-.17359-.00002-.32691.0192-.42072.08665-.09772.07025-.69336,1.82642-1.29236,2.10492-.52954.24622-1.77057.45166-1.93481.53503-.13513.0686-.39142,1.74579-.51007,1.92828-.58417.89825-1.1897,1.31018-1.2796,1.41644-.35883.42401-.47876,1.67963-.63757,2.52856-.17017.90948-1.23071,1.67712-1.24524,1.84503-.02167.25037.8999,1.40369.45715,2.16534-.75366,1.29663-.54773,1.4292-.35938,1.62994-3.07344,6.17513-4.63421,12.98939-5.76624,19.75543-.66327-7.65027-2.0965-15.16412-5.15723-22.27924.19489-.27435.12494-.59888-.23456-2.20239-.25592-1.14142.44263-1.80768.51007-2.13745.04523-.22113-.61481-1.69696-.48169-2.92834.12421-1.14935.84406-4.70886.56415-5.38556-.07013-.16956-.68213-.77588-.95746-1.29828-.13611-.25824.04828-2.26764-.09137-2.40546-.16968-.16742-.77527-.01508-1.35315-.22467-.21228-.07703-.67902-.39502-1.01416-1.04413-.28619-.55432-.24976-1.28589-.31433-1.38293-.18683-.28082-.56091-.33301-.64203-.55548-.23151-.6347-.05994-.84827-.15308-.97437-.28094-.38025-.37543-.17444-.63068-.46997-.26764-.30981-.47083-1.77356-.80298-1.79297-.6294.11802-1.65606.22035-2.22136-.24815-.16029-.10866-.56135-1.21572-.84004-1.24776-.38086-.04376-.91669-.04688-1.35913-.32788-.54081-.33669-.97063-1.274-1.44524-1.22871-.44569.08104-1.35298.96332-2.0055.48527-1.74695-1.07712-3.06403-1.33754-4.28808-1.04117-.55316.50354-.22602,1.82355-.20526,3.19305.01147.75574-.54852,1.25507-.53455,1.41052.03711.41309.40283.33209.1438,1.43915-.08875.37933-.49316.73743-.49084,1.02704.00128.16699,1.05573.97827,1.45245,1.38367.32721.33447.11163,1.14935.17163,1.21277.1499.15857,1.45068.74719,1.5354,1.27136.16449,1.01746-.36823,2.27148-.18146,2.54779.22784.3371,3.23236,1.36255,3.71082,2.34009.47839.9776.92157,3.1803,1.15686,3.43713.23523.25684,3.84143.44354,5.14319,2.63367.87103,1.46545.58923,2.17535.68744,2.41718.13489.33203,1.55981.39478,2.32434.97961,1.7887,1.36829,1.19818,1.00623,2.06,1.5199l.24091.03381c3.75532,9.73206,4.75991,20.28351,4.92712,30.63257-1.4259-2.85376-4.02856-5.02203-7.16357-5.70239-2.70677-3.1069-5.15927-3.02201-6.55755-3.03632-2.77948,0-6.2829,1.75428-6.12659,3.61402.13867,1.6499,2.63416.99902,3.08063,1.75781.42615.72412-.40179,2.70441.85193,3.58563,1.91883,1.26195,4.69981-.72665,6.03162-1.75252,1.78783-1.43034,1.30621-2.437,2.58538-3.43175,3.53162.77582,6.33435,3.59192,7.33044,7.10779.05792,5.17719-.00043,10.36121.14337,15.51721.00739.82751,1.24512.79694,1.25,0-.05695-4.35803-.02875-8.77484-.07983-13.1991,1.07855-4.89941,4.51825-9.68469,9.25525-9.90137.54901.44623,1.28406.94196,1.8233,2.03906,1.26581,2.57538,4.23193,3.74506,6.44708,3.74506.93176,0,1.73083-.20703,2.21436-.60352,1.70068-1.39447-.2926-2.70435.05615-3.13983.42676-.53278.93884-.76569,1.05505-1.11334.54694-1.63654-2.01874-3.58057-4.67255-3.81561-2.31623-.16355-5.33195.25974-7.09375,2.13837-4.33063.2337-7.54773,3.81451-9.12463,8.09808-.00586-.29456-.01385-.58893-.02081-.88348-.1996-5.15641.45966-10.40694,1.4538-15.49072.97882-4.7638,2.20734-9.56226,4.32312-13.95423.5556-.13361,1.21887-.32013,1.64453-.57623.62183-.37421,2.00745-.54944,2.2912-.63037.68909-.19641,1.27161-1.11121,2.24768-1.97266,1.06136-.98189,2.08163-.77065,3.05788-.70998.52965-.38424,1.2169-2.74006,2.44068-2.5728.49737-.02135.90784.17312,1.2581.0465.20098-.15764.8844-1.10185,1.23126-1.79448.17865-.35681,1.28516-.49872,1.43262-.57996.05896-.03247.07574-.66174.39502-.83081.38708-.20483,1.25714-.24646,1.2948-.3656.06525-.20673.39557-.80615.41211-1.09662.04822-.8476,1.49329-.46747,1.61182-.755.04456-.10822.24811-.65619.67108-1.0603.505-.48242,2.16284-.40247,1.8576-.88135Z" fill="#95c172"/>
      <path d="m182.34219,310.9679c1.62166-2.215,5.3183-2.63937,7.38162-2.4566,2.65376.23508,5.21944,2.17911,4.6725,3.81561-.1162.34769-.62828.58059-1.05501,1.11338-.34876.43543,1.64452,1.74531-.05616,3.13984-1.63301,1.33903-6.8632.51701-8.66146-3.14157-.71191-1.44839-1.76658-1.84877-2.28149-2.47066Z" fill="url(#linear-gradient-5)"/>
      <path d="m165.38379,311.5481c-2.80284-3.50851-5.45619-3.43625-6.85924-3.44617-2.78665-.01968-6.33011,1.74386-6.17296,3.61385.13866,1.64992,2.63415.99905,3.08066,1.75779.42615.72416-.4018,2.70445.8519,3.58565,1.78233,1.25276,4.69134-.68025,6.03163-1.75254,1.98354-1.58689,1.16584-2.65232,3.068-3.75859Z" fill="url(#linear-gradient-6)"/>
      <path d="m201.10791,274.63968c.30521.47888-1.3526.39887-1.85762.88134-.42299.4041-.6265.95208-.6711,1.06029-.11852.28754-1.56357-.09259-1.6118.75502-.01653.29044-.34683.88986-.4121,1.09658-.03763.11917-.90772.16076-1.29478.36565-.31928.16901-.33607.7983-.39504.8308-.14744.08124-1.25397.22315-1.43265.57996-.34682.69259-1.03027,1.6368-1.23123,1.79441-.24515.19226-1.55641-.35513-2.13036.24154s-1.3353,2.15143-1.56842,2.2847-1.59928-.57731-3.0579.71008c-.97603.86145-1.55857,1.77629-2.24767,1.97271-.28375.08088-1.66935.25616-2.29116.63033-.4983.29985-1.3324.50899-1.92458.64328l-.13788-.05513c-.17175-.33062-.64519-.21311.25733-1.76581.44273-.76168-.47883-1.91496-.45715-2.16536.01454-.16788,1.07509-.93554,1.24523-1.84505.15881-.84894.27874-2.10452.63756-2.52854.08991-.10625.69546-.51817,1.27961-1.41645.11867-.18248.37493-1.85969.51009-1.92829.16423-.08336,1.4053-.28877,1.93483-.53499.59901-.27853,1.19464-2.03469,1.29233-2.10491.29453-.21172,1.17458.05128,1.43119-.10533.26907-.16422.85779-.87387,1.49037-.9669.14669-.02157.98798.02253,1.25276.11952.36877.13508.73295-.12238,1.06347-.22183,1.58205-.95529,5.62413-.68868,6.98566-.14644,1.97344.67298,3.26335,1.69699,3.341,1.81884Z" fill="url(#linear-gradient-7)"/>
      <path d="m150.05749,259.36127c-.55317.5034-.22601,1.82342-.20526,3.19294.01145.75574-.54853,1.25509-.53456,1.41054.03712.41306.40285.33206.14381,1.43912-.08876.37934-.49318.73742-.49088,1.02705.00133.16698,1.05573.97824,1.45246,1.38367.32726.33444.11166,1.14937.17162,1.21278.14993.15855,1.45068.74719,1.53543,1.27136.16449,1.01745-.3682,2.27144-.18143,2.54778.22783.3371,3.23235,1.36256,3.71077,2.34011s.92161,3.18024,1.15686,3.4371,3.84148.44357,5.14322,2.63366c.87105,1.46549.58924,2.17536.68747,2.4172.13485.33203,1.55977.39474,2.32429.97958,1.78871,1.36832,1.19818,1.00624,2.06001,1.51993l.36354.05103c.62283-.69532.71041-.32903.1887-2.65592-.25592-1.14145.44267-1.80773.51011-2.1375.04521-.2211-.61484-1.69692-.48173-2.9283.12424-1.14936.84411-4.70889.56417-5.38558-.07015-.16956-.68212-.77587-.95748-1.29829-.13611-.25823.04828-2.26765-.09137-2.40545-.16968-.16743-.77525-.01508-1.35311-.2247-.21232-.07702-.679-.39499-1.01414-1.04411-.2862-.55433-.2498-1.28586-.31438-1.38293-.18682-.28083-.56087-.33299-.64201-.55546-.23151-.63474-.05992-.84825-.15311-.97438-.28094-.38024-.37541-.17447-.63064-.46996-.26763-.30985-.47085-1.7736-.80297-1.79296-.61803.11593-1.66146.22107-2.22137-.24815-.16031-.10868-.56135-1.21574-.84007-1.24777-.38081-.04376-.91665-.04691-1.3591-.32791-.53652-.34074-1.00058-1.29251-1.44529-1.2287s-1.28858.96302-2.00548.48534c-2.19845-1.46487-4.14732-1.1692-4.28806-1.04112Z" fill="url(#linear-gradient-8)"/>
      <g id="leaf_1_right_hi" data-name="leaf 1 right hi">
        <path d="m182.3422,310.9679c3.17202-.66484,5.76581-.23621,7.35955.13153,2.96096.68321,4.06628,1.80807,3.63955,2.34086-.34876.43543,1.64452,1.74531-.05616,3.13984-1.63301,1.33903-6.8632.51701-8.66146-3.14157-.71191-1.44839-1.76658-1.84877-2.28148-2.47066Z" fill="#a6d67c"/>
      </g>
      <g id="leaf_1_left_hi" data-name="leaf 1 left hi">
        <path d="m165.38379,311.54808c-2.2232-.38513-3.91296-.32145-5.80448.14003-2.03059.49541-4.59356,1.02671-4.14706,1.78546.42615.72416-.4018,2.70445.8519,3.58565,1.78233,1.25276,4.69134-.68025,6.03163-1.75254,1.98354-1.58689,1.16584-2.65232,3.068-3.7586Z" fill="#a6d67c"/>
      </g>
      <g id="leaf_2_right_hi" data-name="leaf 2 right hi">
        <path d="m201.10791,274.63968c.30521.47888-1.3526.39887-1.85762.88134-.42299.4041-.6265.95208-.6711,1.06029-.11852.28754-1.56357-.09259-1.6118.75502-.01653.29044-.34683.88986-.4121,1.09658-.03763.11917-.90772.16076-1.29478.36565-.31928.16901-.33607.7983-.39504.8308-.14744.08124-1.25397.22315-1.43265.57996-.34682.69259-1.03027,1.6368-1.23123,1.79441-.24515.19226-1.55641-.35513-2.13036.24154s-1.3353,2.15143-1.56842,2.2847-1.59928-.57731-3.0579.71008c-.97603.86145-1.55857,1.77629-2.24767,1.97271-.28375.08088-1.58839.37604-2.29116.63033-1.64424.59495-1.82304.56423-1.82304.56423,1.95839-4.15586,6.49188-8.0036,7.46022-8.90888,6.77722-6.3359,14.487-4.98058,14.56466-4.85874Z" fill="#a6d67c"/>
      </g>
      <g id="leaf_2_left_hi" data-name="leaf 2 left hi">
        <path d="m150.05749,259.36127c-.55317.5034-.22601,1.82342-.20526,3.19294.01145.75574-.54853,1.25509-.53456,1.41054.03712.41306.40285.33206.14381,1.43912-.08876.37934-.49318.73742-.49088,1.02705.00133.16698,1.05573.97824,1.45246,1.38367.32726.33444.11166,1.14937.17162,1.21278.14993.15855,1.45068.74719,1.53543,1.27136.16449,1.01745-.3682,2.27144-.18143,2.54778.22783.3371,3.23235,1.36256,3.71077,2.34011s.92161,3.18024,1.15686,3.4371,3.84148.44357,5.14322,2.63366c.87105,1.46549.58924,2.17536.68747,2.4172.13485.33203,1.55977.39474,2.32429.97958,1.78871,1.36832,2.46779,1.64554,2.46779,1.64554-1.57628-6.54419-3.29001-11.77917-8.21211-16.5038-4.56733-4.38409-6.17121-7.28038-9.16947-10.43464Z" fill="#a6d67c"/>
      </g>
      <g id="leaf_1_right_hi_yellow" data-name="leaf 1 right hi yellow">
        <path d="m182.3422,310.9679c3.17202-.66484,5.76581-.23621,7.35955.13153,2.96096.68321,4.06628,1.80807,3.63955,2.34086-.34876.43543,1.64452,1.74531-.05616,3.13984-1.63301,1.33903-6.8632.51701-8.66146-3.14157-.71191-1.44839-1.76658-1.84877-2.28148-2.47066Z" fill="url(#linear-gradient-9)"/>
      </g>
      <g id="leaf_1_left_hi_yellow" data-name="leaf 1 left hi yellow">
        <path d="m165.38379,311.54808c-2.2232-.38513-3.91296-.32145-5.80448.14003-2.03059.49541-4.59356,1.02671-4.14706,1.78546.42615.72416-.4018,2.70445.8519,3.58565,1.78233,1.25276,4.69134-.68025,6.03163-1.75254,1.98354-1.58689,1.16584-2.65232,3.068-3.7586Z" fill="url(#linear-gradient-10)"/>
      </g>
      <g id="leaf_2_right_hi_yellow" data-name="leaf 2 right hi yellow">
        <path d="m201.10791,274.63968c.30521.47888-1.3526.39887-1.85762.88134-.42299.4041-.6265.95208-.6711,1.06029-.11852.28754-1.56357-.09259-1.6118.75502-.01653.29044-.34683.88986-.4121,1.09658-.03763.11917-.90772.16076-1.29478.36565-.31928.16901-.33607.7983-.39504.8308-.14744.08124-1.25397.22315-1.43265.57996-.34682.69259-1.03027,1.6368-1.23123,1.79441-.24515.19226-1.55641-.35513-2.13036.24154s-1.3353,2.15143-1.56842,2.2847-1.59928-.57731-3.0579.71008c-.97603.86145-1.55857,1.77629-2.24767,1.97271-.28375.08088-1.58839.37604-2.29116.63033-1.64424.59495-1.82304.56423-1.82304.56423,1.95839-4.15586,6.49188-8.0036,7.46022-8.90888,6.77722-6.3359,14.487-4.98058,14.56466-4.85874Z" fill="url(#linear-gradient-11)"/>
      </g>
      <g id="leaf_2_left_hi_yellow" data-name="leaf 2 left hi yellow">
        <path d="m150.05749,259.36127c-.55317.5034-.22601,1.82342-.20526,3.19294.01145.75574-.54853,1.25509-.53456,1.41054.03712.41306.40285.33206.14381,1.43912-.08876.37934-.49318.73742-.49088,1.02705.00133.16698,1.05573.97824,1.45246,1.38367.32726.33444.11166,1.14937.17162,1.21278.14993.15855,1.45068.74719,1.53543,1.27136.16449,1.01745-.3682,2.27144-.18143,2.54778.22783.3371,3.23235,1.36256,3.71077,2.34011s.92161,3.18024,1.15686,3.4371,3.84148.44357,5.14322,2.63366c.87105,1.46549.58924,2.17536.68747,2.4172.13485.33203,1.55977.39474,2.32429.97958,1.78871,1.36832,2.46779,1.64554,2.46779,1.64554-1.57628-6.54419-3.29001-11.77917-8.21211-16.5038-4.56733-4.38409-6.17121-7.28038-9.16947-10.43464Z" fill="url(#linear-gradient-12)"/>
      </g>
      <path id="root_main_fade" data-name="root main fade" d="m172.375,334.57266l-.06392-2.81293c-.02097-.86588,1.29711-.9048,1.32545-.03759.00606.01755-.01551,2.82909-.01152,2.84886-.00641.81275-1.24189.8142-1.25001.00165Z" fill="url(#linear-gradient-13)"/>
    </g>
  </g>
</svg>