<?xml version="1.0" encoding="UTF-8"?>
<svg id="Layer_2" data-name="Layer 2" xmlns="http://www.w3.org/2000/svg" xmlns:xlink="http://www.w3.org/1999/xlink" viewBox="0 0 394 469">
  <defs>
    <linearGradient id="linear-gradient" x1="173.0422" y1="335.22273" x2="173.0422" y2="331.12504" gradientUnits="userSpaceOnUse">
      <stop offset="0" stop-color="#fff"/>
      <stop offset=".34875" stop-color="#fff"/>
      <stop offset=".90496" stop-color="#fff" stop-opacity="0"/>
      <stop offset="1" stop-color="#fff" stop-opacity="0"/>
    </linearGradient>
  </defs>
  <g id="CASE_2_Plants_LL_WH_CH" data-name="CASE 2 Plants LL WH CH">
    <g id="Day_20" data-name="Day 20">
      <g id="rectangle">
        <rect width="394" height="469" fill="none"/>
      </g>
      <g id="ROOTS_BACK" data-name="ROOTS BACK">
        <path d="m191.02422,341.46893c-.37299-.3642-.75708-.70612-1.14935-1.03174.70866-.54603.59564-1.70152-.16321-2.15186-1.93304-1.42102-4.69104-1.61981-7.01282-1.75073-.01093-.00134-.02026.00031-.03113-.00079-.54211-.18475-1.0896-.36011-1.64703-.51843-2.02917-.44232-4.2746-.46143-6.14734-1.31238,0-.04395.00183-.08716.00165-.13116-.05573-2.23767-3.0351-2.44904-3.63831-.61456-1.66626,1.61371-4.31378,2.66132-6.591,2.98413-3.38171.5611-6.58044,1.53363-9.10687,4.06604-.4928.52362-.49146,1.34967.01544,1.8692,1.18987,1.14125,2.14763-.35456,3.17194-.92242-1.00269,1.60297-1.93134,3.66412-.31335,4.28821.71667.24493,1.49652-.15222,1.72302-.87427.7218-1.9646,2.43542-4.41418,4.40918-5.28174,2.23804-.25334,4.43966-.76384,6.38995-1.77643-.01068.19275-.02106.38562-.03082.57886-.08551.08002-.17657.16229-.27679.24896-.57104.43329-1.17224.84436-1.78412,1.24945-.01019-.00073-.01849-.00378-.02881-.00433-2.24622-.27557-5.24475.5437-6.9577,2.16309-1.09796.92078-.21198,2.46484.92542,2.40009-.89678,1.10875-3.40614,3.81811-1.22602,4.87817.70429.25861,1.48554-.10834,1.73676-.81494.88599-2.3421,3.3598-4.09668,5.68872-5.64301.23871-.03076.44336-.11096.61517-.22565-.42389.74603-.76862,1.54388-1.23468,2.02179-1.43231,1.14227-2.82001,2.42725-3.98572,3.86835-.75037,1.10846-3.49091,3.98785-1.383,5.11328.68201.30042,1.47839-.00891,1.77875-.69086.33508-.70471.78406-1.37256,1.2937-2.01062.05115.47333.34045.90765.81061,1.10425.03833.0127.07111.01593.10809.02625-.59875.29156-1.185.62054-1.71582,1.05707-1.15341.76925-2.13253,3.49422.18115,3.55933-.36564,1.11768-1.28925,3.01369.35436,3.54255.71638.2061,1.46424-.20759,1.67036-.92396.57477-2.00702,1.65515-4.3288,3.3197-5.49286.31049-.31567.57922-.67896.83044-1.06018.01514.44403.0199.88721.01385,1.32941-.67395,1.90814-3.31372,3.76892-3.49414,6.12262-.22601,1.7254,2.31879,2.15051,2.66321.44366.10809-.41724.30823-.81293.56061-1.19867-.10583,2.38586-.05151,4.78662.71997,7.2514.5838,1.65222,3.04993.85052,2.57245-.81775-.33099-1.10107-.45477-2.2536-.46619-3.43494,1.14935.92642,1.72715,3.26146,3.36792,2.43976.62732-.44348.75891-.97266.61218-1.54938.15436.01727.31342.01605.47809-.02924.72247-.1842,1.15881-.91919.97467-1.64166.01349.00018.0166.06805.01422.01843l-.00403-.15582c.00006-.19287-.00391-.39044-.00421-.58527.8924.28229,2.05981-.40735,1.75037-1.62836-.69611-2.09198-1.97052-3.83417-3.45245-5.40363-.05579-.07593-.09515-.16345-.15442-.23663-.07874-.07898-.14917-.15558-.22443-.23346,1.05963.52332,2.49438-.6604,1.73822-1.92664-.27002-.35785-.45667-.73499-.6131-1.11932.79669.9502,1.32916,2.0672,1.51868,3.35773.11554.70569.76611,1.2038,1.48456,1.12225,1.78979-.3443,1.20581-2.46057.54565-4.01697.52008.28308,1.00348.64532,1.42902,1.14679,1.21033,1.24463,3.11957-.48273,2.00092-1.81232-.58478-.6748-1.3089-1.24896-2.07922-1.71881.12921-.03662.25916-.07422.37732-.15228,1.41144-1.17126.06677-2.54437-1.17633-3.52826.56085-.06793,1.02051-.513,1.16168-1.04663,1.21052.98854,1.60891,3.57452,3.35834,2.82794,2.20123-1.17285-1.07556-4.45978-2.02637-5.57056-.50726-.53467-1.14398-1.07678-1.85608-1.54999,2.11163.81592,4.11108,2.00128,5.69824,3.41687,1.27307,1.19525,3.09821-.63501,1.91028-1.90643Zm-14.68774,3.84259c-.27832-.1767-.53705-.35663-.78296-.53729.59412.24719,1.19745.4812,1.79633.72125.38715.3161.69293.703.98553,1.14282-.66229-.48737-1.3429-.92969-1.9989-1.32678Zm5.19812,2.57214c.091.07928.17926.15729.25714.23492-.11017-.04016-.22028-.08069-.32935-.11816.02661-.03735.04944-.07697.0722-.11676Zm-6.07098-6.77502c.74658.18036,1.51086.2962,2.26038.38226.59961.18567.97314.54523,1.50916,1.1106.22522.25159.47687.52179.73975.79498-1.52759-.77753-3.17316-1.30774-4.50928-2.28784Zm-6.35065,8.03827c.07135-.32288.35669-.77997.72034-1.24719.50515-.3665,1.02633-.7863,1.36591-1.28052.01111.17236.02216.3446.03198.51874-.88434,1.45923-1.4201,3.32458-2.25452,4.57983-.12427.04907-.2467.09857-.37238.14813.4032-.80145.44507-2.02209.50867-2.71899Zm5.43658,8.92059c.09839-.90082.1908-1.80121.24506-2.69342.06836.06641.1344.13763.2041.20093,1.74805,1.48676,1.83362,4.02042,1.914,6.21851-1.08264-1.29889-2.41815-2.6369-2.36316-3.72601Zm.23138-8.19635c.01245-.60376.02838-1.20923.04022-1.81628.03894.02209.0777.04456.11664.06659.32837.62457.36102,1.30884.59381,2.12537.26422,1.03516.73364,2.00647,1.26654,2.87146-.81848-.97058-1.42322-1.95886-2.01721-3.24713Z" fill="#4c4c4c"/>
      </g>
      <path d="m195.94768,269.23486c-.38353-.45708-3.23829-1.3083-5.11793-1.26399-1.56424-.02315-5.4887.75852-6.85448,2.15736-.11844.07741-.24128.17036-.3573.26147-.47668.00671-1.34235.17999-1.63629.30518-.74493.3175-1.21179.99817-1.49567,1.42352-.4797.09144-1.09948.19324-1.53125.70923-.45654.56311-.32806,1.54683-.63214,2.25916-.44034.30879-1.34431.67635-1.68549.97576-.62161.41006-.43839,1.68051-.40722,2.67195-.26997.74204-.5377.9812-.77204,1.41351-.38263.68852-.1974,2.10666-.09316,3.23591-.05638.78699-.87853,1.34827-.72091,2.22308.10873.66558.68048.99279.99005,1.53986-.15112.56018-.26874,1.12341-.21539,1.63135-.88074,2.03705-1.49017,4.09406-2.02014,6.16028-.16443.70844-.31659,1.4173-.46863,2.12622-.70273-3.95317-1.51606-7.84358-3.35028-11.4837.15015-.61035-.06598-1.3125-.5105-2.7016-.11017-.34412-.01849-.57812.1402-.93146.71967-1.19143-.54059-2.41049-.50378-3.7126.14354-1.89746.37665-5.80234-.05966-6.01631-.2042-.39715-.70814-.77419-1.02164-1.16611-.16378-2.29393-.06327-3.30973-2.46918-3.15393-.27624-.11402-.57819-.67263-.60157-1.07114-.01765-.49262-.49155-1.12437-.92938-1.31271-.01008-.20263-.01631-.60308-.36065-.99774-.25611-.28882-.49616-.44086-.71271-.53137-.36392-.84959-.67461-2.00179-1.8479-2.01556-.57314-.00688-.91342.31374-1.44672.18103-.39958-.63312-.83252-1.37414-1.70807-1.39795-.25003-.00937-.66579.0193-.84107-.06665-.59482-.47261-1.0884-1.24-2.05134-1.24254-.64229-.01136-1.11818.42368-1.60308.7293-1.45905-.75366-2.74915-.91541-3.58734-.91541-.71295,0-1.6593.10498-2.11908.60522-1.01955,1.11417-.37394,2.78772-.24299,4.17462-.05764.52484-.53243.82927-.39363,1.54469.06173.34173.20187.5797.29196.71624-.00073.05145-.00555.13666-.02271.26672-.97222,1.60925-.15673,2.2804,1.40753,3.33533.02342.4105-.05723.8418.44798,1.32459.33313.29123.86948.44679,1.29506.71966.09481.9273-.39629,2.02073.25249,2.81671.54944.73376,3.12726,1.21252,3.83204,1.89801.43564.68361,1.13756,3.2008,1.65685,3.55633.3534.32275.74744.37488,1.40034.46124,1.74609.14748,4.23171.83153,4.40509,2.97757-.00006,1.07737.98744,1.57844,1.94391,1.67495.36262.06641.85926.15717,1.08521.30006,1.22662.75044,1.18047.84572,2.1662,1.32935,1.46698,3.22852,2.1062,6.96704,2.66333,10.48969.65106,4.96735,1.03479,9.94904,1.26752,14.94159-1.44684-1.62897-3.22131-2.80933-5.16766-3.20508-2.07836-3.89731-4.98829-4.41968-7.97125-4.57743-3.08203.0001-6.44531,1.38096-6.60791,3.9401-.06538,2.07437,1.53726,2.63915,2.56219,3.20123-.86653,2.44918,1.49849,4.46909,4.36489,4.39729,1.39115.00005,2.93504-.39589,4.02915-1.03322,1.74752-1.01737,1.855-1.819,2.73737-2.78912,2.80927.38727,5.40033,3.86829,6.29443,7.36084.10034,4.92914.09894,9.86774.08167,14.81458.06094,2.47431,3.68526,2.48073,3.75,0,.17126-4.38373.2063-8.96063.00098-13.45154.96985-4.19482,3.50165-9.56274,7.3092-10.005.52094.36761,1.07806.79987,1.58215,1.461,1.60156,2.10016,4.65509,3.56689,7.42554,3.56689,4.19434.13274,5.84278-3.88594,3.5451-6.34369,2.35356-3.1872-1.68962-6.73934-5.11978-6.54762-2.88253.13868-6.31353,1.64995-8.28513,4.70088-2.80176.48608-5.09155,2.49634-6.78625,5.22028.00061-3.38641.31305-6.84302.70374-10.15643.58539-4.30359,1.33569-8.84558,2.92133-12.87573,1.0863-.5295,1.85299-1.48314,2.98067-1.90335,1.3757-.52262,1.75193-1.93936,2.5272-3.08605.48737-.72649,1.0301-.78465,1.50886-.83592.31561-.03381.74774-.08014,1.10596-.43176.51042-.43939.74557-2.03457,1.09631-2.77728.68272-.18227,1.41509-.0517,1.9599-.74225.30816-.40625.69537-1.49695.88885-2.23786.33684-.21542.68865-.3368.95026-.58496.36413-.34644.40124-.76709.3988-1.01661.53338-.2676,1.25064-.50408,1.31866-1.41406.04764-.27291.11389-.64561.12775-.90002.41655-.14554,1.2185-.39512,1.34974-1.29913.03613-.28528.09271-.49433.17181-.64795.69084-.45234,1.68924-.67722,1.84735-1.72431.06225-.45746-.10407-.90674-.4563-1.23266Z" fill="#2e541a"/>
      <g id="ROOTS">
        <path d="m190.12248,342.33453c-1.80029-1.71857-3.96674-3.09949-6.29584-4.06055,1.81804-.04937,3.57501.27822,5.13694,1.25339.10878.06511.21405-.10522.10317-.17123-1.88489-1.37598-4.31146-1.41241-6.51495-1.5802-.013-.00195-.0224.00897-.0351.0094-.97363-.32788-1.96741-.58539-2.96912-.76178-1.87787-.27191-3.87695-.4754-5.56708-1.35339-.14551-.07971-.2724-.17834-.36731-.27356.00586-.27423.01245-.54816.01178-.82477-.00439-.82422-1.2467-.80786-1.24976,0-.00024.00354-.00037.00708-.00061.01062-1.92767,2.0274-4.84607,3.19257-7.59216,3.60144-3.01855.48871-6.15179,1.45605-8.34033,3.68762-.09137.09497.06165.22852.14447.13818,1.61377-1.51117,3.72388-2.35156,5.88666-2.82855-.04553.03729-.09473.07251-.1391.11017-1.67755,1.51263-2.90155,3.50525-3.58337,5.64819-.03851.12457.15533.18018.19098.05908.90976-2.38816,2.44211-4.89744,4.79095-6.05933,3.02374-.3199,6.14323-1.02849,8.55994-2.98291-.04968.86584-.09216,1.74121-.12421,2.62085-.60217,1.21484-2.2876,2.18539-3.48041,3.05109-2.16052-.20142-4.427.42474-6.05756,1.89941-.10034.08008.02509.23523.12384.15723,1.5282-1.23615,3.37701-1.74121,5.29626-1.61658-2.48779,1.71191-5.03363,3.55194-6.11829,6.4397-.04504.12195.14648.18542.18762.06909,1.48834-3.42621,5.04755-5.15369,8.03601-7.08899.65601-.45111,1.36139-.85559,1.97363-1.44586-.01184.68011-.01672,1.36102-.00446,2.04193-.99927.70361-1.51154,1.79248-2.00507,2.70349-.50403,1.12854-1.44147,1.69324-2.32172,2.48035-1.73914,1.60657-3.42603,3.38373-4.35101,5.59894-.04724.12292.14227.19073.1861.07312.98969-2.05829,2.60547-3.72479,4.36755-5.17981-.17841.33374-.32794.68433-.40497,1.0683-.13751.8515.04211,1.66125-.30255,2.46362-.04608.11963.13959.19037.1861.07312.37524-.76294.25629-1.68524.4101-2.4751.16632-.69659.59814-1.30829,1.05939-1.88464.18988-.14606.37952-.29321.57025-.43542,1.11963-.91064,1.62109-2.54285,2.64026-3.47003.04779,1.20312.13867,2.40204.30499,3.58484.01172.21625.02368.48547.03595.77502-1.10369,1.6927-1.55707,3.6624-2.68933,5.27478-1.64435.73053-3.90247,1.20416-4.55139,3.08496-.03345.12891.17242.17194.19525.04272.58307-1.56744,2.3775-2.06201,3.88904-2.62781-.03351.03027-.05878.0697-.09363.09851-1.78424,1.58014-2.5791,3.86761-3.1723,6.08759-.03101.12714.16504.16937.19397.04846.64697-2.0816,1.56378-4.35321,3.28619-5.73901,1.53058-1.32098,2.06586-3.26874,2.99622-4.94513.05927,1.45087.13513,3.10083.25616,3.97455.06946.63965.09668,1.28229.10028,1.92657-.55597,2.31335-3.19934,3.74683-3.53345,6.22632-.02063.12659.17688.15631.19727.0329.40967-2.04535,2.26233-3.20624,3.31042-4.90857-.14673,3.61426-.81055,7.26349.38989,10.77435.03973.12543.23157.05206.18994-.06274-.71869-2.40875-.56976-4.86298-.31372-7.32715.79022,1.84906,2.70374,3.11292,3.68811,4.85846.06488.11133.23523.00909.17334-.09961-1.05927-2.12183-3.56494-3.59357-3.71301-6.07941-.00012-.00494-.00476-.00598-.00513-.01074.19763-1.80292.38013-3.60791.2511-5.401-.01721-.36981-.02594-.7403-.02948-1.11121.35162.62396.73206,1.24115,1.17963,1.80682.65649.92865,1.66931,1.58014,2.24426,2.55334,1.19659,1.97784,1.12494,4.32703,1.28217,6.59045.01068.12726.20367.10608.19574-.01483-.06195-2.02325.02966-4.224-.79907-6.15051.98938,1.14178,1.84271,2.409,2.35968,3.81439.02832.13053.23205.07885.19385-.04944-.63568-1.83331-1.79999-3.42169-3.12378-4.82806-1.42973-1.58211-2.70835-3.15644-3.52264-5.16986.02704-1.47186.08783-2.94806.03925-4.42065.56482.47369,1.18188.85834,1.78937,1.21271.16437.08331.32532.17871.48846.26727.56879.80444.65094,1.80719.90057,2.75183.26404,1.02582.74762,1.97949,1.32166,2.85291.02997.04498.091.05865.13696.0296.04669-.02948.06061-.09125.03113-.13794-.54541-.87567-.99146-1.81311-1.22314-2.81183-.18091-.77869-.26562-1.62396-.59271-2.37018,2.47992,1.46417,4.65051,3.57642,5.01398,6.56641.01917.12848.21179.09827.1983-.02539-.18079-1.93994-1.12506-3.75098-2.49939-5.12207.77747.26685,1.57159.44141,2.31769.72192,1.18976.40741,2.27197,1.09271,3.12726,2.01886.08476.09523.23528-.03781.14899-.13312-1.6015-2.10535-4.48987-2.34045-6.61676-3.50513-1.49341-1.20776-3.42236-2.00781-4.60797-3.47302-.02588-.32123-.05493-.64227-.09698-.96277-.03729-.508-.05029-1.01434-.05444-1.52039.53448.47552,1.12585.8988,1.77136,1.19745.92499.37054,1.8869.7265,2.83502,1.11725,1.04747.72807,1.59261,1.89535,2.30829,2.93384.07042.10683.23926-.00319.16656-.11053-.50684-.84741-1.0379-1.7594-1.72253-2.49988,1.66882.74054,3.24701,1.64661,4.42542,3.05188.07257.1109.23718-.00562.16669-.11066-1.25995-1.72241-3.18524-2.75366-5.03503-3.72449-1.7865-.79352-3.69153-1.44379-4.90344-3.06903.01843-.64911.04889-1.29932.08649-1.9519,1.4019,1.00053,3.02324,1.17574,4.62476,1.36639,1.94519.58502,2.88507,3.03418,4.66815,3.76465.03363-.04382.02533-.10657-.01855-.1402-1.3497-.95812-2.1534-2.4673-3.4552-3.48901.49213.05676.97949.11847,1.4516.20709,2.55878.74365,4.65289,2.99158,5.92285,5.29712.05902.11652.23169.02698.1806-.08618-1.25964-2.49158-3.23132-4.81311-5.9657-5.74847-2.4549-.65894-5.62097-.44049-7.33508-2.4472.02118-.37018.03973-.742.05634-1.11536,1.86017.84949,3.91492.95416,5.90833,1.1377,2.32397.21173,4.53558,1.16644,6.62463,2.18182,1.39246.7168,2.74585,1.54913,3.86829,2.64185.09497.09369.22815-.04834.14441-.13873Z" fill="#fff"/>
      </g>
      <path d="m193.14604,272.67261c.01569-.11597.0733-.69769.37982-1.19598.36591-.59491,1.98969-.93854,1.57288-1.32422-.10608-.09814-1.61377-.76093-3.69336-.91064-.19452-.01404-.3855-.02094-.57556-.02094-1.26895-.06281-5.09073.75251-6.14389,1.93687-.27951.17098-.55215.48738-.9136.48738-.34745-.03708-1.13635.13861-1.30072.19982-.5882.25068-.97736,1.08656-1.19592,1.31373-.20837.21667-1.1264.18579-1.35748.46539-.07666.09271-.20673,1.94257-.71533,2.36414-.44965.37262-1.59784.88654-1.73553,1.00885-.11328.10071.06482,1.78796-.0036,1.99463-.33685,1.01715-.81787,1.5694-.87787,1.69501-.23938.50122-.03644,1.74609.02557,2.60754.06641.92291-.76434,1.93475-.73578,2.10083.0426.24768,1.22687,1.12909.99213,1.97821-.32019,1.15814-.23273,1.43372-.0661,1.57397-2.11346,4.12079-2.78888,8.80664-3.5451,13.32928-.18109,1.2865-.34296,2.57458-.48175,3.86432-.76545-6.93788-1.29185-14.28094-4.56238-20.57318.28485-.35712.24225-.50635-.33411-2.30719-.35651-1.11414.27997-1.83997.31775-2.17444.02533-.22424-.76349-1.63544-.74054-2.87378.02136-1.15588.42139-4.76538.08234-5.41443-.08496-.16266-.74854-.71204-1.06927-1.20789-.15857-.24506-.15387-2.26294-.30524-2.38776-.38549-.15715-.92568.05332-1.36773-.10333-.21833-.05774-.7115-.33289-1.1031-.94959-.33441-.52667-.36334-1.25854-.43628-1.34949-.21112-.26306-.58832-.28168-.6889-.49609-.28717-.61157-.13525-.83954-.23932-.95685-.31366-.3537-.3894-.14032-.66998-.41193-.29479-.28418-.62318-1.7194-.95941-1.71436-.60038.16907-1.62834.3698-2.23468-.04936-.16931-.09395-.66736-1.16091-.94781-1.16799-.38318-.0097-.91718.03491-1.38287-.20557-.53461-.27606-1.05328-1.10321-1.47809-1.10327-.49873.05559-1.28243,1.10909-2.02522.67012-1.58437-.84375-3.24073-1.0858-4.36373-.65518-.50613.55074-.06271,1.83638.07993,3.19863.07867.75171-.43463,1.29895-.40686,1.45251.07379.40814.43085.29486.27142,1.42059-.05469.38574-.4256.77844-.39752,1.06671.01624.1662,1.13867.88031,1.56995,1.24884.35571.30396.21356,1.13483.27893,1.19263.16345.14459,1.51147.61505,1.64252,1.12964.25446.99872-.16443,2.29517.0462,2.55377.2569.31549,3.34082,1.06934,3.90442,2.00037.56354.93109,1.20111,3.08557,1.45831,3.32043.2572.23492,3.86572.09973,5.3573,2.16522.99811,1.38208.78064,2.11426.89996,2.34637.16388.31873,1.58875.25427,2.40228.76868,1.9035,1.20361,1.28302.89557,2.18719,1.33044l.04578.00232c1.70697,3.22644,2.3252,7.01898,2.95575,10.59222,1.03881,6.75424,1.38831,13.62741,1.63409,20.45502-1.50421-3.39056-4.2937-6.28217-7.45618-6.74158-1.73484-3.74303-4.33896-4.20259-7.07655-4.35379-2.54583.00009-5.25457,1.10354-5.36041,2.76937-.10498,1.6524,2.20929,1.76636,2.53961,2.5824.31525.77887-.73065,1.70142.38013,2.75708,1.51846,1.46928,4.62829.96251,6.15986.0664,2.03442-1.18511,1.62628-2.27965,3.18267-3.08257,3.56281.47943,6.69781,4.53314,7.71069,8.57788.14148,4.98071.18756,9.96368.09924,14.97107.00275.81848,1.21881.80499,1.24915.02399.18097-4.50159.14136-9.02399-.01208-13.54559,1.05853-4.70636,4.10156-10.91022,8.86365-11.25793.64288.44635,1.51495,1.01538,2.28564,2.02606,1.47632,1.93597,4.22461,3.07489,6.43152,3.07489,1.48834,0,2.73077-.51837,3.16974-1.65979.78937-2.0528-1.3418-2.99054-1.08386-3.48517.31561-.60529.72357-.94269.8197-1.29645.54407-2.00226-1.78583-3.95032-4.48083-3.95007-2.62626.12145-6.04697,1.77196-7.4458,4.5509-4.32654.4502-7.20538,5.05035-8.6532,9.49084-.00909-.21344-.02069-.42676-.03021-.64014-.20316-5.1266.01624-10.33005.63556-15.44061.63019-4.46478,1.21381-9.2049,3.20551-13.28754.52734-.27777,1.20428-.66034,1.58337-1.0495.50635-.51984,1.802-1.04132,2.05591-1.19159.61664-.36505.94769-1.39783,1.67297-2.47894,1.0838-1.6156,2.58563-1.27533,2.77722-1.46344.19165-.18811.53314-1.88525.93671-2.60815.40363-.72284,1.81091-.52643,1.99921-.77466.1543-.20349.57556-1.29034.73511-2.04828.08215-.3905,1.11639-.80878,1.23834-.9248.04877-.04645-.09479-.65936.17108-.90393.32233-.29645,1.15332-.55768,1.15942-.6825.01062-.21649.17786-.88019.12012-1.16528-.16864-.83209,1.32556-.83142,1.36713-1.13965Z" fill="#95c172"/>
      <g id="leaf_1_right_hi" data-name="leaf 1 right hi">
        <path d="m182.00909,309.37832c2.4556-1.14002,4.97957.0817,6.75313-.39813,2.73968-.74121,4.8321.09094,4.51648.69621-.25794.49467,1.87326,1.4324,1.08385,3.48517-1.08981,2.83397-7.12924,1.82654-9.60124-1.41509-.97864-1.28333-2.12676-1.8576-2.75223-2.36816Z" fill="#a6d67c"/>
      </g>
      <g id="leaf_1_left_hi" data-name="leaf 1 left hi">
        <path d="m164.96875,310.76596c-2.81902-1.89695-3.98091-.29615-5.70734-.41594-2.78005-.1929-4.74935.04406-4.41904.86012.31526.77886-.73066,1.70141.38015,2.75706,1.57918,1.50076,4.67668.93039,6.15984.06641,2.19495-1.27861,1.54247-2.4525,3.58639-3.26765Z" fill="#a6d67c"/>
      </g>
      <g id="leaf_2_right_hi" data-name="leaf 2 right hi">
        <path d="m195.09871,270.15242c.41683.38566-1.20694.72933-1.57286,1.32425-.30649.49828-.36414,1.07998-.37979,1.19597-.0416.30821-1.53581.30757-1.36718,1.13964.05778.28511-.10944.94877-.12007,1.16528-.00613.12482-.83713.38603-1.15945.68251-.26588.24456-.12229.85748-.17107.90389-.12197.11603-1.15617.53432-1.23837.92481-.15954.75796-.58076,1.8448-.7351,2.04828-.18828.24822-1.59556.05182-1.99915.7747s-.74508,2.42003-.93671,2.60813-1.69347-.15218-2.77728,1.46346c-.72523,1.0811-1.05631,2.1139-1.67293,2.4789-.2539.15029-1.44079.76713-2.05594,1.19158-1.43921.99306-1.61995,1.00875-1.61995,1.00875.83864-4.51698,3.8832-9.49532,4.58986-10.61685,4.94575-7.84945,13.10994-8.39143,13.21599-8.2933Z" fill="#a6d67c"/>
      </g>
      <g id="leaf_2_left_hi" data-name="leaf 2 left hi">
        <path d="m148.26626,260.70936c-.50615.55066-.06274,1.8363.07988,3.19854.0787.75172-.43458,1.29895-.40683,1.45254.07376.40811.43082.29486.27139,1.4206-.05463.38573-.42555.77841-.39747,1.06669.01619.16619,1.13865.88034,1.56991,1.24884.35574.30397.21357,1.13486.27894,1.19268.16345.14457,1.51146.61504,1.64254,1.12958.25444.99876-.16446,2.2952.04617,2.55381.25694.31547,3.34084,1.06931,3.90441,2.00038s1.20115,3.08554,1.45833,3.32043,3.86572.09973,5.35731,2.1652c.9981,1.3821.78062,2.11424.89999,2.34637.16389.31871,1.58872.25427,2.40229.76871,1.90345,1.2036,2.60452,1.41925,2.60452,1.41925-2.15278-6.37783-3.75231-11.26733-7.47536-14.97624-4.48516-4.46812-8.96878-7.43263-12.23601-10.30736Z" fill="#a6d67c"/>
      </g>
      <path id="root_main_fade" data-name="root main fade" d="m172.375,334.57266l.00827-2.80002c.00108-.36615.2988-.66211.66496-.66104.3756.00022.67732.31661.66049.69168-.00515.04053-.08041,2.75149-.0844,2.79012-.02663.80561-1.2493.78506-1.24932-.02074Z" fill="url(#linear-gradient)"/>
    </g>
  </g>
</svg>