<?xml version="1.0" encoding="UTF-8"?>
<svg id="Layer_2" data-name="Layer 2" xmlns="http://www.w3.org/2000/svg" xmlns:xlink="http://www.w3.org/1999/xlink" viewBox="0 0 394 469">
  <defs>
    <linearGradient id="linear-gradient" x1="173.00001" y1="334.81533" x2="173.00001" y2="331.57979" gradientUnits="userSpaceOnUse">
      <stop offset="0" stop-color="#fff"/>
      <stop offset=".34875" stop-color="#fff"/>
      <stop offset=".90503" stop-color="#fff" stop-opacity="0"/>
      <stop offset="1" stop-color="#fff" stop-opacity="0"/>
    </linearGradient>
  </defs>
  <g id="CASE_2_Plants_LL_WH_CH" data-name="CASE 2 Plants LL WH CH">
    <g id="Day_4" data-name="Day 4">
      <g id="rectangle">
        <rect width="394" height="469" fill="none"/>
      </g>
      <g id="ROOTS">
        <path d="m181.64873,336.22186c-2.29144-.68512-5.53424.00195-7.40442-1.45874.0033-.06403.00159-.12708.00568-.19128-.00104-1.3653-1.9736-1.69539-2.41168-.41101-.71588,1.02905-1.6933,1.22095-2.9939,1.4624-1.50677.18591-3.57495.69574-4.73315,1.84766-1.06946.92137.2916,2.57464,1.40094,1.69617,1.15326-.97961,2.21106-1.02875,3.72687-1.25476.13593-.01337.2774-.03656.4176-.05743-1.10162.43048-2.27002.80194-3.0545,1.74115-.97955,1.07324.59955,2.55054,1.60504,1.50452.52539-.56573,1.35675-.79498,2.50812-1.17365.13281-.04083.26764-.10693.40186-.15857-.40363.45734-.80438.90045-1.28265,1.2981-1.00951.74265-2.34069,1.65481-2.70282,3.072-.4422,1.20541,1.31787,1.92849,1.84936.75875.46259-1.24536,1.17822-1.2995,2.21558-2.11432.33105-.2417.64172-.52026.9458-.80707.00226.07452.00464.14905.00525.22388-.24323.39032-.47235.78265-.66937,1.09467-.81299,1.19409-2.36316,1.82684-2.79095,3.38123-.30402.85223-.50262,1.90417.56,2.21228.58826.15186,1.18823-.2019,1.34003-.7901.07037-.27222.13647-.5401.20068-.72876.17529-.48218.57928-.83942,1.01331-1.19629-.02216.25555-.04071.51147-.05719.7688-.2594.95068-.86652,1.87836-1.40857,2.67987-.51685.77734-1.19775,2.44586.20087,2.80652.59229.13519,1.18201-.23535,1.31714-.82764.01355-.08838.05103-.19177.09711-.30017.19879.99335.63293,1.98212,1.72369,1.63959.52704-.21271.76093-.80487.57477-1.32709.22101-.03394.4436-.14587.6626-.3717.39471-.46179.34033-1.15613-.12146-1.55084-.52509-.43012-.6068-.61168-.83502-1.1745.00275-.07007.00928-.14178.01288-.21222.11273.08533.22717.16803.34827.23785.5957.40118,1.22137.78711,1.63477,1.2915.08289.11823.11963.19037.16949.3714.39996,1.36035,2.43427.84436,2.13177-.54346-.29218-1.37341-1.66113-2.27582-2.71484-2.98157-.68768-.43579-.97797-1.04919-1.20184-1.80396.0271-.19824.05322-.396.07935-.59131,1.25671,1.2597,2.93835,2.01825,3.91882,3.53491.86261,1.15283,2.6004-.09406,1.789-1.28009-1.09607-1.8811-3.32214-2.78552-4.52997-4.45819-.07086-.11664-.15393-.24963-.23822-.38293.7218.29749,1.48523.54266,2.10272.87781.86847.4021,1.8103,2.10535,2.89905,1.09204,1.07788-1.25531-.77582-2.30145-1.71985-3.01581-.1344-.07538-.26166-.13629-.39142-.20221,1.55829.25348,2.89825.09088,2.92096-1.07947-.01733-.62189-.55212-1.10492-1.17194-1.06482-.44342-.00433-.94373-.04858-1.45972-.12891.49847.0188.99048.03064,1.46533.03821.74554.0257,1.23889.17114,1.84473.54462.50293.31964,1.17499.17932,1.50616-.32153.71808-1.18463-.74036-1.89496-1.70209-2.21552Z" fill="#4c4c4c"/>
      </g>
      <path d="m180.0421,327.31885c-.61206-1.3698-3.67284-1.92646-4.8172-.61096-1.18942.0488-1.87055.50553-2.51941,1.30133-.02502-.01691-.05603-.0318-.08179-.04846-.35749-2.2879-4.9574-3.20663-5.98671-1.42282-.14006.25351-.35673.82254.07692,1.41202-.42249.58575-.43359,1.20099-.03162,1.83405,1.22536,1.69444,3.49747,1.82036,5.00702.76361.03656.11426.05475.23962.06091.38306v3.56927c0,.69043.55957,1.25,1.25,1.25s1.25-.55957,1.25-1.25c-.00348-.50396.00597-3.12552,0-3.5788v-.4021c.05566-.26831.15106-.52734.27026-.74316.93141,1.82749,5.19133,2.21291,5.03955-.4342.65274-.39412.87133-1.33592.48206-2.02283Z" fill="#2e541a"/>
      <path d="m179.14787,328.37805c.73234-1.18142-2.88434-2.17338-3.45062-.62262-1.32176-.30256-2.40797.75529-2.76392,1.91962-.22058-.39954-.60394-.77625-1.23828-1.08356.01778-1.4947-1.80466-1.97906-3.00226-1.9849-.56103-.00002-1.02105.12681-1.18054.41526-.26239.47455.57166.59631.50281.87415-.11652.47046-.94098.63953-.48859,1.35193.93461,1.33619,3.40243,1.31472,4.06915-.15546.9649.51184,1.1344,1.21497,1.1546,1.86578v3.54169c0,.13818.11182.25.25.25s.25-.11182.25-.25c-.00311-.47761.00513-3.12985,0-3.55261v-.52747c.14562-.9782.90418-2.33475,2.12274-2.20343-.90043,1.43394,2.06473,2.65935,3.05189,1.69989.35015-.38849-.06696-.89563.10681-1.16046.19116-.29138.43835-.10938.61621-.37781Z" fill="#95c172"/>
      <g id="ROOTS-2" data-name="ROOTS">
        <path d="m182.49736,337.75177c-2.1767-1.41394-5.01923-.56879-7.39282-1.41772-.73914-.21185-1.5235-.54767-1.87402-1.13336.00531-.20953.00568-.41864.01947-.62885.00073-.32367-.50085-.31537-.49994,0-.00024.01001-.00006.02039-.00031.0304-1.74731,2.82208-5.79834,1.3847-7.99951,3.63782-.10034.08234.03198.23505.12781.15387,2.15845-2.02191,5.90314-.82092,7.86035-3.02637.00098.00165.00226.00293.00323.00458-.00598.52356-.00238,1.04877.00879,1.57745-.94415,1.32581-2.58429,1.7511-4.03925,2.34753-.20822.01549-1.94364,1.19849-1.23364,1.11938,1.45105-1.40009,3.8714-1.3576,5.28772-2.84369.02179.58862.05701,1.17615.1109,1.76068-.85571.82745-1.55029,1.76294-2.45233,2.4754-.9599.71356-2.13171,1.40875-2.45453,2.65839-.04667.11928.13964.19351.18616.07311.22906-.55248.50592-1.09215.96515-1.45446,1.42072-.85614,2.65216-2.086,3.81146-3.24597.0484.43475.09906.8692.17084,1.29651.0354.4541.04224.91138.03064,1.37085-.28735.44037-.54443.90009-.81738,1.33307-.94098,1.40607-2.72589,2.05029-2.89148,3.96075-.03308.12598.16498.1723.19409.04858.16913-1.15387.86267-1.948,1.76068-2.63306.76172-.51422,1.24475-1.33417,1.7287-2.1123-.07751,1.36731-.28418,2.75006-.38153,4.12335-.38757,1.50854-1.61719,2.59167-2.04431,4.11243-.02823.12619.17058.16852.1955.04132.3537-1.18481,1.26746-2.16608,1.80634-3.30573-.0401,1.32379.06793,2.63391.54663,3.90717.02844.06091.11798.01074.09033-.04266-.25909-.86285-.35699-1.7417-.37482-2.62701.25616.49573.59589.96826,1.05664,1.28229.09903.08286.22881-.0708.12854-.15332-.61035-.4519-.90381-1.02997-1.18518-1.72314-.00214-.0047-.00684-.00409-.00928-.0083.02441-1.05579.15869-2.11926.30463-3.17755.31268.87091.81708,1.69452,1.6239,2.17218.85223.60162,1.95422,1.17444,2.22418,2.25165.02838.13226.23059.07776.19385-.04944-.27863-1.15228-1.40582-1.75745-2.29358-2.39191-.90912-.54675-1.40051-1.53558-1.67047-2.5498.07684-.55286.15271-1.10419.21198-1.65094.04572-.58777.04736-1.17358.03271-1.75885.81769.91895,1.37115,2.15967,2.46362,2.82764,1.18866.80255,2.29211,1.67285,3.11945,2.85303.03223.04364.0943.0545.13892.02295-.39606-1.18842-2.06934-2.32196-3.08752-3.10388-1.21472-.79218-1.64081-2.16022-2.64996-3.15118-.03009-.63965-.08051-1.27875-.1344-1.91821.77258.79749,1.64935,1.52271,2.74365,1.87659,1.29605.35008,2.43519,1.0325,3.36967,1.99723.03872.0375.10067.0378.13961-.0001-.40656-.97394-2.36206-1.98071-3.41565-2.29523-1.15198-.39716-2.07806-1.27698-2.88873-2.20837-.03888-.46667-.07343-.9339-.10022-1.40198,1.53796,1.89191,4.4917,2.45752,6.80219,2.44824.13092-.00793.1156-.20972-.01184-.19952-2.41315-.05835-5.57104-.77985-6.82153-3.03387-.00317-.10968-.00702-.21936-.00854-.32916.51581.44287,1.17548.63788,1.77081.80402,2.42072.79218,5.17291-.13959,7.39484,1.17554.11145.06934.21533-.09863.10883-.16803Z" fill="#fff"/>
      </g>
      <path id="root_main_fade" data-name="root main fade" d="m172.75,334.57217v-2.74936c-.00456-.32343.50497-.32474.5.0003,0-.00002,0,2.74839,0,2.74839.00562.32406-.50478.32593-.5.00067Z" fill="url(#linear-gradient)"/>
      <g id="leaf_1_right_hi" data-name="leaf 1 right hi">
        <path d="m175.58615,328.01364c.36766-.25159.66862.19517,1.41098.24808.79323.05653,1.72571.20275,1.53453.49415-.17376.26484.24333.77199-.10677,1.16048-.95136,1.04116-4.40345-.50648-2.83875-1.9027Z" fill="#a6d67c"/>
      </g>
      <g id="leaf_1_left" data-name="leaf 1 left">
        <path d="m170.81461,329.92384c.46-.23655.76239-.62564.8563-1.0643.06583-.30749-.94705-.8215-1.54571-.78696-1.21529.07011-2.04132-.45437-2.11013-.17658-.11654.47049-.941.63953-.4886,1.35192.75374,1.06897,2.28987,1.18334,3.28814.67592Z" fill="#a6d67c"/>
      </g>
    </g>
  </g>
</svg>