<?xml version="1.0" encoding="UTF-8"?>
<svg id="Layer_2" data-name="Layer 2" xmlns="http://www.w3.org/2000/svg" xmlns:xlink="http://www.w3.org/1999/xlink" viewBox="0 0 394 469">
  <defs>
    <linearGradient id="linear-gradient" x1="173.0422" y1="335.22273" x2="173.0422" y2="331.12504" gradientUnits="userSpaceOnUse">
      <stop offset="0" stop-color="#fff"/>
      <stop offset=".34875" stop-color="#fff"/>
      <stop offset=".90496" stop-color="#fff" stop-opacity="0"/>
      <stop offset="1" stop-color="#fff" stop-opacity="0"/>
    </linearGradient>
  </defs>
  <g id="CASE_2_Plants_LL_WH_CH" data-name="CASE 2 Plants LL WH CH">
    <g id="Day_16" data-name="Day 16">
      <g id="rectangle">
        <rect width="394" height="469" fill="none"/>
      </g>
      <g id="ROOTS_BACK" data-name="ROOTS BACK">
        <path d="m190.59306,340.96875c-.44049-.43646-.9046-.8291-1.37897-1.20264.94298-1.73751-2.28821-2.80083-3.63098-3.08246-1.03839-.13562-1.75342-.026-2.63153-.12445-.73822-.23407-1.48706-.44458-2.24902-.62244-1.95654-.34644-4.05005-.43359-5.83136-1.23657.00031-.04315.00378-.08508.00378-.12836-.04596-2.2702-3.06458-2.45868-3.646-.60358-1.55737,1.51367-4.04669,2.53229-6.14612,2.90515-3.07715.36096-6.48755.95294-8.74561,3.43549-.48029.52423-.4754,1.34143.02722,1.85675.52527.53955,1.39319.54321,1.92389.00958.24164-.23578.49908-.44183.76813-.62573-.87036,1.54297-1.63232,3.47003-.10486,4.04126.7149.24481,1.49347-.14886,1.72235-.86865.63873-1.7041,1.84924-4.05811,3.62579-4.64514.40576-.03748.81079-.07202,1.21082-.10608,1.60614-.25305,3.14471-.64557,4.57886-1.26038-.65511.49108-1.19298.80811-1.85034,1.22467-.90912-.04193-1.90411-.07324-2.81909.18677-1.46936.4826-4.56317,1.79767-3.39569,3.57648.19965.27069.48541.43018.78943.49969-.70264.82965-1.29596,1.75067-1.68152,2.82812-.55432,1.659,1.88062,2.55475,2.53351.93347.95728-2.30048,3.50256-3.79279,5.86768-5.11816-.4657.77649-.8667,1.58386-1.39069,2.21057-1.46265,1.00146-7.63184,6.98126-4.71759,8.42029,1.62021.63029,1.89247-1.31481,2.65643-2.2467.21979.32935.58417.54822.97479.60846-1.15356.52655-2.18335,1.26306-2.4566,2.60474-.12991.658.25801,1.34429.92163,1.54016-.64178,1.36365-1.16943,2.98029.30005,3.52557.71478.21112,1.46539-.19714,1.67651-.91187.53894-1.77325,1.58539-3.62915,3.12994-4.73291.5246-.48663.93262-1.05109,1.28955-1.64508.03357.47662.04797.95081.04059,1.42218-.48834,1.23822-1.79675,2.01233-2.53931,3.25696-.6933,1.01843-1.53204,3.22357.24249,3.65344.73126.14618,1.44263-.32806,1.58862-1.05945.06213-.23438.16046-.45764.28284-.67413-.17383,2.07855-.18451,4.18219.57684,6.39374.60938,1.63458,3.05151.81317,2.56366-.84729-.23566-.72968-.34656-1.48193-.3822-2.24847.95398.79739,1.49349,2.66878,2.99324,1.93567,1.99746-1.31929-.84832-3.66746-1.68202-4.65131-.57855-.61768-.84375-.99683-.93292-1.70807.14655-.93341.30103-1.87134.40137-2.80396.22001.29139.52636.52312.77753.79572.82159,1.06543,1.25806,2.41016,1.38226,3.81549.08466.67828.05444.98492.2049,1.78815.36268,1.34098,2.36165.89758,2.11414-.47174.90088.35638,2.15363-.33472,1.83423-1.59497-.7345-2.20728-2.11353-4.02441-3.7002-5.66071.87994-.08691,1.66632-1.04199,1.06482-2.04926-.27002-.35785-.45673-.73499-.6131-1.11932.79675.95026,1.32922,2.0672,1.51874,3.35773.11548.70569.76605,1.2038,1.4845,1.12225,1.78979-.3443,1.20587-2.46063.54565-4.01697.52008.28308,1.00348.64539,1.42908,1.14685.49377.52234,1.31622.56744,1.86481.0921,1.4082-1.4624-.7655-3.02429-2.41553-3.88861.80475-.2074,1.4303-1.13593.83185-2.05823-.48657-.67737-1.0188-1.22662-1.58435-1.70624.73779.1178,1.39203-.45129,1.52319-1.13104.7287.70929,1.3504,1.52972,1.75897,2.32861.32922.63794,1.10571.90948,1.76434.60602,2.19299-1.15424-.98523-4.39563-2.00537-5.46332-.258-.23785-.52991-.46814-.81244-.68976,1.72821.67499,3.36414,1.58929,4.64191,2.78607,1.27094,1.19293,3.09558-.63123,1.91248-1.90417Zm-15.63898,8.73853c-.00488-.06281-.01093-.12512-.0155-.18817.01813.073.0293.14044.05072.21558.01068.04187.02722.08185.03857.12354-.02429-.05151-.04968-.09827-.07379-.15094Zm.84015-4.9079c-.33246-.211-.63763-.42664-.92133-.64276.74878.31519,1.51868.59949,2.26923.90582.42517.35602.76105.82562,1.15991,1.44629-.01312-.00861-.02826-.01672-.04077-.02545-.80505-.63348-1.65479-1.1922-2.46704-1.6839Zm4.72803,2.20081c.20544.17603.38269.35461.53009.53497-.30359-.10657-.60077-.20343-.8869-.29468.12946-.06311.25073-.14301.35681-.2403Zm-12.047,4.02295c.25104-.55066.41046-1.367.41162-2.03894.08411-.42609.46173-.87189.79883-1.28113.26129-.2066.52173-.40979.77832-.61029.18848-.17383.36139-.38562.52881-.60895.0188.11218.0376.22528.05658.33905-.48206.86163-.82391,1.8905-1.12915,2.46124-.24707.54407-.54645,1.24127-.88037,1.77826-.2406.0885-.48834.17926-.74451.27161.06732-.09161.12939-.19226.17987-.31085Zm9.57391-8.8891c-1.05878-.45392-2.0658-.81299-2.94287-1.4137.85828.22528,1.75476.35321,2.63391.45459.41736.12659.64709.32495,1.09302.81036.32074.3736.69611.77087,1.09607,1.14856-.60156-.34741-1.22772-.67041-1.88013-.99982Z" fill="#4c4c4c"/>
      </g>
      <path d="m199.33897,271.37598c-.51667-.74518-4.31647-2.20955-6.24661-2.05575-1.3647-.01955-4.63209.32258-5.73355,1.2734-.12826.06018-.2627.13508-.39038.20923-.48262-.03641-.90481-.06312-1.66278.07431-.78174.21061-1.33881.81968-1.6792,1.20133-.48777.02379-1.1157.03828-1.61511.48913-.53048.49416-.54024,1.48607-.94055,2.14911-.47909.24456-1.42535.48255-1.80494.73155-.67263.3196-.66807,1.60314-.77526,2.58925-.37065.69725-.66909.89682-.96137,1.29229-.47475.62851-.48881,2.05856-.54281,3.19142-.16538.77143-1.05775,1.2128-1.02346,2.101.01504.6742.53569,1.07786.76599,1.66266-.29291.68665-.52704,1.38501-.40338,2.01453-1.34814,3.39807-2.21619,6.84674-2.99139,10.37323-.50073-3.83136-1.26129-7.61609-2.62134-11.23242.39453-.66656.24518-1.36993-.13086-3.03925-.07947-.3526.03247-.57758.22168-.91553.82162-1.12358-.32637-2.44875-.17511-3.74257.31-1.87738.88592-5.74664.47012-5.99819-.16849-.4137-.63722-.83352-.91507-1.25155.04291-2.27876.22347-3.31069-2.18182-3.35889-.26508-.13772-.5169-.72098-.50501-1.12008.02573-.49225-.39075-1.16327-.8103-1.38938.00793-.20272.0368-.6021-.27124-1.02551-.22986-.3103-.45557-.48291-.66333-.5921-.28289-.87116-.51675-2.11508-1.74152-2.1756-.36624-.01374-.62744.08422-.97333.11847l-.06201.00232c-.11273,0-.23474-.02313-.34363-.06293-.34235-.66578-.70834-1.44194-1.57843-1.54254-.24807-.03133-.66487-.03941-.83173-.14038-.57814-.55986-1.08205-1.47229-2.16193-1.4245l-.13245.01599c-.52742.0793-.86732.3627-1.30066.5755-1.71375-1.08624-3.25317-1.25195-4.03204-1.25195-1.14166,0-1.4928.32013-1.625.44067-1.11357,1.02005-.61786,2.74396-.6095,4.13696-.10356.51785-.60331.77916-.52809,1.5041.0314.34587.15005.5952.22781.73919-.00525.05121-.01758.13562-.04614.26367-1.1099,1.51734-.35689,2.25782,1.10852,3.44629-.0127.41098-.1311.83328.32945,1.35871.30658.31986.82676.52157,1.22695.83105.01275.93203-.57262,1.97796.00353,2.828.48259.7792,3.0084,1.48309,3.6501,2.22791.37378.71936.85146,3.28853,1.33746,3.68841.32362.3526.71156.43921,1.35426.5827,1.72625.30055,4.1422,1.20082,4.1259,3.35373-.09494,1.0732.84483,1.6593,1.78889,1.83957.35535.09802.8421.23224,1.05463.39441.96916.72809,1.05613.85565,1.6731,1.289,1.04962,2.99487,1.55695,6.28314,2.00891,9.4162.62183,5.26855.97504,10.57678,1.18329,15.89899-1.60504-1.88501-3.59845-3.34393-5.74646-3.76465-2.49831-3.32585-5.09387-3.45928-7.55501-3.40503-3.16731.25139-7.02865,1.79684-6.97101,5.05428.26592,2.0584,1.93816,2.36086,3.03952,2.75242-.45347,4.87407,6.31675,4.26,8.82257,1.98421,1.54581-1.27473,1.54951-2.06923,2.23328-3.16334,2.76965.65076,5.47937,4.42511,6.37689,7.45343.0838,4.74451.08276,9.49255.06702,14.22748.05518,2.44263,3.60779,2.48749,3.74744.07159.21649-4.42987.16669-8.9433.01099-13.45721,1.08691-4.20251,4.23492-9.10608,8.04218-9.78601.42523.49677.87518,1.06555,1.20966,1.85675,1.26422,2.99078,4.88348,5.51746,7.90332,5.51746,3.35181.05527,4.68894-3.30983,3.41315-5.47601,3.50741-2.98217-.83005-7.8534-4.65395-7.82017-2.18517-.07015-5.48329.43119-7.80845,2.6301-3.38281.33911-6.2406,2.72089-8.29272,5.73846.12091-3.82941.71472-7.77869,1.31445-11.50775.78656-4.26453,1.65851-8.78485,3.15851-12.8678.51892-.21112,1.04822-.46381,1.44543-.7713.42681-.29759,1.45801-.54689,1.91742-.72834,1.10513-.46653,1.64413-1.66571,2.45197-2.54149.64609-.7017,1.1449-.62473,1.8214-.61311,1.3976.15279,1.76202-1.82903,2.41645-2.87524.08472-.02152.49242-.02518.6767-.02154,1.38675.17728,1.99968-1.26671,2.55957-2.53333.36347-.16651.72872-.23761,1.02228-.4469.409-.29267.50433-.70398.53662-.95124.56546-.19081,1.30868-.32499,1.50269-1.21674.08534-.26357.20265-.62336.25189-.87347.43271-.08608,1.26163-.22157,1.51746-1.09857.0755-.27741.16064-.47657.26037-.61762.74708-.35183,1.76709-.43542,2.06946-1.45032.1253-.44433.02313-.91241-.28028-1.28418Z" fill="#2e541a"/>
      <g id="ROOTS">
        <path d="m189.69139,341.83435c-1.61395-1.57764-3.5943-2.7677-5.71503-3.60211.47119-.01703.94049-.0376,1.39764.00195.91809.10919,1.78162.55383,2.60706,1.01807.11157.06531.21198-.10553.10321-.17133-.81561-.50018-1.67523-.99713-2.66827-1.15851-.90253-.11713-1.78052-.01495-2.66736-.12665-2.85248-1.04354-6.08135-.75338-8.79608-2.14185-.14227-.08051-.26544-.17896-.35541-.27295.01184-.2688.02618-.53662.02783-.80914.00438-.84295-1.26975-.81302-1.25122.01343-1.81207,1.91815-4.54822,3.05212-7.11993,3.52637-2.8056.33154-6.0033.83258-8.01324,3.06128-.09052.09375.06152.22729.14453.13824,1.43939-1.42511,3.29871-1.99945,5.2334-2.29279-1.69037,1.17273-2.68512,3.4162-3.32959,5.27515-.03821.12402.15497.17993.19092.05896.83679-2.16907,2.25433-4.97491,4.68848-5.52289.39191-.03601.7832-.06781,1.17126-.09698,2.47729-.36462,4.96503-1.20105,6.94434-2.76764-.07367.85175-.17261,1.71808-.26831,2.59235-.74252,1.08404-2.27195,1.8771-3.43414,2.64441-.92761-.03741-1.91632-.13428-2.86896.13568-1.0188.26886-1.89453.8526-2.67871,1.49359-.1001.08008.0249.23517.12384.15723,1.40234-1.17566,3.04547-1.53253,4.78625-1.38141-2.34155,1.49615-4.66925,3.17798-5.63873,5.85162-.04468.12195.14624.18585.18762.06915,1.39288-3.2818,4.82678-4.82343,7.7439-6.51782.53967-.3382,1.11713-.65381,1.64331-1.07855-.06274.71082-.10443,1.42273-.11249,2.13385-1.27087,1.00201-1.60907,2.58508-2.60767,3.7337-2.12683,1.76782-4.29706,3.75549-5.29761,6.41315-.04633.1214.1416.18872.18616.07312.80835-1.86548,2.18604-3.32892,3.71338-4.62628-.11823.21368-.22729.43439-.3092.67487-.1825.75751.00043,1.44379-.3269,2.15955-.04541.12.13953.19122.18604.07306.34619-.64636.24512-1.48444.42645-2.14044.22607-.5824.64215-1.10638,1.06018-1.61383.25854-.20251.51843-.40234.77838-.59955.87817-.86829,1.37903-2.19983,2.20831-3.07727.01617.33502.03607.6698.07532,1.00262.11365.62982.31183,1.81342.50305,2.97369-.98293,1.61332-1.4604,3.49289-2.53961,4.99597-1.43793.62372-3.53003.86926-4.00317,2.59998-.02985.12695.1712.16846.19543.04187.43823-1.4436,2.07367-1.72852,3.41315-2.1814-1.71326,1.39856-2.77765,3.50714-3.32288,5.62225-.03052.12726.1651.16998.19403.04852.63971-2.04913,1.74536-4.02539,3.50134-5.31671,1.34137-1.33069,1.88226-3.11322,2.74487-4.69305.09906.60706.18768,1.15369.24658,1.52081.38245,1.39313.45471,2.79395.40326,4.19684-.66223,1.94946-3.14166,3.08569-3.37378,5.289-.02118.12714.17743.15723.19727.03284.32391-1.80518,2.06342-2.75879,3.10938-4.14783-.06415.82324-.15186,1.64661-.2348,2.46912.00031.00372-.00317.00507-.00275.00891.00012.00244.0011.00433.00122.00677-.24371,2.42078-.41321,4.83368.4035,7.2099.04095.12726.22937.04907.18964-.06274-.56604-1.96631-.49133-3.93109-.25916-5.90649.73328,1.57184,2.5144,2.55597,3.35437,4.09198.06543.1106.23541.00958.1734-.09967-.90198-1.92456-3.29926-2.98389-3.36237-5.2652.27612-1.96216.60541-3.9375.52863-5.93835.81384,1.22375,1.80194,2.34741,2.82306,3.36407,1.35181,1.71204,1.46191,3.92438,1.64984,6.04022.01404.12714.20697.10156.19611-.01984-.07581-1.67615-.14075-3.50507-.82721-5.09375.92834,1.09851,1.72388,2.31201,2.21588,3.64948.02832.13053.23205.07885.19385-.04944-.62341-1.79803-1.75616-3.35956-3.04834-4.74591-.01001-.01379-.01678-.02887-.02692-.0426-1.34296-1.46887-2.51923-2.93542-3.34692-4.74377-.01959-.11823-.03162-.23608-.05499-.35449-.11139-1.36261-.2688-2.82568-.4328-4.24164.49811.38385,1.0282.70856,1.54993,1.01294.16437.08331.32526.17877.4884.26727.56885.8045.65094,1.80713.90057,2.75183.2641,1.02582.74762,1.97949,1.32166,2.85291.03003.04498.091.05865.13696.0296.04669-.02948.06067-.09125.03113-.13794-.54541-.87567-.99146-1.81311-1.22308-2.81183-.18097-.77875-.26562-1.62396-.59277-2.37024,2.47992,1.46411,4.65057,3.57642,5.01398,6.56647.01917.12848.21179.09827.19836-.02539-.18085-1.93994-1.12512-3.75098-2.49945-5.12207.77747.26685,1.57159.44141,2.31769.72192,1.18982.40741,2.27203,1.09271,3.12726,2.01886.08481.09522.23533-.03776.14899-.13312-1.6015-2.10535-4.48981-2.34045-6.61676-3.50513-1.42401-1.15173-3.24396-1.93274-4.43927-3.27173-.01147-.09607-.02301-.19611-.03442-.29126-.07739-.7583-.08521-1.50745-.05536-2.25415,1.37476,1.1123,3.12213,1.6192,4.77887,2.2851.75608.52985,1.17816,1.36807,1.7146,2.12671.07146.10681.24027-.00253.1665-.11053-.33539-.61603-.74219-1.21454-1.22668-1.73047.52032.23285,1.02954.4848,1.50073.80066.82324.51849,1.64453,1.09344,2.21594,1.8772.07513.10626.2345-.00531.16669-.11072-1.1709-1.66925-3.01807-2.66705-4.80286-3.55396-1.68427-.68933-3.28015-1.32007-4.44348-2.69257.05707-.68304.13397-1.36755.21301-2.05609,1.34277.99231,2.96381,1.22473,4.6048,1.40674.27936.07263.55103.16339.79749.30426,1.23163.73425,2.03442,2.46619,3.37543,2.92413.03369-.04382.02545-.10657-.01837-.14026-.77655-.5965-1.43066-1.30554-2.03723-2.0816-.23676-.32727-.54077-.61139-.87219-.86047,1.67963.21509,3.3056.58215,4.58594,1.90387.99316.86169,1.84979,1.90521,2.45343,3.08539.05878.11603.23083.02661.18054-.08624-1.17767-2.43433-3.2207-4.63965-5.94312-5.31799-2.33368-.5589-5.35413-.45319-6.9975-2.32416.02954-.28424.05426-.5705.07831-.85767,2.50128,1.203,5.32898.86621,7.96008,1.48199,2.90253.74536,5.85272,1.91956,8.05975,4.0036.0946.09338.22797-.04816.14441-.13861Z" fill="#fff"/>
      </g>
      <path d="m198.37053,272.16632c-.09137-.11194-1.49207-.97821-3.53058-1.41602-1.84474-.39086-5.35268-.15864-6.92073.96154-.27592.11982-.56316.36164-.88524.36164-.1896-.01623-.31511-.05478-.56708-.04741-.33978-.00001-.74121.03252-.83612.05809-.61737.16632-1.11914.93988-1.36719,1.1344-.23657.18555-1.1413.02716-1.40906.27185-.08887.08118-.47522,1.8949-1.0376,2.24146-.49713.30646-1.70569.65546-1.85907.75739-.12622.08398-.18475,1.7796-.28125,1.97473-.47522.96039-1.0285,1.44019-1.10535,1.55621-.30682.46307-.27924,1.72406-.33777,2.58575-.06274.92316-1.02631,1.80945-1.02118,1.97791.00775.25122,1.05774,1.28894.70703,2.09711-.43298.9978-.43414,1.3252-.32294,1.49908-1.83563,4.09039-2.68793,8.56671-3.62299,12.93439-.36487,1.9873-.7002,3.97699-.97791,5.97296-.53867-6.7352-1.05668-13.69559-3.53882-20.04675.35303-.35907.33661-.45264-.09424-2.36493-.25708-1.14124.4408-1.80823.50793-2.13806.04498-.22113-.61658-1.69629-.48474-2.9278.12305-1.14948.83923-4.70972.55859-5.38617-.07031-.16949-.68292-.77515-.95886-1.2973-.13635-.25806.04596-2.2677-.09381-2.40533-.16986-.16724-.77527-.01428-1.35333-.22327-.2124-.07684-.67944-.39429-1.01526-1.04309-.28674-.55402-.2511-1.28558-.3158-1.38263-.18713-.28064-.56122-.3324-.64258-.55475-.23218-.63452-.06079-.84821-.15411-.97424-.28131-.37994-.37561-.17407-.6311-.4693-.28337-.31583-.45638-1.81729-.83684-1.79304-.61414.13569-1.63808.20819-2.18964-.24496-.16041-.10855-.56257-1.21518-.84138-1.24692-.3808-.04333-.91669-.04596-1.35938-.32648-.54115-.33602-.97178-1.27287-1.44659-1.22724-.44554.08153-1.3519.96476-2.00495.48741-1.7457-1.07425-3.065-1.33487-4.28918-1.03677-.55261.50409-.22412,1.82373-.20197,3.19324.01227.75574-.54718,1.25568-.53308,1.41113.03754.41302.4032.3316.14532,1.43896-.08838.37939-.49243.73792-.48987,1.02753.00153.16699,1.05676.97717,1.45392,1.3822.32758.33411.11285,1.14923.17285,1.21259.15009.15839,1.45148.74573,1.53674,1.26978.16559,1.01727-.36584,2.27185-.17877,2.54797.22815.33685,3.23376,1.35919,3.7132,2.3363.47943.97705.92487,3.17926,1.1604,3.43585.23547.25665,3.84192.43964,5.14594,2.62836.87256,1.4646.59149,2.17474.68994,2.4165.13519.33191,1.56018.39313,2.32532.97717,1.71832,1.31165,1.25549,1.03876,1.97729,1.46765,1.14636,2.86774,1.62524,6.05225,2.11725,9.07214,1.00026,7.09909,1.19244,14.31172,1.3963,21.47461-1.57733-3.38831-4.61096-6.68793-7.84882-7.01892-2.02361-3.08003-4.3332-3.40277-6.7797-3.31864-2.78384.12717-5.96444,1.81736-5.78366,3.68522.15948,1.64807,2.4624,1.39203,2.91846,2.14502.4353.71875-.45038,1.79608.81439,2.66138,1.78088,1.22586,4.76093.18056,6.0918-.91547,1.80066-1.47827,1.25647-2.48815,2.6095-3.51733,3.58386.32001,7.00775,4.87299,8.03833,8.58875.11133,4.79559.15857,9.59412.07245,14.41217.00262.8186,1.21893.80487,1.24915.02405.18121-4.49023.13275-8.99658-.0069-13.50403,1.18079-4.80035,4.97089-10.70172,9.83331-11.00073.51593.61145,1.29919,1.40918,1.83606,2.67914,1.1452,2.70917,4.37842,4.75415,6.75195,4.75415.9162,0,1.70435-.30475,2.19482-.99365,1.27551-1.79169-.55518-3.23035-.18225-3.64526.45636-.50763.93549-.73291,1.11664-1.05157,1.16156-2.0434-1.26685-4.93768-4.43689-5.1076-2.26407-.0905-5.40246.63812-7.14148,2.60461-4.63232.12042-8.32532,4.88495-10.0484,9.48431-.01239-.33282-.02594-.66553-.03906-.99835-.20295-5.47696.45293-11.05272,1.33276-16.47662.80945-4.27234,1.57019-8.75208,3.2583-12.79425.56592-.20221,1.31659-.49371,1.75671-.83447.57385-.44427,1.9295-.78021,2.20184-.89374.66144-.27557,1.13312-1.2522,2.00177-2.2218,1.12056-1.20682,1.93569-.96565,2.95398-1.06245.216-.15959.79047-1.79271,1.29077-2.45232.43053-.61444,1.52195-.27003,2.08755-.4887.18119-.18013.74961-1.19771,1.01316-1.9261.13574-.37518,1.21814-.64545,1.35504-.74335.05481-.03918-.00208-.66608.29529-.87128.36047-.24872,1.21973-.39166,1.24316-.5144.04071-.21295.29871-.84686.28119-1.13721-.05115-.84747,1.42841-.63873,1.51251-.93817.03168-.11267.16974-.68066.54266-1.13147.44519-.53815,2.10095-.65234,1.74188-1.09235Z" fill="#95c172"/>
      <g id="leaf_1_right_hi" data-name="leaf 1 right hi">
        <path d="m183.21045,309.7197c2.66208-.49289,4.80249,1.31864,6.63967,1.29539,2.83795-.03592,4.65737,1.29088,4.20103,1.79853-.37296.41489,1.45774,1.8536.18221,3.64526-1.76094,2.47349-7.3595-.00556-8.94679-3.76048-.62839-1.48654-1.59742-2.32853-2.07612-2.9787Z" fill="#a6d67c"/>
      </g>
      <g id="leaf_1_left_hi" data-name="leaf 1 left hi">
        <path d="m164.67493,311.2193c-3.08514-1.4238-3.97726.34161-5.70074.49829-2.77529.2523-4.68172.79986-4.22566,1.5529.43527.71871-.45038,1.79606.81437,2.66133,1.79803,1.23012,4.76517.17373,6.0918-.91542,1.96331-1.61185,1.13221-2.66685,3.02023-3.79709Z" fill="#a6d67c"/>
      </g>
      <g id="leaf_2_right_hi" data-name="leaf 2 right hi">
        <path d="m198.37054,272.16637c.35907.43994-1.29673.55418-1.74193,1.09234-.37288.45075-.51097,1.01876-.54262,1.13144-.08411.29942-1.56368.09072-1.51255.93817.01752.29038-.24048.92429-.28115,1.13721-.02345.12275-.88272.26571-1.24319.51442-.29734.20516-.2405.8321-.29526.87126-.13694.09791-1.21931.36813-1.35508.74337-.26353.72836-.83197,1.74597-1.01315,1.92597-.221.21958-1.58724-.17085-2.08755.48879s-1.07479,2.29271-1.29074,2.4523-1.65578-.3865-2.95399,1.06249c-.8687.96959-1.34036,1.94623-2.00179,2.22182-.27236.11348-1.53357.55905-2.20182.89371-1.56347.78299-1.74463.77336-1.74463.77336,1.45941-4.35621,5.16751-8.86212,6.02344-9.87434,5.99053-7.08434,14.15065-6.48426,14.24201-6.37232Z" fill="#a6d67c"/>
      </g>
      <g id="leaf_2_left_hi" data-name="leaf 2 left hi">
        <path d="m151.81147,260.4859c-.55265.50397-.22413,1.82365-.20196,3.19315.01223.75573-.54723,1.25566-.5331,1.41109.03755.41302.4032.33164.14529,1.43897-.08837.37943-.49242.73793-.48982,1.02756.0015.16697,1.05674.97715,1.45389,1.38217.3276.3341.11285,1.14925.17288,1.2126.15009.15839,1.45145.74569,1.53674,1.26978.16554,1.01728-.36585,2.27182-.1788,2.54796.22817.33686,3.23375,1.35922,3.71318,2.33628s.92489,3.17929,1.1604,3.4359,3.84194.43961,5.14593,2.62835c.87257,1.46459.59149,2.17475.68996,2.41648.1352.33189,1.56017.39313,2.3253.97718,1.79012,1.36647,2.46949,1.64299,2.46949,1.64299-1.58304-6.54256-2.74599-11.55388-6.12813-15.5761-4.07446-4.84557-8.27974-8.19322-11.28126-11.34438Z" fill="#a6d67c"/>
      </g>
      <path id="root_main_fade" data-name="root main fade" d="m172.375,334.57266l.00827-2.80002c.00108-.36615.2988-.66211.66496-.66104.3756.00022.67732.31661.66049.69168-.00515.04053-.08041,2.75149-.0844,2.79012-.02663.80561-1.2493.78506-1.24932-.02074Z" fill="url(#linear-gradient)"/>
    </g>
  </g>
</svg>