<?xml version="1.0" encoding="UTF-8"?>
<svg id="Layer_2" data-name="Layer 2" xmlns="http://www.w3.org/2000/svg" xmlns:xlink="http://www.w3.org/1999/xlink" viewBox="0 0 394 469">
  <defs>
    <linearGradient id="linear-gradient" x1="172.96055" y1="335.22235" x2="172.96055" y2="331.10329" gradientUnits="userSpaceOnUse">
      <stop offset="0" stop-color="#fff"/>
      <stop offset=".34875" stop-color="#fff"/>
      <stop offset=".90496" stop-color="#fff" stop-opacity="0"/>
      <stop offset="1" stop-color="#fff" stop-opacity="0"/>
    </linearGradient>
  </defs>
  <g id="CASE_2_Plants_LL_WH_CH" data-name="CASE 2 Plants LL WH CH">
    <g id="Day_24" data-name="Day 24">
      <g id="rectangle">
        <rect width="394" height="469" fill="none"/>
      </g>
      <g id="ROOTS_BACK" data-name="ROOTS BACK">
        <path d="m191.83092,342.27844c-.51892-.48199-1.05707-.93555-1.60425-1.37512,1.12006-.23398,1.40266-1.86452.39807-2.45117-2.1582-1.5578-5.42908-1.59106-7.7962-1.77075-.8869-.32745-1.79126-.61755-2.72253-.84497-1.62762-.21069-3.16241-.40851-4.64655-.88446-.20276-.07184-.40228-.14185-.58002-.22064-.00287-.05304-.00146-.10651-.00446-.15948-.01333-2.07588-2.9492-2.55752-3.63184-.61987-1.66101,1.61517-4.33386,2.67065-6.61902,2.9939-.302.02295-.79999.13495-1.41589.3158-.45972.03986-.91858.19934-1.29865.42438-3.66943,1.30566-9.14117,4.06354-7.34772,6.10272.53241.55243,1.42236.54352,1.94989-.01062.48999-.47491,1.10217-.90448,1.76947-1.29608-.40002.91125-.73926,1.85272-1.04871,2.78833-.47193,1.68873,2.01348,2.46221,2.57916.79828.12762-.33411.26685-.68573.41223-1.04163.03033.06085.04987.1203.09021.18237.96204,1.18368,1.9606.1697,2.94214-.35901-1.24146,1.21991-2.30847,2.59821-2.97455,4.30688-.55528,1.65797,1.87816,2.56114,2.53353.93329,1.24165-2.76067,4.21241-4.54723,6.67179-6.26209-.36566.70905-.64154,1.33466-1.33984,1.8443-1.42487,1.14771-9.1571,8.22107-6.04907,9.69452.71857.33417,1.56195-.03546,1.83679-.77094.40613-.87762,1.36889-2.06376,2.21747-2.96851-.00873.56732.05939,1.08038.45038,1.41022-.68262.38434-1.34784.80615-1.97247,1.31641-.50513.4693-1.12885.96362-1.4549,2.12256-.31214,1.21518,1.25588,2.14995,2.17407,1.32605-.26898.7771-.50922,1.58026-.75275,2.42859-.39648,1.72602,2.15448,2.36707,2.61938.65485.71709-2.23721,1.73793-5.00855,3.61609-6.40729.11676-.11932.21967-.25336.32697-.38269.03113.48993.05914.97504.08478,1.45691-.82581,2.0697-3.284,4.17633-3.56995,6.64374-.23737,1.73486,2.3255,2.16376,2.66321.44373.17273-.64349.52136-1.25366.93939-1.85638-.01819,2.6322.01562,5.26978.56116,7.9826.14429.70612.82257,1.18097,1.54028,1.0639.74365-.12036,1.24469-.83002,1.11169-1.57092-.24554-1.50525-.29987-3.07214-.28339-4.66821.54114.5918,1.01733,1.14636,1.38788,1.75452.72095,1.14514,2.22803.61786,2.47394-.39886.76202.00671,1.52106-.5661,1.32043-1.65924.03088.14282-.00055-.08069.00262-.19031.00061-.12305-.00653-.35901-.0141-.60364.95698.78642,2.48329-.25245,2.08876-1.4475-.15602-.53993-.28413-.8047-.43483-1.15693-.7066-1.53461-1.54327-2.95892-2.55853-4.28088.30603.08722.6416.05688,1.01202-.14575.39612-.24219.59833-.6579.61945-1.08917.12592.40479.23389.81189.30011,1.21918.26489,1.7442,2.86084,1.40863,2.67816-.34332-.16876-1.27509-.52502-2.50549-1.04779-3.65289.94574.38574,1.823.88007,2.54346,1.67847,1.21313,1.25159,3.12671-.48688,1.99823-1.81494-.64423-.78571-1.42346-1.35419-2.2583-1.82391.65143-.32953,1.0661-1.14258.54193-1.9494-.4826-.62061-1.00983-1.17627-1.57263-1.68109.64453.14777,1.23499-.23724,1.49341-.77826,1.08365.94539,1.41853,3.23868,3.16855,2.53773.67154-.3235.95365-1.13002.63034-1.80165-1.38062-2.5285-3.02148-4.45337-5.36804-5.90552,2.46838,1.02704,4.87421,2.49042,6.71417,4.13129,1.27722,1.1972,3.10077-.64337,1.90533-1.91138Zm-15.4209,3.06042c.16882.06384.33606.14435.50458.21362.41266.29309.75275.67175,1.07129,1.09619-.73547-.50507-1.6488-1.0293-2.40344-1.58594.27557.10388.55188.19922.82758.27612Zm-.50201,5.90869c.20721.53308.49817,1.50269.90344,2.39819-1.09058-1.10431-1.69611-2.15967-2.38226-3.59491-.00073-.6142.00378-1.21796.0127-1.81317.01141-.03558.02527-.07129.03394-.10657.16449.09595.33014.19122.4964.28461.39587.72186.72766,2.15979.93579,2.83185Zm-11.26923-9.9892c-.71637.2605-2.2384.77197-3.33215,1.49518.54144-.94318,1.19464-1.77759,1.99103-2.33673,1.21338-.30756,2.44348-.51172,3.69196-.70111,1.49127-.39337,2.87756-.84979,4.16364-1.521.00049.03528.0011.07062.00159.1059-.64431.91188-1.6812,1.58152-2.5885,2.29755-1.36963-.02686-3.06702.47528-3.92755.66022Zm4.30115,9.4364c.03021-1.12738.42786-1.75989,1.13287-2.64514.11627-.08765.22833-.18201.34589-.26752.14246-.09515.28149-.21808.41797-.35754.00159.21924.00409.43835.00854.65808-.66541,1.30762-1.06848,2.54083-1.79041,3.76587-.06738.02863-.13446.05798-.20172.08698.0697-.42114.08099-.86719.08685-1.24072Zm5.46924,7.74756c-.00055-.00867-.0033-.01562-.00397-.02423.03296-.90399.0462-1.83118.04968-2.76758.0097-.04456.01086-.08551.0174-.12872,1.8133,1.56142,1.97346,4.23392,2.1499,6.58246-.98108-1.13965-2.02478-2.14508-2.21301-3.66193Zm5.013-5.72198c.03497.06702.07532.13129.10876.19897-.03485-.06677-.07617-.13141-.10876-.19897Zm-1.914-10.25934c-.89148-.32819-1.62402-.6908-2.27905-1.23059.72028.18365,1.46545.29736,2.20856.38354,1.48694.45508,2.50702,1.63538,3.64331,2.75305-1.13171-.71423-2.33661-1.32745-3.57281-1.90601Z" fill="#4c4c4c"/>
      </g>
      <path d="m199.5529,271.33057c-.52102-.75226-4.33208-2.22594-6.26761-2.07015-1.36138-.02018-4.61433.31665-5.71066,1.26022-.12834.05996-.26316.13448-.39093.20844-.48893-.0386-.92267-.0639-1.6629.07046-.78229.20877-1.34076.81656-1.68195,1.19748-.48784.02255-1.11575.03575-1.61621.48535-.53165.49297-.5437,1.48478-.94549,2.14698-.47966.24339-1.42658.47934-1.80671.72746-.67328.31784-.67169,1.60155-.78112,2.58735-.37228.69639-.67117.89538-.96442,1.29015-.47608.62734-.49346,2.05741-.55007,3.19008-.16712.77109-1.06057,1.21036-1.02828,2.09875.01356.67418.53316,1.07908.7622,1.66443-.28369.66083-.51831,1.3338-.4259,1.94525-1.00128,2.17303-1.71661,4.36792-2.35114,6.57922-.5011,1.92535-.97272,3.8501-1.39215,5.77985-1.01807-5.3913-2.53632-10.67065-4.91937-15.67511.13635-.60382-.08057-1.30566-.51819-2.67316-.11017-.34418-.01849-.57819.1402-.93146.71968-1.1915-.5406-2.41046-.50378-3.7126.14352-1.89738.37666-5.80234-.05966-6.01631-.20429-.39728-.70813-.77417-1.0217-1.16611-.16354-2.29382-.0634-3.30992-2.46912-3.15393-.27626-.11405-.57819-.67262-.60157-1.0712-.01763-.49255-.49163-1.12434-.92938-1.31265-.01008-.2027-.01635-.6031-.36065-.9978-.25611-.28876-.49616-.44086-.71271-.53131-.3638-.84964-.67464-2.00177-1.8479-2.01556-.57318-.00681-.91338.31361-1.44672.18103-.39959-.63319-.83251-1.37427-1.70819-1.39795-.24996-.00936-.66574.01928-.84094-.06665-.59482-.47261-1.0884-1.24-2.05134-1.24254-.64225-.01135-1.11823.42363-1.60302.7293-1.45911-.75366-2.74915-.91541-3.5874-.91541-.71289,0-1.6593.10498-2.11908.60522-1.01956,1.11419-.37393,2.78768-.24299,4.17456-.05759.52488-.53241.82921-.39369,1.54463.06179.34185.20187.57976.29196.7163-.00067.05151-.00549.13666-.02264.26672-.97225,1.60925-.15674,2.28039,1.40753,3.33539.02342.41044-.05721.84154.44774,1.32435.33354.29167.86947.44682,1.2953.7199.09481.92728-.39627,2.02063.25243,2.81665.54939.7338,3.12724,1.21257,3.8321,1.89807.43567.68373,1.13755,3.20083,1.65697,3.5564.35328.32263.74732.37482,1.40022.46118,1.74601.1474,4.23168.83158,4.40509,2.97751-.00012,1.07745.98753,1.57849,1.94385,1.67501.36262.06635.85932.15717,1.08527.30006,1.25273.76609,1.17472.84658,2.2066,1.349,3.36748,7.89333,4.65759,16.68745,5.40631,25.19519-.97467-.89661-2.09619-1.55292-3.33081-1.95026-1.22577-3.80072-3.9502-4.98938-6.25348-5.58563-2.92673-.89389-7.79924.1046-8.15011,2.77713-.35207,2.05692,1.16518,2.82872,2.10977,3.53732-.34039,1.16128-1.0318,2.56744.09792,4.08162.50932.64043,1.50407,1.4038,3.35117,1.4038,1.68079,0,3.46674-.62817,4.38171-1.00256,1.76584-.74051,2.0749-1.43558,2.93347-2.25433,2.99495.60161,4.66846,3.55606,5.29523,6.3739.19794,5.21124.19305,10.44208.13904,15.68036.05536,2.44073,3.60614,2.48889,3.74731.07208.203-4.41565.18652-9.00708.00269-13.54871.86755-3.84869,3.01465-8.92639,6.84448-9.4339.39496.29083.76654.61511,1.0849,1.18164,1.67224,2.97565,5.01556,4.03149,7.37042,4.03149,3.37347.11656,5.469-2.53525,3.87134-4.87866.00037-.00031.00067-.00067.00104-.00098,3.02538-3.19862-1.43003-7.47025-5.11548-7.25156-2.43323.05778-6.07204,1.12776-8.05853,3.76883-2.6427.47327-4.70538,2.21796-6.24072,4.55719.09967-3.38623.56018-6.85046,1.06354-10.13544.78235-4.54236,1.76276-9.29779,3.55609-13.51691.54755-.21655,1.11633-.48114,1.53723-.80548.42757-.29656,1.45918-.54355,1.91907-.72382,1.10629-.46411,1.64796-1.66197,2.45783-2.53594.65095-.70392,1.14928-.62091,1.83019-.60896,1.39141.1511,1.76024-1.82858,2.41577-2.86975.10077-.02365.51437-.02274.69916-.01983.31573,0,.9035,0,1.34631-.43799.36261-.3587.90021-1.38354,1.19659-2.08954.36394-.16564.72932-.23593,1.02344-.44458.40955-.29145.5058-.70264.5387-.94996.5659-.18954,1.30944-.32198,1.50549-1.21332.08586-.26335.20408-.62292.25385-.8728.43288-.08519,1.2621-.21862,1.52002-1.09497.07611-.27741.16174-.47632.26171-.61719.74793-.35007,1.76814-.4314,2.07282-1.44556.12634-.44403.0252-.91235-.27735-1.28479Z" fill="#2e541a"/>
      <g id="ROOTS">
        <path d="m190.92918,343.14416c-2.04584-1.90875-4.43542-3.50079-7.00763-4.66272,2.06415-.03076,4.15006.1126,5.95512,1.21272.04628.02642.10585.01208.1346-.03352-1.836-1.72095-4.97083-1.45709-7.34662-1.73907-.01746-.0025-.03015.0116-.04712.01276-.87286-.33545-1.76062-.62854-2.66351-.85712-2.00653-.28705-4.10602-.47253-5.92303-1.3775-.14038-.07532-.26617-.16809-.36835-.25995-.01385-.28931-.01685-.57874-.03766-.86792-.01182-.82105-1.25182-.79405-1.25.0094-2.0968,2.21881-5.23792,3.28314-8.22699,3.72516-.19598.05365-.39136.11444-.5871.17151-.01941-.0025-.03558-.00958-.0575-.00836-.39099.03003-.71869.1662-1.0152.34192-2.5824.85168-5.07001,2.05756-7.02429,3.96442-.09229.09637.06177.22974.14447.13812,1.65833-1.50342,3.7287-2.52429,5.87366-3.24915-.00458.005-.01001.00995-.01459.01495-1.46478,1.71936-2.38062,3.82733-3.04083,5.96021-.03802.12396.15485.17908.19104.05908.88025-2.33797,1.96565-4.89618,4.03448-6.40021.539-.15472,1.07855-.29889,1.61432-.42249,2.84772-.30981,5.83649-1.12964,8.11212-2.9726.00604.90912.01831,1.81561.03015,2.71698-.59771,1.26586-2.26733,2.31552-3.47504,3.26727-2.71259.00342-5.47443.75195-7.60852,2.45209-.10114.08026.02576.23529.12378.15704,1.93713-1.41772,4.38538-2.05701,6.77075-2.07623-2.6842,1.97632-5.51929,4.00653-6.76508,7.1684-.04559.12201.14673.18506.18762.06909,1.63855-3.64899,5.43134-5.58899,8.55597-7.81812.77411-.57611,1.56256-1.06384,2.21375-1.73871-.00128.71887-.02032,1.43408-.05432,2.14557-1.45734.98511-1.78564,2.59082-2.76129,3.80017-2.64966,2.33533-5.45502,4.77045-7.01111,8.01898-.05334.11896.13434.1936.18268.08051,1.25739-2.39362,3.22333-4.30798,5.28741-6.06201-.76253,1.17968-.57779,2.66364-.67422,3.94668-.01633.12821.18142.15324.19809.02702.15765-.93231.03381-1.88287.3139-2.73132.25342-.81384.76233-1.52954,1.31226-2.20013.27838-.22827.55695-.45587.83337-.68121.84338-.92712,1.38153-2.29706,2.25507-3.11707-.19775,1.63464-.23376,3.3324-.19037,5.0448-.45532.85083-.80499,1.72546-1.19135,2.57257-.3042.70813-.6416,1.3512-1.08014,1.93127-1.98322.9292-4.48792,1.74414-5.43585,3.86847-.03711.13251.17529.17517.19556.04144.82117-1.75189,2.9137-2.56055,4.70642-3.30524-.12677.12457-.2442.25385-.3891.36957-1.6524,1.90771-2.43848,4.30481-3.09961,6.68311-.03125.12823.16559.1701.19397.04852.8302-2.53375,1.79749-5.29352,3.94415-6.98706.99622-1.07416,1.56451-2.46814,2.20599-3.78564.09265,1.99664.25305,3.98938.3504,5.8963-.76538,2.36713-3.17688,4.12427-3.59686,6.6958-.01881.12634.17614.16027.19727.03284.48407-2.15265,2.32092-3.60919,3.42908-5.46033.05212,3.85474-.24457,7.74738.5321,11.55719.0235.12927.22162.08105.19647-.03754-.45142-2.78259-.33032-5.5896-.19238-8.3999.85016,1.72961,2.65619,2.9552,3.6084,4.62872.06506.11072.23474.00885.1734-.09967-1.04871-2.1203-3.55029-3.60504-3.68817-6.08142-.00079-.03009-.01062-.05298-.01819-.07764.04349-1.04598.08298-1.95149.07196-3.0163.03222-.07105.02358-.15451-.00208-.21234-.00897-.93463-.02686-2.79529-.03333-3.45801.37775.65826.78992,1.30609,1.27563,1.89526.7572.97015,1.80957,1.62646,2.29785,2.79486,1.04584,2.24084,1.02631,4.73218,1.22845,7.17804.01178.12793.20544.10419.19611-.01685-.1333-2.23474-.02985-4.7804-.8739-6.92853,1.14294,1.42621,2.09656,3.02484,2.75519,4.70404.02763.13133.23431.0808.19378-.04945-.8489-2.37364-2.2318-4.52798-3.94989-6.36669-.07697-.09692-.13483-.2027-.21893-.29626-1.30365-1.23969-2.15479-2.73553-2.90802-4.36804.00189-.80969.01801-1.61914.0509-2.42822.01093-.04614.01135-.0932.00476-.13947.02808-.66309.06183-1.32599.1012-1.98865.74463.70996,1.62604,1.20648,2.50427,1.70081,1.23096,1.85846,1.32947,5.36273,3.00433,6.94281.04688-.02924.0611-.09094.03186-.13782-.66211-1.07184-1.138-2.24249-1.45319-3.46112-.27435-.94977-.42041-1.96674-.84497-2.91614.68524.40607,1.3446.84705,1.90057,1.43878,1.61682,1.646,2.80847,3.78381,3.16638,6.09869.01923.12946.21191.09802.19836-.02539-.26764-2.29761-1.33514-4.45911-2.86304-6.20557.96881.38873,1.98315.62115,2.96014,1.0047,1.32544.4873,2.59155,1.17999,3.55591,2.21887.03662.03937.09882.0434.13965.00775-1.52637-2.46033-5.13629-2.7157-7.49127-4.13367-.0235-.0174-.05212-.01105-.0788-.01813-1.51617-1.27832-3.53656-2.03058-4.66425-3.62225.04651-.72937.09186-1.45856.13641-2.18738.5329.44623,1.11664.83832,1.74634,1.1134.76343.28412,1.53772.58093,2.30377.90509,1.28442.90643,2.00592,2.51929,3.1322,3.63647.09343.08876.23349-.05374.13916-.14355-.83704-.90063-1.42981-2.09161-2.25134-3.03912,1.89117.88232,3.67535,1.98114,5.04449,3.54388.07275.11304.23901-.00525.16669-.11066-1.35364-1.79401-3.33105-2.92657-5.2453-4.02747-1.73694-.88739-3.68213-1.44904-4.97357-2.95538.03912-.71844.06982-1.43665.09149-2.15448,1.23163.7804,2.75171,1.00818,4.2204,1.17346,2.31628.64008,3.7005,3.37012,5.75037,4.33972.03363-.04382.02533-.10663-.01849-.14026-1.59298-1.18691-2.73206-2.90695-4.37671-4.05237,3.48401.29797,6.28094,3.14783,8.00409,6.02667.06036.11743.23224.02747.1806-.08618-1.37347-2.60577-3.50342-4.86761-6.21722-6.1214-2.40393-.83789-5.66541-.48199-7.52313-2.32898.00531-.49341.01068-.98688.00092-1.47998,1.94879.83374,4.10291.92303,6.16827,1.10907,2.40771.41766,4.6991,1.58521,6.85449,2.73419,1.44122.81885,2.86206,1.71423,4.05011,2.86737.09558.0943.22845-.04846.14447-.13867Z" fill="#fff"/>
      </g>
      <path d="m198.58269,272.11871c-.09106-.11218-1.48981-.98169-3.52728-1.42419-1.84702-.39522-5.35277-.17046-6.92299.94567-.27574.11896-.56309.35962-.88457.35962-.19357-.01715-.32251-.05623-.58087-.04876-.33704-.00001-.72998.03118-.82379.0562-.6178.16486-1.12134.93726-1.36981,1.13123-.237.185-1.14136.02454-1.40973.26862-.08899.08093-.47955,1.8938-1.04266,2.23907-.49786.3053-1.70721.65149-1.86084.75311-.1264.08368-.18884,1.77917-.28583,1.97406-.47742.95929-1.0318,1.43787-1.10889,1.55371-.30792.46234-.2832,1.72339-.34375,2.5849-.06482.92303-1.03046,1.80713-1.02563,1.97559.00714.25122,1.05475,1.29138.70215,2.09875-.59686,1.36688-.38281,1.48132-.17371,1.65747-3.06626,6.24906-4.31337,13.21814-5.20264,20.06726-1.00568-8.08356-2.68207-16.19873-6.19104-23.5979.18262-.29535.09058-.59515-.41937-2.18854-.35651-1.11407.27997-1.83997.31775-2.17438.02533-.2243-.76349-1.63544-.74054-2.87378.02136-1.15588.42139-4.76538.08234-5.41443-.08496-.16266-.74854-.71204-1.06927-1.20789-.15857-.24506-.15387-2.26294-.30524-2.38776-.38549-.15721-.92571.05339-1.36773-.10339-.21833-.05774-.7115-.33289-1.1031-.94959-.33441-.52661-.36334-1.25848-.43628-1.34943-.21112-.26306-.58832-.28174-.6889-.49609-.28717-.61157-.13525-.83954-.23932-.95685-.31366-.3537-.38947-.14038-.66998-.41193-.29479-.28424-.62312-1.7194-.95941-1.71436-.60037.16903-1.62835.36973-2.23468-.04936-.16931-.09395-.66736-1.16091-.94781-1.16799-.38318-.0097-.91718.03491-1.38293-.20557-.53455-.27606-1.05328-1.10321-1.47803-1.10327-.4987.05554-1.28251,1.1092-2.02522.67006-1.58435-.84374-3.2407-1.08585-4.36373-.65512-.50613.55074-.06271,1.83638.07993,3.19857.07867.75177-.43463,1.29895-.40686,1.45258.07379.40808.43085.29486.27142,1.42059-.05469.38574-.4256.77838-.39752,1.06665.01624.1662,1.13867.88037,1.56995,1.24884.35571.30402.21356,1.13489.27893,1.19269.16345.14459,1.51147.61505,1.64252,1.12958.25446.99878-.16443,2.29523.0462,2.55383.2569.31549,3.34082,1.06927,3.90436,2.00037.5636.93109,1.20117,3.08557,1.45837,3.32043.25714.23486,3.86572.09973,5.3573,2.16522.99811,1.38208.78064,2.1142.89996,2.34637.16388.31866,1.58875.25427,2.40228.76868,1.90344,1.20361,1.28302.89557,2.18719,1.33044l.21094.01062c4.10929,9.7467,5.63146,20.45427,6.15479,30.96594-1.22388-2.89685-3.30597-5.16522-5.94531-5.62958-1.28587-4.6187-4.40112-5.43952-7.75509-5.67206-2.1229.00018-4.13798.72546-4.4177,2.08777-.33295,1.62189,1.94318,2.05554,2.15723,2.90948.20428.815-1.14923,2.48083-.19543,3.68024.54877.69012,1.4223.93182,2.37274.93182,1.39795,0,2.96265-.52246,3.90826-.90948,1.90021-.77759,1.94983-1.74487,3.02692-2.36401,3.44244.0658,5.98621,3.55341,6.91913,7.599.08215,5.24707-.08105,10.51117.14514,15.72186.00739.82684,1.24493.79785,1.25012.00006-.09009-4.41656-.02222-8.83008-.08124-13.23602,1.07227-5.31024,4.01807-10.59198,8.43024-11.03094.57123.4126,1.32581.86835,1.91998,1.9256,1.33038,2.36737,4.11151,3.39392,6.2807,3.39392,1.08716,0,2.021-.25812,2.54077-.7345,1.62122-1.48615-.44122-2.68414-.117-3.13818.39673-.55548.84766-.83289.99207-1.1698.89441-2.08728-1.62939-4.58911-4.6593-4.58887-2.27925.05141-5.72188,1.19459-7.24097,3.57715-4.29407.5224-6.88916,4.96051-8.19928,9.04419-.00537-.19019-.01617-.38025-.02228-.57037-.16037-9.96772.91285-20.46407,5.00067-29.66583.53442-.19598,1.16608-.45575,1.55688-.75696.57489-.44293,1.93127-.77576,2.20392-.88861.66205-.27411,1.13593-1.24963,2.00684-2.21722,1.11969-1.20135,1.93507-.96214,2.95648-1.05568.21631-.15911.79449-1.79088,1.29633-2.44933.43454-.61416,1.5172-.26592,2.08871-.48393.18156-.1797.75236-1.19594,1.01756-1.92372.1366-.37494,1.2196-.64264,1.35675-.74023.05487-.03906-.00055-.66614.2973-.87061.36102-.24786,1.22064-.38885,1.24432-.51154.0412-.21283.30066-.84619.28381-1.1366-.04919-.84753,1.42987-.63544,1.51471-.93469.03186-.11261.17126-.6803.54517-1.13019.44647-.53717,2.10254-.64758,1.74445-1.08832Z" fill="#95c172"/>
      <g id="leaf_1_right_hi" data-name="leaf 1 right hi">
        <path d="m181.4799,309.8175c3.13055-.83865,5.74403-.55364,7.35562-.2743,2.99411.51897,4.15976,1.58121,3.76304,2.13671-.32423.45399,1.73822,1.65202.11698,3.13816-1.55673,1.427-6.82427.8945-8.82144-2.65941-.79066-1.40696-1.86579-1.7486-2.41419-2.34116Z" fill="#a6d67c"/>
      </g>
      <g id="leaf_1_left_hi" data-name="leaf 1 left hi">
        <path d="m166.28844,310.80402c-2.02392-.99734-3.71707-1.72952-5.66191-1.82104-2.08784-.09825-4.64233.00358-4.4283.85755.20427.81503-1.14925,2.48087-.19547,3.68027,1.35595,1.70514,4.69247.6724,6.28104.02231,2.35097-.96208,1.86747-2.21508,4.00463-2.7391Z" fill="#a6d67c"/>
      </g>
      <g id="leaf_2_right_hi" data-name="leaf 2 right hi">
        <path d="m198.5827,272.1187c.35806.44077-1.298.55119-1.74443,1.08834-.37392.4499-.51331,1.01758-.54522,1.13019-.0848.29922-1.56388.08713-1.5147.93469.01685.29042-.2426.92373-.28377,1.13657-.02373.1227-.88333.26368-1.24437.51156-.29781.20447-.24241.83155-.29726.87058-.13716.0976-1.22015.36533-1.35678.74026-.2652.72776-.83598,1.74405-1.01757,1.92364-.22151.21907-1.58684-.17449-2.08867.48399s-1.08005,2.29024-1.29637,2.44933-1.65489-.3903-2.95643,1.0557c-.87092.96759-1.34483,1.94314-2.00689,2.21721-.27262.11285-1.53486.55552-2.20387.88865-1.56526.77939-1.7464.76935-1.7464.76935,1.46942-4.35284,6.18501-10.2351,7.04327-11.24535,6.00679-7.07056,13.16835-5.06685,13.25946-4.9547Z" fill="#a6d67c"/>
      </g>
      <g id="leaf_2_left_hi" data-name="leaf 2 left hi">
        <path d="m146.49935,259.97356c-.50615.55066-.06274,1.8363.07988,3.19854.0787.75172-.43458,1.29895-.40683,1.45254.07376.40811.43082.29486.27139,1.4206-.05463.38573-.42555.77841-.39747,1.06669.01619.16619,1.13865.88034,1.56991,1.24884.35574.30397.21357,1.13486.27894,1.19268.16345.14457,1.51146.61504,1.64254,1.12958.25444.99876-.16446,2.2952.04617,2.55381.25694.31547,3.34084,1.06931,3.90441,2.00038s1.20115,3.08554,1.45833,3.32043,3.86572.09973,5.35731,2.1652c.9981,1.3821.78062,2.11424.89999,2.34637.16389.31871,1.58872.25427,2.40229.76871,1.90345,1.2036,2.60452,1.41925,2.60452,1.41925-2.15278-6.37783-5.98824-12.27146-9.71128-15.98037-4.48516-4.46812-6.73286-6.4285-10.00009-9.30323Z" fill="#a6d67c"/>
      </g>
      <path id="root_main_fade" data-name="root main fade" d="m172.375,334.57266c.00014-.00708-.07876-2.80644-.07867-2.8127-.02061-.86599,1.29752-.90417,1.32547-.03705.00625.01448-.00104,2.83175.00322,2.8481-.0029.81676-1.24505.81839-1.25001.00165Z" fill="url(#linear-gradient)"/>
    </g>
  </g>
</svg>