<?xml version="1.0" encoding="UTF-8"?>
<svg id="Layer_2" data-name="Layer 2" xmlns="http://www.w3.org/2000/svg" xmlns:xlink="http://www.w3.org/1999/xlink" viewBox="0 0 346 469">
  <defs>
    <linearGradient id="linear-gradient" x1="173.0422" y1="335.22273" x2="173.0422" y2="331.12504" gradientUnits="userSpaceOnUse">
      <stop offset="0" stop-color="#fff"/>
      <stop offset=".34875" stop-color="#fff"/>
      <stop offset=".90496" stop-color="#fff" stop-opacity="0"/>
      <stop offset="1" stop-color="#fff" stop-opacity="0"/>
    </linearGradient>
  </defs>
  <g id="CASE_2_Plants_LL_WH_CH" data-name="CASE 2 Plants LL WH CH">
    <g id="Day_12" data-name="Day 12">
      <g id="rectangle">
        <rect width="346" height="469" fill="none"/>
      </g>
      <g id="ROOTS_BACK" data-name="ROOTS BACK">
        <path d="m190.59306,340.96875c-.97253-.95984-2.0354-1.75226-3.16052-2.42273.06873-.56177-.18542-1.1582-.89178-1.40985-1.00024-.38245-2.65979-.76807-3.64838-.57495-.7207-.2251-1.45099-.42865-2.19403-.60052-1.95441-.34082-4.04205-.42188-5.82715-1.21161-.00012-.06097.00433-.11578.00378-.17725-.07587-2.30994-3.27667-2.44562-3.70013-.37347-1.22162,1.3678-3.05267,2.19257-4.90668,2.44189-.90326.15399-2.3208-.02753-3.79199.20776-1.54303.16687-5.6709,1.94214-4.07483,3.97284.85094.84135,1.72281.26689,2.43921-.3941.00391.34198.1438.67133.46954.96674.57355.4762,1.4245.39722,1.90063-.17639.60971-.72876,1.24129-1.35039,2.06842-1.50226.83453.0331,1.82187-.04432,2.6814-.23468-1.29614.73987-2.59644,1.56787-3.61407,2.70868-.89008,1.11011-3.06995,3.72833-1.08148,4.74261.68811.2865,1.47827-.03906,1.76483-.72711.75238-1.98145,2.59259-3.13776,4.52319-4.11707-.22626.32324-.42883.6452-.59998.94153-.28253.43481-.44604.65308-.74823.89386-2.40253,1.91193-4.32806,4.30737-5.48041,7.1897-.59796,1.63989,1.80371,2.60229,2.50452,1.00732.35614-.82812.84363-1.6311,1.39844-2.39191,1.07721.91675,2.26556-.16852,2.62787-1.30109.28601-.83191.1593-1.32593.51294-1.91345.54828-.43536,1.10114-.89038,1.49512-1.39606.00421.12323.00531.24969.00873.3736-.88379,1.62091-1.29694,3.31769-2.39459,4.67999-.96954.78387-1.78027,1.79211-2.37805,2.86108-.56525,1.28668-2.55176,4.26038-.44373,5.0368.73352.21649,1.50122-.2265,1.68872-.96625.38794-1.29022,1.11871-2.70935,2.03674-3.73828.31067-.36176.7027-.6618,1.06873-.95435.25183-.23425.47327-.48877.68005-.75262-.00195.06598-.00336.13171-.00586.198-.59094,1.95453-2.87378,3.9079-3.0741,6.20447-.23114,1.72961,2.32196,2.15625,2.66321.44373.03827-.16992.10834-.33368.17017-.49902.06976,1.11127.25537,2.20581.69446,3.24872.5954,1.64575,3.06594.8327,2.5636-.84735-.05658-.16132-.10022-.32446-.14447-.48761.08673.12341.1731.24567.26001.38776.70819,1.07898,2.11353.61444,2.43073-.32239.32298,1.57652,2.64636,1.33227,2.64062-.27966.00281-.11719-.01538-.75635-.01099-.87616-.00623-.33234-.02325-.66345-.04645-.99365,2.86436-1.04765-.51868-4.21827-1.79358-5.29987-1.3421-1.51575-2.32294-2.60864-3.18439-4.50085.01392-.30255.02979-.60614.04883-.91107.00891.0271.01202.05682.02185.08337.31537.91522.7536,1.51776,1.0542,2.33368.46052,1.23533,2.34121,1.0643,2.57367-.21924.51624.63531.63477,1.43848.82446,2.44788.29913,1.72192,2.86475,1.35535,2.67224-.38092-.05908-.46667-.12408-.94769-.23077-1.44263.30505-.04364.59772-.21765.87897-.61926.40607-.83148.17438-1.3775-.33344-1.77405.42761.23145.96039.24335,1.39246-.04926,1.8338-1.52911-1.15314-3.51849-2.18829-4.2901-.12646-.09973-.26379-.17798-.39514-.26813.3963-.13239.71521-.45282.86707-.84064.90723.39905,1.63885.94958,2.14343,2.0033.3222.64172,1.09943.92279,1.76178.62329,1.87494-1.06189-.04633-3.44031-1.53961-4.5752,1.65222.67157,3.20966,1.56409,4.43494,2.71771,1.27118,1.19946,3.10168-.62939,1.91357-1.90326Zm-15.64337,15.43219c-.54553-.53778-.59485-.72095-.6601-1.32703.07538-.60919.16064-1.22083.23804-1.83246.36737.41107.74542.80243,1.1261,1.16412.94873,1.18274,1.27173,2.96259,1.33807,4.51147.00146.02094.00189.03827.00299.05804-.01013-.02039-.01501-.04028-.02625-.06073-.46857-.89587-1.30627-1.87604-2.01886-2.51343Zm6.76074-9.27887c.07843.11926.18445.20636.29028.29199-.71417-.45355-1.78485-.70154-2.51599-1.0058-.71375-.56201-1.50909-1.02765-2.22821-1.52905-.56158-.35162-1.37036-.84711-2.00403-1.35614,2.20533.94652,4.95754,1.75963,6.45795,3.599Zm-5.42218-6.52362c.3985.08289.79596.159,1.19232.2345.24664.21887.53516.47076.83856.72968-.69733-.29449-1.38397-.59833-2.03088-.96417Z" fill="#4c4c4c"/>
      </g>
      <path d="m193.82457,279.23926c-.47419-.74648-3.30657-1.94924-4.90743-1.85029-1.15408-.02932-3.98303.41408-4.86644,1.31812-.0719.04102-.14496.08746-.21851.13611-.32507-.01084-.86432.0004-1.31494.13219-.64325.2165-1.07825.72505-1.37763,1.10573-.36713.03314-.90961.11157-1.31451.53961-.43758.47572-.44861,1.30963-.77222,1.93524-.42663.23877-1.08121.4394-1.39807.68713-.55333.30194-.58136,1.47972-.68011,2.35841-.30262.63718-.5379.81928-.77534,1.18475-.37836.56801-.41816,1.84613-.48264,2.85407-.13182.68941-.85177,1.13341-.83656,1.89959-.00241.59906.39533.96575.56237,1.47699-.27771.7124-.47473,1.36938-.3255,1.96021-.7428,1.90265-1.39417,3.83527-1.94818,5.79382-.22607-.99335-.50262-1.97742-.83331-2.95123.07092-.5025-.04852-1.14948-.27075-2.29346-.12154-.62772.34089-.92329.44158-1.52118.11333-.86304-.49257-1.89122-.37359-2.86078.27437-1.73055.77414-5.37666.43578-5.59053-.14288-.39675-.53077-.79536-.76402-1.19736.04674-1.96393.24364-3.17814-1.86493-3.24506-.21218-.15131-.37539-.70841-.36629-1.02144.02475-.44564-.31119-1.07848-.67314-1.3173.11128-.43343-.30067-1.29441-.77692-1.54297-.23637-.85245-.43759-2.06138-1.62964-2.14056l-.0965-.00171c-.29628-.00131-.47323.06707-.74255.09283-.05077.0002-.10314-.00836-.15265-.0235-.29064-.64801-.60779-1.39168-1.44159-1.52039-.15755-.02673-.48139-.04873-.58966-.10736-.49153-.58065-.94916-1.47335-2.00323-1.42786-.46297.03175-.81903.26215-1.15247.46814-1.48846-1.04816-2.8233-1.21136-3.50909-1.21136-.89081,0-1.25482.25665-1.45111.44977-.97576.94557-.56236,2.56328-.56354,3.88989-.08563.48812-.5127.72686-.45382,1.39442.0242.32531.1221.55474.18808.69304-.00415.04828-.01483.1322-.04224.26404-.93293,1.35292-.31825,2.09614.91162,3.23419-.01217.40316-.12108.77357.27086,1.28412.26245.31604.67945.50716,1.02351.80572.01031.87106-.49511,1.85353-.01728,2.64441.40024.75672,2.49026,1.4581,3.05653,2.17114.30858.68029.69148,3.09681,1.10485,3.49206.3017.37756.69373.48566,1.2364.63525.83112.22913,2.37823.65564,2.94214,1.73932.4021.77277.40265,1.17871.40308,1.44733-.11355.98742.79616,1.62847,1.5821,1.80865.26372.08826.66228.2215.81084.3526.96312.82449.92417.91487,1.71149,1.46997.55914,2.21161.75085,4.66144.95966,6.89886.17651,2.7514.30139,5.5036.40192,8.25677-1.30468-1.44101-3.20926-2.77868-4.7702-3.17456-5.78886-10.24852-19.5782-.27386-11.26617,3.07452-.78664,4.54592,4.55172,5.70067,7.86293,3.60468,1.70649-1.05873,1.90701-2.31535,2.74974-3.49116,2.40109.87368,4.85116,4.02133,5.60419,6.26019.08899,4.63617.09991,9.27942.06354,13.93683.06061,2.43427,3.6048,2.48401,3.74744.0683.2262-4.59467.1709-9.33618-.01306-14.02728.72135-2.88549,2.78191-7.86598,6.17578-9.17981.34338.35577.69623.77222.98712,1.33575,1.2547,2.43103,4.17194,4.26428,6.78571,4.26428,3.3193.09249,4.57941-3.36927,3.13916-5.41412,2.61935-3.3366-.75502-7.12303-4.49859-7.0808-2.21701.01696-5.02268,1.43808-6.72626,3.57561-2.39881.50198-4.6455,2.64683-6.03253,4.83112.18988-5.81854,1.40533-11.71448,3.35944-17.12085.32733-.177.64624-.37933.90326-.61145.32624-.25409,1.11468-.4937,1.45093-.65943.93204-.47306,1.36554-1.56387,2.02094-2.37932.3908-.4997.69653-.5019.94244-.5019.35272-.01174.69713.06118,1.20393-.33806.45697-.34002.82244-1.66115,1.17907-2.31154.53358-.03614,1.09195.0569,1.62617-.51891.29345-.33601.72008-1.24116.96606-1.88563.2872-.14611.54287-.21651.78693-.4201.33459-.28027.42145-.62927.45404-.85718.41014-.16133,1.04098-.37579,1.19385-1.14514.06627-.2235.16147-.53429.20496-.74774.36084-.09509,1.01282-.31842,1.20886-1.0603.07031-.27399.14301-.43903.20203-.54022.61022-.31242,1.36519-.45372,1.6407-1.33654.11608-.40625.03997-.84339-.20875-1.19941Z" fill="#2e541a"/>
      <g id="ROOTS">
        <path d="m189.69139,341.83435c-1.75751-1.70959-3.94189-2.97003-6.27295-3.80194.00751.00049.01904-.00171.02539-.00043.89655-.05511,1.78101.22223,2.63843.47974.12149.04034.18612-.14971.06323-.18964-1.05762-.41357-2.25769-.63391-3.37463-.49945-2.86762-1.04736-6.10776-.74154-8.84113-2.12848-.12451-.07043-.23206-.15448-.32135-.23883.00647-.29431.01996-.58624.0166-.88348-.01111-.80646-1.22559-.80432-1.24945-.01141-.0033.04932-.00507.1012-.0083.15063-1.41522,1.77429-3.6416,2.8692-5.9538,3.17096-2.38843.15369-5.3988-.15466-7.14105,1.96808-.08929.09332.05994.22815.14453.13837,1.34387-1.43036,3.08081-1.56885,4.87024-1.55707-.8764.39838-1.63574,1.0694-2.19275,1.86121-.07971.10223.07916.22516.15729.12366.77826-1.0163,1.82281-1.77606,3.05347-1.97083.39301.00616.78552.00964,1.17389-.00226,2.08887-.18219,4.19623-.97711,5.81543-2.41272-.03198.60132-.05402,1.20422-.07172,1.81604-.82953,1.59845-3.12567,2.24792-4.59802,3.28192-1.73688,1.04413-3.2702,2.58551-3.93817,4.53296-.04401.12262.14594.18756.18768.06915.74927-1.8584,2.26801-3.23773,4.00568-4.172,1.41388-.89368,3.10938-1.28906,4.31525-2.45288-.00488.69086.01373,1.3808.04071,2.0719-1.0213.5672-1.67657,1.61029-2.24988,2.55518-.5603.98779-1.54004,1.51758-2.31122,2.30249-1.60815,1.5788-2.96417,3.43335-3.78687,5.53406-.04785.12329.1427.19043.18616.07312.93508-2.13046,2.42413-4.01265,4.18201-5.5144-.37937.83044-.13245,1.84725-.82202,2.53333-.0854.0956.06289.23001.14874.13379.85925-.85352.51514-2.22662,1.25952-3.14575.60901-.46954,1.22339-.93701,1.6286-1.58618.54456-.80383,1.07373-1.54626,1.79388-2.02417.05042.81067.12634,1.61676.23938,2.41034.00354.45685.00867.92645.01538,1.39795-1.02689,1.69086-1.48128,3.84111-2.81592,5.26147-1.73608,1.39435-2.8125,3.51416-3.36603,5.64191-.03082.1275.16528.17035.19403.04852.63525-2.05096,1.7381-4.03198,3.49194-5.32733,1.22754-1.22186,1.77789-2.828,2.52576-4.30713.03638,1.31219.10254,2.63165.24799,3.87146.01459.30884.01306.61804.00427.92749-.50525,2.28558-2.80457,3.89008-3.11865,6.30145-.02075.12701.17706.1568.19727.03284.35394-1.91815,1.88666-3.20245,2.82281-4.83984-.30518,2.46661-.4591,5.04132.46163,7.40264.04041.11879.22904.05878.18992-.0628-.52637-1.4826-.5625-2.98029-.44135-4.4856.66016,1.24744,2.11389,2.03937,2.79816,3.32446.06616.1109.23694.01074.1734-.09961-.74298-1.64978-2.78986-2.51056-2.84894-4.43323.22131-1.82367.54254-3.65576.39569-5.48358.31732.56641.65411,1.12653,1.04877,1.64709.60242.88904,1.52209,1.57465,2.17047,2.38757,1.35004,1.71686,1.45599,3.92969,1.6402,6.04736.01392.12744.20728.10175.19623-.01984-.08624-1.82715-.14996-3.84039-1.03223-5.51843.13245.12408.3891.36456.3891.36456.5415.56262,1.22681,1.11401,1.45264,1.87549.03065.1254.22777.07624.19378-.04945-.46338-1.27976-1.49876-1.90558-2.57544-3.02611-1.41089-1.54236-2.65338-3.08258-3.47217-5.03967.04816-1.22278.13293-2.45599.16095-3.68787.69196.61603,1.48346,1.08484,2.28607,1.53949-.04584,1.07703.79016,1.96466,1.09821,2.95972.01978.04999.07593.07599.12701.05768.14148-.63837-.96252-1.9353-.95282-2.86285.47113.26721.94043.53796,1.3877.84259.81305.508,1.63208.96814,2.09045,1.76941.46381.78998.65802,1.73578.80939,2.66418.01947.1283.21265.09967.19836-.02539-.112-.94641-.25604-1.91705-.71936-2.8028-.18073-.28394-.38965-.53802-.61194-.77789.70196.19137,1.41157.37756,2.03528.7447.04663.02697.10681.01232.13544-.03394-.40161-.62769-1.73395-.76709-2.64917-1.16064-1.62097-1.43652-3.85834-2.21661-5.2287-3.89032-.00751-.83514-.05023-1.6684-.16962-2.49524-.0025-.0553.00116-.11151-.00079-.16687.50543.46173,1.06317.87695,1.67596,1.18042,2.7016,1.15881,5.73901,1.89728,7.63641,4.28723.07507.10693.23511-.00519.16669-.11066-1.17639-1.66382-3.02557-2.65338-4.81207-3.53284-1.78503-.72198-3.48792-1.38428-4.67242-2.93115.00818-.5058.02582-1.01514.05286-1.52728.73566.46283,1.57654.71649,2.35394.8913.66779.16498,1.37842.30212,2.1004.44379.98737.61481,2.23889,2.08325,2.78094,2.06396.03351-.04388.02515-.10663-.01874-.1402-.54694-.41803-1.07666-.85614-1.57233-1.32782-.14514-.15033-.30151-.30243-.46387-.45032,2.61102.5343,5.24365,1.2738,6.48334,3.75836.06049.11548.23181.0282.18054-.08624-1.50494-3.5614-6.03052-4.03333-9.31-4.97217-.94293-.25549-1.84119-.62878-2.48132-1.24207.01477-.26404.02948-.52765.04193-.79382.33984.16492.71252.27905,1.07544.41022,2.23657.69897,4.58148.53503,6.83551,1.06476,2.90265.75281,5.85138,1.93451,8.05438,4.02454.0946.09387.22833-.04816.14441-.13861Z" fill="#fff"/>
      </g>
      <path d="m178.11467,294.21301c.45428-.41028,1.513-.74066,1.72662-.84821.51886-.26123.90466-1.14587,1.59839-2.03296.92232-1.13293,1.55052-.89948,2.31372-1.01571.17084-.14762.64972-1.62229,1.05133-2.22379s1.4538-.2818,1.62976-.48322c.14423-.1651.60596-1.08856.8252-1.7464.11298-.33893.95831-.60449,1.06659-.69519.04327-.03625.0119-.59631.24677-.78644.28479-.23059.95441-.37732.9751-.48773.03589-.19153.24896-.76471.24127-1.02429-.02252-.75757,1.12134-.60309,1.19269-.87299.02686-.10156.14551-.6131.44397-1.02484.35638-.49152,1.64355-.63,1.37384-1.01599-.0686-.09827-1.13794-.8432-2.71088-1.19067-.39155-.08649-.771-.12567-1.172-.12567-.74982,0-1.57446.13721-2.69092.35919-.75928.15094-1.41833.72198-1.52679.77869-.22003.11505-.45166.3432-.70636.3432-.26922-.06541-.9298-.00691-1.07691.04011-.48248.16235-.88751.8659-1.08392,1.04546-.18732.17126-.88617.04926-1.09888.27417-.07062.07458-.40717,1.70685-.85059,2.02942-.39197.28522-1.33685.62408-1.45795.71875-.09961.07788-.17944,1.59723-.2583,1.77405-.38824.87018-.82727,1.31189-.88928,1.41742-.24744.42126-.25165,1.54962-.31451,2.32239-.06738.82782-.83307,1.6424-.83246,1.79309.00085.22473.79456,1.13086.50604,1.86206-.49976,1.26654-.31665,1.33905-.15454,1.49866-1.71716,4.1651-2.88538,8.54022-3.55048,12.99823-.25818-3.453-.71906-6.88232-1.86713-10.13403.11133-.2475.03937-.62762-.22632-1.99512-.20898-1.0755.38214-1.68536.44067-1.9931.03925-.2063-.50775-1.60382-.3891-2.75543.11078-1.07489.73566-4.39667.50397-5.03699-.05811-.16046-.5694-.74182-.7981-1.23743-.1131-.24493.05298-2.12488-.06366-2.25702-.14178-.16052-.65192-.03052-1.13672-.23932-.17816-.07666-.56885-.38464-.84717-1.00031-.23767-.52576-.20306-1.21075-.25684-1.30316-.15558-.26721-.46985-.32404-.53687-.5343-.19122-.59998-.04572-.79651-.12341-.91675-.23419-.36243-.31476-.17151-.52777-.45392-.22339-.29614-.38629-1.67267-.66547-1.69788-.56047.09815-1.38321.17184-1.86675-.27969-.13423-.10526-.46547-1.15164-.69966-1.18753-.32001-.04913-.77063-.06342-1.14117-.33624-.43719-.32184-.81354-1.18445-1.17834-1.18451-.40358.03956-1.15542.88812-1.71961.41451-1.50283-1.06687-2.57147-1.31311-3.60045-1.06691-.46797.46032-.20008,1.70477-.19014,2.98913.00549.70874-.4682,1.16504-.45728,1.31104.02893.38806.33698.31982.11304,1.35223-.07672.35376-.41876.68085-.41846.95245.00024.15656.88251.93945,1.21393,1.32794.27338.32043.08765,1.0799.1377,1.14062.12524.15179,1.21588.7312,1.2843,1.22437.13275.95734-.32208,2.12164-.1665,2.3847.1897.32086,2.71088,1.34583,3.10785,2.2724s.75763,3.00098.95404,3.24677,3.22821.49719,4.31091,2.57794c.72449,1.39233.48364,2.05188.56494,2.28064.11157.31415,1.30951.40308,1.94928.96759,1.49677,1.32068,1.00214.96869,1.72412,1.46851l.0694.01263c1.8098,6.47728,1.44921,13.44078,1.82416,20.11731-1.26941-2.49999-4.29364-5.73738-6.99982-6.12622-1.63123-3.20541-4.01919-4.31299-6.31375-4.37394-2.53561.00003-5.37204,1.79911-5.41555,3.45377-.04016,1.52814,2.14252,1.53912,2.48242,2.27826.32446.70544-.4187,2.25018.66449,3.17853,1.45544,1.2751,3.94153.90357,5.37256-.00001,1.86779-1.17229,1.6405-2.87938,3.09106-3.79064,3.07292.51643,6.35591,4.65816,7.18719,7.45129.11908,4.69543.12384,9.37848.05377,14.10394.00226.81409,1.2207.81116,1.24915.0224.20038-4.66034.13995-9.38538-.03394-14.0777.80322-3.54301,3.50633-9.59014,7.79565-10.5014.48529.48993,1.19934,1.11902,1.74719,2.18036,1.1037,2.13837,3.69873,3.58759,5.67493,3.58759.96246,0,1.77838-.34399,2.20325-1.11957.93958-1.71521-.72522-2.81451-.44189-3.2193.34668-.49524.78467-1.26746.91309-1.56812.79633-1.86499-1.44281-4.08813-4.03406-4.08795-1.90174.018-4.60458,1.41015-5.99438,3.46069-4.0329.64129-6.66003,5.34192-7.96375,8.95129-.00342-.07635-.00696-.15247-.01038-.22876.01556-.06329.03149-.12665.02612-.20258-.3504-7.67999.77576-15.62433,3.53162-22.83417.38287-.17883.8045-.40356,1.07709-.64972Z" fill="#95c172"/>
      <g id="leaf_1_right_hi" data-name="leaf 1 right hi">
        <path d="m181.13877,309.68065c2.17282-.99954,4.25833-1.07358,6.09833-.64064,1.69371.39852,3.67888,1.83708,3.3322,2.33233-.28333.40475,1.38149,1.50406.44189,3.2193-1.29717,2.36799-6.23696.7118-7.87817-2.46804-.64974-1.25887-1.5373-1.91219-1.99424-2.44295Z" fill="#a6d67c"/>
      </g>
      <g id="leaf_1_left_hi" data-name="leaf 1 left hi">
        <path d="m165.52295,312.73559c-2.50915-1.47769-3.55693-1.63512-5.36163-1.40895-2.6034.32626-4.49532,1.49108-4.1554,2.23022.32443.70544-.4187,2.25016.66447,3.17852,1.53989,1.3198,4.007.85705,5.37255,0,2.0209-1.26836,1.58483-3.16497,3.48001-3.99978Z" fill="#a6d67c"/>
      </g>
      <g id="leaf_2_right_hi" data-name="leaf 2 right hi">
        <path d="m192.7999,279.95526c.2697.38603-1.01745.52448-1.37382,1.01603-.29848.4117-.41715.92325-.444,1.02482-.07134.2699-1.21519.1154-1.19271.87299.0077.25959-.20535.83276-.24123,1.02428-.02069.11041-.69035.25718-.9751.48772-.23489.19017-.20349.75022-.24678.78648-.10824.09065-.9536.35623-1.06656.69514-.21926.65786-.68099,1.58132-.82522,1.74644-.17594.20142-1.22817-.11827-1.62977.48322s-.88049,2.07612-1.0513,2.22372-1.27698-.30984-2.31373,1.01579c-.69374.88705-1.07954,1.77172-1.59837,2.03291-.21364.10755-1.20133.53402-1.72665.84824-1.22907.73517-1.36945.7305-1.36945.7305,1.2208-3.93195,5.40019-9.34648,6.08489-10.27142,4.7921-6.47343,9.90118-4.81509,9.9698-4.71687Z" fill="#a6d67c"/>
      </g>
      <g id="leaf_2_left_hi" data-name="leaf 2 left hi">
        <path d="m156.23129,272.69881c-.46796.46022-.20006,1.70465-.19011,2.98901.00549.70875-.46817,1.16502-.45728,1.31105.02896.38803.33697.31983.11306,1.35221-.07673.35375-.41879.68088-.41845.95246.0002.15657.88249.93945,1.21391,1.32794.27339.32046.08761,1.07989.13769,1.1406.12522.15181,1.2159.73121,1.2843,1.22441.13276.95733-.32209,2.12166-.16654,2.38468.18975.32085,2.71087,1.34583,3.10786,2.27242s.75764,3.00097.95407,3.24675,3.22817.49719,4.31091,2.57795c.72451,1.39233.48363,2.05186.56491,2.28066.11159.31414,1.30957.40309,1.94931.96757,1.49677,1.32067,2.06635,1.59494,2.06635,1.59494-2.42753-5.56879-3.68069-11.67385-6.49945-15.51945-3.39576-4.6328-6.01987-6.93194-7.97054-10.10318Z" fill="#a6d67c"/>
      </g>
      <path id="root_main_fade" data-name="root main fade" d="m172.375,334.57266l.00827-2.80002c.00108-.36615.2988-.66211.66496-.66104.3756.00022.67732.31661.66049.69168-.00515.04053-.08041,2.75149-.0844,2.79012-.02663.80561-1.2493.78506-1.24932-.02074Z" fill="url(#linear-gradient)"/>
    </g>
  </g>
</svg>