<?xml version="1.0" encoding="UTF-8"?>
<svg id="Layer_2" data-name="Layer 2" xmlns="http://www.w3.org/2000/svg" viewBox="0 0 394 469">
  <g id="Ruler_and_Lines" data-name="Ruler and Lines">
    <g id="in_Ruler" data-name="in Ruler">
      <g id="rectangle">
        <rect y="0" width="394" height="469" fill="none"/>
      </g>
      <g>
        <path d="m335.00023,0v335.90033c0,2.20557,1.79443,4,4,4h36c2.20557,0,4-1.79443,4-4V0h-44Z" fill="#eacc85" opacity="1"/>
        <path d="m377.99999,0v335.90021c0,1.6568-1.34314,3-3,3h-36c-1.6568,0-3-1.3432-3-3V0h-2v335.90021c0,2.75696,2.24304,5,5,5h36c2.75702,0,5-2.24304,5-5V0h-2Z" fill="#7f6d00"/>
      </g>
      <g id="ticks_quarter_numbers" data-name="ticks quarter numbers">
        <g id="_0.25" data-name="0.25">
          <rect x="336.00023" y="323.75824" width="6" height="1"/>
        </g>
        <g id="_0.75" data-name="0.75">
          <rect x="336.00023" y="308.47357" width="6" height="1"/>
        </g>
        <g id="_1.25" data-name="1.25">
          <rect x="336.00023" y="293.18939" width="6" height="1"/>
        </g>
        <g id="_1.75" data-name="1.75">
          <rect x="336.00023" y="277.90521" width="6" height="1"/>
        </g>
        <g id="_2.25" data-name="2.25">
          <rect x="336.00023" y="262.62103" width="6" height="1"/>
        </g>
        <g id="_2.75" data-name="2.75">
          <rect x="336.00023" y="247.33685" width="6" height="1"/>
        </g>
        <g id="_3.25" data-name="3.25">
          <rect x="336.00023" y="232.05267" width="6" height="1"/>
        </g>
        <g id="_3.75" data-name="3.75">
          <rect x="336.00023" y="216.76849" width="6" height="1"/>
        </g>
        <g id="_4.25" data-name="4.25">
          <rect x="336.00023" y="201.48383" width="6" height="1"/>
        </g>
        <g id="_4.75" data-name="4.75">
          <rect x="336.00023" y="186.19965" width="6" height="1"/>
        </g>
        <g id="_5.25" data-name="5.25">
          <rect x="336.00023" y="170.91547" width="6" height="1"/>
        </g>
        <g id="_5.75" data-name="5.75">
          <rect x="336.00023" y="155.63129" width="6" height="1"/>
        </g>
        <g id="_6.25" data-name="6.25">
          <rect x="336.00023" y="140.34711" width="6" height="1"/>
        </g>
        <g id="_6.75" data-name="6.75">
          <rect x="336.00023" y="125.06293" width="6" height="1"/>
        </g>
        <g id="_7.25" data-name="7.25">
          <rect x="336.00023" y="109.77826" width="6" height="1"/>
        </g>
        <g id="_7.75" data-name="7.75">
          <rect x="336.00023" y="94.49408" width="6" height="1"/>
        </g>
        <g id="_8.25" data-name="8.25">
          <rect x="336.00023" y="79.2099" width="6" height="1"/>
        </g>
        <g id="_8.75" data-name="8.75">
          <rect x="336.00023" y="63.92572" width="6" height="1"/>
        </g>
        <g id="_9.25" data-name="9.25">
          <rect x="336.00023" y="48.64154" width="6" height="1"/>
        </g>
        <g id="_9.75" data-name="9.75">
          <rect x="336.00023" y="33.35736" width="6" height="1"/>
        </g>
        <g id="_10.25" data-name="10.25">
          <rect x="336.00023" y="18.07318" width="6" height="1"/>
        </g>
        <g id="_10.75" data-name="10.75">
          <rect x="336.00023" y="2.78851" width="6" height="1"/>
        </g>
      </g>
      <g id="ticks_half_numbers" data-name="ticks half numbers">
        <g id="_0.5" data-name="0.5">
          <rect x="336.00023" y="316.11566" width="9" height="1"/>
        </g>
        <g id="_1.5" data-name="1.5">
          <rect x="336.00023" y="285.5473" width="9" height="1"/>
        </g>
        <g id="_2.5" data-name="2.5">
          <rect x="336.00023" y="254.97894" width="9" height="1"/>
        </g>
        <g id="_3.5" data-name="3.5">
          <rect x="336.00023" y="224.41058" width="9" height="1"/>
        </g>
        <g id="_4.5" data-name="4.5">
          <rect x="336.00023" y="193.84174" width="9" height="1"/>
        </g>
        <g id="_5.5" data-name="5.5">
          <rect x="336.00023" y="163.27338" width="9" height="1"/>
        </g>
        <g id="_6.5" data-name="6.5">
          <rect x="336.00023" y="132.70502" width="9" height="1"/>
        </g>
        <g id="_7.5" data-name="7.5">
          <rect x="336.00023" y="102.13617" width="9" height="1"/>
        </g>
        <g id="_8.5" data-name="8.5">
          <rect x="336.00023" y="71.56781" width="9" height="1"/>
        </g>
        <g id="_9.5" data-name="9.5">
          <rect x="336.00023" y="40.99945" width="9" height="1"/>
        </g>
        <g id="_10.5" data-name="10.5">
          <rect x="336.00023" y="10.43109" width="9" height="1"/>
        </g>
      </g>
      <g id="ticks_whole_numbers" data-name="ticks whole numbers">
        <g id="_0" data-name="0">
          <rect x="336.00023" y="331.40033" width="13" height="1"/>
        </g>
        <g id="_1" data-name="1">
          <rect x="336.00023" y="300.83148" width="13" height="1"/>
        </g>
        <g id="_2" data-name="2">
          <rect x="336.00023" y="270.26312" width="13" height="1"/>
        </g>
        <g id="_3" data-name="3">
          <rect x="336.00023" y="239.69476" width="13" height="1"/>
        </g>
        <g id="_4" data-name="4">
          <rect x="336.00023" y="209.12592" width="13" height="1"/>
        </g>
        <g id="_5" data-name="5">
          <rect x="336.00023" y="178.55756" width="13" height="1"/>
        </g>
        <g id="_6" data-name="6">
          <rect x="336.00023" y="147.9892" width="13" height="1"/>
        </g>
        <g id="_7" data-name="7">
          <rect x="336.00023" y="117.42084" width="13" height="1"/>
        </g>
        <g id="_8" data-name="8">
          <rect x="336.00023" y="86.85199" width="13" height="1"/>
        </g>
        <g id="_9" data-name="9">
          <rect x="336.00023" y="56.28363" width="13" height="1"/>
        </g>
        <g id="_10" data-name="10">
          <rect x="336.00023" y="25.71527" width="13" height="1"/>
        </g>
      </g>
      <g id="in_labels" data-name="in labels">
        <g>
          <path d="m369.89476,333.9516c0,.16309-.04102.29004-.12305.38086-.08105.0918-.19434.13672-.33887.13672-.14941,0-.26367-.04492-.34375-.13672-.0791-.09082-.11816-.21777-.11816-.38086,0-.16797.03906-.29688.11816-.38574.08008-.08789.19434-.13281.34375-.13281.14453,0,.25781.04492.33887.13281.08203.08887.12305.21777.12305.38574Zm4.17188,0c0,.13965-.04199.24707-.12598.32129-.08398.0752-.20117.1123-.34961.1123h-2.56934c-.1543,0-.27148-.03711-.35352-.1123-.08203-.07422-.12305-.18164-.12305-.32129,0-.14062.04102-.24902.12305-.32617.08203-.07617.19922-.11523.35352-.11523h2.56934c.14844,0,.26562.03711.34961.1123.08398.07422.12598.18457.12598.3291Z"/>
          <path d="m374.07347,332.16644c0,.13965-.03809.24707-.11523.32129-.07715.0752-.1875.1123-.33301.1123h-2.64551c-.14453,0-.25488-.03711-.3291-.1123-.07422-.07422-.1123-.17969-.1123-.31445,0-.13574.03809-.24023.1123-.31543.07422-.07422.18457-.11133.3291-.11133h.47559l-.1748.07617c-.24707-.10254-.43457-.26172-.56348-.47949-.12793-.2168-.19238-.46289-.19238-.73828s.05176-.50098.1543-.67871.25781-.31055.46484-.39941c.20801-.08789.4707-.13281.78809-.13281h1.69336c.14551,0,.25586.03711.33301.1123.07715.07422.11523.18164.11523.32227,0,.13965-.03809.24805-.11523.3252s-.1875.11523-.33301.11523h-1.65137c-.2666,0-.45996.05078-.58105.15039-.12109.10059-.18262.25586-.18262.46582,0,.25684.08105.46094.24219.6123s.37402.22754.64062.22754h1.53223c.29883,0,.44824.14746.44824.44141Z"/>
        </g>
        <path d="m358.08714,331.90082c0,.58301-.21973,1.02832-.66113,1.33691-.44141.30762-1.06934.46191-1.88672.46191-.55078,0-1.01367-.06934-1.38965-.20703-.375-.1377-.6582-.33984-.84961-.6084s-.28711-.59668-.28711-.9834c0-.58887.21387-1.03516.64355-1.34082s1.05469-.45898,1.87598-.45898c.5459,0,1.00977.06934,1.38965.20703s.66992.33984.86816.60547.29688.59473.29688.9873Zm-.73438,0c0-.31738-.14746-.55176-.44141-.7041-.29395-.15137-.75293-.22754-1.37891-.22754-.625,0-1.0791.07617-1.36133.22754-.28223.15234-.42383.38672-.42383.7041,0,.3125.1416.5459.42383.69922.28223.1543.73633.23145,1.36133.23145.62598,0,1.08496-.07715,1.37891-.23145.29395-.15332.44141-.38672.44141-.69922Z"/>
        <path d="m358.01781,302.34027c0,.12109-.03418.21582-.10156.2832s-.16016.10156-.27637.10156c-.12207,0-.21289-.03418-.27344-.10156s-.09082-.16211-.09082-.2832v-.78418h-3.4375v-.43359l.62305,1.02832c.05176.08887.07129.17188.05957.24902s-.04395.14258-.09766.19531c-.05371.05371-.11816.08984-.19238.10938-.0752.01855-.15039.0127-.22754-.01758s-.1416-.08984-.19238-.17871l-.58105-.96582c-.05664-.09375-.10352-.18652-.14355-.28027s-.05957-.17969-.05957-.25879c0-.09863.02734-.17969.08008-.24512.05371-.06543.1416-.09863.2627-.09863h3.90625v-.71387c0-.12109.03027-.21582.09082-.2832s.15137-.10156.27344-.10156c.12109,0,.21484.03418.2793.10156.06543.06738.09863.16211.09863.2832v2.39453Z"/>
        <path d="m358.01781,271.93109c0,.14941-.03418.25781-.10156.3252s-.16699.10156-.29785.10156c-.0791,0-.15625-.02148-.23047-.06348-.0752-.04199-.1543-.10254-.23828-.18164l-1.49805-1.40723c-.22363-.21387-.42773-.36816-.6123-.46191-.18457-.09277-.37012-.13965-.55664-.13965-.2334,0-.41113.07324-.53223.2207-.12109.14648-.18164.36035-.18164.63965,0,.15918.02246.31738.06641.47656.04395.1582.12012.31934.22754.48242.05566.08496.0791.16309.07031.23535-.00977.07227-.04004.13477-.0918.18848-.05078.05371-.11426.08984-.18848.1084-.0752.01855-.15039.01562-.22754-.00977-.07715-.02637-.14355-.08105-.19922-.16504-.13574-.2002-.23828-.42578-.30859-.67578-.07031-.24902-.10449-.5-.10449-.75195,0-.35449.05371-.65332.16016-.89648.10742-.24219.26465-.42676.46973-.55273s.45508-.18945.74902-.18945c.19531,0,.38672.03223.57422.09473.18652.06348.375.15918.56641.28711.19141.12891.39453.29492.60938.50098l1.37207,1.31543h-.23828v-2.05762c0-.12598.03027-.22168.09082-.28711s.15137-.09766.27344-.09766c.12109,0,.21484.03223.2793.09766.06543.06543.09863.16113.09863.28711v2.57617Z"/>
        <path d="m358.08714,240.29242c0,.25195-.03223.51367-.09766.78418s-.16309.50586-.29395.70703c-.06055.09277-.13086.15625-.20996.18848-.0791.0332-.15527.04102-.22754.02441-.07227-.01562-.13379-.05078-.18555-.10449-.05078-.05371-.08105-.12109-.09082-.20312s.01172-.17188.0625-.26953c.10352-.19141.17676-.37598.2207-.55273.04492-.17773.06641-.35938.06641-.5459,0-.20605-.02734-.37793-.08398-.51855-.05566-.13965-.13965-.24609-.25195-.31836-.11133-.07227-.24707-.1084-.40625-.1084-.23242,0-.40625.07812-.52148.23438-.11426.15625-.1709.38379-.1709.68262v.44824c0,.13086-.0332.22949-.09863.29688-.06445.06836-.15625.10156-.27246.10156s-.20801-.0332-.27344-.10156c-.06445-.06738-.09766-.16602-.09766-.29688v-.36426c0-.17773-.0293-.3291-.08789-.45508-.05762-.12598-.14062-.22363-.24805-.29395s-.23828-.10547-.3916-.10547c-.21484,0-.37891.07129-.49023.21387-.1123.14258-.16797.34863-.16797.61914,0,.17285.01953.33496.05957.4873.03906.15137.11328.31836.21973.5.05176.08398.07324.16504.06348.24121-.00977.07715-.04004.1416-.09082.19336-.05176.05078-.11328.08594-.18555.10449s-.14746.01367-.22461-.01367c-.07617-.02832-.14258-.08691-.19922-.1748-.13086-.20117-.22949-.42285-.29688-.66504-.06836-.24316-.10156-.49316-.10156-.74902,0-.34082.05176-.63281.15723-.875.10449-.24316.25391-.42871.44824-.55664.19336-.12891.42773-.19238.70312-.19238.19629,0,.375.03711.53516.11133.16113.0752.29785.17969.41016.31543.11133.13574.19141.29883.2373.49023h-.08398c.05664-.33594.19531-.59766.41699-.78418s.49805-.28027.8291-.28027c.29004,0,.54199.07227.75586.2168.21484.14453.37988.35059.49414.61621s.1709.58398.1709.95215Z"/>
        <path d="m358.07347,208.83539c0,.13965-.03809.24902-.11523.3291-.07715.0791-.1875.11816-.33301.11816h-.5459v1.72949c0,.14453-.03027.25977-.09082.34668-.06055.08594-.15625.12891-.28711.12891-.07422,0-.15625-.01953-.24512-.05957-.08789-.03906-.20508-.11035-.34961-.21289l-2.7793-1.91797c-.09766-.06543-.17285-.1377-.22363-.21777-.05176-.0791-.07715-.16992-.07715-.27246,0-.12109.03613-.22168.1084-.30078s.18555-.11914.33984-.11914h2.8623v-.34277c0-.13574.03223-.2373.09473-.30469.06348-.06738.15527-.10156.27637-.10156.12207,0,.21387.03418.27637.10156.06348.06738.09473.16895.09473.30469v.34277h.5459c.14551,0,.25586.04004.33301.11914s.11523.18848.11523.3291Zm-1.73633.44727h-2.18359v-.20312l2.42188,1.65234h-.23828v-1.44922Z"/>
        <path d="m358.08714,179.01605c0,.24707-.03223.49902-.09766.75586s-.16504.49219-.30078.70703c-.05566.08887-.12305.14746-.19922.17773-.07715.03125-.1543.03809-.23145.02148s-.14258-.05176-.19629-.10547c-.05371-.05273-.08496-.11816-.09375-.19531-.00977-.07715.01172-.16211.0625-.25586.09766-.17285.17285-.34766.22363-.52441.05176-.17773.07715-.36719.07715-.56738,0-.19629-.03516-.36426-.10449-.50391-.07031-.14062-.16797-.24707-.29395-.32227-.12598-.07422-.27344-.1123-.44141-.1123-.26074,0-.47266.08008-.63379.23828-.16016.15918-.24121.37598-.24121.65137,0,.14941.02441.29395.07324.43359.0498.14062.13477.27832.25586.41309.03711.04199.07324.0957.1084.16113s.05273.13574.05273.20996c0,.11621-.03027.20508-.09082.26562-.06055.06152-.14453.0918-.25195.0918h-2.28906c-.12598,0-.22266-.03418-.29102-.10156-.06738-.06836-.10156-.16504-.10156-.29102v-2.30273c0-.12598.03223-.22266.09473-.29102.06348-.06738.15527-.10156.27637-.10156.11719,0,.20801.03418.27344.10156.06543.06836.09766.16504.09766.29102v1.82031h1.56836v.23047c-.16309-.12109-.28906-.28223-.37793-.48242-.08887-.20117-.13379-.4209-.13379-.6582,0-.3125.06738-.58496.2002-.81543.13281-.23145.31738-.41113.55273-.53906.23535-.12891.50977-.19238.82227-.19238.32227,0,.60547.07227.85059.2168s.43652.35059.57422.61914.20605.58691.20605.95605Z"/>
        <path d="m358.08714,148.30707c0,.40625-.09668.75293-.29004,1.04004s-.47266.50488-.83691.6543c-.36328.14941-.80469.22363-1.32227.22363-.41992,0-.79199-.04785-1.11719-.14355-.32422-.0957-.59863-.23438-.82227-.41602-.22363-.18262-.39453-.40527-.51074-.66895-.11719-.26367-.1748-.56055-.1748-.89258,0-.20508.03125-.41406.09375-.62598.06348-.21289.1582-.41211.28418-.59863.04688-.07422.10742-.12402.18164-.14746.0752-.02246.14844-.02637.2207-.00977.07227.01562.13574.04883.18848.09766.05371.04883.08691.11133.09863.18555s-.00879.15625-.05957.24512c-.09375.1582-.15918.30762-.19629.44824-.03711.13965-.05566.2793-.05566.41992,0,.27051.0625.49902.18848.68555s.31543.32812.56738.42383.56738.14355.94531.14355h.52441v.08398c-.23828-.03711-.44238-.11523-.6123-.23438s-.30078-.27246-.3916-.45898c-.0918-.18652-.13672-.39453-.13672-.62305,0-.28418.06738-.53613.20312-.75586.13477-.21973.32129-.3916.55957-.51758s.51074-.18945.81934-.18945c.31738,0,.60059.06934.85059.20703.24902.1377.44531.32812.58789.57324s.21289.5293.21289.85059Zm-.71387.04883c0-.16797-.03711-.31543-.11133-.44434-.0752-.12793-.18164-.22754-.31934-.29688-.13672-.07031-.29492-.10547-.47168-.10547-.18262,0-.34082.03516-.47656.10547-.13477.06934-.24121.16895-.31836.29688-.07715.12891-.11523.27637-.11523.44434s.03809.31543.11523.44141.18359.22559.31836.29785c.13574.07227.29395.1084.47656.1084.17676,0,.33496-.03613.47168-.1084.1377-.07227.24414-.17188.31934-.29785.07422-.12598.11133-.27344.11133-.44141Z"/>
        <path d="m358.07347,118.81683c0,.10742-.02539.19629-.07715.26562-.05078.07031-.12012.1123-.20605.12695-.08691.01367-.18359-.00781-.29102-.06348l-3.97559-2.11426h.30762v2.26855c0,.12598-.03223.22266-.09766.29004s-.15625.10156-.27344.10156c-.12109,0-.21387-.03418-.2793-.10156s-.09863-.16406-.09863-.29004v-2.70898c0-.12598.0332-.22852.09863-.30859.06543-.0791.1582-.11914.2793-.11914.10352,0,.19336.01465.26953.04199.07715.02832.16016.06543.24902.1123l3.80078,1.98828c.10254.05078.17773.11816.22363.19922.04688.08203.07031.18555.07031.31152Z"/>
        <path d="m358.08714,87.35297c0,.38184-.05469.70996-.16406.9834-.10938.27246-.26953.48242-.47949.62988-.20996.14648-.46191.2207-.75586.2207-.2334,0-.44043-.04785-.62012-.14355-.17871-.0957-.3252-.22754-.4375-.39551-.11133-.16797-.18164-.35938-.20996-.57422h.14746c-.06543.29883-.20898.53809-.43066.71777s-.48633.26953-.79395.26953c-.28027,0-.51953-.07031-.71777-.20996-.19824-.14062-.35059-.33887-.45508-.5957-.10547-.25586-.15723-.55762-.15723-.90234,0-.35059.05176-.65332.15723-.91016.10449-.25684.25684-.45508.45508-.5957.19824-.13965.4375-.20996.71777-.20996.20508,0,.39355.04102.56641.12305s.31543.19629.42676.34277c.1123.14746.1875.31836.22461.51465h-.14062c.04688-.32617.18359-.5918.41016-.79492.22656-.20215.51172-.30371.85742-.30371.29395,0,.5459.07324.75586.21973.20996.14746.37012.35742.47949.62988.10938.27344.16406.60156.16406.98438Zm-2.91895,0c0-.18652-.02832-.3457-.08691-.47656s-.14355-.23047-.25586-.30078-.24219-.10547-.3916-.10547c-.22461,0-.40039.0791-.52832.23535-.12891.15625-.19336.37207-.19336.64746s.06445.48926.19336.64355c.12793.1543.30371.23145.52832.23145.22852,0,.4082-.07715.53906-.23145s.19531-.36816.19531-.64355Zm2.21973,0c0-.33203-.06445-.58105-.19238-.74902-.12891-.16797-.31934-.25195-.57129-.25195s-.44043.08398-.56641.25195-.18945.41699-.18945.74902c0,.32617.06348.5752.18945.74512s.31445.25586.56641.25586.44238-.08594.57129-.25586c.12793-.16992.19238-.41895.19238-.74512Z"/>
        <path d="m358.08714,57.1684c0,.2002-.03125.4082-.09375.62305-.06348.21484-.1582.41504-.28418.60156-.0459.0752-.10742.12402-.18164.14746s-.14844.02637-.2207.01074c-.07227-.0166-.13477-.0498-.18848-.09863s-.08691-.11035-.09863-.18555c-.01172-.07422.00879-.15625.05957-.24512.09375-.1582.15918-.30762.19629-.44727.03711-.14062.05566-.28027.05566-.41992,0-.27148-.0625-.5-.18848-.68652s-.31641-.32812-.57031-.42383c-.25488-.0957-.56836-.14355-.94238-.14355h-.52441v-.08398c.2334.0332.43652.11035.6084.23145.17285.12109.30469.27539.39551.46191.0918.18652.13672.39453.13672.62305,0,.28027-.06738.53125-.20312.75293-.13477.22168-.32227.39551-.56348.52148-.24023.12598-.51172.18848-.81543.18848-.32129,0-.60645-.06836-.85352-.20605s-.44238-.33008-.58496-.57812c-.1416-.24707-.21289-.5293-.21289-.84668,0-.41016.0957-.75879.28711-1.04297s.46973-.50195.83594-.65137.80859-.22363,1.32617-.22363c.4209,0,.79297.04785,1.11719.14355s.59863.23438.82227.41602c.22363.18262.39453.40527.51074.66895.11719.26367.1748.56152.1748.89258Zm-2.55469-.25879c0-.16797-.03809-.31641-.11523-.44531-.07715-.12793-.18457-.22754-.32227-.29688-.1377-.07031-.29492-.10547-.47266-.10547-.18164,0-.33984.03516-.47559.10547-.13574.06934-.24023.16895-.31543.29688-.07422.12891-.11133.27734-.11133.44531s.03711.31445.11133.44043c.0752.12598.17969.22559.31543.29785s.29395.1084.47559.1084c.17773,0,.33496-.03613.47266-.1084s.24512-.17188.32227-.29785.11523-.27246.11523-.44043Z"/>
        <g>
          <path d="m358.01781,29.32269c0,.12109-.03418.21582-.10156.2832s-.16016.10156-.27637.10156c-.12207,0-.21289-.03418-.27344-.10156s-.09082-.16211-.09082-.2832v-.78418h-3.4375v-.43359l.62305,1.02832c.05176.08887.07129.17188.05957.24902s-.04395.14258-.09766.19531c-.05371.05371-.11816.08984-.19238.10938-.0752.01855-.15039.0127-.22754-.01758s-.1416-.08984-.19238-.17871l-.58105-.96582c-.05664-.09375-.10352-.18652-.14355-.28027s-.05957-.17969-.05957-.25879c0-.09863.02734-.17969.08008-.24512.05371-.06543.1416-.09863.2627-.09863h3.90625v-.71387c0-.12109.03027-.21582.09082-.2832s.15137-.10156.27344-.10156c.12109,0,.21484.03418.2793.10156.06543.06738.09863.16211.09863.2832v2.39453Z"/>
          <path d="m358.08714,24.11469c0,.58301-.21973,1.02832-.66113,1.33691-.44141.30762-1.06934.46191-1.88672.46191-.55078,0-1.01367-.06934-1.38965-.20703-.375-.1377-.6582-.33984-.84961-.6084s-.28711-.59668-.28711-.9834c0-.58887.21387-1.03516.64355-1.34082s1.05469-.45898,1.87598-.45898c.5459,0,1.00977.06934,1.38965.20703s.66992.33984.86816.60547.29688.59473.29688.9873Zm-.73438,0c0-.31738-.14746-.55176-.44141-.7041-.29395-.15137-.75293-.22754-1.37891-.22754-.625,0-1.0791.07617-1.36133.22754-.28223.15234-.42383.38672-.42383.7041,0,.3125.1416.5459.42383.69922.28223.1543.73633.23145,1.36133.23145.62598,0,1.08496-.07715,1.37891-.23145.29395-.15332.44141-.38672.44141-.69922Z"/>
        </g>
      </g>
    </g>
  </g>
</svg>