<?xml version="1.0" encoding="UTF-8"?>
<svg id="Layer_2" data-name="Layer 2" xmlns="http://www.w3.org/2000/svg" xmlns:xlink="http://www.w3.org/1999/xlink" viewBox="0 0 394 469">
  <defs>
    <linearGradient id="linear-gradient" x1="129.66987" y1="354.95002" x2="216.33013" y2="505.04998" gradientUnits="userSpaceOnUse">
      <stop offset="0" stop-color="#fff"/>
      <stop offset=".02964" stop-color="#fff"/>
      <stop offset=".6649" stop-color="#fff" stop-opacity="0"/>
      <stop offset="1" stop-color="#fff" stop-opacity="0"/>
    </linearGradient>
    <linearGradient id="linear-gradient-2" x1="154.75147" y1="470.13743" x2="192.03193" y2="367.71021" xlink:href="#linear-gradient"/>
    <linearGradient id="linear-gradient-3" x1="17.00023" y1="419.99994" x2="329.00023" y2="419.99994" gradientUnits="userSpaceOnUse">
      <stop offset="0" stop-color="#cecece"/>
      <stop offset="1" stop-color="#cecece" stop-opacity=".5"/>
    </linearGradient>
    <linearGradient id="linear-gradient-4" x1="342.93473" y1="386.09218" x2="3.06524" y2="100.90782" gradientUnits="userSpaceOnUse">
      <stop offset="0" stop-color="#fff"/>
      <stop offset=".62975" stop-color="#fff" stop-opacity="0"/>
      <stop offset="1" stop-color="#fff" stop-opacity="0"/>
    </linearGradient>
    <linearGradient id="linear-gradient-5" x1="-10.12772" y1="137.77117" x2="356.12769" y2="349.22883" gradientUnits="userSpaceOnUse">
      <stop offset="0" stop-color="#fff"/>
      <stop offset=".02964" stop-color="#fff"/>
      <stop offset=".5988" stop-color="#fff" stop-opacity="0"/>
      <stop offset="1" stop-color="#fff" stop-opacity="0"/>
    </linearGradient>
    <linearGradient id="linear-gradient-6" x1="173.00001" y1="82" x2="173.00001" y2="92" gradientUnits="userSpaceOnUse">
      <stop offset="0" stop-color="#1d1d1b"/>
      <stop offset="1" stop-color="#1d1d1b" stop-opacity="0"/>
    </linearGradient>
    <linearGradient id="linear-gradient-7" x1="154.75147" y1="120.13743" x2="200.18553" y2="-4.69163" xlink:href="#linear-gradient"/>
    <linearGradient id="linear-gradient-8" x1="131.40192" y1="3.95002" x2="214.59808" y2="148.04998" gradientUnits="userSpaceOnUse">
      <stop offset="0" stop-color="#fff"/>
      <stop offset=".02964" stop-color="#fff"/>
      <stop offset=".6649" stop-color="#fff" stop-opacity="0"/>
      <stop offset="1" stop-color="#fff" stop-opacity="0"/>
    </linearGradient>
    <linearGradient id="linear-gradient-9" y1="69.99994" y2="69.99994" xlink:href="#linear-gradient-3"/>
  </defs>
  <g id="Terrarium">
    <g id="Terrarium_Front_Mesh_Top" data-name="Terrarium Front Mesh Top">
      <g id="rectangle">
        <rect width="394" height="469" fill="none"/>
      </g>
      <g id="Front_Base" data-name="Front Base">
        <path id="Base_outline_front" data-name="Base outline front" d="m329.70433,417h-2.24982l1.54547,3v20H16.99999v-20l1.54547-3h-2.24982c-.23215.52915-1.37563,2.34738-1.2957,2.99998.00005.00002.00005,20.00002.00005,20.00002,0,1.10455.89545,2,2,2h312c1.10461,0,2-.89545,2-2,0,0,0-20,0-20s-.07611-.63263-.22205-.91595c0,0-1.07361-2.08405-1.07361-2.08405Z" fill="#515151"/>
        <rect id="Base_F_front" data-name="Base F front" x="17" y="420" width="312" height="20" fill="#666"/>
        <rect id="Base_F_front_HI" data-name="Base F front HI" x="17" y="420" width="312" height="20" fill="url(#linear-gradient)" opacity=".2"/>
        <polygon id="Base_F_top" data-name="Base F top" points="329 420 17 420 18.5455 417 327.4545 417 329 420" fill="#a0a0a0"/>
        <polygon id="Base_F_top_HI" data-name="Base F top HI" points="329 420 17 420 18.5455 417 327.4545 417 329 420" fill="url(#linear-gradient-2)" opacity=".2"/>
        <polygon id="Base_hi" data-name="Base hi" points="329.00023 420.62494 17.00023 420.62494 17.00023 420 17.32157 419.37494 328.68023 419.37494 329.00023 420 329.00023 420.62494" fill="url(#linear-gradient-3)"/>
      </g>
      <g id="Front_Wall" data-name="Front Wall">
        <rect id="F_inside" data-name="F inside" x="32.43388" y="65.5" width="281.13293" height="351.5" fill="#d2f9ff" opacity=".02"/>
        <polygon id="F_right_inside" data-name="F right inside" points="316.99999 417 316.99999 70 313.56682 65.5 313.56682 417 316.99999 417" fill="#409cb2" opacity=".2"/>
        <polygon id="F_left_inside" data-name="F left inside" points="32.43388 417 32.43388 65.5 28.99999 70 28.99999 417 32.43388 417" fill="#409cb2" opacity=".2"/>
        <rect id="F_front" data-name="F front" x="28.99999" y="70" width="288" height="347" fill="#d2f9ff" opacity=".1"/>
        <rect id="F_front_right_hi" data-name="F front right hi" x="28.99999" y="70" width="288" height="347" fill="url(#linear-gradient-4)" opacity=".2"/>
        <rect id="F_front_left_hi" data-name="F front left hi" x="28.99999" y="70" width="288" height="347" fill="url(#linear-gradient-5)" opacity=".2"/>
        <rect id="L_front_line_HI" data-name="L front line HI" x="23.00023" y="69.99994" width="1" height="347.00006" fill="#fff"/>
        <rect id="R_front_line" data-name="R front line" x="316.50023" y="69.99994" width="1" height="347.00006" fill="#04758f"/>
        <rect id="L_front_line" data-name="L front line" x="28.50023" y="69.99994" width="1" height="347.00006" fill="#04758f"/>
        <rect id="top_front_line" data-name="top front line" x="23.00023" y="415.99994" width="300" height="1" fill="#515151"/>
      </g>
      <g id="Outline_Mesh" data-name="Outline Mesh">
        <rect id="R_Outline_Mesh" data-name="R Outline Mesh" x="322.99999" y="84" width="2" height="333" fill="#04758f"/>
        <rect id="L_Outline_Mesh" data-name="L Outline Mesh" x="20.99999" y="84" width="2" height="333" fill="#04758f"/>
      </g>
      <g id="Top_Mesh" data-name="Top Mesh">
        <rect id="shadow" x="21.00001" y="82" width="304" height="10" fill="url(#linear-gradient-6)" opacity=".25"/>
        <path id="mesh" d="m307.88707,61.35529c-1.78288-.87062-3.54719-1.7307-5.31946-2.5907l1.39142-2.20959c.13715.06403.27533.12866.41229.19257l-1.79437-2.35175c-1.65983-.77399-3.28857-1.53223-4.9353-2.29315l1.28973-1.84967c.24445.10864.48944.21765.73309.32574l-1.73273-2.27094c-1.70505-.75625-3.36842-1.49393-5.052-2.23199l1.16962-1.5249c.49899.21044.99552.41798,1.49713.63086l-1.81006-2.37231-.06915.09119c-1.81656-.76353-3.58719-1.50657-5.36823-2.24554.3515-.42249.69031-.82709,1.0321-1.23596.87204.34479,1.74128.69374,2.61597,1.04529l-1.62311-2.12726c-.02142-.00854-.0426-.01691-.06409-.02545l.02362-.02765-.85162-1.11603c-.0863.1013-.43924.51307-.51752.60895-.66315-.26337-1.31012-.5174-1.96674-.77698h-3.74615c1.58634.61711,3.16963,1.24556,4.78638,1.88556-.33664.40375-.67377.80388-1.01697,1.2182-1.70886-.70836-3.3868-1.40262-5.05597-2.08557.31677-.34741.62317-.68164.93127-1.01819h-1.85992c-.13946.15235-.28345.30908-.42456.46564-.38702-.15802-.763-.30945-1.14697-.46564h-3.64728c1.25897.50861,2.52905,1.02368,3.81451,1.5481-.37847.41858-.757.83353-1.14233,1.26343-1.6546-.70667-3.2934-1.40405-4.90204-2.08331-.00085-.00031-.00165-.00073-.0025-.00104.23981-.24432.47699-.48535.71509-.72717h-1.92474c-.05121.05206-.10162.10309-.1535.15613-.12555-.05286-.24817-.10388-.37262-.15613h-3.54907c.95831.40088,1.92285.80579,2.89032,1.2124-.41858.42975-.84149.86499-1.27148,1.30945-1.59985-.70526-3.19366-1.4068-4.74939-2.08466.15448-.14685.30664-.29065.46075-.43719h-4.92224c.67004.28998,1.34296.58173,2.01617.87366-.46307.44385-.93103.89417-1.40656,1.35443-1.5484-.70563-3.08551-1.40417-4.5907-2.08179.05414-.04828.10889-.09729.1637-.1463h-3.8476c.39691.17773.79272.35486,1.19049.5332-.50967.45571-1.02589.93184-1.54346,1.40222-1.39166-.65668-2.76556-1.30206-4.12207-1.93542h-3.25623c.1402.06488.27808.1283.41913.19379-.55908.47037-1.12155.96081-1.68817,1.44733-1.13879-.55756-2.25531-1.10046-3.36835-1.64111h-3.63281c-.54987.43846-1.11296.89093-1.66205,1.34534-.89941-.45758-1.77649-.89996-2.65796-1.34534h-4.65326c-.44999.33903-.91048.69666-1.35883,1.04919-.67365-.35712-1.3277-.7005-1.98975-1.04919h-2.94312c1.2309.64545,2.48395,1.30682,3.74811,1.97583-.72589.56582-1.4641,1.13881-2.1889,1.72461-1.34784-.75452-2.6712-1.49121-3.98022-2.21753.68132-.50888,1.36346-.99691,2.0329-1.48291h-2.33417c-.33832.24241-.67858.5021-1.01544.7525-.46375-.25641-.9115-.50128-1.36792-.7525h-2.84802c.99353.54474,1.99231,1.09351,3.00781,1.65472-.78119.58081-1.57469,1.16972-2.35364,1.77258-1.27028-.74625-2.53159-1.48405-3.79718-2.21338.58032-.41022,1.15466-.81335,1.72656-1.21393h-2.38708c-.21674.15265-.42926.30042-.6485.45593-.26154-.15137-.52325-.30273-.78729-.45593h-2.74738c.76513.43476,1.53851.88635,2.30731,1.33142-.82867.59308-1.66852,1.19946-2.52057,1.82086-1.21054-.74476-2.41082-1.48094-3.61615-2.21002.46948-.31866.93079-.62805,1.3963-.94226h-2.45386c-.078.05273-.15472.10388-.23376.15771-.08618-.05237-.17279-.10498-.25958-.15771h-2.64453c.54686.32856,1.10936.67412,1.66144,1.00867-.88391.60773-1.78027,1.23004-2.68988,1.86774-1.14997-.74335-2.29018-1.47817-3.43506-2.20679.34717-.22662.68701-.44489,1.03247-.66962h-4.62946c.35632.22766.71729.4588,1.07135.68469-.94025.62225-1.89374,1.26031-2.86127,1.91473-1.0894-.74124-2.16894-1.4747-3.25262-2.20276.20679-.13025.41571-.26306.62549-.39667h-3.66931c.18005.12152.35907.24225.53632.36157-1.0136.63289-2.01453,1.28134-2.99054,1.98572-.92572-.67468-1.84857-1.34326-2.75769-1.99194l.47565-.35535h-3.38275c.18927.13141.37604.25848.56586.39105l-2.9054,2.17053c-.85858-.63708-1.70966-1.26001-2.552-1.8667l.99377-.69489h-4.35425c.32703.22968.65051.45294.97882.68494l-3.1228,2.18353c-.84747-.63672-1.68707-1.25946-2.51825-1.8667.50931-.33238,1.03126-.67468,1.534-1.00177h-2.50928c-.07129.04669-.14264.09326-.21356.13959-.0661-.04761-.13092-.09296-.19647-.13959h-2.37048c.44403.31543.88544.6264,1.33209.94653-.88161.57265-2.44147,1.60077-3.33905,2.19452-.79405-.62364-1.61044-1.22246-2.41467-1.81573.73273-.44977,1.44666-.88605,2.16449-1.32532h-2.62976c-.24237.14856-.47766.29211-.72388.44324-.19745-.14471-.39893-.29669-.59747-.44324h-2.36023c.56009.39689,1.1374.79784,1.69861,1.21777-1.17181.72089-2.35577,1.45001-3.56805,2.19824-.76002-.60766-1.54139-1.19182-2.31079-1.77063.9624-.5575,1.90729-1.10339,2.84674-1.64539h-2.7417c-.43134.24945-.85352.49243-1.29242.74701-.33125-.24913-.66352-.50844-.99884-.74701h-2.33258c.67524.49026,1.36455.979,2.04468,1.4942-1.2428.72137-2.50092,1.45337-3.78516,2.20312-.73853-.58545-1.46307-1.17468-2.1991-1.73438,1.21075-.66498,2.41003-1.32208,3.58557-1.96295h-2.85944c-.63837.34918-1.26855.69281-1.91962,1.05066-.4588-.35114-.91846-.70386-1.37439-1.05066h-4.60797c-.8609.44739-1.71777.89209-2.59796,1.35199-.57579-.45202-1.15573-.91646-1.72375-1.35199h-3.63104c-1.09802.54395-2.20026,1.09045-3.32556,1.65112-.61737-.49988-1.22699-.98676-1.83301-1.46729.13202-.06219.26099-.12225.39203-.18384h-3.22156c-1.35071.63831-2.72095,1.28937-4.10968,1.95215-.58118-.48676-1.15558-.96167-1.72601-1.43011.3927-.17712.77362-.34692,1.16296-.52203h-3.98511c.07758.06232.15442.12366.23218.18628-1.48639.67395-2.99756,1.36267-4.52802,2.06372-.5355-.47405-1.07997-.92824-1.61523-1.38586.66541-.28857,1.33087-.57721,1.99347-.86414h-5.14642c.19379.16034.38556.31769.58191.48224-1.547.67401-3.12146,1.3653-4.71399,2.06714-.5007-.4607-1.00716-.9021-1.50629-1.34723.97363-.40741,1.92902-.80383,2.88739-1.20215h-3.56897c-.15222.06354-.30139.12524-.45514.18964-.07005-.06162-.14303-.12849-.21301-.18964h-2.09558c.29846.25763.59589.51343.89978.77954-1.60419.67487-3.23846,1.3667-4.8891,2.0683-.46419-.44645-.93208-.87418-1.39423-1.3064,1.29041-.52197,2.56586-1.0351,3.82886-1.54144h-3.67377c-.42224.17041-.83588.33575-1.26178.50818-.18214-.17152-.37005-.3428-.55359-.50818h-2.04022c.39307.3559.78522.71045,1.18579,1.07843-1.6677.67673-3.35059,1.36615-5.05981,2.06854-.42514-.42721-.84924-.85113-1.27869-1.2674,1.63118-.63835,3.22602-1.26203,4.82819-1.87958h-3.78381c-.70734.27625-1.40497.54675-2.11981.82727-.28247-.27464-.5662-.55912-.84857-.82727h-4.95514c-1.0036.37946-2.00342.7569-3.0213,1.14441-.34747-.35876-.70068-.7265-1.04193-1.07513.06445-.02344.12781-.04626.19153-.06927h-4.00146c-.00098.00037-.00201.00073-.00299.0011l-1.55353,2.03491c1.32402-.48905,2.63189-.9709,3.9491-1.44958.3571.35768.70923.72387,1.06366,1.08997-1.78686.68015-3.55509,1.36304-5.36908,2.06415-.16974-.19049-.33844-.37939-.50891-.57117l-2.43115,3.18451c.84953-.3332,1.70195-.66199,2.54822-.98962.40148.44704.79697.90199,1.1969,1.35889-1.8899.76322-3.75229,1.52339-5.66339,2.3053-.02142-.02655-.04224-.05206-.06366-.07855l-1.76593,2.31311c.46783-.19189.93701-.38464,1.40405-.57611.43311.53888.87848,1.09888,1.3222,1.65619-1.7619.75184-3.50936,1.50344-5.28223,2.26794l-1.70264,2.23022c.18787-.08118.37811-.1637.56586-.24481.47339.64581.95825,1.31238,1.44501,1.98163-1.69187.76075-3.39016,1.52667-5.091,2.29767l-1.75867,2.30365c.03296-.01495.06659-.03027.09949-.04523.41461.6181.8266,1.23175,1.25055,1.86584h4.52924c1.39615-.65819,2.80105-1.31704,4.18689-1.96661.46216.64423.93268,1.30292,1.40564,1.96661h4.34009c1.41812-.69184,2.8374-1.38178,4.24847-2.0661.51624.67865,1.03864,1.3678,1.56641,2.0661h4.14886c1.43724-.72723,2.86261-1.44652,4.29205-2.16595.56695.70515,1.14321,1.43411,1.72363,2.16595h3.95911c1.44987-.76198,2.87651-1.5111,4.3147-2.2641.61786.73602,1.25146,1.49902,1.88617,2.2641h3.76666c1.45433-.79672,2.87814-1.57629,4.31561-2.36011.69143.77978,1.36243,1.55809,2.0509,2.36011h3.57788c1.45055-.82982,2.86982-1.64138,4.29718-2.45496.73478.80879,1.48273,1.62108,2.21753,2.45496h3.39215l4.26062-2.54712c.79025.83909,1.58941,1.68192,2.37445,2.54712h3.21051l4.20764-2.6369c.8457.86841,1.69056,1.74033,2.52625,2.6369h3.03491l4.13446-2.729c.88739.89551,1.77649,1.79443,2.68457,2.729h2.83167l4.04871-2.83081c.93939.92819,1.89116,1.8637,2.8465,2.83081h2.66138c1.0499-.77428,2.87207-2.13472,3.9339-2.92908,1.00093.95801,1.97998,1.93109,2.98914,2.92908h2.49658c1.27645-1.00542,2.55306-2.01364,3.81598-3.01239,1.03701.98096,2.0657,1.98523,3.11841,3.01239h2.33478c1.24701-1.04968,2.47388-2.08478,3.67419-3.10101,1.08063,1.01631,2.17358,2.05702,3.24823,3.10101h2.17676c1.19434-1.07874,2.36713-2.14215,3.51379-3.18695,1.13108,1.05083,2.26999,2.14397,3.42017,3.18695h2.04022c-.00574-.005-.01141-.01001-.01715-.01514,1.21655-1.10501,2.59497-2.16384,3.87628-3.21863l3.97211,3.23376h2.31287c1.19638-1.05076,2.41031-2.10489,3.60333-3.13171l4.06726,3.13171h2.45856c1.11885-1.01701,2.25838-2.04174,3.37225-3.03522l4.15204,3.03522h2.60577c1.04722-.99129,2.11125-1.97313,3.1535-2.9375l4.21338,2.9375h2.76306c.98933-.9673,1.94719-1.91127,2.92297-2.84479,1.32484.8802,2.93114,1.94891,4.27539,2.84479h2.91217c.91388-.93387,1.79926-1.84242,2.70416-2.74713,1.42896.90712,2.87904,1.82951,4.31982,2.74713h3.06018c.84576-.90277,1.67444-1.78217,2.49371-2.64935,1.38339.84116,2.94682,1.79281,4.34863,2.64935h3.21967c.77216-.86713,1.53271-1.71777,2.28076-2.55139,1.44469.84191,2.88991,1.68948,4.36273,2.55139h3.38025c.69384-.82738,1.38942-1.64297,2.07556-2.45105,1.44942.81158,2.8907,1.62314,4.362,2.45105h3.54126c.63037-.79538,1.25699-1.57701,1.87604-2.35162,1.44812.78009,2.88278,1.55856,4.34692,2.35162h3.71783l1.68353-2.24377c1.43453.74545,2.85649,1.48799,4.30219,2.24377h3.86792l1.49561-2.15125c1.42313.71432,2.84157,1.42885,4.27228,2.15125h4.01318l1.30145-2.06671c1.40998.68475,2.8287,1.37491,4.24573,2.06671h2.30164l-.49194-.64471Zm-10.22571-11.66669l-1.27679,1.83203c-1.91667-.88596-3.77911-1.74648-5.66766-2.61047.29762-.40273.99092-1.30877,1.30261-1.71301.45898.2016,4.20459,1.854,5.64185,2.49146Zm-238.45325-3.90472c-.43683-.50716-.87361-1.0203-1.30365-1.51245,1.85655-.74915,3.66631-1.47705,5.5033-2.20789.44174.46122.87533.93246,1.31464,1.40503-.32288.13495-3.98199,1.6687-5.51428,2.31531Zm6.51074-1.24371c.4857.51843.96311,1.04677,1.44775,1.57812-1.85906.81018-3.69581,1.6181-5.58337,2.45056-.48117-.56871-.96078-1.14117-1.43427-1.69226,1.87983-.79231,3.7107-1.56273,5.56989-2.33643Zm-6.89777,2.89764c.48723.56226.96607,1.13349,1.45319,1.70892-1.93869.85461-3.84829,1.70356-5.80914,2.57666-.48596-.61969-.96521-1.22766-1.43854-1.82538,1.95152-.83249,3.85982-1.6443,5.79449-2.46021Zm2.3783,2.80145c.53168.62452,1.05488,1.25976,1.5885,1.90021-1.96147.90387-3.89379,1.79933-5.87805,2.72156-.53265-.68793-1.05505-1.35938-1.5733-2.02362,1.34656-.59961,5.24249-2.32422,5.86285-2.59814Zm1.30878-.578c1.90248-.83845,3.75536-1.6524,5.63629-2.47192.5309.5777,1.05198,1.16781,1.58319,1.76154-1.88126.85844-3.73899,1.71284-5.64954,2.5932-.49908-.60028-1.54315-1.85089-1.56995-1.88281Zm6.96521-3.052c1.82756-.79578,3.60472-1.56916,5.40643-2.3446.52428.535,1.05512,1.07581,1.57526,1.62524-1.79812.81193-3.58622,1.62712-5.42004,2.46368-.52359-.58581-1.04846-1.17749-1.56165-1.74432Zm1.21259,3.41254c.57624.64129,1.1453,1.29664,1.72534,1.95715-1.90258.90871-3.78102,1.81154-5.7132,2.74139-.57447-.70178-1.14878-1.40676-1.71021-2.08441,1.43463-.66089,5.21814-2.39484,5.69806-2.61414Zm1.31104-.59314c-.00116-.00134-.00232-.00262-.00354-.00391,1.84875-.84287,3.64545-1.66112,5.46698-2.48279.57287.59657,1.14991,1.20103,1.71771,1.81299-1.81847.86101-3.62543,1.72291-5.48016,2.60883-.57025-.65082-1.1441-1.30817-1.70099-1.93512Zm6.78967-3.08569c1.77281-.79973,3.49807-1.57636,5.24005-2.35291.56439.55176,1.12646,1.09943,1.70325,1.67145-1.73302.81306-3.47321,1.63595-5.24921,2.47644-.56408-.6051-1.12473-1.20485-1.69409-1.79498Zm1.37573,3.46368c.62342.6618,1.24621,1.33216,1.8631,2.01044-1.83792.9123-3.66293,1.82373-5.53754,2.76111-.62128-.72278-1.24371-1.44714-1.84943-2.14313,1.49969-.71606,5.16479-2.45825,5.52386-2.62842Zm1.3028-.6167c1.79206-.84752,3.53543-1.67045,5.29504-2.49463.61276.61427,1.22493,1.22375,1.85052,1.86133-1.7524.86272-3.50993,1.73401-5.30579,2.62518-.61366-.67163-1.2209-1.33678-1.83978-1.99188Zm6.61536-3.11365c1.71312-.80265,3.38435-1.58371,5.06165-2.36035.60626.56732,1.20892,1.12872,1.82843,1.71881-1.66257.81167-3.35298,1.64171-5.06525,2.48456-.60478-.62634-1.22142-1.2361-1.82483-1.84302Zm1.53516,3.5152c.66042.67863,1.33069,1.35941,2.00006,2.06354-1.76985.91521-3.54301,1.8367-5.35657,2.77991-.66513-.74246-1.31974-1.47624-1.98895-2.19989,1.54456-.76624,5.08905-2.51721,5.34546-2.64355Zm1.29498-.63715c1.73057-.85088,3.4183-1.68024,5.11127-2.50555.65409.62982,1.31556,1.25862,1.97906,1.91266-1.68029.86267-3.38541,1.74234-5.1153,2.63684-.65295-.6931-1.3216-1.37161-1.97504-2.04395Zm6.4245-3.14569c1.64977-.80359,3.26526-1.58999,4.87433-2.36688.64583.58194,1.29562,1.16063,1.9519,1.76648-1.59808.81384-3.22729,1.64758-4.87531,2.49371-.64434-.64342-1.30496-1.27053-1.95093-1.89331Zm1.69189,3.56848c.70321.69562,1.42291,1.39613,2.13092,2.11688-1.69608.91598-3.41433,1.84775-5.16083,2.7959-.70227-.76318-1.42291-1.51497-2.12769-2.25537,1.57056-.81146,4.98834-2.57043,5.15759-2.65741Zm1.28534-.65936c1.66526-.85384,3.2959-1.68921,4.91876-2.51477.69439.64504,1.40356,1.29252,2.10352,1.96271-1.61121.86591-3.25513,1.75134-4.91833,2.64923-.69371-.71116-1.40641-1.40831-2.10394-2.09717Zm6.22235-3.17719c1.58535-.8054,3.14565-1.59715,4.68549-2.3736.6781.5896,1.36951,1.20258,2.06189,1.81738-1.53186.81689-3.09259,1.65167-4.67413,2.49908-.68341-.66022-1.38536-1.30492-2.07324-1.94287Zm1.84412,3.62299c.74626.71187,1.51204,1.43243,2.25885,2.17029-1.62341.91815-3.28113,1.85907-4.95825,2.81158-.74481-.78253-1.50885-1.5532-2.25989-2.31226,1.57922-.85242,4.86353-2.61823,4.95929-2.66962Zm1.27332-.68231c1.59883-.85679,3.17255-1.6987,4.72461-2.5246.73022.65485,1.47296,1.33179,2.21948,2.01532-1.54401.86932-3.11841,1.75769-4.71429,2.65912-.73471-.729-1.48815-1.4445-2.2298-2.14984Zm6.01221-3.20941c1.51569-.80621,3.01477-1.60126,4.48285-2.37683.71741.60504,1.44739,1.23145,2.18042,1.8631-1.46472.81885-2.95636,1.65466-4.46979,2.50494-.74054-.67969-1.46936-1.33954-2.19348-1.99121Zm1.99579,3.67639c.78394.72498,1.5788,1.46875,2.38092,2.2254-1.55548.92365-3.14221,1.86804-4.75055,2.82629-.78735-.80187-1.59182-1.59158-2.38873-2.36835,1.57379-.88922,4.72314-2.66357,4.75836-2.68335Zm1.25598-.7052c1.52759-.85785,3.03766-1.70459,4.51575-2.53088.77106.67181,1.55261,1.36261,2.34088,2.06506-1.47467.87207-2.97748,1.76251-4.50256,2.66718-.79553-.75287-1.5766-1.48029-2.35406-2.20135Zm5.78705-3.23993c1.4458-.80652,2.8736-1.60162,4.27332-2.37762.77435.62025,1.52905,1.26191,2.2948,1.90851-1.39447.82025-2.81396,1.6568-4.25586,2.50885-.78125-.69775-1.54816-1.3714-2.31226-2.03973Zm2.14185,3.73364c.82861.74518,1.66504,1.50476,2.51276,2.28418l-4.52991,2.83887c-.85529-.83337-1.69202-1.63361-2.52704-2.43066,1.53802-.91254,3.05774-1.81323,4.54419-2.69238Zm1.23724-.73029c1.4566-.85974,2.89459-1.70752,4.30255-2.53577.82898.68729,1.63382,1.39783,2.45514,2.11456l-4.2749,2.67908c-.83984-.77509-1.66199-1.51746-2.48279-2.25787Zm7.84015.52051c.8887.76382,1.75096,1.55193,2.63422,2.34747l-4.30664,2.84247c-.89188-.8515-1.77268-1.66814-2.64722-2.48279l4.31964-2.70715Zm1.21869-.75958c1.38251-.86115,2.74585-1.70947,4.08167-2.53882.87236.70743,1.71935,1.44061,2.58539,2.17969l-4.0672,2.68451c-.7467-.67346-2.47565-2.21588-2.59985-2.32538Zm7.75543.56659c.91265.76877,1.79933,1.56582,2.70905,2.36835l-4.08521,2.85657c-.9171-.85199-1.814-1.70073-2.72449-2.51819l4.10065-2.70673Zm1.19299-.78741l3.85095-2.54199c.88369.71878,1.79051,1.44538,2.66913,2.19885l-3.84631,2.68945c-.80408-.71136-2.58173-2.26691-2.67377-2.34631Zm7.60352.57434c.92945.78284,1.87863,1.57812,2.80396,2.39227l-3.84998,2.87616c-.95031-.86791-1.88349-1.7329-2.82349-2.56281l3.86951-2.70563Zm1.16339-.81342l3.63684-2.54297c.90575.7244,1.83416,1.45608,2.73248,2.21594l-3.60876,2.69598c-.9071-.80877-1.84029-1.59526-2.76056-2.36896Zm7.45276.57635c.98215.81342,1.98448,1.64029,2.95441,2.49268-1.1976.9581-2.3932,1.91084-3.60504,2.87445-.98665-.89885-1.99172-1.7818-2.98767-2.64923l3.63831-2.7179Zm1.13025-.84436l3.41107-2.54822c.94653.74774,1.90979,1.52814,2.87628,2.31512-1.11809.89798-2.24075,1.7959-3.37262,2.69897-.37201-.31946-2.31702-1.9668-2.91473-2.46588Zm7.37775.65265c.99194.81696,2.00012,1.66583,3.01379,2.52539-1.10077.94489-2.22308,1.90546-3.3689,2.88367-1.0038-.91429-2.03082-1.80712-3.052-2.68195.54321-.43414,2.8158-2.25305,3.4071-2.72711Zm1.09149-.87543c1.06147-.84997,2.11972-1.70105,3.1676-2.54651.96906.75925,1.96638,1.56114,2.94397,2.33893-1.02325.88501-2.06866,1.78589-3.13446,2.70227-1.0025-.85193-1.99579-1.68518-2.97711-2.49469Zm7.20776.66064c1.12723.88641,2.38096,1.83069,3.54773,2.73187-1.19472.89225-2.4246,1.78283-3.55505,2.75494-1.0564-.90808-2.11522-1.8471-3.16589-2.75208,1.07666-.92566,2.13977-1.84149,3.17322-2.73474Zm1.08734-.89325c1.07906-.82553,2.26758-1.57447,3.38483-2.35004,1.1665.84253,2.36255,1.70947,3.56824,2.58374-1.10077.82312-2.21912,1.66785-3.35529,2.53491-1.16149-.89836-2.46745-1.88491-3.59778-2.76862Zm8.11633,1.0769c1.24084.90002,2.51019,1.82373,3.79327,2.75806-1.11243.88403-2.2439,1.79218-3.3924,2.72168l-3.79291-2.92065c1.14746-.87396,2.2804-1.72949,3.39203-2.55908Zm1.15887-.85516c1.06494-.78912,2.12561-1.57275,3.15802-2.32214,1.24655.85122,2.50272,1.71211,3.75647,2.57684-1.03711.80365-2.09198,1.62952-3.16229,2.47394-1.27228-.92645-2.52069-1.83429-3.7522-2.72864Zm8.10016,1.07062c1.32371.90915,2.65731,1.82854,3.98932,2.75122-1.06526.87239-2.14098,1.75891-3.20532,2.65631l-3.97864-2.9082c1.07776-.84961,2.15027-1.69257,3.19464-2.49933Zm1.14703-.87799c1.0033-.77032,2.00403-1.53741,2.97656-2.26978,1.31048.85005,2.63077,1.70959,3.94812,2.57446-.98947.79097-1.9942,1.59754-2.98004,2.41711-.72357-.50012-3.35229-2.31396-3.94464-2.7218Zm8.13177,1.09497c1.38518.90466,2.78021,1.82038,4.1734,2.73907-.99909.85137-2.0118,1.71823-3.01166,2.59314-1.39731-.97203-2.78694-1.93524-4.17542-2.89392.26733-.21857,2.28174-1.85083,3.01367-2.43829Zm1.12482-.90417c.92928-.75275,1.87767-1.48778,2.80176-2.21167,1.37011.8459,2.75055,1.70324,4.12769,2.56531-.92672.77324-1.87088,1.5611-2.7959,2.36047-.7533-.49561-3.50793-2.30426-4.13354-2.71411Zm8.15454,1.11823c1.44871.90285,2.90432,1.81201,4.36237,2.72809-.93521.83155-1.88884,1.67903-2.823,2.53619-1.46112-.96827-2.91486-1.92886-4.36749-2.88312.21991-.18695,2.11084-1.78119,2.82812-2.38116Zm1.10736-.92749c.87167-.73467,1.75905-1.45111,2.62262-2.15759,1.43124.84417,2.87404,1.6996,4.31256,2.56055-.86624.75496-1.7497,1.5233-2.6153,2.30243-.78052-.48999-3.65961-2.29297-4.31989-2.70538Zm8.1745,1.14227c1.50836.89797,3.02427,1.80324,4.54211,2.71539-.87587.8097-1.74391,1.63807-2.63165,2.47644-1.52651-.96483-3.03796-1.91778-4.55511-2.86871.18066-.16003,1.94916-1.71588,2.64465-2.32312Zm1.08704-.95093c.81509-.71615,1.64087-1.41469,2.44666-2.1048,1.47089.83282,2.97113,1.68616,4.48828,2.55151-.81008.7348-1.61165,1.48741-2.4314,2.2475-.81233-.48773-3.8056-2.27759-4.50354-2.69421Zm3.55377-3.05389c.75315-.64738,1.51104-1.27368,2.25354-1.89612,1.45355.78137,2.93475,1.58179,4.43317,2.39386-.74648.66422-1.48564,1.3458-2.23956,2.03241-1.5036-.8587-2.9884-1.70361-4.44714-2.53015Zm4.63495,4.21564c1.54718.88477,3.12592,1.79065,4.72198,2.7085-.81642.79149-1.6232,1.59822-2.44836,2.41473-1.58442-.95812-3.1595-1.90857-4.73407-2.85455.578-.53589,2.21533-2.04437,2.46045-2.26868Zm1.06604-.97064c.76035-.69394,1.50771-1.37832,2.26837-2.05237,1.52893.8316,3.08972,1.68359,4.66675,2.547-.75247.71759-1.49663,1.44953-2.25647,2.18933-1.58258-.91089-3.1438-1.80658-4.67865-2.68396Zm3.35535-3.02313c.69579-.62371,1.38274-1.23946,2.07996-1.84552,1.50708.77777,3.0564,1.58453,4.60809,2.39264-.68951.64667-1.3723,1.30804-2.06848,1.97491-1.56226-.85571-3.10376-1.69775-4.61957-2.52203Zm4.84247,4.20898c1.60971.88239,3.24128,1.78198,4.89789,2.69708-.74597.76971-1.49786,1.54742-2.27045,2.35059-1.6604-.96216-3.30029-1.91058-4.90973-2.83777.51562-.50165,2.03497-1.97211,2.28229-2.2099Zm1.03943-.99536c.70177-.67385,1.39445-1.33942,2.0968-1.9964,1.59154.83078,3.2032,1.67811,4.83929,2.53894-.68536.69635-1.37823,1.40265-2.08643,2.12891-1.63922-.90619-3.25891-1.79907-4.84967-2.67145Zm3.15375-2.992c.64068-.60545,1.27444-1.204,1.91626-1.79395,1.57233.78009,3.16347,1.57697,4.7793,2.38751-.62634.62769-1.2605,1.26587-1.90649,1.91956-1.61853-.85217-3.21765-1.69183-4.78906-2.51312Zm5.04999,4.20197c1.67412.88196,3.35639,1.7746,5.07208,2.68591-.68683.7489-1.38208,1.50903-2.09216,2.28894-1.71918-.95691-3.41931-1.90118-5.08643-2.82391.71167-.72998,1.41742-1.45148,2.10651-2.15094Zm1.00916-1.0202c.64984-.65674,1.29712-1.31042,1.92712-1.94043,1.65353.83062,3.31483,1.67174,5.01038,2.53113-.6283.677-1.26575,1.36627-1.91479,2.07074-1.69727-.90198-3.37616-1.79236-5.02271-2.66144Zm2.95258-2.9613c.59088-.58801,1.18213-1.17639,1.75464-1.74139,1.63388.7807,3.27369,1.57429,4.94739,2.38293-.57251.60944-1.15369,1.23053-1.74396,1.86407-1.67548-.84961-3.3324-1.68817-4.95807-2.50562Zm5.25812,4.19763c1.73482.87997,3.46578,1.76505,5.23975,2.67249-.63282.7321-1.28039,1.47815-1.91882,2.22675-1.77771-.95197-3.52543-1.88706-5.25555-2.80823.65271-.70795,1.30212-1.41125,1.93463-2.091Zm.97534-1.04547c.59387-.63672,1.18719-1.27277,1.76294-1.88458,1.71408.82992,3.42319,1.66581,5.1748,2.52222-.57685.66092-1.16598,1.33355-1.74988,2.01135-1.70215-.87183-5.13824-2.62384-5.18787-2.64899Zm2.75177-2.93109c.5379-.56921,1.07709-1.14014,1.59888-1.68823,1.69256.78179,3.37991,1.56996,5.10815,2.37775-.52333.5952-1.0558,1.19691-1.58704,1.80768-1.73052-.84711-3.43661-1.68067-5.12-2.49719Zm5.4621,4.19354c1.79419.87762,3.57338,1.75479,5.40088,2.65808-.57586.71145-1.16386,1.43544-1.74762,2.16351-1.83502-.94751-3.62796-1.87232-5.42163-2.79083.05023-.05786,1.23346-1.41797,1.76837-2.03076Zm.9339-1.07159c.54648-.62531,1.07467-1.22358,1.60535-1.8266,1.77164.82859,3.52807,1.6571,5.33289,2.51001-.52285.6423-1.05408,1.29355-1.5863,1.95233-1.66394-.82227-5.21094-2.56659-5.35193-2.63574Zm2.55005-2.90039c.49524-.56049.97156-1.09467,1.45178-1.6344,1.74889.78118,3.48208,1.56491,5.26202,2.37-.47292.57748-.9516,1.15855-1.4339,1.75171-1.7862-.84426-3.53454-1.66987-5.27991-2.4873Zm5.66626,4.18842c1.87692.8868,3.72861,1.77163,5.63562,2.68158l-1.58893,2.09668c-1.91271-.95267-3.77345-1.87977-5.65009-2.80725.02136-.02631,1.0946-1.34613,1.60339-1.97101Zm.89215-1.09625c.49518-.6076.97003-1.18549,1.44952-1.77032,1.8565.84016,3.68953,1.67706,5.57428,2.53918l-1.43414,1.89246c-1.63525-.78137-5.34155-2.54382-5.58966-2.66132Zm2.35022-2.8692l1.3075-1.58099c1.83278.79287,3.64112,1.5861,5.50159,2.40131l-1.28638,1.69733c-1.86904-.85545-3.68935-1.68731-5.52271-2.51764Zm5.87042,4.18652c1.90633.87196,3.78309,1.73911,5.71332,2.63098l-1.41876,2.03571c-1.93882-.93361-3.82191-1.83976-5.73145-2.75165l1.43689-1.91504Zm-2.49115-8.27264c1.80824.74944,3.59344,1.49764,5.42865,2.26898l-1.14636,1.51257c-1.84164-.80735-3.6364-1.59482-5.44324-2.37781l1.16095-1.40375Zm-6.44934-2.66077c1.70294.69478,3.39067,1.39202,5.12292,2.10992l-1.146,1.38629c-1.73651-.7516-3.43969-1.48867-5.13647-2.21478.39465-.43768.77594-.85797,1.15955-1.28143Zm-2.1283,2.36072c1.72673.73669,3.4378,1.4767,5.1947,2.23688-.07365.08934-1.25998,1.52337-1.29053,1.56268-1.76057-.79703-3.4858-1.57613-5.20624-2.34607.4433-.4975.87122-.97363,1.30206-1.45349Zm-6.30469-2.67883c1.64865.69162,3.29007,1.3929,4.97168,2.10931-.42464.47426-.85188.94766-1.28418,1.43481-1.68086-.75164-3.34287-1.49247-4.97766-2.21552.43311-.44678.8689-.89691,1.29016-1.32861Zm-2.30884,2.38019c1.67055.73618,3.33574,1.47859,5.04102,2.24005-.47278.5329-.95155,1.06802-1.43256,1.61584-1.70581-.7982-3.39026-1.58414-5.04956-2.35236.48431-.50616.97083-1.01556,1.4411-1.50354Zm-6.15125-2.69855c1.59156.69024,3.1871,1.39316,4.81482,2.10938-.46747.4859-.94128.98022-1.42242,1.48401-1.62805-.75244-3.23853-1.49371-4.82062-2.21814.47894-.46246.96124-.92889,1.42822-1.37524Zm-2.48969,2.3999c1.61293.73447,3.23081,1.48207,4.88171,2.24329-.51892.54572-1.04572,1.10181-1.58026,1.66827-1.65234-.7998-3.28668-1.58807-4.89117-2.3573.53424-.52356,1.07062-1.04993,1.58972-1.55426Zm-5.99316-2.71704c1.52633.68551,3.08487,1.39622,4.6521,2.10876-.51526.50195-1.03741,1.01221-1.56799,1.5332-1.57092-.75183-3.13098-1.49634-4.65796-2.2196.32227-.29254,1.37109-1.2403,1.57385-1.42236Zm-2.67133,2.42114c1.54752.73017,3.12716,1.48647,4.7157,2.24536-.56897.5625-1.14569,1.13464-1.73212,1.71899-1.59717-.80182-3.17462-1.59119-4.7254-2.36176.58157-.54047,1.15843-1.0758,1.74182-1.6026Zm-5.83008-2.7381c1.46631.68298,2.97522,1.39453,4.48474,2.10632-.56865.51607-1.13761,1.05011-1.71307,1.5824-1.51776-.75317-3.01965-1.49579-4.49384-2.21997.34552-.29602,1.49316-1.27484,1.72217-1.46875Zm-2.85327,2.44092c1.48651.7287,3.01617,1.48682,4.5473,2.24567-.62843.57994-1.25272,1.17576-1.88788,1.77356-1.53912-.80255-3.06299-1.59442-4.55774-2.36749.63428-.55778,1.26193-1.10975,1.89832-1.65173Zm-5.65863-2.75696c1.41125.68286,2.86102,1.39117,4.31451,2.10205-.6203.53149-1.23889,1.08155-1.86584,1.63043-1.46338-.75385-2.90741-1.49493-4.32874-2.22046.04938-.04004,1.3056-1.0517,1.88007-1.51202Zm-3.03577,2.46082c1.43134.73035,2.90027,1.48596,4.37384,2.245-.68193.59534-1.35861,1.20867-2.04797,1.82397-1.48474-.80548-2.948-1.59607-4.38873-2.37164.69209-.58059,1.38244-1.13884,2.06287-1.69733Zm-5.48499-2.77631c1.35742.68231,2.74908,1.38837,4.14722,2.09845-.67229.55078-1.35668,1.10733-2.02814,1.67627-1.40643-.75385-2.79034-1.49249-4.15558-2.21838.05554-.04297,1.41675-1.08496,2.0365-1.55634Zm-3.21863,2.48065c1.37592.73138,2.78613,1.4856,4.20398,2.24524-.73464.6155-1.48438,1.23899-2.21899,1.87463-1.42542-.80707-2.82867-1.5976-4.21222-2.37372.08575-.06799,1.57477-1.23712,2.22723-1.74615Zm-3.38226,2.67035c1.39392.78204,2.82184,1.58765,4.25848,2.40021-.79958.68315-1.61462,1.37797-2.41431,2.08313-1.42805-.85352-2.84772-1.6984-4.26874-2.53613.80848-.66454,1.62592-1.30836,2.42456-1.9472Zm-5.32196-2.96594c1.3194.73077,2.66882,1.48376,4.02802,2.24359-.79136.63153-1.59797,1.27201-2.38849,1.92566-1.34929-.80034-2.68981-1.59144-4.03302-2.37531.10803-.08185,1.70831-1.28363,2.39349-1.79395Zm-3.57104,2.69543c1.35479.79091,2.71934,1.59202,4.07971,2.39972-.85782.70043-1.73331,1.41227-2.59009,2.13708-1.36647-.85458-2.72527-1.70116-4.08508-2.54047.86314-.6817,1.73998-1.34223,2.59546-1.99634Zm-5.13489-2.99335c1.27975.73868,2.56986,1.48824,3.85498,2.24396-.8486.64671-1.71209,1.30468-2.55829,1.97626-1.28823-.79978-2.56787-1.59089-3.85046-2.375.85889-.62439,1.71887-1.25018,2.55377-1.84521Zm-3.75714,2.71741c1.29643.79299,2.60235,1.59656,3.90442,2.40558-.91804.71714-1.85104,1.44762-2.76648,2.19092-1.30508-.85618-2.60145-1.70323-3.89972-2.54468.92993-.69531,1.85938-1.38977,2.76178-2.05182Zm-4.9314-3.01385c1.2181.73816,2.44639,1.48625,3.67023,2.24011-.89606.65967-1.80615,1.33575-2.72894,2.02734-1.22716-.79924-2.44544-1.58998-3.66638-2.37494.91675-.64093,1.83405-1.28278,2.7251-1.89252Zm-3.9425,2.74072c1.23364.79353,2.47676,1.59658,3.71637,2.40466-.966.7298-1.94849,1.47919-2.94434,2.24524-1.24261-.8561-2.47633-1.70456-3.71185-2.54767.9903-.71289,1.97882-1.42426,2.93982-2.10223Zm-4.72876-3.03784c1.15738.73759,2.32469,1.48509,3.48755,2.23755-.95392.67548-1.92249,1.36804-2.90515,2.07715-1.16562-.79874-2.32226-1.58937-3.48175-2.375.97577-.65759,1.95105-1.3147,2.89935-1.9397Zm-.59857,5.17059c-1.02521.7464-2.06671,1.51239-3.1236,2.29736-1.19513-.86621-2.36847-1.71564-3.5246-2.55103,1.05103-.7309,2.09906-1.45795,3.1189-2.15198.6449.43854,2.99933,2.04346,3.5293,2.40564Zm-8.04315-5.46313c1.09395.73576,2.19703,1.48096,3.29645,2.23029-1.01239.69116-2.03992,1.3996-3.0827,2.12677-1.03287-.74333-2.25548-1.62062-3.2663-2.35376.45209-.31451,2.48608-1.64307,3.05255-2.0033Zm-4.23199,2.8457c1.03629.7538,2.17896,1.57101,3.24176,2.33569-1.10947.75347-2.23965,1.5031-3.29401,2.34137-.97563-.77568-1.96601-1.57114-2.93695-2.33435.99088-.79873,1.96426-1.59711,2.9892-2.34271Zm-3.9118-2.82776c.90399.64215,1.82751,1.31158,2.75342,1.98633-1.00856.73979-1.96261,1.53015-2.94458,2.31848-.92706-.71844-1.84589-1.4209-2.75452-2.10431l2.94568-2.2005Zm-4.08893,3.05457c.92017.68951,1.85736,1.41083,2.79718,2.1369-1.03912.83861-2.08218,1.67587-3.1347,2.5188-.95508-.77972-1.90186-1.54303-2.83704-2.28418l3.17456-2.37152Zm-3.74481-2.74567c.8526.61182,1.72107,1.25256,2.59027,1.89502l-3.13684,2.34357c-.88104-.69073-1.75464-1.36725-2.61853-2.02551l3.1651-2.21307Zm-1.68811,5.09131l-3.37158,2.5188c-.88456-.74942-1.79326-1.47601-2.69092-2.1908l3.40649-2.38184c.87378.6629,1.76416,1.35699,2.65601,2.05383Zm-6.37177-4.8147c.84149.61115,1.69916,1.25317,2.55719,1.89581l-3.36304,2.3515c-.84927-.69318-1.72211-1.36278-2.58356-2.02271,0,0,2.76624-1.81732,3.3894-2.22461Zm-4.60052,3.02405c.86846.66849,1.75916,1.34047,2.6228,2.0426l-3.60498,2.52075c-.86533-.74427-1.75533-1.4662-2.63257-2.17743l3.61475-2.38593Zm-3.61206-2.72754c.81494.6036,1.64968,1.20699,2.46417,1.84155l-3.58014,2.36292c-.81868-.67898-1.66087-1.33536-2.48975-1.98309,1.22009-.75323,2.42676-1.49731,3.60571-2.22137Zm-4.84991,2.98901c.83799.65752,1.69782,1.31783,2.53406,2.00745l-3.82611,2.52533c-.8561-.72891-1.6939-1.4582-2.54578-2.15619,1.29785-.80499,2.5838-1.60156,3.83783-2.37659Zm-3.50507-2.69666c.77883.58905,1.57497,1.17552,2.35577,1.79291-1.24872.77203-2.51733,1.55811-3.80927,2.35962-.79369-.6526-1.57142-1.3074-2.36267-1.93158,1.29218-.75354,2.5661-1.49542,3.81616-2.22095Zm-2.68524,4.91718c-1.32568.823-2.67365,1.66174-4.04541,2.5163-.81238-.70656-1.60632-1.41351-2.41687-2.09143,1.37415-.80658,2.72986-1.60132,4.05865-2.37848.2486.19916,1.84924,1.49854,2.40363,1.95361Zm-3.55762-2.86829c-1.31769.77063-2.65674,1.55548-4.0188,2.35583-.75723-.63697-1.49869-1.27576-2.25452-1.88641,1.36029-.75323,2.71307-1.5014,4.0307-2.22522.26166.20203,1.75568,1.37091,2.24261,1.7558Zm-5.51904-4.23822c.70304.50906,1.3914,1.0376,2.08496,1.57141-1.3089.72052-2.63684,1.45361-3.98792,2.20227-.70274-.57112-1.39219-1.14639-2.09357-1.69348,1.34814-.70325,2.69037-1.40283,3.99652-2.0802Zm-3.19708,4.49054c-1.38507.76886-2.79346,1.55298-4.22388,2.35187-.72595-.62787-1.4408-1.23621-2.15167-1.83801,1.4339-.7558,2.85107-1.50073,4.23993-2.22809.26721.21155,1.69012,1.35327,2.13562,1.71423Zm-5.29712-4.17426c.66655.49693,1.32051,1.01124,1.97803,1.53107-1.37421.71979-2.77032,1.45398-4.18835,2.20166-.67065-.56183-1.33221-1.10767-1.98987-1.64673,1.41534-.7049,2.82745-1.40765,4.2002-2.086Zm-3.52429,4.42627c-1.45319.76794-2.93182,1.55243-4.43158,2.35083-.68616-.61151-1.36279-1.20697-2.03448-1.7937,1.50238-.75647,2.98895-1.50299,4.44531-2.22943.66467.54248,1.34247,1.10718,2.02075,1.6723Zm-5.06195-4.11121c.00018-.00012.00037-.00012.00061-.00024.61304.48358,1.23981.98932,1.86475,1.49231-1.43951.71991-2.90344,1.4549-4.38843,2.20288-.63324-.54663-1.25861-1.0802-1.87927-1.60571,1.48712-.70905,2.95917-1.40857,4.40234-2.08923Zm-5.75806,2.73572c.62634.52795,1.26666,1.07959,1.90582,1.62921-1.51801.7666-3.06366,1.55048-4.62921,2.34705-.63372-.5953-1.28381-1.17294-1.91998-1.74725,1.57026-.75711,3.11583-1.50027,4.64337-2.229Zm-2.91455-2.41852c.57617.4704,1.16595.96332,1.75317,1.45215-1.50287.71906-3.0321,1.45422-4.58099,2.20203-.58484-.53317-1.18187-1.0476-1.76752-1.56207,1.50043-.68616,4.54468-2.06909,4.59534-2.0921Zm-5.96259,2.71747c.5965.52185,1.19019,1.03864,1.79926,1.58148-1.58264.76526-3.19519,1.54901-4.82635,2.34485-.59583-.5791-1.20379-1.14042-1.79962-1.70032,1.63316-.75606,3.23251-1.49567,4.82672-2.22601Zm-2.78162-2.39716c.54657.46362,1.0918.92499,1.64917,1.40662-1.56573.71881-3.15997,1.45551-4.77246,2.20306-.54802-.51855-1.10482-1.0179-1.65155-1.51862,1.50159-.66107,4.66479-2.04315,4.77484-2.09106Zm-6.14685,2.6955c.55652.5072,1.11102,1.01123,1.67938,1.53705-1.64313.76336-3.31727,1.54581-5.00977,2.33875-.5573-.56332-1.12299-1.10797-1.67834-1.65314,1.69493-.75532,3.34853-1.49124,5.00873-2.22266Zm-2.6438-2.37659c.508.45013,1.01495.89868,1.53339,1.36584-1.6239.71704-3.27972,1.45367-4.95197,2.19983-.5109-.50308-1.02647-.98764-1.53448-1.47485,1.48926-.63202,4.77344-2.01538,4.95306-2.09082Zm-6.3277,2.67474c.51666.49243,1.0318.98236,1.55945,1.4931-1.71211.76509-3.43412,1.54138-5.18903,2.33325-.51583-.54189-1.02998-1.07962-1.55127-1.60815,1.75244-.7537,3.45797-1.48687,5.18085-2.2182Zm-2.50085-2.35486c.46997.43677.9386.87177,1.41833,1.32422-1.69022.71922-3.39302,1.45118-5.12549,2.1972-.46953-.48317-.93814-.96182-1.41309-1.4325,1.46069-.59943,4.85754-1.9823,5.12024-2.08893Zm-6.49585,2.65448c.47794.47757.96352.95791,1.43842,1.44891-1.77651.7653-3.54485,1.53538-5.35663,2.32507-.47773-.52361-.95682-1.05417-1.42578-1.56152,1.80593-.75145,3.56266-1.48158,5.34399-2.21246Zm-2.35541-2.33484c.43294.42326.87275.84782,1.3042,1.28345-1.75357.72099-3.50123,1.44722-5.28986,2.19232-.43244-.465-.86839-.93837-1.29285-1.38885,1.78267-.70901,3.51888-1.39767,5.2785-2.08691Zm-2.24945-2.18018c.38991.37319.7852.74442,1.17413,1.12811-1.72991.6788-3.45563,1.3645-5.22028,2.06714-.38843-.40967-.7832-.82971-1.16412-1.22681,1.39081-.52881,4.84961-1.83307,5.21027-1.96844Zm-6.60577,2.50037c.39875.40774.79095.82448,1.18689,1.24207-1.81208.72123-3.60414,1.44345-5.44373,2.1864-.39362-.44917-.79059-.90736-1.17719-1.34314,1.34918-.52118,4.95837-1.90387,5.43402-2.08533Zm-4.64594,5.06708c.44374.50292.88016,1.01429,1.32263,1.5285-1.91506.80765-3.80113,1.61119-5.73804,2.43799-.44104-.55499-.87799-1.10272-1.30829-1.63922,1.30542-.53406,5.10919-2.07855,5.72369-2.32727Zm-10.85211,8.22168c2.01983-.87129,4.0086-1.72499,6.01434-2.58124.47638.60077.96411,1.22119,1.45282,1.84314-2.01468.89753-4.00361,1.78902-6.03522,2.70197-.48401-.66614-.96136-1.32098-1.43195-1.96387Zm-3.77869,8.83905c-.51734-.77861-1.03939-1.55516-1.55072-2.31744,2.11148-.95676,4.2089-1.90417,6.30688-2.8476.51758.71405,1.04492,1.44562,1.5777,2.18677-.91351.42816-5.13068,2.41077-6.33386,2.97827Zm6.03375-5.74023c2.04457-.91869,4.05646-1.81882,6.08582-2.72357.52094.66705,1.05176,1.35046,1.58722,2.04175-2.03835.94783-4.05152,1.88779-6.10773,2.85034-.53033-.73688-1.05048-1.45703-1.56531-2.16852Zm4.08344,5.68909c-.57861-.81354-1.14282-1.60168-1.70447-2.38562,2.0682-.96859,4.10168-1.91852,6.15436-2.87207.56793.73724,1.14258,1.48602,1.72723,2.25116-.71356.34637-4.81897,2.34351-6.17712,3.00653Zm5.72461-5.85083c1.99839-.92847,3.94923-1.83281,5.92877-2.74426.57661.69011,1.14694,1.3932,1.72852,2.10229-1.98376.95454-3.93739,1.90166-5.94409,2.87427-.58105-.76147-1.14789-1.49841-1.7132-2.2323Zm4.41901,5.79938c-.62942-.83658-1.24569-1.64532-1.85895-2.45233,2.02073-.97973,3.99259-1.93358,5.99316-2.89673.62092.75773,1.24184,1.53369,1.87244,2.31543-.5401.27203-4.52875,2.28552-6.00665,3.03363Zm5.40594-5.96216c1.9453-.93616,3.83749-1.8456,5.75903-2.76282.62066.70622,1.23982,1.43207,1.8692,2.16223-1.92269.96162-3.82034,1.91483-5.77368,2.89764-.62311-.77441-1.24756-1.55139-1.85455-2.29706Zm4.7403,5.91107c-.67529-.85284-1.34808-1.70111-2.0047-2.52045,1.96603-.98933,3.87685-1.94955,5.81763-2.91937.6639.77339,1.33929,1.57515,2.01855,2.37842-.39185.20538-4.26086,2.23517-5.83148,3.0614Zm5.07745-6.07239c1.8881-.94323,3.72105-1.85968,5.57947-2.78113.67487.73057,1.34305,1.47009,2.01111,2.21893-1.85622.96537-3.69756,1.92987-5.59058,2.92053-.67346-.79816-1.34424-1.59125-2-2.35834Zm5.06061,6.01874c-.72711-.87787-1.44647-1.74231-2.1543-2.58569,1.90574-.99792,3.75632-1.96519,5.63147-2.94025.72757.80366,1.44209,1.61593,2.16382,2.43951-.26599.14526-4.00555,2.19019-5.64099,3.08643Zm6.87604-3.76056c-.71815-.81714-1.42102-1.62392-2.1416-2.41974,1.82649-.94992,3.60191-1.87327,5.39319-2.79877.70994.74634,1.43773,1.50196,2.15247,2.27502-1.78598.96961-3.57334,1.94457-5.40405,2.94348Zm3.22784,3.70782c-.77255-.89685-1.5264-1.77991-2.2981-2.65137,1.84263-1.00513,3.63274-1.98179,5.43817-2.96149.76247.81976,1.54556,1.65334,2.30786,2.49939-.16156.09222-3.77032,2.15344-5.44794,3.11346Zm4.3855-6.28882c1.76203-.95581,3.4795-1.88712,5.20032-2.81604.75521.76513,1.53096,1.54128,2.28619,2.33258-1.71062.97135-3.44095,1.95739-5.20258,2.9621-.24542-.2688-1.77026-1.92554-2.28394-2.47864Zm5.6734,6.23499c-.80657-.9159-1.63027-1.82289-2.44434-2.71503,1.77591-1.01256,3.50623-1.99894,5.23907-2.98279.81137.84046,1.64135,1.6964,2.448,2.5636l-5.24274,3.13422Zm4.02667-6.39716c1.69285-.96078,3.35004-1.90105,4.99652-2.83185.80146.78343,1.62138,1.57922,2.4173,2.38953l-4.99188,2.98438c-.31268-.33124-1.92889-2.02899-2.42194-2.54205Zm5.96277,6.34174c-.85268-.93725-1.71679-1.86392-2.57947-2.77588,0,0,4.93811-2.95154,5.02686-3.00446.86032.86068,1.73214,1.73887,2.5838,2.62732l-5.03119,3.15302Zm3.6629-6.50427c1.62195-.96584,3.21873-1.91551,4.78967-2.84833.84106.80145,1.69049,1.61731,2.55243,2.45581l-4.78461,2.99854c-.3905-.40155-2.09631-2.1405-2.5575-2.60602Zm6.24225,6.44928c-.89781-.95867-1.79822-1.90455-2.7085-2.83514l4.81683-3.01862c.89301.87549,1.79065,1.75952,2.7063,2.6759l-4.81464,3.17786Zm3.30316-6.6026l4.56805-2.86273c.88226.81958,1.76904,1.64771,2.67261,2.5061l-4.55975,3.00958c-.02039-.02045-1.81476-1.80231-2.68091-2.65295Zm6.4939,6.53571c-.94559-.98513-1.89851-1.9403-2.83197-2.8855l4.59357-3.0321c.92932.89046,1.86535,1.78533,2.81476,2.71771l-4.57635,3.19989Zm2.93561-6.69257l4.34979-2.87115c.92882.82668,1.83092,1.67995,2.75763,2.54138l-4.32355,3.02313c-.07751-.07599-1.93976-1.88342-2.78387-2.69336Zm6.74109,6.63348c-.98554-1.00464-1.98933-1.98975-2.96759-2.95728l4.36346-3.05103c.98421.90782,1.94376,1.84412,2.93042,2.79053,0,0-3.57312,2.66003-4.32629,3.21777Zm5.44147-4.0509c-.97502-.93623-1.92957-1.86609-2.89453-2.76221l4.11609-2.87799c.96114.84107,1.89829,1.7121,2.86121,2.59009l-4.08276,3.05011Zm4.08496,3.99359c-1.03802-1.02862-2.05752-2.04861-3.0802-3.03198l4.11133-3.07129c1.02525.9316,2.03164,1.89593,3.06415,2.87048-.64905.51349-3.37811,2.66772-4.09528,3.23279Zm5.18378-4.09412c-1.02149-.96545-2.02643-1.92456-3.03271-2.84576l3.87549-2.89514c.99792.87444,2.0175,1.78037,3.01318,2.68231-1.2798,1.01756-2.56224,2.03438-3.85596,3.05859Zm4.1908,4.02808c-1.07212-1.04898-2.13015-2.07737-3.17981-3.07764,1.29893-1.02787,2.59421-2.05592,3.87897-3.07727,1.04563.94999,2.10868,1.92916,3.15002,2.90643-1.25824,1.06451-2.53992,2.14655-3.84918,3.24847Zm1.7868-7.01996c1.21739-.96778,2.42555-1.9315,3.6286-2.89337,1.0302.88483,2.07355,1.78637,3.09412,2.70526-1.17914,1.00519-2.37903,2.0257-3.60577,3.06598-.43085-.40265-2.51184-2.32715-3.11694-2.87787Zm7.40411,6.95483c-1.08621-1.05542-2.18543-2.10454-3.27869-3.13275,1.23401-1.047,2.44611-2.07684,3.63165-3.08765,1.07983.96874,2.16971,1.96234,3.24335,2.95886-1.1745,1.06909-2.37238,2.15552-3.59631,3.26154Zm1.39771-7.1123c1.1543-.9859,2.29071-1.95862,3.39923-2.91003,1.05076.90449,2.11534,1.84942,3.17352,2.75916-1.09534,1.00671-2.21436,2.03119-3.35608,3.07294-.47803-.44208-2.62006-2.3855-3.21667-2.92206Zm7.63318,7.03241c-1.14604-1.03845-2.2801-2.12629-3.40704-3.17395,1.15472-1.05292,2.29016-2.09204,3.39752-3.11035,1.2173,1.02419,2.54418,2.08005,3.81482,3.10889-.30023.24432-2.88776,2.33478-3.8053,3.17542Zm4.88983-4.06415c-1.28272-1.04034-2.62187-2.10429-3.86084-3.1416,1.15036-.96527,2.43725-1.86147,3.63892-2.77399l3.83051,2.94952c-1.18323.96362-2.38586,1.95203-3.60858,2.96606Zm5.14355,4.1853l-4.05634-3.30304c1.23224-1.02142,2.44672-2.01929,3.63855-2.98816l4.05823,3.12494c-.65088.56116-3.08032,2.67529-3.64044,3.16626Zm4.70386-4.07977l-4.02502-3.09924c1.15912-.93732,2.30304-1.85486,3.42493-2.74438l4.01709,2.93652c-1.13403.95418-2.28159,1.93051-3.41699,2.9071Zm5.37103,4.13574l-4.2597-3.28003c1.14501-.98788,2.30818-1.9657,3.45264-2.92438l4.24774,3.10522c-.65338.58356-2.95135,2.65509-3.44067,3.09918Zm4.49048-4.0329l-4.21613-3.08179c1.0698-.90865,2.16427-1.80486,3.23395-2.68182,1.39681.96426,2.80356,1.93843,4.20953,2.91595-1.06863.93373-2.1557,1.89289-3.22736,2.84766Zm5.59259,4.08795l-4.45856-3.25897c1.08194-.9668,2.18294-1.92675,3.26117-2.86591,1.30792.90627,3.11286,2.16164,4.44208,3.08978-.65137.60461-2.81995,2.63531-3.24469,3.0351Zm4.27625-3.98853c-1.25829-.87823-3.17359-2.21145-4.40863-3.06769,1.00588-.88681,2.03629-1.76085,3.03937-2.61713,1.46201.96018,2.93461,1.93205,4.40582,2.9068-1.00628.91233-2.02908,1.84142-3.03656,2.77802Zm5.80469,4.04645l-4.64948-3.24115c1.01359-.94728,2.05141-1.88455,3.06232-2.802,1.53972,1.0174,3.08494,2.04081,4.6355,3.07129-.10193.09839-2.12445,2.06702-3.04834,2.97186Zm4.06323-3.9455c-1.54289-1.02475-3.07148-2.03757-4.60364-3.05011.94553-.8664,1.91254-1.72078,2.85242-2.55786,1.52156.95621,3.05621,1.9236,4.58887,2.89136-.94208.88799-1.8791,1.79606-2.83765,2.71661Zm6.00952,3.99805c-1.40406-.93573-3.45955-2.30481-4.83783-3.21985.96622-.92815,1.90605-1.83959,2.86353-2.73853,1.60036,1.01123,3.21436,2.03427,4.82623,3.05658-.13312.13446-2.02667,2.05847-2.85193,2.90179Zm3.84406-3.89789c-1.60225-1.0176-3.19623-2.02699-4.78778-3.03259.89542-.84562,1.7688-1.67737,2.65961-2.49768,1.5836.95135,3.18155,1.91425,4.77551,2.8786-.88152.86925-1.75424,1.75374-2.64734,2.65167Zm6.26147,3.89008c-.01727.01855-.03583.03876-.05316.05731-1.67962-1.06997-3.35393-2.13474-5.02148-3.19391.90014-.90456,1.77741-1.79354,2.67181-2.67285,1.66091,1.00481,3.33817,2.0214,5.01093,3.03809-.85895.91016-1.71777,1.82062-2.60809,2.77136Zm3.57074-3.79285c-1.66139-1.01018-3.31652-2.01415-4.96704-3.0119.8314-.82363,1.6455-1.63404,2.47449-2.43573,1.6274.93751,3.27899,1.89328,4.95544,2.86383-.81055.84717-1.62457,1.69873-2.46289,2.5838Zm6.40668,3.90326c-1.54768-.94595-3.68414-2.24893-5.20593-3.17328.84338-.88977,1.66943-1.75549,2.48395-2.60632,1.71148.99222,3.43313,1.99526,5.19037,3.01886-.81189.90497-1.62805,1.81567-2.46838,2.76074Zm3.40381-3.80389c-1.74011-1.01465-3.4613-2.01642-5.14746-2.99518.77618-.80652,1.54102-1.59839,2.29199-2.37146,1.69248.93524,3.39503,1.88102,5.13245,2.84808-.74799.82446-1.50287,1.65857-2.27698,2.51855Zm6.59796,3.85614c-1.82324-1.06782-3.61172-2.11452-5.38611-3.1496.77844-.86395,1.54462-1.71124,2.29639-2.53961,1.77536.98839,3.54811,1.98026,5.36542,2.99817-.46899.5528-1.98834,2.35022-2.2757,2.69104Zm3.18042-3.75751c-1.80043-1.00846-3.56871-1.99811-5.32111-2.97485.71381-.784,1.4201-1.55804,2.11041-2.31012,1.75557.93322,3.50775,1.87057,5.30365,2.8324-.47345.55328-1.8717,2.19244-2.09296,2.45258Zm6.77759,3.8078c-1.88205-1.06025-3.71791-2.09371-5.55725-3.12402.70332-.83133,1.41617-1.66077,2.11176-2.47235,1.83748.98432,3.66072,1.96573,5.5343,2.97565-.47656.59674-1.87244,2.34845-2.08881,2.62073Zm2.95947-3.71094c-1.85923-1.00251-3.67431-1.98027-5.49091-2.95343.64843-.75874,1.30012-1.50859,1.93756-2.24664,1.81606.92923,3.61663,1.85855,5.46765,2.81372-.63067.78448-1.27626,1.58551-1.91431,2.38635Zm6.97198,3.77161c-1.94464-1.05452-3.83509-2.08003-5.74365-3.10895.64628-.81051,1.2955-1.61591,1.93066-2.40619,1.91032.98574,3.79579,1.96548,5.73798,2.9751l-1.92499,2.54004Zm2.76624-3.65009c-1.93137-1.00365-3.80862-1.97838-5.70258-2.95648.59436-.74004,1.18363-1.4655,1.7641-2.18274,1.89496.93634,3.76662,1.86654,5.69141,2.82623l-1.75293,2.31299Zm7.07404,3.68994c-1.98636-1.0382-3.91432-2.04779-5.87079-3.06421l1.75409-2.33777c1.94894.97126,3.86913,1.93296,5.84344,2.92432l-1.72675,2.47766Zm2.51959-3.61523c-1.96109-.98418-3.8662-1.941-5.79846-2.90344l1.591-2.12042c1.92713.91972,3.8249,1.8326,5.77631,2.77295l-1.56885,2.25092Zm7.2619,3.65692c-2.03526-1.0285-4.01785-2.02789-6.03052-3.03821.39334-.56649,1.18666-1.70606,1.58044-2.26996,1.99374.96116,3.9595,1.91155,5.97339,2.8891l-1.52332,2.41907Zm2.25916-3.58759c-1.99592-.96844-3.93967-1.91091-5.9137-2.86133l1.43182-2.05334c1.95704.90473,3.88603,1.80233,5.86188,2.72333l-1.38,2.19135Z" fill="#231f20"/>
        <path id="top" d="m295.5,30H50.5l-33.5,40h312l-33.5-40Zm-239.28954,6h233.5881l20.60133,27H35.59762l20.61284-27Z" fill="#a0a0a0"/>
        <path id="top_HI" data-name="top HI" d="m295.5,30H50.5l-33.5,40h312l-33.5-40Zm-239.28954,6h233.5881l20.60133,27H35.59762l20.61284-27Z" fill="url(#linear-gradient-7)" opacity=".2"/>
        <path id="inner_outline" data-name="inner outline" d="m289.30376,37l19.07526,25H37.61919l19.08597-25h232.5986m.49481-1H56.21046l-20.61285,27h274.80228l-20.60132-27h0Z" fill="#515151"/>
        <rect id="top_front" data-name="top front" x="17" y="70" width="312" height="12" fill="#666"/>
        <rect id="top_front_hi" data-name="top front hi" x="17" y="70" width="312" height="12" fill="url(#linear-gradient-8)" opacity=".2"/>
        <rect id="top_hi" data-name="top hi" x="17.00023" y="69.37494" width="312" height="1.25" fill="url(#linear-gradient-9)"/>
        <path id="outer_outline" data-name="outer outline" d="m295.49999,30l33.5,40v12H16.99999v-12L50.49999,30h245m0-2H50.49999c-.59187,0-1.15327.26214-1.53332.71586L15.46667,68.71587c-.30145.36-.46668.81459-.46668,1.28413v12c0,1.10459.89541,2,2,2h312c1.10458,0,2-.89541,2-2v-12c0-.46954-.16522-.92413-.46667-1.28413l-33.5-40c-.38007-.45373-.94147-.71586-1.53333-.71586h0Z" fill="#515151"/>
      </g>
    </g>
  </g>
</svg>