<?xml version="1.0" encoding="UTF-8"?>
<svg id="Layer_2" data-name="Layer 2" xmlns="http://www.w3.org/2000/svg" xmlns:xlink="http://www.w3.org/1999/xlink" viewBox="0 0 346 469">
  <defs>
    <linearGradient id="linear-gradient" x1="172.97045" y1="335.07172" x2="172.97045" y2="331.87299" gradientUnits="userSpaceOnUse">
      <stop offset="0" stop-color="#fff"/>
      <stop offset=".34875" stop-color="#fff"/>
      <stop offset=".90496" stop-color="#fff" stop-opacity="0"/>
      <stop offset="1" stop-color="#fff" stop-opacity="0"/>
    </linearGradient>
  </defs>
  <g id="CASE_14_Plants_LL_WL_CL" data-name="CASE 14 Plants LL WL CL">
    <g id="Day_16" data-name="Day 16">
      <g id="rectangle">
        <rect width="346" height="469" fill="none"/>
      </g>
      <g id="ROOTS_Back" data-name="ROOTS Back">
        <path d="m188.92351,339.77991c.31732-.46942.31293-1.15948-.32336-1.5556-.93707-.57227-1.89697-1.10712-3.05145-1.28571-.99567-.12805-1.73431-.02374-2.59918-.11444-.47211-.16473-.85321-.2774-1.08466-.32019-2.40674-.68292-5.13531-.51605-7.37524-1.62598.30717-1.92-2.34308-2.45929-2.90149-.81525-1.61798,1.64655-4.22052,2.70331-6.46558,3.09796-2.89459.31049-6.44025.91455-8.60461,3.32098-.39673.42969-.39032,1.10156.02527,1.52142,1.18514,1.06107,2.09359-.80087,3.20007-1.13953-.59491,1.01312-1.05188,2.11597-1.40961,3.13422-.39777,1.37317,1.6239,2.01776,2.09503.66986.66302-1.80042,1.89691-4.25696,3.80096-4.86792.44763-.04376.87646-.0813,1.24127-.11615,2.04425-.32465,4.00562-.88727,5.75635-1.87549-.00763.06854-.01477.13654-.02246.20514-.70618.90332-1.78333,1.56628-2.8739,2.21021-2.09693-.27323-4.40951.44654-5.91614,1.82214-.96332.79596-.08386,2.1781.92365,1.93829-.78169.93265-3.15402,3.61237-1.35016,4.51536.57043.23335,1.22308-.05083,1.44287-.62596,1.14642-2.77979,4.40375-4.37476,7.0722-5.9082-.82104.97614-1.32574,2.2312-2.03223,3.15033-.36139.35553-.81232.65442-1.18817.99719-1.14282.93622-6.09906,5.97668-3.75543,7.13782,1.57867.5381,1.70035-1.71013,2.61969-2.54211.16284.95392,1.62891,1.32581,2.0954.22345.24573-.53876.39288-1.31317.39453-1.95935.08112-.51056.47089-.9549.92566-1.51434.23584-.18701.47253-.37354.70264-.56232.36078-.34033.66748-.78784.95764-1.25067.06036.37457.12408.77625.18878,1.18787-.86591,1.49121-1.29193,3.09735-2.19336,4.43665-1.10828.42065-2.33691.7359-3.35681,1.55554-.8316.6217-1.67871,2.45288-.24823,2.93372.08661.0257.17194.01697.25818.02094-.74078,1.52954-1.1687,3.16022.02588,3.49084.58337.1687,1.19312-.16748,1.36182-.75085.54994-1.82871,1.60247-3.72271,3.18457-4.86877.71069-.6687,1.21082-1.4798,1.64459-2.32446.09949.80249.15826,1.58276.16449,2.35199-.79285,1.90613-3.20673,3.02283-3.41681,5.39264-.18945,1.41071,1.89331,1.75714,2.1701.36151.10315-.5625.41449-1.0545.87469-1.57147-.26801,2.41705-.55365,8.547,1.83282,7.95563.57996-.18121.9032-.79822.72205-1.37817-.31702-.97028-.42401-1.97284-.41779-2.99414.70361.67358,1.25873,1.25879,1.69629,1.9917.30103.50262.94891.68518,1.46887.40326.53717-.29083.73413-.96509.43835-1.49939-.83838-1.87085-2.90497-2.70984-3.23297-4.61786.1698-1.10864.35022-2.22241.44287-3.32782,1.80039,1.47115,2.4211,3.59529,2.48248,5.87018.03003.30237.00006.45837.1109,1.02155.26064,1.28752,2.18694,1.07068,2.14373-.25352-.00152-.05196-.00964-.24654-.01965-.48281.74451.40082,1.88788-.20569,1.59253-1.2713-.71179-2.08545-1.9245-3.73553-3.37433-5.27332-.21899-.29211-.50153-.58893-.77051-.86475.87244.59637,2.19379-.42694,1.53528-1.50848-.534-.70233-.79382-1.47296-.99036-2.26086.52722.46063,1.00464.98981,1.39331,1.64893.50293.80499.81677,1.71869.96564,2.68524.09161.57977.62549.98877,1.21387.92023,1.73792-.30792.71893-2.9007.05896-4.28833.78204.32983,1.50964.76434,2.11432,1.48083.40033.43567,1.07983.47705,1.53052.08545,1.55048-1.56232-2.28821-3.53882-3.45831-3.99011-1.29535-.49713-2.60205-.75592-3.28693-1.25079-.03058-.02118-.0611-.0332-.09167-.05133-.76208-.58496-1.56354-1.10333-2.33606-1.56732-.65393-.41272-1.25385-.84375-1.69141-1.28772-.01056-.11676-.01117-.23236-.01868-.34875,1.05707.55017,2.216.97217,3.34149,1.4339.53143.43121.89185,1.00574,1.42004,1.81964.52301.7312,1.41522.5343,1.81244-.01489.30341.25677.59045.53369.84412.85181.33466.50677,1.02448.65155,1.53284.30872,1.61011-1.34613-1.31555-3.18243-2.1806-3.87122-2.07861-1.62708-4.85858-1.92786-6.68579-3.79523.00421-.04358.00903-.08734.01337-.13098,1.0401.43884,2.15527.6488,3.26184.79388,1.69269.23096,2.5155,2.31372,4.0722,3.18927.99835.70056,2.07617-.44458,1.64905-1.34802.9621.81763,1.7782,1.85486,2.29779,2.87463.26703.52698.90607.75067,1.44568.49927,1.89417-.9845-1.21155-4.13263-2.09149-5.03918-.94928-.86865-2.06445-1.63373-3.42987-2.05908,2.74652.65698,5.57208,1.86237,7.58746,3.74561.41864.43658,1.1189.45496,1.5575.03137.79596-.84259-.03949-1.90759-1.45966-2.91699Zm-13.69177,9.89362c.28754,1.12488.81854,2.17743,1.41821,3.09717-.87762-.96265-1.44623-1.96954-2.02734-3.16187-.0791-.78015-.16248-1.55469-.25592-2.32922.06549.03931.13104.07812.19666.117.39062.67175.42743,1.42065.6684,2.27692Z" fill="#4c4c4c"/>
      </g>
      <path d="m177.39738,314.09344c.26585-.20895.91236-.40527,1.18793-.5409.98259-.35944,1.36176-2.35487,2.42571-2.35256.28508-.00921.56223.0498.96974-.27095.37047-.27623.67119-1.3641.96227-1.88942.43727-.03193.88988.04959,1.32404-.41747.23492-.26893.58807-1.01917.78686-1.53907.51352-.18686.99035-.5327,1.01044-1.0423.33766-.13349.84683-.30053.97247-.92352.05507-.18682.13449-.44489.16974-.62238.28815-.07489.82458-.2514.98389-.85388.0589-.22955.12018-.36682.16962-.45038.4949-.25511,1.11054-.36791,1.33369-1.08105.09307-.32563.03203-.67615-.16749-.96167-.29437-.42126-1.52301-1.08954-2.81543-1.375-1.44946-.30526-3.92629-.02781-5.1308.94611-.06024.03436-.12164.07355-.18347.1145-.26729-.00949-.70379-.00063-1.07153.10637-.52332.17616-.8772.59285-1.12006.90223-.30945.02728-.73846.0863-1.06824.43488-.35114.37755-.36579,1.07728-.62933,1.57935-.34627.1953-.88527.36051-1.14319.56182-.44479.24005-.46781,1.20655-.54791,1.91407-.24807.52302-.44003.67208-.63453.97058-.30633.45929-.33875,1.5015-.39109,2.31995-.10444.56429-.69305.92611-.68245,1.54772-.00115.48911.32571.78323.45971,1.20648-.18073.46301-.31848.89648-.30731,1.29694-.33942.7666-.64746,1.54163-.89484,2.31396-.43884-1.39966-.92834-2.53973-1.27728-3.30261-.0191-.31061-.09229-.69434-.19519-1.22412-.06949-.34857.24441-.58508.2979-.96631.09431-.60258-.32348-1.28782-.24995-1.94208.24025-2.13623.81168-3.55769-.2211-4.63775-.00045-.67519.11146-1.54531-.26528-1.87889-.37813-.40459-.75842-.38063-1.07102-.41176-.11558-.11167-.16273-.38232-.16807-.55463.01382-.29458-.19573-.75672-.45021-.94463.07031-.26819-.25983-.91492-.54901-1.06775-.15064-.58231-.33688-1.44738-1.22687-1.50311-.21517-.01136-.38206.03475-.56708.06061-.19446-.43207-.44568-.94458-1.05664-1.03833-.09287-.01494-.27963-.03125-.34875-.05609-.28269-.40975-.68249-1.0121-1.4339-.98083-.29428.01794-.57421.16496-.76123.28558-1.34816-.84659-2.66822-1.07235-3.45997-.43839-.71464.70895-.42762,1.80212-.42694,2.73611-.09668.29753-.34017.47908-.30552.95057.01604.21526.07597.3778.12242.48174-.0033.02417-.00854.05652-.01685.09839-.13681.23707-.30801.47784-.31427.90076-.02882.51435.46373.94034.91858,1.39459-.01645.2297-.06056.5497.22112.90467.1808.21763.41455.32739.65272.51648-.0273.60314-.32918,1.21789.01178,1.78986.29606.55147,1.58481.96772,2.05347,1.45697.24007.56933.43556,2.02143.76488,2.37958.72465.75332,2.18753.46834,2.80063,1.5755.4065.78354.14443.7821.32564,1.41077.19857.55883.72097.73352,1.10244.86102.82041.24443,1.08656.89009,1.70209,1.23755l.00085.00055c.49432,1.11804,1.17938,2.85876,1.5777,4.90167-.78381-.4939-1.90588-.90948-3.43005-.88477-1.12651-1.56501-3.00856-2.29943-4.89583-1.97566-2.78704.3946-5.74266,2.04414-5.73052,4.32399.00854,1.60876,1.33777,1.91583,1.85583,2.03046-.19949,1.25158-.90627,2.54921.86758,3.99039,3.84307,2.89189,9.66918-1.26034,8.9127-5.79752,1.48245.16267,2.5502,1.86963,2.62579,3.01489-.10671,3.68818-.45816,6.58341-.2567,10.88446.03759.80371.70116,1.43018,1.49755,1.43018.853.00289,1.5417-.71757,1.49951-1.56983-.1939-4.17482.15626-7.00298.25647-10.6488.41396-1.86292,1.57468-4.23587,3.65027-4.69214-1.25295,4.55926,6.06177,8.05997,8.98765,4.45447.92194-1.27203.45896-2.37528.46456-3.44604.02856-.04633.05243-.06799.05261-.06824,1.59804-.28892,2.27633-2.60686,1.32297-4.05424-1.70104-3.04407-8.16763-3.25216-9.55252.5695-1.96848-.11466-3.17456.41652-4.25952,1.31409.27991-1.04761.64917-2.14319,1.12463-3.20898.30664-.15765.61224-.34015.8515-.55627Z" fill="#2e541a"/>
      <g id="ROOTS">
        <path d="m189.69139,341.83435c-1.63831-1.58984-3.64905-2.78387-5.80017-3.61127.5-.01611.99847-.03943,1.48376.00391.91956.11194,1.7818.55902,2.60608,1.02527.04675.02637.10834.01227.13647-.03387.02875-.04712.01385-.1087-.03326-.13745-.81677-.49817-1.67767-.99268-2.66925-1.15131-.9248-.11768-1.82483-.00256-2.73499-.12646-2.84611-1.01617-6.05271-.71525-8.76172-2.08893-.19159-.10828-.34943-.24634-.44775-.37506.01178-.25519.02667-.5094.02942-.76733.00696-.66974-.99323-.65479-.99805-.00995-1.78693,1.93414-4.64136,3.13269-7.24261,3.58942-2.80981.32001-5.99677.80225-8.01874,3.02161-.09125.09381.0614.22809.14453.13824,1.4704-1.47095,3.39532-2.04913,5.38837-2.34467-1.77124,1.13104-2.81482,3.43085-3.48456,5.32703-.03912.12463.15546.18079.19092.05896.81458-2.14978,2.18616-4.91736,4.56097-5.54401.43292-.04315.8653-.08154,1.29333-.11548,2.53546-.38184,5.09485-1.26031,7.08484-2.91718-.06995.85718-.16284,1.72852-.25378,2.60693-.68857,1.22253-2.35853,2.04562-3.58661,2.8587-1.95874-.23022-4.05554.19409-5.5448,1.58954-.10156.08002.02478.23651.12384.15723,1.41766-1.21185,3.11359-1.57678,4.89587-1.41583-2.37665,1.50153-4.75635,3.18109-5.74835,5.88605-.04523.12225.14648.18634.18762.06915,1.38062-3.28729,4.81317-4.8454,7.72424-6.5498.60236-.37891,1.25305-.72955,1.82025-1.23505-.0658.75946-.11115,1.52008-.12354,2.27979-1.35651.98151-1.70123,2.62457-2.73273,3.79724-2.11786,1.74329-4.31665,3.74792-5.31879,6.39215-.04688.12177.14185.18921.18616.07312.81708-1.896,2.20319-3.37146,3.74792-4.68579-.1322.23163-.25409.47119-.34375.73438-.1825.75751.00043,1.44379-.3269,2.15955-.04541.12.13953.19122.18604.07306.34619-.64636.24512-1.48444.42645-2.14044.2395-.61707.69202-1.16913,1.13446-1.70465.22693-.17804.45453-.35516.68298-.52972.93152-.92993,1.43073-2.36627,2.36053-3.24304.02856,1.02441.13422,2.04187.37958,3.04004,0,0,.07074.46252.16205,1.05963-1.01261,1.61839-1.49406,3.50361-2.57336,5.03442-1.43884.64331-3.58417.87042-4.06378,2.62494-.02985.12695.1712.16846.19543.04187.44489-1.46545,2.12482-1.73621,3.47504-2.20148-.00342.00336-.00592.00775-.00934.01105-1.73822,1.39038-2.81738,3.50537-3.37543,5.63129-.03119.12775.16547.17059.19403.04852.6308-2.0528,1.73083-4.03864,3.48254-5.33801,1.38312-1.38129,1.90479-3.25366,2.82349-4.88019.13495.88293.26282,1.71991.2627,1.71991.36542,1.41321.422,2.83246.35846,4.25281-.69763,1.93927-3.15283,3.04248-3.40491,5.24237-.02216.12799.17804.15839.19727.03284.31439-1.8479,2.1214-2.81879,3.14563-4.26782-.26056,3.29175-.95959,6.5835.13092,9.8147.04071.12781.22986.04932.18988-.06274-.61548-1.9552-.53699-3.99963-.26428-6.01917.68842,1.6308,2.51855,2.63245,3.35925,4.20465.06519.11194.23669.00995.1734-.09967-.89899-1.87457-3.19513-2.92346-3.38593-5.09668.02429-.15057.04718-.30164.07257-.45166.40063-1.92865.49359-3.94989.35333-5.92792.24854.42188.50781.83978.80341,1.23132.60101.89056,1.5174,1.5755,2.16516,2.39117,1.34821,1.72156,1.45013,3.93506,1.63062,6.0545.01373.12775.20758.10199.19623-.0199-.08325-1.6947-.15582-3.54706-.87152-5.14441.94708,1.11194,1.76044,2.34186,2.26007,3.7002.02832.13053.23205.07885.19385-.04944-.6759-1.94934-1.9491-3.62158-3.37695-5.09259-1.26282-1.39294-2.375-2.815-3.15222-4.55054-.01019-.07745-.01306-.1571-.02399-.23431-.09979-.92236-.32166-2.95276-.49536-4.42456.54059.44501,1.1275.81433,1.70734,1.15552.14655.07501.28986.16144.43549.24066.60583.81329.67926,1.84308.93463,2.80945.2641,1.02582.74762,1.97949,1.32166,2.85291.03003.04498.091.05865.13696.0296.04669-.02948.06067-.09125.03113-.13794-.54541-.87567-.99146-1.81311-1.22308-2.81183-.18536-.79767-.27454-1.66302-.62219-2.42224,2.49524,1.47644,4.68909,3.60681,5.0434,6.61847.0188.12903.21228.09863.19836-.02539-.18909-1.95221-1.14886-3.77057-2.54266-5.13867.79114.27606,1.6012.4516,2.36127.73755,1.18982.40778,2.27191,1.09344,3.12689,2.01984.08481.09532.23532-.03779.14899-.13312-1.61646-2.12366-4.5426-2.34015-6.67554-3.53156-.00568-.00427-.01312-.00092-.0191-.00446-1.46143-1.15265-3.3067-1.9317-4.49469-3.32507-.00781-.06-.01715-.1358-.02423-.18823-.08575-.82446-.08972-1.6402-.05194-2.45386.49457.44604,1.03754.84729,1.63324,1.14233,1.05182.45117,2.1532.84076,3.21973,1.28674.78003.5345,1.21382,1.3874,1.76019,2.16363.07146.10681.24028-.00253.1665-.11053-.34088-.62622-.75519-1.23474-1.25049-1.75623,1.41876.64575,2.73956,1.44287,3.74048,2.70361.07507.10693.23511-.00519.16669-.11072-1.17639-1.66376-3.02557-2.65338-4.81201-3.53278-1.72968-.69958-3.38055-1.34601-4.55933-2.79199.06-.7157.1427-1.43237.22485-2.15326,1.34378,1.08079,3.00163,1.2959,4.60553,1.50171,1.841.39276,2.64844,2.69397,4.28583,3.30878.03351-.04395.02509-.10669-.01886-.1402-.77838-.59363-1.43567-1.30121-2.0448-2.07507-.26575-.36438-.60779-.68146-.98718-.94464.43762.05194.87366.10632,1.30554.17493,2.55255.52136,4.6637,2.62646,5.85638,4.89197.05835.11694.23193.02704.18054-.08624-1.18604-2.4198-3.24066-4.6131-5.95142-5.27289-2.38684-.55414-5.44879-.40717-7.12286-2.36261.03461-.32977.06372-.66168.09113-.99469.38391.22266.82874.35077,1.25732.50641,2.22626.70428,4.63556.54822,6.83167,1.07452,2.90271.75659,5.85071,1.94196,8.0517,4.03503.09448.09399.2287-.0481.14441-.13861Z" fill="#fff"/>
      </g>
      <path d="m184.05974,314.67816c-2.1048.07434-3.23468,1.34521-3.71826,2.97394-3.00359-.78949-5.58681,1.51622-6.53381,4.13696.20557-1.9682.79395-5.11786,2.16486-7.9693.27655-.13507.56128-.29382.75464-.46844.37054-.33472,1.23419-.60425,1.40851-.69196.42322-.21307.73792-.93475,1.30383-1.65833.8457-1.08142,1.74811-.70825,1.88745-.82861.13928-.12042.52997-1.32336.85754-1.81403.32764-.49066,1.18597-.22986,1.32947-.39417.11768-.1347.49432-.888.67322-1.42468.0921-.27643.78174-.4931.87-.56702.03534-.0296.0097-.48645.20135-.6416.23224-.18805.77856-.30774.79541-.39783.0293-.15625.20306-.62378.19678-.83557-.01831-.61798.91473-.49194.97296-.7121.02191-.08289.11871-.50018.36218-.836.29071-.401,1.3407-.51392,1.12067-.82886-.05597-.08008-.92828-.68781-2.21136-.97125-.89356-.27435-3.54967.01388-4.39667.82576-.2027.10594-.41754.32963-.65784.26994-.17255-.04285-.70557.01196-.79681.04266-.39355.13245-.724.70636-.88422.85284-.15277.13971-.72284.04016-.89642.22363-.05756.06085-.33209,1.3924-.69385,1.65552-.3197.23267-1.09052.50909-1.18927.5863-.0813.06354-.14642,1.30298-.21075,1.44714-.31665.7099-.6748,1.07019-.7254,1.15631-.20184.34363-.20526,1.2641-.25659,1.89441-.05493.67535-.67957,1.33984-.67908,1.46271.00073.18335.64819.92249.41284,1.51898-.19049.48273-.25677.74854-.26263.91248-.99396,2.10181-1.59656,4.34814-1.92377,6.19604-.45465-3.34534-1.72662-6.08221-2.25623-7.20654-.0257-.20001-.07849-.48138-.16675-.93567-.14087-.72516.25769-1.13635.29712-1.34381.02649-.1391-.34235-1.08142-.26233-1.85785.07471-.72473.49603-2.96448.33978-3.39618-.03912-.10822-.38391-.50018-.53809-.83435-.07623-.16516.03571-1.43268-.04297-1.52179-.09558-.10822-.43951-.02057-.76642-.16132-.12012-.05176-.38354-.2594-.57117-.6745-.16022-.35449-.1369-.81635-.17316-.8786-.10492-.18018-.31677-.21851-.362-.36029-.12891-.40454-.03082-.53705-.08319-.6181-.1579-.24438-.21222-.11566-.3559-.30609-.15057-.19965-.26044-1.12781-.44867-1.14478-.35494.06858-.95003.11079-1.25866-.18854-.09053-.07104-.31379-.77649-.47175-.80072-.21576-.03314-.51959-.04279-.76941-.22668-.30298-.22308-.56262-.8313-.815-.7973s-.73419.59033-1.13892.27814c-1.24121-.95734-2.34735-.79828-2.42761-.7193-.31555.3103-.13489,1.14935-.12817,2.01532.00366.47784-.31567.78552-.30835.88397.01953.26166.22723.21564.07623.91174-.05176.23846-.28235.45905-.28217.64215.00018.10559.59503.63342.81848.89539.18433.21606.05908.72809.09283.76904.08447.10236.81982.49304.86597.82556.08954.64545-.21716,1.43054-.1123,1.60785.12793.21637,1.82782.90741,2.09546,1.53217.2677.62476.51086,2.02344.64331,2.18915s2.17657.33521,2.90662,1.73816c.48846.93878.32605,1.38348.38086,1.53772.07526.21179.883.27179,1.31433.6524.99487.87781.68823.66193,1.14563.97845.70221,1.52173,2.08881,4.80212,2.16901,8.54236-.89865-1.96125-2.82876-2.95075-5.15698-2.69604-.8149-1.55969-2.63582-2.32989-4.21694-2.01188-2.38402.33744-4.87919,1.73856-4.87071,3.32847.00745,1.40277,1.66846.78406,1.82886,1.51324.27173,1.23492-1.07098,2.52838.49792,3.71539,3.92793,2.62397,8.73086-2.15671,7.00543-6.04333,2.65649-.348,4.74743,1.70388,4.93195,3.99854-.10156,3.69773-.46067,6.61379-.25994,10.89777.03428.65139,1.02658.60783.99901-.04691-.19856-4.23108.16017-7.13916.25977-10.80728.57253-2.98786,2.90066-6.31013,6.31348-5.56659-1.34796,1.49329-.82233,3.36182.51819,4.65265,1.47552,1.4209,4.78088,1.82898,5.99969.19141.85236-1.14514-.04944-2.53766.38202-3.31067.47467-.85059,1.02301-.36218,1.46436-1.146.89966-1.5979-.73309-3.94061-4.3775-3.81183Z" fill="#95c172"/>
      <path d="m173.00023,335.07172c-.27539,0-.49854-.22217-.5-.49756-.00342-.76172-.05957-2.6709-.05957-2.67188l1-.0293s.05615,1.92773.05957,2.69629c.00155.27721-.22328.50241-.5.50244Z" fill="url(#linear-gradient)"/>
      <g id="leaf_1_right_hi" data-name="leaf 1 right hi">
        <path d="m180.272,317.87165c1.10782.19136,2.32631.72626,3.49276.58629,2.03753-.2445,3.68282.3275,3.20812,1.17806-.43144.77304.47031,2.16555-.382,3.31066-1.21885,1.63757-4.52418,1.2295-5.99972-.19139-1.40918-1.35699-1.94359-3.35728-.31917-4.88361Z" fill="#a6d67c"/>
      </g>
      <g id="leaf_1_left_hi" data-name="leaf 1 left hi">
        <path d="m167.57369,323.69229c.69035-1.21155.79224-2.67045.32491-3.92799-.22604-.60825-2.52209-.42939-3.76436-.25351-2.38402.33754-3.9693,1.71507-3.80886,2.44422.27174,1.23493-1.07098,2.52843.49791,3.71544,2.53553,1.74028,5.52424.2045,6.7504-1.97816Z" fill="#a6d67c"/>
      </g>
      <g id="leaf_2_left_hi" data-name="leaf 2 left hi">
        <path d="m161.06338,296.09979c-.31552.3103-.13489,1.14936-.12818,2.01533.0037.47787-.31567.78551-.30832.88397.01952.26163.2272.21565.07623.91172-.05173.23851-.28237.45908-.28214.64219.00014.10556.59502.63342.81848.89536.18433.21607.05907.72811.09284.76905.08443.10236.81982.49301.86593.82555.08951.64548-.21717,1.43052-.11229,1.60786.12794.21633,1.8278.90742,2.09547,1.53217s.51083,2.02339.64328,2.18911,2.17659.33523,2.90662,1.73817c.4885.93878.32608,1.38346.38089,1.53773.07524.2118.88297.27178,1.31432.65238,1.0092.89046,1.39323,1.07538,1.39323,1.07538-1.63676-3.75474-2.4817-7.87107-4.38224-10.46395-2.28959-3.12365-4.05888-4.67384-5.37412-6.81204Z" fill="#a6d67c"/>
      </g>
      <g id="leaf_2_right_hi" data-name="leaf 2 right hi">
        <path d="m188.70654,301.72062c.22001.3149-.82998.42784-1.12068.82882-.24349.33584-.34029.75314-.36219.83599-.05819.22017-.99128.09413-.97294.71213.00628.21176-.16751.67932-.19678.83555-.01687.09007-.56315.20979-.79543.39786-.19161.15513-.166.61199-.20131.64157-.0883.07395-.7779.29059-.87004.56706-.17886.53664-.55551,1.28995-.67317,1.42465-.14353.16431-1.00187-.09648-1.32947.39419s-.71826,1.69359-.85759,1.81398-1.04169-.25275-1.88741.82862c-.56591.7236-.88063,1.44527-1.30386,1.65833-.17427.08773-.97998.43562-1.40851.69195-1.0026.59971-1.11712.5959-1.11712.5959.99586-3.20746,4.40517-7.62434,4.96371-8.37884,3.90912-5.28066,8.07683-3.92788,8.13281-3.84776Z" fill="#a6d67c"/>
      </g>
    </g>
  </g>
</svg>