<?xml version="1.0" encoding="UTF-8"?>
<svg id="Layer_2" data-name="Layer 2" xmlns="http://www.w3.org/2000/svg" xmlns:xlink="http://www.w3.org/1999/xlink" viewBox="0 0 394 469">
  <defs>
    <linearGradient id="linear-gradient" x1="173.07233" y1="335.07172" x2="173.07233" y2="331.36904" gradientUnits="userSpaceOnUse">
      <stop offset="0" stop-color="#fff"/>
      <stop offset=".34875" stop-color="#fff"/>
      <stop offset=".90496" stop-color="#fff" stop-opacity="0"/>
      <stop offset="1" stop-color="#fff" stop-opacity="0"/>
    </linearGradient>
  </defs>
  <g id="CASE_14_Plants_LL_WL_CL" data-name="CASE 14 Plants LL WL CL">
    <g id="Day_12" data-name="Day 12">
      <g id="rectangle">
        <rect width="394" height="469" fill="none"/>
      </g>
      <g id="ROOTS_BACK" data-name="ROOTS BACK">
        <path d="m187.14708,338.69934c.14038-.50336-.03448-1.09387-.68536-1.32605-1.05945-.38007-2.45123-.75037-3.59552-.55774-.43616-.14893-.78815-.25073-1.00677-.29065-2.40381-.67627-5.12115-.50464-7.3656-1.59546.33791-2.01903-2.55185-2.54896-2.95746-.66553-1.28253,1.50775-3.24451,2.40735-5.23456,2.66351-.96979.15063-2.35901-.03741-3.78961.18781-1.32489.11205-5.34278,1.78135-3.929,3.55429.98125.94135,1.75167-.34426,2.59917-.73947-.17041.43195-.13495.86963.2879,1.27032,1.28265.98456,2.02716-1.08362,3.00378-1.45782.37756-.20422.66382-.27258,1.00049-.30542,1.78551.02314,3.60282-.39271,5.24799-1.21454-.26257.20349-.57172.41223-.92407.59882-1.78021.99243-3.79846,1.95087-5.25299,3.55731-.75977.92645-2.92633,3.49994-1.17407,4.3371.56378.22595,1.20398-.04791,1.42999-.61169.63519-1.60675,1.90894-2.81775,3.56323-3.72864.73877-.4574,1.57697-.81812,2.38898-1.22406-.91003.92529-1.4729,2.20734-2.36536,3.01575-2.36896,1.86145-4.28607,4.21729-5.43109,7.03662-.21533.55585.05157,1.18585.60529,1.41467.5614.23199,1.20465-.03503,1.43665-.5965.37512-.9118.92621-1.81689,1.5448-2.65356.01672-.02673.03802-.04987.05511-.07629.88296,1.17881,2.02442.21124,2.42029-.94794.29218-.88043.15369-1.45148.63947-2.11548.58368-.5119,1.13898-1.03906,1.58044-1.64203.12024-.18121.2262-.33441.33411-.49103.02252.47479.03156.95697.03473,1.44269-.9599,1.69202-1.36224,3.5506-2.62109,4.93054-1.87982,1.53632-2.98438,3.71454-3.61938,6.03931-.32861,1.38593,1.71257,1.93802,2.12373.57076.54137-1.83229,1.58782-3.73451,3.16521-4.88869.43658-.41333.79346-.88007,1.10431-1.375.00928.07819.01392.15826.02435.23596.00061.3606-.01404.72748-.03253,1.09644-.7489,1.95093-4.87396,6.26392-2.16479,7.20068.59784.10846,1.17035-.28821,1.27875-.88605.10675-.51306.3313-.99683.60846-1.46967.00195,1.43121.16217,2.84595.74011,4.18201.49206,1.32128,2.48046.66838,2.08899-.69049-.16888-.49231-.26495-.98755-.33295-1.48419.3219.33685.60107.68695.87323,1.13519.30115.51978.9718.70624,1.49823.40417,1.20593-.75269.11731-2.05859-.50122-2.84082-.69556-.86456-1.60297-1.34393-1.80713-2.33984.1095-.90149.24158-1.81049.33759-2.72723.52325.57129,1.12482,1.12817,1.50458,1.59796.98413,1.24854,1.25964,3.09357,1.33771,4.69849.02899.30243-.00195.45831.10785,1.02167.25985,1.29241,2.19333,1.07213,2.14483-.25633-.00506-.1523-.07195-1.5284-.07745-1.70674-.01123-.16327-.02722-.32611-.04297-.48895.65179.01392,1.32452-.50623,1.12305-1.3515-.45892-1.53271-1.92615-2.62653-3.07263-3.71674-1.23444-1.37775-2.18762-2.51605-2.97766-4.21826.01355-.59863.03528-1.19025.05811-1.78064.13873.08789.27673.17706.41724.26129.02319.15454.05676.30505.10852.4422.30933.88879.75165,1.50854,1.04883,2.31763.21716.54865.83282.83282,1.39294.63324.72479-.33331.80542-.849.6532-1.42139.98643.72831,1.13548,1.77666,1.3645,3.06458.09058.58801.63458.99939,1.22797.92267,1.45004-.26344.84796-1.92719.64191-2.94867.38776.01996.77563-.15283.99426-.50659.81342-1.72736-1.71216-2.03687-2.96771-2.55493-1.55054-1.26691-3.58685-2.07788-4.87134-3.46997-.00592-.11823-.01007-.23492-.01807-.35486,2.53583,1.35779,5.71484,1.91724,7.47473,4.20435.8468,1.15527,2.58997-.05798,1.80725-1.25311-1.40991-1.93951-3.24921-2.87482-5.2597-3.86475-1.39282-.57629-2.72504-1.03113-3.78967-2.03009.92249.29297,1.85529.47784,2.78168.65918.26196.14825.40497.34369.78394.66681.9071.65045,2.16248,2.33032,3.23413,1.12683.13629-.17816.18939-.38513.20355-.59338,1.09332.44299,1.9848,1.06281,2.54254,2.26709.65906,1.26062,2.55408.3559,1.98541-.94751-.9151-2.37921-3.27185-3.50433-5.54962-4.27576,2.91821.62988,5.99341,1.87189,8.14191,3.89032.41919.43903,1.12195.45697,1.56073.03143,1.08954-1.15826-.88763-2.72827-3.23932-3.99762Z" fill="#4c4c4c"/>
      </g>
      <path d="m188.51689,316.84424c-1.6694-3.0036-8.05091-3.25985-9.49371.46191-2.13957-.3352-3.36012.13957-4.42517,1.02795.104-.42029.23456-.83698.40338-1.23669.28381-.14288.57184-.31152.79761-.51538.2224-.16135.74444-.32135.96485-.43128.68132-.3472.96154-1.07708,1.43561-1.67303.22564-.28852.37616-.29023.53491-.29023.25408-.00848.52591.04376.91987-.26665.33562-.25675.55802-1.06587.80633-1.55684.32834-.01249.75831.01269,1.13385-.40057.21441-.24555.50061-.86036.66778-1.28449.38654-.11603.84242-.50618.86658-.87701.27362-.10663.72906-.3067.83331-.86377.03802-.12137.09175-.30417.12091-.42596.27545-.08386.70831-.2785.84747-.80505.03784-.14746.0755-.24176.10553-.30139.42783-.20475.95025-.32956,1.15901-.98461.25041-1.27284-1.11371-1.71954-2.62872-2.16488-1.24473-.26822-3.39636-.01897-4.42213.80587-.02448.01398-.07355.04474-.12921.08099-.11074.00074-.528-.01208-.90837.10003-.45039.15156-.76564.498-.97438.75831-.26984.02832-.64075.10052-.93201.40839-.3254.35206-.31826.85804-.53534,1.32318-.30661.16159-.71741.28742-.93915.46313-.43243.26975-.44587,1.04093-.51721,1.68989-.17323.35458-.29983.47816-.42346.65247-.0167-.45349-.27102-.73134-.51953-1.09027.00405-.63424.09727-1.35972-.26345-1.70018-.33707-.37028-.73332-.38101-.96879-.39717-.01489-.02258-.03186-.05219-.04883-.08972-.0581-.37646-.08396-.89109-.44232-1.17194.03893-.27065-.24258-.79775-.49792-.95911-.12784-.5058-.33088-1.32428-1.18042-1.37341-.13801-.00528-.26902.00946-.43481.04114-.19303-.4823-.58358-.9251-1.23523-.93713-.26369-.36884-.62907-.90684-1.34619-.88019-.25041.01647-.49627.12629-.66064.22992-.88617-.57849-1.6767-.67175-2.09351-.67175-.47491,0-.80627.10846-1.04291.34125-.67118.66532-.41513,1.63857-.41168,2.49738-.21515.28953-.38579.85761-.16479,1.27887-.00153.00861-.00323.01764-.00507.02704-.11705.19964-.27837.44117-.28351.83703-.01579.49974.386.85749.80549,1.27368-.09462.49723.25673.97792.77075,1.2641-.04549.54224-.281,1.04595.03094,1.58276.28195.51793,1.34984.85212,1.81055,1.28931.21148.52835.37831,1.78025.68353,2.10675.63431.70194,1.91383.42452,2.45671,1.36985.35046.67661.10856.66284.28065,1.22884.28236.73873.94909.72945,1.44191.99237.50372.43475.54483.51952.89758.79059.05042.21527.08649.43591.1239.65656-.74017-.62445-1.65131-1.10822-2.74896-1.36676-.85417-1.7009-2.5211-2.75274-4.4682-2.72099-2.8373.01984-6.33057,1.47614-6.48833,3.86998-.11897,1.60442,1.18181,2.0158,1.68913,2.17108-.29821,1.23179-1.10539,2.46946.5486,4.0466,3.38209,3.0144,9.23087-.12329,9.32994-4.45413,1.30048.78546,1.88513,2.14758,2.14026,3.1203.10483,3.43336.3143,7.4305.01672,10.61816-.08684.87417.61749,1.64678,1.49561,1.64062.76464,0,1.41845-.58252,1.49169-1.35937.32042-3.45235.09804-7.55276-.01068-11.16064.46686-1.92652,1.31699-3.74367,3.29309-3.80438-1.62915,4.67011,5.86612,8.43367,8.90042,4.73726.92192-1.27217.45896-2.37533.46451-3.44612.02863-.04626.05243-.06799.05267-.06818,1.59885-.28797,2.27558-2.60826,1.323-4.05426Z" fill="#2e541a"/>
      <g id="ROOTS">
        <path d="m189.69139,341.83435c-1.78021-1.71924-3.99402-2.97784-6.35236-3.80035.0426-.00568.07867-.0072.1048-.00201.89655-.05511,1.78101.22223,2.63843.47974.12149.04034.18612-.14971.06323-.18964-1.08081-.42261-2.31116-.64771-3.44867-.49371-2.85976-1.01825-6.07556-.70219-8.80133-2.07385-.16315-.09216-.30548-.20569-.41046-.3205.00793-.28583.01495-.57227.01495-.86218-.00366-.65985-.99786-.64459-.99976,0-.00195.03265-.00311.06659-.00507.0993-1.43518,1.83728-3.71851,2.95331-6.07715,3.24969-2.3985.14325-5.38678-.18591-7.14563,1.92926-.09027.09344.06.229.14453.13837,1.34613-1.45166,3.11432-1.58997,4.9259-1.58508-.90051.39471-1.67938,1.08032-2.24841,1.88922-.07971.10223.07916.22516.15729.12366.82043-1.07135,1.93463-1.86371,3.25348-2.00232.32501.00238.64886.00146.96936-.00964,2.16339-.19836,4.34167-1.05219,5.96271-2.59161-.03394.66083-.05872,1.32373-.07806,1.99475-.00378.00769-.00995.01154-.01331.01984-.84521,1.69073-3.17078,2.289-4.69562,3.34412-1.74207,1.0285-3.27997,2.55054-3.96368,4.48999-.04535.12335.14655.18878.18768.06915.73364-1.86633,2.2478-3.26501,3.98016-4.21503,1.46844-.94501,3.29596-1.35773,4.48248-2.67871-.01031.79333.00043,1.58624.02789,2.38049-.00787.0036-.01526.00287-.02319.00732-1.60504.78125-2.03088,2.70001-3.35321,3.74249-2.20789,1.73083-4.04285,3.99353-5.10046,6.60217-.04895.1239.14313.19141.18616.07312.93513-2.16758,2.44096-4.08908,4.22913-5.61627-.43953.85003-.15615,1.91963-.86914,2.63519-.0854.0956.06289.23001.14874.13379.88483-.87891.48376-2.31293,1.3197-3.23041.008-.0108.00391-.02417.00861-.03607.5661-.44287,1.12604-.89258,1.50171-1.50507.5741-.86267,1.14117-1.68427,1.96741-2.17224.04364.87177.11261,1.73981.22253,2.59705.00067.46417-.00214.9353-.00415,1.40765-1.04818,1.69671-1.50583,3.85174-2.86682,5.28467-1.74225,1.38245-2.82697,3.48779-3.39417,5.60999-.03174.12805.16571.17145.19403.04852.62183-2.05646,1.71631-4.05188,3.46381-5.35931,1.27014-1.27722,1.80878-2.97516,2.60492-4.51306.00287,1.37793.03113,2.76526.18451,4.10956.01807.396.00873.79254-.00983,1.18945-.57385,2.17157-3.06836,3.87762-3.01099,6.15283.05432.00977.10632-.02631.11615-.08069.34576-1.91803,1.87775-3.21234,2.8075-4.85333-.31074,2.47049-.47476,5.05812.47696,7.41613.04115.11911.22969.05972.18998-.0628-.51538-1.487-.54071-2.97998-.41742-4.479.65717,1.24066,2.10016,2.03485,2.77417,3.31787.06604.11169.23767.01099.1734-.09961-.72363-1.58466-2.63971-2.43976-2.84967-4.2135.16779-1.42657.40723-2.85876.44873-4.29773-.0459-.53223-.06281-1.05743-.06946-1.58008.33453.61517.68811,1.22479,1.11072,1.78937.59814.89362,1.50787,1.57733,2.15454,2.39844,1.34467,1.73102,1.43848,3.94574,1.61133,6.06873.01337.12836.20819.10236.19635-.0199-.09808-1.85156-.17139-3.89838-1.10034-5.58209.17389.1629.45709.42828.45709.42828.5415.56262,1.22681,1.11401,1.45264,1.87549.03062.12538.22779.07626.19378-.04945-.48875-1.3523-1.80258-2.18337-2.90124-3.33574-1.27472-1.40283-2.40393-2.84521-3.17249-4.61511.02454-1.31543.10205-2.61816.10284-3.94037.70709.66418,1.53339,1.15845,2.37122,1.63788-.06866,1.09491.78546,1.99176,1.09729,2.9989.01978.04999.07593.07599.12701.05768.14337-.64691-.98999-1.9693-.94922-2.89893.47534.27209.94873.5473,1.39868.85675.80914.51062,1.63116.97797,2.08734,1.78479.46136.79504.65076,1.74164.79791,2.67072.01904.12903.2132.1001.19836-.02539-.11621-.94574-.26508-1.91559-.73083-2.79626-.18652-.28955-.40088-.54938-.63049-.79279.71177.19499,1.43251.38032,2.06531.75306.04663.02697.10681.01232.13544-.03394-.41248-.64465-1.80353-.77594-2.71906-1.19501-1.64929-1.42072-3.90326-2.19067-5.26227-3.89978-.00909-.27899-.01923-.55817-.03973-.84003-.1001-.67059-.14807-1.33356-.16504-1.99402.54364.53131,1.15887,1.00574,1.83954,1.34875,2.68646,1.17285,5.73224,1.93591,7.61066,4.33466.07495.10797.23602-.005.16669-.11066-1.18469-1.65564-3.03674-2.633-4.82587-3.5011-1.82666-.72552-3.59528-1.39594-4.79468-3.01221.00769-.54797.03076-1.09662.05927-1.64716.76007.53119,1.66174.81305,2.49762,1.00507.62689.15771,1.29205.2912,1.96942.42761,1.00269.56354,2.33435,2.15564,2.89789,2.13556.03351-.04388.02515-.10663-.01874-.1402-.54694-.41803-1.07666-.85614-1.57233-1.32782-.16492-.17084-.34473-.34332-.5321-.50879,2.63776.55054,5.31482,1.29877,6.55157,3.81683.0603.11646.23267.0285.18054-.08624-1.52594-3.55157-6.03943-3.99231-9.32404-4.91681-.98871-.26282-1.94-.6568-2.60107-1.33295.01654-.29926.03125-.59991.04541-.9021.3761.21527.81085.34222,1.22528.49329,2.22241.7099,4.6261.56226,6.8241,1.09412,2.90277.76398,5.8493,1.95679,8.04626,4.05591.09467.09448.22888-.04816.14441-.13861Z" fill="#fff"/>
      </g>
      <path d="m183.34325,315.54724c-2.08795.07373-3.21588,1.3255-3.70605,2.93536-2.94761-1.03022-5.25748.57368-6.19238,3.2666-.00848-.70264-.00525-1.35461.01819-1.92889.12024-1.15778.39459-2.43048.96484-3.55341.25238-.11975.52277-.26617.70087-.427.31195-.28174,1.03888-.50861,1.18555-.5824.35626-.17938.62115-.7868,1.09747-1.39587.71185-.91016,1.47137-.59607,1.58862-.69745.11731-.10132.44611-1.11383.72186-1.52679.27576-.41302.99823-.19348,1.11902-.33179.09906-.1134.41608-.74744.56659-1.19916.07758-.23267.65802-.41504.73236-.47729.02972-.0249.00812-.40942.16943-.53998.1955-.15833.65527-.25909.66949-.3349.02466-.13147.1709-.52502.16565-.70331-.01544-.52014.76996-.41406.81891-.59937.01843-.06976.09991-.42096.30487-.70367.24469-.33752,1.12848-.43256.9433-.69763-.04712-.06744-.78137-.57892-1.86133-.8175-.75215-.23085-2.98712.01152-3.70069.69502-.17059.08916-.35144.27751-.55371.22728-.1452-.03613-.59387.01001-.67072.03583-.33124.11151-.60931.5946-.7442.7179-.1286.11755-.60846.03381-.75452.18823-.04846.05121-.27954,1.17194-.58398,1.39343-.26917.1958-.91791.42847-1.00104.49347-.06842.05353-.12323,1.09674-.17737,1.21808-.2666.59753-.56805.90082-.6106.97327-.16992.28925-.17279,1.06396-.216,1.59454-.04626.56842-.57196,1.12775-.57153,1.2312.00935.15915.59031.86401.31982,1.35376-.53815.86212-.89203,1.8338-1.11108,2.80139-.11487-.51324-.27374-1.01331-.47137-1.4928-.02026-.10699-.04211-.22058-.06903-.35919-.12421-.63934.22717-1.00183.26196-1.18481.02332-.12262-.30182-.95337-.23126-1.63794.06586-.63898.43732-2.61359.29956-2.9942-.03455-.0954-.3385-.44098-.47443-.7356-.0672-.14563.03149-1.26312-.03784-1.34167-.08429-.09546-.38751-.01819-.67572-.14227-.1059-.04559-.33813-.22864-.5036-.5946-.14124-.31256-.12067-.71979-.15265-.77466-.09247-.15887-.2793-.19263-.31915-.31763-.11365-.35669-.02716-.47351-.07336-.54498-.13922-.21539-.18707-.10193-.31372-.26984-.13281-.17603-.22961-.99432-.39557-1.00928-.31293.06043-.83764.09773-1.10973-.16625-.07978-.06257-.27668-.68458-.4159-.70594-.19019-.02917-.45807-.03772-.67834-.19989-.26709-.19659-.49603-.73285-.71851-.70288-.22253.02991-.64734.52045-1.00415.24518-1.0943-.84399-2.06952-.70374-2.14032-.63416-.2782.27356-.1189,1.01331-.11298,1.77679.00323.42133-.27832.69257-.27185.77936.01721.23065.20032.19012.0672.80383-.04559.21027-.24896.40472-.24872.56616.00012.09308.5246.55847.72156.78943.16254.19049.05212.64191.08185.67798.07446.09027.72284.43469.76349.72784.07892.56909-.19147,1.26123-.099,1.4176.11279.19073,1.61145.79999,1.84747,1.35083.23596.55078.45032,1.78387.56714,1.92999.11676.14612,1.91895.29553,2.56256,1.53247.43073.82764.28754,1.21973.33582,1.35571.06635.18677.7785.23962,1.15875.5752.83282.7348.6355.60333.95789.82648.18768.63605.30811,1.30304.38623,1.96143-.03162.68628-.03461,1.47595-.0213,2.33215-.71039-1.51245-2.04053-3.01196-4.37866-3.39252-.61793-1.73275-2.47022-2.82375-4.17093-2.6044-2.40323.14749-5.00156,1.34652-5.11911,2.93209-.1037,1.39899,1.60107.91382,1.70325,1.65338.17303,1.25256-1.26801,2.43561.2019,3.74323,3.60884,2.85154,8.654-1.24384,7.54407-5.20001,2.67395.54962,3.83649,2.76172,4.25568,4.41205.10546,3.52489.32639,7.60104.01862,10.91321-.05911.64865.93018.74665.99512.09372.31783-3.41966.0881-7.54971-.01727-11.15042.54602-2.9897,2.61293-5.59736,5.91443-4.46924-1.39929,1.50055-.87402,3.39355.47974,4.6972,1.47559,1.4209,4.78088,1.82898,5.99976.19141.85229-1.14508-.04944-2.5376.38196-3.31067.47473-.85052,1.02307-.36218,1.46436-1.146.89972-1.5979-.73309-3.94055-4.3775-3.81183Z" fill="#95c172"/>
      <path d="m173.00072,335.07172c-.01904,0-.03906-.00098-.05859-.00342-.27441-.03223-.4707-.28027-.43848-.55469.0835-.71191.14014-2.63965.14062-2.65918.0083-.27637.28418-.48877.51465-.48535.27588.0083.49316.23877.48535.51465-.00244.08105-.05908,1.99072-.14746,2.74609-.02979.25439-.24561.44189-.49609.44189Z" fill="url(#linear-gradient)"/>
      <g id="leaf_1_right_hi" data-name="leaf 1 right hi">
        <path d="m179.55554,318.74075c1.10782.19136,2.32631.72626,3.49276.58629,2.03753-.2445,3.68282.3275,3.20812,1.17806-.43144.77304.47031,2.16555-.382,3.31066-1.21885,1.63757-4.52418,1.2295-5.99972-.19139-1.40918-1.35699-1.94359-3.35728-.31917-4.88361Z" fill="#a6d67c"/>
      </g>
      <g id="leaf_1_left_hi" data-name="leaf 1 left hi">
        <path d="m167.57025,322.89075c.78418-1.15304,1.00134-2.59929.63512-3.8899-.17714-.62425-2.48014-.62788-3.73243-.55098-2.40327.14758-4.09272,1.39517-3.99055,2.13474.17303,1.25258-1.26795,2.43562.20196,3.74321,2.38967,1.93571,5.49067.64157,6.88591-1.43707Z" fill="#a6d67c"/>
      </g>
      <g id="leaf_2_left_hi" data-name="leaf 2 left hi">
        <path d="m163.75176,302.59279c-.27818.27358-.11892,1.01332-.11301,1.77681.00326.42131-.2783.69254-.27183.77935.01721.23066.20031.19012.06721.80382-.04561.21028-.24895.40475-.24874.56619.00012.09307.52459.55845.72161.78939.16251.1905.05208.64193.08185.67803.07444.09024.72279.43466.76345.72784.07892.56908-.19146,1.26121-.099,1.41756.1128.19073,1.61147.80003,1.84746,1.35083s.45037,1.78391.56714,1.93002,1.91898.29556,2.56261,1.53245c.43068.82767.28749,1.21972.33581,1.35573.06634.18674.77847.23962,1.15876.57517.88975.78507,1.22833.94811,1.22833.94811-1.44304-3.31035-2.18797-6.93948-3.86358-9.22548-2.0186-2.75395-3.57849-4.12067-4.73806-6.0058Z" fill="#a6d67c"/>
      </g>
      <g id="leaf_2_right_hi" data-name="leaf 2 right hi">
        <path d="m185.21182,306.05033c.18518.26505-.6986.36012-.94328.69762-.20494.28268-.28642.63392-.30486.70366-.04898.18532-.83437.07923-.81893.5994.00529.17824-.141.57178-.16563.70328-.0142.07581-.474.17658-.66952.33488-.16128.13057-.13972.51511-.16944.54001-.07432.06224-.65476.24459-.73232.4773-.15055.45169-.46758,1.08576-.56661,1.19913-.12081.1383-.84328-.08121-1.11902.33179s-.60456,1.42549-.72184,1.52683-.87679-.21274-1.58864.69745c-.47633.60906-.74122,1.21649-1.09746,1.39582-.19825.03644-2.20977,1.16665-2.12582,1.08399.83822-2.69973,3.70784-6.41742,4.17796-7.05249,3.29032-4.44475,6.79828-3.30611,6.8454-3.23867Z" fill="#a6d67c"/>
      </g>
    </g>
  </g>
</svg>