<?xml version="1.0" encoding="UTF-8"?>
<svg id="Layer_2" data-name="Layer 2" xmlns="http://www.w3.org/2000/svg" xmlns:xlink="http://www.w3.org/1999/xlink" viewBox="0 0 346 469">
  <defs>
    <linearGradient id="linear-gradient" x1="188.33491" y1="324.79013" x2="180.37093" y2="318.54172" gradientUnits="userSpaceOnUse">
      <stop offset="0" stop-color="#64681e"/>
      <stop offset=".6959" stop-color="#64681e"/>
      <stop offset="1" stop-color="#64681e" stop-opacity="0"/>
    </linearGradient>
    <linearGradient id="linear-gradient-2" x1="157.33455" y1="324.41522" x2="166.49184" y2="318.22998" gradientUnits="userSpaceOnUse">
      <stop offset="0" stop-color="#64681e"/>
      <stop offset=".69142" stop-color="#64681e"/>
      <stop offset="1" stop-color="#64681e" stop-opacity="0"/>
    </linearGradient>
    <linearGradient id="linear-gradient-3" x1="156.27963" y1="301.34512" x2="173.78338" y2="307.71596" gradientUnits="userSpaceOnUse">
      <stop offset="0" stop-color="#64681e"/>
      <stop offset=".69142" stop-color="#64681e"/>
      <stop offset=".92418" stop-color="#64681e" stop-opacity="0"/>
      <stop offset="1" stop-color="#64681e" stop-opacity="0"/>
    </linearGradient>
    <linearGradient id="linear-gradient-4" x1="188.41275" y1="301.65854" x2="176.87523" y2="315.43959" gradientUnits="userSpaceOnUse">
      <stop offset="0" stop-color="#64681e"/>
      <stop offset=".5344" stop-color="#64681e"/>
      <stop offset=".814" stop-color="#64681e" stop-opacity="0"/>
      <stop offset="1" stop-color="#64681e" stop-opacity="0"/>
    </linearGradient>
    <linearGradient id="linear-gradient-5" x1="173.13861" y1="335.07173" x2="173.13861" y2="331.87836" gradientUnits="userSpaceOnUse">
      <stop offset="0" stop-color="#fff"/>
      <stop offset=".34875" stop-color="#fff"/>
      <stop offset=".90496" stop-color="#fff" stop-opacity="0"/>
      <stop offset="1" stop-color="#fff" stop-opacity="0"/>
    </linearGradient>
    <linearGradient id="linear-gradient-6" x1="188.23711" y1="323.52718" x2="179.90457" y2="321.32128" gradientTransform="translate(72.41231 -.85092) rotate(16.87948) scale(.99427 .85662) skewX(3.1761)" gradientUnits="userSpaceOnUse">
      <stop offset="0" stop-color="#c6c359"/>
      <stop offset=".75529" stop-color="#c6c359"/>
      <stop offset=".91864" stop-color="#c6c359" stop-opacity="0"/>
      <stop offset="1" stop-color="#c6c359" stop-opacity="0"/>
    </linearGradient>
    <linearGradient id="linear-gradient-7" x1="158.0221" y1="324.12702" x2="166.0772" y2="319.4764" gradientTransform="translate(-21.26882 77.40536) rotate(-8.84484) scale(.99489 .8366) skewX(-3.18205)" gradientUnits="userSpaceOnUse">
      <stop offset="0" stop-color="#c6c359"/>
      <stop offset=".66052" stop-color="#c6c359"/>
      <stop offset="1" stop-color="#c6c359" stop-opacity="0"/>
    </linearGradient>
    <linearGradient id="linear-gradient-8" x1="158.76952" y1="305.00972" x2="170.9369" y2="305.00972" gradientUnits="userSpaceOnUse">
      <stop offset="0" stop-color="#c6c359"/>
      <stop offset=".49649" stop-color="#c6c359"/>
      <stop offset=".8287" stop-color="#c6c359" stop-opacity="0"/>
      <stop offset="1" stop-color="#c6c359" stop-opacity="0"/>
    </linearGradient>
    <linearGradient id="linear-gradient-9" x1="188.01626" y1="301.25228" x2="177.02752" y2="314.34816" gradientTransform="translate(14.36425 22.83553) rotate(-.16965) scale(.92672) skewX(-.33986)" gradientUnits="userSpaceOnUse">
      <stop offset="0" stop-color="#c6c359"/>
      <stop offset=".50708" stop-color="#c6c359"/>
      <stop offset=".77189" stop-color="#c6c359" stop-opacity="0"/>
      <stop offset="1" stop-color="#c6c359" stop-opacity="0"/>
    </linearGradient>
    <linearGradient id="linear-gradient-10" x1="185.59331" y1="327.06252" x2="181.72414" y2="320.36091" gradientTransform="translate(72.41231 -.85092) rotate(16.87948) scale(.99427 .85662) skewX(3.1761)" gradientUnits="userSpaceOnUse">
      <stop offset="0" stop-color="#cfd16b"/>
      <stop offset=".74748" stop-color="#cfd16b"/>
      <stop offset="1" stop-color="#cfd16b" stop-opacity="0"/>
    </linearGradient>
    <linearGradient id="linear-gradient-11" x1="160.51726" y1="326.59567" x2="164.44257" y2="318.92991" gradientTransform="translate(-21.26882 77.40536) rotate(-8.84484) scale(.99489 .8366) skewX(-3.18205)" gradientUnits="userSpaceOnUse">
      <stop offset="0" stop-color="#cfd16b"/>
      <stop offset=".56263" stop-color="#cfd16b"/>
      <stop offset="1" stop-color="#cfd16b" stop-opacity="0"/>
    </linearGradient>
    <linearGradient id="linear-gradient-12" x1="158.76952" y1="305.09563" x2="170.72599" y2="305.09563" gradientUnits="userSpaceOnUse">
      <stop offset="0" stop-color="#cfd16b"/>
      <stop offset=".47524" stop-color="#cfd16b"/>
      <stop offset=".83108" stop-color="#cfd16b" stop-opacity="0"/>
      <stop offset="1" stop-color="#cfd16b" stop-opacity="0"/>
    </linearGradient>
    <linearGradient id="linear-gradient-13" x1="188.99965" y1="302.15476" x2="178.11601" y2="315.12538" gradientTransform="translate(14.36425 22.83553) rotate(-.16965) scale(.92672) skewX(-.33986)" gradientUnits="userSpaceOnUse">
      <stop offset="0" stop-color="#cfd16b"/>
      <stop offset=".57994" stop-color="#cfd16b"/>
      <stop offset=".85315" stop-color="#cfd16b" stop-opacity="0"/>
      <stop offset="1" stop-color="#cfd16b" stop-opacity="0"/>
    </linearGradient>
  </defs>
  <g id="CASE_14_Plants_LL_WL_CL" data-name="CASE 14 Plants LL WL CL">
    <g id="Day_28" data-name="Day 28">
      <g id="rectangle">
        <rect width="346" height="469" fill="none"/>
      </g>
      <g id="ROOTS_Back" data-name="ROOTS Back">
        <g>
          <path d="m192.22722,342.90753c-.85583-.82776-1.75024-1.54974-2.67365-2.21021.70296.39655,1.57128.82223,2.13038-.04372.32152-.51542.16423-1.19401-.35133-1.51542-2.54204-1.64543-5.78958-1.91695-8.60992-2.21124-2.53485-1.14496-5.72919-.86169-8.21399-2.0531-.00244-.1001-.00665-.20227-.00873-.302.01293-1.67963-2.36162-2.08333-2.90863-.51489-.79913.85638-2.21021,1.64978-3.30322,2.13684-1.45746.70825-3.07483.90216-4.62933,1.23798-3.48474,1.1142-6.57855,2.4339-9.29724,5.01984-.99109,1.02008.53796,2.5401,1.55255,1.5567.91174-.82336,2.01257-1.54327,3.19543-2.16071-.74304,1.2522-1.36835,2.55951-1.80194,3.99481-.17041.56635.13818,1.17126.70288,1.36084.58203.19611,1.21326-.12518,1.39862-.71045.14825-.39319.32123-.80481.50562-1.2204.03345.09174.07251.18384.1358.27753.36603.49542,1.07068.59167,1.55737.21484.96973-.69073,2.13507-1.21887,3.35883-1.58313-2.14935,1.87189-6.539,6.24139-4.23969,7.46759.5722.23315,1.22607-.05493,1.44312-.63269,1.58606-3.33057,5.08661-5.38904,8.04938-7.58154-.55646.90503-.80591,1.69196-1.44849,2.3139-2.99103,2.38412-5.32308,5.71587-7.98047,8.37372-1.19525.90509.14893,2.6676,1.32849,1.75366,1.59357-1.435,2.98438-3.02533,4.42303-4.55774-.00098.02368-.00409.05414-.00458.07617-.0545.94775-.81598,1.63641-.29041,2.32745-.93048.73688-1.74982,1.64105-2.47375,2.53864-.09784.11267-.18884.20923-.25745.27405-.01202.01935-.0249.02899-.03491.03546.02405-.01251.09357-.03815.27124-.06293-1.43945.15021-1.25073,2.29218.19055,2.19177.9895-.2428.98315-.50024,1.4754-.94916.27454-.31952.56909-.6554.87842-.9859-.66138,1.56067-1.09705,3.22833-1.58105,4.86511-.14081.57227.19562,1.15967.76709,1.32202.58429.16595,1.19244-.1731,1.3584-.75739.33441-1.18201.76855-2.41425,1.25104-3.57013.60181-1.34961,1.16449-2.70392,2.16632-3.59668.30365-.23621.71057-.62653.91956-.93201.01691-.02258.03131-.04755.04797-.07031.00067.79962.01123,1.60052.0426,2.40479-.73639,2.26593-3.23035,4.47198-3.58002,7.0802-.19519,1.39618,1.85974,1.76831,2.16406.39062.17871-.89844.80353-1.84564,1.51178-2.81818.02087,3.04004.04779,6.07117.69824,9.16559.31433,1.3783,2.36157.98474,2.16327-.39734-.31403-2.02295-.36395-4.11426-.33765-6.2392.81952.91559,1.66309,1.79102,2.23566,2.73859.61789,1.06922,2.30894.38868,1.99945-.80737.64099.15637,1.42035-.24988,1.37311-1.10339-.07495-.96198-.13177-1.95007-.2204-2.93707.11346.19934.22687.39893.33997.59607.24591.36261.41052.72485.97949,1.19867,1.33038,1.36188,3.02008-.89337,1.33856-1.74585-1.50948-2.35853-2.67978-5.17242-4.96539-7.02997-1.30511-1.25818-2.0224-2.43085-2.7951-4.06995.04224-.82074.08344-1.64178.15833-2.45575.31482.19714.63281.38208.95245.56177,1.1828,2.02557,1.85199,5.12109,3.36688,7.17914.32599.49243.98749.64252,1.49426.33069,1.38805-.96501-.50598-2.5677-.77094-3.76086.86395,1.34198,1.49225,2.84918,1.75403,4.34161.09369.58093.63104.98822,1.22009.91577,2.03741-.33148.2168-4.01624-.22162-5.13702-.13562-.27637-.28687-.54132-.43256-.8103,1.51178.57251,2.95471,1.21985,4.06342,2.39252.40289.4505,1.09967.49207,1.55243.08667,1.71586-1.85093-3.50542-4.12118-4.76801-4.64868.13062-.23047.1803-.50061.10974-.77069.55414.41357,1.07178.8573,1.53162,1.3374.82361,1.22156,2.64227.01001,1.83295-1.21698-2.07452-2.52954-4.86218-3.96661-7.71143-5.40668-1.52826-.59021-2.60345-1.09741-3.59851-2.30798-.00085-.04779-.0025-.09534-.00342-.14313.94135.34088,1.95178.51764,2.95557.64343,2.15758.63199,3.72172,3.25142,5.76838,4.59164.77224.59658,1.95622-.1815,1.70367-1.12088.82678.84491,1.5451,1.76208,2.06628,2.66357.27734.526.92535.73743,1.461.47156,2.65723-1.38885-4.84186-7.81085-6.47839-8.30908-2.11639-1.00977-5.06104-.56903-7.026-1.8338,1.58478.37323,3.2334.45972,4.79785.6366,2.28546.52051,4.62579,1.76154,6.71558,2.91901,1.43506.84027,2.8811,1.77045,3.9729,2.83075,1.0213,1.0431,2.59075-.46052,1.5871-1.52368Zm-31.49042.716c.84302-1.49304,1.92847-2.87512,3.27094-3.64539.26483-.0694.53082-.14105.79016-.19958,2.4151-.28943,4.74023-.9292,6.77637-2.1673.00952.28162.0188.56293.02869.84271-.77698.98279-1.70844,1.81079-2.69525,2.59106-1.46533-.09259-3.55096.5946-4.40656.80261-.69659.27179-2.61951.91406-3.76434,1.77588Zm8.2984,6.5556c.17151-.82434.51044-1.51227.99567-2.15149.56982-.43026,1.10019-.90322,1.47473-1.51898-.02924.45508-.05133.90979-.07806,1.36426-.66016,1.06317-1.08539,2.59192-1.47906,3.20593-.21167.43506-.38556.81824-.59277,1.16785-.25092.04437-.49487.10461-.73322.1795.20746-.83466.28821-1.75543.41272-2.24707Zm5.44458,5.36572c2.39471,2.03513,2.43704,5.54232,2.76947,8.4856-1.25031-1.68597-2.98004-3.18768-3.2691-5.01813.01953-1.3197.03448-2.64331.05072-3.9707.14941.16864.29126.34924.44891.50323Zm2.84021-9.81348c.05139.02289.10443.04785.15607.07098.79993.54395,1.41772,1.4541,2.04578,2.34326-.21307-.104-.42932-.20349-.63586-.31683-.08679-.06177-.17371-.1109-.26019-.14929-.05817-.04956-.10535-.10657-.16492-.15521-1.2016-.92139-2.90033-1.73047-3.80603-2.76062.00287-.05487.00781-.10938.01044-.16425.87122.50116,1.80823.88824,2.65472,1.13196Z" fill="#4c4c4c"/>
          <path d="m163.481,356.57031c-.01605.0083-.0141.00916,0,0h0Z" fill="#4c4c4c"/>
        </g>
      </g>
      <path d="m191.73015,304.66101c-1.02975-1.8876-5.04973-3.05313-7.20837-1.96912-.05487.01764-.11121.03839-.16815.06061-.4594-.11459-.81794-.11183-.90674-.11426l-.08771.00793c-.51526.05988-.92023.36353-1.20648.60077-.37278-.05335-.78416-.00299-1.07104.20435-.40888.28858-.5427.88664-.88355,1.31182-.35909.10829-.86039.15238-1.13641.28814-.48055.15686-.68502,1.01355-.90363,1.6612-.32191.41798-.52544.51597-.75733.74853-.37831.37015-.61419,1.31195-.82682,2.05842-.21617.4869-.80858.69589-.92548,1.28118-.09843.4515.12211.7726.17504,1.18182-.27588.41919-.51117.83472-.55206,1.25549-.6637,1.02234-1.30756,2.19373-1.86371,3.42023-.40985-1.47913-.93738-2.81201-1.47668-4.02698.01874-.38483-.1261-.8385-.37927-1.6095-.05835-.17761-.02429-.28577.05206-.49432.40345-.78096-.33988-1.57345-.36843-2.39722-.02883-2.14943.36033-3.63129-.79942-4.57366-.0924-1.26783-.20335-2.25777-1.6123-2.10547-.12871-.09635-.20934-.35902-.23619-.52931-.02312-.29398-.28881-.72631-.56484-.88091.03619-.27489-.37219-.87516-.67822-.99072-.2299-.56074-.47623-1.32974-1.32239-1.34003-.30884.01256-.42345.07672-.63788.1333-.24701-.40436-.5603-.88135-1.17822-.89801-.09402-.00319-.28135.00399-.35309-.01196-.31747-.36893-.78838-.86998-1.46362-.81134l-.16632.03857c-.27496.07294-.47437.22882-.63501.3576-1.30052-.60019-2.66106-.80299-3.48753-.0023-.62038.79283-.19891,1.84148-.08133,2.76805-.05873.30737-.27766.51784-.18424.98145.04283.21154.1226.36523.18175.46252-.00024.02441-.0014.05719-.00446.09979-.10602.25237-.24582.5126-.1991.93292.03573.51394.57767.87501,1.08582,1.2688.01231.22987.00877.55295.33251.86982.20678.19346.45214.27305.71223.43078.04837.60186-.17431,1.24957.23566,1.77441.36271.50997,1.69339.76196,2.21954,1.1886.30931.53481.68497,1.951,1.05645,2.2652.81324.6569,2.22893.19104,2.97575,1.21283.50133.72648.24117.75794.49958,1.35901.38522.74124,1.15129.61637,1.71603.85954.58982.39653.65127.46659,1.01684.70271.6687,1.51312,1.31268,3.22089,1.68646,5.16284-1.41138-.96973-3.22479-1.32251-5.22925-1.01007-1.32196-1.3704-3.2909-1.65904-5.1062-1.11234-2.23365.62284-5.48017,2.35727-5.26887,4.58268.13422,1.41357,1.35199,1.58777,1.94299,1.61951-.59741,2.05763.62154,3.57862,3.29598,3.62468,3.55519-.11474,6.64091-2.8938,6.31468-6.31798,2.07897-.12938,3.90877,1.0848,4.0282,3.14246.06225,3.77233.87594,6.68697.19187,10.87805-.15359.90136.57017,1.74633,1.48294,1.73779.72362,0,1.36083-.5249,1.47899-1.2622.71858-4.48288-.01664-7.34251-.14978-11.12817.29567-2.06441,2.5799-3.21938,4.66547-3.10669-1.83931,5.02768,8.79131,10.03221,8.99896,3.20886,1.4642.19939,2.70179-1.45035,2.25153-2.96733-.62832-2.9894-6.79858-5.57592-9.25745-2.50727-2.10791-.45215-4.12042-.25647-5.77979.58032.57855-1.48602,1.36444-3.01257,2.25879-4.35699.24377-.07635.48572-.16656.6922-.28619.28071-.13263.89408-.18601,1.16529-.25537.52984-.13952.9162-.52069,1.32525-.92425.22254-.23649.85047-.84039,1.09909-.77207.28688.03087.59973.12313.91281.0933l.27203-.13348c.40485-.19154.86839-1.07936,1.23956-1.51868,1.15513.36397,1.69595-.46867,2.31342-1.38586.47071-.05144,1.02133-.32655,1.12744-.75085.32007-.05179.83903-.12866,1.07532-.68463.08042-.14585.19483-.35185.25995-.49579.29718-.01733.80774-.09564,1.07471-.61981.08978-.17957.16449-.28558.22101-.34973.5088-.13212,1.08931-.12714,1.44263-.75189.15777-.29542.17254-.64679.04052-.96412Z" fill="#2e541a"/>
      <g id="ROOTS">
        <path d="m191.50591,343.59998c-2.2569-2.08167-4.88226-3.80457-7.6958-5.08423,2.38024.14373,4.81194.42485,6.90344,1.65036.04639.02659.10639.01218.13508-.03372-2.15148-1.75419-5.62752-1.96128-8.33923-2.16907-.75018-.29791-1.50787-.57471-2.27771-.80664-2.11072-.34076-4.26367-.4613-6.18787-1.39648-.21045-.11108-.39856-.25641-.51947-.39319-.00781-.26477-.01801-.53119-.02435-.79517.00153-.64722-.93286-.64276-.98932-.0545-2.17194,2.39117-5.4906,3.36261-8.60645,3.88385-3.19867,1.0083-6.37872,2.39178-8.82007,4.7417-.09302.09692.06189.23053.14447.13812,1.97418-1.78656,4.47614-2.96844,7.01971-3.81824-1.96906,1.69537-3.13538,4.27618-3.98547,6.67529-.03864.12457.15521.17957.19092.05902,1.04968-2.71484,2.60468-5.78912,5.25702-7.18933.10754-.03088.21558-.06543.32288-.09528,2.97852-.39178,6.14337-1.18408,8.4906-3.19617.02179.98309.05157,1.96228.08612,2.93677-.04388.04248-.08148.09735-.10919.16681-.64286,1.30153-2.1682,2.28844-3.28821,3.24854-.01379-.00183-.02417-.00818-.03925-.00818-2.97363.06708-5.94446.95496-8.30865,2.76215-.10162.08057.02582.23578.12378.15704,2.15698-1.53101,4.90509-2.29803,7.53955-2.35913-2.88989,2.27203-6.06354,4.50732-7.48413,7.98145-.0459.12335.1474.18561.18756.06909,1.76801-3.83295,5.71851-5.97491,8.95129-8.45319.86798-.69073,1.76025-1.25177,2.47363-2.07355.02161.70184.03424,1.4032.04181,2.10364-1.354.76538-1.8775,2.27209-2.62244,3.47522-.80841,1.13733-2.07605,1.85663-2.97369,2.92877-1.9809,2.00879-3.69763,4.31567-5.70801,6.26801-.11572.08118.02081.2442.12079.15948,2.11206-1.92053,3.86078-4.13751,5.91962-6.09698.26398-.29395.55682-.55859.85889-.8136-.26508.55835-.46118,1.14752-.55804,1.75189-.21344,1.07672-.12048,2.21442-.66418,3.12384-.06848.10938.09656.21606.16699.10999.61737-.94781.5647-2.11877.81598-3.17041.19641-.97583.63544-1.86987,1.24127-2.6413.47095-.38678.92822-.7854,1.29901-1.26642.72198-1.04718,1.23651-2.20892,2.11249-2.84686-.00031.07178.00244.14362.00189.21539-.0531,1.6225-.20502,3.24042-.3244,4.86011-.61896,1.05298-1.04553,2.15393-1.53552,3.20801-.25092.6673-.57098,1.18628-.94287,1.66223-2.31744.22723-3.99622,2.0553-5.39166,3.75684-.20526.23102-.4455.50214-.6759.57172-.06561.0105-.12341.06055-.10358.1319.01477.05194.06891.08209.12091.06732.40149-.11426.58826-.39508.82074-.62408,1.30646-1.52222,2.84344-3.17267,4.89044-3.50684-.29272.33582-.60193.66711-.93951,1.02844-1.50525,2.19897-2.26141,4.7356-2.94208,7.2713-.03168.12842.16565.16968.19403.04858.9256-3.065,2.01898-6.2923,4.49536-8.42139.78674-1.06732,1.30963-2.31921,1.90106-3.50146-.1048,2.17353.04449,4.34514.01575,6.52448-.69714,2.53784-3.16138,4.45465-3.61694,7.15216-.01867.12674.17622.16091.19727.0329.50592-2.22198,2.33075-3.7948,3.42212-5.7478.00336,4.05304.03302,8.11084.75043,12.10083.02417.12817.22046.07977.19623-.03754-.39319-3.10742-.40149-6.25842-.3299-9.41022.9726,1.9563,2.99091,3.35236,4.07977,5.23932.06512.11127.23517.00897.17334-.09967-1.20508-2.34796-3.92926-4.07245-4.21204-6.78619.0807-2.33836.12504-4.66657.1449-6.98328.89371,2.02562,2.88384,3.14453,3.77655,5.07593,1.03979,2.33398,1.15979,4.90125,1.44409,7.43097.01495.12848.20911.09937.19653-.02185-.24921-2.64856-.24396-5.61835-1.50317-8.04242,1.70251,1.78943,2.64514,4.15961,4.19281,6.07812.09491.08844.22821-.06329.13403-.14691-1.7478-2.31061-2.71869-5.26373-5.09845-7.14935-.00183-.00232-.00299-.00494-.00482-.00726-1.38928-1.31488-2.29663-2.8418-3.08411-4.57916.08813-1.49774.25159-2.98859.38983-4.48065.74518.70355,1.60931,1.19659,2.47821,1.68518,1.4649,2.2027,1.80927,5.4574,3.6098,7.39893.04675-.02942.06085-.09113.03149-.13788-.71906-1.16388-1.26666-2.42102-1.71588-3.71484-.38165-1.02753-.66901-2.10144-1.17639-3.11517.2644.15637.52667.31683.78113.492,2.34473,1.90387,4.03052,4.76312,4.56683,7.74194.01941.12994.21259.09851.19849-.02545-.37122-2.5473-1.54156-4.99725-3.25726-6.93622,2.72699,1.04814,5.41732,1.88091,7.58728,3.82141-1.8017-2.63354-5.6947-3.08954-8.32446-4.69678-.04468-.03326-.09839-.03796-.14996-.03473-.10339-.09601-.20001-.19971-.30646-.29211-1.40295-1.06891-3.22955-1.85229-4.24164-3.25677.06453-.79746.11396-1.59675.09143-2.3974.67957.6369,1.47302,1.17975,2.32855,1.52441.66931.24786,1.34283.51483,2.01282.79706,1.43298.98438,2.22089,2.79205,3.45746,4.02576.09158.09297.23554-.0541.13922-.14355-.94739-1.01709-1.60266-2.36688-2.54486-3.41711,2.19122,1.00922,4.27972,2.26691,5.91058,4.00159.07318.11646.24219-.00452.16675-.11072-1.92072-2.28491-4.63446-3.71655-7.26605-5.03809-1.64368-.60498-3.12811-1.39197-4.17529-2.82922-.01007-.01294-.02478-.01898-.03595-.03046-.01154-.72156-.02997-1.44189-.05286-2.16095.46338.31348.98608.56403,1.22968.66229.94037.34528,1.91296.51624,2.89301.64087,2.57727.6142,4.08191,3.35449,6.24432,4.77466.1021.07445.22214-.08448.11864-.16102-1.72263-1.29726-2.94646-3.18868-4.73577-4.42706.38348.04346.76636.08942,1.14655.14746,3.1477.8985,5.82928,3.56122,7.5213,6.30322.05707.12158.23499.02759.18066-.0863-1.6521-2.88544-4.36115-5.73578-7.61304-6.73413-2.32086-.52289-5.45551-.4472-7.02722-2.3833-.01843-.51935-.03552-1.03827-.05328-1.5553.43317.21735.92755.33588,1.39752.49554,1.68555.45392,3.48328.5415,5.17664.73016,4.07025,1.11621,8.052,3.25543,11.22913,6.04089.09613.09491.22894-.04858.14441-.13867Z" fill="#fff"/>
      </g>
      <path d="m184.17724,316.82925c-1.51306.0001-2.79523.7024-3.64238,1.98596-2.29279,1.39114-2.11072,3.43559-.77602,5.51864,2.04613,2.93195,8.26323,4.36131,8.23702-.62209,1.46472.19954,2.70147-1.45076,2.25151-2.96737-.36391-1.98421-3.51395-3.90986-6.07013-3.91514h0Z" fill="url(#linear-gradient)"/>
      <path d="m162.78186,316.46934c-2.63262.0869-7.17164,2.09359-7.0364,4.84601.13428,1.41366,1.35204,1.58786,1.94307,1.61962-1.14319,4.34816,4.90942,4.28466,7.23831,2.25598,3.91154-2.77741,2.8975-8.57576-2.14498-8.72162h0Z" fill="url(#linear-gradient-2)"/>
      <path d="m159.56525,296.00818c-2.19346-.06297-1.86551,1.78882-1.54614,3.27585.0059.04474-.03551.14023-.06878.21695-.17559.23022-.16973.95572.06619,1.22696-.00026.02438-.00142.05716-.00444.09982-.10609.25229-.24579.51256-.19915.93283.03576.51398.57767.87508,1.08585,1.26883.01236.22993.00871.55297.33251.86985.20672.19343.45218.27299.71224.43078.04836.60184-.17429,1.24944.23556,1.77432.36276.51013,1.6934.76191,2.21958,1.18869.30941.5348.68499,1.95095,1.05648,2.26517.81291.65664,2.22917.19121,2.97578,1.21283.50138.72654.24108.75794.4996,1.35901.26688.5296.80704.63751,1.20143.71633.45994.00888,1.1034.56263,1.26011.66256.25849.19646.50594.31062.82402.47764.2595.01416.74549.04072,1.01003.05518.06693-.09299.32906-.53413.3929-.61039.49601-.69445.36541-1.09213-.06733-2.40972-.11256-.33708.1693-.61119.17467-.99601.0182-.60993-.48206-1.23696-.49094-1.89554-.02874-2.14748.36004-3.63232-.79948-4.57366-.09234-1.26789-.20337-2.25775-1.6123-2.10547-.12873-.09632-.2093-.35899-.23616-.52931-.02317-.29396-.28886-.72628-.56482-.88094.03614-.27487-.37221-.87515-.67828-.99066-.22984-.56078-.47621-1.32978-1.32237-1.34006-.3089.01256-.42342.07676-.63789.13333-.24698-.40436-.56032-.88138-1.17816-.89801-.094-.00318-.28141.00396-.35309-.01199-.3176-.36889-.78841-.87003-1.46368-.81131l-.16629.03854c-.27492.07294-.47433.22882-.63501.3576-.82397-.41672-1.54366-.51001-2.02263-.51001h0Z" fill="url(#linear-gradient-3)"/>
      <path d="m186.08568,302.29892c-.70291.00356-1.27929.26828-1.56392.39297-.05486.01764-.11119.03842-.16817.06064-.45941-.11463-.8179-.11183-.90674-.11426l-.08768.00793c-.51527.05984-.92024.36349-1.20651.60074-.37278-.05333-.78416-.003-1.07104.20439-.40885.28851-.54268.88668-.88352,1.31179-.35908.1083-.86039.15239-1.1364.28814-.48054.15691-.68508,1.01351-.90364,1.66123-.32192.41795-.52545.51596-.75731.7485-.37838.37016-.61417,1.31199-.82685,2.05842-.21613.48691-.80859.69586-.92545,1.28118-.09846.45151.12208.77261.17501,1.18182-.44846.6814-.79395,1.35306-.36191,2.0535l.09465.29938c.20541.10936.54885.29223.75342.40115.60357-.12302,1.28749-.24143,1.85147-.56216.28071-.13263.89409-.18606,1.1653-.25537.52983-.13955.9162-.52072,1.32527-.92428.2225-.23649.85049-.84037,1.09909-.77204.28689.03086.59971.1231.91278.09327l.27208-.13345c.40475-.1916.86843-1.07937,1.23953-1.51868,1.15517.36395,1.69595-.46867,2.31345-1.38589.4707-.05141,1.02129-.32657,1.12743-.75082.32006-.05187.83901-.12862,1.0753-.68463.08046-.14587.19481-.35184.25995-.49579.2972-.01736.80772-.09567,1.07469-.61984.08983-.17957.16449-.28558.22102-.34973.50945-.13151,1.08885-.12758,1.44267-.75189.15775-.29539.17252-.64677.0405-.96409-.19263-.46286-1.16966-1.31094-2.31715-1.83582-1.01435-.46536-2.03123-.51102-3.32732-.52631h0Z" fill="url(#linear-gradient-4)"/>
      <path d="m177.65965,313.30908c.40173-.23279,1.237-.3111,1.41211-.35724.57009-.13561,1.78022-1.90214,2.67904-1.72921.35457-.00728.54139.11966.70237.08384.14996-.08259.7417-1.10115,1.13537-1.48414.29356-.31254.89422-.09334,1.18213-.0778.27137-.05086.65455-.69765.99095-1.18948.13814-.23369.80531-.29754.89986-.34771.03784-.02008.1051-.44055.30927-.54462.2475-.12622.76575-.12958.79883-.20819.05743-.13647.30731-.52814.34357-.72192.10565-.56561.92548-.27075,1.02173-.45972.03625-.07117.20648-.43201.49335-.69037.34259-.30853,1.31549-.20844,1.17865-.53735-.03479-.08368-.70428-.80487-1.80981-1.31055-.75866-.42169-3.21223-.67399-4.14387-.09837-.15783.04411-.33611.15074-.5039.15074-.22526-.05639-.64099-.1668-.87501-.14744-.3825.04441-.79522.50254-.96923.60483-.24524.1007-.60883-.1089-.85584.03021-.06415.04425-.57623,1.20221-.95581,1.3717-.33551.14978-1.08801.25232-1.19275.30347-.08618.04205-.39038,1.15674-.47717,1.27545-.42719.58447-.82275.84296-.88556.9115-.25079.27356-.43604,1.11005-.60724,1.67346-.18341.60358-.88037,1.08728-.9043,1.19916-.03558.16687.4043.96423.07318,1.46124-.31683.47559-.41718.70953-.43103.85156-1.24542,1.82349-2.43512,4.23022-3.12292,6.48914-.35815-2.84058-1.28467-5.23566-2.21075-7.26398.00415-.17975-.09076-.47522-.33325-1.21362-.23047-.70184.11353-1.15961.12671-1.37042.00885-.14136-.47491-1.03009-.49268-1.81042-.01654-.72839.12134-3.00323-.08771-3.41205-.05237-.10242-.44342-.44818-.63824-.76044-.09625-.15436-.14374-1.4259-.23291-1.50446-.21913-.09852-.52722.03395-.78063-.06424-.12562-.03628-.41297-.20932-.65107-.59768-.20331-.33167-.23792-.79285-.28168-.8501-.12665-.16565-.34167-.17719-.40424-.31219-.17853-.38519-.09778-.52893-.15985-.60278-.18726-.22272-.22504-.0882-.39136-.25916-.17484-.17888-.3969-1.08269-.58838-1.07971-.34539.11029-.92216.23123-1.27234-.02967-.09869-.05908-.40851-.73108-.56818-.73541-.21826-.0058-.52087.02264-.79175-.1286-.33223-.17802-.62802-.73579-.90832-.68916-.24375.07547-.69311.68197-1.09522.41845-.91944-.52607-1.85203-.68483-2.49855-.41001-.27421.34734.00997,1.15722.12496,2.01556.06342.47369-.2149.81885-.19531.91559.05206.25714.25238.18555.18964.89508-.02148.2431-.22272.49078-.19958.67242.01337.10474.66962.55402.92407.78595.2099.19128.14966.71497.18829.7514.09656.09094.87506.3866.9624.71075.16956.62921-.0365,1.44641.08972,1.60925.15399.19861,1.92694.67163,2.27069,1.258.34369.58636.75989,1.9436.91205,2.09149.1521.14783,2.20142.0603,3.1012,1.3609.60211.8703.49658,1.33185.57025,1.47803.10114.20074.91003.15918,1.38562.48285.89166.60681.84216.60516,1.0556.72046,1.01392,2.22186,2.02679,4.89264,2.24261,8.10394-.0365.21906-.06287.43683-.08728.6543-1.14887-2.50438-3.76444-3.32354-6.66931-2.70392-.99383-1.41595-2.89906-1.74883-4.46783-1.24171-2.31867.64655-4.66791,2.19837-4.54194,3.52491.11108,1.17041,1.69818.3996,1.90985.98401.35846.98981-.86578,2.27551.76434,3.02679,3.41625,1.47283,8.1981-2.33511,6.60547-5.83936,3.0659-.66754,5.97919.75552,6.31158,3.79004.03196,3.90332.89398,6.87029.17422,11.23847-.10142.64132.87878.80734.98734.15817.71011-4.41558-.06165-7.30032-.16657-11.08426.55248-3.33553,4.31665-4.60697,7.59839-3.72937-1.49689.87189-1.35291,2.55359-.34656,3.99634.84875,1.21674,2.79993,2.25232,4.34326,2.25232.5033,0,.9635-.11023,1.32758-.36029,1.03528-.71094.4502-2.13501,1.01215-2.65656.57875-.56171,1.04678-.01309,1.61774-.53496,2.42399-2.5113-5.31548-6.9475-7.49885-3.10402-3.16085-.85928-6.25504-.23552-7.9187,2.31665.47888-2.63739,1.97925-5.8736,3.55762-8.12061.23322-.06433.46448-.14362.63971-.24518Z" fill="#95c172"/>
      <path d="m173.00072,335.07172c-.3.00244-.53886-.27005-.49609-.5669.10595-.78515.27685-2.625.27685-2.62646l.99609.09277s-.17432,1.86963-.28174,2.66748c-.03418.25098-.24854.43311-.49512.43311Z" fill="url(#linear-gradient-5)"/>
      <path d="m181.23237,319.58818c.76259-1.3219,2.12083-2.14569,4.22947-1.57544,3.49264.94453,4.5871,3.37376,3.41802,4.44947-.57346.52766-.99946-.03879-1.61775.53501-.56195.5215.02316,1.94561-1.01212,2.65657-1.48051,1.01671-4.54534-.27856-5.67082-1.89204-1.07486-1.54091-1.19138-3.36691.65319-4.17357Z" fill="url(#linear-gradient-6)"/>
      <path d="m165.90496,322.54704c1.67323-3.13941-1.56182-5.9579-4.62201-4.85096-2.31859.64646-4.66782,2.19831-4.54188,3.52483.11112,1.17041,1.69818.39961,1.90985.98402.3585.9898-.86577,2.27547.76435,3.02681,2.58241,1.04273,5.37999-.59489,6.48969-2.6847Z" fill="url(#linear-gradient-7)"/>
      <path d="m158.88525,297.13568c-.27423.34733.00994,1.1572.12492,2.01554.06345.47365-.21493.81883-.19532.9156.0521.25713.25239.18553.18967.89503-.02149.24311-.22273.4908-.19959.67244.01334.10472.66957.55402.92405.78595.20991.19132.14968.715.18831.7514.09657.09099.87505.38659.9624.71075.16955.62921-.03652,1.44645.08972,1.60928.15399.19863,1.92695.67166,2.27066,1.25802s.75992,1.9436.91206,2.09145,2.20143.06033,3.10122,1.36094c.60209.8703.49658,1.3318.57025,1.47801.10114.20073.91003.1592,1.3856.48285,1.11266.75723.75208.5635,1.2772.83697l.20901.01139c.29907-.47173.37611-.24683-.09377-1.67756-.2305-.70185.11352-1.15966.12671-1.37045.00884-.14133-.47495-1.03008-.49268-1.81045-.01655-.72839.12131-3.00321-.0877-3.41201-.05237-.10244-.44346-.44822-.63826-.76045-.09629-.15434-.14374-1.42592-.23295-1.50447-.10838-.09545-.43866.03454-.78058-.06421-.12563-.03629-.41299-.20935-.65107-.59772-.20332-.33165-.23794-.79283-.2817-.85008-.12661-.16564-.34164-.17715-.40421-.31216-.17852-.38522-.09778-.52896-.15988-.60283-.18723-.22269-.22502-.08818-.39135-.25915-.1744-.17927-.39946-1.08638-.58836-1.07968-.34223.1115-.92971.22945-1.27236-.02965-.09867-.05911-.40848-.73113-.5682-.73542-.21821-.00585-.52086.02259-.79175-.12865-.32848-.1834-.66215-.75438-.90831-.68909s-.65461.67753-1.09521.41844c-1.35118-.79456-2.42874-.49838-2.49852-.41Z" fill="url(#linear-gradient-8)"/>
      <path d="m190.80687,305.0452c.13686.32891-.83609.22878-1.17863.53731-.2869.25841-.45713.61924-.49335.69037-.09626.18901-.91608-.10589-1.02178.45973-.03622.19381-.2861.58548-.34351.72192-.0331.07866-.55136.08201-.79887.20819-.20417.10408-.2714.52454-.30922.54462-.09458.0502-.76177.11402-.89991.34766-.26813.45352-.75822,1.0659-.89139,1.16567-.16246.12171-.88794-.2813-1.28164.10168s-.98544,1.40156-1.13541,1.48415-.89306-.43112-1.87274.38901c-.65555.54879-1.08329,1.14436-1.50863,1.25637-.17514.04612-1.01038.12442-1.41212.35722-.32194.18656-.83417.30301-1.19654.37619l-.0765-.04075c-.07145-.22598-.36209-.16069.31293-1.17392.33113-.49704-.10876-1.29438-.07314-1.46127.02388-.11189.72086-.59556.90428-1.19916.1712-.56339.35644-1.39988.60721-1.67343.06284-.06854.45839-.32705.88558-.9115.08678-.11873.39102-1.23341.47719-1.2755.10469-.05114.85722-.15365,1.19274-.30347.37954-.16947.89164-1.32743.95579-1.37166.19343-.13334.68984.06732.85583-.03022.17405-.10228.58676-.56042.96927-.60487.0887-.01031.58212.04284.72985.11516.20575.10072.44453-.06126.64901-.11848.92486-.57382,3.38295-.32112,4.14383.09844,1.10559.50561,1.77505,1.22684,1.80987,1.31053Z" fill="url(#linear-gradient-9)"/>
      <g id="leaf_1_right_hi" data-name="leaf 1 right hi">
        <path d="m181.23238,319.58818c1.01652.47975,2.07102,1.27856,3.20825,1.49832,1.98648.38388,3.43978,1.33692,2.82149,1.91072-.56195.5215.02316,1.94561-1.01212,2.65657-1.48051,1.01671-4.54534-.27856-5.67082-1.89204-1.07486-1.54091-1.19138-3.36691.6532-4.17357Z" fill="#a6d67c"/>
      </g>
      <g id="leaf_1_left_hi" data-name="leaf 1 left hi">
        <path d="m165.90496,322.54704c.58902-1.11744.58125-2.35144.0288-3.33019-.26721-.47341-2.51113.0272-3.71934.36413-2.31866.64659-3.77517,2.03955-3.56351,2.62396.3585.9898-.86577,2.27547.76435,3.02681,2.58246,1.04276,5.37996-.59491,6.48969-2.6847Z" fill="#a6d67c"/>
      </g>
      <g id="leaf_2_left_hi" data-name="leaf 2 left hi">
        <path d="m158.88525,297.13568c-.27423.34733.00994,1.1572.12492,2.01554.06345.47365-.21493.81883-.19532.9156.0521.25713.25239.18553.18967.89503-.02149.24311-.22273.4908-.19959.67244.01334.10472.66957.55402.92405.78595.20991.19132.14968.715.18831.7514.09657.09099.87505.38659.9624.71075.16955.62921-.03652,1.44645.08972,1.60928.15399.19863,1.92695.67166,2.27066,1.25802s.75992,1.9436.91206,2.09145,2.20143.06033,3.10122,1.36094c.60209.8703.49658,1.3318.57025,1.47801.10114.20073.91003.1592,1.3856.48285,1.11266.75723,1.51681.89266,1.51681.89266-2.09357-3.52051-3.44678-7.49882-5.65673-9.8336-2.66233-2.81272-4.61165-4.12942-6.18401-6.0863Z" fill="#a6d67c"/>
      </g>
      <g id="leaf_2_right_hi" data-name="leaf 2 right hi">
        <path d="m190.80687,305.0452c.13686.32891-.83609.22878-1.17863.53731-.2869.25841-.45713.61924-.49335.69037-.09626.18901-.91608-.10589-1.02178.45973-.03622.19381-.2861.58548-.34351.72192-.0331.07866-.55136.08201-.79887.20819-.20417.10408-.2714.52454-.30922.54462-.09458.0502-.76177.11402-.89991.34766-.26813.45352-.75822,1.0659-.89139,1.16567-.16246.12171-.88794-.2813-1.28164.10168s-.98544,1.40156-1.13541,1.48415-.89306-.43112-1.87274.38901c-.65555.54879-1.08329,1.14436-1.50863,1.25637-.24853-.00016-2.60354.74163-2.54142.68339,1.53636-2.72481,5.49707-6.08334,6.15206-6.66167,4.58416-4.04759,8.08963-2.01208,8.12445-1.9284Z" fill="#a6d67c"/>
      </g>
      <g id="leaf_1_right_hi_yellow" data-name="leaf 1 right hi yellow">
        <path d="m181.23238,319.58818c1.01652.47975,2.07102,1.27856,3.20825,1.49832,1.98648.38388,3.43978,1.33692,2.82149,1.91072-.56195.5215.02316,1.94561-1.01212,2.65657-1.48051,1.01671-4.54534-.27856-5.67082-1.89204-1.07486-1.54091-1.19138-3.36691.6532-4.17357Z" fill="url(#linear-gradient-10)"/>
      </g>
      <g id="leaf_1_left_hi_yellow" data-name="leaf 1 left hi yellow">
        <path d="m165.90496,322.54704c.58902-1.11744.58125-2.35144.0288-3.33019-.26721-.47341-2.51113.0272-3.71934.36413-2.31866.64659-3.77517,2.03955-3.56351,2.62396.3585.9898-.86577,2.27547.76435,3.02681,2.58246,1.04276,5.37996-.59491,6.48969-2.6847Z" fill="url(#linear-gradient-11)"/>
      </g>
      <g id="leaf_2_left_hi_yellow" data-name="leaf 2 left hi yellow">
        <path d="m158.88525,297.13568c-.27423.34733.00994,1.1572.12492,2.01554.06345.47365-.21493.81883-.19532.9156.0521.25713.25239.18553.18967.89503-.02149.24311-.22273.4908-.19959.67244.01334.10472.66957.55402.92405.78595.20991.19132.14968.715.18831.7514.09657.09099.87505.38659.9624.71075.16955.62921-.03652,1.44645.08972,1.60928.15399.19863,1.92695.67166,2.27066,1.25802s.75992,1.9436.91206,2.09145,2.20143.06033,3.10122,1.36094c.60209.8703.49658,1.3318.57025,1.47801.10114.20073.91003.1592,1.3856.48285,1.11266.75723,1.51681.89266,1.51681.89266-2.09357-3.52051-3.44678-7.49882-5.65673-9.8336-2.66233-2.81272-4.61165-4.12942-6.18401-6.0863Z" fill="url(#linear-gradient-12)"/>
      </g>
      <g id="leaf_2_right_hi_yellow" data-name="leaf 2 right hi yellow">
        <path d="m190.80687,305.0452c.13686.32891-.83609.22878-1.17863.53731-.2869.25841-.45713.61924-.49335.69037-.09626.18901-.91608-.10589-1.02178.45973-.03622.19381-.2861.58548-.34351.72192-.0331.07866-.55136.08201-.79887.20819-.20417.10408-.2714.52454-.30922.54462-.09458.0502-.76177.11402-.89991.34766-.26813.45352-.75822,1.0659-.89139,1.16567-.16246.12171-.88794-.2813-1.28164.10168s-.98544,1.40156-1.13541,1.48415-.89306-.43112-1.87274.38901c-.65555.54879-1.08329,1.14436-1.50863,1.25637-.24853-.00016-2.60354.74163-2.54142.68339,1.53636-2.72481,5.49707-6.08334,6.15206-6.66167,4.58416-4.04759,8.08963-2.01208,8.12445-1.9284Z" fill="url(#linear-gradient-13)"/>
      </g>
    </g>
  </g>
</svg>