<?xml version="1.0" encoding="UTF-8"?>
<svg id="Layer_2" data-name="Layer 2" xmlns="http://www.w3.org/2000/svg" xmlns:xlink="http://www.w3.org/1999/xlink" viewBox="0 0 346 469">
  <defs>
    <linearGradient id="linear-gradient" x1="172.95409" y1="335.07172" x2="172.95409" y2="331.88422" gradientUnits="userSpaceOnUse">
      <stop offset="0" stop-color="#fff"/>
      <stop offset=".34875" stop-color="#fff"/>
      <stop offset=".90496" stop-color="#fff" stop-opacity="0"/>
      <stop offset="1" stop-color="#fff" stop-opacity="0"/>
    </linearGradient>
  </defs>
  <g id="CASE_14_Plants_LL_WL_CL" data-name="CASE 14 Plants LL WL CL">
    <g id="Day_20" data-name="Day 20">
      <g id="rectangle">
        <rect width="346" height="469" fill="none"/>
      </g>
      <g id="ROOTS_Back" data-name="ROOTS Back">
        <path d="m189.52263,340.38635c.74766-.34961.76996-1.47685.06006-1.88678-1.83539-1.38947-4.78345-1.5871-6.88324-1.70038-.20349-.07324-.37567-.12994-.49921-.16321-2.46906-.87372-5.367-.60449-7.70508-1.77783.26353-1.87768-2.27467-2.40136-2.88348-.85492-1.71851,1.76904-4.50433,2.86768-6.93585,3.21185-3.30725.53772-6.49341,1.50031-8.95636,3.96521-.97767,1.04255.58935,2.54547,1.58978,1.52063.60236-.56952,1.32306-1.03156,2.09918-1.42047-1.01715,1.55487-2.52026,4.16602-.91266,4.7298.57574.19366,1.19946-.11603,1.39307-.69183.72968-1.95978,2.2912-4.64551,4.29846-5.45966,2.50902-.28226,5.01004-.84252,7.16156-2.11084-.0061.10425-.01172.20813-.0177.31256-.01831.04651-.04126.0863-.05676.13672-.69141.96863-1.77484,1.72266-2.88287,2.44891-.98138-.02942-2.10559-.01605-3.19061.32404-1.19818.43036-4.44928,1.74677-3.37976,3.2851.5314.72825,1.41888.42408,1.97931-.08893-1.91815,1.87866-3.90314,4.47455-2.18738,5.37958.56189.2309,1.20459-.03741,1.43549-.5993,1.2038-2.8656,4.52484-4.66943,7.25403-6.39185-.4079.56299-.73572,1.17383-1.03198,1.74023-.38989.69781-.54327.94836-1.04694,1.32355-2.33685,1.94342-4.45361,3.99677-5.70721,6.883-.50665,1.33044,1.44214,2.13922,2.02863.84778.46753-.9881,1.14075-1.90894,1.91406-2.76581-.26559.63388-.21857,1.44631.51208,1.73883,1.83466.59851,1.76703-2.19427,1.89709-3.22675.09204-.4057.42285-.91443.82404-1.41956.15112-.1153.3028-.23346.45276-.34448.61035-.46954,1.00043-1.06287,1.35474-1.65747.04278.46285.07616.90609.08881,1.37207-.69006.92273-1.09924,2.43866-1.50586,3.10083-.28473.63721-.58398,1.27881-.89496,1.76312-1.88837.77924-4.25397,1.43292-4.90491,3.6955-.21576,1.05267.87628,1.5752,1.59735,1.20587-.2963,1.09237-1.60819,3.07341-.0051,3.68448.58426.16635,1.19278-.17227,1.35916-.75644.28333-1.00159.69452-2.03937,1.18427-2.96686.73077-1.72778,2.36694-2.48053,3.15289-3.91492.08533-.14038.16107-.29706.24255-.44421.01349.1535.02679.31012.04236.43781.05536.56476.07971,1.12695.08551,1.68774-.61212,2.01245-3.33472,3.7962-3.55084,6.20911-.18774,1.41211,1.89337,1.75885,2.16998.36151.17572-.74585.62482-1.41284,1.15759-2.06555-.19312,2.66559-.31207,5.33472.60693,8.08093.48254,1.36591,2.51422.67432,2.08856-.69043-.37549-1.41425-.47784-2.88348-.4538-4.38086.71509.9201,1.46545,1.80457,2.01196,2.7243.75018,1.21423,2.58148.16083,1.90741-1.09619-.04333-.08441-.09827-.16479-.1449-.24811.62683.39246,1.58087.15295,1.65106-.8822.00183-.49945.00079-1.00671-.00653-1.51538.72205.61176,2.08105-.00421,1.76208-1.15515-.72327-2.11902-1.96216-3.78925-3.44299-5.34821-.04456-.06073-.07672-.12573-.12372-.18567-1.40729-1.40015-2.29297-2.69373-3.12408-4.5368.00623-.69293.01678-1.47278.01819-2.26709.21698.13513.435.26703.65387.39587.37384.66412.41394,1.40314.65131,2.24658.29291,1.14581.83722,2.21838,1.45068,3.15015.80688,1.18329,2.59387.03094,1.84943-1.19177-.53015-.69727-.79022-1.46179-.98627-2.24371.52289.45679.99695.98163,1.38422,1.63477.50433.80347.82013,1.71637.97083,2.68292.09253.5777.62469.98553,1.21179.91803,1.73602-.30481.72626-2.89276.06805-4.28345.77924.32953,1.50433.76318,2.10718,1.47748.40033.43561,1.07983.47711,1.53052.08545,1.64279-1.83105-3.00077-3.91143-4.34528-4.30011.21503-.16925.36017-.39728.40802-.65094.31396.26276.61194.54028.8761.84778.33624.51727,1.03894.66711,1.55151.31165,2.12244-1.77588-3.89624-4.95465-5.17377-5.59833-1.60413-.74054-3.27344-1.22534-4.4317-2.62665,0-.00037-.00006-.00073,0-.0011,1.02541.42696,2.05472.6086,3.12598.74701,2.01501.4035,2.8219,2.65576,4.63824,3.71509.96576.65228,1.97559-.37891,1.67743-1.2547.84906.84772,1.57654,1.8299,2.06238,2.75647.66815,1.25836,2.55908.32501,1.97443-.9696-1.60077-3.07855-4.11023-5.92908-7.771-6.48724-.96259-.18671-2.21893-.3136-3.35156-.60016,1.27039.17938,2.54205.26062,3.81165.45087,3.13306.75934,6.48376,2.23389,8.84387,4.41016.41901.43793,1.12115.45667,1.56006.03131.7583-.77014.02112-1.79688-1.29419-2.81073Zm-15.23596,17.07715c.09003-.92841.17719-1.85822.23108-2.78424.21735.2439.43201.49298.66608.70697,1.96244,1.68316,1.89515,4.5629,2.00806,6.98877-.00238.09137.02539.16235.03772.2442-1.16675-1.70624-2.74469-3.25378-2.94293-5.1557Zm.37891-13.32574c.87738.36011,1.82361.71179,2.76337,1.09863.72229.56207,1.18079,1.36261,1.74652,2.24414-.22538-.09654-.41395-.20395-.58398-.31909-.77972-.6062-1.60242-1.14282-2.39453-1.62091-.75201-.47668-1.42059-.97809-1.85913-1.492-.0036-.03369-.00787-.06506-.01166-.09821.11371.06134.22351.13342.33942.18744Z" fill="#4c4c4c"/>
      </g>
      <path d="m189.55138,316.77002c-1.667-3.00035-8.04189-3.26041-9.4892.45343-2.07803-.20271-3.65283.4509-4.73608,1.19122.3847-1.20367.86865-2.50623,1.44897-3.78229.27618-.1759.54651-.37396.755-.59668.2472-.23024.87548-.48072,1.13849-.63868.72049-.44571.99836-1.36177,1.47382-2.06627.29327-.44788.5357-.46589.8164-.48676.21576-.01599.57684-.04279.87329-.34595.34611-.30627.55435-1.41551.80048-1.96344.43304-.06837.89091-.02523,1.28437-.52697.2116-.28785.50054-1.06501.65502-1.59962.49598-.22924.94226-.61395.91949-1.12335.32527-.1614.81869-.37045.8916-1.00189.03928-.19073.0967-.45456.117-.63434.28082-.09882.8006-.31964.90881-.93335.03943-.23364.08893-.37561.13123-.46301.47177-.29574,1.07582-.4597,1.23841-1.18908.06536-.33234-.02485-.67646-.24757-.94428-.32867-.39508-1.60901-.95795-2.92078-1.13409-1.37235-.18971-3.93255.29631-5.03345,1.37305-.05725.03931-.11517.0835-.17334.12952-.9192-.02464-1.71739.47445-2.09918,1.18872-.30603.0531-.72864.14789-1.02808.52295-.31817.40553-.27412,1.10422-.49469,1.62653-.32866.22362-.85194.43347-1.0921.65569-.42298.27643-.36492,1.24156-.38543,1.95325-.20326.5419-.38214.70664-.55091,1.02038-.2667.48329-.21163,1.52461-.19523,2.34449-.05666.57115-.61298.98096-.55019,1.5996.03982.4874.39023.75308.5592,1.16364-.14172.47815-.24292.9231-.19696,1.32227-.32385.73364-.62244,1.48401-.89459,2.22839-.24139-1.01385-.51581-1.95361-.79431-2.79169.04254-.34277-.00043-.78149-.06836-1.44672-.03789-.35344.29607-.5607.38365-.93549.14824-.59177-.20617-1.31169-.07399-1.95684.43172-2.1062,1.12868-3.46995.19742-4.63879.06045-.67259.25017-1.52909-.09506-1.89519-.34017-.43692-.72102-.44733-1.02951-.50648-.10507-.12167-.12768-.39536-.11741-.56751.04023-.2921-.12685-.77133-.3633-.98138.09411-.26077-.17645-.93454-.45062-1.11279-.10299-.58335-.18314-1.42905-1.04223-1.59943-.19509-.04031-.40396-.01187-.61457.00111-.15479-.44781-.35883-.98077-.9588-1.12915-.09115-.02319-.27566-.05634-.34229-.08722-.25341-.43391-.58715-1.10234-1.39911-1.10468-.28611.00459-.53649.11982-.72467.2146-1.14417-.93188-2.22131-1.00885-2.54163-1.00885-.37299,0-.64777.08276-.86456.26056-.77568.64159-.58823,1.7564-.6717,2.68652-.12312.28769-.38199.44651-.38993.91938-.00337.21569.04167.38293.0786.49065-.00549.02374-.01361.05554-.0257.09656-.15755.22374-.34977.44817-.39411.86871-.07499.50969.37716.97831.78931,1.47168-.03711.22724-.1098.54193.13873.92078.1604.23307.38336.3635.60358.57324-.08147.59823-.43754,1.18319-.14948,1.78357.24522.57598,1.49121,1.10661,1.91394,1.63611.33943,1.13371.04941,2.7066,1.415,3.00074.52176.19598,1.49302.56066,1.77988,1.25927.2085.50787.18719.74762.17163.92267-.14896.73348.49743,1.29393,1.04608,1.46852.14051.06157.40204.17613.47193.25004.55332.56947.56903.66029.98462,1.02881.43506,1.32166.86743,2.88489,1.12036,4.61102-.86493-.55078-2.11053-1.00159-3.86169-.91284-1.02199-1.83208-3.11244-2.78097-5.16481-2.41541-2.78703.39459-5.7426,2.04413-5.73051,4.32398.00861,1.60889,1.33783,1.91583,1.8559,2.03046-.19965,1.25154-.90622,2.54923.86751,3.99039,3.70383,2.79401,9.37554-1.00002,8.93437-5.41507,1.63199.01878,2.87571,1.12794,3.09961,2.60913-.19769,3.49884-.17957,6.77173.04272,11.5437.03676.82877.74813,1.46872,1.56836,1.42871.82763-.03857,1.46728-.74072,1.42871-1.56836-.20496-4.39325-.23541-7.47498-.07758-10.6615.41091-1.79583,2.25644-3.89811,4.35266-4.04773-1.46613,4.632,5.94249,8.27359,8.93728,4.61769.9219-1.27205.45898-2.3753.46451-3.44606.02863-.04633.05243-.06799.05267-.06824,1.59882-.28788,2.27561-2.60833,1.32306-4.05426Z" fill="#2e541a"/>
      <g id="ROOTS">
        <path d="m190.12248,342.33453c-1.82355-1.73303-4.02167-3.11792-6.38171-4.07458,1.84742-.04478,3.63807.26839,5.22282,1.26743.1089.06552.21435-.10539.10317-.17124-1.88928-1.37225-4.31067-1.40234-6.51666-1.56573-.01874-.00293-.02777.01044-.04431.01184-.97119-.3244-1.96216-.57849-2.96082-.75201-1.88458-.26648-3.88702-.46393-5.58679-1.33972-.2088-.11432-.38153-.26501-.47955-.39923.00598-.24689.0199-.49133.02136-.73944-.00024-.64404-.92938-.6413-.98877-.05505-1.94104,2.09521-4.92163,3.28198-7.72595,3.69232-3.01654.48004-6.15021,1.43823-8.34314,3.66241-.09186.09503.06165.22894.14447.13818,1.63153-1.53638,3.77411-2.38733,5.96698-2.86737-.06885.05487-.14124.10748-.20746.16339-1.67969,1.50653-2.90796,3.49396-3.59534,5.63379-.03894.12488.15558.1806.19098.05908.90418-2.39396,2.43208-4.9102,4.78241-6.0802,3.08392-.33435,6.28033-1.07248,8.70685-3.12219-.04773.86017-.0899,1.72791-.12317,2.59991-.02509.03003-.05231.05615-.07123.09717-.5883,1.29706-2.32239,2.26093-3.55487,3.15955-2.15808-.2077-4.41614.40869-6.05127,1.87488-.10101.08008.02502.23584.12384.15723,1.53656-1.25378,3.40967-1.76434,5.34918-1.6344-2.50397,1.71582-5.07532,3.55487-6.1712,6.45752-.04529.12213.14655.18567.18762.06909,1.4823-3.42902,5.04034-5.16431,8.02557-7.10455.71027-.48932,1.47778-.92804,2.11932-1.60211-.01501.71893-.02197,1.43866-.01154,2.15826-1.0694.69202-1.60352,1.82263-2.1178,2.76794-.50574,1.12695-1.44806,1.69464-2.32971,2.48004-1.74109,1.60327-3.43024,3.37708-4.35846,5.59027-.04749.12305.1424.19092.1861.07312.98981-2.06744,2.61182-3.74182,4.37927-5.20374-.18433.34064-.33789.69928-.41669,1.09222-.13751.8515.04211,1.66125-.30255,2.46362-.04608.11963.13959.19037.1861.07312.37524-.76294.25629-1.68524.4101-2.4751.17035-.7135.6189-1.33826,1.09265-1.9267.17584-.13538.35132-.27234.52789-.40442,1.1698-.9566,1.64941-2.70441,2.76996-3.6087.04181,1.25171.12836,2.49945.29523,3.73138.00909.20496.01788.45624.02673.72766-1.20283,1.6218-1.59919,3.70382-2.76587,5.31464-1.6463.73682-3.92438,1.20557-4.57648,3.09564-.03345.12891.17242.17194.19525.04272.58679-1.57745,2.401-2.06836,3.91846-2.63867-.04065.03735-.07196.08508-.11462.12024-1.78394,1.57373-2.58411,3.86047-3.18073,6.07672-.03131.12732.16528.16968.19397.04846.64374-2.08527,1.55524-4.3576,3.27777-5.74982,1.58325-1.37115,2.09155-3.42114,3.08807-5.13983.02054,2.47278.26801,4.04273.3075,6.11145-.47632,2.30389-3.56036,3.93213-3.48718,6.33453.05432.01007.10651-.02582.11652-.08014.40698-2.07751,2.31415-3.25446,3.34424-5.00537-.1499,3.64551-.84387,7.32489.35608,10.87115.04114.12897.23083.04938.18964-.06274-.70551-2.61176-.55847-5.26886-.30963-7.9389.76245,2.06519,2.60309,3.57294,3.68433,5.47021.06439.11212.2359.00909.17334-.09961-1.17548-2.24518-3.51447-4.05518-3.73151-6.67908.19495-1.98724.37506-3.97845.23938-5.96106.35419.6333.7373,1.25977,1.18964,1.83386.65497.93018,1.6662,1.58313,2.23975,2.55829,1.19446,1.9823,1.11865,4.33105,1.27228,6.59625.0105.1275.20398.10626.1958-.01489-.06586-2.03369.02228-4.24823-.82465-6.17963,1.00024,1.14935,1.86383,2.42621,2.38519,3.84357.02832.13053.23205.07885.19385-.04944-.64948-1.87317-1.84943-3.49213-3.20905-4.92096-1.46091-1.5404-2.65909-3.16298-3.50446-5.13666.02313-1.36639.01648-2.97968-.04083-4.51349.60272.54028,1.28131.96033,1.94598,1.34973.15546.07922.30762.17023.46204.25409.58698.80896.66504,1.82507.91754,2.78052.2641,1.02582.74762,1.97949,1.32166,2.85291.03003.04498.091.05865.13696.0296.04669-.02948.06061-.09125.03113-.13794-.54541-.87567-.99146-1.81311-1.22314-2.81183-.18311-.78821-.27008-1.64331-.60736-2.39612,2.48761,1.47034,4.66968,3.59149,5.02863,6.59235.00818.05273.05688.09143.11053.08533.12598-1.87329-1.05414-3.84998-2.45636-5.24994.79156.27637,1.60223.45197,2.36279.7381,1.18976.40778,2.27191,1.09351,3.12689,2.01984.08477.09532.23533-.03779.14899-.13312-1.61261-2.11847-4.52802-2.33984-6.65955-3.52374-1.54053-1.22882-3.52948-2.02893-4.70007-3.5769-.0365-.64282-.0827-1.25488-.14166-1.80145-.00562-.23096.00494-.46301.00482-.69421.56519.52576,1.20215.992,1.89984,1.31677.91095.36725,1.85791.7204,2.79224,1.10638,1.06705.72776,1.61987,1.90989,2.3429,2.96039.07042.10683.23926-.00318.16656-.11054-.51117-.85461-1.04688-1.77502-1.74005-2.51874,1.67609.74561,3.26184,1.6568,4.44293,3.07074.07251.11115.23749-.00549.16669-.11066-1.26257-1.71967-3.18896-2.74713-5.03973-3.71429-1.89496-.84198-3.78772-1.45038-5.02307-3.19501.02051-.67181.05359-1.3457.09137-2.02252,1.24344.99093,2.75317,1.24833,4.22144,1.44177,2.31543.25763,3.25464,3.0824,5.19092,3.87567.03363-.04382.02533-.10657-.01855-.1402-1.37249-.97148-2.1776-2.5195-3.51733-3.53729.5155.06134,1.02637.12756,1.52203.22308,2.56653.75861,4.64954,3.01306,5.91455,5.32941.0589.11725.23224.02716.1806-.08618-1.26514-2.48065-3.24762-4.79529-5.974-5.71625-2.50598-.65906-5.72955-.39465-7.45978-2.50513.02197-.39642.04175-.79254.05939-1.19153.39471.21729.84875.34106,1.28461.49597,2.30865.7168,4.7265.46515,7.02692,1.1593,2.95813.93018,5.93896,2.26306,8.21967,4.40796.09497.09406.22852-.04828.14441-.13873Z" fill="#fff"/>
      </g>
      <path d="m184.37767,315.47302c-2.05945.07275-3.18439,1.29187-3.6853,2.86987-3.59255-.61791-5.74893,1.06064-7.16516,3.62024.00354-.05145.00842-.10583.01208-.15747.37524-1.95282,1.31641-5.16064,2.65582-7.98865.22815-.14227.45117-.30042.60492-.46472.34119-.36456,1.1792-.70557,1.34552-.80762.40387-.2478.65698-.99329,1.16022-1.76178.75208-1.1485,1.68256-.85229,1.81128-.98395.12878-.13165.41718-1.3631.70251-1.87952.28528-.51642,1.16248-.32849,1.29175-.50427.10596-.1441.41809-.92633.55133-1.47607.06866-.2832.73767-.55688.81946-.638.03271-.03241-.03113-.48553.14679-.65619.2157-.20685.75-.37195.75928-.46313.01605-.15814.15002-.63861.12604-.84912-.07007-.61426.8703-.56689.90979-.7912.01489-.08441.07635-.5083.29083-.8634.25604-.42395,1.29291-.62451,1.04724-.91986-.0625-.07513-.98267-.6076-2.28497-.78241-.93042-.12494-1.75452.05988-3.12415.45398-1.02093.31414-1.14568.98381-1.82072,1.0617-.17556-.02832-.70211.07093-.79049.10919-.38104.16504-.66217.76459-.80951.92401-.14056.15204-.71698.10065-.87457.29803-.05225.06543-.21417,1.41528-.55255,1.70782-.29913.25861-1.04401.59869-1.13599.68396-.07562.07013-.03662,1.31061-.08862,1.45972-.25604.73395-.58276,1.12299-.62592,1.21301-.17236.35938-.09857,1.27686-.09686,1.9093.00183.67755-.56482,1.39209-.55402,1.51453.01605.18262.72321.86487.5387,1.479-.18695.62207-.21161.89545-.17163,1.03943-.94653,2.05975-1.6767,4.2218-2.14252,5.99634-.00653-.00104-.0119-.0047-.01855-.00543-.23914-2.58539-.89642-4.89423-1.51331-6.68384.01752-.18976-.01184-.50507-.07874-1.16028-.07501-.73492.35901-1.10852.41699-1.31165.03888-.13617-.24359-1.10785-.09399-1.8739.13965-.71509.76099-2.90778.64429-3.35181-.02924-.11127-.33734-.53271-.46082-.87939-.06104-.17133.16461-1.42365.0943-1.51947-.08545-.11639-.43591-.06012-.74878-.22974-.11499-.06232-.35864-.29285-.50812-.72314-.12769-.36743-.06281-.82538-.09332-.89069-.08826-.18884-.29584-.24609-.32806-.39136-.09198-.41449.01764-.53766-.02722-.62311-.13525-.25757-.20099-.13428-.32684-.33685-.13202-.2124-.15784-1.14667-.34381-1.18054-.35968.0363-.95614.02477-1.23656-.30115-.0837-.07886-.24257-.80164-.39772-.83997-.21185-.05237-.51361-.08936-.74585-.29504-.28168-.24945-.48547-.8786-.73987-.86743-.25446.01111-.78442.52179-1.15936.17444-1.14996-1.06525-2.26593-1.00641-2.35297-.935-.34222.28058-.23785,1.13251-.3092,1.99554-.03931.47632-.38507.75391-.38666.85266-.00409.26233.20685.23523-.00616.91486-.073.23291-.32257.43182-.33887.6142-.00934.10516.53558.68445.73456.96539.16412.23181-.00677.73047.02319.77429.07489.10956.77209.56488.78809.90021.03101.65094-.34515,1.40515-.25665,1.59119.10797.22699,1.73865,1.06836,1.94897,1.71466s.32654,2.06122.44354,2.23816c.11694.177,2.13751.52991,2.73828,1.99286.40198.97894.20013,1.40723.24084,1.5658.05585.21771.85492.35022,1.25024.76807.81488.86145.67175.75818.93683.98071.72382,2.1123,1.49695,4.93829,1.53711,8.07098-.99933-2.09784-2.99443-2.8819-5.53143-2.57739-.6686-1.79202-2.69464-2.86427-4.45035-2.48524-2.384.33742-4.87912,1.73854-4.8707,3.32845.00745,1.40277,1.66846.78406,1.82886,1.51324.27179,1.23492-1.07092,2.52838.49792,3.71539,3.75129,2.50981,8.37817-1.76813,7.17633-5.59064,2.70091-.33285,4.80062.9186,5.26367,3.45514-.20691,3.53351-.1922,6.80811.03235,11.62439.03443.65235,1.02664.60705.99902-.04691-.20813-4.46652-.23742-7.59061-.07342-10.83761.73793-2.8623,3.30659-5.51146,7.04028-4.82916-1.44995,1.50702-.92413,3.4245.4425,4.74048,1.47559,1.4209,4.78088,1.82892,5.99976.19141.85229-1.14514-.04944-2.53766.38196-3.31067.47473-.85059,1.02307-.36218,1.46436-1.146.89972-1.59796-.73309-3.94061-4.3775-3.81189Z" fill="#95c172"/>
      <path d="m173.00023,335.07172c-.2749,0-.49854-.22217-.5-.49756-.00342-.75928-.09229-2.64307-.09229-2.64307l.99902-.04688s.08984,1.91406.09326,2.68506c.00155.27721-.22328.50241-.5.50244Z" fill="url(#linear-gradient)"/>
      <g id="leaf_1_right_hi" data-name="leaf 1 right hi">
        <path d="m180.58996,318.66656c1.10782.19136,2.32631.72626,3.49276.58629,2.03753-.2445,3.68282.3275,3.20812,1.17806-.43144.77304.47031,2.16555-.382,3.31066-1.21885,1.63757-4.52418,1.2295-5.99972-.19139-1.40918-1.35699-1.94359-3.35728-.31917-4.88361Z" fill="#a6d67c"/>
      </g>
      <g id="leaf_1_left_hi" data-name="leaf 1 left hi">
        <path d="m166.77878,323.05637c.69035-1.21155.79224-2.67045.32491-3.92799-.22604-.60825-2.52209-.42939-3.76436-.25351-2.38402.33754-3.9693,1.71507-3.80886,2.44422.27174,1.23493-1.07098,2.52843.49791,3.71544,2.53553,1.74028,5.52424.2045,6.7504-1.97816Z" fill="#a6d67c"/>
      </g>
      <g id="leaf_2_left_hi" data-name="leaf 2 left hi">
        <path d="m163.20992,295.60045c-.34219.28063-.23785,1.13254-.30915,1.9956-.03935.47626-.38512.7539-.38667.85261-.00412.26232.20686.23523-.00619.91488-.073.23288-.32257.43179-.33882.61418-.00937.10515.53555.68443.73452.96543.16412.23179-.00674.73047.0232.77428.07487.10955.77209.56484.78807.90018.03102.65092-.34511,1.40515-.25663,1.59122.10794.22697,1.73865,1.06834,1.94897,1.71465s.32654,2.06118.44352,2.23815,2.13756.52988,2.73828,1.99287c.40197.97896.20017,1.4072.24086,1.56578.05586.21772.85491.3502,1.25023.76809.9249.97772,1.29073,1.19648,1.29073,1.19648-1.29197-3.88689-1.76278-8.06258-3.42209-10.81608-1.99898-3.31715-3.62148-5.02038-4.73881-7.26833Z" fill="#a6d67c"/>
      </g>
      <g id="leaf_2_right_hi" data-name="leaf 2 right hi">
        <path d="m187.76208,300.75819c.24563.29535-.79119.49592-1.04725.91986-.21447.35508-.27595.77901-.29082.86341-.03953.22428-.9799.17691-.90981.7912.02402.21049-.10997.69097-.12603.84911-.00926.09117-.54357.25627-.75927.46315-.17793.17065-.1141.62375-.14681.65619-.08179.08109-.75079.35479-.81943.63801-.13324.54975-.44541,1.33199-.55135,1.47607-.12924.17576-1.00643-.01214-1.29174.50426s-.57373,1.74784-.70248,1.8795-1.05921-.16453-1.81129.98395c-.50325.7685-.75635,1.51402-1.16023,1.76181-.1663.10203-.94.51625-1.34553.8076-.94879.68166-1.06322.68747-1.06322.68747.72343-3.27967,3.75042-7.96683,4.24373-8.76551,3.45262-5.58982,7.71907-4.59123,7.78156-4.51608Z" fill="#a6d67c"/>
      </g>
    </g>
  </g>
</svg>