<?xml version="1.0" encoding="UTF-8"?>
<svg id="Layer_2" data-name="Layer 2" xmlns="http://www.w3.org/2000/svg" xmlns:xlink="http://www.w3.org/1999/xlink" viewBox="0 0 394 469">
  <defs>
    <linearGradient id="linear-gradient" x1="173.05627" y1="335.22165" x2="173.05627" y2="331.12656" gradientUnits="userSpaceOnUse">
      <stop offset="0" stop-color="#fff"/>
      <stop offset=".34875" stop-color="#fff"/>
      <stop offset=".90496" stop-color="#fff" stop-opacity="0"/>
      <stop offset="1" stop-color="#fff" stop-opacity="0"/>
    </linearGradient>
  </defs>
  <g id="CASE_5_Plants_LL_WL_CH" data-name="CASE 5 Plants LL WL CH">
    <g id="Day_16" data-name="Day 16">
      <g id="rectangle">
        <rect width="394" height="469" fill="none"/>
      </g>
      <g id="ROOTS_BACK" data-name="ROOTS BACK">
        <path d="m190.59306,340.96875c-.44049-.43646-.9046-.8291-1.37897-1.20264.94298-1.73751-2.28821-2.80083-3.63098-3.08246-1.03839-.13562-1.75342-.026-2.63153-.12445-.73822-.23407-1.48706-.44458-2.24902-.62244-1.95654-.34644-4.05005-.43359-5.83136-1.23657.00031-.04315.00378-.08508.00378-.12836-.04596-2.2702-3.06458-2.45868-3.646-.60358-1.55737,1.51367-4.04669,2.53229-6.14612,2.90515-3.07715.36096-6.48755.95294-8.74561,3.43549-.48029.52423-.4754,1.34143.02722,1.85675.52527.53955,1.39319.54321,1.92389.00958.24164-.23578.49908-.44183.76813-.62573-.87036,1.54297-1.63232,3.47003-.10486,4.04126.7149.24481,1.49347-.14886,1.72235-.86865.63873-1.7041,1.84924-4.05811,3.62579-4.64514.40576-.03748.81079-.07202,1.21082-.10608,1.60614-.25305,3.14471-.64557,4.57886-1.26038-.65511.49108-1.19298.80811-1.85034,1.22467-.90912-.04193-1.90411-.07324-2.81909.18677-1.46936.4826-4.56317,1.79767-3.39569,3.57648.19965.27069.48541.43018.78943.49969-.70264.82965-1.29596,1.75067-1.68152,2.82812-.55432,1.659,1.88062,2.55475,2.53351.93347.95728-2.30048,3.50256-3.79279,5.86768-5.11816-.4657.77649-.8667,1.58386-1.39069,2.21057-1.46265,1.00146-7.63184,6.98126-4.71759,8.42029,1.62021.63029,1.89247-1.31481,2.65643-2.2467.21979.32935.58417.54822.97479.60846-1.15356.52655-2.18335,1.26306-2.4566,2.60474-.12991.658.25801,1.34429.92163,1.54016-.64178,1.36365-1.16943,2.98029.30005,3.52557.71478.21112,1.46539-.19714,1.67651-.91187.53894-1.77325,1.58539-3.62915,3.12994-4.73291.5246-.48663.93262-1.05109,1.28955-1.64508.03357.47662.04797.95081.04059,1.42218-.48834,1.23822-1.79675,2.01233-2.53931,3.25696-.6933,1.01843-1.53204,3.22357.24249,3.65344.73126.14618,1.44263-.32806,1.58862-1.05945.06213-.23438.16046-.45764.28284-.67413-.17383,2.07855-.18451,4.18219.57684,6.39374.60938,1.63458,3.05151.81317,2.56366-.84729-.23566-.72968-.34656-1.48193-.3822-2.24847.95398.79739,1.49349,2.66878,2.99324,1.93567,1.99746-1.31929-.84832-3.66746-1.68202-4.65131-.57855-.61768-.84375-.99683-.93292-1.70807.14655-.93341.30103-1.87134.40137-2.80396.22001.29139.52636.52312.77753.79572.82159,1.06543,1.25806,2.41016,1.38226,3.81549.08466.67828.05444.98492.2049,1.78815.36268,1.34098,2.36165.89758,2.11414-.47174.90088.35638,2.15363-.33472,1.83423-1.59497-.7345-2.20728-2.11353-4.02441-3.7002-5.66071.87994-.08691,1.66632-1.04199,1.06482-2.04926-.27002-.35785-.45673-.73499-.6131-1.11932.79675.95026,1.32922,2.0672,1.51874,3.35773.11548.70569.76605,1.2038,1.4845,1.12225,1.78979-.3443,1.20587-2.46063.54565-4.01697.52008.28308,1.00348.64539,1.42908,1.14685.49377.52234,1.31622.56744,1.86481.0921,1.4082-1.4624-.7655-3.02429-2.41553-3.88861.80475-.2074,1.4303-1.13593.83185-2.05823-.48657-.67737-1.0188-1.22662-1.58435-1.70624.73779.1178,1.39203-.45129,1.52319-1.13104.7287.70929,1.3504,1.52972,1.75897,2.32861.32922.63794,1.10571.90948,1.76434.60602,2.19299-1.15424-.98523-4.39563-2.00537-5.46332-.258-.23785-.52991-.46814-.81244-.68976,1.72821.67499,3.36414,1.58929,4.64191,2.78607,1.27094,1.19293,3.09558-.63123,1.91248-1.90417Zm-15.63898,8.73853c-.00488-.06281-.01093-.12512-.0155-.18817.01813.073.0293.14044.05072.21558.01068.04187.02722.08185.03857.12354-.02429-.05151-.04968-.09827-.07379-.15094Zm.84015-4.9079c-.33246-.211-.63763-.42664-.92133-.64276.74878.31519,1.51868.59949,2.26923.90582.42517.35602.76105.82562,1.15991,1.44629-.01312-.00861-.02826-.01672-.04077-.02545-.80505-.63348-1.65479-1.1922-2.46704-1.6839Zm4.72803,2.20081c.20544.17603.38269.35461.53009.53497-.30359-.10657-.60077-.20343-.8869-.29468.12946-.06311.25073-.14301.35681-.2403Zm-12.047,4.02295c.25104-.55066.41046-1.367.41162-2.03894.08411-.42609.46173-.87189.79883-1.28113.26129-.2066.52173-.40979.77832-.61029.18848-.17383.36139-.38562.52881-.60895.0188.11218.0376.22528.05658.33905-.48206.86163-.82391,1.8905-1.12915,2.46124-.24707.54407-.54645,1.24127-.88037,1.77826-.2406.0885-.48834.17926-.74451.27161.06732-.09161.12939-.19226.17987-.31085Zm9.57391-8.8891c-1.05878-.45392-2.0658-.81299-2.94287-1.4137.85828.22528,1.75476.35321,2.63391.45459.41736.12659.64709.32495,1.09302.81036.32074.3736.69611.77087,1.09607,1.14856-.60156-.34741-1.22772-.67041-1.88013-.99982Z" fill="#4c4c4c"/>
      </g>
      <path d="m193.83464,310.37445c-2.7816-3.99596-8.45979-2.6244-11.4209,1.00415-3.32446.16409-6.29402,2.78813-7.91254,5.73029-.01733-.2124-.03748-.42474-.05627-.63721-.07358-4.07368.99931-8.25172,2.78632-11.93903.383-.15985.76917-.35046,1.0788-.58954.32839-.21214,1.08405-.37977,1.41138-.5113.9349-.38612,1.42608-1.39074,2.1142-2.12511.35864-.39216.60662-.39417.74072-.39417.47952.04399.97337.06118,1.34948-.23813.47291-.30556.89781-1.48684,1.28583-2.09506.57966-.01139.89712.17548,1.59035-.39076.30412-.29839.77287-1.11791,1.05729-1.71483.59442-.1561,1.20034-.55116,1.27795-1.12061.39079-.11788,1.02471-.29857,1.22437-1.03119.07494-.19375.18214-.46918.23834-.65802.36694-.0705.99133-.25189,1.2348-.95013.08081-.23724.1554-.38092.2146-.46979.61305-.24821,1.33664-.33853,1.67158-1.17529.4739-1.57585-1.37903-2.38027-3.3142-3.09525-1.72165-.50176-4.65228-.37091-6.11825.64596-.06567.03113-.13269.06647-.20026.10376-1.14815-.18649-2.05394.23813-2.66144.98004-.35907.00616-.87915.04889-1.3009.43103-.46063.42618-.52469,1.19209-.87646,1.77753-.42893.19408-1.04725.33225-1.36829.5465-.57385.27607-.68102,1.37349-.84216,2.2168-.32932.5722-.56616.72759-.81531,1.05505-.40908.52385-.54089,1.73441-.67734,2.69832-.19447.65129-.88671.99438-.93391,1.74652-.0448.57824.28574.93978.42248,1.4397-.19537.40741-.36011.80835-.43274,1.19855-.73462,1.28705-1.37903,2.61938-1.91229,3.99292-.17761-.56213-.37823-1.11627-.59009-1.66632.05426-.44464-.04761-.99622-.22223-1.89508-.0387-.19916.01172-.30847.12946-.53674.60141-.87146-.15265-1.92812-.07175-2.90626.2841-2.58856.97677-4.21138-.26278-5.54186.00087-.81879.13339-1.8293-.33078-2.2581-.4526-.48924-.92698-.47496-1.28794-.5074-.12321-.12843-.16242-.42282-.17137-.60767.01523-.35094-.22884-.91104-.53487-1.14513.0738-.33201-.31763-1.08591-.66119-1.28015-.18801-1.02303-.77164-2.13348-2.15063-1.74512-.2476-.65894-.78051-1.27683-1.65277-1.28369-.38454-.48846-.81512-1.21172-1.76636-1.18091-.34515.02169-.67771.18566-.90015.32849-1.61652-1.00403-3.21353-1.26598-4.16047-.49315-.87145.86414-.52828,2.16981-.52606,3.29899-.13481.34565-.40033.56635-.36339,1.13514.01903.25494.08776.44927.14373.57726-.00348.02325-.00836.05212-.01526.0874-.15755.27139-.36868.57623-.37696,1.09289-.03082.63347.53402,1.12811,1.09064,1.68158-.01904.25875-.06312.66853.27954,1.09271.21325.25757.47895.38555.76075.60394-.63097,2.85472.60345,2.40626,2.46753,3.86792.28558.69058.51541,2.40485.91491,2.83624.29206.36548.65711.46612,1.11927.59357.63049.17383,1.80408.49738,2.20673,1.27118.2948.56647.29523.84442.29547,1.04736-.09261.92522.74219,1.52646,1.43811,1.68507.16712.0559.47821.15997.56562.23406.51535.45472.65115.58552.87024.7854,1.13812,3.57195,1.5279,7.33785,1.83051,11.09967-1.56537-1.86194-3.48071-3.3894-5.50977-4.11755-6.52508-10.07612-19.71045,1.06098-11.11261,3.76526-.43287,4.58977,4.98914,5.334,8.11958,2.98206,1.53961-1.15438,1.71326-2.29376,2.35235-3.50715,2.88452,1.2879,5.62683,5.00623,6.48486,8.01178.08016,3.24355.08031,7.04042.03324,10.28815.04603,2.49216,3.69863,2.49745,3.74996,0,.17865-2.92865.22845-6.00403.12427-9.02386.43218-3.37092,2.83613-10.29884,7.46582-10.84009.39465.39417.81665.84778,1.15594,1.50513,1.2547,2.43109,4.17194,4.26428,6.78571,4.26428,3.31927.09254,4.57938-3.36923,3.13922-5.41406,1.02341-1.49614,1.34876-3.01114.28876-4.61694Z" fill="#2e541a"/>
      <g id="ROOTS">
        <path d="m189.69139,341.83435c-1.61395-1.57764-3.5943-2.7677-5.71503-3.60211.47119-.01703.94049-.0376,1.39764.00195.91809.10919,1.78162.55383,2.60706,1.01807.11157.06531.21198-.10553.10321-.17133-.81561-.50018-1.67523-.99713-2.66827-1.15851-.90253-.11713-1.78052-.01495-2.66736-.12665-2.85248-1.04354-6.08135-.75338-8.79608-2.14185-.14227-.08051-.26544-.17896-.35541-.27295.01184-.2688.02618-.53662.02783-.80914.00438-.84295-1.26975-.81302-1.25122.01343-1.81207,1.91815-4.54822,3.05212-7.11993,3.52637-2.8056.33154-6.0033.83258-8.01324,3.06128-.09052.09375.06152.22729.14453.13824,1.43939-1.42511,3.29871-1.99945,5.2334-2.29279-1.69037,1.17273-2.68512,3.4162-3.32959,5.27515-.03821.12402.15497.17993.19092.05896.83679-2.16907,2.25433-4.97491,4.68848-5.52289.39191-.03601.7832-.06781,1.17126-.09698,2.47729-.36462,4.96503-1.20105,6.94434-2.76764-.07367.85175-.17261,1.71808-.26831,2.59235-.74252,1.08404-2.27195,1.8771-3.43414,2.64441-.92761-.03741-1.91632-.13428-2.86896.13568-1.0188.26886-1.89453.8526-2.67871,1.49359-.1001.08008.0249.23517.12384.15723,1.40234-1.17566,3.04547-1.53253,4.78625-1.38141-2.34155,1.49615-4.66925,3.17798-5.63873,5.85162-.04468.12195.14624.18585.18762.06915,1.39288-3.2818,4.82678-4.82343,7.7439-6.51782.53967-.3382,1.11713-.65381,1.64331-1.07855-.06274.71082-.10443,1.42273-.11249,2.13385-1.27087,1.00201-1.60907,2.58508-2.60767,3.7337-2.12683,1.76782-4.29706,3.75549-5.29761,6.41315-.04633.1214.1416.18872.18616.07312.80835-1.86548,2.18604-3.32892,3.71338-4.62628-.11823.21368-.22729.43439-.3092.67487-.1825.75751.00043,1.44379-.3269,2.15955-.04541.12.13953.19122.18604.07306.34619-.64636.24512-1.48444.42645-2.14044.22607-.5824.64215-1.10638,1.06018-1.61383.25854-.20251.51843-.40234.77838-.59955.87817-.86829,1.37903-2.19983,2.20831-3.07727.01617.33502.03607.6698.07532,1.00262.11365.62982.31183,1.81342.50305,2.97369-.98293,1.61332-1.4604,3.49289-2.53961,4.99597-1.43793.62372-3.53003.86926-4.00317,2.59998-.02985.12695.1712.16846.19543.04187.43823-1.4436,2.07367-1.72852,3.41315-2.1814-1.71326,1.39856-2.77765,3.50714-3.32288,5.62225-.03052.12726.1651.16998.19403.04852.63971-2.04913,1.74536-4.02539,3.50134-5.31671,1.34137-1.33069,1.88226-3.11322,2.74487-4.69305.09906.60706.18768,1.15369.24658,1.52081.38245,1.39313.45471,2.79395.40326,4.19684-.66223,1.94946-3.14166,3.08569-3.37378,5.289-.02118.12714.17743.15723.19727.03284.32391-1.80518,2.06342-2.75879,3.10938-4.14783-.06415.82324-.15186,1.64661-.2348,2.46912.00031.00372-.00317.00507-.00275.00891.00012.00244.0011.00433.00122.00677-.24371,2.42078-.41321,4.83368.4035,7.2099.04095.12726.22937.04907.18964-.06274-.56604-1.96631-.49133-3.93109-.25916-5.90649.73328,1.57184,2.5144,2.55597,3.35437,4.09198.06543.1106.23541.00958.1734-.09967-.90198-1.92456-3.29926-2.98389-3.36237-5.2652.27612-1.96216.60541-3.9375.52863-5.93835.81384,1.22375,1.80194,2.34741,2.82306,3.36407,1.35181,1.71204,1.46191,3.92438,1.64984,6.04022.01404.12714.20697.10156.19611-.01984-.07581-1.67615-.14075-3.50507-.82721-5.09375.92834,1.09851,1.72388,2.31201,2.21588,3.64948.02832.13053.23205.07885.19385-.04944-.62341-1.79803-1.75616-3.35956-3.04834-4.74591-.01001-.01379-.01678-.02887-.02692-.0426-1.34296-1.46887-2.51923-2.93542-3.34692-4.74377-.01959-.11823-.03162-.23608-.05499-.35449-.11139-1.36261-.2688-2.82568-.4328-4.24164.49811.38385,1.0282.70856,1.54993,1.01294.16437.08331.32526.17877.4884.26727.56885.8045.65094,1.80713.90057,2.75183.2641,1.02582.74762,1.97949,1.32166,2.85291.03003.04498.091.05865.13696.0296.04669-.02948.06067-.09125.03113-.13794-.54541-.87567-.99146-1.81311-1.22308-2.81183-.18097-.77875-.26562-1.62396-.59277-2.37024,2.47992,1.46411,4.65057,3.57642,5.01398,6.56647.01917.12848.21179.09827.19836-.02539-.18085-1.93994-1.12512-3.75098-2.49945-5.12207.77747.26685,1.57159.44141,2.31769.72192,1.18982.40741,2.27203,1.09271,3.12726,2.01886.08481.09522.23533-.03776.14899-.13312-1.6015-2.10535-4.48981-2.34045-6.61676-3.50513-1.42401-1.15173-3.24396-1.93274-4.43927-3.27173-.01147-.09607-.02301-.19611-.03442-.29126-.07739-.7583-.08521-1.50745-.05536-2.25415,1.37476,1.1123,3.12213,1.6192,4.77887,2.2851.75608.52985,1.17816,1.36807,1.7146,2.12671.07146.10681.24027-.00253.1665-.11053-.33539-.61603-.74219-1.21454-1.22668-1.73047.52032.23285,1.02954.4848,1.50073.80066.82324.51849,1.64453,1.09344,2.21594,1.8772.07513.10626.2345-.00531.16669-.11072-1.1709-1.66925-3.01807-2.66705-4.80286-3.55396-1.68427-.68933-3.28015-1.32007-4.44348-2.69257.05707-.68304.13397-1.36755.21301-2.05609,1.34277.99231,2.96381,1.22473,4.6048,1.40674.27936.07263.55103.16339.79749.30426,1.23163.73425,2.03442,2.46619,3.37543,2.92413.03369-.04382.02545-.10657-.01837-.14026-.77655-.5965-1.43066-1.30554-2.03723-2.0816-.23676-.32727-.54077-.61139-.87219-.86047,1.67963.21509,3.3056.58215,4.58594,1.90387.99316.86169,1.84979,1.90521,2.45343,3.08539.05878.11603.23083.02661.18054-.08624-1.17767-2.43433-3.2207-4.63965-5.94312-5.31799-2.33368-.5589-5.35413-.45319-6.9975-2.32416.02954-.28424.05426-.5705.07831-.85767,2.50128,1.203,5.32898.86621,7.96008,1.48199,2.90253.74536,5.85272,1.91956,8.05975,4.0036.0946.09338.22797-.04816.14441-.13861Z" fill="#fff"/>
      </g>
      <path d="m193.0811,313.24854c.82312-1.92773-1.59723-4.2381-4.29694-4.08032-1.7348.10144-4.42291,1.47986-5.72089,3.43597-5.06483-.12836-8.35905,5.64464-9.4693,9.87463-.09602-1.74806-.17607-3.45893-.32825-5.18146-.29761-4.69885.88873-9.56171,3.11102-13.7702.40167-.14642.86694-.3399,1.16943-.57343.46124-.35608,1.4903-.59204,1.70093-.67847.5116-.20984.94263-1.02118,1.66608-1.81219,1.08118-1.18213,2.09753-.66687,2.27045-.79443s.7356-1.492,1.16083-2.03345c.42529-.54144,1.40051-.16083,1.58228-.33911.14899-.14612.65491-.98871.91125-1.59705.13208-.31335.95386-.50342,1.06329-.58154.0437-.03119.05499-.56506.29187-.72833.28717-.19794.93347-.28809.96124-.39142.0481-.17914.2923-.70746.30402-.95441.03424-.7207,1.10852-.49017,1.19604-.74109.0329-.09442.18304-.57123.49652-.94012.37427-.44037,1.60608-.47742,1.37842-.86353-.05792-.09827-1.01819-.88373-2.4856-1.32886-1.04828-.31793-2.03204-.25934-3.68341-.06165-.73169.08759-1.39905.58124-1.50616.62714-.24536.10504-.51544.34607-.78967.255-.1969-.06543-.82202-.04956-.93097-.02203-.46979.11871-.90576.75677-1.10535.91278-.19037.1488-.84467-.01825-1.06311.17963-.07239.06561-.51154,1.59009-.95605,1.86377-.39294.24194-1.31458.49426-1.4364.5752-.10028.06665-.28748,1.50287-.37531,1.66486-.43225.79742-.88135,1.18445-.94794,1.28009-.26575.38165-.35242,1.45227-.46881,2.18103-.12463.78082-.91107,1.49774-.92157,1.64081-.01562.21338.67126,1.13153.34375,1.80438-.30908.63513-.39514.94196-.39056,1.12201-1.52106,2.63294-2.58587,5.52227-3.23053,8.48846-.38452-2.24414-.93927-4.45294-1.77576-6.55621.11908-.20032.07336-.46411-.15546-1.64185-.16766-.86285.30658-1.35211.35352-1.59894.03149-.16553-.40735-1.28674-.31213-2.21063.08887-.8623.59021-3.52722.4043-4.04095-.04657-.12872-.45679-.59509-.64026-.99268-.0907-.19653.04248-1.70471-.05109-1.81073-.11377-.12878-.52301-.02454-.91193-.19196-.14294-.06158-.45642-.30865-.67963-.80255-.19067-.42175-.1629-.97131-.20605-1.04547-.12482-.21436-.37695-.25995-.43073-.42865-.15338-.48132-.03668-.63898-.099-.73541-.18787-.29077-.2525-.13763-.4234-.3642-.1792-.23761-.30988-1.34192-.53387-1.36212-.42238.08153-1.13041.13182-1.49761-.22438-.10768-.08446-.37343-.92394-.56135-.95275-.25671-.03937-.61823-.05084-.91547-.26971-.36053-.26538-.66943-.98907-.96973-.94867-.30029.04047-.8736.70239-1.35516.33093-1.47687-1.13904-2.79303-.94977-2.88855-.85583-.37543.3692-.16046,1.36755-.15247,2.39795.00439.5686-.37561.93463-.36688,1.05176.02325.31134.27032.25659.0907,1.08484-.06152.28381-.336.54626-.33569.7641.00018.12561.70801.75372.97388,1.06537.2193.25708.07025.86633.11047.91504.10046.12183.97546.58661,1.03033.9823.10651.76801-.25842,1.70209-.13361,1.91315.15222.25739,2.1748,1.07965,2.49329,1.82306.31848.74335.60779,2.40753.76538,2.60468.15759.1972,2.58984.39893,3.4585,2.06818.58124,1.117.38794,1.64612.45319,1.82971.08954.25201,1.0506.32336,1.56384.77618.8136.7179.89563.82031,1.04291.93604,1.78649,5.27487,2.0744,10.96848,2.33173,16.50287-1.58362-3.37781-4.64948-6.77454-7.86383-7.70111-1.74982-2.97992-4.25165-3.96533-6.31903-3.94672-2.62366.02368-5.57294,2.14984-5.48358,3.88007.0788,1.52661,2.25574,1.3678,2.6521,2.07825.37836.6781-.24237,2.27594.90973,3.11719,1.63788,1.19604,4.06152.54272,5.35626-.41791,1.74457-1.29443,1.42371-2.94739,2.72821-3.97284,3.60956,1.07489,7.10895,5.65601,8.10052,9.33972.10101,3.46387.11554,6.91919.03668,10.42963-.00635.81702,1.22174.82556,1.24902.02759.19336-2.89154.19318-5.86938.10052-8.84253.25792-3.76773,3.49409-12.4464,9.22937-12.32812.48541.4942,1.21881,1.12799,1.77783,2.211,1.64117,3.17987,6.58099,4.83606,7.87817,2.46808.93958-1.71527-.72522-2.81458-.44189-3.2193.34668-.49524.78467-1.26746.91309-1.56812Z" fill="#95c172"/>
      <g id="leaf_1_right_hi" data-name="leaf 1 right hi">
        <path d="m182.73748,313.12497c2.17282-.99954,4.25833-1.07358,6.09833-.64064,1.69371.39852,3.67888,1.83708,3.3322,2.33233-.28333.40475,1.38149,1.50406.44189,3.2193-1.29717,2.36799-6.23696.7118-7.87817-2.46804-.64974-1.25887-1.5373-1.91219-1.99424-2.44295Z" fill="#a6d67c"/>
      </g>
      <g id="leaf_1_left_hi" data-name="leaf 1 left hi">
        <path d="m164.66789,314.44505c-2.6165-1.27802-3.67335-1.35347-5.45498-.98759-2.57013.5278-4.36571,1.83626-3.96932,2.54672.37832.67807-.24238,2.27591.90972,3.11719,1.63789,1.19601,4.06153.54274,5.35626-.41794,1.9161-1.42172,1.33382-3.27866,3.15831-4.25838Z" fill="#a6d67c"/>
      </g>
      <g id="leaf_2_left_hi" data-name="leaf 2 left hi">
        <path d="m158.93238,284.97845c-.37543.36921-.1605,1.36757-.15252,2.39795.0044.5686-.3756.93465-.36685,1.0518.02323.3113.27034.25659.0907,1.08482-.06155.28379-.33598.54624-.3357.76412.00016.12561.70798.75368.97387,1.06535.21933.25709.07029.86634.11046.91506.10046.12179.97546.58661,1.03033.98229.10651.76803-.25839,1.70211-.1336,1.91312.15223.2574,2.17481,1.0797,2.4933,1.82306s.60782,2.40754.7654,2.60472,2.58982.39888,3.45845,2.06817c.58124,1.11701.38799,1.64611.4532,1.82967.08952.25202,1.05061.32338,1.56385.77623,1.2008,1.05951,1.65774,1.27955,1.65774,1.27955-1.9475-4.46759-2.95286-9.36542-5.21422-12.45057-2.72427-3.71669-4.82948-5.56119-6.39441-8.10533Z" fill="#a6d67c"/>
      </g>
      <g id="leaf_2_right_hi" data-name="leaf 2 right hi">
        <path d="m192.52939,290.49858c.22767.38616-1.00412.42318-1.37839.86357-.31348.36886-.46362.84566-.49655.9401-.0875.25093-1.16179.02041-1.19601.74109-.01172.24694-.25596.77531-.30406.95445-.02773.10327-.67407.19347-.96123.39139-.23688.16327-.24815.69711-.29189.72835-.10938.0781-.93118.26817-1.06324.58155-.25634.60829-.76228,1.45089-.91128,1.59703-.18176.17827-1.15698-.20231-1.58224.33912s-.98791,1.90588-1.16085,2.03343-1.18926-.38771-2.27044.79442c-.72347.79102-1.1545,1.60237-1.66608,1.81222-.21065.08641-1.17934.41874-1.70096.67845-1.22041.60762-1.3533.5929-1.3533.5929,1.44698-3.64228,5.81067-8.47473,6.52834-9.30237,5.02285-5.79251,9.75026-3.84394,9.80819-3.74569Z" fill="#a6d67c"/>
      </g>
      <path id="root_main_fade" data-name="root main fade" d="m172.375,334.57266l.03658-2.82022c.01496-.86617,1.33341-.85036,1.32592.01722.00309.03259-.11405,2.76759-.11249,2.80136.00623.827-1.25582.82955-1.25001.00164Z" fill="url(#linear-gradient)"/>
    </g>
  </g>
</svg>