<svg width="26" height="26" viewBox="0 0 26 26" xmlns="http://www.w3.org/2000/svg">
    <g fill-rule="nonzero" fill="none">
        <circle class="background" cx="13" cy="13" r="12.5" />
        <path class="outline" d="M13 .5C19.904.5 25.5 6.096 25.5 13S19.904 25.5 13 25.5.5 19.904.5 13 6.096.5 13 .5zm0 3a9.5 9.5 0 1 0 0 19 9.5 9.5 0 0 0 0-19z" fill="#333"/>
        <path class="questionMark" d="M11.574 16.074c0-.82.1-1.474.3-1.96.198-.486.563-.965 1.093-1.437.53-.472.884-.855 1.06-1.151.175-.296.263-.608.263-.936 0-.99-.457-1.486-1.371-1.486-.434 0-.78.134-1.041.4-.261.267-.397.634-.41 1.103H8.92c.012-1.119.374-1.995 1.085-2.628.712-.633 1.684-.949 2.914-.949 1.242 0 2.206.3 2.892.9.685.601 1.028 1.45 1.028 2.545 0 .498-.111.969-.334 1.411-.223.442-.612.933-1.169 1.472l-.712.677c-.445.428-.7.929-.765 1.503l-.035.536h-2.25zm-.255 2.698c0-.392.134-.716.4-.971.267-.255.608-.382 1.024-.382.416 0 .758.127 1.024.382.267.255.4.579.4.971 0 .387-.13.706-.391.958-.26.252-.605.378-1.033.378-.427 0-.772-.126-1.032-.378a1.275 1.275 0 0 1-.392-.958z" fill="#333"/>
    </g>
</svg>
