<?xml version="1.0" encoding="UTF-8"?>
<svg id="Layer_1" data-name="Layer 1" xmlns="http://www.w3.org/2000/svg" viewBox="0 0 286 122">
  <path d="m255.02,67.52c3.78-2.61,9.43-6.38,7.79-8.67-2.15-3.02-16.54-7.11-19.71-8.64-10.44-5.04-22.59-6.64-33.77-9.67-17.62-4.95-35.85-9.15-54.26-7.62-4.44-6.17-7.43-17.26-14.5-20.17-7.62.15-13.4,9.07-19.66,13-4.33,2.65-5.46,8.85-2.87,13.24-10.72,2.53-21.49,5.14-32.07,7.92l-.03-.79c-6.94-1.94-17.96-9.3-8.47,3.12-9.08,2.6-18.17,5.38-27.08,8.87-5.27-7.69-11.64-14.74-17.65-21.74-3.43-3.74-6.75-3.83-11.13-4.35,6.06,8.19,2.53,17.59-1.09,26.08,1.02,12.87,10.74,19.3,2.22,34.63,9.03-7.17,20.41-11.83,27.64-20.98,2.75,1.22,5.03,1.89,7.7,2.86-8.87,2.24-6.11,7.38,1.03,10.32,11.36,5.18,21.25,12.94,33.81,15.39,10.76.96,17.7-4.04,27.06-6.87,1.63.38,3.27.75,4.9,1.1-2.88,3.08-19.6,13.57-7.32,12.6,9.45.34,19.81-.78,26.28-8.66l-1.13-.64c33.7,5.18,69.47,3.39,100.81-10.97,6.41-3.52,19.11-7.66,19.46-15.8-.39-3.64-5.17-3.64-7.97-3.57Z" fill="#5f4737" stroke="#5f4737" stroke-linejoin="round" stroke-width="10"/>
  <g>
    <path d="m46.65,52.97c2.68,3.19,5.56,6.93,5.68,11.69.08,3.32-1.27,6.48-3.1,8.78s-4.09,3.86-6.32,5.4c-6.73,4.63-13.45,9.27-20.18,13.9,3.7-6.08,4.36-15.1,1.61-22-1.64-4.11-4.45-8.06-3.83-12.63.38-2.79,1.99-4.97,3.05-7.44,2.63-6.12,1.43-13.57-1.96-18.65,4.38.52,7.7.61,11.13,4.35,4.81,5.23,9.3,11.08,13.92,16.59Z" fill="#cdbf73" stroke-width="0"/>
    <path d="m156.13,34.79c-2.7-4.7-5.39-9.4-8.09-14.1-2.01-3.51-4.32-7.27-7.48-7.93-2.86-.6-5.62,1.52-8.13,3.57-3.84,3.14-7.69,6.29-11.53,9.43-1.52,1.24-3.12,2.62-3.86,4.87-.76,2.31-.4,5.11.49,7.33.89,2.22,2.24,3.98,3.57,5.7l35.03-8.86Z" fill="#cdbf73" stroke-width="0"/>
    <path d="m61.77,73.7c-2.62.6-5.29,1.22-7.17,2.3s-2.89,2.72-1.82,4.46c1.04,1.69,3.76,3.15,6.34,4.48,6.53,3.39,13.07,6.78,19.6,10.17,4.26,2.21,8.97,4.56,14.21,5.22,5.79.73,10.43-.81,14.51-2.29,5.47-1.99,10.93-3.98,16.4-5.98l-62.06-18.36Z" fill="#cdbf73" stroke-width="0"/>
    <path d="m143.84,98.5c-1.29,1.25-2.61,2.52-4.42,3.85s-4.23,2.74-6.42,3.54c-2.13.78-3.64.86-5.01.91-3.48.12-6.96.24-10.43.36-2.27.08-4.65.11-4.62-1.16.03-1.39,2.95-3.92,5.71-6.23,3.69-3.09,7.39-6.18,11.08-9.27l14.12,7.99Z" fill="#cdbf73" stroke-width="0"/>
    <path d="m85.93,46.13c-2.53-.94-5.07-1.88-7.6-2.81-1.89-.7-3.93-1.42-4.6-1.07-.61.32.1,1.45.79,2.51,1.06,1.62,2.13,3.25,3.19,4.87.42.64.89,1.34,1.88,2.14,1.02.83,2.38,1.61,3.54,2.12,1.15.51,2.14.8,3.1,1.08l-.3-8.84Z" fill="#cdbf73" stroke-width="0"/>
    <path d="m255.02,67.52c3.78-2.61,9.43-6.38,7.79-8.67-2.15-3.02-16.54-7.11-19.71-8.64-10.44-5.04-22.59-6.64-33.77-9.67-12.16-3.3-24.42-6.55-37.02-7.55-20.89-1.66-41.56,2.91-61.73,7.79-20.08,4.86-39.71,9.64-59.1,16.9-3.17,1.19-7.6,3.86-7.18,7.89,0,.07.03.14.04.21,15.06-3.38,50.9-2.61,63.53-.93,16.28,2.17,114.44.76,119.16,8.31,4.72,7.55,17.15,3.14,22.18,5.69,1.37.69,3.21,1.56,4.88,2.64,4.21-2.46,9.35-6.2,8.9-10.38-.39-3.64-5.17-3.64-7.97-3.57Z" fill="#99994d" stroke-width="0"/>
    <path d="m227.02,73.15c-4.72-7.55-102.88-6.14-119.16-8.31-12.63-1.69-48.47-2.45-63.53.93.02.16.05.33.09.48,6.97-.29,14.65,2.02,20.52,3.68,16.34,4.61,31.53,7.76,48.61,8.12,18.6.39,37.45-.65,55.75,3.41,10.95,2.43,21.42,6.65,32.33,9.25,10.91,2.6,22.68,3.48,33.09-.69,2.8-1.12,5.5-2.6,8.47-3.08.11-.02.22-.02.32-.03,2.25-1.03,4.47-2.12,6.66-3.28.98-.52,2.38-1.24,3.9-2.13-1.67-1.08-3.51-1.95-4.88-2.64-5.03-2.55-17.46,1.86-22.18-5.69Z" fill="#d8c2b3" stroke-width="0"/>
    <path d="m54.3,73.29c32.91,11.65,66.4,22.73,101.15,26.18,21.49,2.13,43.48,1.17,64.45-4.23,8.1-2.09,16.02-4.85,23.62-8.34-.11.01-.22.02-.32.03-2.98.48-5.68,1.96-8.47,3.08-10.41,4.17-22.18,3.29-33.09.69-10.91-2.6-21.38-6.82-32.33-9.25-18.29-4.06-37.15-3.02-55.75-3.41-17.07-.36-32.26-3.51-48.61-8.12-5.87-1.66-13.55-3.97-20.52-3.68.99,3.91,6.55,5.87,9.88,7.05Z" fill="#ebd7ca" stroke-width="0"/>
    <g>
      <ellipse cx="161.58" cy="37.82" rx="1.59" ry=".71" fill="#7f7d36" stroke-width="0"/>
      <ellipse cx="168.93" cy="40.03" rx="3.38" ry="1.5" fill="#7f7d36" stroke-width="0"/>
      <ellipse cx="161.58" cy="41.53" rx="2.38" ry="1.06" fill="#7f7d36" stroke-width="0"/>
    </g>
    <g>
      <ellipse cx="150.6" cy="44.39" rx="1.59" ry=".71" fill="#7f7d36" stroke-width="0"/>
      <ellipse cx="152.39" cy="41.57" rx="3.38" ry="1.5" fill="#7f7d36" stroke-width="0"/>
      <ellipse cx="145.03" cy="43.07" rx="2.38" ry="1.06" fill="#7f7d36" stroke-width="0"/>
    </g>
    <g>
      <ellipse cx="118.29" cy="46.2" rx="1.59" ry=".71" fill="#7f7d36" stroke-width="0"/>
      <ellipse cx="120.07" cy="43.38" rx="3.38" ry="1.5" fill="#7f7d36" stroke-width="0"/>
      <ellipse cx="126.88" cy="44.88" rx="2.38" ry="1.06" fill="#7f7d36" stroke-width="0"/>
    </g>
    <g>
      <ellipse cx="105.61" cy="51.59" rx="1.59" ry=".71" fill="#7f7d36" stroke-width="0"/>
      <ellipse cx="108.89" cy="51.94" rx=".79" ry=".35" fill="#7f7d36" stroke-width="0"/>
      <ellipse cx="103.28" cy="48.41" rx="3.38" ry="1.5" fill="#7f7d36" stroke-width="0"/>
      <ellipse cx="110.09" cy="49.91" rx="2.38" ry="1.06" fill="#7f7d36" stroke-width="0"/>
    </g>
    <g>
      <circle cx="240.62" cy="64.84" r="6.04" fill="#f2f2f2" stroke-width="0"/>
      <circle cx="240.62" cy="64.84" r="4.09" stroke-width="0"/>
      <circle cx="242.06" cy="63.55" r="1.16" fill="#f2f2f2" stroke-width="0"/>
    </g>
    <path d="m224.56,54.96c-3.49,3.3-6.5,7.28-7.83,11.89s-.76,9.94,2.26,13.68,8.69,5.37,12.92,3.09" fill="none" stroke="#f2f2f2" stroke-linecap="round" stroke-linejoin="round" stroke-width="1.89"/>
    <path d="m214.55,56.91c-1.63,3.46-3.28,6.97-4.09,10.71-.8,3.75-.7,7.81,1.06,11.22" fill="none" stroke="#f2f2f2" stroke-linecap="round" stroke-linejoin="round" stroke-width="1.89"/>
    <path d="m206.48,88.83c-2.01.64-4.08,1.29-6.7,1.84-2.63.54-5.96.96-8.75.95-2.71-.01-4.41-.42-5.94-.81-3.88-.99-7.75-1.98-11.63-2.97-2.53-.64-5.15-1.37-4.52-2.42.7-1.16,5.12-2.35,9.25-3.42,5.54-1.43,11.08-2.86,16.62-4.28l11.67,11.12Z" fill="#bc8c77" stroke-width="0"/>
  </g>
</svg>