<?xml version="1.0" encoding="UTF-8"?>
<svg id="Layer_1" data-name="Layer 1" xmlns="http://www.w3.org/2000/svg" viewBox="0 0 286 122">
  <path d="m255.02,66.16c3.78-2.04,9.43-4.76,7.79-7.36-2.15-3.42-16.62-9.85-19.71-11.45-26.91-11.37-58.74-20.02-88.01-15.61-5.48-7.81-11.68-27.15-22.65-14.54-6.04,6.8-20.34,13.03-14.39,23.97-10.67,3.36-21.34,6.64-32.08,9.84,0-.25-.02-.49-.03-.76-6.98-1.69-17.95-8.99-8.47,3.32-9.04,2.74-18.11,5.36-27.07,8.25-5.38-8.17-11.65-15.66-17.65-23.47-3.43-4.19-6.75-4.78-11.13-6.09,5.88,9.27,2.89,17.21-1.09,25.88.86,12.27,10.73,21.79,2.22,35.03,9.06-5.51,20.65-9.17,27.64-17.7,2.77,1.43,5.06,2.18,7.79,3.24-9.18,1.89-5.97,7.24.94,10.38,11.29,5.52,21.12,13.17,33.81,15.08,10.93.41,17.96-5.27,27.29-8.83,1.59.24,3.18.47,4.77.68-2.62,3.18-19.79,15.25-7.42,13.33,9.71-.4,20.05-2.78,26.28-11.03-.41-.19-.8-.38-1.19-.56,25.79,1.63,51.82-1.16,77.24-6.79,9.2-2.87,42.92-9.32,43.09-19.88-.39-3.72-5.17-4.57-7.97-4.92Z" fill="#5f4737" stroke="#5f4737" stroke-linejoin="round" stroke-width="10"/>
  <g>
    <path d="m46.65,56.4c2.68,3.4,5.56,7.31,5.68,12.08.08,3.33-1.27,6.41-3.1,8.58-1.82,2.17-4.09,3.56-6.32,4.89-6.73,4.01-13.45,7.77-20.18,11.21,3.7-5.43,4.36-14.35,1.61-21.72-1.64-4.39-4.45-8.86-3.83-13.31.38-2.72,1.99-4.61,3.05-6.89,2.63-5.66,1.43-13.3-1.96-18.99,4.38,1.32,7.7,1.9,11.13,6.09,4.81,5.87,9.3,12.18,13.92,18.06Z" fill="#cdbf73" stroke-width="0"/>
    <path d="m156.13,33.46c-2.7-4.46-5.39-8.91-8.09-13.36-2.01-3.32-4.32-6.86-7.48-7.23-2.86-.33-5.62,2.05-8.13,4.33-3.84,3.5-7.69,6.99-11.53,10.46-1.52,1.37-3.12,2.88-3.86,5.19-.76,2.38-.4,5.14.49,7.29.89,2.15,2.24,3.79,3.57,5.4,11.69-3.97,23.35-8.05,35.03-12.06Z" fill="#cdbf73" stroke-width="0"/>
    <path d="m61.77,77.92c-2.62.53-5.29,1.03-7.17,2.02s-2.89,2.56-1.82,4.36c1.04,1.75,3.76,3.35,6.34,4.78,6.53,3.63,13.07,7.06,19.6,10.33,4.26,2.13,8.97,4.33,14.21,4.74,5.79.45,10.43-1.39,14.51-3.17,5.47-2.38,10.93-4.82,16.4-7.29-20.95-4.47-41.58-9.48-62.06-15.78Z" fill="#cdbf73" stroke-width="0"/>
    <path d="m143.84,98.31c-1.29,1.37-2.61,2.77-4.42,4.26-1.81,1.5-4.23,3.13-6.42,4.14-2.13.98-3.64,1.19-5.01,1.36-3.48.43-6.96.86-10.43,1.27-2.27.27-4.65.48-4.62-.79.03-1.4,2.95-4.15,5.71-6.69,3.69-3.4,7.39-6.82,11.08-10.24,5.65,2.69,8.47,4.02,14.12,6.69Z" fill="#cdbf73" stroke-width="0"/>
    <path d="m85.93,50.24c-2.53-.85-5.07-1.72-7.6-2.62-1.89-.67-3.93-1.38-4.6-1.01-.61.33.1,1.45.79,2.5,1.06,1.61,2.13,3.23,3.19,4.83.42.63.89,1.32,1.88,2.11,1.02.81,2.38,1.55,3.54,2.03,1.15.48,2.14.74,3.1.99-.12-3.53-.18-5.3-.3-8.83Z" fill="#cdbf73" stroke-width="0"/>
    <path d="m255.02,66.16c3.78-2.04,9.43-4.76,7.79-7.36-2.15-3.42-16.62-9.85-19.71-11.45-10.47-5.43-21.75-8.22-33.77-11.16-12.59-3.08-24.82-5.82-37.02-5.87-20.28-.08-41.18,6.75-61.73,13.19-19.61,6.14-39.49,11.87-59.1,17.94-3.17.98-7.6,3.29-7.18,7.35,0,.07.03.14.04.21,20.74-2.32,42.87-2.02,63.53-1.24,21.08.79,42.67-2.52,63.92-3.42,15.58-.66,46.25-4.62,55.24,4.77,4.93,5.14,17.15,4.37,22.18,7.56,1.37.86,3.21,1.99,4.88,3.31,4.21-1.85,9.35-4.64,8.9-8.9-.39-3.71-5.17-4.56-7.97-4.92Z" fill="#99994d" stroke-width="0"/>
    <path d="m227.02,69.11c-9.01-9.4-39.67-5.43-55.24-4.77-21.25.9-42.84,4.21-63.92,3.42-20.66-.78-42.78-1.08-63.53,1.24.02.17.05.33.09.49,6.97.31,14.73,3.1,20.52,4.74,16.09,4.54,32.15,6.98,48.61,6.31,17.8-.73,37.48-4.3,55.75-1.53,10.88,1.65,21.89,5.4,32.33,7.45,10.51,2.06,22.2,3.56,33.09-.04,2.79-.92,5.5-2.18,8.47-2.35.11,0,.22,0,.32,0,2.25-.8,4.47-1.63,6.66-2.5.98-.39,2.38-.93,3.9-1.59-1.67-1.32-3.51-2.44-4.88-3.31-5.03-3.19-17.26-2.42-22.18-7.56Z" fill="#d8c2b3" stroke-width="0"/>
    <path d="m54.3,77.22c32.57,12.84,66.62,20.68,101.15,20.98,21.41.19,43.29-2.55,64.45-7.25,8.02-1.78,16.02-4.19,23.62-6.89-.11,0-.22,0-.32,0-2.97.17-5.68,1.42-8.47,2.35-10.89,3.6-22.58,2.11-33.09.04-10.44-2.05-21.45-5.8-32.33-7.45-18.27-2.77-37.95.8-55.75,1.53-16.46.67-32.52-1.77-48.61-6.31-5.8-1.64-13.55-4.42-20.52-4.74.99,3.99,6.57,6.43,9.88,7.73Z" fill="#ebd7ca" stroke-width="0"/>
    <g>
      <path d="m163.16,35.88c0,.39-.71.77-1.59.84-.88.08-1.59-.18-1.59-.57s.71-.77,1.59-.84c.88-.08,1.59.18,1.59.57Z" fill="#7f7d36" stroke-width="0"/>
      <path d="m172.31,37.35c0,.83-1.51,1.61-3.38,1.76-1.86.15-3.38-.4-3.38-1.23s1.51-1.63,3.38-1.77c1.86-.15,3.38.41,3.38,1.24Z" fill="#7f7d36" stroke-width="0"/>
      <path d="m163.96,39.52c0,.58-1.07,1.15-2.38,1.26-1.32.11-2.38-.27-2.38-.85s1.07-1.15,2.38-1.27,2.38.27,2.38.86Z" fill="#7f7d36" stroke-width="0"/>
    </g>
    <g>
      <path d="m152.19,43.43c0,.39-.71.77-1.59.85s-1.59-.17-1.59-.56.71-.77,1.59-.85,1.59.17,1.59.56Z" fill="#7f7d36" stroke-width="0"/>
      <path d="m155.76,40.28c0,.83-1.51,1.64-3.38,1.81-1.86.17-3.38-.36-3.38-1.19s1.51-1.64,3.38-1.81c1.86-.17,3.38.37,3.38,1.19Z" fill="#7f7d36" stroke-width="0"/>
      <path d="m147.41,42.54c0,.58-1.07,1.16-2.38,1.28s-2.38-.25-2.38-.84,1.07-1.16,2.38-1.28,2.38.25,2.38.84Z" fill="#7f7d36" stroke-width="0"/>
    </g>
    <g>
      <path d="m119.87,48.18c0,.39-.71.77-1.59.84s-1.59-.19-1.59-.57.71-.76,1.59-.84,1.59.18,1.59.57Z" fill="#7f7d36" stroke-width="0"/>
      <path d="m123.45,45.05c0,.83-1.51,1.63-3.38,1.79-1.86.16-3.38-.39-3.38-1.22s1.51-1.62,3.38-1.78,3.38.38,3.38,1.21Z" fill="#7f7d36" stroke-width="0"/>
      <path d="m129.26,46.04c0,.58-1.07,1.15-2.38,1.27-1.32.12-2.38-.26-2.38-.85s1.07-1.15,2.38-1.27,2.38.26,2.38.84Z" fill="#7f7d36" stroke-width="0"/>
    </g>
    <g>
      <path d="m107.2,54.56c0,.39-.71.76-1.59.82-.88.06-1.59-.21-1.59-.6s.71-.75,1.59-.81c.88-.06,1.59.21,1.59.59Z" fill="#7f7d36" stroke-width="0"/>
      <path d="m109.69,54.73c0,.19-.36.38-.79.41-.44.03-.79-.1-.79-.3s.36-.38.79-.41c.44-.03.79.1.79.29Z" fill="#7f7d36" stroke-width="0"/>
      <path d="m106.66,51.42c0,.83-1.51,1.61-3.38,1.73-1.86.12-3.38-.46-3.38-1.29s1.51-1.59,3.38-1.71c1.86-.12,3.38.44,3.38,1.27Z" fill="#7f7d36" stroke-width="0"/>
      <path d="m112.47,52.49c0,.58-1.07,1.14-2.38,1.24s-2.38-.3-2.38-.88,1.07-1.13,2.38-1.23c1.32-.1,2.38.29,2.38.88Z" fill="#7f7d36" stroke-width="0"/>
    </g>
    <g>
      <path d="m234.58,61.24c0-3.34,2.7-5.86,6.04-5.55,3.34.31,6.04,3.33,6.04,6.67s-2.7,5.72-6.04,5.41c-3.34-.31-6.04-3.2-6.04-6.53Z" fill="#f2f2f2" stroke-width="0"/>
      <path d="m236.54,61.38c0-2.26,1.83-3.95,4.09-3.74,2.26.21,4.09,2.24,4.09,4.5s-1.83,3.88-4.09,3.67c-2.26-.21-4.09-2.18-4.09-4.43Z" stroke-width="0"/>
      <path d="m240.9,60.46c0-.64.52-1.11,1.16-1.05.64.06,1.16.64,1.16,1.28s-.52,1.11-1.16,1.05c-.64-.06-1.16-.63-1.16-1.27Z" fill="#f2f2f2" stroke-width="0"/>
    </g>
    <path d="m224.56,50.83c-3.49,3.17-6.5,7.1-7.83,11.69-1.33,4.6-.76,9.92,2.26,13.71,3.02,3.8,8.69,5.63,12.92,3.61" fill="none" stroke="#f2f2f2" stroke-linecap="round" stroke-linejoin="round" stroke-width="1.89"/>
    <path d="m214.55,52.55c-1.63,3.45-3.28,6.96-4.09,10.7-.8,3.75-.7,7.81,1.06,11.21" fill="none" stroke="#f2f2f2" stroke-linecap="round" stroke-linejoin="round" stroke-width="1.89"/>
    <path d="m206.48,84.5c-2.01.67-4.08,1.36-6.7,1.98-2.63.62-5.96,1.17-8.75,1.29-2.71.11-4.41-.2-5.94-.5-3.88-.77-7.75-1.49-11.63-2.19-2.53-.46-5.15-.97-4.52-2.07.7-1.21,5.12-2.76,9.25-4.11,5.54-1.81,11.08-3.55,16.62-5.2,4.67,4.26,7,6.42,11.67,10.8Z" fill="#bc8c77" stroke-width="0"/>
  </g>
</svg>