<?xml version="1.0" encoding="UTF-8"?>
<svg id="Layer_2" data-name="Layer 2" xmlns="http://www.w3.org/2000/svg" viewBox="0 0 346 469">
  <g id="Ruler_and_Lines_-_INSIDE" data-name="Ruler and Lines - INSIDE">
    <g id="cm_Ruler" data-name="cm Ruler">
      <rect width="346" height="469" fill="none"/>
      <g>
        <path d="m255.93224,53.75v282.15033c0,2.20557,1.79443,4,4,4h36c2.20557,0,4-1.79443,4-4V53.75h-44Z" fill="#ffeb5a" opacity=".65"/>
        <path d="m254.93199,52.75v283.15021c0,2.75696,2.24304,5,5,5h36c2.75702,0,5-2.24304,5-5V52.75h-46Zm44,283.15021c0,1.6568-1.34314,3-3,3h-36c-1.6568,0-3-1.3432-3-3V54.75h42v281.15021Z" fill="#7f6d00"/>
      </g>
      <g id="ticks_half_numbers" data-name="ticks half numbers">
        <g id="_0" data-name="0">
          <rect x="256.93224" y="325.28656" width="8" height="1"/>
        </g>
        <g id="_1" data-name="1">
          <rect x="256.93224" y="313.05902" width="8" height="1"/>
        </g>
        <g id="_2" data-name="2">
          <rect x="256.93224" y="300.83148" width="8" height="1"/>
        </g>
        <g id="_3" data-name="3">
          <rect x="256.93224" y="288.60443" width="8" height="1"/>
        </g>
        <g id="_4" data-name="4">
          <rect x="256.93224" y="276.37689" width="8" height="1"/>
        </g>
        <g id="_5" data-name="5">
          <rect x="256.93224" y="264.14935" width="8" height="1"/>
        </g>
        <g id="_6" data-name="6">
          <rect x="256.93224" y="251.92181" width="8" height="1"/>
        </g>
        <g id="_7" data-name="7">
          <rect x="256.93224" y="239.69476" width="8" height="1"/>
        </g>
        <g id="_8" data-name="8">
          <rect x="256.93224" y="227.46722" width="8" height="1"/>
        </g>
        <g id="_9" data-name="9">
          <rect x="256.93224" y="215.23969" width="8" height="1"/>
        </g>
        <g id="_10" data-name="10">
          <rect x="256.93224" y="203.01263" width="8" height="1"/>
        </g>
        <g id="_11" data-name="11">
          <rect x="256.93224" y="190.7851" width="8" height="1"/>
        </g>
        <g id="_12" data-name="12">
          <rect x="256.93224" y="178.55756" width="8" height="1"/>
        </g>
        <g id="_13" data-name="13">
          <rect x="256.93224" y="166.33002" width="8" height="1"/>
        </g>
        <g id="_14" data-name="14">
          <rect x="256.93224" y="154.10297" width="8" height="1"/>
        </g>
        <g id="_15" data-name="15">
          <rect x="256.93224" y="141.87543" width="8" height="1"/>
        </g>
        <g id="_16" data-name="16">
          <rect x="256.93224" y="129.64789" width="8" height="1"/>
        </g>
        <g id="_17" data-name="17">
          <rect x="256.93224" y="117.42035" width="8" height="1"/>
        </g>
        <g id="_18" data-name="18">
          <rect x="256.93224" y="105.1933" width="8" height="1"/>
        </g>
        <g id="_19" data-name="19">
          <rect x="256.93224" y="92.96576" width="8" height="1"/>
        </g>
        <g id="_20" data-name="20">
          <rect x="256.93224" y="80.73822" width="8" height="1"/>
        </g>
        <g id="_21" data-name="21">
          <rect x="256.93224" y="68.51117" width="8" height="1"/>
        </g>
        <g id="_22" data-name="22">
          <rect x="256.93224" y="56.28363" width="8" height="1"/>
        </g>
      </g>
      <g id="ticks_whole_numbers" data-name="ticks whole numbers">
        <g id="_0-2" data-name="0">
          <rect x="256.93224" y="331.40033" width="13" height="1"/>
        </g>
        <g id="_1-2" data-name="1">
          <rect x="256.93224" y="319.17279" width="13" height="1"/>
        </g>
        <g id="_2-2" data-name="2">
          <rect x="256.93224" y="306.94525" width="13" height="1"/>
        </g>
        <g id="_3-2" data-name="3">
          <rect x="256.93224" y="294.7182" width="13" height="1"/>
        </g>
        <g id="_4-2" data-name="4">
          <rect x="256.93224" y="282.49066" width="13" height="1"/>
        </g>
        <g id="_5-2" data-name="5">
          <rect x="256.93224" y="270.26312" width="13" height="1"/>
        </g>
        <g id="_6-2" data-name="6">
          <rect x="256.93224" y="258.03558" width="13" height="1"/>
        </g>
        <g id="_7-2" data-name="7">
          <rect x="256.93224" y="245.80853" width="13" height="1"/>
        </g>
        <g id="_8-2" data-name="8">
          <rect x="256.93224" y="233.58099" width="13" height="1"/>
        </g>
        <g id="_9-2" data-name="9">
          <rect x="256.93224" y="221.35345" width="13" height="1"/>
        </g>
        <g id="_10-2" data-name="10">
          <rect x="256.93224" y="209.12592" width="13" height="1"/>
        </g>
        <g id="_11-2" data-name="11">
          <rect x="256.93224" y="196.89838" width="13" height="1"/>
        </g>
        <g id="_12-2" data-name="12">
          <rect x="256.93224" y="184.67133" width="13" height="1"/>
        </g>
        <g id="_13-2" data-name="13">
          <rect x="256.93224" y="172.44379" width="13" height="1"/>
        </g>
        <g id="_14-2" data-name="14">
          <rect x="256.93224" y="160.21625" width="13" height="1"/>
        </g>
        <g id="_15-2" data-name="15">
          <rect x="256.93224" y="147.9892" width="13" height="1"/>
        </g>
        <g id="_16-2" data-name="16">
          <rect x="256.93224" y="135.76166" width="13" height="1"/>
        </g>
        <g id="_17-2" data-name="17">
          <rect x="256.93224" y="123.53412" width="13" height="1"/>
        </g>
        <g id="_18-2" data-name="18">
          <rect x="256.93224" y="111.30658" width="13" height="1"/>
        </g>
        <g id="_19-2" data-name="19">
          <rect x="256.93224" y="99.07953" width="13" height="1"/>
        </g>
        <g id="_20-2" data-name="20">
          <rect x="256.93224" y="86.85199" width="13" height="1"/>
        </g>
        <g id="_21-2" data-name="21">
          <rect x="256.93224" y="74.62445" width="13" height="1"/>
        </g>
        <g id="_22-2" data-name="22">
          <rect x="256.93224" y="62.39691" width="13" height="1"/>
        </g>
      </g>
      <g id="cm_labels" data-name="cm labels">
        <g>
          <path d="m295.01916,333.58539c0,.35938-.07324.67188-.21973.93848-.14746.26562-.35645.4707-.62695.61523-.27051.14551-.58789.21777-.95215.21777-.27539,0-.52148-.04102-.73828-.12305-.2168-.08105-.40137-.19922-.55273-.35352s-.26855-.34082-.35059-.55957c-.08105-.21973-.12207-.46484-.12207-.73535,0-.1543.02051-.32031.0625-.5s.1123-.34961.20996-.50781c.04688-.07422.10352-.12402.16895-.14746.06445-.02246.13184-.02734.19922-.01367s.12598.04297.1748.08789c.04883.04395.0791.09863.09082.16406s-.00293.1377-.04492.2168c-.06055.10254-.10645.20801-.13672.31543s-.0459.20996-.0459.30762c0,.1543.02441.29004.07324.40625.0498.11719.11914.21582.21094.29785.09082.08105.2041.14355.33887.18555.13574.04199.29199.0625.46875.0625.3457,0,.61719-.08301.81543-.24805.19922-.16602.29785-.40039.29785-.7041,0-.09766-.01367-.19922-.04199-.30469-.02832-.10449-.07227-.21094-.13281-.31836-.04199-.0791-.05566-.15039-.04199-.21289.01367-.06348.0459-.11621.09473-.1582s.10742-.06738.1748-.07617c.06738-.00977.13379-.00195.19922.02441.06543.02539.11914.07324.16113.14355.09375.15332.16113.31738.20312.48926.04199.17285.0625.33594.0625.49023Z"/>
          <path d="m295.00549,331.41547c0,.14062-.03809.24805-.11523.32227-.07715.0752-.1875.1123-.33301.1123h-2.64551c-.14453,0-.25488-.03711-.3291-.1123-.07422-.07422-.1123-.17969-.1123-.31543,0-.13477.03809-.24023.1123-.31445s.18457-.1123.3291-.1123h.51074l-.20996.07715c-.2334-.09277-.41797-.23828-.55273-.43359-.13574-.19629-.20312-.42969-.20312-.7002,0-.27539.06543-.50195.19629-.67871.12988-.17773.33105-.30176.60155-.37109v.09766c-.24706-.09375-.44237-.24707-.58398-.46191-.14258-.21484-.21387-.46191-.21387-.74219,0-.26074.05176-.47656.1543-.64746.10254-.16992.25781-.29785.46484-.38184.20801-.08398.4707-.12598.78809-.12598h1.69336c.14551,0,.25586.03906.33301.11621s.11523.18555.11523.3252-.03809.24707-.11523.32227c-.07715.07422-.1875.11133-.33301.11133h-1.6582c-.26172,0-.45312.04395-.57422.12988-.12109.08691-.18262.23242-.18262.4375,0,.22852.08105.4082.24219.53906s.38379.19629.66797.19629h1.50488c.14551,0,.25586.03711.33301.11133.07715.0752.11523.18262.11523.32227s-.03809.24902-.11523.3252c-.07715.07715-.1875.11621-.33301.11621h-1.6582c-.26172,0-.45312.04297-.57422.12891-.12109.08691-.18262.23047-.18262.43066,0,.22852.08105.4082.24219.53906s.38379.19629.66797.19629h1.50488c.29883,0,.44824.14648.44824.44043Z"/>
        </g>
        <path d="m279.01916,331.90082c0,.58301-.21973,1.02832-.66113,1.33691-.44141.30762-1.06934.46191-1.88672.46191-.55078,0-1.01367-.06934-1.38965-.20703-.375-.1377-.6582-.33984-.84961-.6084s-.28711-.59668-.28711-.9834c0-.58887.21387-1.03516.64355-1.34082s1.05469-.45898,1.87598-.45898c.5459,0,1.00977.06934,1.38965.20703s.66992.33984.86816.60547.29688.59473.29688.9873Zm-.73438,0c0-.31738-.14746-.55176-.44141-.7041-.29395-.15137-.75293-.22754-1.37891-.22754-.625,0-1.0791.07617-1.36133.22754-.28223.15234-.42383.38672-.42383.7041,0,.3125.1416.5459.42383.69922.28223.1543.73633.23145,1.36133.23145.62598,0,1.08496-.07715,1.37891-.23145.29395-.15332.44141-.38672.44141-.69922Z"/>
        <path d="m278.94982,320.68011c0,.12109-.03418.21582-.10156.2832s-.16016.10156-.27637.10156c-.12207,0-.21289-.03418-.27344-.10156s-.09082-.16211-.09082-.2832v-.78418h-3.4375v-.43359l.62305,1.02832c.05176.08887.07129.17188.05957.24902s-.04395.14258-.09766.19531c-.05371.05371-.11816.08984-.19238.10938-.0752.01855-.15039.0127-.22754-.01758s-.1416-.08984-.19238-.17871l-.58105-.96582c-.05664-.09375-.10352-.18652-.14355-.28027s-.05957-.17969-.05957-.25879c0-.09863.02734-.17969.08008-.24512.05371-.06543.1416-.09863.2627-.09863h3.90625v-.71387c0-.12109.03027-.21582.09082-.2832s.15137-.10156.27344-.10156c.12109,0,.21484.03418.2793.10156.06543.06738.09863.16211.09863.2832v2.39453Z"/>
        <path d="m278.94982,308.61469c0,.14941-.03418.25781-.10156.3252s-.16699.10156-.29785.10156c-.0791,0-.15625-.02148-.23047-.06348-.0752-.04199-.1543-.10254-.23828-.18164l-1.49805-1.40723c-.22363-.21387-.42773-.36816-.6123-.46191-.18457-.09277-.37012-.13965-.55664-.13965-.2334,0-.41113.07324-.53223.2207-.12109.14648-.18164.36035-.18164.63965,0,.15918.02246.31738.06641.47656.04395.1582.12012.31934.22754.48242.05566.08496.0791.16309.07031.23535-.00977.07227-.04004.13477-.0918.18848-.05078.05371-.11426.08984-.18848.1084-.0752.01855-.15039.01562-.22754-.00977-.07715-.02637-.14355-.08105-.19922-.16504-.13574-.2002-.23828-.42578-.30859-.67578-.07031-.24902-.10449-.5-.10449-.75195,0-.35449.05371-.65332.16016-.89648.10742-.24219.26465-.42676.46973-.55273s.45508-.18945.74902-.18945c.19531,0,.38672.03223.57422.09473.18652.06348.375.15918.56641.28711.19141.12891.39453.29492.60938.50098l1.37207,1.31543h-.23828v-2.05762c0-.12598.03027-.22168.09082-.28711s.15137-.09766.27344-.09766c.12109,0,.21484.03223.2793.09766.06543.06543.09863.16113.09863.28711v2.57617Z"/>
        <path d="m279.01916,295.31488c0,.25195-.03223.51367-.09766.78418s-.16309.50586-.29395.70703c-.06055.09277-.13086.15625-.20996.18848-.0791.0332-.15527.04102-.22754.02441-.07227-.01562-.13379-.05078-.18556-.10449-.05077-.05371-.08105-.12109-.09081-.20312s.01172-.17188.0625-.26953c.10352-.19141.17676-.37598.2207-.55273.04492-.17773.06641-.35938.06641-.5459,0-.20605-.02734-.37793-.08398-.51855-.05566-.13965-.13965-.24609-.25195-.31836-.11133-.07227-.24707-.1084-.40625-.1084-.23242,0-.40625.07812-.52148.23438-.11426.15625-.1709.38379-.1709.68262v.44824c0,.13086-.0332.22949-.09863.29688-.06445.06836-.15625.10156-.27246.10156s-.20801-.0332-.27344-.10156c-.06445-.06738-.09766-.16602-.09766-.29688v-.36426c0-.17773-.0293-.3291-.08789-.45508-.05762-.12598-.14062-.22363-.24805-.29395s-.23828-.10547-.3916-.10547c-.21484,0-.37891.07129-.49023.21387-.1123.14258-.16797.34863-.16797.61914,0,.17285.01953.33496.05957.4873.03906.15137.11328.31836.21973.5.05176.08398.07324.16504.06348.24121-.00977.07715-.04004.1416-.09082.19336-.05176.05078-.11328.08594-.18555.10449s-.14746.01367-.22461-.01367c-.07617-.02832-.14258-.08691-.19922-.1748-.13086-.20117-.22949-.42285-.29688-.66504-.06836-.24316-.10156-.49316-.10156-.74902,0-.34082.05176-.63281.15723-.875.10449-.24316.25391-.42871.44824-.55664.19336-.12891.42773-.19238.70312-.19238.19629,0,.375.03711.53516.11133.16113.0752.29785.17969.41016.31543.11133.13574.19141.29883.2373.49023h-.08398c.05664-.33594.19531-.59766.41699-.78418s.49805-.28027.8291-.28027c.29004,0,.54199.07227.75586.2168.21484.14453.37988.35059.49414.61621s.1709.58398.1709.95215Z"/>
        <path d="m279.00549,282.19769c0,.13965-.03809.24902-.11523.3291-.07715.0791-.1875.11816-.33301.11816h-.5459v1.72949c0,.14453-.03027.25977-.09082.34668-.06055.08594-.15625.12891-.28711.12891-.07422,0-.15625-.01953-.24512-.05957-.08789-.03906-.20508-.11035-.34961-.21289l-2.7793-1.91797c-.09766-.06543-.17285-.1377-.22363-.21777-.05176-.0791-.07715-.16992-.07715-.27246,0-.12109.03613-.22168.1084-.30078s.18555-.11914.33984-.11914h2.8623v-.34277c0-.13574.03223-.2373.09473-.30469.06348-.06738.15527-.10156.27637-.10156.12207,0,.21387.03418.27637.10156.06348.06738.09473.16895.09473.30469v.34277h.5459c.14551,0,.25586.04004.33301.11914s.11523.18848.11523.3291Zm-1.73633.44727h-2.18359v-.20312l2.42188,1.65234h-.23828v-1.44922Z"/>
        <path d="m279.01916,270.72015c0,.24707-.03223.49902-.09766.75586s-.16504.49219-.30078.70703c-.05566.08887-.12305.14746-.19922.17773-.07715.03125-.1543.03809-.23145.02148s-.14258-.05176-.19629-.10547c-.05371-.05273-.08496-.11816-.09375-.19531-.00977-.07715.01172-.16211.0625-.25586.09766-.17285.17285-.34766.22363-.52441.05176-.17773.07715-.36719.07715-.56738,0-.19629-.03516-.36426-.10449-.50391-.07031-.14062-.16797-.24707-.29395-.32227-.12598-.07422-.27344-.1123-.44141-.1123-.26074,0-.47266.08008-.63379.23828-.16017.15918-.24121.37598-.24121.65137,0,.14941.02441.29395.07324.43359.0498.14062.13477.27832.25586.41309.03711.04199.07324.0957.1084.16113s.05273.13574.05273.20996c0,.11621-.03027.20508-.09082.26562-.06055.06152-.14453.0918-.25195.0918h-2.28906c-.12598,0-.22266-.03418-.29102-.10156-.06738-.06836-.10156-.16504-.10156-.29102v-2.30273c0-.12598.03223-.22266.09473-.29102.06348-.06738.15527-.10156.27637-.10156.11719,0,.20801.03418.27344.10156.06543.06836.09766.16504.09766.29102v1.82031h1.56836v.23047c-.16309-.12109-.28906-.28223-.37793-.48242-.08887-.20117-.13379-.4209-.13379-.6582,0-.3125.06738-.58496.2002-.81543.13281-.23145.31738-.41113.55273-.53906.23535-.12891.50977-.19238.82227-.19238.32227,0,.60547.07227.85059.2168s.43652.35059.57422.61914.20605.58691.20605.95605Z"/>
        <path d="m279.01916,258.35297c0,.40625-.09668.75293-.29004,1.04004s-.47266.50488-.83691.6543c-.36328.14941-.80469.22363-1.32227.22363-.41992,0-.79199-.04785-1.11719-.14355-.32422-.0957-.59863-.23438-.82227-.41602-.22363-.18262-.39453-.40527-.51074-.66895-.11719-.26367-.1748-.56055-.1748-.89258,0-.20508.03125-.41406.09375-.62598.06348-.21289.1582-.41211.28418-.59863.04688-.07422.10742-.12402.18163-.14746.0752-.02246.14845-.02637.22071-.00977.07227.01562.13574.04883.18848.09766.05371.04883.08691.11133.09863.18555s-.00879.15625-.05957.24512c-.09375.1582-.15918.30762-.19629.44824-.03711.13965-.05566.2793-.05566.41992,0,.27051.0625.49902.18848.68555s.31543.32812.56738.42383.56738.14355.94531.14355h.52441v.08398c-.23828-.03711-.44238-.11523-.6123-.23438s-.30078-.27246-.3916-.45898c-.0918-.18652-.13672-.39453-.13672-.62305,0-.28418.06738-.53613.20312-.75586.13477-.21973.32129-.3916.55957-.51758s.51074-.18945.81934-.18945c.31738,0,.60059.06934.85059.20703.24902.1377.44531.32812.58789.57324s.21289.5293.21289.85059Zm-.71387.04883c0-.16797-.03711-.31543-.11133-.44434-.0752-.12793-.18164-.22754-.31934-.29688-.13672-.07031-.29492-.10547-.47168-.10547-.18262,0-.34082.03516-.47656.10547-.13477.06934-.24121.16895-.31836.29688-.07715.12891-.11523.27637-.11523.44434s.03809.31543.11523.44141.18359.22559.31836.29785c.13574.07227.29395.1084.47656.1084.17676,0,.33496-.03613.47168-.1084.1377-.07227.24414-.17188.31934-.29785.07422-.12598.11133-.27344.11133-.44141Z"/>
        <path d="m279.00549,247.20355c0,.10742-.02539.19629-.07715.26562-.05078.07031-.12012.1123-.20605.12695-.08691.01367-.18359-.00781-.29102-.06348l-3.97559-2.11426h.30762v2.26855c0,.12598-.03223.22266-.09766.29004s-.15625.10156-.27344.10156c-.12109,0-.21387-.03418-.2793-.10156s-.09863-.16406-.09863-.29004v-2.70898c0-.12598.0332-.22852.09863-.30859.06543-.0791.1582-.11914.2793-.11914.10352,0,.19336.01465.26953.04199.07715.02832.16016.06543.24902.1123l3.80078,1.98828c.10254.05078.17773.11816.22363.19922.04688.08203.07031.18555.07031.31152Z"/>
        <path d="m279.01916,234.08051c0,.38184-.05469.70996-.16406.9834-.10938.27246-.26953.48242-.47949.62988-.20996.14648-.46191.2207-.75586.2207-.2334,0-.44043-.04785-.62012-.14355-.17871-.0957-.3252-.22754-.4375-.39551-.11133-.16797-.18164-.35938-.20996-.57422h.14746c-.06543.29883-.20898.53809-.43066.71777s-.48633.26953-.79395.26953c-.28027,0-.51953-.07031-.71777-.20996-.19824-.14062-.35059-.33887-.45508-.5957-.10547-.25586-.15723-.55762-.15723-.90234,0-.35059.05176-.65332.15723-.91016.10449-.25684.25684-.45508.45508-.5957.19824-.13965.4375-.20996.71777-.20996.20508,0,.39355.04102.56641.12305s.31543.19629.42676.34277c.1123.14746.1875.31836.22461.51465h-.14062c.04688-.32617.18359-.5918.41016-.79492.22656-.20215.51172-.30371.85742-.30371.29395,0,.5459.07324.75586.21973.20996.14746.37012.35742.47949.62988.10938.27344.16406.60156.16406.98438Zm-2.91895,0c0-.18652-.02832-.3457-.08691-.47656s-.14355-.23047-.25586-.30078-.24219-.10547-.3916-.10547c-.22461,0-.40039.0791-.52832.23535-.12891.15625-.19336.37207-.19336.64746s.06445.48926.19336.64355c.12793.1543.30371.23145.52832.23145.22852,0,.4082-.07715.53906-.23145s.19531-.36816.19531-.64355Zm2.21973,0c0-.33203-.06445-.58105-.19238-.74902-.12891-.16797-.31934-.25195-.57129-.25195s-.44043.08398-.56641.25195-.18945.41699-.18945.74902c0,.32617.06348.5752.18945.74512s.31445.25586.56641.25586.44238-.08594.57129-.25586c.12793-.16992.19238-.41895.19238-.74512Z"/>
        <path d="m279.01916,222.23773c0,.2002-.03125.4082-.09375.62305-.06348.21484-.1582.41504-.28418.60156-.0459.0752-.10742.12402-.18164.14746s-.14844.02637-.2207.01074c-.07227-.0166-.13477-.0498-.18848-.09863s-.08691-.11035-.09863-.18555c-.01172-.07422.00879-.15625.05957-.24512.09375-.1582.15918-.30762.19629-.44727.03711-.14062.05566-.28027.05566-.41992,0-.27148-.0625-.5-.18848-.68652s-.31641-.32812-.57032-.42383c-.25487-.0957-.56835-.14355-.94237-.14355h-.52441v-.08398c.2334.0332.43652.11035.6084.23145.17285.12109.30469.27539.39551.46191.0918.18652.13672.39453.13672.62305,0,.28027-.06738.53125-.20312.75293-.13477.22168-.32227.39551-.56348.52148-.24023.12598-.51172.18848-.81543.18848-.32129,0-.60645-.06836-.85352-.20605s-.44238-.33008-.58496-.57812c-.1416-.24707-.21289-.5293-.21289-.84668,0-.41016.0957-.75879.28711-1.04297s.46973-.50195.83594-.65137.80859-.22363,1.32617-.22363c.4209,0,.79297.04785,1.11719.14355s.59863.23438.82227.41602c.22363.18262.39453.40527.51074.66895.11719.26367.1748.56152.1748.89258Zm-2.55469-.25879c0-.16797-.03809-.31641-.11523-.44531-.07715-.12793-.18457-.22754-.32227-.29688-.1377-.07031-.29492-.10547-.47266-.10547-.18164,0-.33984.03516-.47559.10547-.13574.06934-.24023.16895-.31543.29688-.07422.12891-.11133.27734-.11133.44531s.03711.31445.11133.44043c.0752.12598.17969.22559.31543.29785s.29395.1084.47559.1084c.17773,0,.33496-.03613.47266-.1084s.24512-.17188.32227-.29785.11523-.27246.11523-.44043Z"/>
        <g>
          <path d="m278.94982,212.7348c0,.12109-.03418.21582-.10156.2832s-.16016.10156-.27637.10156c-.12207,0-.21289-.03418-.27344-.10156s-.09082-.16211-.09082-.2832v-.78418h-3.4375v-.43359l.62305,1.02832c.05176.08887.07129.17188.05957.24902s-.04395.14258-.09766.19531c-.05371.05371-.11816.08984-.19238.10938-.0752.01855-.15039.0127-.22754-.01758s-.1416-.08984-.19238-.17871l-.58105-.96582c-.05664-.09375-.10352-.18652-.14355-.28027s-.05957-.17969-.05957-.25879c0-.09863.02734-.17969.08008-.24512.05371-.06543.1416-.09863.2627-.09863h3.90625v-.71387c0-.12109.03027-.21582.09082-.2832s.15137-.10156.27344-.10156c.12109,0,.21484.03418.2793.10156.06543.06738.09863.16211.09863.2832v2.39453Z"/>
          <path d="m279.01916,207.52679c0,.58301-.21973,1.02832-.66113,1.33691-.44141.30762-1.06934.46191-1.88672.46191-.55078,0-1.01367-.06934-1.38965-.20703-.375-.1377-.6582-.33984-.84961-.6084s-.28711-.59668-.28711-.9834c0-.58887.21387-1.03516.64355-1.34082s1.05469-.45898,1.87598-.45898c.5459,0,1.00977.06934,1.38965.20703s.66992.33984.86816.60547.29688.59473.29688.9873Zm-.73438,0c0-.31738-.14746-.55176-.44141-.7041-.29395-.15137-.75293-.22754-1.37891-.22754-.625,0-1.0791.07617-1.36133.22754-.28223.15234-.42383.38672-.42383.7041,0,.3125.1416.5459.42383.69922.28223.1543.73633.23145,1.36133.23145.62598,0,1.08496-.07715,1.37891-.23145.29395-.15332.44141-.38672.44141-.69922Z"/>
        </g>
        <g>
          <path d="m278.94982,200.50726c0,.12109-.03418.21582-.10156.2832s-.16016.10156-.27637.10156c-.12207,0-.21289-.03418-.27344-.10156s-.09082-.16211-.09082-.2832v-.78418h-3.4375v-.43359l.62305,1.02832c.05176.08887.07129.17188.05957.24902s-.04395.14258-.09766.19531c-.05371.05371-.11816.08984-.19238.10938-.0752.01855-.15039.0127-.22754-.01758s-.1416-.08984-.19238-.17871l-.58105-.96582c-.05664-.09375-.10352-.18652-.14355-.28027s-.05957-.17969-.05957-.25879c0-.09863.02734-.17969.08008-.24512.05371-.06543.1416-.09863.2627-.09863h3.90625v-.71387c0-.12109.03027-.21582.09082-.2832s.15137-.10156.27344-.10156c.12109,0,.21484.03418.2793.10156.06543.06738.09863.16211.09863.2832v2.39453Z"/>
          <path d="m278.94982,196.30707c0,.12109-.03418.21582-.10156.2832s-.16016.10156-.27637.10156c-.12207,0-.21289-.03418-.27344-.10156s-.09082-.16211-.09082-.2832v-.78418h-3.4375v-.43359l.62305,1.02832c.05176.08887.07129.17188.05957.24902s-.04395.14258-.09766.19531c-.05371.05371-.11816.08984-.19238.10938-.0752.01855-.15039.0127-.22754-.01758s-.1416-.08984-.19238-.17871l-.58105-.96582c-.05664-.09375-.10352-.18652-.14355-.28027s-.05957-.17969-.05957-.25879c0-.09863.02734-.17969.08008-.24512.05371-.06543.1416-.09863.2627-.09863h3.90625v-.71387c0-.12109.03027-.21582.09082-.2832s.15137-.10156.27344-.10156c.12109,0,.21484.03418.2793.10156.06543.06738.09863.16211.09863.2832v2.39453Z"/>
        </g>
        <g>
          <path d="m278.94982,188.27972c0,.12109-.03418.21582-.10156.2832s-.16016.10156-.27637.10156c-.12207,0-.21289-.03418-.27344-.10156s-.09082-.16211-.09082-.2832v-.78418h-3.4375v-.43359l.62305,1.02832c.05176.08887.07129.17188.05957.24902s-.04395.14258-.09766.19531c-.05371.05371-.11816.08984-.19238.10938-.0752.01855-.15039.0127-.22754-.01758s-.1416-.08984-.19238-.17871l-.58105-.96582c-.05664-.09375-.10352-.18652-.14355-.28027s-.05957-.17969-.05957-.25879c0-.09863.02734-.17969.08008-.24512.05371-.06543.1416-.09863.2627-.09863h3.90625v-.71387c0-.12109.03027-.21582.09082-.2832s.15137-.10156.27344-.10156c.12109,0,.21484.03418.2793.10156.06543.06738.09863.16211.09863.2832v2.39453Z"/>
          <path d="m278.94982,184.24066c0,.14941-.03418.25781-.10156.3252s-.16699.10156-.29785.10156c-.0791,0-.15625-.02148-.23047-.06348-.0752-.04199-.1543-.10254-.23828-.18164l-1.49805-1.40723c-.22363-.21387-.42773-.36816-.6123-.46191-.18457-.09277-.37012-.13965-.55664-.13965-.2334,0-.41113.07324-.53223.2207-.12109.14648-.18164.36035-.18164.63965,0,.15918.02246.31738.06641.47656.04395.1582.12012.31934.22754.48242.05566.08496.0791.16309.07031.23535-.00977.07227-.04004.13477-.0918.18848-.05078.05371-.11426.08984-.18848.1084-.0752.01855-.15039.01562-.22754-.00977-.07715-.02637-.14355-.08105-.19922-.16504-.13574-.2002-.23828-.42578-.30859-.67578-.07031-.24902-.10449-.5-.10449-.75195,0-.35449.05371-.65332.16016-.89648.10742-.24219.26465-.42676.46973-.55273s.45508-.18945.74902-.18945c.19531,0,.38672.03223.57422.09473.18652.06348.375.15918.56641.28711.19141.12891.39453.29492.60938.50098l1.37207,1.31543h-.23828v-2.05762c0-.12598.03027-.22168.09082-.28711s.15137-.09766.27344-.09766c.12109,0,.21484.03223.2793.09766.06543.06543.09863.16113.09863.28711v2.57617Z"/>
        </g>
        <g>
          <path d="m278.94982,176.05219c0,.12109-.03418.21582-.10156.2832s-.16016.10156-.27637.10156c-.12207,0-.21289-.03418-.27344-.10156s-.09082-.16211-.09082-.2832v-.78418h-3.4375v-.43359l.62305,1.02832c.05176.08887.07129.17188.05957.24902s-.04395.14258-.09766.19531c-.05371.05371-.11816.08984-.19238.10938-.0752.01855-.15039.0127-.22754-.01758s-.1416-.08984-.19238-.17871l-.58105-.96582c-.05664-.09375-.10352-.18652-.14355-.28027s-.05957-.17969-.05957-.25879c0-.09863.02734-.17969.08008-.24512.05371-.06543.1416-.09863.2627-.09863h3.90625v-.71387c0-.12109.03027-.21582.09082-.2832s.15137-.10156.27344-.10156c.12109,0,.21484.03418.2793.10156.06543.06738.09863.16211.09863.2832v2.39453Z"/>
          <path d="m279.01916,170.94183c0,.25195-.03223.51367-.09766.78418s-.16309.50586-.29395.70703c-.06055.09277-.13086.15625-.20996.18848-.0791.0332-.15527.04102-.22754.02441-.07227-.01562-.13379-.05078-.18556-.10449-.05077-.05371-.08105-.12109-.09081-.20312s.01172-.17188.0625-.26953c.10352-.19141.17676-.37598.2207-.55273.04492-.17773.06641-.35938.06641-.5459,0-.20605-.02734-.37793-.08398-.51855-.05566-.13965-.13965-.24609-.25195-.31836-.11133-.07227-.24707-.1084-.40625-.1084-.23242,0-.40625.07812-.52148.23438-.11426.15625-.1709.38379-.1709.68262v.44824c0,.13086-.0332.22949-.09863.29688-.06445.06836-.15625.10156-.27246.10156s-.20801-.0332-.27344-.10156c-.06445-.06738-.09766-.16602-.09766-.29688v-.36426c0-.17773-.0293-.3291-.08789-.45508-.05762-.12598-.14062-.22363-.24805-.29395s-.23828-.10547-.3916-.10547c-.21484,0-.37891.07129-.49023.21387-.1123.14258-.16797.34863-.16797.61914,0,.17285.01953.33496.05957.4873.03906.15137.11328.31836.21973.5.05176.08398.07324.16504.06348.24121-.00977.07715-.04004.1416-.09082.19336-.05176.05078-.11328.08594-.18555.10449s-.14746.01367-.22461-.01367c-.07617-.02832-.14258-.08691-.19922-.1748-.13086-.20117-.22949-.42285-.29688-.66504-.06836-.24316-.10156-.49316-.10156-.74902,0-.34082.05176-.63281.15723-.875.10449-.24316.25391-.42871.44824-.55664.19336-.12891.42773-.19238.70312-.19238.19629,0,.375.03711.53516.11133.16113.0752.29785.17969.41016.31543.11133.13574.19141.29883.2373.49023h-.08398c.05664-.33594.19531-.59766.41699-.78418s.49805-.28027.8291-.28027c.29004,0,.54199.07227.75586.2168.21484.14453.37988.35059.49414.61621s.1709.58398.1709.95215Z"/>
        </g>
        <g>
          <path d="m278.94982,163.82465c0,.12109-.03418.21582-.10156.2832s-.16016.10156-.27637.10156c-.12207,0-.21289-.03418-.27344-.10156s-.09082-.16211-.09082-.2832v-.78418h-3.4375v-.43359l.62305,1.02832c.05176.08887.07129.17188.05957.24902s-.04395.14258-.09766.19531c-.05371.05371-.11816.08984-.19238.10938-.0752.01855-.15039.0127-.22754-.01758s-.1416-.08984-.19238-.17871l-.58105-.96582c-.05664-.09375-.10352-.18652-.14355-.28027s-.05957-.17969-.05957-.25879c0-.09863.02734-.17969.08008-.24512.05371-.06543.1416-.09863.2627-.09863h3.90625v-.71387c0-.12109.03027-.21582.09082-.2832s.15137-.10156.27344-.10156c.12109,0,.21484.03418.2793.10156.06543.06738.09863.16211.09863.2832v2.39453Z"/>
          <path d="m279.00549,157.82562c0,.13965-.03809.24902-.11523.3291-.07715.0791-.1875.11816-.33301.11816h-.5459v1.72949c0,.14453-.03027.25977-.09082.34668-.06055.08594-.15625.12891-.28711.12891-.07422,0-.15625-.01953-.24512-.05957-.08789-.03906-.20508-.11035-.34961-.21289l-2.7793-1.91797c-.09766-.06543-.17285-.1377-.22363-.21777-.05176-.0791-.07715-.16992-.07715-.27246,0-.12109.03613-.22168.1084-.30078s.18555-.11914.33984-.11914h2.8623v-.34277c0-.13574.03223-.2373.09473-.30469.06348-.06738.15527-.10156.27637-.10156.12207,0,.21387.03418.27637.10156.06348.06738.09473.16895.09473.30469v.34277h.5459c.14551,0,.25586.04004.33301.11914s.11523.18848.11523.3291Zm-1.73633.44727h-2.18359v-.20312l2.42188,1.65234h-.23828v-1.44922Z"/>
        </g>
        <g>
          <path d="m278.94982,151.59711c0,.12109-.03418.21582-.10156.2832s-.16016.10156-.27637.10156c-.12207,0-.21289-.03418-.27344-.10156s-.09082-.16211-.09082-.2832v-.78418h-3.4375v-.43359l.62305,1.02832c.05176.08887.07129.17188.05957.24902s-.04395.14258-.09766.19531c-.05371.05371-.11816.08984-.19238.10938-.0752.01855-.15039.0127-.22754-.01758s-.1416-.08984-.19238-.17871l-.58105-.96582c-.05664-.09375-.10352-.18652-.14355-.28027s-.05957-.17969-.05957-.25879c0-.09863.02734-.17969.08008-.24512.05371-.06543.1416-.09863.2627-.09863h3.90625v-.71387c0-.12109.03027-.21582.09082-.2832s.15137-.10156.27344-.10156c.12109,0,.21484.03418.2793.10156.06543.06738.09863.16211.09863.2832v2.39453Z"/>
          <path d="m279.01916,146.34711c0,.24707-.03223.49902-.09766.75586s-.16504.49219-.30078.70703c-.05566.08887-.12305.14746-.19922.17773-.07715.03125-.1543.03809-.23145.02148s-.14258-.05176-.19629-.10547c-.05371-.05273-.08496-.11816-.09375-.19531-.00977-.07715.01172-.16211.0625-.25586.09766-.17285.17285-.34766.22363-.52441.05176-.17773.07715-.36719.07715-.56738,0-.19629-.03516-.36426-.10449-.50391-.07031-.14062-.16797-.24707-.29395-.32227-.12598-.07422-.27344-.1123-.44141-.1123-.26074,0-.47266.08008-.63379.23828-.16017.15918-.24121.37598-.24121.65137,0,.14941.02441.29395.07324.43359.0498.14062.13477.27832.25586.41309.03711.04199.07324.0957.1084.16113s.05273.13574.05273.20996c0,.11621-.03027.20508-.09082.26562-.06055.06152-.14453.0918-.25195.0918h-2.28906c-.12598,0-.22266-.03418-.29102-.10156-.06738-.06836-.10156-.16504-.10156-.29102v-2.30273c0-.12598.03223-.22266.09473-.29102.06348-.06738.15527-.10156.27637-.10156.11719,0,.20801.03418.27344.10156.06543.06836.09766.16504.09766.29102v1.82031h1.56836v.23047c-.16309-.12109-.28906-.28223-.37793-.48242-.08887-.20117-.13379-.4209-.13379-.6582,0-.3125.06738-.58496.2002-.81543.13281-.23145.31738-.41113.55273-.53906.23535-.12891.50977-.19238.82227-.19238.32227,0,.60547.07227.85059.2168s.43652.35059.57422.61914.20605.58691.20605.95605Z"/>
        </g>
        <g>
          <path d="m278.94982,139.36957c0,.12109-.03418.21582-.10156.2832s-.16016.10156-.27637.10156c-.12207,0-.21289-.03418-.27344-.10156s-.09082-.16211-.09082-.2832v-.78418h-3.4375v-.43359l.62305,1.02832c.05176.08887.07129.17188.05957.24902s-.04395.14258-.09766.19531c-.05371.05371-.11816.08984-.19238.10938-.0752.01855-.15039.0127-.22754-.01758s-.1416-.08984-.19238-.17871l-.58105-.96582c-.05664-.09375-.10352-.18652-.14355-.28027s-.05957-.17969-.05957-.25879c0-.09863.02734-.17969.08008-.24512.05371-.06543.1416-.09863.2627-.09863h3.90625v-.71387c0-.12109.03027-.21582.09082-.2832s.15137-.10156.27344-.10156c.12109,0,.21484.03418.2793.10156.06543.06738.09863.16211.09863.2832v2.39453Z"/>
          <path d="m279.01916,133.97894c0,.40625-.09668.75293-.29004,1.04004s-.47266.50488-.83691.6543c-.36328.14941-.80469.22363-1.32227.22363-.41992,0-.79199-.04785-1.11719-.14355-.32422-.0957-.59863-.23438-.82227-.41602-.22363-.18262-.39453-.40527-.51074-.66895-.11719-.26367-.1748-.56055-.1748-.89258,0-.20508.03125-.41406.09375-.62598.06348-.21289.1582-.41211.28418-.59863.04688-.07422.10742-.12402.18163-.14746.0752-.02246.14845-.02637.22071-.00977.07227.01562.13574.04883.18848.09766.05371.04883.08691.11133.09863.18555s-.00879.15625-.05957.24512c-.09375.1582-.15918.30762-.19629.44824-.03711.13965-.05566.2793-.05566.41992,0,.27051.0625.49902.18848.68555s.31543.32812.56738.42383.56738.14355.94531.14355h.52441v.08398c-.23828-.03711-.44238-.11523-.6123-.23438s-.30078-.27246-.3916-.45898c-.0918-.18652-.13672-.39453-.13672-.62305,0-.28418.06738-.53613.20312-.75586.13477-.21973.32129-.3916.55957-.51758s.51074-.18945.81934-.18945c.31738,0,.60059.06934.85059.20703.24902.1377.44531.32812.58789.57324s.21289.5293.21289.85059Zm-.71387.04883c0-.16797-.03711-.31543-.11133-.44434-.0752-.12793-.18164-.22754-.31934-.29688-.13672-.07031-.29492-.10547-.47168-.10547-.18262,0-.34082.03516-.47656.10547-.13477.06934-.24121.16895-.31836.29688-.07715.12891-.11523.27637-.11523.44434s.03809.31543.11523.44141.18359.22559.31836.29785c.13574.07227.29395.1084.47656.1084.17676,0,.33496-.03613.47168-.1084.1377-.07227.24414-.17188.31934-.29785.07422-.12598.11133-.27344.11133-.44141Z"/>
        </g>
        <g>
          <path d="m278.94982,127.14203c0,.12109-.03418.21582-.10156.2832s-.16016.10156-.27637.10156c-.12207,0-.21289-.03418-.27344-.10156s-.09082-.16211-.09082-.2832v-.78418h-3.4375v-.43359l.62305,1.02832c.05176.08887.07129.17188.05957.24902s-.04395.14258-.09766.19531c-.05371.05371-.11816.08984-.19238.10938-.0752.01855-.15039.0127-.22754-.01758s-.1416-.08984-.19238-.17871l-.58105-.96582c-.05664-.09375-.10352-.18652-.14355-.28027s-.05957-.17969-.05957-.25879c0-.09863.02734-.17969.08008-.24512.05371-.06543.1416-.09863.2627-.09863h3.90625v-.71387c0-.12109.03027-.21582.09082-.2832s.15137-.10156.27344-.10156c.12109,0,.21484.03418.2793.10156.06543.06738.09863.16211.09863.2832v2.39453Z"/>
          <path d="m279.00549,122.82953c0,.10742-.02539.19629-.07715.26562-.05078.07031-.12012.1123-.20605.12695-.08691.01367-.18359-.00781-.29102-.06348l-3.97559-2.11426h.30762v2.26855c0,.12598-.03223.22266-.09766.29004s-.15625.10156-.27344.10156c-.12109,0-.21387-.03418-.2793-.10156s-.09863-.16406-.09863-.29004v-2.70898c0-.12598.0332-.22852.09863-.30859.06543-.0791.1582-.11914.2793-.11914.10352,0,.19336.01465.26953.04199.07715.02832.16016.06543.24902.1123l3.80078,1.98828c.10254.05078.17773.11816.22363.19922.04688.08203.07031.18555.07031.31152Z"/>
        </g>
        <g>
          <path d="m278.94982,114.91547c0,.12109-.03418.21582-.10156.2832s-.16016.10156-.27637.10156c-.12207,0-.21289-.03418-.27344-.10156s-.09082-.16211-.09082-.2832v-.78418h-3.4375v-.43359l.62305,1.02832c.05176.08887.07129.17188.05957.24902s-.04395.14258-.09766.19531c-.05371.05371-.11816.08984-.19238.10938-.0752.01855-.15039.0127-.22754-.01758s-.1416-.08984-.19238-.17871l-.58105-.96582c-.05664-.09375-.10352-.18652-.14355-.28027s-.05957-.17969-.05957-.25879c0-.09863.02734-.17969.08008-.24512.05371-.06543.1416-.09863.2627-.09863h3.90625v-.71387c0-.12109.03027-.21582.09082-.2832s.15137-.10156.27344-.10156c.12109,0,.21484.03418.2793.10156.06543.06738.09863.16211.09863.2832v2.39453Z"/>
          <path d="m279.01916,109.70746c0,.38184-.05469.70996-.16406.9834-.10938.27246-.26953.48242-.47949.62988-.20996.14648-.46191.2207-.75586.2207-.2334,0-.44043-.04785-.62012-.14355-.17871-.0957-.3252-.22754-.4375-.39551-.11133-.16797-.18164-.35938-.20996-.57422h.14746c-.06543.29883-.20898.53809-.43066.71777s-.48633.26953-.79395.26953c-.28027,0-.51953-.07031-.71777-.20996-.19824-.14062-.35059-.33887-.45508-.5957-.10547-.25586-.15723-.55762-.15723-.90234,0-.35059.05176-.65332.15723-.91016.10449-.25684.25684-.45508.45508-.5957.19824-.13965.4375-.20996.71777-.20996.20508,0,.39355.04102.56641.12305s.31543.19629.42676.34277c.1123.14746.1875.31836.22461.51465h-.14062c.04688-.32617.18359-.5918.41016-.79492.22656-.20215.51172-.30371.85742-.30371.29395,0,.5459.07324.75586.21973.20996.14746.37012.35742.47949.62988.10938.27344.16406.60156.16406.98438Zm-2.91895,0c0-.18652-.02832-.3457-.08691-.47656s-.14355-.23047-.25586-.30078-.24219-.10547-.3916-.10547c-.22461,0-.40039.0791-.52832.23535-.12891.15625-.19336.37207-.19336.64746s.06445.48926.19336.64355c.12793.1543.30371.23145.52832.23145.22852,0,.4082-.07715.53906-.23145s.19531-.36816.19531-.64355Zm2.21973,0c0-.33203-.06445-.58105-.19238-.74902-.12891-.16797-.31934-.25195-.57129-.25195s-.44043.08398-.56641.25195-.18945.41699-.18945.74902c0,.32617.06348.5752.18945.74512s.31445.25586.56641.25586.44238-.08594.57129-.25586c.12793-.16992.19238-.41895.19238-.74512Z"/>
        </g>
        <g>
          <path d="m278.94982,102.68793c0,.12109-.03418.21582-.10156.2832s-.16016.10156-.27637.10156c-.12207,0-.21289-.03418-.27344-.10156s-.09082-.16211-.09082-.2832v-.78418h-3.4375v-.43359l.62305,1.02832c.05176.08887.07129.17188.05957.24902s-.04395.14258-.09766.19531c-.05371.05371-.11816.08984-.19238.10938-.0752.01855-.15039.0127-.22754-.01758s-.1416-.08984-.19238-.17871l-.58105-.96582c-.05664-.09375-.10352-.18652-.14355-.28027s-.05957-.17969-.05957-.25879c0-.09863.02734-.17969.08008-.24512.05371-.06543.1416-.09863.2627-.09863h3.90625v-.71387c0-.12109.03027-.21582.09082-.2832s.15137-.10156.27344-.10156c.12109,0,.21484.03418.2793.10156.06543.06738.09863.16211.09863.2832v2.39453Z"/>
          <path d="m279.01916,97.86469c0,.2002-.03125.4082-.09375.62305-.06348.21484-.1582.41504-.28418.60156-.0459.0752-.10742.12402-.18164.14746s-.14844.02637-.2207.01074c-.07227-.0166-.13477-.0498-.18848-.09863s-.08691-.11035-.09863-.18555c-.01172-.07422.00879-.15625.05957-.24512.09375-.1582.15918-.30762.19629-.44727.03711-.14062.05566-.28027.05566-.41992,0-.27148-.0625-.5-.18848-.68652s-.31641-.32812-.57032-.42383c-.25487-.0957-.56835-.14355-.94237-.14355h-.52441v-.08398c.2334.0332.43652.11035.6084.23145.17285.12109.30469.27539.39551.46191.0918.18652.13672.39453.13672.62305,0,.28027-.06738.53125-.20312.75293-.13477.22168-.32227.39551-.56348.52148-.24023.12598-.51172.18848-.81543.18848-.32129,0-.60645-.06836-.85352-.20605s-.44238-.33008-.58496-.57812c-.1416-.24707-.21289-.5293-.21289-.84668,0-.41016.0957-.75879.28711-1.04297s.46973-.50195.83594-.65137.80859-.22363,1.32617-.22363c.4209,0,.79297.04785,1.11719.14355s.59863.23438.82227.41602c.22363.18262.39453.40527.51074.66895.11719.26367.1748.56152.1748.89258Zm-2.55469-.25879c0-.16797-.03809-.31641-.11523-.44531-.07715-.12793-.18457-.22754-.32227-.29688-.1377-.07031-.29492-.10547-.47266-.10547-.18164,0-.33984.03516-.47559.10547-.13574.06934-.24023.16895-.31543.29688-.07422.12891-.11133.27734-.11133.44531s.03711.31445.11133.44043c.0752.12598.17969.22559.31543.29785s.29395.1084.47559.1084c.17773,0,.33496-.03613.47266-.1084s.24512-.17188.32227-.29785.11523-.27246.11523-.44043Z"/>
        </g>
        <g>
          <path d="m278.94982,90.62152c0,.14941-.03418.25781-.10156.3252s-.16699.10156-.29785.10156c-.0791,0-.15625-.02148-.23047-.06348-.0752-.04199-.1543-.10254-.23828-.18164l-1.49805-1.40723c-.22363-.21387-.42773-.36816-.6123-.46191-.18457-.09277-.37012-.13965-.55664-.13965-.2334,0-.41113.07324-.53223.2207-.12109.14648-.18164.36035-.18164.63965,0,.15918.02246.31738.06641.47656.04395.1582.12012.31934.22754.48242.05566.08496.0791.16309.07031.23535-.00977.07227-.04004.13477-.0918.18848-.05078.05371-.11426.08984-.18848.1084-.0752.01855-.15039.01562-.22754-.00977-.07715-.02637-.14355-.08105-.19922-.16504-.13574-.2002-.23828-.42578-.30859-.67578-.07031-.24902-.10449-.5-.10449-.75195,0-.35449.05371-.65332.16016-.89648.10742-.24219.26465-.42676.46973-.55273s.45508-.18945.74902-.18945c.19531,0,.38672.03223.57422.09473.18652.06348.375.15918.56641.28711.19141.12891.39453.29492.60938.50098l1.37207,1.31543h-.23828v-2.05762c0-.12598.03027-.22168.09082-.28711s.15137-.09766.27344-.09766c.12109,0,.21484.03223.2793.09766.06543.06543.09863.16113.09863.28711v2.57617Z"/>
          <path d="m279.01916,85.25238c0,.58301-.21973,1.02832-.66113,1.33691-.44141.30762-1.06934.46191-1.88672.46191-.55078,0-1.01367-.06934-1.38965-.20703-.375-.1377-.6582-.33984-.84961-.6084s-.28711-.59668-.28711-.9834c0-.58887.21387-1.03516.64355-1.34082s1.05469-.45898,1.87598-.45898c.5459,0,1.00977.06934,1.38965.20703s.66992.33984.86816.60547.29688.59473.29688.9873Zm-.73438,0c0-.31738-.14746-.55176-.44141-.7041-.29395-.15137-.75293-.22754-1.37891-.22754-.625,0-1.0791.07617-1.36133.22754-.28223.15234-.42383.38672-.42383.7041,0,.3125.1416.5459.42383.69922.28223.1543.73633.23145,1.36133.23145.62598,0,1.08496-.07715,1.37891-.23145.29395-.15332.44141-.38672.44141-.69922Z"/>
        </g>
        <g>
          <path d="m278.94982,78.39398c0,.14941-.03418.25781-.10156.3252s-.16699.10156-.29785.10156c-.0791,0-.15625-.02148-.23047-.06348-.0752-.04199-.1543-.10254-.23828-.18164l-1.49805-1.40723c-.22363-.21387-.42773-.36816-.6123-.46191-.18457-.09277-.37012-.13965-.55664-.13965-.2334,0-.41113.07324-.53223.2207-.12109.14648-.18164.36035-.18164.63965,0,.15918.02246.31738.06641.47656.04395.1582.12012.31934.22754.48242.05566.08496.0791.16309.07031.23535-.00977.07227-.04004.13477-.0918.18848-.05078.05371-.11426.08984-.18848.1084-.0752.01855-.15039.01562-.22754-.00977-.07715-.02637-.14355-.08105-.19922-.16504-.13574-.2002-.23828-.42578-.30859-.67578-.07031-.24902-.10449-.5-.10449-.75195,0-.35449.05371-.65332.16016-.89648.10742-.24219.26465-.42676.46973-.55273s.45508-.18945.74902-.18945c.19531,0,.38672.03223.57422.09473.18652.06348.375.15918.56641.28711.19141.12891.39453.29492.60938.50098l1.37207,1.31543h-.23828v-2.05762c0-.12598.03027-.22168.09082-.28711s.15137-.09766.27344-.09766c.12109,0,.21484.03223.2793.09766.06543.06543.09863.16113.09863.28711v2.57617Z"/>
          <path d="m278.94982,74.03265c0,.12109-.03418.21582-.10156.2832s-.16016.10156-.27637.10156c-.12207,0-.21289-.03418-.27344-.10156s-.09082-.16211-.09082-.2832v-.78418h-3.4375v-.43359l.62305,1.02832c.05176.08887.07129.17188.05957.24902s-.04395.14258-.09766.19531c-.05371.05371-.11816.08984-.19238.10938-.0752.01855-.15039.0127-.22754-.01758s-.1416-.08984-.19238-.17871l-.58105-.96582c-.05664-.09375-.10352-.18652-.14355-.28027s-.05957-.17969-.05957-.25879c0-.09863.02734-.17969.08008-.24512.05371-.06543.1416-.09863.2627-.09863h3.90625v-.71387c0-.12109.03027-.21582.09082-.2832s.15137-.10156.27344-.10156c.12109,0,.21484.03418.2793.10156.06543.06738.09863.16211.09863.2832v2.39453Z"/>
        </g>
        <g>
          <path d="m278.94982,66.16644c0,.14941-.03418.25781-.10156.3252s-.16699.10156-.29785.10156c-.0791,0-.15625-.02148-.23047-.06348-.0752-.04199-.1543-.10254-.23828-.18164l-1.49805-1.40723c-.22363-.21387-.42773-.36816-.6123-.46191-.18457-.09277-.37012-.13965-.55664-.13965-.2334,0-.41113.07324-.53223.2207-.12109.14648-.18164.36035-.18164.63965,0,.15918.02246.31738.06641.47656.04395.1582.12012.31934.22754.48242.05566.08496.0791.16309.07031.23535-.00977.07227-.04004.13477-.0918.18848-.05078.05371-.11426.08984-.18848.1084-.0752.01855-.15039.01562-.22754-.00977-.07715-.02637-.14355-.08105-.19922-.16504-.13574-.2002-.23828-.42578-.30859-.67578-.07031-.24902-.10449-.5-.10449-.75195,0-.35449.05371-.65332.16016-.89648.10742-.24219.26465-.42676.46973-.55273s.45508-.18945.74902-.18945c.19531,0,.38672.03223.57422.09473.18652.06348.375.15918.56641.28711.19141.12891.39453.29492.60938.50098l1.37207,1.31543h-.23828v-2.05762c0-.12598.03027-.22168.09082-.28711s.15137-.09766.27344-.09766c.12109,0,.21484.03223.2793.09766.06543.06543.09863.16113.09863.28711v2.57617Z"/>
          <path d="m278.94982,61.96625c0,.14941-.03418.25781-.10156.3252s-.16699.10156-.29785.10156c-.0791,0-.15625-.02148-.23047-.06348-.0752-.04199-.1543-.10254-.23828-.18164l-1.49805-1.40723c-.22363-.21387-.42773-.36816-.6123-.46191-.18457-.09277-.37012-.13965-.55664-.13965-.2334,0-.41113.07324-.53223.2207-.12109.14648-.18164.36035-.18164.63965,0,.15918.02246.31738.06641.47656.04395.1582.12012.31934.22754.48242.05566.08496.0791.16309.07031.23535-.00977.07227-.04004.13477-.0918.18848-.05078.05371-.11426.08984-.18848.1084-.0752.01855-.15039.01562-.22754-.00977-.07715-.02637-.14355-.08105-.19922-.16504-.13574-.2002-.23828-.42578-.30859-.67578-.07031-.24902-.10449-.5-.10449-.75195,0-.35449.05371-.65332.16016-.89648.10742-.24219.26465-.42676.46973-.55273s.45508-.18945.74902-.18945c.19531,0,.38672.03223.57422.09473.18652.06348.375.15918.56641.28711.19141.12891.39453.29492.60938.50098l1.37207,1.31543h-.23828v-2.05762c0-.12598.03027-.22168.09082-.28711s.15137-.09766.27344-.09766c.12109,0,.21484.03223.2793.09766.06543.06543.09863.16113.09863.28711v2.57617Z"/>
        </g>
      </g>
    </g>
  </g>
</svg>