<?xml version="1.0" encoding="UTF-8"?>
<svg id="Layer_2" data-name="Layer 2" xmlns="http://www.w3.org/2000/svg" xmlns:xlink="http://www.w3.org/1999/xlink" viewBox="0 0 394 469">
  <defs>
    <linearGradient id="linear-gradient" x1="173.02316" y1="335.62494" x2="173.02316" y2="331.77582" gradientUnits="userSpaceOnUse">
      <stop offset=".34875" stop-color="#fff"/>
      <stop offset=".90496" stop-color="#fff" stop-opacity="0"/>
    </linearGradient>
  </defs>
  <g id="CASE_12_Plants_LH_WH_CL" data-name="CASE 12 Plants LH WH CL">
    <g id="Day_12" data-name="Day 12">
      <g id="rectangle">
        <rect width="394" height="469" fill="none"/>
      </g>
      <g id="ROOTS_BACK" data-name="ROOTS BACK">
        <path d="m190.59306,340.96875c-.44049-.43646-.9046-.8291-1.37897-1.20264.94298-1.73751-2.28821-2.80083-3.63098-3.08246-1.03839-.13562-1.75342-.026-2.63153-.12445-.73822-.23407-1.48706-.44458-2.24902-.62244-1.95654-.34644-4.05005-.43359-5.83136-1.23657.00031-.04315.00378-.08508.00378-.12836-.04596-2.2702-3.06458-2.45868-3.646-.60358-1.55737,1.51367-4.04669,2.53229-6.14612,2.90515-3.07715.36096-6.48755.95294-8.74561,3.43549-.48029.52423-.4754,1.34143.02722,1.85675.52527.53955,1.39319.54321,1.92389.00958.24164-.23578.49908-.44183.76813-.62573-.87036,1.54297-1.63232,3.47003-.10486,4.04126.7149.24481,1.49347-.14886,1.72235-.86865.63873-1.7041,1.84924-4.05811,3.62579-4.64514.40576-.03748.81079-.07202,1.21082-.10608,1.60614-.25305,3.14471-.64557,4.57886-1.26038-.65511.49108-1.19298.80811-1.85034,1.22467-.90912-.04193-1.90411-.07324-2.81909.18677-1.46936.4826-4.56317,1.79767-3.39569,3.57648.19965.27069.48541.43018.78943.49969-.70264.82965-1.29596,1.75067-1.68152,2.82812-.55432,1.659,1.88062,2.55475,2.53351.93347.95728-2.30048,3.50256-3.79279,5.86768-5.11816-.4657.77649-.8667,1.58386-1.39069,2.21057-1.46265,1.00146-7.63184,6.98126-4.71759,8.42029,1.62021.63029,1.89247-1.31481,2.65643-2.2467.21979.32935.58417.54822.97479.60846-1.15356.52655-2.18335,1.26306-2.4566,2.60474-.12991.658.25801,1.34429.92163,1.54016-.64178,1.36365-1.16943,2.98029.30005,3.52557.71478.21112,1.46539-.19714,1.67651-.91187.53894-1.77325,1.58539-3.62915,3.12994-4.73291.5246-.48663.93262-1.05109,1.28955-1.64508.03357.47662.04797.95081.04059,1.42218-.48834,1.23822-1.79675,2.01233-2.53931,3.25696-.6933,1.01843-1.53204,3.22357.24249,3.65344.73126.14618,1.44263-.32806,1.58862-1.05945.06213-.23438.16046-.45764.28284-.67413-.17383,2.07855-.18451,4.18219.57684,6.39374.60938,1.63458,3.05151.81317,2.56366-.84729-.23566-.72968-.34656-1.48193-.3822-2.24847.95398.79739,1.49349,2.66878,2.99324,1.93567,1.99746-1.31929-.84832-3.66746-1.68202-4.65131-.57855-.61768-.84375-.99683-.93292-1.70807.14655-.93341.30103-1.87134.40137-2.80396.22001.29139.52636.52312.77753.79572.82159,1.06543,1.25806,2.41016,1.38226,3.81549.08466.67828.05444.98492.2049,1.78815.36268,1.34098,2.36165.89758,2.11414-.47174.90088.35638,2.15363-.33472,1.83423-1.59497-.7345-2.20728-2.11353-4.02441-3.7002-5.66071.87994-.08691,1.66632-1.04199,1.06482-2.04926-.27002-.35785-.45673-.73499-.6131-1.11932.79675.95026,1.32922,2.0672,1.51874,3.35773.11548.70569.76605,1.2038,1.4845,1.12225,1.78979-.3443,1.20587-2.46063.54565-4.01697.52008.28308,1.00348.64539,1.42908,1.14685.49377.52234,1.31622.56744,1.86481.0921,1.4082-1.4624-.7655-3.02429-2.41553-3.88861.80475-.2074,1.4303-1.13593.83185-2.05823-.48657-.67737-1.0188-1.22662-1.58435-1.70624.73779.1178,1.39203-.45129,1.52319-1.13104.7287.70929,1.3504,1.52972,1.75897,2.32861.32922.63794,1.10571.90948,1.76434.60602,2.19299-1.15424-.98523-4.39563-2.00537-5.46332-.258-.23785-.52991-.46814-.81244-.68976,1.72821.67499,3.36414,1.58929,4.64191,2.78607,1.27094,1.19293,3.09558-.63123,1.91248-1.90417Zm-15.63898,8.73853c-.00488-.06281-.01093-.12512-.0155-.18817.01813.073.0293.14044.05072.21558.01068.04187.02722.08185.03857.12354-.02429-.05151-.04968-.09827-.07379-.15094Zm.84015-4.9079c-.33246-.211-.63763-.42664-.92133-.64276.74878.31519,1.51868.59949,2.26923.90582.42517.35602.76105.82562,1.15991,1.44629-.01312-.00861-.02826-.01672-.04077-.02545-.80505-.63348-1.65479-1.1922-2.46704-1.6839Zm4.72803,2.20081c.20544.17603.38269.35461.53009.53497-.30359-.10657-.60077-.20343-.8869-.29468.12946-.06311.25073-.14301.35681-.2403Zm-12.047,4.02295c.25104-.55066.41046-1.367.41162-2.03894.08411-.42609.46173-.87189.79883-1.28113.26129-.2066.52173-.40979.77832-.61029.18848-.17383.36139-.38562.52881-.60895.0188.11218.0376.22528.05658.33905-.48206.86163-.82391,1.8905-1.12915,2.46124-.24707.54407-.54645,1.24127-.88037,1.77826-.2406.0885-.48834.17926-.74451.27161.06732-.09161.12939-.19226.17987-.31085Zm9.57391-8.8891c-1.05878-.45392-2.0658-.81299-2.94287-1.4137.85828.22528,1.75476.35321,2.63391.45459.41736.12659.64709.32495,1.09302.81036.32074.3736.69611.77087,1.09607,1.14856-.60156-.34741-1.22772-.67041-1.88013-.99982Z" fill="#4c4c4c"/>
      </g>
      <path d="m191.0811,321.83948c2.09677-2.85982.02197-5.1156-4.17115-5.71148-2.50897-.21171-6.62882.51981-8.61767,3.12085-1.33374.30298-2.37561.7287-3.20233,1.20978-.03783-1.38543-.15785-2.45651-.29285-3.97998.62018-.65118,1.5401-1.43719,2.56873-2.20135.61012.43166,1.23258.20785,1.9201.22781,1.03709.06953,1.88956.03911,2.82282-.51926.99012-.00762,2.04648-.42273,2.64612-1.11328.61646-.21138,1.36042-.25352,2.05127-.40003.77515-.16143,1.18592-.73181,1.38587-1.07379,1.32932-.55368,2.35771-2.14804,1.64581-3.38708.40201-.69096.27661-1.42716.10254-1.97626-.03955-.50037-.55505-1.33716-.90442-1.73553-.4885-1.46599-1.99638-1.69691-3.30499-1.79364-.53204-.45545-.87791-.66445-1.47339-.65173-.86575.00276-1.67333.14853-2.57013.62853-1.4065.01219-2.14886.52826-2.77161,1.86615-.9643.06681-1.69843,1.19465-1.87872,1.90936-.29272.21875-.63776.52515-.91956.96014-.45282.69928-.39819,1.52716-.33545,2.02344-.14972.43359-.31152,1.08734-.25458,1.73987-.32971.23779-.66217.48303-.99341.74011-.04144-1.81085-.01007-3.76965.1759-5.64929.53552-.38928.89453-.94983,1.04962-1.39691.2795-.14812.59857-.19652.90601-.43317,1.39801-.61396,2.61681-2.05264,2.82935-3.33344.39165-.46217.93712-1.0038,1.04271-1.41218.22041-.66723.18574-1.31591.15229-1.73706,1.78992-2.43165-1.77507-3.71025-3.42133-2.79095-1.60672.13339-3.70814,1.26263-4.25079,2.72534-.54017.32258-1.26808,1.29501-1.32452,1.93732-.76461.72851-1.21504,1.78922-1.16778,2.98903.06836.88832.0631,1.26666.10248,1.92363-.05475.41907-.12.8327-.16028,1.25812-1.45722-.09783-2.48059,1.66425-1.64472,2.88344.81207,1.26732,1.22168,2.02018,1.45227,2.61155.01892,1.2785.07373,2.48798.14166,3.56866-1.63731-1.59228-3.20554-2.74046-4.97437-4.08844-1.98613-1.4597-4.20763,1.45645-2.2724,2.98344,2.37123,1.80411,4.09619,3.042,6.37493,5.63277-.83356-.75037-1.81433-1.43658-3.07086-1.92822-1.29259-1.7126-3.77339-2.69255-6.54127-2.5977-2.65316.05121-6.96809,1.3339-6.81259,4.33847.17083,1.91609,1.64369,2.41392,2.41197,2.74891.25549,1.5133,1.60881,3.7029,3.76414,3.6091,3.63472-.28461,4.36819-3.08964,6.45345-4.30722,2.02291,1.14172,3.18921,3.25082,5.2113,4.71436.01697,2.92218-.03302,5.52625-.06409,7.13324-.0127.65576-.02197,1.13672-.02197,1.39502,0,1.17383.95117,2.125,2.125,2.125s2.125-.95117,2.125-2.125c0-.24316.00879-.6958.021-1.3125.03326-1.71954.08771-4.56091.06128-7.73352.67334-.9563,1.45447-1.99622,3.85718-2.54309.52086.27854,2.34891.86185,3.37981,1.21093,1.96011.74159,4.33351,2.94932,6.4844,2.90683,3.00707-.14588,4.1364-3.22753,2.15221-5.18911Z" fill="#2e541a"/>
      <g id="ROOTS">
        <path d="m189.69139,341.83435c-1.61395-1.57764-3.5943-2.7677-5.71503-3.60211.47119-.01703.94049-.0376,1.39764.00195.91809.10919,1.78162.55383,2.60706,1.01807.11157.06531.21198-.10553.10321-.17133-.81561-.50018-1.67523-.99713-2.66827-1.15851-.90253-.11713-1.78052-.01495-2.66736-.12665-2.85248-1.04354-6.08135-.75338-8.79608-2.14185-.14227-.08051-.26544-.17896-.35541-.27295.01184-.2688.02618-.53662.02783-.80914.00438-.84295-1.26975-.81302-1.25122.01343-1.81207,1.91815-4.54822,3.05212-7.11993,3.52637-2.8056.33154-6.0033.83258-8.01324,3.06128-.09052.09375.06152.22729.14453.13824,1.43939-1.42511,3.29871-1.99945,5.2334-2.29279-1.69037,1.17273-2.68512,3.4162-3.32959,5.27515-.03821.12402.15497.17993.19092.05896.83679-2.16907,2.25433-4.97491,4.68848-5.52289.39191-.03601.7832-.06781,1.17126-.09698,2.47729-.36462,4.96503-1.20105,6.94434-2.76764-.07367.85175-.17261,1.71808-.26831,2.59235-.74252,1.08404-2.27195,1.8771-3.43414,2.64441-.92761-.03741-1.91632-.13428-2.86896.13568-1.0188.26886-1.89453.8526-2.67871,1.49359-.1001.08008.0249.23517.12384.15723,1.40234-1.17566,3.04547-1.53253,4.78625-1.38141-2.34155,1.49615-4.66925,3.17798-5.63873,5.85162-.04468.12195.14624.18585.18762.06915,1.39288-3.2818,4.82678-4.82343,7.7439-6.51782.53967-.3382,1.11713-.65381,1.64331-1.07855-.06274.71082-.10443,1.42273-.11249,2.13385-1.27087,1.00201-1.60907,2.58508-2.60767,3.7337-2.12683,1.76782-4.29706,3.75549-5.29761,6.41315-.04633.1214.1416.18872.18616.07312.80835-1.86548,2.18604-3.32892,3.71338-4.62628-.11823.21368-.22729.43439-.3092.67487-.1825.75751.00043,1.44379-.3269,2.15955-.04541.12.13953.19122.18604.07306.34619-.64636.24512-1.48444.42645-2.14044.22607-.5824.64215-1.10638,1.06018-1.61383.25854-.20251.51843-.40234.77838-.59955.87817-.86829,1.37903-2.19983,2.20831-3.07727.01617.33502.03607.6698.07532,1.00262.11365.62982.31183,1.81342.50305,2.97369-.98293,1.61332-1.4604,3.49289-2.53961,4.99597-1.43793.62372-3.53003.86926-4.00317,2.59998-.02985.12695.1712.16846.19543.04187.43823-1.4436,2.07367-1.72852,3.41315-2.1814-1.71326,1.39856-2.77765,3.50714-3.32288,5.62225-.03052.12726.1651.16998.19403.04852.63971-2.04913,1.74536-4.02539,3.50134-5.31671,1.34137-1.33069,1.88226-3.11322,2.74487-4.69305.09906.60706.18768,1.15369.24658,1.52081.38245,1.39313.45471,2.79395.40326,4.19684-.66223,1.94946-3.14166,3.08569-3.37378,5.289-.02118.12714.17743.15723.19727.03284.32391-1.80518,2.06342-2.75879,3.10938-4.14783-.06415.82324-.15186,1.64661-.2348,2.46912.00031.00372-.00317.00507-.00275.00891.00012.00244.0011.00433.00122.00677-.24371,2.42078-.41321,4.83368.4035,7.2099.04095.12726.22937.04907.18964-.06274-.56604-1.96631-.49133-3.93109-.25916-5.90649.73328,1.57184,2.5144,2.55597,3.35437,4.09198.06543.1106.23541.00958.1734-.09967-.90198-1.92456-3.29926-2.98389-3.36237-5.2652.27612-1.96216.60541-3.9375.52863-5.93835.81384,1.22375,1.80194,2.34741,2.82306,3.36407,1.35181,1.71204,1.46191,3.92438,1.64984,6.04022.01404.12714.20697.10156.19611-.01984-.07581-1.67615-.14075-3.50507-.82721-5.09375.92834,1.09851,1.72388,2.31201,2.21588,3.64948.02832.13053.23205.07885.19385-.04944-.62341-1.79803-1.75616-3.35956-3.04834-4.74591-.01001-.01379-.01678-.02887-.02692-.0426-1.34296-1.46887-2.51923-2.93542-3.34692-4.74377-.01959-.11823-.03162-.23608-.05499-.35449-.11139-1.36261-.2688-2.82568-.4328-4.24164.49811.38385,1.0282.70856,1.54993,1.01294.16437.08331.32526.17877.4884.26727.56885.8045.65094,1.80713.90057,2.75183.2641,1.02582.74762,1.97949,1.32166,2.85291.03003.04498.091.05865.13696.0296.04669-.02948.06067-.09125.03113-.13794-.54541-.87567-.99146-1.81311-1.22308-2.81183-.18097-.77875-.26562-1.62396-.59277-2.37024,2.47992,1.46411,4.65057,3.57642,5.01398,6.56647.01917.12848.21179.09827.19836-.02539-.18085-1.93994-1.12512-3.75098-2.49945-5.12207.77747.26685,1.57159.44141,2.31769.72192,1.18982.40741,2.27203,1.09271,3.12726,2.01886.08481.09522.23533-.03776.14899-.13312-1.6015-2.10535-4.48981-2.34045-6.61676-3.50513-1.42401-1.15173-3.24396-1.93274-4.43927-3.27173-.01147-.09607-.02301-.19611-.03442-.29126-.07739-.7583-.08521-1.50745-.05536-2.25415,1.37476,1.1123,3.12213,1.6192,4.77887,2.2851.75608.52985,1.17816,1.36807,1.7146,2.12671.07146.10681.24027-.00253.1665-.11053-.33539-.61603-.74219-1.21454-1.22668-1.73047.52032.23285,1.02954.4848,1.50073.80066.82324.51849,1.64453,1.09344,2.21594,1.8772.07513.10626.2345-.00531.16669-.11072-1.1709-1.66925-3.01807-2.66705-4.80286-3.55396-1.68427-.68933-3.28015-1.32007-4.44348-2.69257.05707-.68304.13397-1.36755.21301-2.05609,1.34277.99231,2.96381,1.22473,4.6048,1.40674.27936.07263.55103.16339.79749.30426,1.23163.73425,2.03442,2.46619,3.37543,2.92413.03369-.04382.02545-.10657-.01837-.14026-.77655-.5965-1.43066-1.30554-2.03723-2.0816-.23676-.32727-.54077-.61139-.87219-.86047,1.67963.21509,3.3056.58215,4.58594,1.90387.99316.86169,1.84979,1.90521,2.45343,3.08539.05878.11603.23083.02661.18054-.08624-1.17767-2.43433-3.2207-4.63965-5.94312-5.31799-2.33368-.5589-5.35413-.45319-6.9975-2.32416.02954-.28424.05426-.5705.07831-.85767,2.50128,1.203,5.32898.86621,7.96008,1.48199,2.90253.74536,5.85272,1.91956,8.05975,4.0036.0946.09338.22797-.04816.14441-.13861Z" fill="#fff"/>
      </g>
      <path d="m179.0956,321.07697c.49595-2.68147,5.67805-3.72235,7.61459-3.46222,2.93609.3944,3.90377,1.58447,3.68219,2.41769-.08684.32656-1.04386,1.46699-.92463,2.08041.12504.64329,2.19189,1.81248.41457,3.11798-1.69582,1.24563-4.70117-1.77067-6.95932-2.53066-2.97796-1.00225-3.35507-1.07455-3.8274-1.62319Z" fill="#95c172"/>
      <path d="m165.91583,319.49757c-.92826-2.6058-3.95784-3.18841-5.93872-3.13015-2.40386.0707-5.46673,1.15386-5.36002,2.73827.09415,1.39795,1.78218,1.27719,2.15566,1.92262.35645.616.33032,1.92553,1.39827,2.68001,1.51824,1.07261,3.52017-.51299,4.4861-1.63131,1.14737-1.32839,1.83536-1.95389,3.25871-2.57944Z" fill="#95c172"/>
      <path d="m188.45028,306.20005c.02284.27947.22151.74894.15114.89515-.13978.29044-.36976.89826-.3802.96193-.03606.2201.38548.63091.35021.94236-.01783.15749-.29473.62259-.71198.88326-.17166.10724-.50601.2312-.74323.41406-.15371.11849-.26465.63408-.61589.70721-.26379.05493-1.07677.18235-1.29333.21249-.40279.05607-1.0795.27773-1.20553.33563-.15375.07063-.45838.4594-.85274.69973s-1.36895.22305-1.49777.28528c-.29468.14234-.82469.44489-1.16022.48091-.47316.00051-2.00005.00909-2.33568.009-.34811-.14519-.20797-1.05045-.40501-1.14021-.29159-.13283-.5042-.34511-.6734-.76501-.21309-.52882.16294-1.54962.23132-1.67526.04584-.08423-.22029-.9664.06857-1.41242.26962-.41631.67863-.65863.93714-.83496.06478-.04419.16318-.90837.63284-1.30183.09541-.07993.89384-.16091.94361-.22512.18344-.23666.74948-1.51642,1.0419-1.58251.33079-.07476,1.10492-.12256,1.16469-.14744.7993-.38189,1.29849-.61837,2.27149-.5841.07005.00551.59088.46293.68544.54248.13169.11079,1.1998.12328,1.3529.17714.4581.16116.90666.19765,1.03363.38792.42234.91916.74882,1.04363,1.01009,1.7343Z" fill="#95c172"/>
      <path d="m179.6504,296.49778c.15987.19846-.41436.42482-.47572.91973-.03386.27311.14542.98345-.06128,1.60913-.04739.14346-.90732,1.02004-1.00882,1.24476-.11962.26484-.03498.62427-.35217,1.03904-.36753.48058-.50547.84553-1.06726,1.20384-.33.21047-.83544.4438-.92221.52979s-1.1219.2798-1.42043,1.14023c-.09497.27374-.32795.60225-.60785.75337-.1139.06149-.47914.05352-.82444.29613-.25378.17831-.71186-.03233-.77061-.58746.02031-.59117-.35786-2.58785.2036-3.46109.17238-.26868.5553-.61661.67253-.80457.12001-.1924.1869-.78287.37097-.993.3-.34245.596-.53825.72339-.63783.21952-.1716.30912-.61288.48461-.85836.28701-.40148,1.17911-.90368,1.46679-1.07511.52494-.31282,1.56435-.31906,1.81661-.47074.77358-.46517,1.73161.10164,1.77229.15214Z" fill="#95c172"/>
      <path d="m158.3116,303.28888c-.84891.00077-1.26393.62848-1.42303.86731-.08517.08832-.15884.18637-.22087.29388-1.20954-.15376-2.01546.86835-2.58304,1.71405-.47376.17771-.93027.2947-1.43788.60764-.015.00934-1.46692.93741-1.71332,1.92569-.29089.80167-.85448,2.03872-.11658,3.18686.19524.29065.39449.53003.49024.64508.04938.06296.086.10745.1174.14462.22737.46332.5878.70981.89503.86288.34705.56894.72787.7175,1.1873.875l.31084.0069c.33215,0,.64754-.09439.99077-.21976.69335.79721,1.75794.77324,2.21973.77631.401.67709,2.19783,1.90651,2.58742,2.07285.85474.2714,1.82979.03091,2.83436.0177,2.08941.99692,3.12585-.70156,3.72385-2.36328.30994-.24945.61217-.66833.65292-1.36179.64634-.6602,1.01156-3.07856-.42555-3.63309-.04274-1.62408-.52998-3.36947-2.22301-3.45407-.24636-.27595-.52918-.59743-.8905-.93027-.38344-.4445-.70761-1.04477-1.30929-1.26818-.40052-.17065-.94625-.15079-1.30987.02053-.32518-.16332-.58402-.19212-.8165-.18814-.40918-.26225-.83033-.46826-1.34924-.59796l-.19072-.00076h-.00046Z" fill="#2e541a"/>
      <path d="m152.39281,309.04136c-.05099.30142-.68815,1.4745-.33079,2.00651.1972.29358.4077.52977.45203.58796.11782.15463.15433.15138.27018.40492.07448.163.63289.29126.70779.40416.04318.06509.0436.38323.2764.46698.19203.06909,1.13696-.40329,1.40102-.41385.09123-.00365.62118.54152.78293.73064.31397.36709,1.46493.21035,1.77711.22992.1746.01095.54092.82565.94675,1.11787s1.34759,1.02021,1.48985,1.07631,1.32269-.03498,2.19921-.08452c.72579-.04102,1.12391.38197,1.33551.29461.78446-.32389,1.06234-2.14656,1.43994-2.2781.32885-.11456.11914-.58719.20461-.77632.14815-.32782.64643-.43894.53583-1.57824-.03405-.35078-1.01298-.36515-1.09621-.40293-.19472-.08839.11234-.62256.11618-1.11663.00563-.72537-.25301-1.57344-.44459-1.84261-.04941-.06941-.83703-.16094-1.07244-.28984-.14184-.07766-.59168-.67377-1.11025-1.14932-.29703-.27239-.68535-.91519-.84431-.9777-.24878-.09782-.36611.27426-.60767.30132-.08876.00994-.52685-.12896-.80201-.3197-.23498-.16289-.24255.16176-.43771.13253-.14494-.02171-.59576-.48411-.69666-.51915-.26151-.09081-.43001-.22218-.56743-.25655-.07649-.01913-.23195.32285-.34211.40162-.0522.03733-.02256.20333-.12305.34847-.08525.12311-.23585.10878-.35278.21548-.15038.13723-.18167.32109-.26177.31128-.26169-.03205-.69273-.19375-.98922-.08652-.44031.15924-.8908,1.16475-1.30831,1.42867-.36912.23332-1.03636.34705-1.50119.63646-.63988.3984-1.03931.95184-1.04683.99627Z" fill="#95c172"/>
      <path d="m165.81578,299.74536c-.69801,0-1.11433.40866-1.35916.77689-.98888-.12086-1.873.60774-2.17319,1.34567-.67844.2916-1.74155.83286-2.02304,1.45822.01561-.03467.03596-.07944.06781-.12811-.87819,1.01376-1.04026,2.75731.60876,3.58228.38357.39115,1.06423.66703,1.65923.63501.11516.49863.40695,1.29117,1.32611,1.48239.27905.05299.63953.12829.7383.15445.2458.48442,1.42547,1.10323,2.17218.80792.52941.24297,1.23175.27717,1.75078.12265.21206.08589.44976.12495.69389.12051.70864-.10235.80641-.02491,1.5125.03404.91368-.00007,1.62378-.60509,1.76703-1.5056.05947-.39033.02612-2.34694-.70869-2.96585-.0658-.49545-.79943-1.30846-1.2933-1.44827-.16658-.28714-.38785-.6171-.62242-.82336-.09494-.08926-.4025-.41504-.55821-.62244-.03996-.07957-.16063-.35253-.21429-.46616.00882-.65345-.77056-1.70072-1.67114-1.63766-.04025-.0231-.08536-.04825-.13515-.07404-.51945-.68297-.96821-.73409-1.32561-.8468l-.21158-.00171v-.00003h-.00079Z" fill="#2e541a"/>
      <path d="m161.6282,303.94184c-.0806.17895-.58568.70513-.44384,1.06204.07827.19695.25299.36433.41213.42799.23777.09511.41302.32539.5548.39628.44384.22192.9276-.05655,1.06204.01585.1109.05972.06973.2432.2391.261.05852.00615.37004.17958.4425.30964.14066.25246.13776.9739.33288,1.01449.10913.0227.83861.1537,1.11913.264.49771.19569.45182.61647.87814.71879.39628.09511.40325-.31296.96693-.25362.30118.0317.11235.27636.25362.33288.64044.2562,1.02021-.13812,1.29981-.09511.41213.06341.25362.22192.52309.20607.17646-.01038.57858-.09438.95108-.04755.43059.05413.79591.21907.85597-.15851.03449-.21682-.06341-1.36321-.23777-1.61684-.03492-.05079-.20607-.16662-.30118-.34873-.10692-.20473-.14223-.48083-.25362-.60235-.34873-.38043-.72981-.26227-.80842-.44384-.02027-.04682-.39421-.75584-.52309-.85597-.07765-.06033-.52347-.51865-.77672-.85597-.14506-.19321-.34823-.69015-.39802-.78272-.14085-.26187-.06437-.53175-.2086-.67322-.12317-.12081-.16519.02624-.28446-.00948-.30635-.06805-.54344-.27935-.82086-.35752-.23396-.08784-.35941-.57408-.63408-.6023-.16105-.04358-.34934.75444-.55478.79254-.30509.05659-.9766-.09075-1.28396.0317-.27173.10826-.49863.9284-.84012,1.06204-.47009.18396-1.50985.78205-1.52173.80842Z" fill="#95c172"/>
      <path d="m181.32542,320.33441c-5.0257.33215-6.6615,2.04382-7.70251,3.46893-.03546-1.55341-.08636-3.10571-.17627-4.65314-.10278-1.03009-.19562-2.05804-.27856-3.08508,1.07849-1.38788,3.41077-3.172,5.26477-4.33667.17578-.10986.22852-.34131.11816-.5166-.10938-.17578-.34229-.22949-.5166-.11816-1.65906,1.0415-3.69476,2.57458-4.94733,3.91705-.2627-3.69122-.32556-7.36816.13434-11.05347.02783-.19647-.10388-.3833-.30157-.42065-.20355-.03864-.39984.09503-.43848.29858-.35583,1.87549-.5072,3.77374-.55743,5.67041-.29523-.56659-.68207-1.21527-1.20642-2.03351-.11182-.17432-.34375-.22559-.51807-.11377-.1748.11182-.2251.34375-.11377.51807,1.08844,1.69806,1.57031,2.63428,1.81812,3.58649.00012.02728-.00085.05469-.00067.08197.06549,2.56433.25201,5.09625.40417,7.62653-2.83099-3.44324-4.69965-4.86584-7.19379-6.75934l-.58008-.44092c-.38235-.30043-.8461.30768-.45407.5967,3.0903,2.35425,4.93024,3.63961,8.29898,7.88487.06897,1.28241.11926,2.56641.13684,3.85461-3.33652-2.45887-4.14385-5.69987-9.49982-6.05688l-.04492.74902c5.26457.32097,5.928,3.8987,9.55243,6.21667-.00012.54016-.0033,1.08075-.0191,1.62329-.00421,2.5553-.07385,5.08582-.12885,7.66699-.0033.8385,1.26306.81342,1.25006-.00641.0426-3.13501.0672-6.29224.01862-9.44696,1.34084-1.78454,2.15018-3.51656,7.73163-3.97058l-.0498-.74805Z" fill="#95c172"/>
      <g id="root_main_fade" data-name="root main fade">
        <path d="m173.00023,335.62494c-.34473,0-.62451-.27881-.625-.62354-.00146-.75391.0459-3.22559.0459-3.22559l1.25.02441c0,.00049-.04736,2.45117-.0459,3.19873.00054.34523-.27977.62634-.625.62598Z" fill="url(#linear-gradient)"/>
        <g id="leaf_1_right_hi" data-name="leaf 1 right hi">
          <path d="m179.0956,321.07697c2.5503-1.08598,8.93424-.73321,10.37224,1.03573.12496.64343,2.1918,1.81262.41448,3.11812-1.69582,1.24563-4.70117-1.77067-6.95932-2.53066-2.97796-1.00225-3.35507-1.07455-3.8274-1.62319Z" fill="#a6d67c"/>
        </g>
      </g>
      <g id="leaf_1_left_hi" data-name="leaf 1 left hi">
        <path d="m165.91583,319.49757c-2.75935-1.2586-4.45935-1.16671-6.34314-.56941-1.22457.38828-3.17341,1.45473-2.79994,2.10015.35645.616.33032,1.92553,1.39827,2.68001,1.51824,1.07261,3.52017-.51299,4.4861-1.63131,1.14737-1.32839,1.83536-1.95389,3.25871-2.57944Z" fill="#a6d67c"/>
      </g>
      <g id="leaf_2_left_hi" data-name="leaf 2 left hi">
        <path d="m153.49255,309.52099c-.66865.29434-1.78789.99487-1.43053,1.52688.1972.29358.4077.52977.45203.58796.11782.15463.15433.15138.27018.40492.07448.163.63289.29126.70779.40416.04318.06509.0436.38323.2764.46698.19203.06909,1.13696-.40329,1.40102-.41385.09123-.00365.62118.54152.78293.73064.31397.36709,1.46493.21035,1.77711.22992.1746.01095.54092.82565.94675,1.11787s1.34759,1.02021,1.48985,1.07631,1.32269-.03498,2.19921-.08452c.72579-.04102,1.12391.38197,1.33551.29461.78446-.32389,1.06234-2.14656,1.43994-2.2781.32885-.11456.05768-.52362-.10853-.71143-1.03757-1.17244-3.35925-2.20438-3.83728-2.46385-3.3496-1.81817-7.03373-1.18285-7.70238-.88851Z" fill="#a6d67c"/>
      </g>
      <g id="leaf_2_right_hi" data-name="leaf 2 right hi">
        <path d="m188.45028,306.20005c.02284.27947.22151.74894.15114.89515-.13978.29044-.36976.89826-.3802.96193-.03606.2201.38548.63091.35021.94236-.01783.15749-.29473.62259-.71198.88326-.17166.10724-.50601.2312-.74323.41406-.15371.11849-.26465.63408-.61589.70721-.70154.12555-1.98775.2968-2.49885.54816-.15375.07059-.45839.45936-.85275.69969s-1.36895.22305-1.49777.28528c-.84562.51014-1.3529.5342-2.38121.46792-.52728.00577-1.02025.06124-1.11467.02189-.34812-.14508-.20798-1.05035-.40502-1.1401-.29159-.13283.87446-.2109,3.4626-3.00717,1.85645-2.00575,4.97108-3.18227,5.86147-3.13698.7673.03903,1.37034.38624,1.37615.45735Z" fill="#a6d67c"/>
      </g>
      <g id="leaf_3_left_hi" data-name="leaf 3 left hi">
        <path d="m161.6282,303.94184c-.0806.17895-.58568.70513-.44384,1.06204.11672.3482.6136.50085.96691.8243.44386.22189.92762-.05658,1.06206.01582.1109.05972.06973.2432.2391.261.05852.00615.37004.17958.4425.30964.14066.25246.13776.9739.33288,1.01449.10913.0227.83861.1537,1.11913.264.49771.19569.45182.61647.87814.71879.39628.09511.40325-.31296.96693-.25362.30118.0317.11235.27636.25362.33288.64044.2562,1.02021-.13812,1.29981-.09511.41213.06341.25362.22192.52309.20607.17646-.01038.57858-.09438.95108-.04755.36567.04597.68426.17185.8088-.02247-.73568-.55259-1.95176-1.38792-3.53347-3.33116-1.21096-1.74612-3.93397-2.51306-5.86676-1.2591Z" fill="#a6d67c"/>
      </g>
      <g id="leaf_3_right_hi" data-name="leaf 3 right hi">
        <path d="m179.6504,296.49778c.15987.19846-.41436.42482-.47572.91973-.03386.27311.14542.98345-.06128,1.60913-.04739.14346-.90732,1.02004-1.00882,1.24476-.11962.26484-.03498.62427-.35217,1.03904-.36753.48058-.50547.84553-1.06726,1.20384-.33.21047-.83544.4438-.92221.52979s-1.1219.2798-1.42043,1.14023c-.09497.27374-.32795.60225-.60785.75337-.1139.06149-.47914.05352-.82444.29613-.10623.07464-.24825.08113-.3818.02273,1.25904-2.20992,1.74579-4.05386,2.64986-5.59343,1.59426-2.71492,4.43145-3.21582,4.47213-3.16533Z" fill="#a6d67c"/>
      </g>
    </g>
  </g>
</svg>