<?xml version="1.0" encoding="UTF-8"?>
<svg id="Layer_2" data-name="Layer 2" xmlns="http://www.w3.org/2000/svg" xmlns:xlink="http://www.w3.org/1999/xlink" viewBox="0 0 394 469">
  <defs>
    <linearGradient id="linear-gradient" x1="173.02316" y1="335.87494" x2="173.02316" y2="331.77142" gradientUnits="userSpaceOnUse">
      <stop offset=".34875" stop-color="#fff"/>
      <stop offset=".90496" stop-color="#fff" stop-opacity="0"/>
    </linearGradient>
  </defs>
  <g id="CASE_12_Plants_LH_WH_CL" data-name="CASE 12 Plants LH WH CL">
    <g id="Day_16" data-name="Day 16">
      <g id="rectangle">
        <rect width="394" height="469" fill="none"/>
      </g>
      <g id="ROOTS_Back" data-name="ROOTS Back">
        <path d="m192.40752,342.7345c-.48694-.5014-.98859-.93506-1.49609-1.34552.38995-.04865.75787-.24548.98181-.60504,1.5498-2.96997-6.79407-3.88263-8.88867-4.08527-.8042-.33484-1.63782-.62982-2.53125-.85754-1.85547-.32983-3.67993-.4483-5.34631-1.14453-.00043-.0415-.00165-.08331-.00201-.12476.01899-2.53971-3.64961-2.94189-4.19543-.48877-2.10486,1.97786-4.9452,2.51485-7.67627,3.12677-.54102.0459-1.10071.25464-1.52466.54572-3.67737,1.43439-9.36127,4.40558-7.55408,6.38989.52997.56061,1.42603.55505,1.95746-.00031.57147-.54382,1.30536-1.034,2.09369-1.48358-.44299,1.0105-.81354,2.05896-1.15692,3.10693-.4644,1.6837,2.00958,2.45488,2.57916.79828.09314-.25397.19531-.51904.30334-.78864.46466.51587,1.24872.61475,1.8114.18298.56085-.39447,1.19897-.73029,1.87451-1.0163-1.56525,1.47125-2.93384,3.12329-3.76581,5.22473-.55377,1.63501,1.83044,2.55341,2.51672.97302,1.37585-2.82874,4.1897-4.71259,6.83777-6.56073-.1947.32983-.39636.64862-.62903.9325-3.05447,2.44588-5.33312,5.787-8.06959,8.51122-1.24285,1.16238.38526,3.09268,1.74279,2.04996,1.455-1.2343,2.52015-2.55172,3.83864-3.91409-.03699.10059-.07831.19543-.13196.28778-.2005.36749-.19238.78711-.04047,1.15375-.88342.73431-1.66632,1.60822-2.35516,2.48376-.0946.11145-.18005.20398-.23608.25928-.01093.01221-.00769.00812-.0119.01245-1.3139.51093-.98969,2.70276.63129,2.58972.65557-.06751,1.17859-.51129,1.58057-.97852-.39984,1.17865-.72052,2.39423-1.0719,3.59888-.38513,1.69427,2.10205,2.35345,2.60785.69458.33606-1.16534.77582-2.39624,1.2605-3.5401.59528-1.31775,1.14758-2.62384,2.09656-3.46655.1427-.10736.33209-.2738.513-.45294.01196.49066.02051.98047.02808,1.47003-.78967,2.48944-3.15961,4.41119-3.53711,7.19507-.22839,1.72717,2.31781,2.1557,2.66321.44366.18695-.67041.54449-1.30939.9679-1.94177.07605,2.75787.24713,5.52161.74402,8.32416.37921,1.70123,2.90759,1.21796,2.65479-.48773-.22852-1.80151-.31287-3.64886-.33051-5.51392.65759.72174,1.29553,1.43085,1.76581,2.18134.65181,1.1405,2.479.67613,2.48395-.63757.76313.05566,1.39792-.64206,1.34943-1.39476-.00555-.12825-.08057-1.3874-.10571-1.84657.17218.2616.37946.54327.80853.89966,1.42792,1.05719,3.03137-1.04193,1.6427-2.14258-.94696-1.60461-1.8075-3.37427-2.94714-4.9444.57513.18518,1.21338-.0799,1.54846-.55969.18927.97918.43494,2.07448,1.68658,1.95764,1.96576-.33209,1.10864-3.2229-.1109-5.66882,1.22955.49347,2.38501,1.08093,3.30853,2.0379.49323.54736,1.34332.59943,1.89844.10583,1.4188-1.42367-.83774-2.88039-1.89172-3.61438.7182-.29077,1.21246-1.15961.64661-2.00873-.62524-.77374-1.31586-1.43762-2.04596-2.03992.53247-.05499.97876-.45056,1.1521-.94379.63019.69147,1.18793,1.40955,1.61194,2.09534.31976.67889,1.13965.97888,1.82037.6424,2.54749-1.31787-2.38434-6.13342-5.14374-8.06,2.52094,1.11511,4.97504,2.62286,6.88971,4.2998,1.27514,1.18094,3.09317-.65038,1.89819-1.91724Zm-28.94257,13.57727c.0874-.0343.18121-.06323.26562-.05341-.09521.00995-.18195.03009-.26562.05341Zm15.02386-9.09436c-.70178-.51245-1.46014-.99115-2.1546-1.47528.29474.10748.58569.20502.8634.28021.04431.01807.0882.04053.13251.0589.42407.28448.80029.68799,1.15869,1.13617Zm-14.06671-5.63312c-.62909.25116-1.98718.71667-3.1037,1.35577.56671-.9707,1.21771-1.83081,1.93542-2.41809,1.15955-.32556,2.33893-.54944,3.55127-.6889,1.45343-.34143,2.88232-.79266,4.2038-1.44733.00305.06372.00604.12762.00909.19147-.63964.81024-1.49711,1.47069-2.31989,2.15967-1.47925-.00897-3.3548.61804-4.276.84741Zm4.61237,10.18616c.19147-1.35315.40723-2.51404,1.19995-3.53259.13525-.10706.26672-.22003.40424-.32349.11731-.08453.21875-.18512.32318-.28271-.00757.1532-.01392.30646-.02112.45966-.53839,1.02435-.91016,2.24896-1.2677,2.8548-.18121.37646-.32526.70349-.48682,1.00189-.05933.01208-.12292.01337-.18152.02716.01221-.07159.02246-.14062.02979-.20471Zm5.21344,7.09015c-.00079-.01965-.0061-.03571-.00739-.05499.03809-.99286.07861-1.98315.11713-2.97089.22046.21777.43335.42053.5777.55066,1.47009,1.78052,1.72211,4.44592,1.97345,6.77997-1.16425-1.4281-2.48572-2.77271-2.66089-4.30475Zm2.664-4.81433c-1.05981-1.09625-1.67102-2.09497-2.336-3.495.04541-.65613.10236-1.30432.16791-1.95166.12646.07178.25311.14392.38.21417,1.05678,1.99381,1.53239,4.12068,2.69116,6.0376-.28271-.28333-.58289-.55243-.90308-.80511Zm5.96332-4.75873c.00946-.03107.01501-.06305.02209-.09479.11145.07359.21644.16066.31732.24072-.11285-.04944-.22614-.0976-.33942-.14594Zm-4.44763-6.18878c-1.13013-.45129-1.94812-.82007-2.68988-1.46893.61414.13629,1.24481.22626,1.87708.29968,1.41974.45453,2.4458,1.53918,3.5293,2.62708-.88275-.50665-1.79199-.98248-2.71649-1.45782Z" fill="#4c4c4c"/>
      </g>
      <path d="m200.14922,285.75867c-.04003-.94779-.69906-2.58931-1.30963-3.35474-.17738-.42279-.25567-.83916-.54561-1.38311-.3687-.70911-1.05083-1.03156-1.71044-1.34333-.79863-.48067-1.86882-.75595-2.91949-1.05859-.92761-1.05713-1.2049-1.34576-1.70752-1.48669-1.92313-.41288-2.83255-.36351-4.72937.1958-.6349-.05934-1.41602-.15317-2.02325-.13904-1.16379.01359-1.9472,1.24254-2.82465,2.56659-1.89325-.30113-2.951,1.23544-3.4187,2.59607-.53766.26355-1.23792.67114-1.79895,1.36584-.78076.96667-.68781,2.34137-.63226,3.16266.00006.00153.00018.00305.00031.00458-.50364.94383-1.10265,3.12373-.29279,4.49347-.9408.8432-1.84308,1.73132-2.64563,2.69055-.19025-4.08678-.39218-8.17944-.52478-12.2691,1.05133-2.47595,2.61749-4.81274,4.19702-6.26294.50323-.14368,1.09869.08716,1.58795-.00653,1.07104-.17847,1.96173-.89288,2.43817-1.50189.68066-.75018,1.68597-.36627,2.48322-.65204,1.46588-.15155,3.30298-.70386,4.21387-1.5686.92529-.547,1.82111-1.53223,2.06256-2.20856.6557-.43481,2.42542-1.31915,2.60223-1.70612.79218-1.07233.96136-2.07019,1.21381-2.98566.06671-.0517.20959-.12946.2998-.17853,1.43921-.78326,1.33008-1.79291,1.1369-2.32507-.20587-.83136-2.63849-2.7981-4.60413-2.29376-1.06281-.13867-2.40143-.49023-3.53461-.24261-2.03998.39941-3.68701.79822-4.81146,2.2771-.39838.12885-1.0246.32184-1.79871.76379-.67938.39276-1.05115,1.07983-1.47333,1.66608-.50128.29382-1.12103.58459-1.59161.95966-.58374.46295-1.5755,1.79102-1.86462,2.90216-.15729.60449-.29498,1.09955-.41821,1.5274-.53168.06061-.9375.43732-1.34796.7738.85596-1.34955,1.62415-2.72992,1.50568-4.07623-.0686-1.32068-1.79285-1.9729-2.71973-1.04755-.03082-.50385.04248-1.03656-.13788-1.5163-.01758-.05054-.03094-.10266-.05237-.15131-.14337-.34351-.36902-.60822-.64221-.79956-.02942-.02179-.05853-.04327-.08911-.06348-.03821-.02362-.07703-.04492-.1167-.0658-.65222-.40417-1.59625-.33136-2.18219.14362-.05872.04193-.117.08356-.1709.13251l-.00067.00067c-.94672.87506-.56305,2.32452-.67664,3.47729-1.42212-.29156-2.49091,1.55341-1.50012,2.64526.62189.73645,1.08624,1.37482,1.42798,2.09076-.00897,1.34021-.01154,2.68042-.00598,4.02063-.64313-.9577-1.14612-1.84705-1.3913-2.45709-.82935-1.96661-3.77863-.78418-3.01562,1.21198.69153,1.72083,2.50256,4.44019,4.45312,6.49457.0072.49591.00989.992.01904,1.48792-.48096-.4801-.98242-.94159-1.49469-1.38812-.23834-1.2821-.60022-3.14771-1.73895-3.79327-.23663-.43585-.40051-.93182-.88538-1.3335-.61737-.51086-1.22144-.66943-1.64587-.73639-.35272-.48627-.91321-1.19745-1.35565-1.47498-.18683-.1272-.96802-.74622-1.40271-1.1842-.22992-.26257-.61554-.93005-.80304-1.19257-.14203-.47021-.23273-1.02405-.88361-1.52795-.60468-.40961-1.01331-.42212-1.54211-.2915-.05646-.013-.10486-.0249-.13202-.03284-.25171-.1026-.5061-.21869-.83783-.29932-.00476-.00531-.00922-.01044-.01318-.01514-.61249-.89966-1.55182-.98053-1.78644-1.02209-1.24567-.09039-1.73584,1.1344-1.90594,1.75873-.71594.05414-1.51416.09308-2.16357.46008-.888.51062-1.07233,1.49786-1.46295,2.30768-.64868.39453-2.92456,1.83154-3.17786,2.69415.00665-.02258.01459-.04956.02728-.07898-.40088.82306-1.15417,2.03607-.44916,3.34808.39001.68787,1.09039,1.2287,1.82782,1.41144.83173.6521,2.05505.92438,3.06378.56256.23523.14746.47461.21802.69183.24622.77863,2.8172,1.83936,2.13971,3.87219,2.45917.51006.35865.8751,1.04169,2.03851,1.15448.60626.08374,1.28302-.17584,1.58563-.42761.94806.62714,2.6441.25488,3.31909-.18066.79956.48798,1.84766-.08698,2.7337-.1474,2.45184,2.06219,4.46045,4.26794,4.75574,6.86615.18866,5.37903.45422,10.75598.77917,16.12817-1.20862-1.25684-2.39154-2.28107-3.55688-3.27594.80585-1.18207,1.43115-3.30652-.3902-4.11334.53674-1.37311.54492-3.47559.11713-4.47595-.33728-.823-1.23834-.96112-2.02509-1.2854-.41571-.80396-1.08447-1.58405-1.52838-2.52527-.45251-1.3197-1.69019-2.14716-2.93671-1.46509-.50116-.47675-1.08051-.71716-1.54132-.65369-.4613-.55237-1.22644-1.03943-1.92261-1.32892-.79578-.10309-1.40387.34399-1.80334.77014-.28357.16821-.46124.39417-.57178.57745-.15179.0484-.34125.13251-.50336.23706-.44897-.15826-1.08588-.27295-1.61011-.16504-1.13226.17261-2.15222,1.43683-3.05249,2.04059-.78558.23663-1.86279.28326-2.72974.64325-1.00726.39417-2.56909,1.32324-2.94781,2.06897-1.2724,1.78784-2.31335,3.29095-.87885,5.46893.04669.09808.09229.18091.13531.25677.1048.69769.63611,1.15491,1.07379,1.42395.49255,1.84003,2.07526,1.60272,3.54816,1.25513.65533,1.4397,2.07458,1.82483,3.52734,1.94.30255.90149.8808,1.63531,1.62885,2.35596,1.14551,1.21655,1.37891,1.44196,1.66516,1.60815.41113.23865.75073.29047,3.30334.50409.65015.06665,1.31573.01776,1.83759.4248.30994.19403.73444.45978,1.30927.45978,1.70819-.09668,2.79102-1.76404,3.69751-2.98053,2.22668,1.90131,4.35431,3.77679,6.62262,7.2821.09033,1.36334.19495,2.72632.2796,4.08954-1.37909-1.15796-3.01886-2.28595-5.48492-2.83801-1.53314-2.45978-4.85498-3.88403-8.63019-3.75299-3.20917.09821-8.69885,1.53333-8.56671,5.23462.24908,2.37537,1.98633,2.79315,3.11102,3.32373.42883,2.02081,1.76227,4.69812,4.5965,4.65723,4.78821-.41241,5.61536-4.34943,8.63654-5.82208,2.87195.58313,4.31738,2.61591,6.56958,4.27136.09149,3.89172.01752,7.78833-.05438,11.75305-.02667,1.38361,1.07758,2.52637,2.46136,2.54706,1.41223.0249,2.56323-1.13788,2.53839-2.54706.17755-3.96173.11896-7.94055-.04987-11.92419,2.69684-2.19141,4.09692-3.33215,6.83612-3.8446.53809.37756,3.05621,1.17175,4.4397,1.64008,2.39142.87854,5.33807,3.62262,7.91754,3.58185,1.66577.06726,3.39838-1.41455,3.5506-2.9303.1507-1.42969-.73639-2.39087-1.31274-3.09344.31061-.64795.86273-1.2912,1.02454-1.89844.45477-2.64941-1.74475-4.25146-5.81067-4.86694-2.94214-.37177-8.63885.96075-10.44073,3.88171-2.79492.53265-4.54065,1.5036-6.44244,2.93451-.33844-5.48828-.81531-10.97644-1.1803-16.43768.56854-2.3587,2.08307-4.492,4.00018-6.37939.61322.62781,1.82122.56093,2.81592.7828.86991.15741,1.76587.47973,2.61054.4926.77168-.00269,1.56384-.26427,2.24262-.47212.87233.10253,2.26916.26443,3.08929-.097.6823-.28148,1.12197-.62291,1.56665-.93938,1.14845-.22091,2.76938-.03464,4.10492-.04215,1.18481-.01546,1.81952-.93099,2.09924-1.34804,2.3828-.52694,4.25274-2.58421,2.94012-4.81195.15332-.32062.37323-.75739.51697-.9978.37585-.6283.25153-1.3111.13129-1.97144Z" fill="#2e541a"/>
      <g id="ROOTS">
        <path d="m180.65056,340.34204c-2.16132-.50928-5.1236-.52753-6.68939-2.17059-.01312-.46771-.02557-.93311-.03845-1.39764,2.78619,1.10455,5.86987.48749,8.599,1.75623,3.22125,1.24188,6.3457,3.1358,8.98163,5.21136-.72705-1.23773-2.88055-2.44879-4.13251-3.32257-1.07349-.63873-2.15363-1.27252-3.2674-1.83624.2027.01044.40491.02264.60553.04486,2.31787.08099,4.10565.67773,6.13757,1.50543-2.09357-1.77399-5.44647-1.96381-8.15521-2.20892-.79004-.33832-1.59991-.63373-2.44379-.85339-2.10278-.36115-4.23077-.50415-6.13049-1.45282-.07983-.04193-.1557-.09033-.22437-.1405-.00623-.302-.01422-.60559-.0177-.9054-.00623-1.17694-1.74902-1.15723-1.75,0,.00049.02881.00201.05695.0025.08575-2.1087,2.18262-5.30988,3.15344-8.24335,3.66431-.10437.03381-.20807.07166-.31232.10626-.02307-.00244-.04218-.0105-.06812-.00861-.43939.04431-.7879.20862-1.09583.41541-2.685.98633-5.26996,2.30011-7.32373,4.30792-.09149.09674.06171.22925.14447.13812,1.74591-1.55463,3.90027-2.63934,6.12567-3.44226-1.45776,1.8606-2.40631,4.06-3.09143,6.29932-.03741.12372.15454.17841.19098.05914.93285-2.45717,2.08064-5.07196,4.13733-6.77612.48828-.15314.97675-.29858,1.46259-.42932,2.86163-.35614,5.79224-1.04785,8.11914-2.79254.03204.91077.07025,1.81677.11212,2.7157-.2063.42493-.64178.87463-1.05865,1.29633-.66083.62372-1.36908,1.21747-2.09564,1.80194-2.96991.09155-5.91705.99451-8.26562,2.8092-.10059.08063.02588.23486.12378.15704,2.099-1.47278,4.75842-2.22687,7.31647-2.3103-2.87225,2.26349-5.86108,4.50183-7.26105,7.93262-.04449.1225.14679.18439.18756.06909,1.80328-3.81573,5.76508-5.91388,9.01978-8.36395.73334-.57526,1.4649-1.0448,2.10681-1.65271.0224.56683.03571,1.13379.04779,1.69965-1.17358.81604-1.68127,2.20813-2.37085,3.34137-.79962,1.13989-2.06378,1.86151-2.9549,2.93469-1.97437,2.01678-3.68256,4.32959-5.68604,6.28986-.11505.08124.02087.24359.12079.15948,2.11884-1.91278,3.87616-4.12372,5.94159-6.07507.22247-.24579.46741-.46869.71844-.68518-.22205.51294-.38086,1.05084-.46411,1.59668-.20593,1.08209-.10364,2.21521-.63965,3.12872-.06714.10901.09631.2149.16699.10999.62415-.9422.58142-2.11749.84045-3.16553.20581-.98181.65576-1.87463,1.27356-2.64117.46478-.37976.91583-.77155,1.28302-1.24359.6333-.91119,1.11078-1.89484,1.78546-2.54272-.12659,1.64307-.20026,3.2887-.24054,4.93506-.84656,1.53058-1.30096,3.16077-2.24133,4.59943-2.35175.23547-4.03149,2.09888-5.42297,3.83746-.20013.23535-.44598.50372-.67737.57037-.15424.01111-.13245.23035.01733.19922.40045-.11719.58173-.40076.81927-.62543,1.28461-1.46124,2.78662-3.05402,4.75134-3.41797-2.08588,2.25482-2.97076,5.29102-3.74103,8.21222-.03101.12793.16528.16901.19403.04858.93842-3.05963,2.04968-6.2796,4.53241-8.39386.70892-.95142,1.20996-2.05505,1.7348-3.12323-.01801,2.04926.01019,4.09863.06042,6.14508-.68304,2.49854-3.10986,4.45557-3.53241,7.12579-.01748.12572.17536.15976.19727.0329.51361-2.15485,2.26123-3.67834,3.37909-5.5437.02917,1.0083.06036,2.01605.0929,3.02209.04211,2.95728.08917,5.95581.70056,8.87463.02374.12909.22119.08014.19647-.03754-.49247-3.04238-.36353-6.13559-.27234-9.21545,1.01599,1.86121,2.95209,3.21918,4.02197,5.04456.06537.11017.23425.00879.17334-.09967-1.1731-2.32312-3.85175-4.06964-4.15173-6.72302.05023-2.23096.10065-4.46753.21027-6.69922.72565,1.18927,1.60443,2.33105,2.63593,3.21313,2.05237,2.46198,2.05957,5.88831,2.45905,8.94653.01532.12781.20844.09888.19641-.02185-.22974-2.56183-.22955-5.41693-1.35419-7.80139,1.59387,1.74536,2.54492,4.00995,4.04395,5.8371.0946.08691.22675-.06305.13403-.14673-1.77612-2.39349-2.7265-5.4671-5.2392-7.36383-1.23151-1.23212-2.06482-2.62488-2.78912-4.21167.06354-.95392.13519-1.90692.24005-2.85559.08508-.48529.151-.97424.20966-1.46448.63641.49481,1.48505.98822,2.22626,1.40546,1.46246,2.18018,1.83978,5.43518,3.64197,7.35742.047-.02911.06146-.09076.03235-.1377-.71204-1.16846-1.25134-2.42773-1.69244-3.72351-.35883-.98315-.62262-2.00885-1.0849-2.99017.28925.16644.52167.30798.64178.40839,2.34784,1.8891,4.04297,4.73792,4.59125,7.70923.01984.12927.21198.09808.19849-.02545-.35266-2.49292-1.46899-4.8952-3.11407-6.82239,2.65178.96037,5.35033,1.85113,7.44336,3.70752-1.78302-2.63892-5.68024-3.12231-8.29541-4.73792-.0506-.03815-.11157-.04059-.17047-.03992-.09796-.09137-.18915-.19031-.28986-.27844-1.30469-1.00549-2.99475-1.7804-4.01385-3.02484.06006-.73523.10431-1.47272.12427-2.21301.61047.5022,1.28656.93567,2.00848,1.21661.67249.24109,1.34851.50177,2.02069.77814,1.4292.9613,2.24445,2.76135,3.48462,3.96887.08972.09021.22931-.04987.14282-.13971-.8877-.97565-1.50092-2.23981-2.34937-3.27277,2.11505.97412,4.12213,2.19116,5.71149,3.85345.07336.11505.24097-.00482.16675-.11078-1.90747-2.30212-4.61359-3.75568-7.24066-5.09845-1.54431-.58386-2.91437-1.32928-3.927-2.62421.00116-.65509-.00403-1.31-.01746-1.96375,1.1694.66575,2.51979.89014,3.82965,1.02478,2.5083.61218,4.0542,3.30634,6.19232,4.68073.10171.07288.22068-.0843.11864-.16102-1.63279-1.26025-2.81372-3.0384-4.45898-4.30792.28687.0318.5791.06067.85779.09711,1.79895.36505,3.2804,1.61041,4.67004,2.80072,1.09338,1.01727,2.15906,2.12109,2.86572,3.43842.06128.11469.23041.01935.17816-.091-1.64014-2.9068-4.33612-5.78223-7.6012-6.80273Z" fill="#fff"/>
      </g>
      <path d="m198.73058,286.96021c.14557-.24335-.1543-1.17712-.1604-1.69873-.00153-.13275-.53455-1.47491-.8877-1.90302-.36072-.43713-.36414-.96271-.71924-1.64551-.20544-.39508-1.01147-.62299-1.81897-1.08337-.26984-.15381-2.19843-.55981-2.42242-.81055-.16089-.18011-1.04443-1.20728-1.17035-1.24255-.45923-.12885-1.55243-.22083-2.0553-.22083-.44569-.0158-1.66271.40676-2.15666.48154-.2525.001-1.48048-.16508-2.08949-.1489-.53668.01654-1.7207,2.16473-2.08197,2.53375-.38183.11813-1.35177-.05513-1.73352.0752-.89819.55444-1.18482,2.10681-1.30744,2.16473-.48938.23126-1.25897.52979-1.79858,1.19794-.57812.71582-.20831,2.43201-.30176,2.57031-.13934.2063-.94739,1.9469-.62891,2.99481.1803.59332.41699.99579.72107,1.30707-2.39813,1.89972-4.56702,4.17834-5.82581,6.92755-.00275-.0379-.00519-.07556-.00812-.11383-.12341-2.15033-.23541-4.33099-.33582-6.53674.0235-.50244-.00659-.98621-.06549-1.45966-.12164-2.81226-.22443-5.6524-.31653-8.49188,1.21753-3.1181,3.26172-6.13043,5.27899-7.7663.69025-.19958,1.53882-.03375,1.75891-.04065.57574-.09601,1.17548-.52783,1.50305-.94659,1.02972-1.31622,2.94196-1.03735,3.14368-1.13507.20178-.09772,1.21796-.20227,1.91595-.37146,1.18823-.28809,1.64465-.83966,2.56836-1.45544.79724-.53149.86395-1.20581,1.22906-1.59442.30975-.32977,2.32373-1.34033,2.49127-1.56122.73077-.96326.8418-2.30304,1.06293-2.75702.40076-.82269,1.53217-.87427,1.37262-1.31384-.04059-.11188-1.36682-1.66534-2.98627-1.31769-.52808.1134-2.33624-.49365-3.43347-.2627-.60132.12659-2.44855.46814-3.18549.99445-.45056.32184-.86847,1.03467-1.35156,1.20209-.28033.09711-.91058.26105-1.63495.67719-.44446.25537-.91162,1.24066-1.23431,1.50336-.31525.25659-1.18683.633-1.64575.99695-.38013.30145-1.15118,1.35956-1.34509,2.10461-.59607,2.5556-1.06091,2.9726-1.09174,4.37085-1.64392,1.3559-3.25275,3.45721-4.49939,5.83575-.01404-.47418-.02637-.94501-.03986-1.41864.77625-1.77478,2.69489-4.70312,4.20209-5.72534.17139-.11621.21631-.34961.1001-.521-.84344-.89545-3.74634,3.55731-4.34656,4.66608-.03094-1.14154-.06818-2.29205-.09625-3.42621.35915-1.11004,4.09602-5.7021,2.40821-6.16524-.20661.01814-.35895.20027-.34089.40633.09875,1.07611-1.34979,2.99622-2.10645,4.25116-.05121-2.15216-.0979-4.28436-.1413-6.38275-.01605-.66321-.98206-.61102-1-.0061-.05469,1.79321-.0918,3.58661-.11401,5.38013-.38257-.66681-.84772-1.29138-1.40631-1.95288-.13281-.15674-.36914-.17773-.52881-.04443-.1582.13379-.17773.37012-.04443.52881.90662,1.07355,1.56317,2.03357,1.97162,3.28558-.01691,2.51532-.00806,5.0307.02789,7.54584-1.77966-1.86078-3.47089-4.38062-4.0835-5.90466-.07764-.19238-.29688-.28369-.48779-.2085-.19238.07764-.28564.2959-.2085.48779.70233,1.74683,2.75189,4.74207,4.7912,6.6983.03125,1.84259.07361,3.68512.12775,5.52734-1.17834-1.71875-2.81665-3.23529-4.53821-4.6413-.04724-.57678-.48804-2.45215-.85632-2.85559-.07867-.08612-.42969-.25885-.65527-.57562-.25366-.35614-.39154-.86462-.63196-1.06354-.75262-.62274-1.43646-.30225-1.63098-.62225-.05017-.08252-.93542-1.31482-1.20306-1.46912-.16125-.09296-1.11615-.83649-1.67859-1.4032-.32214-.32458-.83209-1.20355-.94946-1.3642-.33209-.45441-.25879-.98029-.56598-1.20807-.26227-.19452-.30292.0921-.53577.05609-.59229-.04816-1.09125-.38269-1.63196-.45721-.1886-.01123-.60492-.43109-.7229-.62677-.13354-.2215-.52643-.32574-.62231-.33789-.31329-.03986-.45911,1.50531-.83441,1.63007-.55737.1853-1.85468.08344-2.39917.39288-.48132.2735-.69379,1.87018-1.29938,2.20941-.83362.46698-2.62787,1.85834-2.64325,1.91089-.42218.91907-1.33002,2.21692.32751,2.80194.47046.11658.85883.50287,1.14307.599.88977.30084,1.72449-.34692,1.99536-.24609.22345.08319.19391.43787.51611.42731.11133-.00366.74042.2406.9101.46564.32928.43683.51117,1.79028.88757,1.81567.21045.01422,1.61224.07043,2.16687.20441.98395.23767,1.0072,1.03851,1.83307,1.11969.76776.07538.67487-.69153,1.74713-.72662.57294-.0188.28241.48901.56195.55829,1.26733.31403,1.87701-.52393,2.41241-.51587.78918.01184.53314.35022,1.0343.25055.37079-.08911,1.42371-.41119,2.12775-.32947,2.50812,2.01111,4.87988,4.23694,5.83179,6.90076.2511,7.33795.65021,14.69818,1.1803,22.01123-2.59351-3.66284-4.84174-5.34454-7.56897-7.72882.41449-.40314,1.17859-.57874,1.44934-2.2807.08984-.56488-1.5238-.82184-1.64581-.90173-.28534-.18683.44537-.96124.65765-1.74451.31158-1.14996.23712-2.55792.03235-3.03094-.05286-.12201-1.31781-.45569-1.65363-.71655-.20233-.15723-.69812-1.21094-1.35797-2.08978-.37787-.50336-.7525-1.61652-.98944-1.75372-.37085-.21478-.72003.34772-1.13098.33289-.151-.00543-.81799-.33069-1.19373-.69922-.32092-.31476-.46875.19873-.77948.10565-.23077-.06915-.78394-.91089-.93628-.9906-.39484-.20673-.6189-.45551-.83191-.54297-.11859-.04865-.51831.45697-.7334.55566-.10193.04675-.12207.31732-.34888.52362-.19232.17505-.43555.11627-.67346.25769-.30603.18182-.43439.46613-.56287.4314-.41962-.11346-1.06537-.47321-1.60065-.3739-.79486.1474-1.95929,1.63562-2.76007,1.95465-.70795.28204-1.85938.30298-2.74902.65118-1.22479.47925-2.11633,1.26215-2.14728,1.33087-.20996.46625-1.75311,2.17578-1.38354,3.10565.20392.51312.45374.93835.50287,1.04132.13049.27362.19226.27716.27826.70728.0553.27655.92572.61371,1.00262.81079.04431.11365-.08759.61871.2627.80731.28888.15558,2.04919-.36816,2.49048-.32178.15247.01605.80212,1.00812.99091,1.34692.36646.65778,2.33612.68427,2.84448.79004.2843.05908.55084,1.43982,1.10052,2.00073.54968.56085,1.80444,1.94159,2.01642,2.06464.21204.12305,2.20306.26086,3.67395.39185,1.21796.10852,1.70032.87512,2.08685.78705,1.59106-.44336,2.60083-3.24432,3.54858-3.36511,2.99005,2.59888,5.38892,4.4151,8.27875,9.07562.16669,2.52161.31964,5.04291.43268,7.56805-2.72717-2.00885-4.13525-4.23541-8.15906-4.89648-1.45404-2.96552-5.16083-3.64838-7.63593-3.57556-3.19055.09381-7.2558,1.53149-7.1142,3.6344.125,1.85547,2.36548,1.69519,2.86115,2.55182.47308.81757.43842,2.55566,1.8559,3.55707,2.01508,1.42365,4.67218-.68085,5.95422-2.16516,1.42249-1.64697,2.32318-2.47913,3.97418-3.25848,3.98938.63666,5.37152,3.12653,8.30115,5.09796.16846,4.14844.2251,8.30847.04102,12.50092.00287,1.17072,1.74628,1.16925,1.74982,0,.1944-4.16968.13434-8.35449-.04681-12.54352,3.09363-2.50793,5.05566-4.3006,8.83453-4.80768.53308.50415,1.27002.69983,4.54169,1.8009,2.797.94135,6.51953,4.67743,8.62,3.13458,2.20148-1.61707-.35858-3.06525-.51349-3.86206-.14771-.75977,1.03772-2.17236,1.14526-2.57684.27448-1.03204-.92413-2.5061-4.56085-2.99463-2.26331-.30402-8.10004.8288-9.26843,3.74738-3.93048.56287-5.74719,2.11462-8.83862,4.62695-.29913-6.29169-.85352-12.59003-1.26709-18.86206.53253-3.89447,3.1228-7.00067,6.17938-9.4762.01684,1.84641.52264,1.40656,2.4235,1.7847.87872.15915,1.67515.44189,2.33425.46702.6145-.00001,1.51452-.32765,2.02753-.47291.50706-.04044,2.01345.30458,2.74248.01299.74287-.3001,1.34229-.90508,1.62904-.97972,1.04048-.28394,3.22244-.13034,4.58453-.11084.64393-.00842.90931-.91589,1.20203-1.07849.45166-.25085,1.07147-.3587,1.39514-.49414.7868-.32928,1.34576-1.08447,1.39783-1.36743.10291-.55951-.60712-1.46545-.51422-1.85687.02686-.11322.51898-1.14746.80811-1.63092Z" fill="#95c172"/>
      <g id="root_main_fade" data-name="root main fade">
        <path d="m173.00023,335.87494c-.48242,0-.87402-.39062-.875-.87354-.00146-.75439.0459-3.22998.0459-3.22998l1.75.0332c0,.00098-.04736,2.44775-.0459,3.19385.00105.48359-.39142.87663-.875.87646Z" fill="url(#linear-gradient)"/>
      </g>
      <g id="leaf_1_right_hi" data-name="leaf 1 right hi">
        <path d="m182.46344,316.93921c2.24631-.88847,4.84107-.85738,7.25133-.63827,2.43635.22149,5.44825,1.16153,5.59595,1.92133.15488.7968,2.71494,2.24499.51349,3.86203-2.10049,1.54287-5.82302-2.1932-8.62003-3.13456-3.68859-1.24142-4.15569-1.33097-4.74074-2.01053Z" fill="#a6d67c"/>
      </g>
      <g id="leaf_1_left_hi" data-name="leaf 1 left hi">
        <path d="m164.13379,316.73602c-3.66239-1.6705-5.91874-1.54853-8.41901-.75576-1.62532.51535-4.21196,1.93081-3.71626,2.78745.4731.81759.43843,2.55568,1.85587,3.55708,2.01511,1.42363,4.6722-.68087,5.95424-2.16518,1.52286-1.76312,2.43601-2.59333,4.32516-3.4236Z" fill="#a6d67c"/>
      </g>
      <g id="leaf_2_left_hi" data-name="leaf 2 left hi">
        <path d="m145.53971,295.26749c-1.22899.30725-3.37279,1.15144-3.00324,2.08132.20393.51313.45376.93836.50286,1.04133.13049.27361.19225.27718.27826.70732.05529.27652.92575.61366,1.00262.81077.04431.11364-.08759.61869.26268.80731.28893.15559,2.04924-.36817,2.49053-.32177.15247.01603.80208,1.00808.99088,1.34694.36648.65775,2.33612.68424,2.84447.78998.28431.05914.55086,1.43986,1.10054,2.00073s1.80446,1.9416,2.01644,2.06467,2.20303.26084,3.67391.39186c1.21795.10849,1.70036.87508,2.08687.78703,1.43291-.32646,2.65232-3.15294,3.33191-3.27141.59184-.10318.31366-.8173.11694-1.15514-1.22806-2.10907-4.6393-4.30226-5.32207-4.82843-4.78428-3.68697-11.14462-3.55974-12.37361-3.25249Z" fill="#a6d67c"/>
      </g>
      <g id="leaf_2_right_hi" data-name="leaf 2 right hi">
        <path d="m198.57017,285.26146c.00608.52164.30598,1.45539.16042,1.69877-.28915.48347-.78127,1.51768-.80814,1.63092-.09288.39143.61714,1.29734.51421,1.85689-.05205.28295-.61098,1.03813-1.39778,1.36739-.32371.13547-.9435.2433-1.39519.49418-.29268.16256-.55807,1.07002-1.20198,1.07843-.48359.00631-1.96873-.05114-2.36385-.07341-.73492-.04143-1.98567.12313-2.22071.1843-.28672.07463-.88616.67964-1.62903.97974s-2.50184-.08113-2.74246-.013c-.55042.15584-1.54627.52161-2.15711.46746-.56823-.05037-1.40128-.311-2.20474-.46154-.95357-.17867-1.85138-.25356-2.01704-.35971-.61081-.39139-.24359-2.00428-.58835-2.23984-.5102-.3486,1.60675-.07388,6.63568-4.28306,3.60722-3.01922,9.38362-4.06378,10.98689-3.66127,1.38162.34686,2.42765,1.20103,2.42919,1.33375Z" fill="#a6d67c"/>
      </g>
      <g id="leaf_3_left_hi" data-name="leaf 3 left hi">
        <path d="m146.76919,275.61659c-.10466.35645-.91502,1.47418-.5564,2.10653.1979.34895.56896.61741.88387.69544.47051.11658.85889.50285,1.14312.59895.8898.30084,1.72452-.34689,1.9954-.24606.22344.08317.19388.43788.51608.42728.11132-.00366.74044.24062.91008.46567.32929.43682.51118,1.79025.88756,1.81568.2105.01422,1.61227.07042,2.16687.20438.984.23768,1.00722,1.03853,1.83312,1.11967.76771.07542.67482-.69149,1.7471-.72661.57292-.01876.28241.48899.56197.55827,1.26733.31405,1.87698-.52389,2.41239-.51584.7892.01186.53315.35023,1.03429.25054.32815-.06528,1.0603-.32721,1.77089-.33613.69755-.00876,1.32757.14452,1.51064-.25216-1.52287-.84505-4.01987-2.09549-7.4901-5.32826-2.83869-2.98623-7.91001-3.69927-11.32688-.83736Z" fill="#a6d67c"/>
      </g>
      <g id="leaf_3_right_hi" data-name="leaf 3 right hi">
        <path d="m193.892,262.91553c.15956.43957-.97186.49117-1.37259,1.31386-.22114.45399-.33217,1.79372-1.06295,2.75702-.16755.22087-2.18149,1.23142-2.49128,1.5612-.36509.38865-.43182,1.06295-1.22903,1.59442-.92371.61581-1.38013,1.16737-2.5684,1.45543-.69799.16921-1.71415.2738-1.9159.37151s-2.11395-.18119-3.14369,1.13506c-.3276.41876-.92733.85056-1.50307.94652-.23428.03905-.86361-.19191-1.60728.02399-.22878.06642-.47919-.00674-.67631-.18751,3.4994-3.08799,5.44055-5.99971,7.92522-8.13498,4.38154-3.76539,9.60469-2.94836,9.64529-2.83652Z" fill="#a6d67c"/>
      </g>
      <g id="bud_2" data-name="bud 2">
        <path d="m163.32709,269.9014c-.87357,0-1.63014.42731-2.13037,1.20328-1.17159,1.81747,1.47223,5.31302,2.25363,6.04227.7758.72403,1.64105,1.10672,2.50218,1.10672,1.33364.01902,2.73202-1.05658,2.81636-2.45561.12432-1.38384-.81947-2.73207-1.39312-3.41255-.49126-.58276-2.23506-2.4841-4.04868-2.4841h0Z" fill="#2e541a"/>
        <path d="m163.32709,271.1514c2.25358.07029,6.50683,5.29939,2.62545,5.8523-1.92526.04841-4.24068-4.07144-3.7053-5.22171.29114-.45151.66769-.63059,1.07985-.63059" fill="#95c172"/>
      </g>
      <g id="bud_8" data-name="bud 8">
        <path d="m176.21341,260.23178c-2.01823,0-3.50136,2.80875-3.66382,3.129-1.65497,3.31423.00304,4.89562,1.86561,5.04384,1.49827-.0196,2.36689-1.30429,3.03733-2.18369,1.40355-1.86994,1.39518-5.92088-1.23912-5.98915h0Z" fill="#2e541a"/>
        <path d="m176.21341,261.48178c1.2198.03933,1.15889,2.70104.24323,3.98378-.52547.6928-1.20158,1.68898-2.04137,1.68898-3.10079-.44555.129-5.63121,1.79814-5.67276" fill="#95c172"/>
      </g>
      <g id="bud_7" data-name="bud 7">
        <path d="m178.13185,266.44589c-1.14703,0-2.36166.81097-3.33763,1.46262-2.717,1.60004-2.48678,5.56673.62338,5.73435,2.14709.011,4.3178-2.19092,4.78857-4.3488.32295-1.75957-.57984-2.75264-2.07432-2.84816h0Z" fill="#2e541a"/>
        <path d="m178.13187,267.69589c2.07372.26272.11303,3.43925-1.13349,4.16167-.42996.24876-1.03001.5352-1.58085.5352-1.85993-.18349-1.54277-2.51756.07084-3.44459.85366-.57009,1.88438-1.25228,2.6435-1.25228" fill="#95c172"/>
      </g>
      <g id="bud_6" data-name="bud 6">
        <path d="m165.21249,261.87518h-.02501c-2.84145.1242-1.84441,3.96072-1.16165,5.29682.67035,1.51452,1.98854,2.49313,3.35817,2.49313,1.53848-.07591,3.40569-1.08874,2.13286-4.29847-.4015-.9616-2.33299-3.49148-4.30437-3.49148h0Z" fill="#2e541a"/>
        <path d="m165.21249,263.12518c1.93838.01846,5.43277,4.9606,2.17156,5.29-.8695-.00005-1.75057-.69936-2.21529-1.74917-.58233-1.32235-1.15545-3.54297.04373-3.54083" fill="#95c172"/>
      </g>
      <g id="bud_4" data-name="bud 4">
        <path d="m171.05803,258.37642c-2.48185-.00897-2.92512,4.92516-2.82761,6.12444.06298.75555.25457,3.05478,2.61592,3.38455,1.62255.1959,3.27972-1.082,3.38384-3.30412.03327-1.62486-.68503-6.17313-3.17216-6.20487h0Z" fill="#2e541a"/>
        <path d="m171.05803,259.62643c1.1954,0,1.97383,3.51111,1.92297,4.90942-.06922,1.40971-1.03665,2.21127-1.96176,2.11159-2.67956-.1145-1.38033-6.93766.03878-7.02101" fill="#95c172"/>
      </g>
    </g>
  </g>
</svg>