<?xml version="1.0" encoding="UTF-8"?>
<svg id="Layer_2" data-name="Layer 2" xmlns="http://www.w3.org/2000/svg" xmlns:xlink="http://www.w3.org/1999/xlink" viewBox="0 0 394 469">
  <defs>
    <linearGradient id="linear-gradient" x1="173.0422" y1="335.22273" x2="173.0422" y2="331.12504" gradientUnits="userSpaceOnUse">
      <stop offset="0" stop-color="#fff"/>
      <stop offset=".34875" stop-color="#fff"/>
      <stop offset=".90496" stop-color="#fff" stop-opacity="0"/>
      <stop offset="1" stop-color="#fff" stop-opacity="0"/>
    </linearGradient>
  </defs>
  <g id="CASE_3_Plants_LH_WH_CH" data-name="CASE 3 Plants LH WH CH">
    <g id="Day_8" data-name="Day 8">
      <g id="rectangle">
        <rect width="394" height="469" fill="none"/>
      </g>
      <g id="ROOTS_BACK" data-name="ROOTS BACK">
        <path d="m190.59306,340.96875c-.44049-.43646-.9046-.8291-1.37897-1.20264.94298-1.73751-2.28821-2.80083-3.63098-3.08246-1.03839-.13562-1.75342-.026-2.63153-.12445-.73822-.23407-1.48706-.44458-2.24902-.62244-1.95654-.34644-4.05005-.43359-5.83136-1.23657.00031-.04315.00378-.08508.00378-.12836-.04596-2.2702-3.06458-2.45868-3.646-.60358-1.55737,1.51367-4.04669,2.53229-6.14612,2.90515-3.07715.36096-6.48755.95294-8.74561,3.43549-.48029.52423-.4754,1.34143.02722,1.85675.52527.53955,1.39319.54321,1.92389.00958.24164-.23578.49908-.44183.76813-.62573-.87036,1.54297-1.63232,3.47003-.10486,4.04126.7149.24481,1.49347-.14886,1.72235-.86865.63873-1.7041,1.84924-4.05811,3.62579-4.64514.40576-.03748.81079-.07202,1.21082-.10608,1.60614-.25305,3.14471-.64557,4.57886-1.26038-.65511.49108-1.19298.80811-1.85034,1.22467-.90912-.04193-1.90411-.07324-2.81909.18677-1.46936.4826-4.56317,1.79767-3.39569,3.57648.19965.27069.48541.43018.78943.49969-.70264.82965-1.29596,1.75067-1.68152,2.82812-.55432,1.659,1.88062,2.55475,2.53351.93347.95728-2.30048,3.50256-3.79279,5.86768-5.11816-.4657.77649-.8667,1.58386-1.39069,2.21057-1.46265,1.00146-7.63184,6.98126-4.71759,8.42029,1.62021.63029,1.89247-1.31481,2.65643-2.2467.21979.32935.58417.54822.97479.60846-1.15356.52655-2.18335,1.26306-2.4566,2.60474-.12991.658.25801,1.34429.92163,1.54016-.64178,1.36365-1.16943,2.98029.30005,3.52557.71478.21112,1.46539-.19714,1.67651-.91187.53894-1.77325,1.58539-3.62915,3.12994-4.73291.5246-.48663.93262-1.05109,1.28955-1.64508.03357.47662.04797.95081.04059,1.42218-.48834,1.23822-1.79675,2.01233-2.53931,3.25696-.6933,1.01843-1.53204,3.22357.24249,3.65344.73126.14618,1.44263-.32806,1.58862-1.05945.06213-.23438.16046-.45764.28284-.67413-.17383,2.07855-.18451,4.18219.57684,6.39374.60938,1.63458,3.05151.81317,2.56366-.84729-.23566-.72968-.34656-1.48193-.3822-2.24847.95398.79739,1.49349,2.66878,2.99324,1.93567,1.99746-1.31929-.84832-3.66746-1.68202-4.65131-.57855-.61768-.84375-.99683-.93292-1.70807.14655-.93341.30103-1.87134.40137-2.80396.22001.29139.52636.52312.77753.79572.82159,1.06543,1.25806,2.41016,1.38226,3.81549.08466.67828.05444.98492.2049,1.78815.36268,1.34098,2.36165.89758,2.11414-.47174.90088.35638,2.15363-.33472,1.83423-1.59497-.7345-2.20728-2.11353-4.02441-3.7002-5.66071.87994-.08691,1.66632-1.04199,1.06482-2.04926-.27002-.35785-.45673-.73499-.6131-1.11932.79675.95026,1.32922,2.0672,1.51874,3.35773.11548.70569.76605,1.2038,1.4845,1.12225,1.78979-.3443,1.20587-2.46063.54565-4.01697.52008.28308,1.00348.64539,1.42908,1.14685.49377.52234,1.31622.56744,1.86481.0921,1.4082-1.4624-.7655-3.02429-2.41553-3.88861.80475-.2074,1.4303-1.13593.83185-2.05823-.48657-.67737-1.0188-1.22662-1.58435-1.70624.73779.1178,1.39203-.45129,1.52319-1.13104.7287.70929,1.3504,1.52972,1.75897,2.32861.32922.63794,1.10571.90948,1.76434.60602,2.19299-1.15424-.98523-4.39563-2.00537-5.46332-.258-.23785-.52991-.46814-.81244-.68976,1.72821.67499,3.36414,1.58929,4.64191,2.78607,1.27094,1.19293,3.09558-.63123,1.91248-1.90417Zm-15.63898,8.73853c-.00488-.06281-.01093-.12512-.0155-.18817.01813.073.0293.14044.05072.21558.01068.04187.02722.08185.03857.12354-.02429-.05151-.04968-.09827-.07379-.15094Zm.84015-4.9079c-.33246-.211-.63763-.42664-.92133-.64276.74878.31519,1.51868.59949,2.26923.90582.42517.35602.76105.82562,1.15991,1.44629-.01312-.00861-.02826-.01672-.04077-.02545-.80505-.63348-1.65479-1.1922-2.46704-1.6839Zm4.72803,2.20081c.20544.17603.38269.35461.53009.53497-.30359-.10657-.60077-.20343-.8869-.29468.12946-.06311.25073-.14301.35681-.2403Zm-12.047,4.02295c.25104-.55066.41046-1.367.41162-2.03894.08411-.42609.46173-.87189.79883-1.28113.26129-.2066.52173-.40979.77832-.61029.18848-.17383.36139-.38562.52881-.60895.0188.11218.0376.22528.05658.33905-.48206.86163-.82391,1.8905-1.12915,2.46124-.24707.54407-.54645,1.24127-.88037,1.77826-.2406.0885-.48834.17926-.74451.27161.06732-.09161.12939-.19226.17987-.31085Zm9.57391-8.8891c-1.05878-.45392-2.0658-.81299-2.94287-1.4137.85828.22528,1.75476.35321,2.63391.45459.41736.12659.64709.32495,1.09302.81036.32074.3736.69611.77087,1.09607,1.14856-.60156-.34741-1.22772-.67041-1.88013-.99982Z" fill="#4c4c4c"/>
      </g>
      <path d="m193.8969,293.80249c-.3053-.55615-1.72052-1.53833-3.26331-2.05859-1.77175-.58347-4.88746-.52261-6.39655.47717-.07581.03302-.15344.07135-.23169.11176-.20276-.05049-1.10177-.08161-1.32177-.01006-.66278.14598-1.14997.60472-1.48859.95098-.32136.00468-.82473-.03686-1.365.395-.48633.42572-.5869,1.25376-.97601,1.84084-.4499.19146-1.12211.3204-1.46381.53258-.58279.24086-.73743,1.40853-.93017,2.27155-.36955.60081-.62292.75661-.89838,1.09435-.43733.52398-.6145,1.79043-.78708,2.78554-.20527.67122-.96879,1.0351-1.03621,1.79845-.06689.59542.28916,1.00289.40014,1.52918-.54169,1.04736-1.04773,2.35547-1.36444,3.23773-.02448.05969-.05237.11743-.07648.17731-.37066-1.04826-.85303-2.31995-1.24677-3.44867-.21063-.60363.20431-.96282.21782-1.56897-.01228-.87042-.76-1.8005-.78198-2.77711.02237-1.75107-.00897-5.43278-.37446-5.59496-.19832-.3718-.6399-.71063-.92851-1.07471-.22708-1.87041-.20289-3.19928-2.31354-2.94275-.23195-.11958-.47305-.64664-.50923-.95773-.03979-.44459-.46328-1.02233-.856-1.20658.04766-.44491-.48413-1.2375-.99115-1.41486-.3587-.81005-.69936-1.90429-1.82654-1.88849-.43171-.00753-.6806.22892-1.06543.21606-.39528-.66231-.92874-1.39693-1.84304-1.29617-.10671.00687-.41251-.00458-.40233-.02298-.99031-1.04969-1.98098-1.71404-3.26117-.49487-1.2038-.60876-2.25116-.74255-2.93884-.74255-.70496,0-1.63788.12207-2.07916.70355-.82937,1.0764-.18721,2.61761.00281,3.93054-.01423.4954-.40264.79322-.24813,1.44532.07089.31842.20083.53137.28604.65875.00287.04834.00433.13293-.00378.26733-.14235.37905-.34328.72771-.26899,1.30847.03438.66791.93284,1.22733,1.63721,1.76062.04598.40075-.00828.78312.4533,1.23188.30488.27453.7455.40383,1.12874.64959.1357.86052-.22286,1.90555.36395,2.61932.50517.69114,2.67444,1.08399,3.33753,1.70801.40344.62876,1.13052,2.96495,1.59661,3.29645.35291.33008.75642.38055,1.31495.45038.85547.10693,2.44788.30609,3.16205,1.29718.50934.70679.56836,1.1084.60748,1.37408.02692.18304.06042.41083.18903.65436.35779.67731,1.06714.80493,1.63715.90753,1.4656.16185,2.40895,1.6684,2.96112,2.72919.32934,1.02339.60882,2.07104.78979,3.1416-1.25906-1.31086-2.94562-2.37268-4.33331-2.74023-5.78886-10.24852-19.5782-.27386-11.26617,3.07452-.78664,4.54592,4.55172,5.70067,7.86293,3.60468,1.70649-1.05873,1.90701-2.31535,2.74974-3.49116,2.41497.87906,4.88382,4.06007,5.62317,6.30841.18079,4.65063-.01746,9.47766.04456,13.88867-.00275,1.00964.79822,1.84772,1.81409,1.88043,1.05981.03668,1.93793-.82227,1.93591-1.88043.17942-4.62318.20897-9.35296.00446-14.04419.74398-2.89162,2.7866-7.78842,6.1557-9.09467.34338.35577.69623.77222.98712,1.33575,1.2547,2.43103,4.17194,4.26428,6.78571,4.26428,3.3193.09249,4.57941-3.36927,3.13916-5.41412,2.61935-3.3366-.75502-7.12303-4.49859-7.0808-2.21701.01696-5.02268,1.43808-6.72626,3.57561-2.11981.43683-4.2449,2.25751-5.57892,4.17261.14148-.62122.31573-1.23761.50464-1.8512.33392-.76636.88086-1.92621,1.54071-2.2298.3465-.15942.97888-.37048,1.35675-.49658,1.21707-.28766,1.79596-1.4133,2.63268-2.27389.39637-.40751.6786-.40953.80049-.40953.50937.04764,1.01029.11399,1.42383-.19455.49092-.28882.99648-1.56301,1.42108-2.17117,1.58266.32364,2.13056-.7917,2.836-2.11139.65225-.16287,1.26695-.51068,1.37122-1.13629.42508-.11633,1.07534-.26154,1.31018-1.00983.08997-.21514.21808-.51394.28424-.7215.36902-.05573,1.0412-.20752,1.31604-.92395.09943-.26489.18945-.42114.25897-.51538.64034-.24483,1.40605-.30416,1.77509-1.15209.15911-.39136.13055-.83417-.07838-1.21485Z" fill="#2e541a"/>
      <g id="ROOTS">
        <path d="m189.69139,341.83435c-1.61395-1.57764-3.5943-2.7677-5.71503-3.60211.47119-.01703.94049-.0376,1.39764.00195.91809.10919,1.78162.55383,2.60706,1.01807.11157.06531.21198-.10553.10321-.17133-.81561-.50018-1.67523-.99713-2.66827-1.15851-.90253-.11713-1.78052-.01495-2.66736-.12665-2.85248-1.04354-6.08135-.75338-8.79608-2.14185-.14227-.08051-.26544-.17896-.35541-.27295.01184-.2688.02618-.53662.02783-.80914.00438-.84295-1.26975-.81302-1.25122.01343-1.81207,1.91815-4.54822,3.05212-7.11993,3.52637-2.8056.33154-6.0033.83258-8.01324,3.06128-.09052.09375.06152.22729.14453.13824,1.43939-1.42511,3.29871-1.99945,5.2334-2.29279-1.69037,1.17273-2.68512,3.4162-3.32959,5.27515-.03821.12402.15497.17993.19092.05896.83679-2.16907,2.25433-4.97491,4.68848-5.52289.39191-.03601.7832-.06781,1.17126-.09698,2.47729-.36462,4.96503-1.20105,6.94434-2.76764-.07367.85175-.17261,1.71808-.26831,2.59235-.74252,1.08404-2.27195,1.8771-3.43414,2.64441-.92761-.03741-1.91632-.13428-2.86896.13568-1.0188.26886-1.89453.8526-2.67871,1.49359-.1001.08008.0249.23517.12384.15723,1.40234-1.17566,3.04547-1.53253,4.78625-1.38141-2.34155,1.49615-4.66925,3.17798-5.63873,5.85162-.04468.12195.14624.18585.18762.06915,1.39288-3.2818,4.82678-4.82343,7.7439-6.51782.53967-.3382,1.11713-.65381,1.64331-1.07855-.06274.71082-.10443,1.42273-.11249,2.13385-1.27087,1.00201-1.60907,2.58508-2.60767,3.7337-2.12683,1.76782-4.29706,3.75549-5.29761,6.41315-.04633.1214.1416.18872.18616.07312.80835-1.86548,2.18604-3.32892,3.71338-4.62628-.11823.21368-.22729.43439-.3092.67487-.1825.75751.00043,1.44379-.3269,2.15955-.04541.12.13953.19122.18604.07306.34619-.64636.24512-1.48444.42645-2.14044.22607-.5824.64215-1.10638,1.06018-1.61383.25854-.20251.51843-.40234.77838-.59955.87817-.86829,1.37903-2.19983,2.20831-3.07727.01617.33502.03607.6698.07532,1.00262.11365.62982.31183,1.81342.50305,2.97369-.98293,1.61332-1.4604,3.49289-2.53961,4.99597-1.43793.62372-3.53003.86926-4.00317,2.59998-.02985.12695.1712.16846.19543.04187.43823-1.4436,2.07367-1.72852,3.41315-2.1814-1.71326,1.39856-2.77765,3.50714-3.32288,5.62225-.03052.12726.1651.16998.19403.04852.63971-2.04913,1.74536-4.02539,3.50134-5.31671,1.34137-1.33069,1.88226-3.11322,2.74487-4.69305.09906.60706.18768,1.15369.24658,1.52081.38245,1.39313.45471,2.79395.40326,4.19684-.66223,1.94946-3.14166,3.08569-3.37378,5.289-.02118.12714.17743.15723.19727.03284.32391-1.80518,2.06342-2.75879,3.10938-4.14783-.06415.82324-.15186,1.64661-.2348,2.46912.00031.00372-.00317.00507-.00275.00891.00012.00244.0011.00433.00122.00677-.24371,2.42078-.41321,4.83368.4035,7.2099.04095.12726.22937.04907.18964-.06274-.56604-1.96631-.49133-3.93109-.25916-5.90649.73328,1.57184,2.5144,2.55597,3.35437,4.09198.06543.1106.23541.00958.1734-.09967-.90198-1.92456-3.29926-2.98389-3.36237-5.2652.27612-1.96216.60541-3.9375.52863-5.93835.81384,1.22375,1.80194,2.34741,2.82306,3.36407,1.35181,1.71204,1.46191,3.92438,1.64984,6.04022.01404.12714.20697.10156.19611-.01984-.07581-1.67615-.14075-3.50507-.82721-5.09375.92834,1.09851,1.72388,2.31201,2.21588,3.64948.02832.13053.23205.07885.19385-.04944-.62341-1.79803-1.75616-3.35956-3.04834-4.74591-.01001-.01379-.01678-.02887-.02692-.0426-1.34296-1.46887-2.51923-2.93542-3.34692-4.74377-.01959-.11823-.03162-.23608-.05499-.35449-.11139-1.36261-.2688-2.82568-.4328-4.24164.49811.38385,1.0282.70856,1.54993,1.01294.16437.08331.32526.17877.4884.26727.56885.8045.65094,1.80713.90057,2.75183.2641,1.02582.74762,1.97949,1.32166,2.85291.03003.04498.091.05865.13696.0296.04669-.02948.06067-.09125.03113-.13794-.54541-.87567-.99146-1.81311-1.22308-2.81183-.18097-.77875-.26562-1.62396-.59277-2.37024,2.47992,1.46411,4.65057,3.57642,5.01398,6.56647.01917.12848.21179.09827.19836-.02539-.18085-1.93994-1.12512-3.75098-2.49945-5.12207.77747.26685,1.57159.44141,2.31769.72192,1.18982.40741,2.27203,1.09271,3.12726,2.01886.08481.09522.23533-.03776.14899-.13312-1.6015-2.10535-4.48981-2.34045-6.61676-3.50513-1.42401-1.15173-3.24396-1.93274-4.43927-3.27173-.01147-.09607-.02301-.19611-.03442-.29126-.07739-.7583-.08521-1.50745-.05536-2.25415,1.37476,1.1123,3.12213,1.6192,4.77887,2.2851.75608.52985,1.17816,1.36807,1.7146,2.12671.07146.10681.24027-.00253.1665-.11053-.33539-.61603-.74219-1.21454-1.22668-1.73047.52032.23285,1.02954.4848,1.50073.80066.82324.51849,1.64453,1.09344,2.21594,1.8772.07513.10626.2345-.00531.16669-.11072-1.1709-1.66925-3.01807-2.66705-4.80286-3.55396-1.68427-.68933-3.28015-1.32007-4.44348-2.69257.05707-.68304.13397-1.36755.21301-2.05609,1.34277.99231,2.96381,1.22473,4.6048,1.40674.27936.07263.55103.16339.79749.30426,1.23163.73425,2.03442,2.46619,3.37543,2.92413.03369-.04382.02545-.10657-.01837-.14026-.77655-.5965-1.43066-1.30554-2.03723-2.0816-.23676-.32727-.54077-.61139-.87219-.86047,1.67963.21509,3.3056.58215,4.58594,1.90387.99316.86169,1.84979,1.90521,2.45343,3.08539.05878.11603.23083.02661.18054-.08624-1.17767-2.43433-3.2207-4.63965-5.94312-5.31799-2.33368-.5589-5.35413-.45319-6.9975-2.32416.02954-.28424.05426-.5705.07831-.85767,2.50128,1.203,5.32898.86621,7.96008,1.48199,2.90253.74536,5.85272,1.91956,8.05975,4.0036.0946.09338.22797-.04816.14441-.13861Z" fill="#fff"/>
      </g>
      <path d="m174.43224,310.02448c.42487-.9873,1.09778-2.50385,2.23401-3.02661.55609-.2558,1.58398-.57349,1.80792-.65741.54395-.2038,1.02277-1.04181,1.80798-1.849.86919-.86782,1.52279-.82768,2.3128-.7406.33876-.04427.8476-1.53584,1.38145-2.1178.4047-.51916,1.19735-.14591,1.67227-.30493.16112-.14869.71959-1.01709,1.00841-1.64753.1488-.32477,1.01782-.4978,1.13519-.57629.04694-.03137.07605-.59155.33002-.75537.30792-.19855.9895-.27234,1.02197-.37988.05627-.18652.32977-.73346.3501-.99237.0592-.75562,1.17975-.47882,1.27972-.7395.03766-.09808.21069-.59387.55176-.97107.40723-.45032,1.70178-.4494,1.47522-.86224-.05768-.10504-1.04059-.96075-2.56696-1.47552-1.44222-.49225-4.25394-.42195-5.46736.42605-.21666.085-.45415.26774-.69158.26774-.24059-.04887-.51035-.1015-.84644-.09282-.62842-.08993-1.19117.72743-1.46631.93694-.27883.15904-.86224-.05341-1.12207.15423-.07819.06658-.5885,1.65307-1.06409,1.92608-.42035.24133-1.39624.4765-1.52679.55756-.10748.06677-.3504,1.56873-.44781,1.73596-.47961.82336-.96368,1.21521-1.03668,1.31348-.29138.39221-.41699,1.51355-.56274,2.27502-.15613.8158-1.005,1.54315-1.02063,1.69305-.02332.22351.66821,1.20978.30267,1.9057-.51031.97137-1.00781,2.24969-1.32196,3.12115-.53424,1.29645-.98401,2.6322-1.31323,4.00464-.1908-.76685-.43066-1.51825-.6958-2.26123l.02991-.01947c-.10797-.6983-.97479-2.86389-1.71228-4.97211-.36176-1.03418.13531-1.72284.14886-2.03577.00909-.20984-.73358-1.51398-.7821-2.67065-.04529-1.07959.09442-4.45679-.22717-5.05701-.08057-.15045-.67035-.65204-.96808-1.1095-.14722-.22614-.25378-2.11035-.38831-2.2243-.32173-.13994-.78062.06537-1.15929-.07305-.18733-.05018-.61836-.29859-.98249-.86775-.31091-.48602-.37537-1.16888-.44189-1.2525-.1925-.24207-.51166-.25299-.60828-.45142-.2757-.56616-.1601-.78156-.25427-.88934-.28394-.32489-.33618-.12439-.58765-.37317-.26461-.25986-.61727-1.59118-.9032-1.58423-.52076.17185-1.34648.3726-1.88764-.00779-.14795-.0848-.62652-1.07254-.86346-1.07431-.39349.00075-.78421.0388-1.17773-.16821-.46381-.24744-.94428-1.00482-1.302-1.00488-.36987.03749-.78147.75037-1.35322.74851-.10534.00002-.21331-.02604-.32342-.08799-1.3311-.74264-2.79759-.96552-3.71666-.53687-.39675.52289.04771,1.71576.24266,2.98523.10754.70056-.29541,1.22034-.26355,1.36328.08453.37982.37952.26794.3067,1.32178-.0249.36115-.31628.73413-.27679,1.00287.02277.15491,1.00867.80243,1.39258,1.1391.31671.27777.24231,1.05603.30066,1.10889.14575.1322,1.30859.54834,1.44733,1.02655.26935.92822-.013,2.14594.17883,2.38379.23401.29016,2.87653.9411,3.40289,1.80078.52637.85974,1.18219,2.86047,1.41205,3.07538.2298.2149,3.26611.02679,4.63739,1.92981.9176,1.27338.77429,1.96075.8877,2.17548.1557.29474,1.35394.21014,2.06836.67651,1.22339.79865,2.06299,1.94843,2.57483,3.03674.88395,2.60227,1.19766,5.25632,1.40033,8.01984-1.28097-2.46516-4.28249-5.64627-6.95209-6.0274-1.63123-3.20541-4.01919-4.31299-6.31375-4.37394-2.53561.00003-5.37204,1.79911-5.41555,3.45377-.04016,1.52814,2.14252,1.53912,2.48242,2.27826.32446.70544-.4187,2.25018.66449,3.17853,1.45544,1.2751,3.94153.90357,5.37256-.00001,1.86779-1.17229,1.6405-2.87938,3.09106-3.79064,3.07462.51687,6.35972,4.66246,7.18933,7.45685.19226,4.71735-.01239,9.58673.05164,14.09845.0015.81796,1.24744.82157,1.25,0,.18182-4.72102.20787-9.41649-.00555-14.18182.83984-3.54524,3.51391-9.46855,7.76642-10.37494.48529.48993,1.19934,1.11902,1.74719,2.18036,1.1037,2.13837,3.69873,3.58759,5.67493,3.58759.96246,0,1.77838-.34399,2.20325-1.11957.93958-1.71521-.72522-2.81451-.44189-3.2193.34668-.49524.78467-1.26746.91309-1.56812.79633-1.86499-1.44281-4.08813-4.03406-4.08795-1.90174.018-4.60458,1.41015-5.99438,3.46069-4.05218.64519-6.6868,5.38617-7.98444,9.00867-.04633-.50415-.09961-1.00702-.164-1.50739.09192-2.23934.44149-4.48335,1.12671-6.65375Z" fill="#95c172"/>
      <path id="root_main_fade" data-name="root main fade" d="m172.375,334.57266l.00827-2.80002c.00108-.36615.2988-.66211.66496-.66104.3756.00022.67732.31661.66049.69168-.00515.04053-.08041,2.75149-.0844,2.79012-.02663.80561-1.2493.78506-1.24932-.02074Z" fill="url(#linear-gradient)"/>
      <g id="leaf_1_right_hi" data-name="leaf 1 right hi">
        <path d="m181.13877,309.68065c2.17282-.99954,4.25833-1.07358,6.09833-.64064,1.69371.39852,3.67888,1.83708,3.3322,2.33233-.28333.40475,1.38149,1.50406.44189,3.2193-1.29717,2.36799-6.23696.7118-7.87817-2.46804-.64974-1.25887-1.5373-1.91219-1.99424-2.44295Z" fill="#a6d67c"/>
      </g>
      <g id="leaf_1_left_hi" data-name="leaf 1 left hi">
        <path d="m165.52295,312.73559c-2.50915-1.47769-3.55693-1.63512-5.36163-1.40895-2.6034.32626-4.49532,1.49108-4.1554,2.23022.32443.70544-.4187,2.25016.66447,3.17852,1.53989,1.3198,4.007.85705,5.37255,0,2.0209-1.26836,1.58483-3.16497,3.48001-3.99978Z" fill="#a6d67c"/>
      </g>
      <g id="leaf_2_right_hi" data-name="leaf 2 right hi">
        <path d="m192.80105,294.4039c.22658.41282-1.068.4119-1.47521.86223-.34107.37718-.51412.87298-.55174.97107-.09998.26066-1.22055-.01609-1.27975.73951-.02029.25891-.29381.80581-.3501.99236-.03245.10754-.71402.18137-1.02194.37992-.25399.16378-.28307.72396-.33002.75534-.11737.07847-.98641.2515-1.1352.57629-.28881.63043-.84727,1.49882-1.00844,1.64745-.1966.18131-1.2083-.2498-1.67232.30497s-1.09888,1.96927-1.28458,2.09762-1.2362-.44552-2.40964.76081c-.7852.80721-1.264,1.64521-1.80793,1.84902-.22397.08392-1.25184.40159-1.80793.65743-1.30107.59858-1.44013.57883-1.44013.57883,1.63699-3.77768,6.37499-8.71082,7.15528-9.55666,5.46114-5.91993,10.362-3.72121,10.41965-3.61618Z" fill="#a6d67c"/>
      </g>
      <g id="leaf_2_left_hi" data-name="leaf 2 left hi">
        <path d="m152.49295,285.18017c-.39676.52285.04769,1.71569.24262,2.98521.10757.70056-.2954,1.22033-.26357,1.36326.08457.3798.37955.26793.30674,1.3218-.02495.36111-.3163.73413-.27682,1.00282.02276.1549,1.00866.80247,1.39261,1.13914.31671.27772.24232,1.05599.30062,1.10885.14579.13218,1.30858.54835,1.44734,1.02655.26934.92821-.01297,2.14593.17886,2.38378.23401.29015,2.87652.94112,3.40289,1.80083s1.18219,2.86046,1.41199,3.07537,3.26613.0268,4.63742,1.9298c.9176,1.27339.77427,1.96074.88767,2.17544.1557.29477,1.35399.21016,2.0684.67655,1.67147,1.09118,2.27463,1.28051,2.27463,1.28051-3.20471-5.16083-5.32458-11.02158-8.6681-14.42083-4.02795-4.09508-6.95599-5.99207-9.3433-8.84909Z" fill="#a6d67c"/>
      </g>
    </g>
  </g>
</svg>