<?xml version="1.0" encoding="UTF-8"?>
<svg id="Layer_2" data-name="Layer 2" xmlns="http://www.w3.org/2000/svg" xmlns:xlink="http://www.w3.org/1999/xlink" viewBox="0 0 346 469">
  <defs>
    <linearGradient id="linear-gradient" x1="172.93384" y1="336.00184" x2="172.93384" y2="330.77163" gradientUnits="userSpaceOnUse">
      <stop offset="0" stop-color="#fff"/>
      <stop offset=".34875" stop-color="#fff"/>
      <stop offset=".90496" stop-color="#fff" stop-opacity="0"/>
      <stop offset="1" stop-color="#fff" stop-opacity="0"/>
    </linearGradient>
  </defs>
  <g id="CASE_3_Plants_LH_WH_CH" data-name="CASE 3 Plants LH WH CH">
    <g id="Day_16" data-name="Day 16">
      <g id="rectangle">
        <rect width="346" height="469" fill="none"/>
      </g>
      <path d="m221.80962,268.42212c-.36359-1.33417-2.42456-3.32648-4.11536-3.6142-1.13067-.22285-2.30687-.28513-3.45301-.86894-.60961-.28347-1.36828-.63619-2.24261-.7828-.9285-.11783-2.66749.07759-3.55127-.30665-1.69219-.89276-2.78916-2.17547-5.29316-2.17051-.32997-.07324-2.24845.5349-2.96782.69188-.22402.03023-1.99322.22704-2.82099.21442-1.30766-.01808-2.57412,1.13076-3.63139,1.79305-.82975.42234-2.35555.44418-3.13857.80462-1.42302.72355-2.22655,2.02702-2.61608,2.66374-2.35832.88209-3.96561,1.93565-3.5627,4.69277.01955.22855.0486.56681.02614.70481-1.17469,1.66746-2.00296,4.49046-.69403,6.53363-2.87036,2.34991-6.42395,5.66412-9.31201,9.44678,1.3388-23.52446.79685-47.50411.93555-71.16693.53522-1.39832,1.16577-2.6225,2.77142-4.24023.33013.09676.61708.224,1.00562.22955,1.07749.00974,1.79964-.50218,2.55151-.87567.05762-.02649.18225-.0581.44891-.0581,1.0077.03624,2.24191.24552,3.26886.01975.67011-.13635,2.1355-1.10135,2.86383-1.24179.5886-.02917,1.06451.08298,1.64685.08662.56561,0,1.09155-.11439,1.70526-.37086,1.21894-.53494,1.62814-1.3546,2.11041-2.06677.71909-.28975,2.12962-.63199,2.47997-1.02681,1.05275-.94157,1.78761-1.36564,1.97853-1.42344.66003-.15414.95964.32586,1.72864.3065,1.06461.02373,2.16094-.94654,1.93422-2.09187-.28512-1.76487-4.05684-4.20658-6.46047-4.99137-1.16058-.37897-2.73022-.81396-4.58142-.81396-1.78876-.11791-3.45594.71837-5.20152.8337-.55398.03453-1.12679.07042-1.73611.27861-.81239.27694-1.3887.99322-1.9812,1.53802-.4678.17015-1.07365.3388-1.56702.54498.46147-1.46988,2.19209-3.87659.05958-4.77676-.84424-.30564-1.7754.13235-2.07959.97708-.99359,2.75342-2.16333,5.41266-3.27258,7.70428-.34434-4.86935-.64569-8.79947-.90985-13.51318,2.79675-4.40552,7.16168-9.51343,10.14191-12.16229.6709-.59619.73145-1.62305.13477-2.29395-.59619-.67139-1.62402-.73047-2.29395-.13477-2.34448,2.0838-5.48761,5.56775-8.18451,9.17578-.00861-.45233-.02954-.9054-.03271-1.35742.2226-3.82385.46735-7.65918.67291-11.49341,3.32865-2.70485,6.57035-7.50773,9.25659-10.08435,1.74633-1.22654-.03516-3.85908-1.82415-2.68929-2.03738,1.55449-4.90647,5.74511-7.20581,8.04537.08813-2.112.15198-4.22131.18695-6.32715,1.82639-2.15724,5.56907-6.42386,5.36791-7.3287.30118-2.06315-2.73362-2.62511-3.19372-.5961-.13525.33014-.6496,1.01874-1.2572,1.77429.52538-1.27066.76135-3.00785-.94943-3.34363-1.03965-.17772-1.82809.64792-1.93063,1.63885-.76505-1.27553-1.61952-2.17367-2.37495-3.33807-.48192-.75733-1.48632-.98048-2.24316-.49903-.75732.48145-.98096,1.48584-.49902,2.24316.89268,1.40261,1.90027,2.38018,2.6731,3.88501-.21332,1.99764-.17583,4.03449-.30176,6.04785-.86108-1.97809-1.54645-3.54144-2.25562-4.38159-1.40642-1.6067-3.83363.44073-2.48335,2.09673,1.36983,2.13616,2.8623,6.58336,4.40333,9.10041-.10272,1.8609-.22363,3.71399-.36084,5.55988-2.01164-2.19869-4.0299-4.26149-6.00445-6.87274-2.53906-3.36817-5.8833-4.64258-8.09619-5.48535-.4707-.17969-.89453-.33936-1.24902-.50195-.81689-.37402-1.78027-.01514-2.1543.7998-.37402.81592-.01611,1.78027.7998,2.1543,2.75212,1.19751,5.60348,1.77411,8.10451,4.98924,2.61808,3.52405,5.75339,6.38319,8.23521,9.47243-.49323,4.97498-.31799,10.03943.03418,15.09344-1.6629-1.7995-3.3175-3.67853-4.12488-5.14935-.43164-.78613-1.41846-1.07471-2.20654-.64209-.78662.43164-1.07422,1.41943-.64209,2.20654,1.46806,2.69751,4.90862,6.07956,7.36938,8.79169.19257,2.37683.38354,4.74298.51953,7.08685.49632,11.14558.038,23.31533.19531,34.59137-2.29346-2.87189-4.73669-5.07336-6.98273-6.89496-.46265-1.82996-1.46844-4.62549-2.50879-5.51532-.41456-.35626-1.02738-.50752-1.40906-.91284-.6025-.72679-.95218-1.74037-1.84749-2.29821-1.68426-1.04639-2.70576-1.04002-3.88573-1.28401-7.21521-4.06982-10.6955-5.18988-16.14893-5.18988-5.64588-.14229-12.09554,1.74264-13.44487,2.35495-4.91942,1.59574-11.1049,7.4638-9.09793,10.9152,1.04183,1.44494,4.35359,2.00897,4.38619,2.01355.8382.12982,1.68984.81269,2.5467.984,1.46637.38426,3.39445-.22149,4.41217-.68541.29872.31732.91626.68137,1.64807.63129.2674.04773.8476.22931,1.06989.3584.94761,1.28743,1.7471,3.64695,3.54599,3.60471.45945-.00412,2.1542.1427,3.50356.31979,2.01655.29098,2.55496,1.42675,4.84115,1.43741,2.29294-.01711,2.51311-1.05076,4.64806-1.28159.90613-.1063,1.69976.3844,2.56226.50777,1.60493.3236,3.35989-.14749,4.17133-.96076.12798-.01771.54646-.00343.54846.01422.69264.55734,1.98139.39158,2.92469.00508,1.62017-.67978,3.60301-.71242,5.44293-.91426,3.1524,2.63879,6.47443,6.00372,9.06879,11.0213-.00284,14.54165-.29314,28.83753-1.19135,42.69855-3.12677-4.70148-7.36591-7.49463-10.97131-9.48132.35254-.69092.51093-1.60272.41718-3.18665-.078-1.31903-1.17236-2.28125-1.91089-2.76306.00083-.41442.0418-.98722.06305-1.42261.0979-2.04743-.53155-3.84705-1.6839-4.81397-.81271-.68927-2.00628-1.06181-2.8512-1.67047-.36477-1.1785-2.56972-3.54008-4.13116-3.88361-.97449-.295-2.24617-.67351-3.27894-.49947-.22582.04104-.45979.10192-.93602.10432-.50331,0-.98994-.09015-1.44636-.26788-.98629-.34455-2.75934-.39769-3.76709-.07753-1.88525.57848-2.86133,1.88272-4.67371,2.2935-1.21929.38095-2.27575.71621-2.85534.96139-1.47048.5843-2.20697,2.23041-3.28354,3.10624-1.08444.5533-2.95403.69706-4.15209,1.39087-2.21629,1.18367-4.28642,2.55623-4.42607,4.56666-.42766,1.3399-1.3026,3.07019-.1409,4.87714.72649,1.08635,1.96915,1.25429,2.90414,1.7553.59524.58432,1.89551,2.03732,2.34127,2.26189,1.02411.73071,2.63566.74368,3.8986.60506.05722-.03691.95561.35548,2.54447,1.53574,1.13655.92179,3.29214.52187,4.68282.42038,1.04199.56166,1.19812,1.3119,2.19973,2.04911,1.63235,1.21891,3.54753,1.47653,5.34762,1.56178,2.0247-.00341,3.53885-.86799,5.51582-1.07684.97583.18887,1.68377,1.10752,3.07089,1.05662,2.63801-.14071,5.47754-2.47549,5.42801-4.35342,5.09088,2.95178,10.47058,7.39868,11.77838,16.9765.09608,3.61901.34876,6.99167.58405,11.1463-2.43897-3.46658-4.58477-7.84492-8.85724-9.24518-4.49813-4.50658-20.53494-1.25404-20.01146,5.29458.0593,1.93092,1.43253,3.0353,4.44603,2.57182.18341,1.78838,2.37358,3.54014,4.67027,3.45871,2.87447.00009,5.76107-2.16507,7.01772-4.2023,1.06476-1.7262,1.90222-2.40546,3.29999-3.32544,3.70325,1.85031,6.09279,8.60303,9.81348,11.61682.25334,4.18112.47714,7.73138.66821,11.68909-1.23729,1.03152-2.68904,1.93481-4.14709,2.59852-2.20295.99322-4.45868,1.03692-6.60321,2.02703-4.65955,1.94037-9.13672,3.86615-12.61365,7.85699-1.31085,1.66382,1.14142,3.63141,2.48602,2.01459.64038-.66931,1.3725-1.26953,2.14325-1.83594-.58508,1.18274-1.06659,2.3963-1.46014,3.59259-.49967,1.41701,1.20942,2.69427,2.4162,1.82367.064.81581.87294,1.46711,1.66162,1.40039-.54242.19086-1.13226.31299-1.7196.50092-1.73138.47496-1.44757,3.03591.32495,3.133-.08868.21289-.18695.41833-.26758.63757-.70996,1.93152,2.11151,3.08356,2.95886,1.21667,1.39355-3.24164,3.86694-5.60791,6.72528-7.52704-.46002.83179-.979,1.60223-1.66864,2.22717-.65643.54633-.76978,1.51849-.24561,2.20245.64758.76202,1.3653.74585,2.04053.38715-.2829.33813-.55933.67761-.82666,1.01666-2.56427,1.40564-5.22815,3.53314-8.02106,4.10675-.92017,0-1.67365.76691-1.61713,1.69458.27661,1.86011,2.09296,1.74097,4.2193.93561,1.22516,2.22992,3.54114.54498,5.70654-1.7063-.42487.67188-.29871,1.56573.32812,2.08356-2.09875,1.23651-3.98755,2.75409-5.52148,4.85095-1.16754,1.74658,1.39703,3.52832,2.62683,1.82745.70923-.93365,1.62439-1.76575,2.64178-2.50311-.28015.61584-.54468,1.23846-.80359,1.86487-.72925.75629-1.82147,1.40765-2.97955,1.88684-2.16461,1.06974-.36371,4.05948,1.65973,2.76794.48524,1.26274,2.43769,1.28679,2.9389.00769,1.62634-3.53345,3.25476-7.41241,5.77264-10.32428.47388-.30823.89954-.65936,1.30524-1.02777-.07526.84662-.13214,1.69922-.18518,2.55389-.97821,1.82965-2.21063,3.521-3.44696,5.23291-1.00885,1.70276-6.05157,7.29126-3.38428,8.80975.74945.40411,1.68457.12408,2.08868-.62531.07599-.16064.323-.55103.36847-.7301.06506-.12384.13989-.24188.20776-.36407-.17719.80402.28326,1.6228,1.08392,1.87024,1.89984.49707,2.20715-1.59656,2.42639-2.89569.24115-1.5127.48682-3.04724.53296-4.58289.20734-.25891.41217-.51959.61694-.7804.84356,3.52605,1.35554,6.70059.81393,10.27967-.23404,2.02532,2.73318,2.49554,3.15701.51983.08948-.44312.16437-.89435.23376-1.34753-.13889.95965.38134,1.93784,1.4118,2.04523,1.5174.07886,1.87744-1.1629,1.8385-2.73987.14532.01489.2934.01709.44434-.01013.65576-.16638,1.01239-.51233,1.1756-.95148.20673.07184.43219.10138.6723.06714.68677-.07068,1.17822-.56396,1.34735-1.17328.07193.95261.87851,1.72076,1.85837,1.56993,1.34193-.21941,1.5422-1.521,1.2114-2.64097.65985.51141,1.3548.99768,2.13068,1.37561,1.91443.85455,3.23859-1.96582,1.36157-2.8941-1.46552-.77386-2.61096-2.07135-3.99469-3.04315.7301-.5661,1.01733-1.72284.07782-2.51318-1.00305-.75342-1.87488-1.23859-3.02368-1.49628-.56708-.70813-1.22211-1.34741-1.9386-1.91937-.29755-.55377-.64636-1.09241-1.08411-1.60413-1.42493-1.4436-2.46326-3.23108-3.40808-5.0426.15704-1.23694.28937-2.47589.39313-3.71655.5354.27393,1.03766.54102,1.49152.9566.03931.04626.07867.09753.11804.14429.23126.80499.38116,2.65289.45557,3.20526.25067,1.56842,1.02655,6.78619,3.78406,5.43854.39325-.23871.64313-.62109.73065-1.03839.50378,1.08374.92358,2.17346,1.20081,3.24274.16376.84113.96655,1.4071,1.8194,1.27094,1.38007-.21143,1.50311-1.58527,1.00623-3.39178.30878.35034.61334.69141.90845.99872,1.01642,1.00824,3.51788,3.82361,4.94995,1.66467.17194-.30084.2326-.6333.19891-.95288,1.4184.13245,2.48425-1.84625,1.06512-2.89771-1.34747-1.0816-3.44708-1.2868-5.02338-1.45032-.38782-.46411-.77686-.92987-1.17639-1.38727,1.12954.21478,2.14274-.94686,1.77783-2.0423-.15344-.44592-.30603-.88879-.46014-1.32861.43219.49805.81329,1.00476,1.08698,1.50073.36841.81659,1.34357,1.18286,2.15643.78888,3.78815-1.94061-6.09924-9.55548-7.74976-11.02985-1.76917-1.39215-3.55792-2.83929-5.64136-3.97827-.97247-.40106-1.83221-.80719-2.56982-1.47522.02576-.51727.05188-1.0354.08032-1.55811,1.06915.38177,2.16632.64789,3.27441.85632.10974.07507.2193.15344.31854.23248,1.01624.77771,2.2207,2.01239,2.64801,3.07635.32874.7843,1.22009,1.17804,2.02637.88165,1.04193-.47498,1.19177-1.34937.85059-2.34875.23926.14771.47656.30176.71259.45923,1.3349,1.6089,2.08181,10.90663,5.54962,7.80835.25195,1.28143.5932,2.54657,1.0827,3.73895.7774,1.93292,3.6748.85229,2.99884-1.11615-.05902-.15704-.09955-.3186-.15369-.47687.9679,1.16498,3.2229.30829,2.75665-1.4837-1.79266-4.974-6.14655-8.22021-10.11383-11.34717-1.38544-.9386-2.72791-1.9942-4.52203-2.49756-2.14948-.52307-5.35791-.96674-7.19348-2.28363.00232-.05035.00458-.10071.00684-.15106,2.08276.77545,4.2132,1.30115,6.38696,1.83551,1.20331.30261,1.72363.21368,2.90723.78766,3.59039,1.78955,7.53748,4.61249,9.88654,7.85303,1.20892,1.68298,3.74792-.03168,2.65717-1.78046-.7301-1.13177-1.55005-2.10956-2.42004-3.00635,1.23572.23645,2.53442.19525,2.7699-1.26318.10962-.8764-.51196-1.67578-1.38843-1.7854-3.01855-.49487-5.71191-2.08185-8.76782-2.75458-.95575-.54749-1.96179-1.02484-3.05023-1.38202-1.55957-.32648-3.21802-.85706-4.7937-1.38342-1.32739-.48322-2.86383-.98187-4.06989-1.65668-.03487-1.75016-.20521-4.02924-.29401-5.76917-.13049-2.29901-.29858-5.0387-.47424-7.89337,2.52802-5.66772,7.85938-11.03143,12.33044-12.58539,2.10306.76291,3.90101,1.06213,6.57342,1.99535,2.85349.9295,5.95227,4.05612,8.91253,4.05942.43501-.00002.85578-.06692,1.25062-.19887,1.72668-.57703,2.24341-1.77979,2.39777-2.44537.41846-1.80463-.75952-3.82471-1.59998-4.93103.34937-.32776.72064-.70496.86621-1.2522.17877-.67236.47571-2.41443-.62598-4.06458-1.11092-1.85065-4.08278-2.7522-6.63035-2.67717-6.71297.00017-10.64052,2.89867-12.31057,5.94524-4.23413,1.45251-8.487,5.21777-11.57062,9.49036-.33868-5.59632-.6491-10.14106-.41425-15.49738,1.3479-5.79956,7.38275-12.09137,12.09418-16.04529.73016.83621,2.48521.87216,3.86205,1.23282,1.17198.27401,2.095,1.07203,3.3766,1.05701,1.09762.01603,2.21682-.57533,3.26177-.61503,1.12906.19281,2.6986.83287,3.91181.80728,1.39081-.01252,2.74319-.93021,3.94689-1.37246.44005-.08744,1.64528-.31656,2.44885-.23511.84879.15109,2.33145.62349,3.12415.63049,1.44861.01271,2.30222-1.01556,2.9845-1.69952.5874-.24583,1.34622-.45107,1.93152-.64148,1.98392-.69306,2.228-2.62885,2.36841-3.39301.14044-.61505.40417-1.5257.56342-2.07513.97649-1.14282,1.55966-1.7052,2.27155-3.35187.93928-.74191,2.50412-1.64698,1.75464-4.65283Zm-61.34167,78.5517c-2.54681.61938-4.76361,2.065-6.80322,3.50732.68774-1.74371,1.57355-3.31848,2.69891-4.71814.20081.95245,1.24072,1.73804,2.36542,1.10651,2.38855-1.42621,3.83167-4.30719,6.10681-5.5675,1.99329-.38159,3.89392-1.07867,5.63947-2.0603-.02496,1.02203-.05591,2.05725-.09009,3.09851-.29901.2326-.65057.47357-.88391.6153-2.15741,1.22388-4.43817,2.46057-6.62506,3.8399-.86816-.09155-1.68286.01312-2.40833.17841Zm4.31573,7.0332c1.18665-1.74139,2.06342-4.00989,3.21027-5.60925.25671-.12701.51343-.25372.76917-.37836.4931-.27502.99304-.52002,1.48926-.76312-.00269.17163-.0072.34778-.00916.51752-1.75842,1.65051-2.6037,3.72467-4.34991,5.35272-.38483.26636-.75116.56708-1.10962.88049Zm2.33649,7.11578c-.2251.1532-.44006.3233-.64667.50336,1.11969-1.85571,1.95331-3.9256,2.36542-6.0174.59949-.53864,1.14539-1.16827,1.6684-1.82257.04187.57654.06525,1.16376.04602,1.77106-1.00879,2.01379-1.82587,4.1076-3.43317,5.56555Zm15.03827-5.91498c-.02069-.01294-.0376-.0296-.05908-.04175.06287.0163-.0957-.09045-.23102-.30359-.08722-.13367-.16107-.29102-.24481-.43164.18317.25317.3645.50848.53491.77698Zm.54657,2.13849c.15045-.26617.21106-.55682.20105-.84155.84857,1.59247,1.53137,3.31543,2.1264,4.92102-.92334-.87219-1.95886-1.61438-3.19153-2.11316-.26367-.42853-.51477-.82458-.74548-1.18011.55664.11609,1.12079-.06586,1.60956-.78619Zm7.28333-6.37457c.01819.18396.04315.37189.06317.55731-.0802-.23419-.16107-.4682-.22882-.70612.0553.04968.11072.09924.16565.1488Zm-14.02032-.75812c.12891.07086.25659.15027.38519.22345.39691,1.40668.88898,2.68018,1.51776,3.95068-.00531-.0033-.01093-.00879-.01624-.01208-.97083-.69403-2.12006-1.31067-2.86053-2.09143-.05151-.80127-.09723-1.61395-.08514-2.43951.35358.14148.70837.26935,1.05896.3689Zm-2.13519,16.4718c.48083.58868.98566,1.1579,1.54401,1.68085.21912.29028.41382.60193.59247.9267.01929.03656.03583.07336.05841.10919.91156,1.71399,1.32355,3.83636,1.65186,5.87341-.20844-.31085-.43365-.62219-.67609-.9342-.09003-.16644-.20715-.31-.34412-.42999-1.10181-1.36884-2.32458-2.73981-2.87329-4.07739-.05865-.62958-.09448-1.26562-.08002-1.92126.03265-.40759.08557-.81842.12677-1.22729Z" fill="#4c4c4c"/>
      <g id="ROOTS">
        <path d="m191.30895,343.6394c-1.02643-.81897-2.07562-1.64386-3.17529-2.39136,2.65796.70697,5.46533,2.15234,7.94141,2.12323-3.04926-.68304-6.06232-2.20227-9.19714-2.92511-.91339-.53839-1.86731-1.005-2.88013-1.35052-1.67474-.35413-3.26099-.87201-4.87659-1.40662-1.68304-.64691-3.71814-1.20062-5.12988-2.29144.00165-.28369.01074-.56696.00836-.85083-.05077-1.45409-2.18799-1.21108-1.9978.18597-1.3692,1.37903-3.32343,2.54169-5.08203,3.36346-2.12488.99774-4.59125,1.09558-6.67908,2.05695-4.32379,1.78333-8.84265,3.77667-11.95825,7.39069-.08612.10461.08331.22253.15527.12585,2.33563-2.50409,5.40894-4.13892,8.57922-5.45667-2.57464,2.29277-4.29812,5.39453-5.3136,8.64929-.0434.12299.14923.18365.18903.06561,1.24823-3.71216,3.495-7.02899,6.67413-9.33453.64618-.24908,1.29193-.49194,1.93231-.72644.81549-.32898,1.6452-.53168,2.47565-.70233-1.88428,1.41412-3.15318,3.87236-5.05957,5.2124-.11622.05941-.01874.24243.09577.17559,2.31244-1.52171,3.68005-4.31233,6.19115-5.62963,2.82889-.47181,5.55234-1.79555,7.82037-3.48444.00195,2.18628-.08984,4.3811-.17444,6.58203-1.05933,1.1524-2.93982,1.95972-4.25592,2.76184-1.4823.79633-2.98907,1.65027-4.44543,2.58917-3.33948-.5213-6.32922,1.80139-8.93951,3.56244-.10663.07397.01239.2359.11426.16394,2.41669-1.50262,5.18689-3.51221,8.13275-3.27368-2.10895,1.41968-4.0719,3.04559-5.65332,4.97473-.93658,1.08191-2.43933,1.35358-3.76001,1.74335-.12515.03219-.0737.22787.05115.19336,1.01483-.28497,2.12384-.50653,3.03442-1.06091-.82532,1.14227-1.52271,2.38214-2.03235,3.75024-.05109.12274.14435.18726.18561.07458,2.17975-5.1308,6.88269-8.28522,11.70026-10.77002-1.39004,2.48988-2.34523,5.37513-4.33319,7.35626,2.67291-1.63147,3.41382-5.47919,5.37323-7.88245.34985-.17377.69934-.34467,1.04761-.51288,1.21234-.6792,2.57501-1.198,3.72394-1.99445-.03931,1.23535-.06683,2.47205-.05914,3.71033-1.21472.92651-2.6673,3.3017-3.13385,3.83984-.96179,1.60773-2.39709,2.40546-3.67004,3.67523-.83362.78223-1.54755,1.70135-2.24652,2.63507-2.95334,1.54239-5.63222,3.90041-8.9845,4.43909-.13513-.00043-.12549.2063.00433.20007,3.07269-.39368,5.67908-2.35223,8.35596-3.81079-1.22516,1.63861-2.4881,3.2226-4.33612,4.1076-.12238.0481-.05127.22473.06512.18927,3.88807-1.7031,5.56519-6.18063,9.06671-8.44348-.48285,2.94873-1.75043,5.63751-3.62408,7.98553-.03229.04272-.02582.10449.01605.13867,2.25757-2.13519,3.67072-5.48059,4.2215-8.6062.71759-.57739,1.39386-1.19135,1.88446-1.93188.75879-.89105,1.53754-1.98639,2.41711-2.82172.04186,1.99507.33744,3.9607.26862,5.96918-.7666,1.51105-1.41089,2.98993-2.29761,4.33997-.72937,1.28101-1.76001,1.96667-2.81299,2.95264-.24347.28735-.45325.59753-.67194.90173-3.1231,1.40001-6.19477,3.23915-8.24314,6.04482-.07748.10783.09433.22093.16416.11418,1.88275-2.50409,4.69391-4.15948,7.54926-5.40228-.90796,1.42078-1.62994,2.95935-2.34106,4.4635-.26416.65619-.57373,1.3291-.87482,2.0072-.97467,1.09058-2.29462,1.8446-3.6499,2.41455-.05103.02118-.07605.08002-.05487.13104s.07965.0752.13068.05402c1.1861-.492,2.34906-1.11713,3.3111-1.99756-.38861.90759-.73364,1.81873-.90558,2.70654.05084.02173.10962-.00183.13135-.05267.73718-1.70697,1.53418-3.38647,2.37738-5.03766,1.34558-2.37079,2.43353-5.00336,4.74469-6.57263,1.44214-1.12659,2.4436-2.68939,3.3172-4.28906-.19855,2.66486-.54468,5.35077-.68677,7.98865-1.88562,4.33948-6.0174,7.7157-7.58984,12.25641-.03406.12457.16095.16956.19171.05164.87451-2.20441,2.37817-4.09778,3.92267-5.97394-.02832,1.98651-.25562,4.04211-.69629,5.96533-.03479.12421.15839.17474.1925.05389.55243-2.14319.85223-4.29962.90875-6.51166,1.09131-1.32269,2.17303-2.65186,3.04852-4.08551.49639,4.83383,2.27659,9.45725,1.34369,14.36157-.02014.12885.1756.14905.19678.03357.96472-3.57477.31836-7.18256-.15845-10.76422.78412,1.1377,1.7807,2.14337,2.70709,3.19141-.10453,2.32993.81027,4.60097.65373,6.92072-.00395.05371.0356.10113.08974.10663.53192-1.78192-.45636-4.51416-.37244-6.60107.94806,1.12042,1.76715,2.3194,2.1109,3.81073.02643.12653.2179.08392.19617-.03778-.61993-3.66724-4.37415-5.93915-5.60706-9.25348-.08185-.80341-.14215-1.60516-.15509-2.40417.12036-1.78949.35663-3.54785.59833-5.30139,1.02997,1.7229,2.17792,3.39886,3.64606,4.76221,2.44983,3.1377,2.57281,7.48645,3.27551,11.29553.01917.12927.2124.0921.19666-.02795-.45642-3.01562-.5531-6.34418-1.70447-9.22742,2.80475,2.37189,4.06854,6.12543,4.65527,9.68689.02051.12939.21643.09302.19757-.03058-.21765-1.5639-.5672-3.16437-1.10968-4.6842,1.87421.91431,3.28522,2.70966,5.18152,3.62891.11971.05664.20241-.13428.07977-.18347-1.99268-1.0127-3.36047-2.94861-5.42114-3.85004-.39294-1.02039-.88531-1.99072-1.49219-2.88501.93927.15314,1.85712.58777,2.60687,1.16217.09938.08185.22767-.07433.12622-.15515-.84912-.66504-1.84296-1.14844-2.92291-1.289-.65039-.90204-1.41962-1.71844-2.35223-2.39539-.25781-.50269-.5517-.98956-.89893-1.45227-1.64819-1.66632-2.80475-3.71936-3.8703-5.78699.29395-2.17273.55365-4.34796.56927-6.57404,1.14203.80676,2.66608,1.52063,3.03656,1.77759.44446.2699.83624.62189,1.19977,1.01227.49469,1.08002.51038,2.81787.67963,3.89923.19104,1.48993.54047,3.01727,1.38104,4.3031.07043.11005.23785-.00336.16815-.10834-.77856-1.2677-1.07831-2.75574-1.22632-4.23218-.11786-.89636-.11145-2.02075-.31024-3.03687.44354.57971.8548,1.19171,1.27454,1.75397,1.77191,2.73102,3.66217,5.59473,4.39685,8.79382.01569.13574.21606.09985.19861-.02551-.59381-2.63617-1.71216-5.13129-3.09515-7.47522,3.63837,1.50104,5.31146,5.71783,8.66797,7.67395.11737.0614.20685-.12024.09314-.17694-1.13446-.71289-2.06494-1.68256-2.94623-2.71271,1.59564.18939,3.2486.14886,4.59406,1.1413.04498.03113.10687.02045.13873-.02435-1.10858-1.29871-3.37201-1.10803-4.96851-1.39551-1.73414-2.05156-3.33699-4.33591-5.9834-5.18164-.86639-1.3985-1.81958-2.74237-2.81415-4.02161-1.31348-1.39288-3.49054-2.21106-4.52924-3.65527-.10658-1.82488-.13188-3.65215-.06769-5.48724.35327.26318.72351.50439,1.11731.6933.87305.4624,1.84344.60101,2.66949,1.12299.12939.07745.25342.16602.3822.24481.74353,2.51855,1.64417,5.44659,3.63739,7.21136.10602.07306.21619-.09589.11133-.16479-1.75671-1.67627-2.56458-4.33368-3.19519-6.69208,1.24518.78632,2.46686,1.62042,3.65131,2.5127,2.39783,2.50745,3.51569,6.13806,4.90741,9.13904-.0246-1.17267-1.32465-3.80939-1.84064-5.07367-.47369-.97943-.95776-1.9516-1.53876-2.86505,1.05475.84503,2.09302,1.70892,3.09509,2.60046,1.39514,1.30682,2.85394,2.63721,3.7702,4.30701.05688.12781.23651.02942.18146-.08405-.89941-1.76611-2.32288-3.13629-3.68848-4.50348-2.8288-2.6792-5.8009-5.16663-9.09192-7.28253-1.46808-.77698-3.02655-1.35339-4.11908-2.61505.06635-1.46594.16022-2.93542.2489-4.4079.82996.48615,1.81165.85364,2.17004.96313.95465.31445,1.97028.5401,2.98773.72888,1.6131.97388,3.05756,2.46564,3.8465,4.15839.04613.11862.23175.05218.18787-.06891-.62323-1.51544-1.65479-2.84741-2.92126-3.89343.40759.06635.81317.12952,1.21027.19043,1.75983.13599,3.19458,1.24799,4.65625,2.17987.06226.0434.12219.09113.18433.13477,1.68237,2.30786,1.47418,5.79163,3.25647,7.974.04974-.02405.07056-.08386.04651-.13361-.62152-1.29211-1.11377-2.63782-1.422-4.03186-.2179-1.00928-.41266-2.07153-.82672-3.03754,1.46924,1.08148,2.88312,2.24445,4.20123,3.508.35236,1.16248.27789,2.6759.57434,3.91638.2392,1.31836.6192,2.60834,1.09802,3.85596.02002.05054.07727.07697.12836.05786.05176-.01935.078-.07697.05865-.12872-.68646-1.86731-1.10211-3.82025-1.25415-5.80206-.05701-.45258-.05023-.96826-.13135-1.45416.70178.69977,1.37842,1.4234,2.00519,2.19055.72516.92163,1.41162,1.91095,1.74951,3.0293.04016.12927.22083.06824.1933-.05157-.71039-2.32678-2.43994-4.13281-4.07556-5.854-2.8255-2.65448-5.7677-5.45752-9.42529-6.91077-.57068-.12134-2.02661-.43207-2.61591-.57001-1.95398-.51562-4.3797-1.06738-5.79535-2.50537.05585-1.02246.10541-2.04584.13318-3.07123,1.53186.79614,3.20776,1.26758,4.84308,1.77039,1.62195.45422,3.33917.9126,4.99219,1.18542,2.6449.80957,4.98798,2.50043,7.21344,4.14734,1.76813,1.38837,3.48157,2.90454,4.76508,4.7572.07288.10968.23462-.00409.16827-.10809-1.23694-1.93585-2.91144-3.53113-4.64777-5.00378Z" fill="#fff"/>
      </g>
      <path d="m220.36241,268.81653c-.21741-.79761-1.83435-2.34515-2.9198-2.52985-.75128-.12787-1.65051-.27161-2.59155-.4986-.91547-.22076-1.91296-.95343-3.1004-1.15253-.45996-.07709-2.78082.13037-3.95398-.43451-1.50269-.72351-2.54602-2.0224-4.58569-2.02228-.45428-.01287-2.26187.59714-2.80084.67534-.1623.02436-1.99421.23207-2.95643.23207-.90158-.09045-2.34328,1.29635-3.06373,1.6411-1.06225.51661-2.83428.65028-3.11468.79286-1.38049.7019-2.06659,2.30548-2.22968,2.42267-.96344.6925-1.92627.64081-2.76715,1.5271-.90088.94958.065,2.59406-.54596,3.54193-1.21716,1.74471-1.8168,4.24291.05322,6.04419-3.99823,3.10815-10.03326,8.63385-13.14215,14.67841,1.65634-25.33647,1.12196-51.28077,1.22919-76.94635.66907-1.80243,1.42316-3.3703,3.76666-5.57251.73865.0152,1.28809.32501,1.53009.33154.67294.01761,1.34843-.48279,1.90424-.73834,1.00064-.41591,2.04831-.04851,3.16241-.07022,1.11369.18971,2.45654-1.13424,3.9458-1.3431.63119-.04458,1.31207.07916,1.74732.08245.31879,0,.65033-.05573,1.12677-.25483,1.01648-.42487,1.28461-1.53845,1.78198-1.89697.42206-.3042,2.14935-.7182,2.3869-.93066,1.37676-1.15977,2.15026-1.8375,3.29653-1.83603.77531.00009,1.07371.33713,1.41062.33713.11652,0,.23773-.04034.38477-.14893.59375-.43835-2.54407-3.08356-5.37659-4.00842-.99011-.3233-2.41302-.73987-4.11584-.73987-.99274,0-2.08057.1416-3.23328.52582-1.2843.4281-2.31024.19525-3.21918.50592-.55768.19061-1.30121,1.20013-1.72314,1.42572-.41211.2204-1.47845.45386-2.07629.76392-.49524.25684-1.59778,1.28174-1.98016,2.08014-1.08423,2.26392-1.67023,3.21466-2.03345,4.03546-.15942.36029-.19049.69366-.14496.98016-1.1637,1.11993-1.95074,2.09979-2.54138,3.0282-.0011-.44946-.00269-.87787-.00513-1.26404,1.55652-2.63525,4.30847-7.89838,6.33197-13.50696.07031-.19482-.03027-.40967-.2251-.47998-.19385-.06885-.41016.02979-.47998.2251-1.75751,4.87109-4.06525,9.4715-5.64368,12.28735-.30739-6.01407-.89671-12.42209-1.21259-18.47681,2.83069-4.65875,7.60498-10.2912,10.80938-13.13965.15479-.1377.16895-.37451.03125-.5293-.13867-.15625-.37646-.16943-.5293-.03125-3.03851,2.70087-7.44263,7.80005-10.3866,12.3996-.18304-3.70349-.29595-7.22804.16388-10.94025.1748-2.17297.30261-4.34204.4093-6.50977,3.58861-2.67929,7.08437-8.01851,9.99344-10.67727.40613-.26554-.02232-.90099-.42078-.62093-2.7958,2.44449-6.17755,7.64329-9.53098,10.30741.14575-3.23022.23901-6.45764.28522-9.68524.91505-1.53986,6.9714-7.40017,5.34798-7.89365-.20278-.03323-.39712.10642-.42934.31101-.23276,1.07633-3.633,4.73043-4.90631,6.33466.00842-.72797.01611-1.45599.02155-2.18414.5048-1.35446,1.36399-3.02856,1.57227-4.33655.03271-.20459-.10645-.39648-.31104-.4292-.20361-.03467-.39648.10645-.4292.31104-.12024.75128-.49695,1.67981-.88367,2.59741-.11919-.27378-.4337-.50131-.75134-.43384-.87789-2.04565-2.01957-3.08286-3.0984-4.7373-.25461-.41314-.9005-.00478-.63278.40236,1.10152,1.69995,2.24365,2.70223,3.10929,4.79282-.23461,3.77115-.27855,7.57817-.56635,11.34332-.85822-1.55396-1.63263-3.33289-2.33691-4.95111-.73306-1.47874-1.83291-4.8054-2.62882-4.20126-.15828.13388-.17782.37021-.04452.5289,1.55135,2.25841,3.17106,7.3322,4.92413,9.95673-.19293,2.95325-.40497,5.90332-.61096,8.85352-2.48042-3.11117-5.62708-5.96961-8.22868-9.46408-2.8822-3.68086-5.94604-4.35129-8.86768-5.6035-.43532-.20727-.76064.48386-.31248.68167,2.90301,1.24586,5.86671,1.87928,8.58152,5.37301,2.70999,3.6841,6.33182,6.86194,8.74803,10.16762-.11896,1.72858-.23474,3.4574-.33795,5.18768.02258,4.51208.3042,9.1297.63922,13.71777-2.31817-2.55161-5.68324-5.88326-6.99853-8.30255-.09961-.18115-.32569-.24756-.50928-.14795-.18115.09961-.24756.32764-.14795.50928,1.49504,2.74268,5.30684,6.39513,7.74719,9.16815.18121,2.42004.3714,4.82971.54236,7.20667.49132,9.86643.06007,28.54169.18311,38.63043.00122.27307.00073.54584.00177.81891-2.98358-4.9292-6.62311-8.2569-9.80499-10.80194-.3222-1.46484-1.36078-4.54834-2.1474-5.22113-.18719-.1601-1.00262-.44574-1.54608-1.04596-.6109-.67474-.97253-1.67926-1.53864-2.03815-1.77228-1.12354-3.10291-.84351-3.77704-1.22351-6.77631-3.8194-10.11707-5.01721-15.45447-5.01721-5.59572-.14734-11.97083,1.78829-13.11813,2.33158-5.75815,2.06478-9.08359,7.3464-8.20774,8.56142.48334.67041,2.65088,1.30438,3.37531,1.40491,1.0824.15009,2.00299.86133,2.65924,1.00403,1.62182.4862,3.77001-.91613,4.52101-.86292.48955.12103.48467.77722,1.10631.77722.41019-.0432,1.75698.32457,2.22501.77048.78787.82144,1.64883,3.18997,2.50515,3.18997.59104-.00285,2.41837.16317,3.70171.33289,2.27287.30309,2.78019,1.42618,4.68476,1.42444,1.72717,0,2.01929-1.00744,4.44305-1.27283,1.5984-.15522,2.70113.70051,3.94641.59111,1.85034.00008,1.77515-.97801,2.83093-1.04856.13855-.00928.26318-.01343.37567-.01343,1.3524.02077,1.06242.61368,2.00313.33174.7412-.1921,2.38396-.85622,4.00133-1.00411,1.23175-.11261,2.36877-.03003,2.99908-.37372,3.44122,2.81024,7.32788,6.5838,10.22308,12.32343.14714,16.34047-.5989,32.61975-1.43469,48.94019-3.08099-8.48401-9.64056-12.32916-14.40295-14.83087.475-1.10259,1.25537-.58798,1.09689-3.63219-.05258-.88831-1.33871-1.70026-1.55075-1.78077-.49603-.18842-.35834-1.30408-.29803-2.56512.08856-1.85144-.5354-3.0777-1.14978-3.5932-.70673-.59296-2.04785-.99689-2.97845-1.76941-.3067-.25458-.49902-1.35956-1.79565-2.47394-1.46223-1.20708-2.3204-1.28851-3.97469-1.50576-.46887-.00532-.59858.15713-1.48435.15074-1.19621.07581-2.05498-.60634-3.57484-.5572-2.00313-.10491-3.38821,1.61916-5.02691,2.17153-.64161.21378-2.77637.84671-3.55634,1.17667-1.15833.49005-1.9162,2.21344-3.026,2.96613-.98126.66547-2.97638.77234-4.28741,1.4726-1.68707.90106-3.54517,2.03625-3.63629,3.34753-.05511.79358-1.26788,2.64325-.39514,3.93231.48157.7113,1.81683.85571,2.54242,1.38177.38184.27679,1.74396,1.87854,2.26611,2.21082,1.03398.69801,2.29832.33587,3.33533.38636.95171.1488,2.6914,1.45056,3.18066,1.80389.98114.65711,2.80308.11709,3.79382.13644,1.67928.18718,2.13745,1.66612,3.12528,2.36018,1.03244.79445,2.35709,1.08004,3.95517,1.22866,1.96338.19871,3.66042-.87843,5.99353-1.05483,1.2876.00002,1.87689,1.05672,3.07086,1.05672.29852,0,.63483-.06604,1.02936-.23126,3.0498-1.27673,3.16888-2.40125,2.8197-4.75977-.02362-.15961-.02283-.30634-.01282-.44757,5.73877,3.02313,13.34149,7.65649,14.88861,19.60944.12109,4.96637.55054,10.59692.85114,15.51123-4.10817-3.5135-6.08606-10.85677-11.4375-12.32135-3.40745-3.89994-17.72932-1.52092-17.71722,3.92463.13567,2.27616,2.93357.43694,4.01293,1.39471.72187.88495.05896,1.87311,1.9433,2.79584,2.68189,1.31184,6.15664-1.09925,7.40161-3.11645,1.38965-2.25293,2.521-3.00055,4.3902-4.20581,5.17241,1.76865,7.05776,9.30032,11.4668,12.57245.23138,4.24909.5373,8.61057.72021,12.78442-.01499,1.3642,2.02395,1.37141,2-.00005-.20857-4.74189-.52469-9.16565-.77661-13.85011,2.56335-5.94489,8.51422-12.38867,13.96936-13.90424.96802.57996,3.01996.8681,6.91962,2.18054,3.49509,1.10462,6.31614,4.55276,9.20925,3.8597,3.20664-1.07168.23307-4.98714-.3912-5.6025-.68231-.67255.94788-1.4884,1.08099-1.98907,1.60463-7.54703-14.83022-5.64761-17.05957.84552-5.27173,1.5108-10.94409,7.33813-13.82623,13.05035-.44636-7.05866-1.03479-14.11471-.68524-20.5498,1.5672-6.94836,9.0965-14.29651,14.16675-18.2439.10345,2.03541,1.20877,1.60307,3.58303,2.20282,1.21244.26868,1.96848.89545,2.82792,1.00769,1.03141.10385,2.16719-.58871,3.46728-.60106.99533-.02156,3.1295,1.07558,4.47443.73489,1.13617-.36082,2.64563-1.18406,3.08276-1.26615.32946-.07439,2.00985-.38044,2.91956-.26158.59808.06034,2.26831.59562,3.00146.6229.97125.03876,1.77862-1.31386,2.22632-1.5174.69318-.31421,1.69562-.58411,2.19092-.7478,1.20374-.39795,1.28662-1.90686,1.37531-2.29535.17529-.76831.50372-1.87695.65802-2.41284.48921-.7161,1.83543-1.9545,2.29016-3.35381.33991-.90608,2.37165-.97401,1.65815-3.59224Z" fill="#95c172"/>
      <g id="leaf_1_right_hi" data-name="leaf 1 right hi">
        <path d="m186.78436,306.41738c2.70885-1.41402,7.23409-1.19452,10.2203-.95752,2.61448.2075,5.24344,1.05093,5.92573,1.72348.62427.61536,3.59787,4.53083.39124,5.60237-2.43918.81508-5.74731-2.69438-9.20931-3.85953-4.56555-1.53656-6.60382-1.66766-7.32796-2.50879Z" fill="#a6d67c"/>
      </g>
      <g id="leaf_1_left_hi" data-name="leaf 1 left hi">
        <path d="m160.17151,308.91159c-3.46242-1.95944-8.37947-.26404-9.94586.65737-1.32793.78114-4.90415,3.1735-4.14781,4.10066.72187.8849.05897,1.87308,1.94331,2.7958,2.67887,1.31179,6.15676-1.09836,7.40161-3.11647,1.47867-2.39718,2.65355-3.08318,4.74876-4.43736Z" fill="#a6d67c"/>
      </g>
      <g id="leaf_2_left_hi" data-name="leaf 2 left hi">
        <path d="m122.1415,277.83763c-1.62852.70987-2.63374,2.35279-1.76105,3.64186.48157.71134,1.81684.8557,2.54247,1.38178.38181.27681,1.74396,1.87856,2.26611,2.21084,1.21596.77379,2.65325.27985,3.33529.38642.95176.14871,2.69143,1.45048,3.18065,1.80381,1.07073.77331,3.60227-.13025,4.32946.22149,1.48399.7178,1.6213,1.53021,2.5896,2.27522,1.03247.79438,2.35714,1.07993,3.9552,1.22857,1.86132.17312,3.37583-.72245,5.65506-1.03138,1.88507-.25549,2.33445,1.68299,4.43871.80205,3.04982-1.27679,3.16888-2.40129,2.81972-4.7598-.13687-.92455-.12429-.8017.11668-1.30043-11.76492-6.15803-18.7961-12.46201-33.46791-6.86043Z" fill="#a6d67c"/>
      </g>
      <g id="leaf_2_right_hi" data-name="leaf 2 right hi">
        <path d="m218.70436,272.40878c-.45737,1.39698-1.78368,2.6328-2.29028,3.35374-.15425.53595-.48273,1.64459-.65803,2.41288-.08864.38851-.17152,1.89743-1.3753,2.29536-.49526.16372-1.49769.43361-2.19089.74783-.44918.20361-1.25018,1.55378-2.22633,1.51741-.73312-.02731-2.40339-.56258-3.00145-.62294-1.11237-.11228-2.56125.19427-2.91957.26157-.43711.08211-1.94658.90537-3.08278,1.26614-1.1362.36077-3.52082-.74667-4.47439-.73488-1.28939.01595-2.54338.7217-3.46727.60105-.85944-.11224-1.61552-.73897-2.82799-1.00768-1.43901-.31891-2.68819-.5098-2.9356-.66936-.91221-.58833-.42257-1.99183-.93694-2.34421,3.05865-1.60697,5.06048-4.43841,12.43769-7.43541,3.76208-1.52834,9.86086-1.50188,13.42414-2.66612,4.72417-1.54354,8.06179-1.01248,8.18301-.56764.7135,2.61824-1.31823,2.68616-1.65802,3.59226Z" fill="#a6d67c"/>
      </g>
      <g id="leaf_3_left_hi" data-name="leaf 3 left hi">
        <path d="m137.03677,224.96295c5.83188.24051,13.19622,5.62227,15.92154,7.60432,1.7762,1.29178,6.2938,3.71463,9.10893,4.6866.05601-.14074.08361-.3091.07886-.51088-.01985-.84288-1.31459-5.05603-2.24934-5.85552-.18718-.16009-1.00261-.44575-1.54605-1.04596-.61094-.67476-.97256-1.67927-1.53866-2.03816-1.77225-1.12353-3.10291-.84351-3.77705-1.22348-7.2564-4.08999-10.57284-5.17373-16.62061-4.9997-6.26088.18017-10.47823,1.78539-11.952,2.31389-2.68125.96152-4.83503,2.6205-6.28277,4.2416,8.119-5.59963,11.75893-3.46545,18.85716-3.17271Z" fill="#a6d67c"/>
      </g>
      <g id="leaf_3_right_hi" data-name="leaf 3 right hi">
        <path d="m200.31684,204.74765c-.67163.49588-.80241-.43146-2.42377-.1243-.57048.10808-1.63184.84528-2.6681,1.77207-.23759.2125-1.96489.62652-2.38693.93071-.49738.3585-.76552,1.47209-1.78196,1.89693-1.17773.49225-1.46976.10818-2.87413.17245-.82493.03775-2.79347,1.21594-3.04658,1.26462-1.49455.28741-2.98909-.3449-4.0616.14868-.55534.25557-1.23335.75641-1.90423.73832-.273-.00736-.93258-.40619-1.81931-.32576-.22301.02023-.44186-.06801-.61418-.236,2.93678-4.50911,6.48622-3.38878,10.00263-5.876,4.97161-3.5165,7.97702-2.7659,9.74078-2.56547.72382.08225,2.59416.48828,3.01504.8679.69959.63101,1.06008,1.16032.82234,1.33585Z" fill="#a6d67c"/>
      </g>
      <g id="root_main_fade" data-name="root main fade">
        <path d="m173.00023,335.99994c-.55127,0-.99902-.44629-1-.99805-.00146-.71631-.12988-3.15283-.13135-3.17773-.0293-.55127.39404-1.02197.9458-1.05127.53076-.02734,1.02197.39404,1.05127.9458.00537.10205.13281,2.51221.13428,3.2793.00098.55273-.47314,1.03809-1,1.00195Z" fill="url(#linear-gradient)"/>
      </g>
      <g id="bud_5" data-name="bud 5">
        <path d="m169.38115,148.47949c-2.78349.01948-2.64611,4.12304-2.07757,5.83404.62008,2.05599,1.85479,3.23517,3.38744,3.23517,4.84101-.11629,3.46226-8.73806-1.30988-9.06921h0Z" fill="#2e541a"/>
        <path d="m169.38115,149.72949c1.18771,0,2.83772,1.75569,3.01743,3.3309.1971,1.31115.00419,3.23447-1.70761,3.23829-2.44231.11894-3.48396-6.44214-1.30982-6.5692" fill="#95c172"/>
      </g>
      <g id="bud_8" data-name="bud 8">
        <path d="m179.75322,150.95554c-1.82851,0-3.45699,2.24843-4.13095,3.577-1.85565,3.71836-.05956,5.46455,2.00325,5.63543,1.64873-.01616,2.6162-1.44728,3.41138-2.49321,1.53937-2.05559,1.63136-6.61421-1.28368-6.71922h0Z" fill="#2e541a"/>
        <path d="m179.75322,152.20554c1.44337.04661,1.37126,3.19603.2878,4.71386-.62177.81976-1.42175,1.99848-2.41544,1.99848-3.66913-.52717.15268-6.6632,2.12764-6.71234" fill="#95c172"/>
      </g>
      <g id="bud_4" data-name="bud 4">
        <path d="m175.92082,148.39333c-2.27699,0-4.18512,4.40344-4.46722,5.52878-.20123.80275-.81361,3.24557,1.4827,4.40489.37741.19055.81253.29128,1.25829.29128,1.45554,0,2.77284-.98575,3.35599-2.51131.62468-1.83673,1.66745-7.41845-1.62975-7.71364h0Z" fill="#2e541a"/>
        <path d="m175.92082,149.64333c1.5608.13571,1.03198,4.48104.46217,6.01731-1.37825,3.0924-4.8179,1.63392-3.7168-1.43455.39646-1.58197,2.18358-4.58276,3.25463-4.58276" fill="#95c172"/>
      </g>
      <g id="bud_flower" data-name="bud flower">
        <path d="m179.76198,192.21765c-.52522,0-1.89276.02617-2.91675,4.71036-.07069.32341-.26936.88838-.46149,1.43474-1.05701,2.68527-1.52505,5.25967,1.3947,5.69136.9225.23792,1.86528.85737,2.94579.32555,1.01071-.42098,2.80162-2.27169,3.39073-3.21087.69673-1.11078,2.02473-4.79337,1.52957-6.05542-1.01166-1.83861-2.80161-.56928-4.07855.81976-.01319-1.71436-.01119-3.48969-1.71121-3.71425l-.08385-.00124h-.00896Z" fill="#2e541a"/>
        <g>
          <path d="m181.68073,189.98941c-2.1487-.20522-2.2725,2.92174-3.04568,4.4061-.74519,1.25408-3.12617,7.52409,1.28111,7.9314,1.97483-.00004,3.50915-2.324,4.87302-4.83536.62896-1.06035,1.57419-3.76407.97305-5.82778-.54705-1.50557-1.75686-1.85091-2.95387-1.44193-.23988-.10286-.6026-.23242-1.12762-.23242h0Z" fill="#726400"/>
          <path d="m181.68068,191.23941c.57413-.00292.72863.25035,1.08645.28276.32559-.01436.82372-.35914,1.24224-.14943,1.36729.58565.40315,4.24633-.12761,5.17498-.46803.81892-2.28513,4.52914-3.9657,4.52914-2.91047-.27384-.23696-6.12999-.17889-6.09068.77376-1.28037.82265-3.89697,1.94351-3.74677" fill="#f2e05c"/>
        </g>
        <g>
          <path d="m179.77049,192.71765c-.99077,0-1.81055,1.45236-2.4368,4.31714-.30773,1.23732-1.25632,3.3387-1.28799,4.5033.02911,2.1903,1.57391,1.75836,2.57787,2.25873.51332.27083,1.29545.41855,1.90834.12136.82893-.34529,2.56357-2.06507,3.15948-3.01508.70868-1.12984,1.89105-4.57903,1.48767-5.60712-1.12854-1.74464-2.89138.74408-4.19106,1.92578.06915-1.69792.4493-4.23819-1.15598-4.50288l-.06126-.00124h-.00029Z" fill="#2e541a"/>
          <path d="m179.77055,193.46764c.00909.00002.01828.00043.02737.00125.87016.07932.43999,4.46365.21376,5.49852-.06104.27921-.18825.6835-.3524,1.12704.49756-.83575,1.01541-1.59584,1.34444-1.87289,1.11494-.93884,2.52464-2.75934,3.28296-2.75934.73303-.01433-.42613,3.68486-1.23053,5.04234-.56298.89739-2.18341,2.45921-2.81268,2.72137-.70182.32146-1.19252-.13199-1.88887-.32893-.6792-.17235-1.62082-.10498-1.55986-1.32135.05833-1.16371,1.04541-3.34581,1.27165-4.38068.22348-1.02229.96446-3.72754,1.70416-3.72733" fill="#95c172"/>
        </g>
      </g>
      <g id="flower_1" data-name="flower 1">
        <g id="flower_1_back" data-name="flower 1 back">
          <path d="m160.61484,187.70251c-.03202,1.169-.12022,4.38854-.15311,5.58862,2.30422,3.37151,5.24988,5.51757,7.2648.51016.57725-1.19065-.56832-3.6448-2.24617-5.67198-1.19299-.10467-3.68643-.32337-4.86552-.4268h0Z" fill="#2e541a"/>
          <path d="m161.17844,179.22478c-2.2164-.13931-3.44813,1.92228-3.35703,3.86797.03135,1.22325.88968,1.72675,1.50524,2.32416-.00857-.00164.17045.33313.22356,1.4064.00571.11388.01698.25169.03247.41127-1.35846-.1762-3.26046.61557-4.6769.9216-.80812.08822-1.77221.017-2.56533.77804-.56414.56415-1.48918,1.71369-1.34596,3.074.06093.56453.149.90694.21706,1.17462-.24665.53812-.81857,1.75283.02893,2.7623.53277.66149.88358,1.59049,2.15934,1.60295l.1002-.00638c.49683-.00801,2.03208-.61493,2.64333-.72682.9653.00132,2.39367-1.05756,2.9664-1.7524.07242,1.53732-1.50366,3.47145.57136,5.00965,1.26146.80208,2.0166,1.43847,3.45165,1.60293,1.16914.00304,3.16807-.93615,3.6721-2.42584.98123-2.07362,1.21904-5.0547-1.26675-7.28396-.05145-.10622-.1041-.20775-.15791-.30461.31368-.01473.74091.00055,1.03104.01335,1.11057.02285,2.86332-.81682,3.80996-2.08814.8784-1.19463,1.13139-3.47678.95153-4.35825.8184-3.62554-2.18569-3.8908-5.37877-3.07312-1.14045-1.98079-2.62706-2.93968-4.61551-2.92973h0Z" fill="#726400"/>
        </g>
        <g id="flower_1-2" data-name="flower 1">
          <g>
            <path d="m161.10011,188.24701c-.01972.71918-.11289,4.12036-.13388,4.88634,1.96375,2.80352,4.49939,5.09315,6.29111.49505.51432-1.38526-.90287-3.56464-2.04079-5.0203-.79888-.07007-3.341-.29307-4.11644-.36108h0Z" fill="#2e541a"/>
            <path d="m161.82802,189.06374l2.99283.26253c.84009,1.10262,2.10022,3.04533,1.73268,4.04294-.35977.97653-1.02148,2.15439-1.93576,2.15439-.97379.01915-2.88238-2.62381-2.89476-2.62694l.10501-3.83292" fill="#95c172"/>
          </g>
          <g>
            <path d="m161.17835,179.72478c-1.93306-.12803-2.92909,1.65809-2.85694,3.36795.022.99343.82772,1.43614,1.37416,1.98668.01155.01253.28424.32314.35404,1.71903.07143,1.02273.35725,2.93306.34989,3.91136.09001,1.66788,1.34497,2.19579,2.37185,2.54705.22371-.39151,1.04442-1.82774,1.28214-2.24376.07494-.17055,1.31574-3.01452,1.64871-4.39314.33931-1.43273.10848-2.48737-.13592-3.60395-.65717-2.04294-2.50032-3.35413-4.38792-3.29121h0Z" fill="#726400"/>
            <path d="m161.17835,180.47478c1.46006-.09207,3.10297,1.03045,3.64482,2.65353.23676,1.08259.45366,2.03329.14919,3.31884-.30447,1.28557-1.59004,4.22882-1.59004,4.22882l-.94725,1.6577s-1.28555-.47363-1.28555-1.62387-.317-3.2722-.35083-3.94881-.14606-1.75049-.55202-2.19029c-.40598-.43979-1.17528-.86905-1.17528-1.478-.036-1.38174.595-2.70751,2.10696-2.61792" fill="#f2e05c"/>
          </g>
          <g>
            <path d="m168.47064,182.28194c-.56413.00001-1.24049.07193-2.01028.21373-2.46544.45415-4.62296,3.67845-4.85431,5.25162-.20872,1.48979.28364,3.1233.4057,4.50166.62157.29575,1.57285.74835,2.19572,1.04471.11534-.53835.36368-1.72131.59196-2.06854.05596-.06239,1.29541-.08816,1.62221-.05109.96322.02014,2.55545-.75507,3.39669-1.88431.83192-1.13143,1.02474-3.41189.84825-4.02969.29684-1.71547.21682-2.99226-2.19594-2.97809h0Z" fill="#726400"/>
            <path d="m168.47052,183.03194c2.26423-.04835,1.37388,1.23177,1.47484,2.43417.11055.38662-.04081,2.44028-.73126,3.37931-.67664.92021-2.05736,1.57944-2.73619,1.57944-.59822-.01927-1.76216-.0852-2.15181.20839-.35904.27618-.64667,1.57861-.64667,1.57861l-.96138-.45741c-.05524-.57999-.55577-2.6346-.36998-3.89804.1902-1.29332,2.14915-4.2365,4.24815-4.62315.74715-.13763,1.37201-.20129,1.8743-.20131" fill="#f2e05c"/>
          </g>
          <g>
            <path d="m159.161,187.6931c-1.10822.04218-3.02104.68738-4.17236.95624-.741.09064-1.64403.00801-2.29464.63847-.50113.50114-1.3237,1.51415-1.20224,2.66803.06911.63414.154.8773.2455,1.27953-.26791.61325-.79661,1.53614-.11509,2.38685.4894.57991.76119,1.41512,1.75678,1.42587l.07941-.00465c.4597-.00752,2.09604-.65937,2.6441-.72675.8259.00006,2.32901-1.08833,2.73102-1.72009.41553-.70008,1.02759-1.5475,1.18304-1.56638.20268-.12386,2.50962.03985,2.33575.04891.00002-.00004.11521.01273.11521.01273.41614-.08263,1.15509-.22958,1.57008-.31204-.05584-.53038-.13961-1.32627-.19534-1.8557-1.37936-.83354-3.18022-3.27873-4.68123-3.23102h0Z" fill="#726400"/>
            <path d="m159.161,188.4431c1.12482,0,3.04596,2.32936,3.97324,2.91945l.0858.81509-.78497.15602c-.06564-.01017-2.27619-.23217-2.73287.0156-.55766.25738-1.20115,1.37278-1.50146,1.84468-.30029.47191-1.5873,1.3728-2.1021,1.3728s-2.1879.6864-2.7027.72929c-.5262.03741-.72688-.60278-1.20121-1.15829-.47189-.5577.30031-1.54441.30031-1.8447,0-.30031-.1716-.6006-.2574-1.41571-.0858-.81509.55769-1.63019.98669-2.05919s1.3728-.3432,1.8876-.429c.53322-.08613,2.92144-.88188,4.04906-.94604" fill="#f2e05c"/>
          </g>
          <path d="m163.30931,192.48724c-.28955,0-.53955-.19971-.60693-.47705-1.90654-1.26319-4.62327-2.11285-6.68891-4.02401-.60626-.54422.21885-1.47574.83201-.9325,1.42136,1.26755,3.27292,2.17575,4.62497,2.83933,1.55127.76074,2.40527,1.17969,2.4624,1.92139.02984.36121-.26147.67427-.62354.67285Zm-.58545-.45068h.01025-.01025Zm-.03711-.12646v.00098-.00098Z" fill="#2e541a"/>
          <g>
            <path d="m163.24272,190.61928h-.01529c-.8216.01042-1.28392.56326-1.5307.87462-1.33179-.04663-1.86838.58196-1.91582,1.09515-.34811,1.77745.05317,2.37069-.35655,3.78362-.27794.90734-.743,2.426.53546,3.28435,1.23016.78156,1.84303,1.32291,3.17296,1.51809,1.00698.00136,2.78962-.83265,3.20876-2.11389.77211-1.49341,1.21228-4.61115-.86047-6.4115-.71552-.63722-.74175-1.90592-2.23835-2.03044h0Z" fill="#726400"/>
            <path d="m163.24272,191.36928c.52011,0,.90086.58478,1.18256,1.1638.23413.48128,1.02139.97137,1.4341,1.86433.8764,1.89621.11296,3.56975-.27089,4.52539-.34218.85199-1.72833,1.5022-2.45567,1.5022-1.14305-.24449-1.56197-.62591-2.75495-1.3906-1.09566-.73572-.13573-2.39508-.04775-3.18695.088-.79189-.07474-1.48863.19122-3.1391.09215-.51589.9377-.46526,1.38629-.4621.3471.00122.55306-.8771,1.3351-.87698" fill="#f2e05c"/>
          </g>
        </g>
      </g>
      <g id="flower_2" data-name="flower 2">
        <g id="flower_2_back" data-name="flower 2 back">
          <path d="m183.58939,166.66397c-1.89131.11121-3.53938,1.54971-3.87046,3.26211-.08013.58742.13755,1.27376.86264,2.71897.15593.88594.21606,1.88467.79106,2.85826-1.85559.60456-3.84292,2.29908-3.82865,4.44477-.00006.91246,1.23821,2.76173,3.50919,2.92895,1.573.63419,4.21367,1.38058,5.5752.00359.20451-.19702.38618-.40424.54518-.62158.06775,1.28772.22466,1.86441.63042,2.27017.66295.66296,2.07556,1.12497,2.92871,1.12497l.09982-.00191c3.23215,1.19492,5.93077-2.23442,3.89938-5.16205,2.26291-1.35727,1.90085-3.31663,1.82733-5.72707.00003-1.77459-3.19075-3.01794-3.22298-3.026-2.22413-.60527-3.65993-.7074-4.90184,2.07385-.01799-.12364-.05086-.81079-.03488-2.4695.00768-1.06162-.61067-1.83902-1.06837-2.75285-.8987-1.64302-2.61642-1.80532-3.74175-1.92468h0Z" fill="#726400"/>
        </g>
        <g id="flower_2-2" data-name="flower 2">
          <g>
            <path d="m183.58934,167.16397c-1.61233.13766-3.02898,1.25651-3.37503,2.82961-.07909.43354.20693,1.23827.84845,2.49558.1681.92972.22928,2.13973.9274,3.02934.36126.45558,1.75206.98322,2.39068,1.20757.33143.23757,1.46541,1.70154,2.01422,2.47867.73763-.30729,2.15101-.8963,2.88724-1.20309-.43521-1.2577-1.30247-3.85561-1.33723-4.08773-.0066-.03631-.06603-.42846-.04557-2.57728.01267-.90259-.59856-1.68322-1.01376-2.52074-.7416-1.37742-2.26664-1.54042-3.29641-1.65193h0Z" fill="#726400"/>
            <path d="m183.58934,167.91397c.87072.10021,2.11557.26556,2.62833,1.24275.48223.94524.93798,1.53285.93186,2.17278-.00484.50742-.01929,2.29552.05788,2.71991.07716.42438,1.13812,3.53009,1.13812,3.53009l-1.69319.70557s-1.52826-2.09447-1.97194-2.24878c-.44366-.15433-1.88161-.70511-2.10262-.9838-.68407-.86259-.65131-2.51292-.84421-2.89873s-.83403-1.63445-.77617-2.05884c.05788-.42438.71375-1.42746,1.04167-1.58179.33528-.15779,1.06477-.59911,1.59026-.59917" fill="#f2e05c"/>
          </g>
          <g>
            <path d="m191.26329,171.89757c-1.50084-.04313-1.93521,1.25772-2.98105,3.39957-.3114.93306-.92124,1.44957-1.70486,1.73083.00007.00006-.72101.31733-.72101.31733.22783.45567.57949,1.1591.80617,1.61241.43085.1701,2.13976.88888,2.98092,1.1227,1.24742.21147,3.64842.20029,4.5212.08215,1.12061-.25621,1.76213-1.64106,1.89725-2.2716.1347-.43754.01085-2.25341-.00265-3.12781,0-1.32044-2.65003-2.49233-2.84432-2.54089-.45789-.12014-1.1534-.31571-1.95164-.32468h0Z" fill="#726400"/>
            <path d="m191.2632,172.64757c.70773-.00002,1.51286.23805,1.76984.30229.30864.07716,2.27623,1.15741,2.27623,1.81328,0,.67516.13503,2.43056.01929,2.97067-.11574.54013-.65587,1.54321-1.33102,1.69754-.16716.03821-.782.05814-1.49472.05814-1.05122,0-2.31557-.04333-2.67194-.1353-.59799-.15433-2.62346-.9838-2.62346-.9838l-.32793-.65587c.48225-.21219,1.31172-.5787,1.71681-1.33102.55177-.90193,1.43742-3.96297,2.6669-3.73593" fill="#f2e05c"/>
          </g>
          <path d="m186.51195,178.66254c-.54146.01913-.84536-.71353-.42917-1.07911.20212-.1914.44138-.37011.73776-.58788.71045-.52344,1.78467-1.31445,3.51904-3.33887.22461-.26025.61865-.29199.88135-.06787.26221.22461.29248.61914.06787.88135-1.82715,2.13281-2.9707,2.97461-3.72705,3.53174-.41293.23859-.60221.63315-1.0498.66064Z" fill="#2e541a"/>
          <g>
            <path d="m189.74924,176.91042c-.47849,0-.85626.2318-1.08405.40781-.65271-.12579-1.40026.16901-1.52629.57759-.31503.49394.31873,1.36549.46665,1.91569.01324.13115.01831.49171.02368.87344.03174,2.25455.11253,3.07504.52826,3.49075.55106.55106,1.83679.97849,2.57516.97849l.08063-.00153c1.82512.56458,3.67576.07069,4.09479-2.16139.27274-1.36356-.92609-2.84301-1.66595-3.37448-.38929-.48313-.99595-1.35055-1.35212-1.60169-.57506-.40939-1.35249-1.07868-2.14077-1.10467h0Z" fill="#726400"/>
            <path d="m189.74924,177.6604c.5974.0787,1.16241.58184,1.68036.94664.42179.32813,1.15951,1.47141,1.3432,1.59662.65543.44678,1.58733,1.70328,1.39986,2.64062-.19238,1.09499-.92261,1.80364-1.96531,1.79117-.5631.00002-.89762-.23326-1.36834-.23329-.65438.03579-1.75402-.37147-2.15119-.7568-.37494-.37495-.27363-3.29853-.33726-3.91892-.20368-1.05242-1.27915-1.85312.41504-1.654.37333-.00987.49668-.42358.98364-.41204" fill="#f2e05c"/>
          </g>
          <g>
            <path d="m182.10382,175.93155c-.80134-.02351-1.1935.27946-1.76773.63984-1.13449.47601-2.36645,2.10419-2.2921,3.37675-.00011.64904,1.08095,2.30539,3.08487,2.43293.69334.19807,1.64707.7014,2.39991.68441.93308.09021,2.08734.20715,2.74601-.53834.72411-.69783,1.12486-1.52754,1.2178-2.49196.19621-.50251.96875-1.47838.84815-1.95033-.06164-.52426-.43159-.96704-1.02186-1.2298-.54064-.89872-1.9177-.6857-2.85262-.62257-.77612-.03492-1.53016-.31293-2.36243-.30092h0Z" fill="#726400"/>
            <path d="m182.10379,176.68155c.67152.00002,1.4753.2106,1.97223.27686.73232.10116,1.46852-.15202,2.1844,0,.32356.0719.51193.48641.66774.54633.1973.07588.62328.28973.66774.66774.03035.258-.80672,1.34326-.84985,1.79076-.1214,1.2596-.84984,1.88181-1.0016,2.03357-.31636.31636-.68729.39485-1.07274.39485-.37967,0-.77341-.07616-1.14294-.07616-.74469,0-1.89548-.65385-2.35226-.68292-1.66934-.10623-2.38261-1.48593-2.38261-1.68452,0-.19858.02365-.67772.47046-1.47206.44681-.79433,1.34265-1.14665,1.98804-1.59346.21472-.14865.51659-.20099.85141-.20097" fill="#f2e05c"/>
          </g>
        </g>
      </g>
      <g id="flower_4" data-name="flower 4">
        <g id="flower_4_back" data-name="flower 4 back">
          <path d="m173.26709,149.77617c-.4448.00291-.81145.15094-1.16531.27039-.37259-.00234-2.13208.83351-2.67204.97607-.37757.01648-.99042-.15826-1.32701-.2823-1.61826-.6084-3.63467-.53033-3.9299,1.77768-.69305-.28219-1.78046-.48411-2.4639-.02015-.10468.06566-.28307.13888-.44045.20345-.41368.16974-.92851.381-1.2065.90924-.03146.05975-.08476.17683-.15215.33171-.37468.86127-.56607,1.15154-.66064,1.24339-1.03888.77959-1.90066,1.46783-2.3147,2.72208-.25616.50756-.63609,1.26092-.25474,2.00814.48477,2.08556,1.93437,1.49727,3.28111,1.27687,1.33288.34394,2.47462-.35251,3.28514-1.40643.88173.8036,1.9905,1.51992,3.28277,1.57962.47069.00685.82437-.16953,1.31844-.14564,1.79923.17095,3.99799-1.91336,3.5303-3.89089-.08374-.34405-.40027-1.12498-.84945-1.87829,1.70993.24818,2.85837-.82303,3.73212-2.13733,1.10701-1.53274.66835-3.44182-.99309-3.53762h0Z" fill="#726400"/>
        </g>
        <g id="flower_4-2" data-name="flower 4">
          <path d="m165.40404,155.34125c-.27393,0-.52539-.18164-.60205-.45898-.63379-2.29785-3.19678-4.44727-4.2915-5.36523l.34961-.52246.40186-.479-.40186.479.45361-.43506c1.28418,1.07666,3.95605,3.31738,4.69336,5.99072.11426.38996-.19765.79677-.60303.79102Z" fill="#2e541a"/>
          <g>
            <path d="m174.00462,150.58051c-.35521-.48876-1.30126-.25789-1.80566-.04065-.26735-.03603-2.18915.86489-2.64551.96722-.47523.07735-1.24409-.16217-1.62695-.29888-1.76634-.57449-3.14959-.53111-3.36432,2.03148-.56755-.30224-1.85944-.80296-2.58746-.31835-.47355.28895-1.19991.38792-1.47021.92193-.20393.41163-.5543,1.36017-.9237,1.71655-1.02036.76948-1.80892,1.38661-2.19985,2.57307-.25878.51275-.55199,1.09399-.20635,1.64251.11891,1.61193,1.7331,1.11568,2.79999.91095.38517.08613,1.17564.13905,1.54004-.06197,1.63891-.95906,2.71644-2.90333,2.74756-4.71288.04788-.23329.42764-1.00053.7832-1.58496.70256.33256,1.17284.4986,1.49719.49475l.04596-.00281c.88711.03918,2.27667.31014,3.11877.11926.60905-.03596,1.54374.10921,2.11383-.06813.82733-.22929,1.44342-1.0562,1.987-1.78575.73133-.90574.68004-2.00347.19647-2.50336Z" fill="#726400"/>
            <path d="m162.75789,153.4675c.53485,0,1.2948.32832,1.61458.52292,0,0-.92365,1.54222-.8604,1.96255.05792,1.27408-1.08743,3.35156-2.32236,3.99543-.31618.13871-.89796.02808-1.18826-.01393-.35456-.00092-1.23192.27841-1.71159.25105-.46912-.03588-.29323-.51236-.48074-.80995-.18752-.29761.34367-.96948.52847-1.55293.1848-.58347,1.22653-1.26038,1.73154-1.69362.50499-.43324.98235-1.71477,1.09901-1.93636s.7506-.35074,1.20526-.63608c.10017-.06288.23334-.0891.38449-.0891" fill="#f2e05c"/>
            <path d="m173.26707,151.02617c.46231.05513.4952.85277-.00873,1.54038-.49992.67012-1.03723,1.41397-1.63753,1.58036-.82312.15293-1.69894-.04399-2.51604.10828-.79605.00053-2.23032-.19418-2.59077-.18393-.2897,0-1.24473-.4672-1.24473-.4672.03107-.23656.18741-1.72528.61824-1.85306,1.45123-.36694,2.32702.7267,3.85138.4828,1.349-.44061,2.417-1.03608,3.52818-1.20764" fill="#f2e05c"/>
          </g>
          <g>
            <path d="m166.26474,152.162c-.93189.08698-1.53138.86971-2.50529,1.06592-1.52501.43399-1.07447,2.3988-.94802,3.4786.10764,1.0333.1591,2.48846,1.3452,3.19115.70154.45381,1.49666.96818,2.37218.96818.45028-.00615.85023-.17513,1.30974-.14546,1.55599.15599,3.42263-1.64306,3.05317-3.27276-.19122-.78567-1.28178-2.93469-2.21573-3.25251-.32613-.11099-.77888-.54688-.87958-.75146-.17256-.35057-.63086-1.28166-1.53168-1.28166h0Z" fill="#726400"/>
            <path d="m166.26474,152.912c.4084,0,.69672.53363.85875.86282.19202.39015.80148.95695,1.31088,1.13031s1.52791,1.89517,1.72859,2.71983c.20604.84668-.62106,1.68256-1.20705,2.09213-.58598.40959-1.26279.13853-2.06633.35229-.86274.20821-1.62292-.36165-2.42548-.866-.79896-.5155-.81535-1.77968-.90756-2.58244-.09221-.80278-.46303-2.44949.38797-2.66615,1.0376-.23369,1.58501-.86181,2.32022-1.0428" fill="#f2e05c"/>
          </g>
        </g>
      </g>
      <g id="flower_3" data-name="flower 3">
        <g id="flower_3_back" data-name="flower 3 back">
          <path d="m157.90056,156.73128c-1.89082.01972-3.14314,2.06045-2.35979,3.97903-.70711-.93386-2.16594-1.22231-3.17909-.85279-.15107.04632-.24933.04945-.44311.05893-2.38954-.04264-3.46878,1.93098-3.4725,3.53829-.21958.71138-.5869,1.78906-.48507,2.32231.09342.79492.85607,1.88721,1.75614,2.41215-.77566.91129-1.33656,2.71613-1.43333,3.28648-1.4943,2.81645,2.02405,3.2843,3.91941,3.24868.61081-.00171,1.04273-.04984,1.42509-.16891,1.03992-.28982,2.78818-.88684,3.59584-2.26383.22918,1.452,1.88032,2.01031,2.95608,2.35514.59223.18019,1.18889.41691,1.90958.42133.55527,0,1.02887-.16033,1.40764-.47653.73091-.61018,2.0204-2.94676,1.24492-4.20103-.16545-.26758-.30569-.68114-.32553-.81287-.06488-.91818-.83524-3.31237-2.91238-3.20416,3.18214-1.7232,1.23078-6.1174.66454-7.22297-.50154-.97561-2.20503-2.4192-4.26844-2.41928h0Z" fill="#726400"/>
        </g>
        <g id="flower_3-2" data-name="flower 3">
          <g>
            <path d="m157.90051,157.23126c-2.26815.08827-2.89076,3.14041-.84399,4.52769-.49058,1.0385-.64733,2.15916-.49386,3.44902.07578.41365-.38015,2.08112-.679,2.92435.88085.63109,2.53179,1.81399,3.4063,2.44054.14574-1.09012.4652-3.27867.67126-3.94322.87845-.43924,2.1599-.9572,2.67035-2.25984.68566-1.85557-.89119-4.95942-.90719-4.99055-.38507-.74899-1.90204-2.14798-3.82387-2.14798h0Z" fill="#726400"/>
            <path d="m157.90051,157.98126c1.6111,0,2.87776,1.19804,3.15686,1.74091.45787.89056,1.32555,3.15672.87068,4.38766-.45485,1.23096-2.30751,1.74866-2.55585,2.00664-.24835.258-.65215,3.12544-.65215,3.12544l-1.95308-1.39935s.65512-2.00949.53635-2.7529c-.13238-1.20547.00398-2.08725.47691-3.12458.22035-.59626-.16139-.62801-.75723-1.26352-.98941-1.07327-.30797-2.70042.8775-2.72029" fill="#f2e05c"/>
          </g>
          <g>
            <path d="m153.39641,160.19786c-.62718-.00167-.89111.21087-1.45134.21791-1.86869-.06606-2.98748,1.39956-3.00064,3.07922-.15624.63248-.59096,1.77877-.48687,2.22358.09157.77865,1.10036,2.03087,2.00646,2.24462.53839.12701,3.28012.67162,4.2131.73006.3748-.00128,1.45232,1.1355,1.86542,1.72621.89562-.51065,2.73577-1.56461,3.62558-2.07333l-.69249-.69394c-.0002-.00021-2.16852-2.17305-2.67677-2.69244-.39114-.3997-.6461-1.05879-.69582-1.5033-.02125-.92484-.87358-3.35968-2.70663-3.25859h0Z" fill="#726400"/>
            <path d="m153.39641,160.94786c2.40001.23599,1.46155,3.28767,2.86642,4.53639.50924.52046,2.68192,2.69771,2.68192,2.69771l-2.21625,1.26793s-1.15331-1.45184-2.00449-1.50517c-.8512-.05331-3.48909-.57025-4.0878-.71149s-1.37775-1.12558-1.43384-1.60229c-.05608-.47672.45915-1.69865.48961-2.07552.07687-.95097.2874-1.71519,1.09549-2.14328.57784-.30611,1.27049-.20592,1.69205-.29608.23669-.05063.55559-.1682.91689-.1682" fill="#f2e05c"/>
          </g>
          <path d="m158.37083,169.28265c-.21631,0-.42627-.1123-.54199-.31299-.75426-1.29886-2.99953-2.65121-4.54101-3.68995-.67587-.45669.01766-1.49214.6973-1.03708,1.01805.67586,6.88509,4.31833,4.38571,5.04001Z" fill="#2e541a"/>
          <g>
            <path d="m158.84979,166.62877c-.79079-.00011-.97166.76644-1.03972,1.05501-.24899.23783-.7837.53122-.5704,1.3255.11932.3912.4277.64765.61323.96247-.27077,1.17014-.39409,2.6745.51688,3.29193,1.26843.79075,2.30493,1.13199,3.71999,1.3046.43502-.00013.80079-.12138,1.08721-.3605.60303-.5034,1.7193-2.6174,1.14008-3.55426-.22939-.37102-.38878-.89395-.39763-1.02486-.22861-1.82396-1.22333-3.22839-3.67036-2.65094-.43869.04851-.97873-.38246-1.39928-.34895h0Z" fill="#726400"/>
            <path d="m158.8497,167.37877c.36522.04602.91965.38886,1.31956.35721.58996-.08602,1.22509-.20477,1.88761-.02237.69305.16344,1.10911,1.65169,1.11284,1.93129.00372.27959.23204.95436.50943,1.40303.27739.44865-.46219,2.14951-.98279,2.58412-.60813.45132-1.57064-.03105-2.16549-.18506-.61928-.18095-1.1095-.37665-1.74028-.80417-.63077-.42751-.32259-2.01233-.19801-2.54036.12456-.52805-.51816-.94434-.63832-1.32108s.46123-.39737.5858-.92542c.07915-.33553.1375-.47722.30966-.4772" fill="#f2e05c"/>
          </g>
          <g>
            <path d="m152.47009,167.38177h-.04204c-.6493.07276-1.82563.09193-2.78083,1.81828-.72993,1.3672-.66048,1.8038-.96121,2.57907-1.50202,2.73434,3.87564,2.58087,4.79908,2.29736.91696-.27414,2.30272-.68834,3.13951-1.78914.31473-.40284.64185-1.21412.96991-1.56984.48564-.4809,1.22878-.83748,1.18189-1.68468-.15025-1.0105-.98891-1.03219-1.67747-1.26672-.20686-.10975-.53525-.23285-.80601-.22252-.62363-.02036-1.05799.42503-1.53526.55018-.56458-.18902-2.02153-.78242-2.28757-.71199h0Z" fill="#726400"/>
            <path d="m152.47006,168.13177c.47385.00651,1.9095.71524,2.2876.71201.62097.00109,1.09958-.66439,1.69442-.53179.25949.06122.49313.26767.81094.29284.31781.02518.74446.20967.76556.48523.02901.37917-.57703.69919-.97142,1.10423-.39439.40503-.74146,1.26009-1.02965,1.63919-1.01567,1.14978-2.42774,1.57757-3.82427,1.6411-1.1451-.00013-2.66956-.23522-2.89347-.52561-.3051-.39572.01985-.71753.14494-1.03667.12509-.31915.1338-.98949.85629-2.36308.74519-1.39298,1.76103-1.37246,2.15904-1.41745" fill="#f2e05c"/>
          </g>
        </g>
      </g>
      <g id="flower_5" data-name="flower 5">
        <g id="flower_5_back" data-name="flower 5 back">
          <path d="m185.8907,149.44339c-1.14604-.01977-1.95213,1.18332-1.70996,2.24712-.78344-1.47548-2.71742-1.83014-3.93165-.53725-.60334.56405-.6187,1.6242-.53768,2.30392-.00372.01965-.0092.03819-.01495.05795-.24821.35567-.74366,1.04577-.55666,2.24893.14305.903.57837,3.65088,2.48505,4.57289.80765.39053,1.71085.64377,2.46408.84621-.58078.95894-.20747,2.60184.42447,3.54333.6846,1.01987,2.1134,1.89932,3.12929,2.18094.41815.37321.78598,1.14908,1.23492,1.49187.98997.6902,1.67516.632,2.33251.59351.9129.13743,1.84049-.09609,2.4612-.81587,1.2752-1.40918-.17942-2.88042-.72702-3.43427-.46619-.45067-.65037-.76138-1.07341-1.4487,1.91425.80846,3.77733.81586,5.71311.14197,1.55702-.73225,1.57687-1.92386,1.61274-2.40715.0749-2.27421-1.63673-4.9948-4.42653-4.60795-1.15404.05807-2.2096-.32968-3.36233.15303-.25862-1.78797-.90498-5.02622-1.83234-5.26653-1.1168-.72512-2.32079-1.82061-3.68483-1.86396h0Z" fill="#726400"/>
        </g>
        <g id="flower_5-2" data-name="flower 5">
          <g id="bud_7" data-name="bud 7">
            <path d="m187.26964,157.56435c-2.77405.12645-6.80369,1.91909-5.7091,5.0274,1.4658,3.48464,6.57109,1.16116,7.8142-1.54877.80001-1.61657.14973-3.39337-2.1051-3.47863h0Z" fill="#2e541a"/>
            <path d="m187.26964,158.81435c2.89675.25669-.17532,3.67965-1.83389,4.07075-.88766.24772-2.29515.46146-2.69321-.69984-.78009-2.16556,2.84381-3.27643,4.5271-3.37091" fill="#95c172"/>
          </g>
          <g>
            <path d="m198.41515,159.42468c-.18294-.89197-.88692-1.83114-2.03082-2.33577-.83737-.31818-1.32456-.14601-2.11346-.14746-1.21217-.1833-2.24188-.18079-3.42639.37178.1569-.81719-.02785-1.25234-.18679-2.06836-.42735-2.11255-.69767-3.14667-1.32774-3.50207-1.08462-.66648-2.08386-1.69954-3.4394-1.79938-1.37884.08538-1.58161,1.71486-.71392,2.58472-.23489,1.27085-.26796,4.08986.78906,5.32788.04144.28564-.09644,1.12018-.3064,1.82776l-.09351.28827-.72156.38287.45496.4389c-.01493.04586-.20321.62671-.22382.69025.36311.19736,1.76326.95861,2.15149,1.16968l.20422.19702.11823-.02173.38403.20886.19946-.31555c.87488-.15875,2.06702-.36792,2.39868-.4068.57244.09711,2.42921.9122,2.94727.99518,2.90915.36288,6.26936-.21462,4.9364-3.88605Z" fill="#726400"/>
            <path d="m197.60002,159.29755c-.10083-.38824-.69922-1.18683-1.49982-1.51453-.6171-.24326-1.15325-.08454-1.82935-.09156-.39062.02797-.87381-.12029-1.31445-.13919-1.07166.0001-2.58179.77628-3.28095,1.13218.25311-.65588.60406-1.73523.44525-2.36688-.2381-.9469-.63245-3.62439-1.15924-3.92151-1.26336-.742-1.60918-1.41019-3.0709-1.70269-.55815.044-.61368.78577-.31684,1.10849.24327.30434.42082.55148.34282.85323-.07806.30182-.22485,2.11499-.03296,2.9292.19189.81427.28174,1.40088.69409,1.82941.41235.42859-.19946,2.48376-.19946,2.48376l-.19287.59491c-.04504.02386-.07648.04053-.07648.04053l.04822.04651-.17615.54333,1.6936.92078c.01736-.00003,2.38718-.44463,2.85274-.47968.51555.00006,2.5612.91266,3.08696,1.00922.88135.13495,2.63403.10363,3.45141-.27472.95795-.43647.84998-1.10828.89026-1.4198s-.25507-1.19269-.3559-1.58099Z" fill="#f2e05c"/>
          </g>
          <path d="m186.65404,160.91351c-.59182.02189-.86398-.82614-.34713-1.14503,1.65524-1.10351,3.84615-2.91454,4.88131-5.27245.13867-.31592.50586-.46191.82324-.32129.31641.13867.45996.50732.32129.82324-1.28009,2.69419-3.60179,4.90391-5.67871,5.91553Z" fill="#2e541a"/>
          <g>
            <path d="m182.13039,150.85406c-1.13659-.01791-2.08614.88709-1.95091,2.03438.05782.61419.0391.60006-.02347.84186-.27181.39677-.67238.8853-.52236,1.95556.13297.83916.53757,3.39283,2.2089,4.201.82144.3972,1.76955.65108,2.53136.85506.82461.16833,1.1653.47712,1.87452.50108.75148.01696,1.37649-.52507,1.20895-1.24211.12648-.33998.28554-.64512.28374-1.09106-.01018-.74974-1.15091-2.72342-2.00415-3.257-.61599-.72723-1.08961-2.48709-1.72934-3.28979-.39851-.6755-.91828-1.52194-1.87723-1.50896h0Z" fill="#726400"/>
            <path d="m182.13039,151.60406c.70896-.01066,1.06554.94305,1.54181,1.63785.46701.68414,1.00891,2.63516,1.6671,3.04679s1.64566,2.17307,1.65189,2.6313c.00623.45822-.40488.95076-.27478,1.22585.12873.41442-.71027.40675-1.02231.21858-.61205-.27893-2.27307-.54739-3.52506-1.15277-1.25198-.60539-1.64171-2.67804-1.79462-3.64316s.41678-1.30075.4948-1.60251c.07802-.30177.13524-.36746.05649-1.15244-.07745-.77208.53717-1.20949,1.20468-1.20949" fill="#f2e05c"/>
          </g>
          <g>
            <path d="m185.76839,160.03995c-.90526.04773-.97643.82536-1.09787,1.20613-.68878.67459-.31685,2.34534.25803,3.20177.62305.92822,1.98906,1.75623,2.89737,1.99107.46861.22408.93169,1.24367,1.36581,1.57143.83553.57488,1.42451.52545,2.00016.47955.76921.1204,1.58099-.02386,2.10869-.64842.95787-1.05848-.12836-2.15708-.71192-2.74731-.75793-.69524-1.59868-2.31939-2.08812-3.2033-.52409-.9474-1.6673-.77669-2.54826-.90857-.65079-.2997-.92403-.89969-2.14628-.94189l-.03761-.00047h0Z" fill="#726400"/>
            <path d="m185.76839,160.78995c1.21999.05414,1.29884.81496,2.06935.93358.77393.11959,1.72929.00441,1.99924.51687.26993.51245,1.22934,2.24948,1.78156,2.91541.5522.66592,1.74567,1.49763,1.12593,2.1825-.49621.55427-1.01124.43724-1.56008.40341-.49615.06877-1.116.00224-1.5213-.31472-.36618-.29588-.93274-1.52891-1.64944-1.7142-.71671-.1853-1.93942-.90385-2.46237-1.68294s-.64531-2.01801-.34097-2.26126c.29999-.23978.18167-.97865.55809-.97865" fill="#f2e05c"/>
          </g>
        </g>
      </g>
    </g>
  </g>
</svg>