<?xml version="1.0" encoding="UTF-8"?>
<svg id="Layer_2" data-name="Layer 2" xmlns="http://www.w3.org/2000/svg" xmlns:xlink="http://www.w3.org/1999/xlink" viewBox="0 0 394 469">
  <defs>
    <linearGradient id="linear-gradient" x1="173.02316" y1="336.00184" x2="173.02316" y2="331.76898" gradientUnits="userSpaceOnUse">
      <stop offset="0" stop-color="#fff"/>
      <stop offset=".34875" stop-color="#fff"/>
      <stop offset=".90496" stop-color="#fff" stop-opacity="0"/>
      <stop offset="1" stop-color="#fff" stop-opacity="0"/>
    </linearGradient>
  </defs>
  <g id="CASE_3_Plants_LH_WH_CH" data-name="CASE 3 Plants LH WH CH">
    <g id="Day_12" data-name="Day 12">
      <g id="rectangle">
        <rect width="394" height="469" fill="none"/>
      </g>
      <g id="ROOTS_BACK" data-name="ROOTS BACK">
        <path d="m195.05321,340.48285c-1.38849-.83759-2.94244-1.58405-4.68127-1.93787-1.40979-.32794-3.03723-.22229-4.37207-.34027-1.17084-.49384-2.38397-.90015-3.6225-1.21362-2.31639-.50938-4.78182-1.17475-6.88104-2.29675.12584-3.29102-4.54075-3.53452-4.95831-.53271-.9837.84351-2.15015,1.56952-3.33228,2.10663-1.82086.87537-3.80835.86163-5.64935,1.56604-4.19659,1.54584-8.43909,3.38068-10.72784,7.67493-.89301,1.90759,1.92316,3.27411,2.87415,1.40649.31433-.51569.69702-.9884,1.12305-1.42981-.3601,1.58264-3.03281,2.94971-1.46051,4.61053,1.01215.85449,1.9201.37085,2.67017-.448.32345.34281.91263.51855,1.48468.38495-1.09821,1.43622-2.00732,3.01282-2.62897,4.69226-.71063,1.93469,2.11774,3.08557,2.96143,1.2113,1.14758-2.82288,3.11493-4.97021,5.47583-6.68311-.67865,1.2511.7027,2.84186,2.07355,2.19885-.95697.88574-1.81995,1.89807-2.61945,2.91406-1.51471.3233-3.16071.56519-4.59351,1.42657-1.36994.75344-.83904,2.92801.70331,2.97919-.15991.09802-.31885.18384-.47504.23999-1.93549.74506-.91534,3.6424,1.05737,3.02014,1.94031-.745,3.30609-2.15668,4.56915-3.67816.48773,1.32172,2.69379,1.45728,3.06671-.24768.42273-1.8833,2.21039-3.60663,2.83136-5.63885.24176-.27716.46448-.57544.67792-.88251.04285.44061.07495.88196.10034,1.32373-1.0733,1.84155-1.5592,3.70575-2.9696,5.04071-.67914.61914-1.20685,1.38666-1.67267,2.19049-2.1958,1.18091-4.12781,3.29883-6.39441,3.79077-2.0708.40393-1.51373,3.49091.56519,3.1496.66925-.11743,1.27484-.32397,1.85254-.56891-.14569.18341-.27924.37366-.42963.5545-1.2887,1.59918.99799,3.59656,2.4082,2.1073,1.06116-1.15228,2.05658-2.39166,2.95355-3.70197,1.22424-1.63092,1.8446-3.42804,3.14801-4.68311.17676-.13788.33313-.29529.49371-.44861-.00928.27075-.01904.5415-.02747.81232-.0556.60248-.11719,1.22583-.17841,1.85669-1.42767,3.05518-8.4649,10.22864-4.56134,11.61804.85406.21692,1.72223-.29962,1.93909-1.15369.09113-.2511.19604-.49689.30914-.7395.67596.52051,1.75385.51587,2.30945-.29395.30865,1.84326.85004,3.64569,1.58075,5.34442.33319.77008,1.21466,1.16187,2.0144.87268.89621-.31924,1.2868-1.33571.91309-2.19452.09973.0354.2041.06207.31299.07739,1.04486.10364,1.54749-.46289,1.74854-1.23804.74445-.25354,1.02795-.79724,1.05334-1.4458.60852,1.20374,2.23969,1.03058,2.80286.02197.03503,2.30531,2.89316,2.70951,3.28058.46692,1.35803.07886,2.41888-1.78363,1.07037-2.86786-.96698-.73224-1.46277-1.76532-2.41138-2.58881-.77785-2.07609-2.29855-3.8832-4.04755-5.224-.25616-.53546-.55121-1.05768-.89917-1.55963-1.12515-1.28938-2.26158-2.52488-2.9173-4.12714.08276-1.05896.15051-2.11908.1767-3.17749.41223.22504.80835.44647,1.14325.68048.15967.16516.31659.34766.47504.52209.2099.5351.23792,1.12109.44208,1.82922.53546,1.55023,1.42291,4.67249,3.46826,3.87073.5788,1.15955,1.05176,2.33661,1.34491,3.47729.10565.89313.92676,1.54492,1.82739,1.40839,1.54803-.27698,1.55469-1.91406.88184-3.94177.97169.90271,1.92196,2.61719,3.43156,1.48149.68667-.55601.79256-1.56352.23647-2.25023-.8772-1.08331-1.86462-2.16193-3.14203-3.04431-.97351-.72687-2.35773-1.17712-3.2774-1.75653-.96436-1.57764-1.8822-2.86438-2.31061-3.35785-.50415-.7113-1.2243-1.26245-1.98212-1.77368.67761.26813,1.3584.21741,1.90314-.4566,1.08652,1.58749,2.91557,7.29937,5.44427,4.63501.06104.09973.13513.19434.19214.29559.40228.75336,1.33167,1.06018,2.10693.68414,3.42175-1.98676-4.44037-8.16113-6.10742-9.375-1.44159-1.00934-2.63605-1.8728-4.37366-2.57727-.90491-.36823-1.53186-.75641-2.11987-1.34546.02881-.3645.05591-.72894.09308-1.09418.42511.11981.85913.21069,1.29797.28442.02936.00964.05554.02466.08569.03284,1.08075.52313,2.00836,1.62891,2.87781,2.53131,1.2005,1.27368,3.05493-.00305,2.74988-1.40601.49164.25104.97882.52856,1.47772.79761.02631.01605.05389.03333.08032.0495.76709,1.22894.96875,3.44696,1.87378,4.89752.6853,1.19574,2.29749,2.92328,3.62512,1.89758.45612.7605,1.47888.92004,2.19714.51483.00848.02191.01984.04321.02808.06519.57654,2.03595,3.60602,1.22192,3.0921-.82465-1.13251-3.85663-5.86963-7.96625-10.14435-10.25323,2.85571.96716,5.57782,2.677,7.28247,4.99536,1.16844,1.73062,3.78336.0554,2.69183-1.73053-.42847-.63678-.90808-1.21698-1.40961-1.77155.27313.13812.54651.28351.8222.45947,1.81899.97845,3.35987-1.67347,1.60413-2.76837Zm-26.49951,7.12482c.34265-.64294.69482-1.27222,1.10413-1.8468.09375-.04523.18811-.091.28223-.13617.00031.05316.00098.10632.00165.15955-.58557.56696-1.01514,1.18445-1.388,1.82343Zm-10.263-1.25232c-.12115.06097-.21631.09723-.32721.14911.38745-.93268.69977-1.84503,1.14838-2.66797.31226.80499,1.22009,1.38757,2.23041.86926,1.89551-1.01709,2.6922-3.03577,4.42139-3.97467,1.60028-.2851,3.13623-.78613,4.56415-1.50629-.04559.53973-.09155,1.08081-.13995,1.62305-1.82418,1.41443-4.08841,2.26842-6.10822,3.52325-2.0957-.01453-4.0097,1.0553-5.78894,1.98425Zm9.21539,3.0636c-.16742.2641-.34491.52576-.54755.78094-.05109.03461-.09851.07556-.14905.11102.25305-.28009.48651-.57642.69659-.89197Zm6.99847,14.2702c.16077.14893.39087.35651.52228.53912,1.44318,2.10815,2.03467,4.86487,2.55353,7.47522-.12408-.29565-.25403-.57129-.37012-.80579-.75397-1.77112-2.66919-3.21765-3.15503-4.92822.1059-.7951.21027-1.59808.3147-2.40961.04541.04187.08875.08875.13464.12927Zm.48645-13.72546c-.01941-.20117-.05774-.39789-.08093-.59814.39245.63093.79969,1.11219,1.42578,1.68976-.49799-.33789-.95905-.69293-1.34485-1.09161Z" fill="#4c4c4c"/>
      </g>
      <path d="m214.31273,276.28101c-.05573-.09064-.12732-.20715-.18579-.30811.15143-.48761.44659-1.35834.64447-1.81763.31726-.73633.07581-1.48425-.2038-2.35028-.27303-1.33598-1.22489-3.1084-2.29137-4.1914-.39685-.49532-.59604-1.26124-1.10692-1.93346-.52877-.75387-1.40243-1.03311-2.32729-1.32876-.35675-.11401-.72559-.23193-1.08533-.37811-.5195-.23353-2.5219-.38504-3.30023-.5799-1.62246-1.42194-1.95224-1.65405-2.46777-1.7221-1.00779-.11618-2.79071-.06269-3.82837.16689-.26535.05556-1.87567.72738-2.53894.98801-3.89031.02091-4.11536.16154-6.06561,4.26654-.98128.10922-1.94859.18667-2.39043.59676-1.1808.96501-1.56709,2.54264-1.76972,3.47935-2.63361,1.58832-3.22352,3.55573-2.47552,6.43408-.51956,1.29412-.99454,4.48524.38794,6.11511-3.3269,2.43329-6.87842,5.49188-9.54675,8.99884-.37067-7.62555-.62109-15.25293-.61835-22.86206-.18134-12.10236,1.19464-24.03986,1.65942-36.16986.70288-1.60541,1.7594-2.9328,2.99023-4.14722.41993-.05788.90864.12519,1.30395.03183,1.07105-.17844,1.96167-.89279,2.43817-1.50186.68081-.75019,1.68587-.36623,2.48322-.65204,1.46586-.1515,3.30297-.70375,4.21387-1.56856.9253-.54702,1.82109-1.53226,2.06256-2.2086.65578-.43476,2.42543-1.31919,2.60228-1.70608.7921-1.07239.96133-2.07022,1.21376-2.98569.06671-.05164.20959-.12946.2998-.17853,1.43921-.78326,1.33008-1.79291,1.1369-2.32507-.20578-.83142-2.63852-2.79809-4.60406-2.29376-1.06289-.13869-2.40142-.49019-3.53467-.2426-2.03973.3995-3.68699.79824-4.8114,2.27703-.39848.12895-1.02454.32184-1.79877.76391-.67932.39268-1.05116,1.07973-1.47327,1.66602-1.594.75286-2.84335,1.8886-3.45629,3.86187-.29097,1.11799-.51747,1.87434-.701,2.48438-.26526-.22662-.59937-.37677-.97491-.39294-.26245-3.00684-.42755-6.02374-.46356-9.03833,2.33891-2.95544,5.18327-4.85299,7.00348-8.24456.97855-1.89745-1.82309-3.40396-2.86332-1.53705-.97046,1.8294-2.50888,3.28358-4.0657,4.86621.11926-2.89514.37213-5.77972.82471-8.63831.75793-1.32709,1.92334-2.81781,2.93048-3.50092.74268-.50342.93652-1.51416.43262-2.25684-.9778-1.34572-2.41038-.53535-3.32574.44995.15047-1.3044-.23288-2.7403-1.77785-2.65354-1.05502.08673-1.62687,1.08652-1.4647,2.07877-.57383-.96649-1.79565-1.62476-2.77062-.7828-.68549.57901-.77241,1.6044-.1933,2.28994.91217,1.08008,1.49139,1.9491,1.82617,3.16705-.01562.05487-.03796.1062-.04962.16302-1.18536-1.49884-2.15466-3.08789-2.53143-4.0249-.33496-.83301-1.2793-1.23535-2.11377-.90186-.83252.33447-1.23633,1.28125-.90186,2.11377.74121,1.84357,2.7652,4.84833,4.8725,6.93732-.55643,4.2721-.7397,8.54637-.61938,12.82098-.6767-.81897-1.29718-1.68054-1.92401-2.82227-.43066-.78662-1.41943-1.07422-2.20654-.64209-.78662.43164-1.07422,1.41943-.64209,2.20654,1.55764,2.84285,3.10331,4.23483,4.9776,6.40363.17432,2.80872.4317,5.60785.77179,8.39301-.24512,5.4021-.77313,14.07977-1.26447,21.49542-1.2193-1.25696-2.58698-2.39307-3.92572-3.44409-.07123-1.66656-.38611-4.28955-1.07471-5.29114-.26568-.39634-.70594-.62834-.93836-1.03949-.35243-.75428-.46049-1.70439-1.0929-2.38305-1.00522-1.09004-2.04609-1.34696-2.7097-1.51942-.42432-.81982-1.39606-2.60638-2.03796-3.1051-.20306-.17419-1.59375-1.599-2.38202-2.64899-.26324-.35059-.73169-1.38708-.95679-1.88513-.72258-1.144-.20526-2.14764-1.27088-3.27372-.71925-.64825-1.26338-.67723-1.927-.50985-.26331-.09351-.56134-.20782-.65344-.25201-.53068-.28763-.98713-.61382-1.65338-.81757-.13422-.14716-.31482-.39728-.37061-.51245-.64724-1.32546-1.91642-1.55508-2.20587-1.65833l-.24292-.00598c-1.5034.01432-1.92099,1.64364-2.52325,2.76776-2.89995-.13477-4.88395-.64672-6.30959,2.4704-.24869.43975-.6608,1.16894-.89225,1.35088-1.44951.62369-5.995,2.85732-5.99231,3.534-.81264,1.21549-2.25563,2.90555-1.54696,4.80884.40347,1.01526,1.28628,1.92004,2.24899,2.30518.60456.28192,1.13531,1.00174,1.78718,1.30668.9863.54912,2.50928.53746,3.54229.28035.30823.42206.71503.6853,1.2157.78589.17572.0871.46539.27228.60138.39178.42201,1.54871.38644,4.05895,2.43225,4.21546.64014.12346,2.58838.49914,3.27979.77099.4491.17657.63239.42755.9361.84338,1.24884,1.87008,3.29942,2.38098,5.2442.8811.22412.57471.64215.86255,1.00232,1.00659,1.55873.73533,3.51309.30496,4.8468-.22546.10571.01855.17175.03638.20813.04785.46243.59843,1.62737.7979,2.55514.58583,1.22414-.25132,2.67334-.06281,3.9097.16167,3.45513,2.68772,6.65341,5.51432,6.46039,9.05566-.31836,11.54065.03278,23.09741.63538,34.63171-1.31848-2.30078-2.7677-4.37866-4.26752-6.07721.63599-.64838,1.21375-1.59265,1.48145-3.27551.22339-1.4043-.91656-2.13312-1.96777-2.5354,1.00427-1.83323,1.05591-5.17921.45895-6.63519-.30311-.92165-1.86514-1.16399-2.81015-1.60888-.68089-1.28282-1.6913-2.48431-2.39926-3.96583-.66934-1.85264-2.11539-2.70167-3.68814-1.64038-.2373-.12762-.53729-.31653-.72028-.49597-.68696-.61517-1.18669-.64871-1.82452-.51886-.50012-.72279-.96714-.98075-1.58734-1.39715-.278-.228-.69599-.47484-1.08478-.61048-.9161-.12835-1.55795.46946-2.10004,1.00354-.45203.24561-.6604.633-.77014.867-.29439.05164-.82532.29008-1.1109.53735-3.05631-1.36199-4.43867,1.12581-6.68086,2.61819-1.15297.3839-2.77322.43197-4.02945.95289-1.53981.60257-3.61158,1.9288-3.97505,2.73569-1.77135,2.58235-3.2459,4.33725-1.27515,7.36267.08381.17826.14961.28353.22522.4259.09158.89586.87823,1.56677,1.55304,1.92444.38712,2.66054,2.93861,1.91619,4.90179,1.50415.25867.362.5838.86182.73981,1.14178.80951,1.448,3.01431,1.66073,4.61554,1.82959.3523.85932.70943,1.85595,1.41815,2.58936.25403.25922.61262.6402.99262,1.04376,1.58716,1.68542,1.95062,2.04077,2.28735,2.23627.47119.2735,1.02502.35223,4.55853.64795,1.02652.07028,2.26339.11461,3.01279.72866.42551.26621.90768.56809,1.55008.56809,2.43696-.21239,3.86397-2.86924,5.27191-4.62396,3.35645,4.01404,6.55487,10.66797,8.07446,16.71375.16943,2.13452.34601,4.33862.49951,6.55939-2.60651-2.69405-5.49269-5.73417-8.97443-6.80774-1.50589-2.53896-4.87572-4.00769-8.71682-3.87466-3.20914.09822-8.69884,1.53329-8.56671,5.23455.24914,2.37535,1.9863,2.79323,3.11105,3.32371.42877,2.02085,1.76226,4.6982,4.59648,4.65727,4.72005-.40355,5.58972-4.24205,8.49971-5.74779,3.72999,1.20398,7.18737,6.076,10.35345,8.71075.16183,3.33907.01821,8.50051-.0058,11.85876.04022,3.32941,4.88477,3.31323,4.99896.06781.05627-3.65448.1571-8.43994.05249-12.23718,3.37424-3.38536,6.74793-10.79189,10.9516-12.17627.60346.33964,2.91116,1.07552,4.18229,1.50603,2.39144.87843,5.33802,3.62258,7.91758,3.58176,1.66571.06724,3.39838-1.41453,3.55052-2.93028.15068-1.42974-.73641-2.39088-1.31274-3.09349.31063-.64795.86273-1.29112,1.02454-1.89849.45474-2.64933-1.74482-4.25138-5.81069-4.86684-2.99202-.38424-8.89495,1.0234-10.57134,4.08296-4.43561,1.3272-7.45813,6.35272-10.27081,10.2431-.33667-5.02423-.67029-10.05768-.9696-15.0965.92035-4.3739,4.90265-9.30115,11.32385-14.05933.81531,1.57345,2.7668,1.09944,4.48643,1.23545,1.07842.05288,2.2831.27524,3.31899.2366,1.10938-.05372,2.29844-.65118,3.29834-1.1048,1.47016-.03968,3.17446-.05244,4.15399-.63808.89517-.51538,1.41394-1.08095,2.01734-1.62223,1.55886-.55535,4.09036-.63248,5.95918-.88271,1.45975-.24435,1.96218-1.4319,2.30785-2.11241.46438-.27766,1.1085-.48829,1.57611-.7627,1.40216-.81873,2.39618-2.41711,2.44495-3.39624.04443-.89313-.43323-1.67047-.81708-2.29504Z" fill="#2e541a"/>
      <g id="ROOTS">
        <path d="m194.29167,341.77515c-1.29413-.78241-2.69031-1.44708-4.1991-1.75641-1.46167-.33221-3.00513-.17175-4.46625-.3374-1.14502-.50177-2.3269-.91315-3.5163-1.21423-1.3999-.24194-2.73016-.67212-4.07312-1.10516-1.32434-.5249-2.96521-.92719-4.0575-1.8515.00946-.32037.02069-.64026.02026-.96368-.08159-1.51882-2.26977-1.15517-1.99756.2876-1.14319,1.17542-2.73981,2.13196-4.2171,2.81744-1.82635.89746-3.8996.91296-5.78375,1.61505-3.75195,1.35864-7.88934,3.19171-9.82538,6.90173-.06036.11853.13062.19958.1795.08783,1.36047-2.37122,3.68146-3.87689,6.17902-4.97131-1.90442,2.19818-1.99017,5.47302-4.13574,7.59332-.0896.09558.05737.22961.14453.13831,2.5351-2.30444,2.40338-6.32941,5.33478-8.28101,1.42387-.52688,2.80409-1.03225,4.29407-1.25439-.453.33838-.87024.72198-1.22565,1.15295-.79297.91425-1.39685,1.98419-2.41821,2.57898-.11279.06317-.01538.23578.09589.17578,1.77979-1.12048,2.7301-3.15424,4.58191-4.07831,2.45361-.33053,4.81198-1.44292,6.78101-2.88983-.05475,1.62164-.20813,3.28229-.33557,4.95453-.86896,1.15997-2.59741,1.85583-3.85553,2.58698-1.16803.5697-2.32074,1.21027-3.42755,1.92316-2.67535-.14862-4.98974,1.87382-7.33049,2.60307.00707.05489.05712.09359.11186.08657.67609-.08667,1.3009-.34729,1.90332-.61682,1.3927-.64301,3.0304-1.53204,4.61389-1.60431-3.2533,2.23438-6.01855,5.15045-7.38385,8.93048-.05469.1236.14429.19153.18573.07465,2.06311-5.02972,6.56256-8.28845,11.37994-10.46027-1.06125,1.70001-1.46514,3.79761-3.17358,5.0235-.04077.03424-.04919.09613-.01636.13879,2.13672-.96759,2.56213-3.92322,4.0896-5.60126.96503-.47235,1.94922-.88391,2.79749-1.51898-.06677,1.14685-.09991,2.29449-.06195,3.43469-1.10315.71991-2.328,3.27631-2.72192,3.86859-.78174,1.41901-2.36029,2.05029-3.34125,3.29944-.65057.65588-1.22351,1.40509-1.78461,2.16821-1.48798.43561-3.62158.45331-4.73627,1.51794.0274.04791.0885.06458.13647.03723,1.34283-.76373,2.84448-.88586,4.33612-1.19611-1.25824,1.72552-2.50122,3.46753-4.45062,4.35388-.12457.04736-.05261.22699.06512.18927,3.07629-1.23975,4.5495-4.51532,6.85602-6.66644.60834-.69653,1.39722-1.19775,2.12665-1.75311-.6272,1.95874-2.49902,3.69196-2.45233,5.72437.0542.01056.10675-.02478.11731-.07898.42914-2.30414,2.39691-3.86664,2.95062-6.15186.32477-.29431.62115-.61646.85645-.99994.68237-.94647,1.28101-2.14062,2.12347-2.94427.08936.98254.24445,1.95667.49518,2.91614.0769.8924.13007,1.79352.16534,2.69897-.72955,1.19934-1.26672,2.43787-1.9021,3.60541-.52094,1.08667-1.16718,1.75098-2.02527,2.55884-.38574.56122-.73975,1.13843-1.08423,1.72003-2.50291,1.20325-4.47221,3.61867-7.26581,4.1643-.05425.01008-.0913.06245-.08117.11695,2.59497-.12244,4.68909-2.49017,6.98993-3.67578-1.2359,2.1474-2.35577,4.34332-4.0567,6.20538-.08484.09937.06958.22186.15033.13165,2.40619-2.38153,3.88147-5.53473,5.87476-8.18829,1.59601-1.1781,2.49634-3.02765,3.4389-4.75452.02393,2.01892-.02368,4.04492-.12225,6.03674-.05811.64307-.1225,1.29346-.1861,1.94641-1.41193,3.46545-4.70782,6.12585-5.74066,9.78943-.02875.12585.16803.16455.19452.04388.65082-1.93738,1.90198-3.52753,3.16864-5.1145.01782,1.18732-.18811,2.4068-.50934,3.54468-.0389.12196.15238.18369.19067.06042.3949-1.29132.65063-2.61304.60925-3.97321.69019-.86627,1.35706-1.74811,1.93488-2.68396-.43905,4.1804-.10137,8.47889,1.63495,12.33429.04681.12213.2323.03461.18591-.07428-1.27496-3.14807-1.4184-6.35504-1.1922-9.58588.12463.20996.25659.41309.39691.60223.65198.82526,1.37305,1.61517,2.00842,2.453-.21084,1.52809.81428,2.84778.56866,4.36194-.00518.05377.03327.10327.08735.10992.57812-1.12512-.46625-2.79584-.38873-4.10547.60913.85797,1.10968,1.77612,1.32751,2.84827.02612.12567.21796.08411.19635-.0379-.25635-1.53223-1.05469-2.92706-1.99506-4.13098-.79065-1.07526-1.8526-2.15436-2.08594-3.47668.20807-2.1239.52625-4.25592.7514-6.38666.82629,1.2973,1.87573,2.508,2.93127,3.52881,1.95966,2.83917,2.45953,6.3963,3.15045,9.72321.02374.12793.2157.08551.19617-.03448-.43024-2.53235-.76416-5.23267-1.71619-7.68054,2.79449,2.09821,4.14496,5.49121,4.62006,8.90192.02039.12976.21716.09387.19757-.03058-.15778-1.33301-.45984-2.67505-.9234-3.94965.84003.74725,1.66785,2.27838,2.58789,2.54126.03387-.04364.02594-.10645-.0177-.14038-1.09253-.79401-1.65875-2.00543-2.72723-2.84296-.00604-.00433-.01141-.00043-.01746-.00354-.8327-2.07776-2.13-3.93878-4.04456-5.21167-.25018-.55109-.52356-1.09222-.8559-1.60681-1.33923-1.43744-2.44562-2.92487-3.24023-4.74152.14388-2.04746.18279-4.08105.18396-6.13885,1.42017,1.06976,3.09698,1.54883,4.30756,2.88867.72694,1.72831.83777,3.76694,2.04871,5.31035.02984.045.09081.05873.13677.02968.04669-.02954.06067-.09131.03113-.138-.89788-1.3287-1.27044-2.8384-1.54895-4.39191,2.15112,2.72137,4.11865,5.78888,4.90558,9.17139.01605.13403.21515.09937.19861-.02557-.44183-2.08606-1.24445-4.09985-2.29065-5.98578.94482.47156,1.94702.77698,2.82751,1.37439,1.07697.69513,1.99652,1.62396,2.84039,2.60468.03503.04065.09735.04761.13947.01367.04303-.03473.04974-.09766.01508-.14062-.81976-1.01605-1.72137-1.99115-2.8147-2.74817-1.05017-.76892-2.37659-1.11975-3.42706-1.84344-.0069-.00494-.01575-.00104-.02301-.00513-.9469-1.57922-2.05023-3.06549-3.25934-4.41119-1.33099-1.10175-3.13019-1.90582-4.13831-3.18494-.03174-.50568-.0722-1.0116-.14044-1.51733-.2876-1.24133-.36035-2.22357-.31793-3.43066.71545.5683,1.5296,1.0141,2.37891,1.3252.4068,1.51373,1.45062,2.82574,2.80682,3.59253.11123.06136.21046-.11074.09844-.17414-1.20873-.72998-2.14373-1.94018-2.52477-3.2821.0802.02496.15796.06311.23846.08545,1.18451.54034,2.37372,1.17828,3.52838,1.89282,1.79181,1.682,2.26461,4.41658,4.02651,6.14963.09441.08794.23223-.06204.13419-.14828-1.41962-1.50073-1.92493-3.61261-3.09021-5.31256,2.315,1.58289,4.3996,3.53253,5.81525,5.86536.05573.12305.23505.02979.18146-.08411-.67499-1.40686-1.70374-2.59686-2.80261-3.67218-2.27588-2.12598-4.67493-4.06512-7.5567-5.36084-1.27142-.48492-2.32123-1.22754-3.15961-2.23779.09167-1.25073.23419-2.50934.37805-3.78204.68854.40619,1.48474.70319,1.82483.76306.41467.10413.83667.18231,1.26129.24884.02417.03058.05524.05774.10114.0755,1.35291.59937,2.4339,1.86926,3.4599,2.94299.08386.09497.23163-.03442.15192-.13019-.82727-.97351-1.60382-1.98041-2.62939-2.74237,2.30493.07097,4.40616.69925,6.34625,1.96246.12982.08173.26324.16809.39423.25092,1.47961,1.9353,1.12775,5.56567,3.56232,6.67206.03345-.04395.0249-.10675-.01904-.14014-.50006-.38776-.91589-.87207-1.21204-1.42487-.75354-1.43317-.80841-3.08246-1.47101-4.55945,1.41046.91382,2.82538,1.92126,4.06683,3.07672.51123,1.02405.65283,2.28638.75073,3.43127.00555.12801.20587.11966.19983-.00867-.06311-1.00409-.14575-1.99841-.46045-2.95282,1.14197,1.15216,2.09723,2.45172,2.66925,3.97864.0351.13202.22473.07019.19342-.05157-1.3631-3.96008-5.06268-6.50146-8.39459-8.73694-1.32281-.78491-2.71161-1.65759-4.26031-1.93079-2.10547-.47418-4.83307-.49933-6.38477-2.1109.07935-.75922.14728-1.52502.198-2.29822,2.53619,1.22357,5.3064,1.862,8.06616,2.31409,4.04583.85617,8.15402,2.8897,10.62476,6.30703.0755.10972.23071-.00374.16827-.10817-1.48047-2.22778-3.61206-3.92889-5.99719-5.1554,1.09027-.00024,2.16827-.06171,3.24994.14362,1.46454.24933,2.85577.85236,4.16272,1.58484.10994.06437.21275-.10727.1015-.1723Z" fill="#fff"/>
      </g>
      <path d="m212.56566,275.99646c.01654-.16357.51324-1.70374.82819-2.43475.15857-.36798-.43536-1.61993-.54102-2.34937-.02686-.18561-1.02338-1.96619-1.59772-2.5-.58655-.54517-.68921-1.28058-1.31372-2.17078-.36139-.51514-1.53265-.68427-2.74939-1.17865-.40662-.16522-3.18335-.37469-3.54382-.6842-.25879-.22229-1.68762-1.4964-1.87054-1.5224-.81443-.11281-2.81188.01419-3.21051.12567-.38239.10779-2.13763.84967-2.59332,1.01459-.15112.05469-2.15417.05048-3.0011.18976-.74866.12311-2.0069,3.35236-2.44421,3.93646-.11865.15845-2.17932.23639-2.41394.4281-1.15485.94385-1.26721,3.17145-1.4281,3.27545-.64233.41504-1.66467.97644-2.29602,2.01276-.67645,1.11023.16113,3.44501.05597,3.65613-.1568.31488-.96436,2.9032-.32318,4.31165.40912.89874.87439,1.44635,1.44373,1.83374-4.78705,3.31683-10.43469,8.10681-13.06018,13.60815-.50659-9.23059-.86633-18.46954-.86377-27.68738-.18506-12.20514,1.21619-24.3075,1.66962-36.51355.85529-2.08698,2.22101-3.74017,3.77283-5.21161.54886-.17114,1.32278-.08275,1.76478-.04617.57574-.09604,1.17547-.52787,1.50305-.94663,1.02979-1.31622,2.94196-1.03735,3.14374-1.13507.20172-.09766,1.2179-.20227,1.91589-.37146,1.18823-.28809,1.64465-.83966,2.56836-1.45544.79724-.53149.86395-1.20575,1.22906-1.59442.30981-.32977,2.32373-1.34033,2.49127-1.56122.73077-.96326.8418-2.30304,1.06293-2.75702.40076-.82269,1.53217-.87427,1.37262-1.31384-.03656-.10065-1.11365-1.36841-2.50891-1.36829-1.00619.19209-1.9901-.23623-3.32885-.26507-.98845.07269-2.69979.42038-3.76748,1.0473-.45055.32195-.86839,1.03478-1.35148,1.2022-.28033.09711-.91064.26105-1.63501.67725-.44446.25531-.91156,1.2406-1.23431,1.5033-.31525.25659-1.18683.633-1.64575.99695-.38013.30145-1.15118,1.35956-1.34503,2.10468-.54974,2.11273-.89215,3.02173-1.06592,3.78278-.0777.34033-.05042.638.04004.87732-.91547.87354-1.77704,1.80255-2.50647,2.85449.32843-.84515.646-2.05573.71033-4.16821.00635-.20703-.15674-.37988-.36377-.38623-.24805.00342-.37988.15723-.38623.36377-.05127,1.68524-.27008,2.75714-.52075,3.52692-.57556-4.72241-.95636-9.48676-1.00366-14.2489,2.36015-3.30844,5.47793-5.23488,7.40775-8.76236.09762-.18265.02926-.4097-.15336-.50784-.18311-.09961-.40967-.02881-.50781.15332-1.70623,3.13251-4.52927,5.04595-6.74603,7.87311.01038-4.00623.26587-8.005.85651-11.9693.76617-1.65668,2.33734-3.82654,3.77625-4.80225.17139-.11621.21631-.34961.1001-.521-.1167-.17139-.3501-.21631-.521-.1001-1.26044.85516-2.56964,2.49304-3.46405,4.02863-.01007-.01056-.0202-.02069-.03094-.03058.25031-1.7406.55109-3.8692.44324-5.0957-.01807-.20703-.19873-.36133-.40625-.34082-.20654.01807-.35889.2002-.34082.40625.09399,1.0661-.1568,2.94965-.38953,4.5813-.41949-1.62012-1.16968-2.76721-2.26038-4.05884-.13379-.15723-.36865-.17773-.52881-.04443-.1582.13379-.17773.37012-.04443.52881,1.18304,1.40082,1.93878,2.61218,2.27277,4.52899-.16711.85248-.31055,1.70837-.44177,2.56586-1.99426-1.87885-4.01764-4.81738-4.70062-6.51721-.17691-.45287-.88401-.16928-.69627.27933.75603,1.88095,3.07561,5.21347,5.2617,7.1318-.77714,5.64701-.83647,11.08588-.54675,16.81927-1.76661-2.03573-3.24476-3.38642-4.64123-5.94721-.22528-.42753-.89884-.06355-.65721.36136,1.64368,2.99423,3.35622,4.39235,5.36942,6.82492.18048,2.97778.45166,5.91864.76447,8.21771-.24213,8.61517-1.03705,17.24243-1.49048,25.87897-1.51282-2.60803-4.11414-4.75598-6.65442-6.72052.02069-1.20868-.30286-4.41699-.83624-5.19293-.11963-.17401-.70605-.57086-1.03192-1.19489-.36639-.70148-.48737-1.64746-.86902-2.06384-1.19489-1.30353-2.50061-.89862-2.76996-1.52075-.06946-.16046-1.35071-2.58978-1.7923-2.93286-.26605-.20673-1.79358-1.7771-2.66132-2.93286-.49701-.66205-1.19312-2.36475-1.36371-2.68188-.4826-.89728-.22058-1.82196-.71478-2.3067-.31691-.34024-.50227-.04618-.84479-.01272-1.09915-.175-1.95669-.97375-2.94241-1.24467-.33536-.06701-.97763-.92327-1.14059-1.30346-.18439-.43024-.86298-.71466-1.03192-.76038-.01459-.00397-.02936-.00586-.04413-.00586-.54205-.00031-1.17157,2.59442-1.85681,2.7215-1.31434.1992-3.09063-.325-4.3993.10861-.93102.37094-1.70849,3.18106-2.87853,3.63894-1.61072.63031-5.17328,2.67957-5.21399,2.7699-.98473,1.5869-2.95701,3.58009-.10858,5.10538.81463.32589,1.4151,1.1149,1.90087,1.35782,1.20607.70247,2.72934-.07573,3.63893.05418.37999.20473.23888.8334.81926.89443.2005.02106,1.26788.6153,1.51617,1.06091.48193.86505.47198,3.33698,1.14056,3.47601.3739.07776,2.87335.52661,3.83453.90454,1.70532.67053,1.5481,2.11224,3.00879,2.46283,1.19031.34208,1.72827-1.16068,3.31307-.86894,1.03197.10856.38493.94688.869,1.14048.54541.2182,1.03589.29871,1.47937.29871,1.34798.00125,2.14565-.70936,2.97424-.6246,1.34553.20706.9159.70986,1.67109.70986.59621-.00812,1.44888-.21967,2.55085-.21501.92302-.04255,2.08301.34871,2.84081.32518,3.59369,2.77795,7.31494,5.93011,7.39917,10.06897-.4046,14.23791.23958,28.47833,1.09058,42.70923-2.12775-5.48987-5.2121-10.69952-8.38885-13.82574.59851-.62103,1.76746-.83099,2.17371-3.38495.13196-.82977-2.23828-1.20721-2.41742-1.32452-.41913-.27448.65411-1.41199.96594-2.5625.4577-1.68909.34833-3.75714.04749-4.45203-.07758-.1792-1.93567-.66925-2.42889-1.05249-.29718-.2309-1.02545-1.77869-1.99463-3.06958-.55511-.73938-1.10535-2.37439-1.45343-2.57599-.56668-.30727-1.04398.49597-1.6377.48943-.24569-.00529-1.20901-.47415-1.77697-1.02751-.11304-.1109-.21149-.15179-.30207-.15179-.28344.00087-.51518.41665-.84283.307-.33899-.10155-1.15149-1.33794-1.37524-1.45507-.57996-.30359-.90906-.66907-1.22198-.79749-.22653-.04331-.7595.68139-1.07728.81614-.14971.06869-.17932.46609-.51239.76919-.28253.25708-.63977.17072-.98926.37842-.42407.25201-.61597.638-.79474.638-.63921-.1525-1.5699-.70247-2.38312-.55352-1.1676.21655-2.87799,2.40252-4.0542,2.87115-1.03992.41431-2.73114.44501-4.03796.95642-1.79901.70404-3.10852,1.854-3.15399,1.9549-.30847.68481-2.57507,3.19586-2.03229,4.56177.29956.75372.6665,1.3783.73865,1.52954.19165.40192.28241.40717.40875,1.03894.08118.40619,1.35974.90137,1.47266,1.19092.03518.19319-.09068,1.28678.65221,1.22837.81953-.00071,2.6638-.54999,3.39193-.5152.22393.02358,1.17809,1.48073,1.45543,1.97847.53833.96613,3.43146,1.00507,4.17816,1.1604.4176.08685.80908,2.11493,1.61652,2.93878.80737.82385,2.65045,2.85193,2.96185,3.03271.3114.18073,3.23596.38312,5.39642.57556,1.69214.1507,2.41779,1.16632,2.9718,1.16632,2.16212-.36225,3.9698-4.64681,4.98768-4.81553.2293-.04.38-.15346.48766-.30312,3.90485,4.11218,7.67725,11.64886,9.36713,18.49988.23517,3.51154.48132,7.02051.73364,10.52515-3.52907-3.02481-7.15815-8.23553-11.70386-9.27997-1.45012-3.02064-5.03886-3.71828-7.67345-3.6603-3.19057.09383-7.25581,1.53145-7.11421,3.63442.125,1.85541,2.36548,1.69513,2.86115,2.55182.47308.81757.43842,2.55566,1.8559,3.55707,2.05805,1.42785,4.67453-.69919,5.95423-2.16515,1.39007-1.60945,2.28076-2.44081,3.86078-3.20522,4.56393.98204,8.34683,6.72509,12.01605,9.57019.13458,4.18555.08398,8.34882.01013,12.59491-.00064,1.33704,1.99573,1.33657,2,0,.08887-4.20856.1579-8.50653.0318-12.77509,3.92261-3.69967,7.43623-12.21929,12.71655-13.17676.53369.42896,1.3924.67303,4.41547,1.69043,2.32819.78363,5.29761,3.50348,7.43909,3.50348.43115,0,.82886-.11029,1.18091-.3689,2.20148-1.617-.35858-3.06525-.51349-3.862-.14771-.75983,1.03772-2.17236,1.14526-2.5769.27448-1.03204-.92413-2.5061-4.56085-2.99463-2.90822-.25742-8.19198.94897-9.31329,3.88043-5.34586.99037-8.80568,8.94284-12.5675,12.90363-.42792-6.38806-.86389-12.79199-1.24316-19.20264,1.25494-6.52521,8.04541-12.44006,13.65411-16.323.40294,2.70815.89356,1.98496,3.74773,2.16262,1.16767.05921,2.25788.26558,3.17384.23595.8656-.03791,2.19232-.73566,2.9342-1.0564.32428-.1402,2.85889.06616,3.84351-.49249.98456-.55865,1.71149-1.51764,2.09918-1.67554,1.31081-.57347,4.61707-.80043,6.40046-1.00894.90032-.13175,1.10302-1.45218,1.48266-1.73435.58594-.43549,1.4339-.70197,1.86206-.95197,1.04071-.60767,1.68292-1.76947,1.70312-2.17548.03998-.80286-1.12317-1.93945-1.06598-2.505Z" fill="#95c172"/>
      <g id="leaf_1_right_hi" data-name="leaf 1 right hi">
        <path d="m186.42304,308.2281c2.24631-.88847,4.84107-.85738,7.25133-.63827,2.43635.22149,5.44825,1.16153,5.59595,1.92133.15488.7968,2.71494,2.24499.51349,3.86203-2.10049,1.54287-5.82302-2.1932-8.62003-3.13456-3.68859-1.24142-4.15569-1.33097-4.74074-2.01053Z" fill="#a6d67c"/>
      </g>
      <g id="leaf_1_left_hi" data-name="leaf 1 left hi">
        <path d="m160.43817,312.1165c-3.66239-1.6705-5.91874-1.54853-8.41901-.75576-1.62532.51535-4.21196,1.93081-3.71626,2.78745.4731.81759.43843,2.55568,1.85587,3.55708,2.01511,1.42363,4.6722-.68087,5.95424-2.16518,1.52286-1.76312,2.43601-2.59333,4.32516-3.4236Z" fill="#a6d67c"/>
      </g>
      <g id="leaf_2_left_hi" data-name="leaf 2 left hi">
        <path d="m135.52412,278.61385c-1.80521.4513-4.95415,1.69131-4.41133,3.05716.29954.75372.6665,1.37833.73863,1.52957.19168.4019.28239.40713.40873,1.03895.08122.40617,1.3598.90137,1.4727,1.19091.06509.16692-.12865.90876.38584,1.18582.4244.22854,3.01004-.54079,3.65824-.47264.22396.02355,1.17814,1.48073,1.45546,1.97846.53831.96614,3.43143,1.00505,4.17813,1.16037.41762.08687.80914,2.11494,1.61654,2.93879s2.65049,2.85193,2.96186,3.03271,3.23594.38314,5.39645.57558c1.789.15935,2.49759,1.28537,3.06532,1.15604,2.10475-.47952,3.89588-4.63122,4.89411-4.80524.86933-.15156.46073-1.20049.17177-1.69674-1.80385-3.09792-6.81447-6.31941-7.81736-7.09229-7.02743-5.41564-16.36988-5.22876-18.17509-4.77745Z" fill="#a6d67c"/>
      </g>
      <g id="leaf_2_right_hi" data-name="leaf 2 right hi">
        <path d="m212.85282,271.21233c.10565.72947.69957,1.98144.54102,2.34942-.31495.73098-.81163,2.27115-.82818,2.43475-.0572.56553,1.10595,1.70213,1.06597,2.505-.02021.40599-.66243,1.56777-1.70311,2.17545-.42816.25001-1.27616.51646-1.86207.95195-.37966.28219-.58238,1.60259-1.48267,1.73427-1.78219.20934-5.08995.43509-6.40047,1.00912-.3877.15781-1.11461,1.1168-2.09919,1.67546s-3.51918.35225-3.8435.49247c-.74189.32076-2.06857,1.0185-2.9342,1.05641-.80524.03526-2.02054-.17464-3.1739-.23588-1.36884-.07268-2.64025-.01039-2.89205-.12822-.92838-.43444-.71439-2.76183-1.24113-3.02756-.7795-.39324,2.23665-.40267,8.49636-7.23449,4.49005-4.90042,12.38595-7.43907,14.70643-7.17387,1.99969.22854,3.6238,1.2301,3.65068,1.4157Z" fill="#a6d67c"/>
      </g>
      <g id="leaf_3_left_hi" data-name="leaf 3 left hi">
        <path d="m130.86216,235.30184c-.99662,1.60278-2.95064,3.57979-.10856,5.10539.81462.32584,1.41508,1.11488,1.90087,1.35777,1.52075.76037,3.17828-.19374,3.63893.05431.37998.20462.2389.83327.81925.89429.20052.02108,1.26788.61531,1.51618,1.06095.48196.86501.47201,3.33693,1.14056,3.47599.37391.07777,2.87337.52663,3.83453.90455,1.70533.67051,1.5481,2.11224,3.00882,2.46282,1.35781.32587,1.38169-1.0723,3.31305-.869,1.03193.10862.38494.94691.869,1.14055,2.19439.87782,3.4956-.47326,4.45361-.32587,1.41212.21725.869.76037,1.79231.70606.60461-.03557,1.98242-.32339,3.25874-.16294,1.2529.15751,2.34451.5888,2.77125-.07701-2.52071-1.89338-6.68744-4.75552-12.10693-11.41375-4.52042-6.12465-13.07702-8.58562-20.10161-4.31414Z" fill="#a6d67c"/>
      </g>
      <g id="leaf_3_right_hi" data-name="leaf 3 right hi">
        <path d="m194.13712,216.95496c.15956.43957-.97186.49117-1.37259,1.31386-.22114.45399-.33217,1.79372-1.06295,2.75702-.16755.22087-2.18149,1.23142-2.49128,1.5612-.36509.38865-.43182,1.06295-1.22903,1.59442-.92371.61581-1.38013,1.16737-2.5684,1.45543-.69799.16921-1.71415.2738-1.9159.37151s-2.11395-.18119-3.14369,1.13506c-.3276.41876-.92733.85056-1.50307.94652-.23428.03905-.86361-.19191-1.60728.02399-.22878.06642-.47919-.00674-.67631-.18751,3.4994-3.08799,5.44055-5.99971,7.92522-8.13498,4.38154-3.76539,9.60469-2.94836,9.64529-2.83652Z" fill="#a6d67c"/>
      </g>
      <g id="root_main_fade" data-name="root main fade">
        <path d="m173.00023,335.99994c-.55127,0-.99902-.44629-1-.99805-.00146-.75537.0459-3.23291.0459-3.23291l2,.03809c0,.00146-.04736,2.44531-.0459,3.19092.00098.55273-.47314,1.03809-1,1.00195Z" fill="url(#linear-gradient)"/>
      </g>
      <g id="bud_1" data-name="bud 1">
        <path d="m175.51247,220.68961c-1.93257,0-3.36865,2.2576-3.77115,3.86069-.6189,2.03945,1.01744,4.05404,3.12924,4.10668,1.20446-.00002,2.22325-.71845,2.72524-1.92182.78056-1.7164.76672-6.1203-2.08333-6.04555h0Z" fill="#2e541a"/>
        <path d="m175.51247,221.93961c1.63017.00125,1.41555,3.11439.92971,4.3143-.33252.79708-.94956,1.15305-1.57169,1.15305-1.39667-.04519-2.33215-1.46098-1.91669-2.55227.28851-1.14951,1.36067-2.91508,2.55867-2.91508" fill="#95c172"/>
      </g>
      <g id="bud_2" data-name="bud 2">
        <path d="m162.96558,207.81323c-4.08281.09638-2.33273,6.05363-1.30299,7.89104.78657,1.36597,1.91709,2.11829,3.18327,2.11829,3.45199-.10335,3.48138-3.70391,2.42222-5.87914-.41294-.96887-1.94393-4.1302-4.3025-4.1302h0Z" fill="#2e541a"/>
        <path d="m162.96558,209.06323c2.46586.10817,5.77778,7.41459,1.88034,7.50927-.89415.00007-1.61374-.64738-2.10016-1.49206-.90961-1.7904-2.11936-6.01117.21982-6.01721" fill="#95c172"/>
      </g>
      <g id="bud_3" data-name="bud 3">
        <path d="m183.0118,199.04956c-1.95229,0-4.56348,3.04507-5.24803,4.34428-1.36293,2.36502-.15076,5.16584,2.41353,5.28679,3.56195.13874,8.40711-8.83865,2.8345-9.63108h0Z" fill="#2e541a"/>
        <path d="m183.0118,200.29956c3.37348.63315-.667,7.28033-2.83447,7.13099-1.7335-.12307-2.13746-2.15583-1.30758-3.45397.73705-1.39911,3.01929-3.67702,4.14205-3.67702" fill="#95c172"/>
      </g>
      <g id="bud_8" data-name="bud 8">
        <path d="m177.48204,187.00264c-1.82851,0-3.45699,2.24843-4.13095,3.577-1.85571,3.71833-.05958,5.46453,2.00323,5.63543,1.64874-.01616,2.6162-1.44728,3.4114-2.49319,1.53936-2.05564,1.63137-6.61423-1.28368-6.71923h0Z" fill="#2e541a"/>
        <path d="m177.48204,188.25264c1.44337.04658,1.37126,3.19602.2878,4.71386-.62177.81974-1.42176,1.99848-2.41544,1.99848-3.66914-.52717.15268-6.66319,2.12764-6.71234" fill="#95c172"/>
      </g>
      <g id="bud_7" data-name="bud 7">
        <path d="m179.78578,190.76544c-1.26237,0-2.63309.91521-3.73447,1.65059-2.96136,1.74432-2.77807,6.05427.61276,6.25142,2.38394.00773,4.80178-2.45221,5.32398-4.85354.34811-1.8909-.60075-2.94265-2.20227-3.04847h0Z" fill="#2e541a"/>
        <path d="m179.78577,192.01544c2.38499.30205.13013,3.95545-1.30361,4.78637-.4945.28609-1.18462.61553-1.81814.61553-2.07884-.18787-1.84095-2.83613.08145-3.96166.9818-.65565,2.16724-1.44024,3.0403-1.44024" fill="#95c172"/>
      </g>
      <g id="bud_6" data-name="bud 6">
        <path d="m166.88094,187.76891c-2.84127.01162-2.11232,4.47738-1.71997,5.65242.53589,1.96527,2.06704,3.33787,3.72339,3.33787,1.59537-.10136,3.30105-.88696,2.50839-4.35301-.33488-1.32292-2.28407-4.61993-4.51181-4.63728h0Z" fill="#2e541a"/>
        <path d="m166.88094,189.01891c2.18207.09957,5.44229,6.27814,2.00346,6.49034-1.1083-.00003-2.13436-1.01178-2.51757-2.41687-.4259-1.56161-.68205-4.07347.51411-4.07347" fill="#95c172"/>
      </g>
      <g id="bud_5" data-name="bud 5">
        <path d="m163.29227,190.42636c-4.57572.19613-1.66507,8.89063,2.001,8.73884,5.12097-.30894,2.85098-8.58011-2.001-8.73884h0Z" fill="#2e541a"/>
        <path d="m163.29225,191.67638c1.17622,0,2.8922,1.3002,3.3425,2.69696.5221,1.34756.56796,3.47495-1.3415,3.54188-2.2212.17919-4.52443-6.1852-2.00099-6.23884" fill="#95c172"/>
      </g>
      <g id="bud_4" data-name="bud 4">
        <path d="m172.85069,185.26393c-2.68744.00007-3.14794,5.44703-3.04253,6.77244.06873.82474.2779,3.33446,2.82554,3.69028,1.752.20993,3.53713-1.17878,3.65036-3.59097.01787-1.74786-.72512-6.80863-3.43336-6.87176h0Z" fill="#2e541a"/>
        <path d="m172.85069,186.51393c1.35776,0,2.24191,3.98804,2.18416,5.57631-.07862,1.60118-1.17747,2.51171-2.22823,2.39844-1.36864-.19117-1.64843-1.30414-1.75277-2.55611-.11598-1.70434.59911-5.37734,1.79684-5.41864" fill="#95c172"/>
      </g>
    </g>
  </g>
</svg>