<svg width="165" height="24" viewBox="0 0 165 24" xmlns="http://www.w3.org/2000/svg">
    <g fill-rule="nonzero" fill="none">
        <path d="M0 0h165v24H0z"/>
        <g fill="#034EA2">
            <path d="M.74 16.224c-.021 0 0-.138 0-.154-.042-.088-.217-.146-.237-.18a1.158 1.158 0 0 1-.1-.7c.075-.294.252-.553.499-.73.124-.05.336 0 .461-.029.152-.062.315-.09.478-.083.206.071.401.172.578.3.092.103.196.195.308.275.125.067.312.117.416.184.104.066.066.091.124.112.059.021.063 0 .075 0 .158.088.229.209.416.313.197.06.401.098.607.113.264.08.505.223.703.416.07.067.1.167.17.23.07.062.104.029.116.037.013.009.03.113.05.155.108.196.237.38.383.55.155.148.276.329.353.53a.334.334 0 0 1-.361.416 1.14 1.14 0 0 1-.341-.037c-.059-.03-.067-.084-.121-.1-.054-.017-.083.025-.108 0l-.657-.18c-.042 0-.116.026-.158 0-.042-.025-.042-.062-.104-.087-.062-.025-.183 0-.237-.033-.054-.034-.066-.134-.166-.171-.1-.038-.12 0-.166 0-.046 0 0-.038-.025-.063a1.178 1.178 0 0 0-.266-.075c-.055 0-.175 0-.225-.02-.05-.022 0-.055-.058-.084a2.28 2.28 0 0 0-.333-.034s-.066.03-.087.021c-.02-.008-.046-.083-.125-.112a1.327 1.327 0 0 0-.245.033h-.033c-.05 0-.125 0-.167-.025-.041-.025-.174-.13-.228-.142a2.766 2.766 0 0 1-.508-.062c-.037 0-.062-.113-.1-.134a1.542 1.542 0 0 1-.349-.22c-.079-.105-.1-.192-.137-.192-.037 0-.046.02-.095-.038zM.278 10.007C.241 9.95.232 9.791.2 9.732a.986.986 0 0 1-.195-.68c0-.087.083-.166.083-.254a.907.907 0 0 1-.03-.1c.065-.111.14-.216.225-.312.05-.063.046-.155.075-.205.29-.308.7-.475 1.123-.458.02 0 0-.046.029-.046a.83.83 0 0 1 .353.137c.058.03.112-.037.146-.025.033.013 0 .046.029.063s.079 0 .104 0c.17.101.33.221.474.358.129.142 0 .246.124.367.125.121.437.313.64.526l.067-.025c.033.04.072.073.117.1.062.029.095-.034.158 0 .062.033 0 .05.05.066.05.017.112 0 .14 0 .03 0 .047.063.084.084.037.02.25 0 .34.062.092.063.038.059.072.071a.415.415 0 0 1 .137 0c.095.046.162.188.266.217.029 0 .075-.033.108 0s.565.45.57.455c.062.083.07.2.187.254.16.044.325.077.49.1.096.025.17.113.266.133h.096c.108.046.154.171.254.23.075.05.152.098.232.141.075.03.225 0 .27.03.188.116.196.283.416.467.22.183.416.258.537.52.083.244.13.498.137.755 0 .084-.15.209-.208.28h-.037c-.087.071-.18.134-.279.187a.819.819 0 0 0-.195.042 2.492 2.492 0 0 1-.674.334 3.379 3.379 0 0 1-.74 0c-.05 0-.104-.063-.154-.071-.39-.042-.416-.334-.648-.563-.233-.23-.304-.163-.379-.417-.178.054-.212-.08-.366-.125-.22-.063-.49-.054-.706-.138a3.775 3.775 0 0 1-.612-.417c-.037-.02-.14 0-.174-.037a2.947 2.947 0 0 1-.49-.325c-.1-.084-.092-.171-.18-.267a6.73 6.73 0 0 0-.748-.588c-.041-.021-.116.025-.158 0-.041-.025-.079-.084-.129-.092-.05-.008-.129.046-.187.034a2.397 2.397 0 0 1-1.03-.593zM9.6 20.56a2.972 2.972 0 0 1-.184-.363 1.698 1.698 0 0 1-.262-.416v-.192c0-.034-.066-.067-.079-.109-.012-.041.055-.158.046-.22-.008-.063-.05 0-.058 0a3.721 3.721 0 0 0-.054-.61c0-.066-.058-.12-.054-.187.004-.067.1-.238.096-.263-.005-.025-.055-.037-.059-.079a.836.836 0 0 1 .071-.417c0-.025-.046 0-.037-.054.008-.054.07-.075.074-.12a.878.878 0 0 0-.02-.172s.066-.033.066-.05-.07-.13-.07-.154c0-.025.054-.054.054-.067a1.133 1.133 0 0 1 .062-.417s-.05-.05-.05-.067c.04-.084.074-.172.1-.262 0-.08-.08-.171-.058-.246.02-.075.058-.05.07-.075.013-.025 0-.209 0-.288 0 0 .058-.05.058-.062 0-.013-.087-.167-.091-.205-.004-.037.046-.167.037-.233-.008-.067-.07-.171-.079-.275a2.785 2.785 0 0 0 0-.326 3.984 3.984 0 0 1-.104-.588c0-.033.046-.033.059-.066.012-.034-.046-.121-.046-.171 0-.05.046-.054.046-.08 0-.024-.042-.204-.038-.304.004-.1.1-.167.117-.233.016-.067-.03-.163-.03-.209 0-.046.08-.108.084-.146 0-.137-.054-.262-.05-.417 0-.029.083-.112.083-.141 0-.03-.046-.046-.042-.055.005-.008.088-.066.117-.129a.27.27 0 0 0-.033-.037c.053-.139.129-.267.224-.38v-.083c.037-.1.15-.159.216-.246.13-.167.216-.375.345-.55h.071a.237.237 0 0 1 .058-.063.833.833 0 0 0 .283-.296c.104-.142.229-.234.328-.371.071.02.229-.125.296-.217.128.063 1.039-.805 1.201-.771.037-.046.072-.093.104-.142a.745.745 0 0 0 .166-.142.133.133 0 0 0 .046.03c-.029 0 .096-.13.116-.15a.803.803 0 0 1 .109-.08c0 .067.091-.033.074-.037.084-.038.154-.163.262-.213.038-.021.03.02.042.029a.549.549 0 0 1 .212-.138.37.37 0 0 0 .07-.07c.05.037.03 0 .042-.034l.038-.029c.041 0 .212 0 .257-.046.112-.068.228-.127.35-.175.112-.03.415 0 .511-.046.096-.046.046-.062.108-.079l.067.033c.066 0 .15-.066.207-.054.146.042.096.146.217.092 0 .025.045.083.07.096l.038-.03c.104.046.137.109.233.142h.108c.178.117.32.282.407.476.054.091.22.158.262.241.121.228.26.446.416.65.046.06.137.105.183.193.01.048.023.095.041.141h.059c.145.167.22.092.357.171.05.03.241.167.304.213.062.046.19.259.378.346.187.088.175-.087.308-.15s.203.02.266 0c.2-.088.257-.325.415-.417.038-.025.158 0 .192 0 .033 0 .145-.104.232-.108.088-.005.279.062.416.05.206-.035.417-.02.616.041.12-.202.298-.364.51-.462 0 0 .05.033.067.033a4.32 4.32 0 0 0 .612-.33c.102-.122.18-.264.228-.416 0-.113-.075-.263-.041-.367.033-.105.12-.1.158-.184.037-.083-.038-.041-.038-.075.035-.08.075-.159.12-.233-.12-.03-.145-.054-.062-.142 0 0-.074-.07-.05 0 .026.07-.066.042-.066.05l-.042-.03c0-.04.034-.162.025-.187-.041-.187-.212-.317-.286-.475-.038-.08 0-.254 0-.325 0-.071-.1-.1-.121-.163-.02-.063.03-.113 0-.142-.03-.116-.12-.2-.154-.32-.033-.122 0-.305-.033-.439-.075-.204-.2-.196-.287-.417 0-.033.025-.145 0-.179-.03-.112-.129-.187-.158-.3-.03-.113.037-.12.033-.175-.004-.054-.045-.163-.054-.271-.008-.109.083-.142.092-.213.008-.07-.08-.17-.05-.237.029-.067.162-.184.212-.305 0 0-.025-.037-.03-.041a4.66 4.66 0 0 1 .2-.46h.03c0-.024-.038-.045-.03-.066.009-.02.162-.162.2-.208.337-.417.802-.76 1.33-.571.054 0 .058.07.113.1l.041-.03c.092.059.216.075.283.125.066.05.116.188.145.226.03.037.158.104.192.15.175.209.237.49.166.754.096.092.22.142.283.271.062.13 0 .267 0 .371 0 .188.066.355.066.538-.003.258-.03.515-.079.767 0 .055-.062.084-.066.134-.005.05.045.158.025.233-.021.075-.075.134-.092.217-.017.084.033.192 0 .275-.033.084-.108.217-.133.33-.025.112.03.146.037.22 0 .154-.03.305-.087.447-.075.183-.287.38-.324.575.004.103.017.204.037.305 0 .162-.083.329-.07.492 0 .1.066.179.054.275-.013.096-.117.15-.146.254-.05.18.125.392.137.546 0 .05-.045.08-.054.125.007.095.007.19 0 .284-.025.075-.095.083-.129.163-.033.079.021.125 0 .166-.02.042-.166.15-.14.23.024.079.049.045.049.07 0 .026-.067.088-.07.134-.005.046.166.321.211.45.031.207.04.417.025.626 0 .079.092.146.104.196.013.05-.041.166 0 .262.042.096.075.092.083.109.009.016-.033.2 0 .262.034.063.1.225.113.292a.242.242 0 0 1-.05.167c0 .02.083.067.083.083 0 .017-.046 0-.046 0 .013.171.013.343 0 .513a.271.271 0 0 0 .083.171c-.05.147-.07.304-.058.459 0 .033.054.067.058.104l-.066.05c.016.068.037.135.062.2-.02-.025-.058.025-.062.03a.752.752 0 0 1 .037.304s-.066.054-.062.108c.004.054.066.088.075.159.008.07-.05.075-.054.1-.005.025.037.083.041.137a1.55 1.55 0 0 1-.095.238c0 .042.062.125.066.2.004.075-.108.417-.133.58a.899.899 0 0 0 .05.32c-.03.282-.08.56-.15.835 0 0 .034.108.05.15-.075.083-.087.07-.037.175-.082.091-.157.189-.225.292a.945.945 0 0 0 0 .108c-.108.188-.416.3-.544.417-.059.054-.13.196-.2.233l-.067-.033s-.103.083-.133.1a7.503 7.503 0 0 1-.494.659.463.463 0 0 1 .037.08 1.767 1.767 0 0 0-.062.17 2.404 2.404 0 0 0-.08.48s-.053 0-.053.037c.006.213-.028.425-.1.625a1.939 1.939 0 0 1-.195.271c0 .088.095.092.045.176-.05.083-.108.079-.12.091a7.176 7.176 0 0 1-.524.642 1.863 1.863 0 0 1-.374.28h-.158a.996.996 0 0 0-.158.18h-.12c-.363.183-.5.416-.874.479 0 .05-.03.075-.042.116a1.14 1.14 0 0 0-.486.134c-.07.025-.162.12-.25.141 0 0-.078-.029-.103-.029-.025 0-.254.08-.333.084-.079.004-.112-.063-.112-.063s-.058.063-.092.071l-.25-.025c-.149-.042-.207-.154-.344-.1-.025-.03 0-.063-.058-.08-.059-.016-.08.06-.08.06s-.029-.063-.062-.08-.125.029-.125.029-.033-.058-.05-.067a3.201 3.201 0 0 1-.444-.066c-.08-.034-.113-.121-.216-.155 0 0-.05.034-.075.038-.025.004-.075-.067-.133-.092-.158-.067-.354-.037-.52-.112l-.03.02c-.049-.02-.086-.095-.124-.116-.037-.021-.204-.025-.278-.063a.719.719 0 0 0-.196-.125c-.1-.03-.195 0-.324-.07a1.47 1.47 0 0 1-.283-.272 3.013 3.013 0 0 0-.594-.375c0-.025.029-.038 0-.063-.03-.025-.212-.025-.308-.104a4.925 4.925 0 0 0-.79-.646c-.162-.08-.32-.05-.461-.138v-.062c-.109-.038-.225-.088-.341-.121-.117-.034-.034.033-.08.037-.045.005-.216-.1-.295-.091-.079.008-.062.045-.07.045l-.341-.095v-.038s-.033.038-.042.054A2.657 2.657 0 0 1 9.6 20.56zM1.696 4.933a1.09 1.09 0 0 1-.125-1.096c0-.038.067-.063.087-.109.021-.046 0-.129 0-.166.189-.258.445-.457.74-.576 0 0 .042.042.054.042.013 0 .046-.054.046-.05a.83.83 0 0 0 .225.02c.083-.02.095-.087.166-.083.142.035.282.083.416.142h.283c.145.067.212.188.357.259h.075c.172.108.333.233.482.37.104.134.304.56.416.672.112.112.416-.042.59.042.175.083.241.241.416.346h.116c.088.05.075.108.146.141.32.171.915.3.952.755-.002.14.006.279.025.417.058.23.187.388.125.592a.63.63 0 0 1-.092.217c-.104.1-.253.096-.337.188-.083.091-.282.508-.552.58a.83.83 0 0 1-.312-.06 4.15 4.15 0 0 1-1.389-.487 4.164 4.164 0 0 1-.644-.65c-.071-.088-.117-.263-.225-.355-.108-.092-.39-.05-.511-.1a3.687 3.687 0 0 1-1.53-1.05zM7.01 8.777a1.617 1.617 0 0 1-.213-.763c.025-.058.1-.083.104-.141.004-.059-.054-.159 0-.242.054-.083.141-.042.229-.146v-.05a.504.504 0 0 1 .307-.317c.25-.088.6.18.898.088.055.081.14.137.237.154.042 0 .125-.025.158 0 .034.025.167.146.237.204.042-.02.125-.058.158-.037.217.212.399.457.54.725.055.192-.116.363-.161.542-.025.088.083.242.079.334-.004.091-.183.204-.237.325-.054.12.058.188.033.27v.072a.254.254 0 0 1-.054.037c-.062.05-.108.146-.195.188a1.746 1.746 0 0 1-.574-.07 1.08 1.08 0 0 1-.416-.268c-.046-.05-.033-.108-.1-.158-.066-.05-.145-.03-.203-.075-.213-.18-.337-.35-.541-.538-.1-.08-.224-.042-.287-.134zM7.437 2.578s-.162-.234-.178-.263v-.121c-.03-.05-.067-.03-.088-.063-.02-.033-.095-.2-.15-.287 0 0 .038-.03.03-.042A.723.723 0 0 1 7.03.968a.66.66 0 0 1 .042-.2c.02-.033.108-.108.145-.17.149-.22.37-.381.624-.455a1.124 1.124 0 0 1 1.372.216c.062.05.208.113.257.184.05.07 0 .058.054.125l-.041.03c.033.062.125.074.15.12.025.046 0 .313.095.417.096.104.225.154.279.292a.912.912 0 0 1 .416.05c.079.042.1.117.174.18.25.216.561.52.798.766s.25.813.42.955h.075c.08.034.129.134.204.163.075.029.29.058.39.104.1.046.154.133.258.183.104.05.192 0 .275.088.295.441.47.95.511 1.48 0 .104-.033.217-.033.321 0 .104.037.104.025.146a.8.8 0 0 1-.162.23c-.275.35-.462.633-.92.704-.078 0-.149.05-.22.038a2.39 2.39 0 0 1-1.292-1.297c-.046-.154-.063-.354-.125-.534-.154 0-.125-.054-.262-.096-.137-.041-.283.084-.54-.058a3.416 3.416 0 0 1-1.264-1.076c-.055-.083-.08-.212-.125-.283-.162-.234-.275-.209-.266-.471-.054 0-.204.05-.241 0-.038-.05 0-.042.02-.055-.1-.07-.153-.154-.237-.204a1.38 1.38 0 0 1-.449-.283zM33.472 10.278c0-1.213 0-1.496 1.293-1.496 2.627 0 3.92 2.526 3.92 4.895a6.213 6.213 0 0 1-.922 3.418 3.594 3.594 0 0 1-2.89 1.668c-1.472 0-1.401-1.05-1.401-2.243v-6.242zm-2.944 6.672c0 1.192.071 1.475-1.068 1.742-.233.055-.499.071-.499.359a.38.38 0 0 0 .416.417c.337 0 .694-.059 1.014-.059 1.497 0 2.998.059 4.486.059 3.355 0 6.898-2.235 6.898-5.9A5.106 5.106 0 0 0 39.28 9.19c-1.476-.93-3.056-1.176-4.76-1.176-.778 0-5.609.176-5.609.997 0 .417.39.304.661.288 1.01-.075.96.55.96 1.455l-.004 6.196zM46.223 13.79c-.27 0-.59.032-.59-.289.047-.441.22-.86.499-1.205.38-.406.908-.641 1.463-.65a1.096 1.096 0 0 1 1.16 1.134.834.834 0 0 1-.661.9c-.62.092-1.245.128-1.87.11zm4.016.625c.603 0 .994 0 .994-.647a2.457 2.457 0 0 0-1.098-1.888 4.531 4.531 0 0 0-2.685-.834c-2.44 0-4.844 1.588-4.844 4.119 0 2.53 2.154 4.378 4.665 4.378a5.215 5.215 0 0 0 2.952-.892c.266-.159.923-.638.923-.997a.263.263 0 0 0-.266-.27c-.416 0-.994.933-2.341.933-1.925 0-3.085-1.718-3.085-3.456 0-.5.179-.45.624-.45l4.161.004zM56.056 17.93c0 .054 0 .658.98.783.234.034.57.088.57.417 0 .33-.178.304-.415.304-.853 0-1.663-.033-2.495-.033-.831 0-1.7.033-2.557.033-.25 0-.415-.037-.415-.304s.266-.375.478-.417c1.085-.125 1.085-.73 1.085-.784V9.62c0-.983.054-1.163-.944-1.304-.141 0-.353-.071-.353-.267 0-.338.515-.375.765-.417a11.084 11.084 0 0 0 2.34-.642c.206-.1.426-.167.653-.196.39 0 .3.604.3.855l.008 10.281zM61.153 15.765c0 .66-.07 2.402.873 2.402.586 0 .977-.517 1.247-.517a.224.224 0 0 1 .216.246c0 .233-.357.592-.499.734a3.483 3.483 0 0 1-2.315.913 2.11 2.11 0 0 1-1.634-.75 3.368 3.368 0 0 1-.516-1.981v-3.72a5.736 5.736 0 0 0-.054-.746c-.037-.179-.25-.229-.416-.229-.166 0-.798.088-.798-.2 0-.288.374-.417.566-.484a4.688 4.688 0 0 0 2.37-1.947c.124-.229.299-.588.602-.588.374 0 .304.417.304.66v1.25c0 .5.108.48.57.48h.922c.375 0 .645-.088.645.362 0 .45-.125.484-.607.484h-.873c-.587 0-.587 0-.587.692l-.016 2.94zM68.711 16.62c.004.277-.056.55-.174.8-.3.416-.775.667-1.285.68a.963.963 0 0 1-.96-1.038c0-.638.415-1.034.943-1.355a7.917 7.917 0 0 1 1.28-.696c.234 0 .196.696.196.75v.86zm2.57-3.573c0-.588-.034-1.138-.607-1.497a4.745 4.745 0 0 0-2.283-.5 5.808 5.808 0 0 0-3.326.946c-.416.284-1.21 1.088-1.21 1.668 0 .304.287.417.553.417a3.783 3.783 0 0 0 1.46-.392 1.25 1.25 0 0 0 .765-.876c.232-.533.64-1.121 1.284-1.121.927 0 .798 1.25.798 1.855v.584c0 .054-.07.075-.195.18a5.569 5.569 0 0 1-1.692.833 7.89 7.89 0 0 0-2.046.963 2.007 2.007 0 0 0-.96 1.735c-.004.482.194.944.546 1.274.351.33.824.496 1.304.46 1.763 0 2.869-1.413 3.08-1.413.213 0 .267.346.304.417.191.553.739.899 1.318.834a3.093 3.093 0 0 0 1.963-.834c.174-.142.461-.417.461-.68a.242.242 0 0 0-.233-.246c-.141 0-.32.159-.415.213a.702.702 0 0 1-.445.18c-.5 0-.416-.835-.416-1.106l-.008-3.894zM82.248 12.292c0 .534-.033.834.586.834.5.013 1-.01 1.497-.07.5-.092.711-.484.857-.943.07-.233.19-.588.511-.588.32 0 .358.213.358.463-.038.496-.042 1.03-.075 1.53-.034.5.037 1.038.075 1.539 0 .229-.071.5-.375.5-.852 0-.232-1.714-2.116-1.714l-.765.038c-.586.033-.553.283-.553.763v2.085a2.675 2.675 0 0 0 .304 1.48 1.74 1.74 0 0 0 1.368.513 3.004 3.004 0 0 0 2.868-1.622c.104-.25.283-.622.603-.622s.39.125.39.417c-.032.27-.079.54-.14.805l-.196 1.426c0 .217-.054.325-.287.325-1.313 0-2.631-.058-3.95-.058-1.708 0-3.421.058-5.13.058-.25 0-.416-.054-.416-.325s.267-.396.483-.417c1.21-.196 1.172-.555 1.172-1.622v-6.342c0-1.046.054-1.596-1.085-1.776-.233-.037-.57-.125-.57-.267a.393.393 0 0 1 .416-.417c1.065 0 2.1.063 3.172.063 1.855 0 3.705-.063 5.572-.063.39 0 .303.3.303.618v1.438c0 .267.05.55-.358.55-.266 0-.415-.283-.552-.48a4.511 4.511 0 0 0-.832-.92 2.074 2.074 0 0 0-1.405-.36c-.304 0-1.285 0-1.551.163s-.195.605-.195.834l.016 2.164zM94.796 17.93c-.305.2-.666.3-1.031.283-1.663 0-2.42-1.764-2.42-3.206 0-1.322.495-3.244 2.137-3.244.461.014.884.262 1.122.659.246.391.192 1.175.192 1.642v3.865zM97.56 7.567c0-.25-.02-.746-.37-.746a.573.573 0 0 0-.303.088 8.14 8.14 0 0 1-2.39.788c-.25.05-.998.05-.998.446 0 .317.415.354.64.354.831 0 .657.571.657 1.251v1.588a2.186 2.186 0 0 1-.587-.125 3.43 3.43 0 0 0-1.051-.141c-2.528 0-4.665 1.813-4.665 4.415 0 2.23 1.513 4.082 3.812 4.082 1.53 0 2.366-1.013 2.561-1.013.092 0 .108.162.108.217l.034.366c.037.234.091.417.357.417.243-.037.48-.103.707-.196l2.395-.833c.515-.18.416-.146.482-.734 0-.175 0-.442-.25-.442-.34 0-.59.659-.926.659-.337 0-.213-.538-.213-.713V7.568zM108.37 17.512c0 .463.304.572.802.626.18 0 .337.07.337.283 0 .305-.603.392-.831.417l-1.825.559c-.241.098-.492.17-.749.213-.32 0-.212-.463-.212-.66 0-.108.07-.641-.158-.641a.723.723 0 0 0-.337.183c-.794.588-1.584 1.05-2.59 1.05a2.653 2.653 0 0 1-2.008-.833 3.422 3.422 0 0 1-.574-2.21v-2.872c0-.322.038-1.035-.158-1.339-.195-.304-.552-.32-.89-.392-.195-.037-.415-.125-.415-.375s.304-.284.532-.284c.557 0 1.085.034 1.638.034.553 0 1.085-.034 1.638-.034.233 0 .283.038.283.284v4.795c-.02.478.072.955.266 1.392.23.35.622.558 1.04.55.498-.035.968-.25 1.322-.604.316-.32.262-.659.262-1.088v-2.919c0-.337.054-1.05-.138-1.355a1.217 1.217 0 0 0-.881-.392c-.195-.033-.416-.125-.416-.354 0-.321.3-.304.532-.304.545 0 1.094.033 1.663.033.57 0 1.106-.033 1.663-.033.32 0 .233.358.233.604l-.029 5.666zM114.773 11.675c-.56.061-1.074.343-1.426.784a3.463 3.463 0 0 0-.765 2.214c0 1.822 1.247 3.644 3.255 3.644 1.297 0 1.688-.659 2.029-.659a.229.229 0 0 1 .212.213c0 .417-.516.734-.798.934a5.24 5.24 0 0 1-2.723.734c-2.611 0-4.736-1.63-4.736-4.295 0-2.73 2.91-4.198 5.405-4.198a4.927 4.927 0 0 1 2.17.458.709.709 0 0 1 .516.742c0 .417-.158 1.627-.745 1.627-.586 0-.831-.61-1.068-1.001-.333-.534-.599-1.197-1.326-1.197zM123.865 16.62c.004.277-.057.552-.179.8a1.624 1.624 0 0 1-1.28.68.967.967 0 0 1-.965-1.038c0-.638.416-1.034.944-1.355a7.78 7.78 0 0 1 1.285-.696c.233 0 .195.696.195.75v.86zm2.565-3.573c0-.588-.033-1.138-.602-1.497a4.745 4.745 0 0 0-2.283-.5 5.808 5.808 0 0 0-3.326.946c-.416.284-1.21 1.088-1.21 1.668 0 .304.283.417.549.417a3.804 3.804 0 0 0 1.463-.392 1.25 1.25 0 0 0 .761-.876c.233-.533.645-1.121 1.285-1.121.927 0 .802 1.25.802 1.855v.584c0 .054-.07.075-.195.18a5.569 5.569 0 0 1-1.692.833 7.89 7.89 0 0 0-2.046.963 1.998 1.998 0 0 0-.964 1.735c-.003.482.196.943.547 1.272.351.33.823.497 1.303.462 1.763 0 2.869-1.413 3.085-1.413.216 0 .266.346.3.417.19.554.74.901 1.321.834a3.08 3.08 0 0 0 1.958-.834c.18-.142.462-.417.462-.68a.238.238 0 0 0-.229-.246c-.145 0-.32.159-.415.213a.69.69 0 0 1-.445.18c-.5 0-.416-.835-.416-1.106l-.013-3.894zM131.607 15.765c0 .66-.071 2.402.869 2.402.59 0 .98-.517 1.247-.517a.224.224 0 0 1 .216.246c0 .233-.362.592-.503.734a3.467 3.467 0 0 1-2.312.913 2.11 2.11 0 0 1-1.634-.75 3.368 3.368 0 0 1-.515-1.981v-3.72a5.737 5.737 0 0 0-.054-.746c-.038-.179-.25-.229-.416-.229-.166 0-.802.088-.802-.2 0-.288.374-.417.57-.484a4.697 4.697 0 0 0 2.365-1.947c.125-.229.303-.588.607-.588.374 0 .303.417.303.66v1.25c0 .5.104.48.57.48h.927c.374 0 .645-.088.645.362 0 .45-.13.484-.607.484h-.87c-.586 0-.586 0-.586.692l-.02 2.94zM138.155 16.979c-.038.476-.014.955.07 1.426.092.266.64.25.96.304.196.033.417.142.417.375 0 .3-.32.338-.55.338-.748 0-1.496-.033-2.244-.033-.749 0-1.46.033-2.204.033-.233 0-.536-.038-.536-.338 0-.233.216-.342.416-.375.2-.033.802-.054.89-.304.104-.468.146-.948.124-1.426v-2.623c0-.75.054-1.159-.782-1.25-.249 0-.532 0-.532-.305 0-.304.566-.375.761-.417a5.043 5.043 0 0 0 2.295-1.213.764.764 0 0 1 .64-.321c.287 0 .25.462.25.642l.025 5.487zm-2.91-8.139c0-.859.798-1.376 1.58-1.376.78 0 1.563.484 1.563 1.36-.006.411-.181.802-.484 1.08a1.486 1.486 0 0 1-1.117.387 1.44 1.44 0 0 1-1.092-.385 1.449 1.449 0 0 1-.459-1.066h.008zM144.944 18.95c-1.78 0-2.349-2.805-2.349-4.127 0-1.192.461-3.177 1.996-3.177.781 0 1.4.696 1.725 1.338.367.821.554 1.711.549 2.61 0 1.176-.354 3.357-1.921 3.357zm-.316.597c2.578 0 5.089-1.689 5.089-4.382a3.939 3.939 0 0 0-1.638-3.073 5.481 5.481 0 0 0-3.326-1.026c-2.453 0-5.027 1.668-5.027 4.257.013 2.66 2.337 4.224 4.902 4.224zM154.552 12.267c.287 0 1.18-1.217 2.91-1.217.81-.021 1.6.238 2.241.734.749.608.732 1.355.732 2.23v2.969c0 .417-.07 1.084.175 1.426.178.23.573.246.831.3.196.038.416.142.416.392s-.324.321-.553.321c-.64 0-1.247-.033-1.888-.033-.831 0-1.638.033-2.457.033-.195 0-.415-.054-.415-.321s.158-.338.353-.392c.291-.03.56-.17.752-.392.175-.267.121-.996.121-1.334v-2.614a3.26 3.26 0 0 0-.303-1.551 1.417 1.417 0 0 0-1.14-.638 2.187 2.187 0 0 0-1.338.517c-.483.417-.416.78-.416 1.388v2.898c0 .338-.05 1.067.129 1.334.19.221.458.361.748.392.196.054.358.163.358.392 0 .23-.217.321-.416.321-.832 0-1.642-.033-2.457-.033-.64 0-1.247.033-1.884.033-.232 0-.553 0-.553-.321s.233-.354.416-.392c.266-.054.657-.07.832-.3.253-.342.179-.997.179-1.426v-2.614c0-.747.058-1.16-.782-1.251-.25 0-.532 0-.532-.305 0-.304.57-.37.765-.416.857-.2 1.647-.62 2.295-1.218a.752.752 0 0 1 .64-.321c.287 0 .245.467.245.646l-.004.763zM163.204 14.69a1.576 1.576 0 0 1-1.46-.974 1.584 1.584 0 0 1 .342-1.724 1.572 1.572 0 0 1 1.719-.342c.589.246.972.824.97 1.464.002.418-.164.82-.459 1.115a1.565 1.565 0 0 1-1.112.46zm0 .183a1.758 1.758 0 0 0 1.652-1.065c.284-.66.14-1.425-.362-1.936a1.755 1.755 0 0 0-1.925-.392 1.764 1.764 0 0 0-1.086 1.642c0 .957.766 1.737 1.72 1.751zm-.832-2.777h.088c.091 0 .141.025.15.121v1.58c0 .117 0 .15-.142.15h-.096v.092h.832v-.091h-.154c-.108 0-.087-.2-.087-.263v-.563h.087c.358 0 .374.175.503.48.04.153.115.295.216.416a.535.535 0 0 0 .341.055h.137v-.096a.19.19 0 0 1-.178-.063 1.402 1.402 0 0 1-.18-.33c-.086-.187-.207-.466-.415-.512a.579.579 0 0 0 .553-.542.5.5 0 0 0-.22-.417 1.194 1.194 0 0 0-.578-.096h-.832l-.025.08zm.607.9v-.666c0-.213.038-.213.242-.213a.465.465 0 0 1 .307.071c.11.085.172.22.162.359 0 .417-.307.45-.636.45h-.075z"/>
        </g>
    </g>
</svg>
