<svg width="52" height="68" viewBox="0 0 52 68" xmlns="http://www.w3.org/2000/svg">
    <g fill-rule="nonzero" fill="none">
        <path d="M1 1h50v66H1z"/>
        <path d="M50.99 26.543C51.238 17.5 46.53 9.038 38.696 4.445a25.114 25.114 0 0 0-25.39 0C5.47 9.038.763 17.501 1.009 26.543V67H51l-.01-40.457z" stroke="#FFF" stroke-width="1.227" fill="#000"/>
        <path d="M26.543 29.373A2.475 2.475 0 0 0 28.3 26.34a2.491 2.491 0 0 0-3.05-1.75 2.475 2.475 0 0 0-1.76 3.033 2.494 2.494 0 0 0 3.052 1.751z" stroke="#FEBF50" stroke-width=".5" fill="#FEBF50"/>
        <path d="M36.73 46.15c.306-.147 1.21-3.753-.92-6.208.06.07-1.666-1.507-2.972-1.894-5.593-1.66-6.571-3.127-7.4-6.54-.551 4.963.173 5.549 5.3 7.684l.987.356c.877.397 5.124 1.547 5.084 6.381l-.08.22z" fill="#FEBF50"/>
        <path d="M43.279 40.567c.22-.25-.322-3.928-3.238-5.386.083.042-2.116-.757-3.474-.61-5.805.61-7.28-.397-9.353-3.224 1.402 4.794 2.297 5.063 7.838 5.072l1.049-.043c.962.03 5.329-.521 7.15 3.966l.028.225z" fill="#FEBF50"/>
        <path d="M47.185 32.914c.105-.305-1.812-3.504-5.065-3.742.092 0-2.248.107-3.447.753-5.133 2.745-6.878 2.404-9.88.583 3.137 3.895 4.076 3.806 9.2 1.708l.95-.44c.92-.338 4.725-2.51 8.132.937l.11.201z" fill="#FEBF50"/>
        <path d="M47.848 24.359c-.022-.33-3.024-2.547-6.133-1.525.089-.028-2.033.951-2.895 2.007-3.68 4.505-5.427 4.837-8.892 4.297 4.4 2.407 5.231 1.968 9.153-1.918l.708-.769c.706-.656 3.398-4.118 7.875-2.233l.184.14z" fill="#FEBF50"/>
        <path d="M45.168 16.203c-.147-.306-3.772-1.202-6.24.915.07-.061-1.515 1.653-1.904 2.955-1.669 5.564-3.153 6.537-6.575 7.36 4.99.55 5.593-.174 7.718-5.255l.362-.982c.396-.873 1.555-5.097 6.415-5.058l.224.065z" fill="#FEBF50"/>
        <path d="M39.556 9.687c-.251-.216-3.95.327-5.415 3.224.043-.082-.76 2.105-.613 3.456.613 5.774-.399 7.238-3.241 9.303 4.82-1.394 5.1-2.287 5.105-7.796l-.055-1.043c.03-.958-.524-5.301 3.986-7.113l.233-.03z" fill="#FEBF50"/>
        <path d="M31.863 5.808c-.307-.107-3.523 1.8-3.763 5.035 0-.091.108 2.236.758 3.429 2.76 5.109 2.416 6.841.586 9.827 3.915-3.12 3.826-4.053 1.717-9.15l-.442-.946c-.34-.893-2.523-4.703.938-8.083l.206-.112z" fill="#FEBF50"/>
        <path d="M23.262 5.146c-.331.021-2.56 3.007-1.533 6.1-.028-.088.956 2.022 2.017 2.88 4.53 3.66 4.863 5.398 4.32 8.845 2.417-4.377 1.979-5.204-1.928-9.096l-.773-.707c-.662-.708-4.133-3.386-2.247-7.833l.144-.19z" fill="#FEBF50"/>
        <path d="M15.062 7.811c-.306.147-1.208 3.752.92 6.208-.061-.068 1.665 1.506 2.972 1.894 5.596 1.659 6.57 3.148 7.405 6.536.549-4.962-.178-5.56-5.287-7.659l-.987-.36c-.877-.393-5.124-1.543-5.084-6.378l.061-.24z" fill="#FEBF50"/>
        <path d="M8.516 13.396c-.221.247.325 3.926 3.238 5.384-.083-.043 2.116.756 3.474.61 5.805-.61 7.276.396 9.352 3.224-1.401-4.774-2.3-5.063-7.837-5.079l-1.049.043c-.963-.03-5.33.525-7.15-3.965l-.028-.217z" fill="#FEBF50"/>
        <path d="M4.612 21.046c-.107.305 1.812 3.505 5.063 3.743-.092 0 2.247-.107 3.45-.754 5.132-2.745 6.874-2.403 9.88-.582-3.14-3.895-4.08-3.81-9.2-1.708l-.95.439c-.902.338-4.723 2.51-8.132-.933l-.11-.205z" fill="#FEBF50"/>
        <path d="M3.95 29.602c.021.33 3.02 2.547 6.133 1.525-.09.03 2.033-.952 2.894-2.007 3.68-4.505 5.43-4.838 8.893-4.3-4.4-2.404-5.238-1.962-9.153 1.924l-.712.769c-.705.655-3.397 4.117-7.871 2.232l-.184-.143z" fill="#FEBF50"/>
        <path d="M6.63 37.758c.144.305 3.771 1.202 6.24-.915-.07.061 1.512-1.653 1.901-2.956 1.668-5.563 3.155-6.536 6.571-7.363-4.986-.549-5.587.162-7.712 5.256l-.37.982c-.4.872-1.555 5.097-6.415 5.057l-.215-.061z" fill="#FEBF50"/>
        <path d="M12.241 44.27c.252.22 3.95-.323 5.412-3.22-.04.082.76-2.105.614-3.457-.614-5.774.398-7.238 3.238-9.303-4.818 1.394-5.097 2.288-5.106 7.797l.046 1.043c-.033.957.525 5.3-3.986 7.113l-.218.027z" fill="#FEBF50"/>
        <path d="M19.935 48.153c.306.107 3.523-1.803 3.76-5.036 0 .092-.108-2.236-.755-3.431-2.778-5.106-2.417-6.839-.589-9.828-3.916 3.123-3.827 4.057-1.717 9.15l.445.946c.337.915 2.523 4.697-.942 8.09l-.202.109z" fill="#FEBF50"/>
        <path d="M28.533 48.812c.331-.022 2.563-3.005 1.533-6.085.03.088-.957-2.026-2.018-2.88-4.529-3.66-4.863-5.398-4.32-8.845-2.42 4.374-1.978 5.204 1.932 9.102l.785.695c.659.702 4.14 3.38 2.241 7.83l-.153.183zM28.005 35.031a7.478 7.478 0 0 1-2.122-5.548l.647-.146c-.58 1.784 1.475 5.694 1.475 5.694zM30.946 33.622a7.511 7.511 0 0 1-4.094-4.316l.54-.381c.15 1.87 3.554 4.697 3.554 4.697zM33.123 31.203a7.564 7.564 0 0 1-5.446-2.44l.353-.552c.868 1.675 5.093 2.992 5.093 2.992zM34.202 28.14a7.586 7.586 0 0 1-5.964-.173l.108-.65c1.438 1.217 5.856.824 5.856.824zM34.019 24.899a7.553 7.553 0 0 1-5.575 2.11l-.16-.628c1.807.564 5.735-1.482 5.735-1.482zM32.605 21.973a7.533 7.533 0 0 1-4.339 4.075l-.386-.54c1.882-.149 4.725-3.535 4.725-3.535zM30.173 19.808a7.486 7.486 0 0 1-2.453 5.417l-.56-.35c1.689-.855 3.013-5.067 3.013-5.067zM27.092 18.737a7.461 7.461 0 0 1-.172 5.933l-.653-.12c1.223-1.42.825-5.813.825-5.813zM23.835 18.917a7.481 7.481 0 0 1 2.122 5.545l-.647.15c.58-1.788-1.475-5.695-1.475-5.695zM20.891 20.323a7.52 7.52 0 0 1 4.097 4.32l-.54.38c-.15-1.87-3.557-4.7-3.557-4.7zM18.717 22.745a7.564 7.564 0 0 1 5.446 2.44l-.352.558c-.862-1.68-5.094-2.998-5.094-2.998zM17.638 25.807a7.574 7.574 0 0 1 5.964.171l-.11.653c-1.435-1.217-5.854-.824-5.854-.824zM17.822 29.05a7.569 7.569 0 0 1 5.575-2.114l.15.644c-1.797-.59-5.725 1.47-5.725 1.47zM19.236 31.975a7.533 7.533 0 0 1 4.339-4.069l.386.537c-1.883.146-4.725 3.532-4.725 3.532zM21.667 34.137a7.486 7.486 0 0 1 2.453-5.414l.561.348c-1.69.857-3.014 5.066-3.014 5.066z" fill="#FEBF50"/>
        <path fill="#FFF" d="M7.642 63.94h-3.22V52.128h8.224v2.291H7.642v2.745h4.651v2.288H7.642zM22.228 58.084c0 1.751-.45 3.813-2.64 3.813s-2.65-2.062-2.65-3.813c0-1.848.452-3.91 2.641-3.91 2.19 0 2.65 2.062 2.65 3.91zm-2.64 6.1c3.849 0 6.023-2.26 6.023-6.151 0-3.893-2.174-6.153-6.023-6.153-3.848 0-6.022 2.257-6.022 6.156 0 3.898 2.174 6.167 6.022 6.167v-.018zM33.356 55.598a1.235 1.235 0 0 0-.42-1.049 1.825 1.825 0 0 0-1.226-.375c-.743 0-1.386.491-1.386 1.08 0 .866 1.03 1.144 1.885 1.375 1.947.507 4.78.702 4.78 3.892 0 2.486-2.415 3.66-5.102 3.66-2.686 0-5.102-.795-5.136-4.004h3.22c0 1.113.791 1.72 1.95 1.72.742 0 1.69-.393 1.69-1.18 0-1.602-2.383-1.26-4.906-2.386-1.178-.524-1.757-1.604-1.757-2.882.128-2.797 2.545-3.566 4.976-3.566 2.432 0 4.863.867 4.67 3.715h-3.238zM44.738 55.598a1.235 1.235 0 0 0-.42-1.049 1.819 1.819 0 0 0-1.226-.375c-.74 0-1.386.491-1.386 1.08 0 .866 1.033 1.144 1.886 1.375 1.947.507 4.783.702 4.783 3.892 0 2.486-2.416 3.66-5.105 3.66-2.69 0-5.09-.802-5.136-4.01h3.22c-.016 1.113.787 1.72 1.946 1.72.742 0 1.693-.394 1.693-1.18 0-1.602-2.383-1.26-4.906-2.386-1.175-.524-1.754-1.604-1.754-2.882.129-2.797 2.545-3.566 4.973-3.566 2.429 0 4.864.867 4.67 3.715l-3.238.006z"/>
        <path d="M24.865 35.248a7.458 7.458 0 0 1 .046-5.936l.657.095c-1.193 1.455-.703 5.84-.703 5.84z" fill="#FEBF50"/>
        <path d="M49.602 51.932a.736.736 0 0 1-.755.754.75.75 0 0 1-.75-.748.75.75 0 0 1 .75-.747.741.741 0 0 1 .755.741zm-1.356 0c0 .337.275.61.614.61a.593.593 0 0 0 .588-.61.594.594 0 0 0-.285-.55.6.6 0 0 0-.622 0 .594.594 0 0 0-.285.55h-.01zm.466.412h-.147v-.78c.09-.015.182-.022.273-.022a.36.36 0 0 1 .245.06c.053.04.083.103.08.169a.202.202 0 0 1-.15.18c.07.038.118.109.126.189.008.067.029.132.061.192h-.15a.584.584 0 0 1-.068-.202c-.018-.088-.067-.125-.178-.125h-.092v.339zm0-.44h.099c.104 0 .202-.033.202-.121 0-.089-.052-.131-.19-.131a.669.669 0 0 0-.11 0v.253z" fill="#FFF"/>
    </g>
</svg>
