<svg width="165" height="135" viewBox="0 0 165 135" xmlns="http://www.w3.org/2000/svg">
    <g fill-rule="nonzero" fill="none">
        <path d="M0 0h165v135H0z"/>
        <g fill="#0030CC">
            <path d="M7.074 134.185c-.239 0-.478-.048-.717-.096-.191-.048-.382-.192-.526-.336-.143-.144-.286-.336-.334-.527a1.93 1.93 0 0 1-.144-.72v-2.781h.67v2.781c0 .144 0 .288.047.432.048.144.144.24.24.336.095.095.19.191.334.24.143.047.287.095.43.095.144 0 .287 0 .43-.096.144-.048.24-.144.335-.24.096-.095.191-.24.239-.335.048-.144.096-.288.048-.432v-2.781h.669v2.781c0 .24-.048.48-.143.72-.096.191-.192.383-.335.527-.143.144-.335.24-.526.336-.239.096-.478.096-.717.096zM10.85 129.725h.717l2.199 3.357v-3.357h.621v4.412h-.669l-2.246-3.405v3.405h-.67zM16.586 129.725h.67v4.412h-.67zM19.072 129.725h.717l1.338 3.549 1.338-3.55h.717l-1.72 4.413h-.67zM24.95 129.725h2.869v.623h-2.247v1.247h2.247v.623h-2.247v1.247h2.247v.624H24.95v-4.364zM29.874 129.725h1.72c.24 0 .43.048.67.096.191.048.334.191.478.287.143.144.239.288.334.48.048.192.096.384.096.575 0 .288-.048.528-.239.768-.143.24-.382.431-.621.527l.956 1.63h-.765l-.765-1.486h-1.147v1.487h-.67l-.047-4.364zm.67.575v1.775h1.003c.143 0 .287 0 .43-.048.096-.048.24-.096.287-.192.096-.096.143-.192.191-.288.048-.096.048-.24.048-.336 0-.24-.096-.48-.24-.623-.19-.192-.477-.24-.764-.24l-.956-.048zM36.757 134.185a2.072 2.072 0 0 1-1.912-.96l.574-.479c.143.24.334.432.573.575.24.144.478.192.765.192.239 0 .478-.048.67-.192.143-.143.238-.287.238-.48 0-.095 0-.239-.095-.335-.048-.096-.144-.144-.24-.192-.095-.048-.238-.096-.382-.143l-.43-.096c-.191-.048-.335-.096-.478-.144-.143-.048-.287-.096-.478-.192a1.119 1.119 0 0 1-.335-.336c-.095-.192-.143-.336-.143-.527 0-.192.048-.336.096-.48.047-.144.19-.288.286-.384.144-.095.287-.24.478-.24.192-.047.383-.095.622-.095.334 0 .669.048.956.192.239.143.526.335.717.575l-.526.432c-.048-.096-.143-.192-.191-.24-.048-.048-.144-.144-.24-.192-.095-.048-.19-.096-.286-.096-.143 0-.239-.048-.382-.048-.24 0-.478.048-.622.192a.617.617 0 0 0-.191.48c0 .095 0 .191.096.287.047.048.143.144.239.192a.884.884 0 0 0 .334.096c.144 0 .24.048.43.096.192.048.335.096.526.144.191.048.335.144.478.24.144.096.24.24.335.383.095.192.143.384.143.576 0 .192-.048.335-.095.48-.048.143-.192.287-.287.431a.991.991 0 0 1-.478.288c-.335 0-.574.048-.765 0zM40.246 129.725h.67v4.412h-.67zM44.118 130.3h-1.243v-.623h3.155v.623h-1.243v3.789h-.67zM49.185 132.266l-1.53-2.541h.765l1.147 1.918 1.147-1.918h.717l-1.577 2.59v1.87h-.67zM57.98 134.185a1.87 1.87 0 0 1-.86-.192c-.24-.096-.479-.288-.718-.48a2.285 2.285 0 0 1 0-3.213c.191-.192.478-.383.717-.48a2.264 2.264 0 0 1 1.769 0c.239.097.478.288.717.48a2.285 2.285 0 0 1 .478 2.494c-.096.24-.287.48-.478.72a2.353 2.353 0 0 1-.717.479 2.065 2.065 0 0 1-.909.192zm0-.624c.43 0 .86-.192 1.147-.48.143-.143.239-.335.334-.527a1.48 1.48 0 0 0 .144-.623c0-.24-.048-.432-.144-.624-.095-.192-.191-.383-.334-.527-.144-.144-.335-.24-.478-.336a1.414 1.414 0 0 0-1.243 0c-.383.192-.717.48-.86.863a1.48 1.48 0 0 0-.144.624c0 .24.048.431.143.623.096.192.192.384.335.528.143.144.287.24.478.335.191.096.382.144.621.144zM62.186 129.725h2.724v.623h-2.055v1.247h2.055v.623h-2.055v1.919h-.67v-4.412zM71.745 134.185c-.621 0-1.195-.24-1.625-.672a2.285 2.285 0 0 1-.478-2.494c.24-.527.67-1.007 1.195-1.198.287-.096.574-.192.86-.192.192 0 .43 0 .622.096.191.048.382.144.526.24.19.095.334.24.478.335.143.144.239.288.334.48l-.573.335c-.144-.24-.335-.48-.526-.623a1.607 1.607 0 0 0-.813-.24c-.239 0-.43.048-.621.144-.191.096-.382.192-.478.336-.143.144-.239.335-.335.527-.095.192-.143.432-.095.624 0 .24.048.431.095.623.096.192.192.384.335.48.143.144.287.24.478.335.191.096.43.144.621.144.287 0 .622-.096.86-.24.24-.191.43-.383.527-.67l.573.287c-.095.192-.239.336-.334.48a2.847 2.847 0 0 1-1.004.67c-.24.193-.43.193-.622.193zM76.908 129.725h.669l1.72 4.412h-.669l-.334-.96h-1.96l-.335.96h-.669l1.578-4.412zm-.478 2.83h1.53l-.766-2.015-.764 2.014zM81.018 129.725h.67v3.788h2.15v.624h-2.772v-4.412zM85.846 129.725h.67v4.412h-.67zM88.666 129.725h2.724v.623h-2.055v1.247h2.055v.623h-2.055v1.919h-.669zM95.501 134.185a1.87 1.87 0 0 1-.86-.192c-.24-.096-.478-.288-.717-.48a2.285 2.285 0 0 1-.478-2.494c.095-.24.287-.479.478-.719.191-.192.478-.383.717-.48a2.264 2.264 0 0 1 1.768 0c.24.097.478.288.717.48a2.285 2.285 0 0 1 .478 2.494c-.095.24-.287.48-.478.72a2.353 2.353 0 0 1-.717.479c-.286.144-.573.192-.908.192zm0-.624c.43 0 .86-.192 1.147-.48.144-.143.24-.335.335-.527a1.48 1.48 0 0 0 .143-.623c0-.24-.047-.432-.143-.624-.096-.192-.191-.383-.335-.527-.143-.144-.334-.24-.478-.336a1.414 1.414 0 0 0-1.242 0c-.383.192-.717.48-.86.863a1.48 1.48 0 0 0-.144.624c0 .24.048.431.143.623.096.192.191.384.335.528.143.144.287.24.478.335.191.096.43.144.621.144zM99.755 129.725h1.721c.239 0 .43.048.67.096.19.048.334.191.477.287.144.144.24.288.335.48.048.192.095.384.095.575 0 .288-.047.528-.239.768-.143.24-.382.431-.621.527l.956 1.63h-.765l-.765-1.486h-1.195v1.487h-.669v-4.364zm.67.575v1.775h1.003c.144 0 .287 0 .43-.048.096-.048.24-.096.287-.192.096-.096.144-.192.191-.288.048-.096.048-.24.048-.336 0-.24-.095-.48-.239-.623-.191-.192-.478-.24-.765-.24l-.956-.048zM105.013 129.725h.717l2.199 3.357v-3.357h.621v4.412h-.67l-2.246-3.405v3.405h-.669zM110.749 129.725h.669v4.412h-.67zM114.907 129.725h.67l1.72 4.412h-.717l-.334-.96h-2.008l-.334.96h-.717l1.72-4.412zm-.43 2.83h1.53l-.765-2.015-.765 2.014zM119.4 134.185a.364.364 0 0 1-.239-.096.507.507 0 0 1-.095-.24c0-.144.048-.24.143-.384a.515.515 0 0 1 .335-.144c.143 0 .287.048.382.192a.775.775 0 0 1 .144.432c0 .24-.048.432-.192.575-.143.192-.334.336-.525.48l-.24-.24c.144-.096.287-.24.43-.383a.546.546 0 0 0 .144-.384.364.364 0 0 1-.095.192h-.192zM124.658 129.725h1.912c.382 0 .765.096 1.052.335.239.24.43.528.382.912a.97.97 0 0 1-.143.527c-.096.192-.24.288-.43.384.19.096.334.24.477.383a1.316 1.316 0 0 1-.239 1.583c-.286.24-.717.336-1.051.336h-1.912l-.048-4.46zm.622.575v1.247h1.242c.24 0 .43-.048.574-.192.143-.096.191-.288.191-.48a.617.617 0 0 0-.191-.479c-.191-.096-.383-.192-.574-.144l-1.242.048zm0 1.87v1.343h1.242c.24 0 .43-.048.622-.192.239-.24.286-.719 0-.959-.192-.144-.43-.191-.67-.191h-1.194zM130.012 129.725h2.867v.623h-2.246v1.247h2.246v.623h-2.246v1.247h2.246v.624h-2.867zM134.935 129.725h1.72c.24 0 .43.048.67.096.19.048.334.191.478.287.143.144.239.288.334.48.048.192.096.384.096.575 0 .288-.048.528-.24.768-.142.24-.381.431-.62.527l.956 1.63h-.765l-.813-1.486h-1.195v1.487h-.669l.048-4.364zm.669.575v1.775h1.004c.143 0 .287 0 .43-.048.096-.048.239-.096.287-.192.095-.096.143-.192.19-.288.049-.096.049-.24.049-.336 0-.24-.096-.48-.24-.623-.19-.192-.477-.24-.764-.24l-.956-.048zM141.674 131.835l-.812 1.007v1.295h-.67v-4.412h.67v2.302l1.912-2.302h.812l-1.386 1.678 1.482 2.782h-.765zM145.45 129.725h2.868v.623h-2.246v1.247h2.246v.623h-2.246v1.247h2.246v.624h-2.868zM150.374 129.725h.669v3.788h2.15v.624h-2.772v-4.412zM155.106 129.725h2.868v.623h-2.247v1.247h2.247v.623h-2.247v1.247h2.247v.624h-2.868zM161.224 132.266l-1.53-2.541h.765l1.147 1.918 1.147-1.918h.717l-1.577 2.59v1.87h-.67z"/>
        </g>
        <g fill="#0030CC">
            <path d="M18.833 74.046h-8.509V64.36H4.541v25.13h5.783v-9.784h8.509v9.783h5.735v-25.13h-5.735v9.688zm.764.767v-9.687h4.254V88.77h-4.254v-9.783H9.56v9.783H5.258V65.126H9.56v9.687h10.037zM43.305 72.32c-1.53-1.343-3.68-2.062-6.452-2.062-2.056 0-3.824.431-5.306 1.198-1.386.768-2.581 1.775-3.537 3.07l-.43.623 5.449 2.254.239-.383c.334-.528.764-.96 1.29-1.247.574-.336 1.339-.528 2.199-.528 1.147 0 1.96.24 2.485.72.478.431.717 1.055.765 1.774h-4.063c-2.772 0-4.588.432-6.166 1.487-1.577 1.055-2.39 2.733-2.39 4.843 0 1.727.622 3.165 1.817 4.268 1.195 1.056 2.82 1.583 4.923 1.583h.096c1.338 0 2.724-.288 3.967-.911.67-.336 1.29-.72 1.864-1.247v1.774h5.497v-11.51c.095-2.397-.67-4.316-2.247-5.706zm-8.938 16.833h-.096c-1.911 0-3.393-.48-4.445-1.439-1.051-.911-1.577-2.158-1.577-3.693 0-1.87.669-3.309 2.055-4.22 1.386-.96 3.107-1.343 5.736-1.343h4.828v-.575c0-1.007-.335-1.823-1.004-2.446-.67-.624-1.673-.911-3.011-.911-1.052 0-1.912.192-2.63.623-.573.336-1.05.815-1.433 1.391l-4.015-1.679a10.59 10.59 0 0 1 3.154-2.685c1.29-.72 2.964-1.103 4.924-1.103h.19c2.486.048 4.446.671 5.784 1.87 1.386 1.247 2.103 2.974 2.103 5.18v10.742h-4.015v-3.07l-.286.432a7.016 7.016 0 0 1-2.581 2.158c-1.195.48-2.438.768-3.681.768z"/>
            <path d="M40.868 82.39v-1.198h-4.302c-1.386 0-2.39.192-3.012.623-.62.384-.956 1.055-.956 1.775 0 1.39 1.004 2.11 2.916 2.11.574 0 1.1-.096 1.673-.24a6.19 6.19 0 0 0 1.53-.671 5.42 5.42 0 0 0 1.29-1.055c.335-.384.622-.816.86-1.343zm-5.115 2.59h-.239c-2.15 0-2.15-.959-2.15-1.342 0-.48.238-.912.62-1.151.479-.336 1.339-.48 2.582-.48h3.585v.24c-.192.384-.43.72-.717 1.055a4.833 4.833 0 0 1-1.1.911c-.43.24-.86.48-1.338.576-.382.096-.813.191-1.243.191zM49.137 62.488v27.048h5.688V62.488h-5.688zm4.923.72v25.561h-4.158V63.208h4.158zM63.954 62.488h-5.688v27.048h5.688V62.488zm-.717.72v25.561H59.08V63.208h4.158zM83.456 89.872h.191c1.339 0 2.63-.24 3.824-.767a9.363 9.363 0 0 0 3.155-2.11 11.532 11.532 0 0 0 2.103-3.118c.526-1.198.765-2.493.765-3.836a9.935 9.935 0 0 0-2.868-6.954c-.908-.911-1.96-1.583-3.155-2.11a9.788 9.788 0 0 0-3.872-.767h-.143c-2.629 0-5.114 1.007-6.979 2.877-.908.911-1.577 1.918-2.103 3.117-.478 1.2-.764 2.494-.717 3.837 0 2.59 1.004 5.131 2.82 6.906a9.363 9.363 0 0 0 3.155 2.11c1.243.527 2.533.815 3.824.815zm.143-18.847c1.243 0 2.438.24 3.585.72a8.581 8.581 0 0 1 2.916 1.918c1.673 1.678 2.629 4.028 2.629 6.426a8.823 8.823 0 0 1-.717 3.5c-.478 1.056-1.1 2.063-1.912 2.878-.813.863-1.816 1.487-2.916 1.966a9.205 9.205 0 0 1-3.585.72h-.19c-1.244 0-2.39-.24-3.538-.72-1.1-.431-2.055-1.103-2.916-1.966-1.673-1.678-2.629-4.028-2.629-6.426 0-1.247.24-2.398.67-3.549.43-1.103 1.099-2.062 1.912-2.877 1.673-1.631 3.823-2.59 6.166-2.638l.525.048z"/>
            <path d="M80.014 76.396a4.553 4.553 0 0 0-1.051 1.63 5.341 5.341 0 0 0 0 4.03 4.582 4.582 0 0 0 1.051 1.582c.478.48 1.004.815 1.578 1.103a4.452 4.452 0 0 0 1.912.431h.048a4.3 4.3 0 0 0 1.911-.431 4.092 4.092 0 0 0 1.578-1.103 4.818 4.818 0 0 0 1.051-1.583 5.341 5.341 0 0 0 0-4.028c-.239-.624-.621-1.151-1.051-1.63-.478-.48-1.004-.816-1.578-1.104a4.663 4.663 0 0 0-3.919 0 8.22 8.22 0 0 0-1.53 1.103zm5.21-.384c.526.24.956.528 1.339.912.382.383.717.863.908 1.39a4.78 4.78 0 0 1 0 3.453 3.343 3.343 0 0 1-.908 1.343c-.383.384-.86.72-1.338.911-.526.24-1.052.336-1.673.336h-.048c-.574 0-1.1-.144-1.625-.336a4.413 4.413 0 0 1-1.339-.91 3.897 3.897 0 0 1-.908-1.392 4.78 4.78 0 0 1 0-3.453 3.897 3.897 0 0 1 .908-1.39c.383-.384.86-.72 1.339-.912.525-.24 1.099-.335 1.673-.335.573 0 1.147.144 1.673.383zM102.862 89.536V75.87h4.254V70.64h-4.254v-.288c0-.48 0-1.007.096-1.534 0-.24.143-.432.286-.624.24-.191.478-.287.765-.287.526-.048 1.052-.096 1.578-.096h1.53v-5.324h-2.056c-1.147 0-2.342.144-3.442.384-1.003.192-1.864.672-2.58 1.39a5.68 5.68 0 0 0-1.387 2.59c-.287 1.247-.43 2.494-.382 3.741v.048h-2.916v5.228h2.916v13.667h5.592zm-4.54-22.54c.19-.863.62-1.582 1.194-2.206.622-.623 1.386-1.007 2.247-1.199 1.1-.24 2.198-.383 3.298-.383H106.35v3.788h-.764c-.574 0-1.148.048-1.673.144-.43.048-.813.24-1.147.48a1.852 1.852 0 0 0-.526 1.055c-.048.575-.096 1.103-.096 1.678v1.056h4.254v3.74h-4.254v13.668h-4.158V75.15H95.07v-3.74h2.916v-.816c-.048-1.247.095-2.398.334-3.597zM10.707 101.813c.478-.431 1.29-.67 2.438-.67 1.242 0 2.294.239 3.059.718a7.646 7.646 0 0 1 2.103 2.015l.334.48.478-.384 3.776-2.974.478-.383-.43-.48c-.621-.671-1.243-1.295-1.96-1.87a10.4 10.4 0 0 0-2.198-1.343 11.672 11.672 0 0 0-2.581-.863 14.071 14.071 0 0 0-2.82-.288H13.049c-1.195 0-2.342.192-3.49.575a10.452 10.452 0 0 0-2.867 1.583c-.813.671-1.434 1.487-1.912 2.446a7.16 7.16 0 0 0-.67 3.021c0 1.343.24 2.446.765 3.31a6.845 6.845 0 0 0 1.96 2.11c.813.527 1.673.958 2.581 1.246.908.288 1.864.528 2.725.72l2.246.527c.574.144 1.1.336 1.625.576.383.191.67.431.956.719.192.288.287.671.287 1.007 0 .671-.287 1.295-.765 1.726-.573.48-1.434.72-2.58.72-1.339 0-2.486-.288-3.49-.863-1.052-.672-1.96-1.583-2.581-2.638l-.335-.576-.478.384-4.063 3.213-.382.48.382.431c.574.72 1.243 1.44 1.96 2.063.717.623 1.53 1.199 2.438 1.63.956.48 1.96.863 2.963 1.055 1.148.24 2.295.384 3.49.384h.287c1.242 0 2.533-.192 3.68-.624a8.763 8.763 0 0 0 2.963-1.726c.813-.72 1.434-1.583 1.912-2.59.43-1.007.67-2.062.67-3.165 0-1.39-.287-2.542-.813-3.453-.478-.863-1.195-1.63-2.007-2.206a8.933 8.933 0 0 0-2.725-1.295 34.808 34.808 0 0 0-2.82-.72l-2.151-.479c-.574-.144-1.1-.287-1.577-.527-.383-.144-.67-.384-.956-.624a1.213 1.213 0 0 1-.287-.815c0-.623.287-1.199.717-1.583zm3.346 19.088h-.287c-1.1 0-2.199-.144-3.298-.384-1.004-.192-1.912-.576-2.82-1.007-.813-.432-1.578-.911-2.295-1.535-.621-.575-1.242-1.15-1.768-1.822l3.728-3.022c.765 1.2 1.72 2.11 2.725 2.734 1.099.671 2.39 1.007 3.871 1.007 1.339 0 2.39-.288 3.06-.863a2.994 2.994 0 0 0 1.051-2.302c0-.528-.143-1.055-.43-1.487-.335-.431-.717-.72-1.195-.959-.574-.288-1.195-.48-1.816-.623l-2.295-.528a27.662 27.662 0 0 1-2.677-.72 8.365 8.365 0 0 1-2.39-1.102 5.38 5.38 0 0 1-1.72-1.87c-.43-.72-.67-1.727-.67-2.926 0-.911.192-1.87.622-2.734a7.054 7.054 0 0 1 1.72-2.206 8.448 8.448 0 0 1 2.63-1.486 9.478 9.478 0 0 1 3.25-.576h.239c.908 0 1.816.096 2.724.288.813.192 1.626.432 2.39.815a9.263 9.263 0 0 1 2.056 1.295c.621.48 1.195 1.055 1.72 1.63l-3.489 2.734c-.573-.815-1.338-1.534-2.199-2.11-.86-.575-2.055-.815-3.441-.815-1.338 0-2.342.288-2.964.863-.62.576-.908 1.343-.908 2.158 0 .48.144.96.478 1.295a3.53 3.53 0 0 0 1.195.815c.574.24 1.147.432 1.721.576l2.103.48c.908.191 1.864.43 2.772.719.909.24 1.721.671 2.486 1.199a7.124 7.124 0 0 1 1.816 1.966c.478.815.67 1.87.717 3.117 0 .96-.191 1.966-.621 2.83a7.65 7.65 0 0 1-1.72 2.35 7.816 7.816 0 0 1-2.725 1.582c-1.004.432-2.151.624-3.346.624zM38.86 112.94l-.239.527c-.287.815-.812 1.487-1.482 2.014-.621.48-1.434.72-2.246.72h-.191c-.574 0-1.1-.144-1.626-.336a4.774 4.774 0 0 1-1.386-.96 3.897 3.897 0 0 1-.908-1.39c-.239-.527-.334-1.103-.334-1.678 0-.576.095-1.151.334-1.727.43-1.055 1.243-1.918 2.294-2.35.526-.24 1.1-.335 1.673-.335h.144c.812 0 1.577.24 2.294.719.67.48 1.195 1.199 1.482 2.014l.191.576 4.684-1.919.526-.24-.239-.527a10.98 10.98 0 0 0-1.434-2.398c-.573-.72-1.29-1.343-2.055-1.918a10.685 10.685 0 0 0-2.581-1.247 10.306 10.306 0 0 0-2.964-.432H34.654a10.6 10.6 0 0 0-3.824.72c-1.147.48-2.199 1.199-3.155 2.062-.908.911-1.577 1.918-2.103 3.117a10.275 10.275 0 0 0 0 7.721c.478 1.151 1.195 2.206 2.055 3.117.909.912 1.96 1.583 3.155 2.11a9.725 9.725 0 0 0 3.824.768h.096c2.246 0 4.158-.576 5.688-1.727a10.772 10.772 0 0 0 3.489-4.268l.239-.575-4.78-1.967-.478-.191zm-4.254 7.96c-1.243 0-2.39-.24-3.537-.719-1.1-.431-2.055-1.103-2.868-1.918-.813-.815-1.482-1.775-1.912-2.878a9.711 9.711 0 0 1 0-7.145c.43-1.103 1.1-2.014 1.912-2.878.86-.815 1.816-1.486 2.868-1.918 1.1-.48 2.294-.671 3.49-.671H34.701c.908 0 1.864.144 2.772.383.86.24 1.673.624 2.39 1.103a9.32 9.32 0 0 1 1.912 1.727c.526.623.908 1.343 1.29 2.11l-3.824 1.535c-.334-.864-.908-1.583-1.72-2.159a4.604 4.604 0 0 0-2.725-.863h-.143a4.3 4.3 0 0 0-1.912.432c-1.243.527-2.151 1.534-2.677 2.781a5.59 5.59 0 0 0-.382 2.015c0 .671.143 1.342.382 1.966a4.106 4.106 0 0 0 1.1 1.582c.478.48 1.003.864 1.577 1.103a4.452 4.452 0 0 0 1.912.432h.143c.956 0 1.912-.288 2.725-.911a5.722 5.722 0 0 0 1.673-2.158l3.92 1.582c-.718 1.535-1.817 2.83-3.203 3.837-1.434 1.055-3.203 1.535-5.258 1.535l-.048.096zM49.71 94.332h-.095c-.908 0-1.769.384-2.39 1.007-.67.672-1.004 1.583-1.004 2.542 0 .911.335 1.822.956 2.494a3.397 3.397 0 0 0 2.39 1.007h.096c1.051 0 1.864-.336 2.533-1.007.621-.672 1.004-1.535.956-2.446.048-.911-.335-1.87-.956-2.542-.574-.72-1.434-1.055-2.486-1.055zm-.095.767h.095v-.047.047c.813 0 1.482.24 2.008.768.478.527.765 1.247.765 2.014 0 .72-.24 1.439-.765 1.966-.478.528-1.147.768-2.008.768h-.095c-.67 0-1.339-.288-1.864-.768a2.977 2.977 0 0 1-.765-1.966c0-.72.239-1.487.765-1.966a2.467 2.467 0 0 1 1.864-.816zM52.435 102.437h-5.593v18.895h5.784v-18.751h-.191v-.144zm-4.828 18.128v-17.409h4.302v17.409h-4.302zM87.997 102.053H87.9c-1.1 0-2.199.24-3.154.768-.478.24-.909.575-1.339.91v-1.294h-5.64v18.895h5.688v-10.359c0-1.199.287-2.158.908-2.83a2.924 2.924 0 0 1 2.199-.958h.095c1.052 0 1.769.287 2.247.91.478.624.765 1.536.765 2.639v10.598h5.783v-11.27c0-2.446-.669-4.412-2.007-5.85-1.386-1.44-3.203-2.159-5.45-2.159zm-5.306 8.872v9.64h-4.206v-17.409h4.158v2.59l.287-.432c.574-.767 1.29-1.438 2.103-1.87a6.42 6.42 0 0 1 2.82-.671h.239c1.96 0 3.585.671 4.732 1.918 1.195 1.247 1.817 3.07 1.817 5.323v10.55h-4.254v-9.83c0-1.295-.287-2.35-.956-3.118-.622-.767-1.578-1.15-2.82-1.15h-.096a3.685 3.685 0 0 0-2.724 1.198c-.717.72-1.1 1.87-1.1 3.261zM112.565 113.18l-.526-.24-.239.527c-.286.815-.812 1.487-1.481 2.014-.622.48-1.434.72-2.247.72h-.191c-.574 0-1.1-.144-1.625-.336a4.774 4.774 0 0 1-1.386-.96 3.897 3.897 0 0 1-.909-1.39c-.239-.527-.334-1.103-.334-1.678 0-.576.095-1.151.334-1.727.43-1.055 1.243-1.918 2.247-2.35a3.8 3.8 0 0 1 1.625-.335h.144c.812 0 1.577.24 2.294.719.669.48 1.195 1.199 1.482 2.014l.19.576 4.685-1.919.574-.24-.24-.527a10.98 10.98 0 0 0-1.433-2.398c-.574-.72-1.29-1.343-2.056-1.918a10.685 10.685 0 0 0-2.58-1.247 10.306 10.306 0 0 0-2.964-.432h-.191a9.92 9.92 0 0 0-3.729.72c-1.147.48-2.198 1.199-3.154 2.062-.909.911-1.578 1.918-2.104 3.117a10.275 10.275 0 0 0 0 7.721c.478 1.151 1.195 2.206 2.056 3.117.908.912 1.96 1.583 3.154 2.11a9.725 9.725 0 0 0 3.824.768h.096c2.246 0 4.158-.576 5.688-1.727a10.772 10.772 0 0 0 3.49-4.268l.238-.575-.573-.24-4.159-1.679zm-4.78 7.72c-1.242 0-2.39-.24-3.537-.719-1.1-.431-2.055-1.103-2.868-1.918-.812-.815-1.481-1.775-1.912-2.878a9.711 9.711 0 0 1 0-7.145c.43-1.103 1.1-2.014 1.912-2.878.86-.815 1.817-1.486 2.868-1.918 1.1-.48 2.295-.671 3.49-.671h.143c.908 0 1.864.144 2.772.383.86.24 1.673.624 2.39 1.103a9.32 9.32 0 0 1 1.912 1.727c.526.623.908 1.343 1.29 2.11l-3.823 1.535c-.335-.864-.908-1.583-1.721-2.159a4.604 4.604 0 0 0-2.724-.863h-.144a4.3 4.3 0 0 0-1.912.432c-1.243.527-2.15 1.534-2.677 2.733a5.59 5.59 0 0 0-.382 2.015c0 .671.144 1.342.382 1.966a4.106 4.106 0 0 0 1.1 1.582c.478.48 1.004.864 1.577 1.103a4.452 4.452 0 0 0 1.912.432h.144c.956 0 1.911-.288 2.724-.911a5.722 5.722 0 0 0 1.673-2.158l3.92 1.582c-.718 1.535-1.817 2.83-3.203 3.837-1.434 1.055-3.203 1.535-5.258 1.535l-.048.144zM131.732 107.233c-.812-.576-1.864-.912-3.059-.912h-.143a5.082 5.082 0 0 0-2.964.96 5.088 5.088 0 0 0-1.816 2.445h-.048v.144l-.048.192h9.895l-.048-.24c-.335-1.103-.956-2.014-1.769-2.59zm-6.978 2.11a3.991 3.991 0 0 1 1.243-1.439 4.315 4.315 0 0 1 2.533-.815h.143c1.052 0 1.96.24 2.63.767.525.384.955.911 1.194 1.487h-7.743z"/>
            <path d="M138.329 113.899v-2.158c0-1.343-.24-2.638-.717-3.885-.478-1.15-1.148-2.206-2.008-3.07a9.98 9.98 0 0 0-3.06-2.013 10.164 10.164 0 0 0-3.775-.72h-.67c-1.147.048-2.294.288-3.345.768-1.147.48-2.199 1.199-3.155 2.11a9.554 9.554 0 0 0-2.055 3.117c-.478 1.247-.765 2.542-.717 3.837 0 1.294.239 2.59.717 3.836.43 1.151 1.147 2.206 2.007 3.117.908.912 1.96 1.583 3.155 2.11 1.243.48 2.581.72 3.92.72h.143c2.055 0 3.824-.384 5.162-1.2a10.898 10.898 0 0 0 3.442-3.164l.43-.576-.67-.288c-.19-.047-3.68-1.534-4.062-1.678l-.383-.144-.239.336a4.576 4.576 0 0 1-1.242 1.103c-.622.383-1.434.575-2.343.575-1.147 0-2.15-.287-2.963-.863a4.466 4.466 0 0 1-1.386-1.87l13.288.048.526-.048zm-14.77-.576c.239 1.2.908 2.254 1.864 3.022.908.671 2.055 1.055 3.394 1.055 1.051 0 2.007-.24 2.724-.672.526-.288 1.004-.72 1.386-1.15.622.24 3.012 1.246 3.729 1.534a10.632 10.632 0 0 1-3.06 2.781c-1.242.72-2.867 1.103-4.78 1.103h-.143c-1.243 0-2.485-.24-3.68-.671a8.581 8.581 0 0 1-2.916-1.918 8.297 8.297 0 0 1-1.864-2.878c-.43-1.15-.67-2.35-.621-3.549 0-1.246.239-2.397.669-3.548.43-1.103 1.1-2.063 1.912-2.878a8.868 8.868 0 0 1 2.868-1.918c1.099-.48 2.294-.72 3.537-.72h.191c1.195 0 2.342.24 3.441.672a8.533 8.533 0 0 1 2.82 1.87 8.566 8.566 0 0 1 1.865 2.83c.478 1.15.669 2.35.669 3.597v1.39l-14.1-.048.095.096zM70.216 109.87a4.668 4.668 0 0 0-1.72-2.637c-.813-.576-1.865-.912-3.06-.912h-.143a5.082 5.082 0 0 0-2.964.96 5.088 5.088 0 0 0-1.816 2.445h-.048v.144l-.048.192h9.847l-.048-.192zm-8.7-.527a3.991 3.991 0 0 1 1.243-1.439 4.315 4.315 0 0 1 2.534-.815h.143c1.052 0 1.96.24 2.629.767.526.384.956.911 1.195 1.487h-7.743z"/>
            <path d="M72.367 104.787c-.86-.863-1.912-1.535-3.06-2.014a10.164 10.164 0 0 0-3.775-.72h-.526a9.933 9.933 0 0 0-3.49.768c-1.147.48-2.198 1.199-3.154 2.11a9.554 9.554 0 0 0-2.056 3.117c-.477 1.247-.764 2.542-.716 3.837 0 1.294.239 2.59.716 3.836.43 1.151 1.148 2.206 2.008 3.117.908.912 1.96 1.583 3.155 2.11 1.242.48 2.58.72 3.92.72h.143c2.055 0 3.823-.384 5.162-1.2a10.898 10.898 0 0 0 3.441-3.164l.43-.576-.669-.288c-.048 0-3.68-1.534-4.063-1.678l-.382-.144-.239.336a4.576 4.576 0 0 1-1.243 1.103c-.621.383-1.434.575-2.342.575-1.147 0-2.15-.287-2.963-.863a4.466 4.466 0 0 1-1.386-1.87l13.287.048h.574v-2.206c0-1.343-.239-2.638-.717-3.885-.478-1.15-1.195-2.158-2.055-3.07zm-7.027 16.161c-1.242 0-2.485-.24-3.68-.67-1.1-.433-2.055-1.104-2.868-1.92a8.297 8.297 0 0 1-1.864-2.877c-.43-1.15-.67-2.35-.622-3.548 0-1.247.24-2.398.67-3.55.43-1.102 1.099-2.062 1.912-2.877a8.868 8.868 0 0 1 2.868-1.918c1.099-.48 2.294-.72 3.537-.72H65.436c1.195 0 2.39.24 3.49.672a8.533 8.533 0 0 1 2.82 1.87 8.566 8.566 0 0 1 1.864 2.83c.477 1.15.669 2.35.669 3.597v1.39l-14.1-.048.047.192c.239 1.2.908 2.254 1.864 3.022.908.67 2.055 1.055 3.394 1.055 1.051 0 2.007-.24 2.724-.672.526-.288 1.004-.72 1.386-1.15.622.239 3.012 1.246 3.729 1.534a10.16 10.16 0 0 1-3.107 2.781c-1.243.72-2.868 1.103-4.78 1.103 0-.096-.048-.096-.096-.096z"/>
        </g>
        <g fill="#0030CC">
            <path d="m86.372 38.126-.096-.096c-.191-.144-.382-.288-.621-.431a8.37 8.37 0 0 0-1.53-.576 7.015 7.015 0 0 0-1.72-.192c-1.1 0-2.152.24-3.107.768-.574.335-1.052.815-1.434 1.342v-1.774h-5.115v18.368h5.162v-9.688c0-1.39.335-2.398.956-2.973.622-.576 1.482-.863 2.581-.863.43 0 .86.048 1.291.191.287.096.621.192.86.336l.048.048.191-.384a20.392 20.392 0 0 1 2.438-3.884l.096-.192zM101.667 39.517c-.86-.863-1.864-1.487-2.963-1.966a10.164 10.164 0 0 0-3.776-.72c-1.291 0-2.582.24-3.776.72a9.98 9.98 0 0 0-3.06 2.014c-.86.863-1.53 1.918-2.007 3.021a10.01 10.01 0 0 0-.717 3.74c0 1.296.239 2.543.67 3.741a8.45 8.45 0 0 0 1.959 3.022c.86.863 1.912 1.582 3.059 2.014 1.29.48 2.629.72 3.967.72 2.008 0 3.68-.384 5.019-1.152a10.954 10.954 0 0 0 3.394-3.069l.239-.288-4.637-1.918-.048.096c-.382.48-.812.911-1.338 1.247-.67.384-1.482.623-2.485.623-1.243 0-2.295-.287-3.107-.91-.717-.576-1.243-1.296-1.53-2.159h13.91V46.28c0-1.295-.24-2.59-.718-3.74-.525-1.152-1.194-2.159-2.055-3.022zm-11.09 4.556a4.632 4.632 0 0 1 1.53-1.918 4.749 4.749 0 0 1 2.773-.864c1.1 0 2.055.288 2.772.816.67.48 1.147 1.199 1.434 1.966h-8.508zM6.644 24.65h5.21V4.94h6.548V0H0v4.94h6.644zM9.942 30.885H4.684v24.65h16.3v-5.132H9.941zM62.138 48.101l-3.824-10.838-.048-.096h-4.493l-3.92 10.886-3.297-10.694-.096-.192h-5.258l5.927 18.272v.096h4.78l4.063-10.983 4.015 10.983h4.684l6.214-18.368h-5.258zM116.58 36.783c-1.1 0-2.15.24-3.154.72-.622.335-1.243.767-1.721 1.295v-1.679h-5.162v18.368h5.21V45.416c0-1.295.334-2.302 1.003-2.974a3.358 3.358 0 0 1 2.438-1.055c1.1 0 1.912.336 2.438 1.007.526.672.812 1.63.812 2.782v10.359h5.258v-11.03c0-2.398-.669-4.317-1.96-5.66-1.242-1.39-3.01-2.062-5.162-2.062zM139.523 48.053a5.227 5.227 0 0 1-1.577 2.11 4.315 4.315 0 0 1-2.533.816c-.622 0-1.195-.144-1.769-.384a4.517 4.517 0 0 1-1.481-1.007 4.533 4.533 0 0 1-1.004-1.487 4.505 4.505 0 0 1-.335-1.774c0-.624.144-1.247.335-1.823a4.52 4.52 0 0 1 2.39-2.493c.573-.24 1.147-.384 1.768-.384.908 0 1.769.24 2.486.72.717.527 1.29 1.246 1.577 2.11l.143.287 4.78-1.918-.143-.288c-.382-.863-.813-1.63-1.434-2.35a8.064 8.064 0 0 0-2.008-1.822c-.764-.528-1.625-.911-2.533-1.199a10.306 10.306 0 0 0-2.963-.432c-1.29 0-2.582.24-3.776.72a9.98 9.98 0 0 0-3.06 2.014c-.86.863-1.577 1.918-2.007 3.021a10.242 10.242 0 0 0 0 7.53c.478 1.103 1.147 2.158 2.007 3.02.86.864 1.912 1.583 3.06 2.015 1.194.48 2.533.767 3.823.72 2.2 0 4.063-.576 5.545-1.68 1.482-1.054 2.629-2.54 3.442-4.171l.143-.288-4.828-1.966-.048.383zM164.809 46.183c0-1.295-.24-2.59-.717-3.74a8.698 8.698 0 0 0-1.96-2.974c-.86-.863-1.864-1.487-2.963-1.966a10.164 10.164 0 0 0-3.776-.72c-1.291 0-2.582.24-3.777.72a9.98 9.98 0 0 0-3.059 2.014c-.86.863-1.53 1.918-2.007 3.021a10.01 10.01 0 0 0-.717 3.74c0 1.296.239 2.543.669 3.742a8.45 8.45 0 0 0 1.96 3.02c.86.864 1.912 1.583 3.059 2.015 1.29.48 2.629.72 4.015.72 2.007 0 3.68-.384 5.019-1.152a10.954 10.954 0 0 0 3.393-3.069l.24-.288-4.637-1.918-.048.096c-.382.48-.812.911-1.338 1.247-.67.384-1.53.623-2.486.623-1.242 0-2.294-.287-3.107-.91-.717-.576-1.242-1.296-1.53-2.159H165l-.191-2.062zm-13.766-2.158a4.632 4.632 0 0 1 1.53-1.918 4.749 4.749 0 0 1 2.772-.864c1.1 0 2.055.288 2.772.816.67.48 1.147 1.15 1.434 1.966h-8.508zM38.334 38.798c-1.481-1.295-3.585-1.967-6.261-1.967-2.008 0-3.776.384-5.163 1.151-1.338.72-2.533 1.775-3.441 2.974l-.239.287 4.971 2.063.048-.144a4.126 4.126 0 0 1 1.434-1.44c.621-.383 1.434-.575 2.342-.575 1.195 0 2.103.288 2.677.816.573.527.86 1.247.86 2.014h-4.35c-2.533 0-4.54.575-6.022 1.63-1.482 1.103-2.247 2.686-2.247 4.604 0 1.679.574 3.022 1.721 4.077 1.147 1.007 2.724 1.534 4.732 1.534a9.38 9.38 0 0 0 3.967-.863 7.304 7.304 0 0 0 2.199-1.63v2.158h4.971V44.265c.048-2.302-.717-4.173-2.199-5.467zm-2.772 9.16v.575a3.869 3.869 0 0 1-.813 1.15c-.334.384-.717.672-1.147.96-.43.288-.908.48-1.386.623a5.37 5.37 0 0 1-1.53.24c-1.625 0-2.437-.527-2.437-1.63 0-.576.239-1.103.717-1.391.526-.384 1.434-.528 2.724-.528h3.872zM42.397 22.252c.86.863 1.912 1.583 3.06 2.014 1.29.48 2.628.72 3.967.72 2.007 0 3.68-.384 5.018-1.151a10.954 10.954 0 0 0 3.394-3.07l.239-.287-4.636-1.918-.048.095c-.383.48-.813.912-1.339 1.247-.669.384-1.481.576-2.485.576-1.243 0-2.294-.288-3.107-.911-.717-.576-1.243-1.295-1.53-2.158h13.862v-2.015c0-1.295-.239-2.59-.717-3.74a8.698 8.698 0 0 0-1.96-2.974c-.86-.863-1.864-1.486-2.963-1.966a10.164 10.164 0 0 0-3.776-.72c-1.29 0-2.581.24-3.776.72a9.98 9.98 0 0 0-3.06 2.014c-.86.863-1.529 1.919-2.007 3.022a10.01 10.01 0 0 0-.717 3.74c0 1.295.239 2.542.67 3.74a9.526 9.526 0 0 0 1.911 3.022zm2.677-9.112a4.632 4.632 0 0 1 1.53-1.918 4.749 4.749 0 0 1 2.772-.863c1.1 0 2.055.288 2.772.815.67.48 1.147 1.151 1.434 1.966h-8.508zM25.62 14.531c0-1.295.335-2.302 1.004-2.973a3.358 3.358 0 0 1 2.437-1.055c1.1 0 1.912.335 2.438 1.007.526.671.813 1.63.813 2.781v10.36h5.305V13.62c0-1.103-.143-2.158-.525-3.213-.287-.911-.813-1.727-1.434-2.398-.622-.672-1.434-1.2-2.295-1.535-.956-.383-1.96-.575-2.963-.527a6.478 6.478 0 0 0-4.828 1.966V0h-5.114v24.65h5.114V14.531h.048z"/>
        </g>
    </g>
</svg>
