<svg id="Layer_2" data-name="Layer 2" viewBox="0 0 480 81.48">
  <g id="sand">
    <path d="m388.45,28.96c-20.32-2.44-41.33-4.95-48.93-4.95s-28.61,2.52-48.93,4.95c-21.68,2.6-42.17,5.05-50.59,5.05s-28.91-2.46-50.59-5.05c-20.32-2.44-41.33-4.95-48.93-4.95s-28.61,2.52-48.93,4.95c-21.68,2.6-42.17,5.05-50.59,5.05-7.16,0-23.04-1.77-40.96-3.9v51.36h480V30.11c-17.92,2.13-33.8,3.9-40.96,3.9-8.43,0-28.91-2.46-50.59-5.05Z" fill="#b28e54" stroke-width="0"/>
    <path d="m40.96,17.56c16.02,0,83.5-10.01,99.52-10.01s83.5,10.01,99.52,10.01,83.5-10.01,99.52-10.01,83.5,10.01,99.52,10.01c6.88,0,23.25-1.85,40.96-3.95v-7.6c-17.61,2.1-34.36,4-40.96,4-7.59,0-28.61-2.52-48.93-4.95-21.68-2.6-42.17-5.05-50.59-5.05s-28.91,2.46-50.59,5.05c-20.32,2.44-41.33,4.95-48.93,4.95s-28.61-2.52-48.93-4.95c-21.68-2.6-42.17-5.05-50.59-5.05s-28.91,2.46-50.59,5.05c-20.32,2.44-41.33,4.95-48.93,4.95-6.6,0-23.34-1.9-40.96-4v7.6c17.71,2.11,34.08,3.95,40.96,3.95Z" fill="#f6dc94" stroke-width="0"/>
    <path d="m89.89,15.06c21.68-2.6,42.17-5.05,50.59-5.05s28.91,2.46,50.59,5.05c20.32,2.44,41.33,4.95,48.93,4.95s28.61-2.52,48.93-4.95c21.68-2.6,42.17-5.05,50.59-5.05s28.91,2.46,50.59,5.05c20.32,2.44,41.33,4.95,48.93,4.95,6.6,0,23.34-1.9,40.96-4v-2.41c-17.71,2.11-34.08,3.95-40.96,3.95-16.02,0-83.5-10.01-99.52-10.01s-83.5,10.01-99.52,10.01-83.5-10.01-99.52-10.01-83.5,10.01-99.52,10.01c-6.88,0-23.25-1.85-40.96-3.95v2.41c17.61,2.1,34.36,4,40.96,4,7.59,0,28.61-2.52,48.93-4.95Z" fill="#f6dc94" stroke-width="0"/>
    <path d="m439.04,20.02c-7.59,0-28.61-2.52-48.93-4.95-21.68-2.6-42.17-5.05-50.59-5.05s-28.91,2.46-50.59,5.05c-20.32,2.44-41.33,4.95-48.93,4.95s-28.61-2.52-48.93-4.95c-21.68-2.6-42.17-5.05-50.59-5.05s-28.91,2.46-50.59,5.05c-20.32,2.44-41.33,4.95-48.93,4.95-6.6,0-23.34-1.9-40.96-4v14.1c17.92,2.13,33.79,3.9,40.96,3.9,8.43,0,28.91-2.46,50.59-5.05,20.32-2.44,41.33-4.95,48.93-4.95s28.61,2.52,48.93,4.95c21.68,2.6,42.17,5.05,50.59,5.05s28.91-2.46,50.59-5.05c20.32-2.44,41.33-4.95,48.93-4.95s28.61,2.52,48.93,4.95c21.68,2.6,42.17,5.05,50.59,5.05,7.16,0,23.04-1.77,40.96-3.9v-14.1c-17.61,2.1-34.36,4-40.96,4Z" fill="#a57f49" stroke-width="0"/>
  </g>
    <animateTransform
      href="#sand"
      attributeName="transform"
      attributeType="XML"
      type="translate"
      from="0"
      to="83.75"
      dur="2s"
      begin="indefinite"
      fill="freeze"
      repeatCount="indefinite"
  />
</svg>
