<svg width="165" height="26" viewBox="0 0 165 26" xmlns="http://www.w3.org/2000/svg">
    <g fill-rule="nonzero" fill="none">
        <path d="M0 0h165v26H0z"/>
        <path d="M11.352 20.518c0 .619.072 1.156.117 1.666h3.238c.994 0 1.8-.815 1.8-1.821V8.588c-2.115 2.404-5.38 7.221-5.155 11.93z" fill="#73C169"/>
        <path d="M0 13.423v6.94a1.81 1.81 0 0 0 1.8 1.821h2.149c0-.364-.054-.765-.081-1.193-.216-2.777-1.934-5.418-3.868-7.568z" fill="#31AACC"/>
        <path d="M7.25 16.064c.513-.077 1-.276 1.421-.582 1.233-.911 5.01-6.157 7.844-8.707V1.821A1.81 1.81 0 0 0 14.716 0H1.8C.805 0 0 .815 0 1.821v9.107c2.546 2.004 4.947 4.162 5.775 4.708.438.29.952.438 1.475.428z" fill="#126FB7"/>
        <path d="M8.671 15.482a3.236 3.236 0 0 1-1.42.628 2.594 2.594 0 0 1-1.476-.428c-.828-.592-3.23-2.75-5.775-4.754v2.495c1.934 2.15 3.652 4.79 3.868 7.568 0 .428.054.829.08 1.193h7.521a55.84 55.84 0 0 1-.117-1.666c-.225-4.709 3.058-9.526 5.163-11.93V6.766c-2.833 2.514-6.62 7.805-7.844 8.716z" fill="#FFF"/>
        <path d="M7.097 13.806c1.098-.246 1.691-1.821 1.323-3.442-.37-1.621-1.53-2.796-2.627-2.56-1.097.237-1.682 1.822-1.322 3.443.36 1.62 1.538 2.805 2.626 2.559z" fill="#FFF"/>
        <path d="M23.514 18.214v.91c0 1.157 1.394 1.822 2.941 1.822 1.745 0 2.986-.911 2.986-2.45 0-1.821-1.619-2.368-3.355-3.042-1.736-.674-3.598-1.393-3.598-3.76 0-2.369 1.907-3.498 4.093-3.498 1.907 0 3.868.729 3.868 2.122v1.439h-1.277v-1.002c0-.865-1.395-1.33-2.591-1.33-1.52 0-2.699.756-2.699 2.195 0 1.621 1.449 2.186 3.059 2.796 1.925.71 3.868 1.503 3.868 3.97 0 2.469-1.862 3.816-4.354 3.816-1.907 0-4.21-.865-4.21-2.732v-1.256h1.269zM37.294 12.03c1.224 0 3.544.501 3.544 2.104v1.056h-1.196v-.71c0-.91-1.448-1.275-2.33-1.275a3.576 3.576 0 0 0-2.697 1.121 3.67 3.67 0 0 0-.99 2.777 3.742 3.742 0 0 0 1.033 2.782 3.647 3.647 0 0 0 2.717 1.124 4.524 4.524 0 0 0 3.104-1.33l.548 1.003a5.362 5.362 0 0 1-3.724 1.502 4.834 4.834 0 0 1-3.6-1.418 4.959 4.959 0 0 1-1.446-3.627 5.006 5.006 0 0 1 1.421-3.638 4.88 4.88 0 0 1 3.58-1.47M41.972 20.873h1.619V9.489h-1.71V8.406h3.005v5.318c.012.188.012.377 0 .565v.227a4.243 4.243 0 0 1 3.841-2.486c2.366 0 3.203 1.366 3.203 3.761v5.082h1.637v1.084h-2.969v-5.82c0-1.548-.225-2.868-2.078-2.868a3.732 3.732 0 0 0-2.642 1.253 3.827 3.827 0 0 0-.956 2.79v3.56h1.62v1.085h-4.498l-.072-1.084zM59.369 21.01a3.756 3.756 0 0 0 2.687-1.182 3.852 3.852 0 0 0 1.046-2.77c0-2.083-1.668-3.771-3.724-3.771-2.057 0-3.724 1.688-3.724 3.77a3.843 3.843 0 0 0 1.036 2.767c.699.744 1.665 1.171 2.679 1.185m0-8.979a5.02 5.02 0 0 1 4.623 3.169 5.127 5.127 0 0 1-1.13 5.535 4.974 4.974 0 0 1-5.485 1.054 5.084 5.084 0 0 1-3.055-4.73c0-1.348.534-2.64 1.483-3.585a4.933 4.933 0 0 1 3.564-1.443M70.694 21.01a3.757 3.757 0 0 0 2.682-1.185 3.852 3.852 0 0 0 1.042-2.768 3.782 3.782 0 0 0-1.805-3.419 3.685 3.685 0 0 0-3.83 0 3.782 3.782 0 0 0-1.804 3.42 3.843 3.843 0 0 0 1.036 2.766c.699.744 1.665 1.171 2.679 1.185m0-8.979a5.02 5.02 0 0 1 4.636 3.156 5.127 5.127 0 0 1-1.119 5.542 4.974 4.974 0 0 1-5.487 1.062 5.084 5.084 0 0 1-3.059-4.733c0-1.347.534-2.639 1.483-3.584a4.933 4.933 0 0 1 3.564-1.443M77.827 9.49h-1.7V8.405h3.031v11.028c0 .783.225 1.439 1.08 1.439.134.013.27.013.404 0a.347.347 0 0 1 .126 0v1.12h-.224c-.171.01-.342.01-.513 0-1.278 0-2.168-.637-2.168-2.486l-.036-10.018zM87.488 18.214v.91c0 1.157 1.394 1.822 2.932 1.822 1.8 0 2.987-.911 2.987-2.45 0-1.821-1.61-2.368-3.346-3.042-1.737-.674-3.599-1.393-3.599-3.76 0-2.369 1.907-3.498 4.093-3.498 1.898 0 3.86.729 3.86 2.122v1.439h-1.27v-1.002c0-.865-1.393-1.33-2.59-1.33-1.52 0-2.698.756-2.698 2.195 0 1.621 1.448 2.186 3.067 2.796 1.925.71 3.868 1.503 3.868 3.97 0 2.469-1.871 3.816-4.363 3.816-1.898 0-4.21-.865-4.21-2.732v-1.256h1.269zM101.781 21.01c1.691 0 3.104-1.421 3.104-3.89 0-2.467-1.278-3.897-3.05-3.897-1.592 0-3.076 1.157-3.076 3.916 0 1.949 1.061 3.87 3.022 3.87m-4.3 3.725V13.806c0-.282-.134-.419-.422-.419h-1.295v-1.13h1.799c.818 0 1.142.347 1.142 1.03v.073c.01.16.01.322 0 .482v.192a3.47 3.47 0 0 1 .702-1.002 3.573 3.573 0 0 1 2.698-1.002c2.582 0 4.165 2.086 4.165 5.09 0 3.006-1.8 5.064-4.3 5.064a3.449 3.449 0 0 1-2.437-.965c-.29-.278-.533-.6-.72-.956h-.045l.045.227v4.262h1.628v1.075h-4.498v-1.093h1.539zM114.932 16.156c-.063-2.068-1.295-3.024-2.698-3.024-1.709-.016-3.142 1.3-3.292 3.024h5.99zm-2.698-4.126c2.644 0 4.02 2.058 4.02 4.472.01.127.01.255 0 .382v.237h-7.411a3.715 3.715 0 0 0 1.016 2.762 3.62 3.62 0 0 0 2.69 1.126 4.304 4.304 0 0 0 2.114-.573c.288-.162.557-.358.8-.583l.594.983a5.783 5.783 0 0 1-.954.674 5.087 5.087 0 0 1-2.59.674 4.817 4.817 0 0 1-3.59-1.432 4.941 4.941 0 0 1-1.42-3.631c0-3.178 2.131-5.09 4.722-5.09M122.56 12.03c1.215 0 3.545.501 3.545 2.104v1.056h-1.206v-.71c0-.91-1.448-1.275-2.32-1.275a3.576 3.576 0 0 0-2.704 1.118 3.67 3.67 0 0 0-.994 2.78 3.742 3.742 0 0 0 1.037 2.785 3.647 3.647 0 0 0 2.723 1.121 4.47 4.47 0 0 0 3.13-1.33l.558 1.003a5.362 5.362 0 0 1-3.733 1.502 4.834 4.834 0 0 1-3.6-1.418 4.959 4.959 0 0 1-1.446-3.627 5.015 5.015 0 0 1 1.427-3.638 4.89 4.89 0 0 1 3.583-1.47M129.082 8.406h1.466v1.612h-1.466V8.406zm-1.538 12.467h1.619v-7.531h-1.718v-1.075h2.986v8.606h1.62v1.084h-4.498l-.01-1.084zM136.278 21.11c1.925 0 3.005-1.95 3.005-3.643v-.465h-.55c-.782 0-4.497-.082-4.497 2.159a1.96 1.96 0 0 0 .61 1.428c.392.37.917.559 1.45.52m2.375-5.09h.63v-.4c0-1.822-.972-2.45-2.303-2.45a4.692 4.692 0 0 0-1.997.464 4.21 4.21 0 0 0-.783.483l-.611-.993c.277-.22.58-.406.9-.556a5.99 5.99 0 0 1 2.554-.537c2.338 0 3.517 1.239 3.517 3.643v4.78c0 .292.135.42.423.42h1.043v1.084h-1.565c-.81 0-1.133-.365-1.133-1.066v-.173a4.278 4.278 0 0 1 0-.555.756.756 0 0 0 0-.192 3.646 3.646 0 0 1-.73 1.093 3.31 3.31 0 0 1-2.545 1.12c-1.583 0-3.202-.91-3.202-2.887 0-3.141 4.156-3.278 5.766-3.278M143.7 9.49H142V8.405h2.995v11.028c0 .783.224 1.439 1.079 1.439.135.014.27.014.405 0a.391.391 0 0 1 .135 0v1.12h-.234c-.17.01-.342.01-.513 0-1.277 0-2.168-.637-2.168-2.486V9.489zM148.665 13.342h-1.718v-1.084h1.736V9.58h1.277v2.678h2.41v1.084h-2.41v4.972c0 2.25 1.421 2.586 2.168 2.586.107.02.217.02.324 0a.355.355 0 0 1 .117 0v1.139a.418.418 0 0 0-.153 0c-.135.013-.27.013-.405 0-1.098 0-3.346-.365-3.346-3.643v-5.054zM153.819 24.388c.104.099.226.176.36.228.275.154.585.232.9.227a2.148 2.148 0 0 0 1.798-1.539l.531-1.293-3.427-8.67h-1.242v-1.083h4.012v1.084h-1.394l2.519 6.611c.055.156.091.318.108.483l.045.21h.054a.682.682 0 0 1 0-.21c.054-.137.09-.31.144-.483l2.51-6.611h-1.341v-1.084h3.958v1.084h-1.25l-4.075 10.409A3.172 3.172 0 0 1 155.096 26a3.09 3.09 0 0 1-1.313-.291 4.034 4.034 0 0 1-.495-.283l.53-1.038zM163.588 20.6a.223.223 0 0 0 .181-.07.23.23 0 0 0 .062-.185.23.23 0 0 0-.065-.18.223.223 0 0 0-.178-.066h-.234v.5h.234zm-.522-.71h.576a.438.438 0 0 1 .338.12c.091.086.141.208.138.335a.391.391 0 0 1-.278.4c.02.026.039.053.054.082l.287.565h-.314l-.28-.592h-.233v.592h-.288v-1.503zm.486 1.948c.481.026.93-.247 1.132-.69a1.204 1.204 0 0 0-.213-1.321 1.168 1.168 0 0 0-1.291-.289c-.449.18-.743.619-.744 1.107-.014.312.096.616.306.844.21.228.502.36.81.367m0-2.659c.8 0 1.448.657 1.448 1.466 0 .81-.648 1.467-1.448 1.467-.8 0-1.448-.657-1.448-1.467s.648-1.466 1.448-1.466" fill="#126FB7"/>
    </g>
</svg>
