<?xml version="1.0" encoding="UTF-8"?>
<svg id="Layer_2" data-name="Layer 2" xmlns="http://www.w3.org/2000/svg" viewBox="0 0 1313.11 63.28">
  <g id="Layer_1-2" data-name="Layer 1">
    <g>
      <g>
        <path d="m597.13,37.99C651.6,53.38,694.02-1.99,747.48.06c15.69.59,32.29,6.28,41.99,19.17-19.29-16.94-47.7-15.66-70.54-7.38-23.91,8.45-46,23.16-70.78,29.43-16.7,4.22-35.43,4.95-51.02-3.28h0Z" fill="#b0be34" stroke-width="0"/>
        <path d="m1058.9,45.15c54.47,15.39,96.89-39.98,150.35-37.93,15.69.59,32.29,6.28,41.99,19.17-19.29-16.94-47.7-15.66-70.54-7.38-23.91,8.45-46,23.16-70.78,29.43-16.7,4.22-35.43,4.95-51.02-3.28h0Z" fill="#b0be34" stroke-width="0"/>
        <path d="m789.47,53.76c54.47,15.39,96.89-39.98,150.35-37.93,15.69.59,32.29,6.28,41.99,19.17-19.29-16.94-47.7-15.66-70.54-7.38-23.91,8.45-46,23.16-70.78,29.43-16.7,4.22-35.43,4.95-51.02-3.28h0Z" fill="#b0be34" stroke-width="0"/>
        <path d="m686.28,44.78c22.91-14.9,51.12-22.49,78.7-21.84,16.59.33,33.14,3.66,49.07,7.74,31.61,8.12,62.26,19.05,95,17.49,10.77-.49,21.48-2.6,31.6-6.36-19.37,11-42.59,12.81-64.4,10.56-27.33-2.68-53.25-11.92-79.91-17.7-36.91-8.95-75.2-5.84-110.07,10.12h0Z" fill="#b0be34" stroke-width="0"/>
        <path d="m750.51,45.86c45.02,5.65,88.26-12.31,132.17-18.79,38.24-5.82,60.04-.09,95.86,11.05,18.14,5.34,36.89,9.81,55.9,7.99,6.28-.63,12.53-2,18.55-4.21-2.84,1.47-5.79,2.81-8.85,3.86-3.01,1.07-6.28,1.9-9.38,2.55-19.22,3.79-39.08.48-57.84-4.15-12.4-2.97-24.65-6.52-37.12-8.83-12.31-2.36-24.72-3.05-37.25-2.28-50.53,2.68-101.27,25.7-152.05,12.82h0Z" fill="#b0be34" stroke-width="0"/>
        <path d="m885.63,47.1c15.99,9.51,34.59,12.21,52.76,10.97,50.53-3.57,97.08-37.58,149.24-30.44,17.12,2.37,32.96,9.94,48.88,16.05,11.39,4.42,23.18,8.01,35.59,8.28,0,0-4.63.38-4.63.38-10.93.49-21.79-1.92-32.22-4.93-25.13-7.78-43.85-15.96-70.79-12.78-36.9,3.72-70.36,21.77-107.07,27.18-24.46,3.68-51.84,1.15-71.77-14.69h0Z" fill="#b0be34" stroke-width="0"/>
        <path d="m1058.9,45.86c26.93,5.62,54.34,5.14,80.59-1.81,15.87-4.29,30.58-11.01,46.4-16.19,13.82-4.63,29.19-7.93,44.1-6.09,19.16,2.34,34.78,14.36,51.72,22.25,9.8,4.56,20.46,7.72,31.4,6.42-8.07,2.3-16.76,1.71-24.83-.35-24.01-6.08-43.03-23.21-68.85-21.24-21.68,1.23-41.63,10.89-62.11,17.46-31.54,10.77-67.31,11.25-98.42-.44h0Z" fill="#b0be34" stroke-width="0"/>
      </g>
      <g>
        <path d="m0,37.99C54.47,53.38,96.89-1.99,150.35.06c15.69.59,32.29,6.28,41.99,19.17-19.29-16.94-47.7-15.66-70.54-7.38-23.91,8.45-46,23.16-70.78,29.43-16.7,4.22-35.43,4.95-51.02-3.28h0Z" fill="#b0be34" stroke-width="0"/>
        <path d="m461.77,45.15c54.47,15.39,96.89-39.98,150.35-37.93,15.69.59,32.29,6.28,41.99,19.17-19.29-16.94-47.7-15.66-70.54-7.38-23.91,8.45-46,23.16-70.78,29.43-16.7,4.22-35.43,4.95-51.02-3.28h0Z" fill="#b0be34" stroke-width="0"/>
        <path d="m192.33,53.76c54.47,15.39,96.89-39.98,150.35-37.93,15.69.59,32.29,6.28,41.99,19.17-19.29-16.94-47.7-15.66-70.54-7.38-23.91,8.45-46,23.16-70.78,29.43-16.7,4.22-35.43,4.95-51.02-3.28h0Z" fill="#b0be34" stroke-width="0"/>
        <path d="m89.15,44.78c22.91-14.9,51.12-22.49,78.7-21.84,16.59.33,33.14,3.66,49.07,7.74,31.62,8.12,62.26,19.05,95,17.49,10.77-.49,21.48-2.6,31.6-6.36-19.37,11-42.59,12.81-64.4,10.56-27.33-2.68-53.25-11.92-79.91-17.7-36.91-8.95-75.2-5.84-110.07,10.12h0Z" fill="#b0be34" stroke-width="0"/>
        <path d="m153.38,45.86c45.02,5.65,88.26-12.31,132.17-18.79,38.24-5.82,60.04-.09,95.86,11.05,18.14,5.34,36.89,9.81,55.9,7.99,6.28-.63,12.53-2,18.55-4.21-2.84,1.47-5.79,2.81-8.85,3.86-3.01,1.07-6.28,1.9-9.38,2.55-19.22,3.79-39.08.48-57.84-4.15-12.4-2.97-24.65-6.52-37.12-8.83-12.31-2.36-24.72-3.05-37.25-2.28-50.53,2.68-101.27,25.7-152.05,12.82h0Z" fill="#b0be34" stroke-width="0"/>
        <path d="m288.5,47.1c15.99,9.51,34.59,12.21,52.76,10.97,50.53-3.57,97.08-37.58,149.24-30.44,17.12,2.37,32.96,9.94,48.88,16.05,11.39,4.42,23.18,8.01,35.59,8.28l-4.63.38c-10.93.49-21.79-1.92-32.22-4.93-25.13-7.78-43.85-15.96-70.79-12.78-36.9,3.72-70.36,21.77-107.07,27.18-24.46,3.68-51.84,1.15-71.77-14.69h0Z" fill="#b0be34" stroke-width="0"/>
        <path d="m461.77,45.86c26.93,5.62,54.34,5.14,80.59-1.81,15.87-4.29,30.58-11.01,46.4-16.19,13.82-4.63,29.19-7.93,44.1-6.09,19.16,2.34,34.78,14.36,51.72,22.25,9.8,4.56,20.46,7.72,31.4,6.42-8.07,2.3-16.76,1.71-24.83-.35-24.01-6.08-43.03-23.21-68.85-21.24-21.68,1.23-41.63,10.89-62.11,17.46-31.54,10.77-67.31,11.25-98.42-.44h0Z" fill="#b0be34" stroke-width="0"/>
      </g>
    </g>
  </g>
</svg>