<?xml version="1.0" encoding="UTF-8"?>
<svg id="Layer_2" data-name="Layer 2" xmlns="http://www.w3.org/2000/svg" xmlns:xlink="http://www.w3.org/1999/xlink" viewBox="0 0 83.4 158.13">
  <defs>
    <clipPath id="clippath">
      <path d="m37.74,29.15c-1.86-7.37.27-15.63,5.47-21.18-1.88-.62-3.76-1.25-5.63-1.87-1.59-.53-3.19-1.06-4.78-1.59-1.05,1.15-3.07,1.2-4.17.11-1.1,5.48-2.21,10.95-3.31,16.43-.67,3.3-1.33,6.68-.87,10.01.46,3.34,2.27,6.68,5.34,8.07" fill="#f2bb9d" stroke="#644f28" stroke-miterlimit="10" stroke-width="3"/>
    </clipPath>
    <linearGradient id="linear-gradient" x1="1592.27" y1="518.88" x2="1631.39" y2="470.89" gradientTransform="translate(-599.05 -1477.83) rotate(50.77)" gradientUnits="userSpaceOnUse">
      <stop offset="0" stop-color="#d5a764"/>
      <stop offset=".29" stop-color="#e3c089"/>
      <stop offset=".58" stop-color="#f0d6aa"/>
      <stop offset=".83" stop-color="#f8e4bd"/>
      <stop offset="1" stop-color="#fbe9c5"/>
    </linearGradient>
    <clipPath id="clippath-1">
      <path d="m40.86,24.25c4.76-2.76,20.8,22.15,23.58,26.66,2.78,4.51,10.71,25.86,10.49,41.65-.23,15.79-2.97,25.72-5.75,32.29-2.78,6.57-12.79,15.64-18.84,17.65-.89,1.4-3.06.69-5.42-.55-2.37-1.24-13.09-3.56-15.07-4.88s-12.1-10.93-15.08-17.09c-2.99-6.15-13.3-40.94-12.73-44.12,0,0,13.91-40.31,17.44-43.19,3.53-2.88,8.83-1.1,10.61-.3,2.96-2.19,6.02-5.37,10.78-8.13Z" fill="url(#linear-gradient)" stroke="#644f28" stroke-miterlimit="10" stroke-width="4"/>
    </clipPath>
  </defs>
  <g id="Layer_1-2" data-name="Layer 1">
    <g>
      <g>
        <g>
          <path d="m37.74,29.15c-1.86-7.37.27-15.63,5.47-21.18-1.88-.62-3.76-1.25-5.63-1.87-1.59-.53-3.19-1.06-4.78-1.59-1.05,1.15-3.07,1.2-4.17.11-1.1,5.48-2.21,10.95-3.31,16.43-.67,3.3-1.33,6.68-.87,10.01.46,3.34,2.27,6.68,5.34,8.07" fill="#f2bb9d"/>
          <g clip-path="url(#clippath)">
            <path d="m39.14,9.89c-.11-.52-.88-.6-1.33-.31s-.74.78-1.18,1.08c-.9.62-2.12.29-3.15-.07-.8-.27-1.61-.55-2.41-.82-1.02-.35-2.13-.78-2.61-1.74-.28.31-.57.61-.85.92-1.08-1.67-2.16-3.34-3.24-5-.38-.58-.77-1.23-.68-1.91.16-1.21,1.63-1.7,2.84-1.84,5.27-.64,10.73.34,15.45,2.78,1.23.63,2.55,1.61,2.53,2.99-.03,1.43-1.38,2.18-2.46,2.81-.33.2-2.86,1.35-2.91,1.12Z" fill="#fffff2" stroke-width="0"/>
            <g>
              <path d="m30.51,9.6c-1.68,5.44-2.54,11.13-2.57,16.91-.01,2.25.11,4.55,1.06,6.76,1.22,2.83,3.81,5.36,7.01,6.85" fill="#f2bb9d" stroke-width="0"/>
              <path d="m30.51,9.6c-1.44,5.48-2.26,11.12-2.27,16.78-.44,6.02,2.38,11.01,7.78,13.74-5.81-2.38-8.73-7.56-8.37-13.74.07-5.69.95-11.41,2.86-16.78h0Z" fill="#644f28" stroke-width="0"/>
            </g>
            <g>
              <path d="m32.38,9.5c-1.62,5.26-2.39,10.79-2.3,16.42.04,2.19.22,4.44,1.25,6.61,1.32,2.78,4.06,5.31,7.41,6.82" fill="#f2bb9d" stroke-width="0"/>
              <path d="m32.38,9.5c-1.65,6.73-2.7,13.86-1.57,20.74.94,4.12,4.24,7.23,7.93,9.12-3.87-1.57-7.47-4.77-8.45-8.99-1.26-6.94-.11-14.24,2.09-20.87h0Z" fill="#644f28" stroke-width="0"/>
            </g>
            <g>
              <path d="m33.73,9.23c-1.61,5.26-2.28,10.82-1.99,16.52.11,2.21.39,4.49,1.6,6.72,1.56,2.86,4.67,5.5,8.42,7.14" fill="#f2bb9d" stroke-width="0"/>
              <path d="m33.73,9.23c-1.65,6.94-2.66,14.46-.87,21.44,1.45,4.12,5.08,7.02,8.91,8.94-4.02-1.59-7.94-4.53-9.45-8.75-.5-1.41-.73-2.89-.84-4.35-.36-5.83.3-11.77,2.26-17.28h0Z" fill="#644f28" stroke-width="0"/>
            </g>
            <g>
              <path d="m37.74,10.63c-1.15,5.39-1.32,10.98-.53,16.63.31,2.19.78,4.44,2.18,6.56,1.8,2.71,5.14,5.07,9.02,6.38" fill="#f2bb9d" stroke-width="0"/>
              <path d="m37.74,10.63c-1.03,7.06-1.38,14.64,1.01,21.44,1.81,3.98,5.68,6.54,9.66,8.13-4.14-1.23-8.31-3.82-10.18-7.89-.62-1.36-.99-2.81-1.22-4.26-.87-5.78-.74-11.75.73-17.41h0Z" fill="#644f28" stroke-width="0"/>
            </g>
          </g>
          <path d="m37.74,29.15c-1.86-7.37.27-15.63,5.47-21.18-1.88-.62-3.76-1.25-5.63-1.87-1.59-.53-3.19-1.06-4.78-1.59-1.05,1.15-3.07,1.2-4.17.11-1.1,5.48-2.21,10.95-3.31,16.43-.67,3.3-1.33,6.68-.87,10.01.46,3.34,2.27,6.68,5.34,8.07" fill="none" stroke="#644f28" stroke-miterlimit="10" stroke-width="3"/>
        </g>
        <path d="m38.43,9.15c-1.09,1.04-2.02,2.12-3.43,2.78.11-1.37,2.01-3.2,3.43-2.78h0Z" fill="#644f28" stroke-width="0"/>
        <path d="m33.65,11.87l.55-2.19c-.27.32-.57.66-.98.76s-.93-.19-.89-.61c.01-.13.07-.28-.02-.37-.1-.11-.28-.02-.41.05-.34.17-.75.15-1.08-.03s-.55-.54-.57-.91c-.43.62-.44,1.49-.04,2.12" fill="none" stroke="#644f28" stroke-miterlimit="10" stroke-width="1.02"/>
      </g>
      <g>
        <g>
          <path d="m40.86,24.25c4.76-2.76,20.8,22.15,23.58,26.66,2.78,4.51,10.71,25.86,10.49,41.65-.23,15.79-2.97,25.72-5.75,32.29-2.78,6.57-12.79,15.64-18.84,17.65-.89,1.4-3.06.69-5.42-.55-2.37-1.24-13.09-3.56-15.07-4.88s-12.1-10.93-15.08-17.09c-2.99-6.15-13.3-40.94-12.73-44.12,0,0,13.91-40.31,17.44-43.19,3.53-2.88,8.83-1.1,10.61-.3,2.96-2.19,6.02-5.37,10.78-8.13Z" fill="url(#linear-gradient)"/>
          <g clip-path="url(#clippath-1)">
            <path d="m67.59,51.66c-3.9-.67-7.86-1.34-11.8-.99-3.94.35-7.94,1.83-10.53,4.83-2.18,2.53-3.16,5.86-3.9,9.12-6.08,26.9,1.25,56.49,19.18,77.44,2.33,2.72,4.9,5.36,8.14,6.88,3.24,1.52,7.29,1.74,10.27-.25" fill="none" stroke="#e7c591" stroke-miterlimit="10" stroke-width="16"/>
          </g>
          <path d="m40.86,24.25c4.76-2.76,20.8,22.15,23.58,26.66,2.78,4.51,10.71,25.86,10.49,41.65-.23,15.79-2.97,25.72-5.75,32.29-2.78,6.57-12.79,15.64-18.84,17.65-.89,1.4-3.06.69-5.42-.55-2.37-1.24-13.09-3.56-15.07-4.88s-12.1-10.93-15.08-17.09c-2.99-6.15-13.3-40.94-12.73-44.12,0,0,13.91-40.31,17.44-43.19,3.53-2.88,8.83-1.1,10.61-.3,2.96-2.19,6.02-5.37,10.78-8.13Z" fill="none" stroke="#644f28" stroke-miterlimit="10" stroke-width="4"/>
        </g>
        <path d="m30.48,33.83c-4.48,4.16-12.54,19.12-13.45,31.76s-.68,39.6,9.45,53.45c10.13,13.85,16.24,14.56,18.01,17.13,1.77,2.58,5.25,5.6,5.25,5.6l-3.76.73s-5.6-6.65-9.53-9.82-16.93-16.39-19.12-23.99c-2.18-7.6-5.39-35.01-2.97-47.03s7.37-25.04,11.04-27.88c4.39-3.39,5.07.05,5.07.05Z" fill="#644f28" stroke-width="0"/>
        <g>
          <path d="m70.03,67.95c-2.2-4.21-7.71-9.45-10.13-8.09s-3.83,7.48-4.4,10.84c-.57,3.36-4.48,20.64-1.53,25.27,2.95,4.63,12.86,18.29,17.64,17.29" fill="none" stroke="#644f28" stroke-miterlimit="10"/>
          <path d="m69.57,122.19c-2.9.51-8.44.06-9.4-.61s-16.48-21.96-16.62-25.17,1.64-18.53,3.7-23.12,5.79-14.47,8.03-16.29c2.24-1.83,11.45-.44,11.45-.44" fill="none" stroke="#644f28" stroke-miterlimit="10"/>
          <path d="m61.83,47.51c-2.16-.1-6.33.61-7.25,1.78-.92,1.16-7.53,11.33-7.5,14.41s-6.78,18.59-6.64,20.54c.14,1.95-1.09,10.84,4.86,21.93,5.95,11.09,11.01,20.84,22.1,19.45" fill="none" stroke="#644f28" stroke-miterlimit="10"/>
          <path d="m60.08,135.94c-3.18-2.37-10.68-10.54-13.58-12.32-2.9-1.78-13.55-9.24-16.47-13.07-2.92-3.83-5.49-22.45-3.63-35.15,1.85-12.7,7.18-33.83,12.03-37.78,4.85-3.96,11.69-6.23,14.43-2.88" fill="none" stroke="#644f28" stroke-miterlimit="10"/>
          <path d="m39.8,25.11c-4.53,3.08-10.55,9.65-13.52,20.98-2.97,11.33-3.27,28.98-3.77,31.66-.5,2.69-1.1,19.96-.16,21.88.95,1.92,12.45,20.07,21.04,26.53,8.58,6.45,11.8,11.91,14.55,11.73" fill="none" stroke="#644f28" stroke-miterlimit="10"/>
        </g>
      </g>
    </g>
  </g>
</svg>