<?xml version="1.0" encoding="UTF-8"?>
<svg id="Layer_1" data-name="Layer 1" xmlns="http://www.w3.org/2000/svg" xmlns:xlink="http://www.w3.org/1999/xlink" viewBox="0 0 86 160">
  <defs>
    <clipPath id="clippath">
      <path d="m40.6,35.28c5.41-8.74,7.04-18.08,4.38-28.01-.42-.42.79-1.04,1.26-1.26s.91-.61,1.44-.57c.85.06,1.36,1.24,2.21,1.15,1.03-.11,1-1.77,1.88-2.31.43-.26,5.29-.69,5.15-.21-.59,1.97-.72,4.46-.15,6.82.64,2.68.97,5.42,1.01,8.17.08,5.5-1.03,11.03-3.25,16.06-.98,2.21-2.17,4.33-3.57,6.31" fill="#f2bb9d" stroke="#644f28" stroke-linejoin="round" stroke-width="3"/>
    </clipPath>
    <linearGradient id="linear-gradient" x1="-240.8" y1="-2999.73" x2="-240.46" y2="-3058.54" gradientTransform="translate(3078.77 109.61) rotate(-85.04)" gradientUnits="userSpaceOnUse">
      <stop offset="0" stop-color="#d5a764"/>
      <stop offset=".04" stop-color="#d8ad6d"/>
      <stop offset=".21" stop-color="#e5c28d"/>
      <stop offset=".39" stop-color="#eed3a5"/>
      <stop offset=".57" stop-color="#f5dfb7"/>
      <stop offset=".77" stop-color="#f9e6c1"/>
      <stop offset="1" stop-color="#fbe9c5"/>
    </linearGradient>
    <clipPath id="clippath-1">
      <path d="m39.39,19.63c1.11-1.38,11.82,14.33,13.1,16.66s5.77,13.07,7.74,15.95c1.97,2.88,6.37,8.93,7.15,14.18.78,5.24,2.22,31.25.65,43.68-1.57,12.43-8.53,38.69-12.61,40.31-4.08,1.62-7.93,6.21-11.34,5.67-3.4-.54-30.31-28.51-31.72-32.08-1.42-3.57-4.82-35.42-3.16-43.16,1.66-7.74,5.87-30.78,30.2-61.21Z" fill="url(#linear-gradient)" stroke="#644f28" stroke-miterlimit="10" stroke-width="4"/>
    </clipPath>
  </defs>
  <g>
    <path d="m40.6,35.28c5.41-8.74,7.04-18.08,4.38-28.01-.42-.42.79-1.04,1.26-1.26s.91-.61,1.44-.57c.85.06,1.36,1.24,2.21,1.15,1.03-.11,1-1.77,1.88-2.31.43-.26,5.29-.69,5.15-.21-.59,1.97-.72,4.46-.15,6.82.64,2.68.97,5.42,1.01,8.17.08,5.5-1.03,11.03-3.25,16.06-.98,2.21-2.17,4.33-3.57,6.31" fill="#f2bb9d"/>
    <g clip-path="url(#clippath)">
      <path d="m43.07,8.76l3.21,2.2c.39.27.82.55,1.3.56s.99-.41.89-.87c.53.85,1.73.91,2.73.88.17,0,.35-.01.52-.02.59-.02,1.19-.04,1.76-.21.71-.2,1.33-.62,1.94-1.03.52-.35,1.03-.69,1.55-1.04.75-.5,1.51-1.01,2.1-1.7s.98-1.59.87-2.49c-.12-.96-.8-1.76-1.57-2.36-1.04-.81-2.3-1.35-3.61-1.47-.7-.07-1.4-.02-2.1.03-1.36.1-2.72.19-4.08.29-2.5.18-5.03.36-7.4,1.17-1.11.38-2.27.99-2.68,2.09-.3.79-.13,1.75.44,2.38s1.5.91,2.32.69" fill="#fffff2" stroke-width="0"/>
      <g>
        <path d="m53.76,9.9c.79,3.79,1.59,7.64,1.29,11.5-.19,2.48-.84,4.91-1.67,7.26-1.47,4.16-3.53,8.1-6.11,11.68" fill="#f2bb9d" stroke-width="0"/>
        <path d="m53.76,9.9c1.4,5.19,2.33,10.76.78,16.04-1.47,5.21-3.93,10.15-7.27,14.4,4.21-6.7,7.96-14.36,7.55-22.46-.14-2.67-.63-5.32-1.06-7.98h0Z" fill="#644f28" stroke-width="0"/>
      </g>
      <g>
        <path d="m52.13,11.17c.52,3.84,1.04,7.73.47,11.56-.37,2.46-1.18,4.84-2.18,7.13-1.76,4.04-4.1,7.83-6.92,11.21" fill="#f2bb9d" stroke-width="0"/>
        <path d="m52.13,11.17c1.03,5.28,1.56,10.9-.36,16.06-1.83,5.09-4.63,9.85-8.27,13.85,4.67-6.38,8.96-13.76,9.12-21.86.05-2.67-.25-5.36-.49-8.04h0Z" fill="#644f28" stroke-width="0"/>
      </g>
      <g>
        <path d="m51.05,11.02c.52,3.84,1.04,7.73.47,11.56-.37,2.46-1.18,4.84-2.18,7.13-1.76,4.04-4.1,7.83-6.92,11.21" fill="#f2bb9d" stroke-width="0"/>
        <path d="m51.05,11.02c1.03,5.28,1.56,10.9-.36,16.06-1.83,5.09-4.63,9.85-8.27,13.85,4.67-6.38,8.96-13.76,9.12-21.86.05-2.67-.25-5.36-.49-8.04h0Z" fill="#644f28" stroke-width="0"/>
      </g>
      <g>
        <path d="m47.18,8.71c.52,3.84,1.04,7.73.47,11.56-.37,2.46-1.18,4.84-2.18,7.13-1.76,4.04-4.1,7.83-6.92,11.21" fill="#f2bb9d" stroke-width="0"/>
        <path d="m47.18,8.71c1.03,5.28,1.56,10.9-.36,16.06-1.83,5.09-4.63,9.85-8.27,13.85,4.67-6.38,8.96-13.76,9.12-21.86.05-2.67-.25-5.36-.49-8.04h0Z" fill="#644f28" stroke-width="0"/>
      </g>
      <path d="m50.28,11.29c.19.11.45.06.63-.08s.3-.33.41-.52c.32-.54.64-1.08.96-1.62.08,1.07.16,2.14.24,3.21.16-.48.34-.96.51-1.44.05-.15.12-.31.27-.36.14-.05.3.03.42.12s.23.2.38.23.33-.07.32-.22" fill="none" stroke="#644f28" stroke-miterlimit="10" stroke-width="1.02"/>
    </g>
    <path d="m40.6,35.28c5.41-8.74,7.04-18.08,4.38-28.01-.42-.42.79-1.04,1.26-1.26s.91-.61,1.44-.57c.85.06,1.36,1.24,2.21,1.15,1.03-.11,1-1.77,1.88-2.31.43-.26,5.29-.69,5.15-.21-.59,1.97-.72,4.46-.15,6.82.64,2.68.97,5.42,1.01,8.17.08,5.5-1.03,11.03-3.25,16.06-.98,2.21-2.17,4.33-3.57,6.31" fill="none" stroke="#644f28" stroke-linejoin="round" stroke-width="3"/>
  </g>
  <g>
    <g>
      <path d="m39.39,19.63c1.11-1.38,11.82,14.33,13.1,16.66s5.77,13.07,7.74,15.95c1.97,2.88,6.37,8.93,7.15,14.18.78,5.24,2.22,31.25.65,43.68-1.57,12.43-8.53,38.69-12.61,40.31-4.08,1.62-7.93,6.21-11.34,5.67-3.4-.54-30.31-28.51-31.72-32.08-1.42-3.57-4.82-35.42-3.16-43.16,1.66-7.74,5.87-30.78,30.2-61.21Z" fill="url(#linear-gradient)"/>
      <g clip-path="url(#clippath-1)">
        <path d="m8.49,138.83c10.24-7.54,15.96-20.25,16.72-32.95.76-12.7-3.04-25.35-8.94-36.61-2.88-5.49-6.34-10.81-11.11-14.77-4.77-3.97-11.01-6.47-17.17-5.73" fill="none" stroke="#e7c591" stroke-miterlimit="10" stroke-width="11"/>
        <path d="m23.84,156.14c.86-6.28,2.74-12.18,4.68-18.08,1.98-5.67,3.76-11.31,6.24-16.75,2.46-5.4,5.5-10.83,6.45-16.79,2.13-12.08-3.22-23.77-6.19-35.25-5.54-17.24-11.35-33.56-18.89-50.19,0,0,.84-.72.84-.72,5.43,3.49,9.99,8.15,13.91,13.27,9.93,12.84,14.39,28.82,15.35,44.82.28,9.48-1.23,19.03-1.49,28.42-.31,6.31.04,12.92-1.22,19.19-1.23,6.27-4.06,12.05-7.19,17.54-3.23,5.48-6.89,10.55-11.49,15.03,0,0-.98-.5-.98-.5h0Z" fill="#e7c591" stroke-width="0"/>
      </g>
      <path d="m39.39,19.63c1.11-1.38,11.82,14.33,13.1,16.66s5.77,13.07,7.74,15.95c1.97,2.88,6.37,8.93,7.15,14.18.78,5.24,2.22,31.25.65,43.68-1.57,12.43-8.53,38.69-12.61,40.31-4.08,1.62-7.93,6.21-11.34,5.67-3.4-.54-30.31-28.51-31.72-32.08-1.42-3.57-4.82-35.42-3.16-43.16,1.66-7.74,5.87-30.78,30.2-61.21Z" fill="none" stroke="#644f28" stroke-miterlimit="10" stroke-width="4"/>
    </g>
    <path d="m62.26,67.82c-.14,1.63-.4,3.42-.8,5.43-.77,3.83-1.68,12.77-2.74,23.12-3.26,31.94-6.13,56.63-10.86,59.78l-1.11-1.66c4.32-2.88,7.86-37.58,9.98-58.32,1.06-10.41,1.98-19.4,2.77-23.32,1.82-9.04.52-13.46-.99-18.58-.56-1.91-1.15-3.89-1.63-6.25l1.96-.4c.46,2.28,1.04,4.21,1.59,6.08,1.25,4.24,2.36,8.02,1.84,14.12Z" fill="#644f28" stroke-width="0"/>
    <path d="m15.13,126.49s7.59-14.5,6.99-19.56c-.59-5.05-4.87-37.21-8.13-40.29" fill="none" stroke="#644f28" stroke-miterlimit="10"/>
    <path d="m20.49,133.56c.62-1.88,9.9-31.62,8.77-35.7-1.12-4.07-10.83-40.12-11.93-40.56" fill="none" stroke="#644f28" stroke-miterlimit="10"/>
    <path d="m38.95,151.18c1.76-.64,9.67-30.28,9.46-33.14s-1.05-23.26-2.32-29.62-8.48-42.3-14.07-47.33c-5.58-5.03-6.26-2.47-6.26-2.47" fill="none" stroke="#644f28" stroke-miterlimit="10"/>
    <path d="m35.67,25.28c2.03.18,7.78,8.51,8.85,11.9,1.07,3.39,11.98,39.99,10.87,48.87-1.11,8.88-7.28,68.25-11.79,69.16" fill="none" stroke="#644f28" stroke-miterlimit="10"/>
    <path d="m38.54,20.93c.95.88,9.69,12.65,12.39,22.09,2.7,9.43,5.49,36.2,4.46,42.81" fill="none" stroke="#644f28" stroke-miterlimit="10"/>
  </g>
</svg>