<?xml version="1.0" encoding="UTF-8"?>
<svg id="Layer_1" data-name="Layer 1" xmlns="http://www.w3.org/2000/svg" xmlns:xlink="http://www.w3.org/1999/xlink" viewBox="0 0 86 160">
  <defs>
    <clipPath id="clippath">
      <path d="m58.34,40.77c2.38-2.61,3.36-6.23,3.6-9.75s-.19-7.06-.26-10.59.26-7.18,1.88-10.32c-1.85,1.11-4.39.91-6.04-.48.18,1.09-1.1,1.87-2.2,1.92s-2.25-.28-3.29.08c-1.01.35-1.69,1.27-2.45,2.02s-1.84,1.41-2.84,1.06c2.33,1.2,3.41,3.93,3.84,6.51.99,5.95-.56,12.27-4.17,17.1" fill="#f2bb9d" stroke="#644f28" stroke-linejoin="round" stroke-width="3"/>
    </clipPath>
    <linearGradient id="linear-gradient" x1="-779.79" y1="-1463.2" x2="-810.69" y2="-1518.98" gradientTransform="translate(1723.64 250.85) rotate(-56.45)" gradientUnits="userSpaceOnUse">
      <stop offset="0" stop-color="#d5a764"/>
      <stop offset=".04" stop-color="#d8ad6d"/>
      <stop offset=".21" stop-color="#e5c28d"/>
      <stop offset=".39" stop-color="#eed3a5"/>
      <stop offset=".57" stop-color="#f5dfb7"/>
      <stop offset=".77" stop-color="#f9e6c1"/>
      <stop offset="1" stop-color="#fbe9c5"/>
    </linearGradient>
    <clipPath id="clippath-1">
      <path d="m36.94,148.12c-4.77-1.48-29.16-33.45-30.4-38.35s4.72-31.95,6.93-36.26c.53-1.04,7.58-13.82,15.86-24.56,9.17-11.89,19.64-18.3,20.62-18.2,0,0,7.97,6.35,9.91,9.55,2.44,1.62,16.13,13.22,18.16,27.46,2.03,14.24,1.31,29.33-3.83,40.86s-20.09,36.22-21.47,36.4c0,0-1.19.61-2.43.81-.83,1.36-6.18,4.5-13.37,2.28Z" fill="url(#linear-gradient)" stroke="#644f28" stroke-miterlimit="10" stroke-width="4"/>
    </clipPath>
  </defs>
  <g>
    <g>
      <path d="m58.34,40.77c2.38-2.61,3.36-6.23,3.6-9.75s-.19-7.06-.26-10.59.26-7.18,1.88-10.32c-1.85,1.11-4.39.91-6.04-.48.18,1.09-1.1,1.87-2.2,1.92s-2.25-.28-3.29.08c-1.01.35-1.69,1.27-2.45,2.02s-1.84,1.41-2.84,1.06c2.33,1.2,3.41,3.93,3.84,6.51.99,5.95-.56,12.27-4.17,17.1" fill="#f2bb9d"/>
      <g clip-path="url(#clippath)">
        <path d="m59.42,16.26c-.57.19-1.18.16-1.78.13-1.09-.06-2.18-.11-3.26-.17.03.65-.47,1.22-1.07,1.48s-1.26.26-1.91.26c-2.38,0-5.08-.14-6.6-1.97-1.3-1.56-1.23-3.96-.21-5.73,1.01-1.76,2.79-2.97,4.65-3.78,4.41-1.92,9.64-1.88,14.02.11.85.38,1.68.85,2.29,1.55,1.5,1.73.63,3.79-1.26,4.61-.83.36-1.51.58-2.21,1.2-.87.79-1.47,1.9-2.64,2.29Z" fill="#fffff2" stroke-width="0"/>
        <g>
          <path d="m58.59,14.87c.72,5.46.87,10.99.45,16.44-.16,2.12-.42,4.26-1.23,6.15-1.04,2.42-2.98,4.28-5.26,5.03" fill="#f2bb9d" stroke-width="0"/>
          <path d="m58.59,14.87c.84,4.99,1.06,10.07.78,15.12-.14,4.93-1.42,10.93-6.82,12.51,5.13-1.9,6.24-7.67,6.34-12.54.33-5.03.17-10.07-.3-15.09h0Z" fill="#644f28" stroke-width="0"/>
        </g>
        <g>
          <path d="m57.15,15.24c.51,5.48.44,11.02-.19,16.45-.25,2.11-.59,4.25-1.47,6.1-1.13,2.38-3.15,4.16-5.45,4.83" fill="#f2bb9d" stroke-width="0"/>
          <path d="m57.15,15.24c.65,5.02.67,10.11.19,15.14-.31,4.89-1.87,10.9-7.3,12.24,5.2-1.7,6.53-7.42,6.82-12.28.52-5.01.56-10.06.29-15.09h0Z" fill="#644f28" stroke-width="0"/>
        </g>
        <g>
          <path d="m51.33,17.55c.51,5.48.44,11.02-.19,16.45-.25,2.11-.59,4.25-1.47,6.1-1.13,2.38-3.15,4.16-5.45,4.83" fill="#f2bb9d" stroke-width="0"/>
          <path d="m51.33,17.55c.65,5.02.67,10.11.19,15.14-.31,4.89-1.87,10.9-7.3,12.24,5.2-1.7,6.53-7.42,6.82-12.28.52-5.01.56-10.06.29-15.09h0Z" fill="#644f28" stroke-width="0"/>
        </g>
        <g>
          <path d="m53.57,17.89c-.27,5.36-1.09,10.7-2.45,15.85-.53,2-1.15,4.02-2.26,5.69-1.42,2.14-3.61,3.59-5.92,3.91" fill="#f2bb9d" stroke-width="0"/>
          <path d="m53.57,17.89c-.06,4.93-.74,9.85-1.9,14.64-.97,4.68-3.3,10.27-8.73,10.81,5.26-.92,7.32-6.27,8.27-10.92,1.19-4.77,1.92-9.63,2.35-14.53h0Z" fill="#644f28" stroke-width="0"/>
        </g>
        <g>
          <path d="m52.12,18.61c-.27,5.36-1.09,10.7-2.45,15.85-.53,2-1.15,4.02-2.26,5.69-1.42,2.14-3.61,3.59-5.92,3.91" fill="#f2bb9d" stroke-width="0"/>
          <path d="m52.12,18.61c-.07,4.93-.74,9.85-1.9,14.64-.97,4.68-3.3,10.27-8.73,10.81,5.26-.92,7.32-6.27,8.27-10.92,1.19-4.77,1.92-9.63,2.35-14.53h0Z" fill="#644f28" stroke-width="0"/>
        </g>
      </g>
      <path d="m58.34,40.77c2.38-2.61,3.36-6.23,3.6-9.75s-.19-7.06-.26-10.59.26-7.18,1.88-10.32c-1.85,1.11-4.39.91-6.04-.48.18,1.09-1.1,1.87-2.2,1.92s-2.25-.28-3.29.08c-1.01.35-1.69,1.27-2.45,2.02s-1.84,1.41-2.84,1.06c2.33,1.2,3.41,3.93,3.84,6.51.99,5.95-.56,12.27-4.17,17.1" fill="none" stroke="#644f28" stroke-linejoin="round" stroke-width="3"/>
    </g>
    <path d="m55.43,17.36l-.21-1.62c-.34.87-.67,1.74-1.01,2.61-.34-.33-.68-.66-1.02-.99-.04.45-.08.9-.12,1.35-.26.04-.5-.12-.7-.29s-.4-.36-.65-.41-.57.15-.52.41" fill="none" stroke="#644f28" stroke-miterlimit="10" stroke-width="1.02"/>
  </g>
  <g>
    <g>
      <path d="m36.94,148.12c-4.77-1.48-29.16-33.45-30.4-38.35s4.72-31.95,6.93-36.26c.53-1.04,7.58-13.82,15.86-24.56,9.17-11.89,19.64-18.3,20.62-18.2,0,0,7.97,6.35,9.91,9.55,2.44,1.62,16.13,13.22,18.16,27.46,2.03,14.24,1.31,29.33-3.83,40.86s-20.09,36.22-21.47,36.4c0,0-1.19.61-2.43.81-.83,1.36-6.18,4.5-13.37,2.28Z" fill="url(#linear-gradient)"/>
      <g clip-path="url(#clippath-1)">
        <path d="m5.51,149.25c.68-7.87,3.88-14.83,8.06-21.28,7.29-12.36,26.14-11.57,16.52-30.03-1.55-3.33-2.56-6.99-3.41-10.54-1.21-4.74-2.45-9.48-2.79-14.34-.4-4.63.09-8.43-.94-12.51-1.11-2.65-3.66-4.91-6.85-4.49,0,0-1.06-1.2-1.06-1.2,2.99-6.43,12.66-5.58,17.34-1.38,8.93,7.86,9.37,21.21,9.31,32.04.23,7.86-1.13,15.77-3.66,23.26-1.78,5.04-5.11,9.29-6.47,14.46-.8,2.43-1.5,4.95-2.56,7.19-3.32,6.66-8.98,11.79-15.03,16.04-2.16,1.41-4.43,2.74-7.16,3.73l-1.28-.96h0Z" fill="#e7c591" stroke-width="0"/>
        <path d="m24.05,156.92c.93-11.13,5.45-20.92,11.44-29.97,3.73-6.08,9.56-10.13,15.62-13.83,3.1-2.01,5.97-3.87,7.67-6.22,3.81-5.32,1.25-11.7-1.8-17.01-2.6-4.43-5.32-9.18-7.1-14.06,0,0-1.74-4.86-1.74-4.86-1.72-4.86-3.53-9.68-4.74-14.69-1.67-6.5-2.02-14.97-3.79-19.68-.56-1.82-1.97-4.05-3.78-5.9-2.05-1.99-4.15-3.76-7.39-3.69,0,0-1.45-1.82-1.45-1.82.49-1.02,1.21-2,2.09-2.76,6.89-5.39,16.93-3.47,23.69,1.34,13.32,9.91,15.74,27.28,16.85,42.51,0,0,.44,5.15.44,5.15.41,5.39-.08,10.44-.59,15.97-.78,7.63-.97,15.81-4.08,23.02,0,0-2.25,5.36-2.25,5.36-2.1,5.01-3.2,10.48-5.49,15.28-1.46,3.18-3.45,5.96-5.72,8.52-4.61,5.27-9.76,9.91-15.76,13.72-3.1,1.92-6.35,3.73-10.26,5.03l-1.84-1.42h0Z" fill="#e7c591" stroke-width="0"/>
      </g>
      <path d="m36.94,148.12c-4.77-1.48-29.16-33.45-30.4-38.35s4.72-31.95,6.93-36.26c.53-1.04,7.58-13.82,15.86-24.56,9.17-11.89,19.64-18.3,20.62-18.2,0,0,7.97,6.35,9.91,9.55,2.44,1.62,16.13,13.22,18.16,27.46,2.03,14.24,1.31,29.33-3.83,40.86s-20.09,36.22-21.47,36.4c0,0-1.19.61-2.43.81-.83,1.36-6.18,4.5-13.37,2.28Z" fill="none" stroke="#644f28" stroke-miterlimit="10" stroke-width="4"/>
    </g>
    <path d="m58.8,41.5s9.88,30.96,10.03,38.15.22,26.84-4.79,36.78c-5.02,9.94-14.48,29.28-16.14,30.43-1.66,1.15,3.43-2.27,3.43-2.27,0,0,14.17-24.35,15.92-30.62s5.49-30.24,4.09-37.14-8.22-34.25-8.22-34.25" fill="#644f28" stroke-width="0"/>
    <g>
      <path d="m12.09,79.89c3.46-5.22,8.14-10.95,9.88-9.57s4.97,5.5,4.98,10.81,2.29,19.86.37,24.76-3.13,14.05-9.25,19.27" fill="none" stroke="#644f28" stroke-miterlimit="10"/>
      <path d="m22.79,132.04c2.44-3.02,17.71-24.04,17.19-29.25s-10.04-34.49-13.47-36.98c-3.43-2.49-6.54-2.79-8.48.12" fill="none" stroke="#644f28" stroke-miterlimit="10"/>
      <path d="m32.99,46.04c2.09-1.49,7.86-1.86,10.47,2.53,2.61,4.38,11.19,26.42,12.69,33.82s3.27,24.04.38,31.4c-2.89,7.36-13.33,20.1-17.3,22.76-3.98,2.66-6.16,8.29-4.32,10.17" fill="none" stroke="#644f28" stroke-miterlimit="10"/>
    </g>
  </g>
</svg>