<?xml version="1.0" encoding="UTF-8"?>
<svg id="Layer_1" data-name="Layer 1" xmlns="http://www.w3.org/2000/svg" xmlns:xlink="http://www.w3.org/1999/xlink" viewBox="0 0 86 160">
  <defs>
    <clipPath id="clippath">
      <path d="m51.69,33.23c3.99-6.47,4.44-14.99,1.15-21.84,1.98-.03,3.96-.06,5.93-.09,1.68-.03,3.36-.05,5.04-.08.65,1.41,2.56,2.07,3.94,1.36-.59,5.56-1.19,11.11-1.78,16.67-.36,3.35-.74,6.77-2.18,9.81-1.44,3.04-4.17,5.69-7.52,6.09" fill="#f2bb9d" stroke="#644f28" stroke-linejoin="round" stroke-width="3"/>
    </clipPath>
    <linearGradient id="linear-gradient" x1="-91.95" y1="-3030.97" x2="-95.51" y2="-3094.25" gradientTransform="translate(3101.31 154.37) rotate(-86.99)" gradientUnits="userSpaceOnUse">
      <stop offset="0" stop-color="#d5a764"/>
      <stop offset=".04" stop-color="#d8ad6d"/>
      <stop offset=".21" stop-color="#e5c28d"/>
      <stop offset=".39" stop-color="#eed3a5"/>
      <stop offset=".57" stop-color="#f5dfb7"/>
      <stop offset=".77" stop-color="#f9e6c1"/>
      <stop offset="1" stop-color="#fbe9c5"/>
    </linearGradient>
    <clipPath id="clippath-1">
      <path d="m49.85,29.51c2.92-1.27,7.9,8.27,9.51,9.31s6.45,4.15,7.95,7.32c1.5,3.17,8.88,34.99,9.44,42.4s.7,36.46-3.23,43.4c-3.94,6.94-12.38,13.63-18.07,13.1s-8.29-5.44-10.62-6.27c-2.34-.84-25.13-11.08-33.61-31.05C2.74,87.75,20.66,50.35,49.85,29.51Z" fill="url(#linear-gradient)" stroke="#644f28" stroke-miterlimit="10" stroke-width="4"/>
    </clipPath>
  </defs>
  <g>
    <g>
      <path d="m51.69,33.23c3.99-6.47,4.44-14.99,1.15-21.84,1.98-.03,3.96-.06,5.93-.09,1.68-.03,3.36-.05,5.04-.08.65,1.41,2.56,2.07,3.94,1.36-.59,5.56-1.19,11.11-1.78,16.67-.36,3.35-.74,6.77-2.18,9.81-1.44,3.04-4.17,5.69-7.52,6.09" fill="#f2bb9d"/>
      <g clip-path="url(#clippath)">
        <path d="m56.15,14.44c.26-.47,1.02-.31,1.36.1s.47.97.8,1.39c.67.86,1.93.91,3.02.88.85-.02,1.7-.04,2.55-.06,1.07-.03,2.27-.1,3.01-.87.18.38.36.75.53,1.13,1.53-1.27,3.07-2.53,4.6-3.8.53-.44,1.1-.94,1.22-1.62.21-1.2-1.04-2.11-2.15-2.61-4.84-2.2-10.34-2.9-15.57-2-1.36.23-2.92.77-3.31,2.1-.4,1.37.66,2.49,1.5,3.42.26.29,2.32,2.15,2.44,1.94Z" fill="#fffff2" stroke-width="0"/>
        <g>
          <path d="m64.47,16.76c-.04,5.69-.93,11.38-2.64,16.9-.67,2.15-1.48,4.31-3.05,6.13-2.01,2.33-5.25,3.97-8.75,4.42" fill="#f2bb9d" stroke-width="0"/>
          <path d="m64.47,16.76c.21,5.69-.67,11.41-2.32,16.86-1.51,6-5.87,10.07-12.11,10.59,5.97-.98,10.15-4.89,11.55-10.76,1.7-5.4,2.61-11.03,2.88-16.69h0Z" fill="#644f28" stroke-width="0"/>
        </g>
        <g>
          <path d="m62.71,16.1c-.04,5.51-.96,11.01-2.75,16.35-.69,2.08-1.54,4.17-3.18,5.93-2.1,2.26-5.47,3.84-9.12,4.28" fill="#f2bb9d" stroke-width="0"/>
          <path d="m62.71,16.1c.11,6.99-1,14.29-4.28,20.53-2.21,3.73-6.6,5.7-10.77,6.03,4.09-.69,8.16-2.66,10.3-6.31,3.15-6.22,4.3-13.34,4.74-20.25h0Z" fill="#644f28" stroke-width="0"/>
        </g>
        <g>
          <path d="m61.51,15.44c-.04,5.51-1.08,11.01-3.07,16.35-.77,2.08-1.72,4.17-3.55,5.93-2.34,2.26-6.11,3.84-10.18,4.28" fill="#f2bb9d" stroke-width="0"/>
          <path d="m61.51,15.44c.21,5.85-.95,11.71-3.04,17.16-.55,1.36-1.21,2.71-2.11,3.9-2.71,3.57-7.33,5.2-11.64,5.51,4.23-.69,8.56-2.35,11.18-5.85,3.79-6.1,5.1-13.62,5.62-20.71h0Z" fill="#644f28" stroke-width="0"/>
        </g>
        <g>
          <path d="m57.26,15.57c-.53,5.48-2.04,10.87-4.5,16.02-.95,2-2.08,4-4.06,5.59-2.53,2.04-6.42,3.29-10.52,3.37" fill="#f2bb9d" stroke-width="0"/>
          <path d="m57.26,15.57c-.3,5.84-1.97,11.58-4.54,16.83-.66,1.31-1.45,2.59-2.45,3.7-3.01,3.32-7.76,4.53-12.08,4.46,4.27-.31,8.73-1.59,11.65-4.84,4.32-5.75,6.28-13.12,7.42-20.14h0Z" fill="#644f28" stroke-width="0"/>
        </g>
      </g>
      <path d="m51.69,33.23c3.99-6.47,4.44-14.99,1.15-21.84,1.98-.03,3.96-.06,5.93-.09,1.68-.03,3.36-.05,5.04-.08.65,1.41,2.56,2.07,3.94,1.36-.59,5.56-1.19,11.11-1.78,16.67-.36,3.35-.74,6.77-2.18,9.81-1.44,3.04-4.17,5.69-7.52,6.09" fill="none" stroke="#644f28" stroke-linejoin="round" stroke-width="3"/>
    </g>
    <path d="m57.05,13.95c1.48.03,2.74,2.34,2.43,3.68-1.15-1.05-1.7-2.36-2.43-3.68h0Z" fill="#644f28" stroke-width="0"/>
    <path d="m60.8,17.98l.14-2.25c.16.39.35.8.71,1.02s.94.09,1.03-.32c.03-.13.02-.29.13-.35.13-.07.27.07.38.17.27.26.67.37,1.04.29s.68-.35.82-.7c.22.72-.03,1.55-.6,2.03" fill="none" stroke="#644f28" stroke-miterlimit="10" stroke-width="1.02"/>
  </g>
  <g>
    <g>
      <path d="m49.85,29.51c2.92-1.27,7.9,8.27,9.51,9.31s6.45,4.15,7.95,7.32c1.5,3.17,8.88,34.99,9.44,42.4s.7,36.46-3.23,43.4c-3.94,6.94-12.38,13.63-18.07,13.1s-8.29-5.44-10.62-6.27c-2.34-.84-25.13-11.08-33.61-31.05C2.74,87.75,20.66,50.35,49.85,29.51Z" fill="url(#linear-gradient)"/>
      <g clip-path="url(#clippath-1)">
        <path d="m.17,158.23c6.04-2.12,8.22-7.26,10.9-12.38,1.4-3,4.18-9.48,5.55-12.34,1.91-4.21,4.68-8.21,6.82-12.35,4.91-8.54,4.98-19.03,1.31-28.04-2.32-5.86-5-11.32-7.69-16.92-2.82-5.35-6.25-10.22-9.47-15.21-5.87-9.18-12.56-17.84-19.74-26.08-1.08-1.31-2.25-2.54-3.36-3.97l.73-1.43c5.35.48,10.62,2.13,15.43,4.48,17.92,8.64,28.94,25.14,32.39,44.5,1.26,7.06.37,14.27-.31,21.34-.77,7.81-.98,15.36-.68,23.28.08,1.61-.02,3.79-.09,5.41-.22,6.35-2.39,12.47-5.79,17.8-3.53,5.67-7.88,10.94-14.34,13.75-3.64,1.62-8.56,2.08-11.94-.26,0,0,.28-1.58.28-1.58h0Z" fill="#e7c591" stroke-width="0"/>
        <path d="m40.95,146.69c5.47-5.53,11.01-11.13,14.93-17.84,3.92-6.72,6.12-14.78,4.37-22.36-.9-3.89-2.79-7.47-4.66-11-5.39-10.19-10.78-20.37-16.17-30.56-6.88-13-13.76-25.99-20.63-38.99" fill="none" stroke="#e7c591" stroke-miterlimit="10" stroke-width="16"/>
      </g>
      <path d="m49.85,29.51c2.92-1.27,7.9,8.27,9.51,9.31s6.45,4.15,7.95,7.32c1.5,3.17,8.88,34.99,9.44,42.4s.7,36.46-3.23,43.4c-3.94,6.94-12.38,13.63-18.07,13.1s-8.29-5.44-10.62-6.27c-2.34-.84-25.13-11.08-33.61-31.05C2.74,87.75,20.66,50.35,49.85,29.51Z" fill="none" stroke="#644f28" stroke-miterlimit="10" stroke-width="4"/>
    </g>
    <path d="m73.1,111.02c-.46,8.85-1.6,18.24-3.63,28.08l-1.96-.4c12.66-61.63-10.02-99.54-10.24-99.92l1.98-1.41c6.44,10.73,15.74,37.64,13.85,73.66Z" fill="#644f28" stroke-width="0"/>
    <g>
      <path d="m27.14,127.52c1.51-2.53,3.63-9.02,4.33-11.87.7-2.85,2.79-16.48,1.3-19.58-1.49-3.1-9.67-14.8-13.42-16.65s-6.85-.5-7.31.44" fill="none" stroke="#644f28" stroke-miterlimit="10"/>
      <path d="m15.53,71.11c1.26-.35,3.22-1.2,6.19,2.52,2.96,3.73,22.26,28.79,22.27,33.88s-5.3,25.01-6.35,26.74" fill="none" stroke="#644f28" stroke-miterlimit="10"/>
      <path d="m45.64,138.93c1.17-1.31,10.55-12.5,10.85-18.26s-4.3-46.4-8.4-57.2c-4.11-10.8-5.11-17.86-13.09-20.34" fill="none" stroke="#644f28" stroke-miterlimit="10"/>
      <path d="m36.85,39.39c1.89.65,9.36,10.11,13.09,20.2,3.73,10.09,15.04,43.39,13.88,52.4s-5.7,22.24-7.15,23.67c-1.45,1.44-8.02,6.18-8.02,6.18" fill="none" stroke="#644f28" stroke-miterlimit="10"/>
      <path d="m61.62,143.35c.82-2.57,7.92-27.76,7.75-32.44-.17-4.68-4.16-30.59-5.12-33.25s-8.12-23.38-10.27-26.79c-2.16-3.41-9.18-13.67-11.16-15.15" fill="none" stroke="#644f28" stroke-miterlimit="10"/>
    </g>
  </g>
</svg>