<?xml version="1.0" encoding="UTF-8"?>
<svg id="Layer_1" data-name="Layer 1" xmlns="http://www.w3.org/2000/svg" xmlns:xlink="http://www.w3.org/1999/xlink" viewBox="0 0 86 160">
  <defs>
    <clipPath id="clippath">
      <path d="m56.75,35.89c-5.41-8.74-7.04-18.08-4.38-28.01.42-.42-.79-1.04-1.26-1.26s-.91-.61-1.44-.57c-.85.06-1.36,1.24-2.21,1.15-1.03-.11-1-1.77-1.88-2.31-.43-.26-5.29-.69-5.15-.21.59,1.97.72,4.46.15,6.82-.64,2.68-.97,5.42-1.01,8.17-.08,5.5,1.03,11.03,3.25,16.06.98,2.21,2.17,4.33,3.57,6.31" fill="#f2bb9d" stroke="#644f28" stroke-linejoin="round" stroke-width="3"/>
    </clipPath>
    <linearGradient id="linear-gradient" x1="3668.85" y1="-833.23" x2="3687.03" y2="-904.72" gradientTransform="translate(739.58 -3614.86) rotate(113.73)" gradientUnits="userSpaceOnUse">
      <stop offset="0" stop-color="#d5a764"/>
      <stop offset=".04" stop-color="#d8ad6d"/>
      <stop offset=".21" stop-color="#e5c28d"/>
      <stop offset=".39" stop-color="#eed3a5"/>
      <stop offset=".57" stop-color="#f5dfb7"/>
      <stop offset=".77" stop-color="#f9e6c1"/>
      <stop offset="1" stop-color="#fbe9c5"/>
    </linearGradient>
    <clipPath id="clippath-1">
      <path d="m55.87,24.11c1.87,1.96,15.14,32.39,15.85,35.44s.24,44.52-2.36,54.07c-2.61,9.56-7.11,22.38-13.54,28.21s-24.28,14.83-27.61,13.6-10.89-3.19-12.83-6.55-7.63-18.39-7.18-26.16c.46-7.77,2.5-45.59,28.35-81.59,8.02-11.51,17.45-18.97,19.32-17.01Z" fill="url(#linear-gradient)" stroke="#644f28" stroke-miterlimit="10" stroke-width="4"/>
    </clipPath>
  </defs>
  <g>
    <path d="m56.75,35.89c-5.41-8.74-7.04-18.08-4.38-28.01.42-.42-.79-1.04-1.26-1.26s-.91-.61-1.44-.57c-.85.06-1.36,1.24-2.21,1.15-1.03-.11-1-1.77-1.88-2.31-.43-.26-5.29-.69-5.15-.21.59,1.97.72,4.46.15,6.82-.64,2.68-.97,5.42-1.01,8.17-.08,5.5,1.03,11.03,3.25,16.06.98,2.21,2.17,4.33,3.57,6.31" fill="#f2bb9d"/>
    <g clip-path="url(#clippath)">
      <path d="m54.28,9.37c-1.07.73-2.14,1.47-3.21,2.2-.39.27-.82.55-1.3.56s-.99-.41-.89-.87c-.53.85-1.73.91-2.73.88-.17,0-.35-.01-.52-.02-.59-.02-1.19-.04-1.76-.21-.71-.2-1.33-.62-1.94-1.03-.52-.35-1.03-.69-1.55-1.04-.75-.5-1.51-1.01-2.1-1.7s-.98-1.59-.87-2.49c.12-.96.8-1.76,1.57-2.36,1.04-.81,2.3-1.35,3.61-1.47.7-.07,1.4-.02,2.1.03,1.36.1,2.72.19,4.08.29,2.5.18,5.03.36,7.4,1.17,1.11.38,2.27.99,2.68,2.09.3.79.13,1.75-.44,2.38-.57.63-1.5.91-2.32.69" fill="#fffff2" stroke-width="0"/>
      <g>
        <path d="m43.59,10.5c-.79,3.79-1.59,7.64-1.29,11.5.19,2.48.84,4.91,1.67,7.26,1.47,4.16,3.53,8.1,6.11,11.68" fill="#f2bb9d" stroke-width="0"/>
        <path d="m43.59,10.5c-.43,2.66-.92,5.31-1.06,7.98-.41,8.09,3.34,15.76,7.55,22.46-3.35-4.25-5.8-9.19-7.27-14.4-1.55-5.28-.62-10.85.78-16.04h0Z" fill="#644f28" stroke-width="0"/>
      </g>
      <g>
        <path d="m45.22,11.78c-.52,3.84-1.04,7.73-.47,11.56.37,2.46,1.18,4.84,2.18,7.13,1.76,4.04,4.1,7.83,6.92,11.21" fill="#f2bb9d" stroke-width="0"/>
        <path d="m45.22,11.78c-.24,2.68-.54,5.36-.49,8.04.16,8.1,4.45,15.48,9.12,21.86-3.64-4-6.44-8.75-8.27-13.85-1.92-5.16-1.38-10.78-.36-16.06h0Z" fill="#644f28" stroke-width="0"/>
      </g>
      <g>
        <path d="m46.3,11.62c-.52,3.84-1.04,7.73-.47,11.56.37,2.46,1.18,4.84,2.18,7.13,1.76,4.04,4.1,7.83,6.92,11.21" fill="#f2bb9d" stroke-width="0"/>
        <path d="m46.3,11.62c-.24,2.68-.54,5.36-.49,8.04.16,8.1,4.45,15.48,9.12,21.86-3.64-4-6.44-8.75-8.27-13.85-1.92-5.16-1.38-10.78-.36-16.06h0Z" fill="#644f28" stroke-width="0"/>
      </g>
      <g>
        <path d="m50.17,9.32c-.52,3.84-1.04,7.73-.47,11.56.37,2.46,1.18,4.84,2.18,7.13,1.76,4.04,4.1,7.83,6.92,11.21" fill="#f2bb9d" stroke-width="0"/>
        <path d="m50.17,9.32c-.24,2.68-.54,5.36-.49,8.04.16,8.1,4.45,15.48,9.12,21.86-3.64-4-6.44-8.75-8.27-13.85-1.92-5.16-1.38-10.78-.36-16.06h0Z" fill="#644f28" stroke-width="0"/>
      </g>
      <path d="m47.07,11.9c-.19.11-.45.06-.63-.08s-.3-.33-.41-.52c-.32-.54-.64-1.08-.96-1.62-.08,1.07-.16,2.14-.24,3.21-.16-.48-.34-.96-.51-1.44-.05-.15-.12-.31-.27-.36-.14-.05-.3.03-.42.12s-.23.2-.38.23-.33-.07-.32-.22" fill="none" stroke="#644f28" stroke-miterlimit="10" stroke-width="1.02"/>
    </g>
    <path d="m56.75,35.89c-5.41-8.74-7.04-18.08-4.38-28.01.42-.42-.79-1.04-1.26-1.26s-.91-.61-1.44-.57c-.85.06-1.36,1.24-2.21,1.15-1.03-.11-1-1.77-1.88-2.31-.43-.26-5.29-.69-5.15-.21.59,1.97.72,4.46.15,6.82-.64,2.68-.97,5.42-1.01,8.17-.08,5.5,1.03,11.03,3.25,16.06.98,2.21,2.17,4.33,3.57,6.31" fill="none" stroke="#644f28" stroke-linejoin="round" stroke-width="3"/>
  </g>
  <g>
    <g>
      <path d="m55.87,24.11c1.87,1.96,15.14,32.39,15.85,35.44s.24,44.52-2.36,54.07c-2.61,9.56-7.11,22.38-13.54,28.21s-24.28,14.83-27.61,13.6-10.89-3.19-12.83-6.55-7.63-18.39-7.18-26.16c.46-7.77,2.5-45.59,28.35-81.59,8.02-11.51,17.45-18.97,19.32-17.01Z" fill="url(#linear-gradient)"/>
      <g clip-path="url(#clippath-1)">
        <path d="m80.66,95.92c-10.84-2.2-21.79,12.73-29.25,19.23-10.77,9.49-17.27,17.93-18.24,32.88-.41,6.36-.22,12.6.18,18.91.56,6.2,1.87,12.22,3.25,18.22,2.8,12.54,7.52,24.01,13.37,35.77,0,0-.81.74-.81.74-5.86-3.7-10.77-8.8-14.81-14.52-11.8-16.49-14.71-38.96-7.99-58.04,2.69-7.2,6.02-14.12,9.04-21.17,6.19-15.01,9.75-23.86,24.59-32.73,6.05-3.54,15.7-6.05,21.23-.22,0,0-.56.95-.56.95h0Z" fill="#e7c591" stroke-width="0"/>
        <path d="m79.32,79.74c-6.29-4.83-15.4-4.68-22.57-1.28-7.16,3.4-12.65,9.55-17.17,16.06-15.48,22.29-21.59,50.89-16.56,77.56" fill="none" stroke="#e7c591" stroke-miterlimit="10" stroke-width="11"/>
      </g>
      <path d="m55.87,24.11c1.87,1.96,15.14,32.39,15.85,35.44s.24,44.52-2.36,54.07c-2.61,9.56-7.11,22.38-13.54,28.21s-24.28,14.83-27.61,13.6-10.89-3.19-12.83-6.55-7.63-18.39-7.18-26.16c.46-7.77,2.5-45.59,28.35-81.59,8.02-11.51,17.45-18.97,19.32-17.01Z" fill="none" stroke="#644f28" stroke-miterlimit="10" stroke-width="4"/>
    </g>
    <path d="m28.11,65.54c5.78-13.15,13.42-26.52,22.88-40.02l2.27.34C0,101.91,21.16,151.13,21.39,151.59l-1.79.9c-.07-.13-6.7-13.66-4.4-39.1,1.41-15.53,5.73-31.52,12.9-47.85Z" fill="#644f28" stroke-width="0"/>
    <g>
      <path d="m69.66,109.62c-2.51-1.53-5.98-4.75-8.05-4.39-2.07.36-24.18,28.43-25.25,34.75-1.08,6.32-.55,9.95.29,12.86" fill="none" stroke="#644f28" stroke-miterlimit="10"/>
      <path d="m28.2,155.42c-.06-2.07-.79-11.52.25-13.39s25.31-40.67,29.12-41.12,10.15,1.06,12.64,2.16" fill="none" stroke="#644f28" stroke-miterlimit="10"/>
      <path d="m71.62,82.46c-1.51-2.36-7.51-7.55-10.09-6.98s-16.29,6.64-23.96,18.76c-7.67,12.13-18.84,36.09-17.48,54.73" fill="none" stroke="#644f28" stroke-miterlimit="10"/>
      <path d="m71.11,77.35c-.29-2.25-2.02-7.47-3.6-7.74s-10.94,2.19-14.88,5.35-13.72,9.47-19.93,19.26c-6.22,9.79-14.65,30.92-15.63,39.41" fill="none" stroke="#644f28" stroke-miterlimit="10"/>
      <path d="m17.13,110.31c3.36-7.65,11.55-26.76,16.6-31.97,5.05-5.21,19.71-20.21,28.6-23.52,8.89-3.31,9.6,12.93,9.6,12.93" fill="none" stroke="#644f28" stroke-miterlimit="10"/>
      <path d="m66.01,46.45c-1.17-2.64-3.94-4.07-8.97-1.82-5.02,2.25-12.12,8.26-17.12,16.25-5,7.99-15.08,24.15-17.48,30.1-2.4,5.95-4.73,11.72-4.73,11.72" fill="none" stroke="#644f28" stroke-miterlimit="10"/>
    </g>
  </g>
</svg>