<?xml version="1.0" encoding="UTF-8"?>
<svg id="Layer_2" data-name="Layer 2" xmlns="http://www.w3.org/2000/svg" xmlns:xlink="http://www.w3.org/1999/xlink" viewBox="0 0 64.92 167.86">
  <defs>
    <clipPath id="clippath">
      <path d="m20.16,35.82c-2.71-2.27-4.17-5.72-4.89-9.18-.71-3.46-.76-7.02-1.17-10.53-.41-3.51-1.22-7.08-3.26-9.97,1.98.85,4.47.31,5.92-1.29-.03,1.1,1.34,1.71,2.44,1.61s2.19-.58,3.27-.36c1.05.21,1.85,1.03,2.7,1.67s2.01,1.15,2.96.66c-2.14,1.5-2.85,4.36-2.92,6.97-.18,6.03,2.21,12.09,6.44,16.38" fill="#f2bb9d" stroke="#644f28" stroke-linejoin="round" stroke-width="3"/>
    </clipPath>
    <linearGradient id="linear-gradient" x1="3375.77" y1="379.98" x2="3382.8" y2="335.94" gradientTransform="translate(342.8 -3300.72) rotate(89.21)" gradientUnits="userSpaceOnUse">
      <stop offset="0" stop-color="#d5a764"/>
      <stop offset=".04" stop-color="#d8ad6d"/>
      <stop offset=".21" stop-color="#e5c28d"/>
      <stop offset=".39" stop-color="#eed3a5"/>
      <stop offset=".57" stop-color="#f5dfb7"/>
      <stop offset=".77" stop-color="#f9e6c1"/>
      <stop offset="1" stop-color="#fbe9c5"/>
    </linearGradient>
    <clipPath id="clippath-1">
      <path d="m27.39,24.86c1.02-.59,7.14,2.31,11.56,7.06s16.96,32.56,18.07,37.7c1.1,5.14,5.32,26.21-7.92,47.05-13.24,20.84-22.47,23.34-24.37,23.37-1.94-2.82-5.54-5.62-7.47-7.97-1.93-2.35-10.67-16-11.19-19.31-.52-3.32-4.47-14.42-4.04-17.04.44-2.62,3.21-25.21,4.36-28.08,1.15-2.86,7.47-26.22,9.58-28.15s8.43-8.43,9.84-9.63c1.14-3.34,1.58-5.01,1.58-5.01Z" fill="url(#linear-gradient)" stroke="#644f28" stroke-miterlimit="10" stroke-width="4"/>
    </clipPath>
  </defs>
  <g id="Layer_1-2" data-name="Layer 1">
    <g>
      <g>
        <g>
          <path d="m20.16,35.82c-2.71-2.27-4.17-5.72-4.89-9.18-.71-3.46-.76-7.02-1.17-10.53-.41-3.51-1.22-7.08-3.26-9.97,1.98.85,4.47.31,5.92-1.29-.03,1.1,1.34,1.71,2.44,1.61s2.19-.58,3.27-.36c1.05.21,1.85,1.03,2.7,1.67s2.01,1.15,2.96.66c-2.14,1.5-2.85,4.36-2.92,6.97-.18,6.03,2.21,12.09,6.44,16.38" fill="#f2bb9d"/>
          <g clip-path="url(#clippath)">
            <path d="m15.79,11.68c.59.11,1.2,0,1.79-.11,1.07-.2,2.14-.4,3.21-.61.05.65.64,1.15,1.26,1.32s1.29.09,1.93,0c2.36-.32,5.02-.82,6.28-2.84,1.08-1.72.68-4.09-.56-5.7-1.24-1.61-3.16-2.56-5.12-3.11C19.94-.67,14.77.07,10.7,2.63c-.79.49-1.55,1.07-2.06,1.85-1.26,1.92-.12,3.84,1.87,4.4.87.25,1.58.37,2.35.89.97.66,1.71,1.68,2.93,1.91Z" fill="#fffff2" stroke-width="0"/>
            <g>
              <path d="m16.42,10.2c.03,5.51.62,11.01,1.78,16.35.45,2.08,1,4.17,2.05,5.93,1.35,2.26,3.53,3.84,5.89,4.28" fill="#f2bb9d" stroke-width="0"/>
              <path d="m16.42,10.2c.22,5.04.74,10.06,1.74,15,.76,4.81,2.64,10.38,7.98,11.57-5.54-.81-7.66-6.63-8.45-11.48-.96-4.96-1.43-10.03-1.27-15.09h0Z" fill="#644f28" stroke-width="0"/>
            </g>
            <g>
              <path d="m17.89,10.37c.24,5.5,1.05,10.98,2.41,16.27.53,2.06,1.16,4.13,2.28,5.85,1.44,2.2,3.68,3.7,6.05,4.05" fill="#f2bb9d" stroke-width="0"/>
              <path d="m17.89,10.37c.41,5.02,1.13,10.02,2.32,14.92.94,4.78,3.03,10.27,8.42,11.25-5.6-.62-7.89-6.31-8.88-11.14-1.15-4.92-1.82-9.97-1.85-15.03h0Z" fill="#644f28" stroke-width="0"/>
            </g>
            <g>
              <path d="m23.98,11.87c.24,5.5,1.05,10.98,2.41,16.27.53,2.06,1.16,4.13,2.28,5.85,1.44,2.2,3.68,3.7,6.05,4.05" fill="#f2bb9d" stroke-width="0"/>
              <path d="m23.98,11.87c.41,5.02,1.13,10.02,2.32,14.92.94,4.78,3.03,10.27,8.42,11.25-5.6-.62-7.89-6.31-8.88-11.14-1.15-4.92-1.82-9.97-1.85-15.03h0Z" fill="#644f28" stroke-width="0"/>
            </g>
            <g>
              <path d="m21.8,12.51c.99,5.28,2.52,10.45,4.56,15.38.79,1.91,1.68,3.83,3,5.33,1.69,1.93,4.06,3.07,6.4,3.08" fill="#f2bb9d" stroke-width="0"/>
              <path d="m21.8,12.51c1.09,4.79,2.47,9.52,4.29,14.08,1.57,4.48,4.34,9.5,9.67,9.7-5.45.19-8.51-5.03-10.11-9.53-1.79-4.59-3.13-9.38-3.86-14.25h0Z" fill="#644f28" stroke-width="0"/>
            </g>
            <g>
              <path d="m23.33,13.03c.99,5.28,2.52,10.45,4.56,15.38.79,1.91,1.68,3.83,3,5.33,1.69,1.93,4.06,3.07,6.4,3.08" fill="#f2bb9d" stroke-width="0"/>
              <path d="m23.33,13.02c1.09,4.79,2.47,9.52,4.29,14.08,1.57,4.48,4.34,9.5,9.67,9.71-5.45.19-8.51-5.03-10.11-9.53-1.79-4.59-3.13-9.38-3.86-14.25h0Z" fill="#644f28" stroke-width="0"/>
            </g>
          </g>
          <path d="m20.16,35.82c-2.71-2.27-4.17-5.72-4.89-9.18-.71-3.46-.76-7.02-1.17-10.53-.41-3.51-1.22-7.08-3.26-9.97,1.98.85,4.47.31,5.92-1.29-.03,1.1,1.34,1.71,2.44,1.61s2.19-.58,3.27-.36c1.05.21,1.85,1.03,2.7,1.67s2.01,1.15,2.96.66c-2.14,1.5-2.85,4.36-2.92,6.97-.18,6.03,2.21,12.09,6.44,16.38" fill="none" stroke="#644f28" stroke-linejoin="round" stroke-width="3"/>
        </g>
        <path d="m19.89,12.23c0-.54,0-1.09,0-1.63.45.82.9,1.63,1.35,2.45.29-.37.58-.75.88-1.12.1.44.2.88.31,1.32.26,0,.48-.19.65-.38s.34-.41.59-.49.59.07.57.33" fill="none" stroke="#644f28" stroke-miterlimit="10" stroke-width="1.02"/>
      </g>
      <g>
        <g>
          <path d="m27.39,24.86c1.02-.59,7.14,2.31,11.56,7.06s16.96,32.56,18.07,37.7c1.1,5.14,5.32,26.21-7.92,47.05-13.24,20.84-22.47,23.34-24.37,23.37-1.94-2.82-5.54-5.62-7.47-7.97-1.93-2.35-10.67-16-11.19-19.31-.52-3.32-4.47-14.42-4.04-17.04.44-2.62,3.21-25.21,4.36-28.08,1.15-2.86,7.47-26.22,9.58-28.15s8.43-8.43,9.84-9.63c1.14-3.34,1.58-5.01,1.58-5.01Z" fill="url(#linear-gradient)"/>
          <g clip-path="url(#clippath-1)">
            <path d="m64.92,60.72c-3.06,3.22-5.29,5.8-7.67,9.02-2.11,2.63-3.58,5.35-6.12,7.65-2.68,2.35-6.29,5.06-7.38,8.76-2.1,5.85,1.36,11.88,4.08,17,2.2,5.2,4.75,10.21,6.86,15.39,1.25,3.41,2.34,6.9,3.54,10.35,1.2,3.63,2.63,7.22,4.35,11.81l-.91,1.31c-9.85-.52-18.18-8.1-22.56-16.42-2.21-4.19-3.07-8.84-3.62-13.36-.36-2.82-.57-5.73-.18-8.6.51-3.97,1.87-8,2.57-11.85.91-4.56.93-8.78.71-13.54,0-2.48.17-5.12.98-7.54,2.57-7.22,10.02-12.38,17.58-13.01,2.58-.15,5.2.19,7.55,1.45l.22,1.58h0Z" fill="#e7c591" stroke-width="0"/>
            <path d="m57.78,31.01c-7.41,7.46-14.82,14.92-22.23,22.39-4.38,4.41-8.88,9-11.06,14.82-2.04,5.44-1.86,11.42-1.63,17.23,1.1,27.29,2.76,54.55,4.98,81.77" fill="none" stroke="#e7c591" stroke-miterlimit="10" stroke-width="16"/>
          </g>
          <path d="m27.39,24.86c1.02-.59,7.14,2.31,11.56,7.06s16.96,32.56,18.07,37.7c1.1,5.14,5.32,26.21-7.92,47.05-13.24,20.84-22.47,23.34-24.37,23.37-1.94-2.82-5.54-5.62-7.47-7.97-1.93-2.35-10.67-16-11.19-19.31-.52-3.32-4.47-14.42-4.04-17.04.44-2.62,3.21-25.21,4.36-28.08,1.15-2.86,7.47-26.22,9.58-28.15s8.43-8.43,9.84-9.63c1.14-3.34,1.58-5.01,1.58-5.01Z" fill="none" stroke="#644f28" stroke-miterlimit="10" stroke-width="4"/>
        </g>
        <path d="m27.11,30.7l-8.07,28.15s-9.47,37.59-9.18,40.92c.28,3.33.14,10.23,1.97,13.77s12.22,23.5,12.22,23.5l-1.12.02s-12.66-20.9-13.24-23.49c-.76-3.44-2.52-10.19-.97-18.3,1.55-8.11,13.66-61.08,13.66-61.08l4.73-3.48Z" fill="#644f28" stroke-width="0"/>
        <g>
          <path d="m57.92,75.31c-.97-2.18-2.24-3.26-3.79-1.83-1.55,1.43-7.85,10.94-9.64,17.71-1.79,6.77-5.83,20.79-5.63,23.93s2.52,11.89,2.52,11.89" fill="none" stroke="#644f28" stroke-miterlimit="10"/>
          <path d="m38.14,130.82c-1.59-1.39-4.63-5.43-4.09-11.87s6.5-40.42,7.87-43.26c1.37-2.84,8.74-8.69,15.1-6.07" fill="none" stroke="#644f28" stroke-miterlimit="10"/>
          <path d="m50.74,55.17c-2.86-2.47-7.46-6.49-11.03-3.14-3.56,3.34-11.28,23.54-13.17,34.86s-3.41,37.24-2.25,41.46,3.26,8.9,6.41,9.64" fill="none" stroke="#644f28" stroke-miterlimit="10"/>
          <path d="m41.37,36c-2.23-2.64-5.71-4.16-9.74-.81-4.03,3.35-7.21,11.71-8.1,15.49-.89,3.78-9.66,38.58-9.91,43.29-.25,4.71-.02,23.75,2.56,29.05" fill="none" stroke="#644f28" stroke-miterlimit="10"/>
        </g>
      </g>
    </g>
  </g>
</svg>