<?xml version="1.0" encoding="UTF-8"?>
<svg id="Layer_1" data-name="Layer 1" xmlns="http://www.w3.org/2000/svg" viewBox="0 0 286 122">
  <path d="m255.02,68.88c3.78-3.18,9.43-7.99,7.79-9.98-2.15-2.62-16.62-4.79-19.71-5.83-10.61-3.56-22.76-5.35-33.77-8.18-17.94-4.83-35.64-10.72-54.23-10.68-4.47-6.62-7.45-17.99-14.54-21.57-7.49-.61-13.39,7.78-19.66,11.22-4.53,2.43-5.35,8.62-2.86,13.03-10.77,1.58-21.49,3.54-32.07,6.06-.01-.3-.02-.6-.03-.93-7.14-2.28-17.94-9.57-8.36,3.07-9.25,2.56-18.4,5.48-27.19,9.32-5.17-7.21-11.63-13.81-17.64-20-3.43-3.28-6.75-2.88-11.13-2.6,6.21,7.04,2.19,18.07-1.09,26.28,1.03,13.14,10.8,16.62,2.22,34.23,9-8.81,20.13-14.42,27.64-24.26,2.76,1.02,5,1.6,7.64,2.48-8.57,2.56-6.3,7.52,1.09,10.26,11.45,4.84,21.39,12.73,33.81,15.71,10.63,1.49,17.51-2.89,26.94-4.97,1.65.52,3.31,1.03,4.96,1.53-3.27,3-19.25,11.82-7.26,11.93,9.17,1.02,19.52,1.21,26.28-6.3-.36-.24-.71-.47-1.05-.69,35.79,8.86,75.8,9.08,107.39-12.35,7.3-3.28,21.98-19.74,4.84-16.77Z" fill="#5f4737" stroke="#5f4737" stroke-linejoin="round" stroke-width="10"/>
  <g>
    <path d="m46.65,49.54c2.68,2.98,5.56,6.55,5.68,11.3.08,3.32-1.27,6.55-3.1,8.98-1.82,2.42-4.09,4.17-6.32,5.92-6.73,5.26-13.45,10.77-20.18,16.59,3.7-6.73,4.36-15.84,1.61-22.28-1.64-3.83-4.45-7.27-3.83-11.95.38-2.86,1.99-5.33,3.05-7.99,2.63-6.57,1.43-13.83-1.96-18.3,4.38-.27,7.7-.68,11.13,2.6,4.81,4.6,9.3,9.98,13.92,15.13Z" fill="#cdbf73" stroke-width="0"/>
    <path d="m156.13,36.11c-2.7-4.94-5.39-9.89-8.09-14.84-2.01-3.69-4.32-7.67-7.48-8.63-2.86-.87-5.62,1-8.13,2.82-3.84,2.79-7.69,5.59-11.53,8.41-1.52,1.11-3.12,2.35-3.86,4.54-.76,2.25-.4,5.08.49,7.37.89,2.29,2.24,4.16,3.57,6,11.67-1.94,23.35-3.76,35.03-5.66Z" fill="#cdbf73" stroke-width="0"/>
    <path d="m61.77,69.47c-2.62.68-5.29,1.41-7.17,2.59-1.89,1.18-2.89,2.88-1.82,4.56,1.04,1.63,3.76,2.94,6.34,4.19,6.53,3.15,13.07,6.5,19.6,10.01,4.26,2.29,8.97,4.78,14.21,5.7,5.79,1.01,10.43-.22,14.51-1.42,5.47-1.6,10.93-3.15,16.4-4.66-20.48-7.75-40.99-14.96-62.06-20.95Z" fill="#cdbf73" stroke-width="0"/>
    <path d="m143.84,98.7c-1.29,1.13-2.61,2.28-4.42,3.44s-4.23,2.34-6.42,2.94c-2.13.59-3.64.53-5.01.45-3.48-.19-6.96-.37-10.43-.54-2.27-.11-4.65-.27-4.62-1.53.03-1.39,2.95-3.69,5.71-5.77,3.69-2.78,7.39-5.55,11.08-8.31,5.65,3.71,8.47,5.58,14.12,9.3Z" fill="#cdbf73" stroke-width="0"/>
    <path d="m85.93,42.01c-2.53-1.02-5.07-2.03-7.6-3.01-1.89-.73-3.93-1.47-4.6-1.12-.61.32.1,1.45.79,2.51,1.06,1.63,2.13,3.27,3.19,4.9.42.65.89,1.35,1.88,2.18,1.02.85,2.38,1.66,3.54,2.2,1.15.54,2.14.86,3.1,1.18-.12-3.54-.18-5.31-.3-8.85Z" fill="#cdbf73" stroke-width="0"/>
    <path d="m255.02,68.88c3.78-3.18,9.43-7.99,7.79-9.98-2.15-2.62-16.62-4.79-19.71-5.83-10.61-3.56-22.76-5.35-33.77-8.18-12.12-3.12-24.92-7.38-37.02-9.24-19.98-3.06-41.07-1.02-61.73,2.39-20.21,3.33-40.26,8.05-59.1,15.85-3.14,1.3-7.6,4.43-7.18,8.42,0,.07.03.13.04.2,19.96-5.72,43.46-4.26,63.53-.61,20.86,3.8,42.65,5.41,63.92,7.7,16.02,1.73,46.16-1.04,55.24,7.57,4.82,4.57,17.15,1.91,22.18,3.82,1.37.52,3.21,1.14,4.88,1.97,4.21-3.08,9.35-7.77,8.9-11.86-.39-3.57-5.17-2.72-7.97-2.23Z" fill="#99994d" stroke-width="0"/>
    <path d="m227.02,77.18c-9.11-8.63-39.22-5.85-55.24-7.57-21.26-2.29-43.05-3.9-63.92-7.7-20.07-3.65-43.56-5.11-63.53.61.02.16.05.32.09.48,6.97-.9,14.66,1.09,20.52,2.62,16.12,4.21,32.33,8.09,48.61,9.93,18.53,2.1,38.23,3.15,55.75,8.35,10.5,3.12,21.95,8.46,32.33,11.04,12.09,3,21.62,3.03,33.09-1.33,2.67-1.02,5.5-3.03,8.47-3.81.11-.03.22-.04.32-.07,2.25-1.27,4.47-2.62,6.66-4.06.98-.65,2.38-1.56,3.9-2.67-1.67-.83-3.51-1.45-4.88-1.97-5.03-1.91-17.37.74-22.18-3.82Z" fill="#d8c2b3" stroke-width="0"/>
    <path d="m54.3,69.36c33.56,10.39,67.36,25.07,101.15,31.37,21.59,4.02,43.13,4.1,64.45-1.22,7.92-1.98,16.02-5.52,23.62-9.8-.11.02-.22.04-.32.07-2.97.78-5.81,2.8-8.47,3.81-11.47,4.37-21,4.34-33.09,1.33-10.38-2.58-21.83-7.92-32.33-11.04-17.52-5.2-37.22-6.25-55.75-8.35-16.28-1.84-32.49-5.72-48.61-9.93-5.86-1.53-13.55-3.52-20.52-2.62.99,3.82,6.58,5.34,9.88,6.36Z" fill="#ebd7ca" stroke-width="0"/>
    <g>
      <path d="m163.16,39.76c0,.39-.71.65-1.59.57-.88-.08-1.59-.45-1.59-.84s.71-.64,1.59-.57c.88.08,1.59.45,1.59.84Z" fill="#7f7d36" stroke-width="0"/>
      <path d="m172.31,42.7c0,.83-1.51,1.39-3.38,1.24-1.86-.15-3.38-.95-3.38-1.77s1.51-1.37,3.38-1.23c1.86.15,3.38.93,3.38,1.76Z" fill="#7f7d36" stroke-width="0"/>
      <path d="m163.96,43.53c0,.58-1.07.97-2.38.86-1.32-.11-2.38-.68-2.38-1.27s1.07-.96,2.38-.85c1.32.11,2.38.68,2.38,1.26Z" fill="#7f7d36" stroke-width="0"/>
    </g>
    <g>
      <path d="m152.19,45.36c0,.39-.71.64-1.59.56-.88-.08-1.59-.46-1.59-.85s.71-.64,1.59-.56,1.59.46,1.59.85Z" fill="#7f7d36" stroke-width="0"/>
      <path d="m155.76,42.86c0,.83-1.51,1.36-3.38,1.19-1.86-.17-3.38-.98-3.38-1.81s1.51-1.36,3.38-1.19c1.86.17,3.38.98,3.38,1.81Z" fill="#7f7d36" stroke-width="0"/>
      <path d="m147.41,43.6c0,.58-1.07.96-2.38.84s-2.38-.7-2.38-1.28,1.07-.96,2.38-.84c1.32.12,2.38.7,2.38,1.28Z" fill="#7f7d36" stroke-width="0"/>
    </g>
    <g>
      <path d="m119.87,44.22c0,.39-.71.65-1.59.57s-1.59-.45-1.59-.84.71-.65,1.59-.57,1.59.45,1.59.84Z" fill="#7f7d36" stroke-width="0"/>
      <path d="m123.45,41.71c0,.83-1.51,1.37-3.38,1.21-1.86-.16-3.38-.95-3.38-1.78s1.51-1.38,3.38-1.22,3.38.96,3.38,1.79Z" fill="#7f7d36" stroke-width="0"/>
      <path d="m129.26,43.72c0,.58-1.07.96-2.38.84-1.32-.12-2.38-.68-2.38-1.27s1.07-.96,2.38-.85c1.32.12,2.38.69,2.38,1.27Z" fill="#7f7d36" stroke-width="0"/>
    </g>
    <g>
      <path d="m107.2,48.62c0,.39-.71.66-1.59.59s-1.59-.42-1.59-.81.71-.66,1.59-.6c.88.06,1.59.43,1.59.82Z" fill="#7f7d36" stroke-width="0"/>
      <path d="m109.69,49.15c0,.19-.36.33-.79.29-.44-.03-.79-.22-.79-.41s.36-.33.79-.3c.44.03.79.22.79.41Z" fill="#7f7d36" stroke-width="0"/>
      <path d="m106.66,45.4c0,.83-1.51,1.39-3.38,1.27-1.86-.12-3.38-.88-3.38-1.71s1.51-1.41,3.38-1.29c1.86.12,3.38.9,3.38,1.73Z" fill="#7f7d36" stroke-width="0"/>
      <path d="m112.47,47.33c0,.58-1.07.98-2.38.88s-2.38-.65-2.38-1.23,1.07-.98,2.38-.88c1.32.1,2.38.65,2.38,1.24Z" fill="#7f7d36" stroke-width="0"/>
    </g>
    <g>
      <path d="m234.58,68.44c0-3.34,2.7-6.22,6.04-6.53,3.34-.31,6.04,2.07,6.04,5.41s-2.7,6.36-6.04,6.67c-3.34.31-6.04-2.21-6.04-5.55Z" fill="#f2f2f2" stroke-width="0"/>
      <path d="m236.54,68.29c0-2.26,1.83-4.22,4.09-4.43,2.26-.21,4.09,1.42,4.09,3.67s-1.83,4.29-4.09,4.5c-2.26.21-4.09-1.48-4.09-3.74Z" stroke-width="0"/>
      <path d="m240.9,66.63c0-.64.52-1.21,1.16-1.27.64-.06,1.16.4,1.16,1.05s-.52,1.22-1.16,1.28c-.64.06-1.16-.41-1.16-1.05Z" fill="#f2f2f2" stroke-width="0"/>
    </g>
    <path d="m224.56,59.1c-3.49,3.43-6.5,7.45-7.83,12.09-1.33,4.63-.76,9.96,2.26,13.64,3.02,3.68,8.69,5.11,12.92,2.57" fill="none" stroke="#f2f2f2" stroke-linecap="round" stroke-linejoin="round" stroke-width="1.89"/>
    <path d="m214.55,61.26c-1.63,3.48-3.28,6.98-4.09,10.72-.8,3.74-.7,7.81,1.06,11.22" fill="none" stroke="#f2f2f2" stroke-linecap="round" stroke-linejoin="round" stroke-width="1.89"/>
    <path d="m206.48,93.16c-2.01.61-4.08,1.23-6.7,1.69-2.63.46-5.96.76-8.75.61-2.71-.14-4.41-.64-5.94-1.12-3.88-1.21-7.75-2.46-11.63-3.74-2.53-.83-5.15-1.77-4.52-2.77.7-1.1,5.12-1.95,9.25-2.73,5.54-1.05,11.08-2.16,16.62-3.37,4.67,4.63,7,6.92,11.67,11.43Z" fill="#bc8c77" stroke-width="0"/>
  </g>
</svg>