<?xml version="1.0" encoding="UTF-8"?>
<svg id="Layer_2" data-name="Layer 2" xmlns="http://www.w3.org/2000/svg" xmlns:xlink="http://www.w3.org/1999/xlink" viewBox="0 0 346 469">
  <defs>
    <linearGradient id="linear-gradient" x1="171.39427" y1="316.59796" x2="185.31859" y2="316.59796" gradientUnits="userSpaceOnUse">
      <stop offset="0" stop-color="#64681e" stop-opacity="0"/>
      <stop offset=".26052" stop-color="#64681e" stop-opacity="0"/>
      <stop offset=".59738" stop-color="#64681e"/>
      <stop offset="1" stop-color="#64681e"/>
    </linearGradient>
    <linearGradient id="linear-gradient-2" x1="164.33106" y1="317.46079" x2="173.49869" y2="315.84429" gradientUnits="userSpaceOnUse">
      <stop offset="0" stop-color="#64681e"/>
      <stop offset=".28774" stop-color="#64681e"/>
      <stop offset=".6925" stop-color="#64681e" stop-opacity="0"/>
      <stop offset="1" stop-color="#64681e" stop-opacity="0"/>
    </linearGradient>
    <linearGradient id="linear-gradient-3" x1="200.74293" y1="272.61752" x2="181.27952" y2="291.99379" gradientUnits="userSpaceOnUse">
      <stop offset="0" stop-color="#64681e"/>
      <stop offset=".54593" stop-color="#64681e"/>
      <stop offset="1" stop-color="#64681e" stop-opacity="0"/>
    </linearGradient>
    <linearGradient id="linear-gradient-4" x1="149.38693" y1="257.93753" x2="168.58827" y2="286.68821" gradientUnits="userSpaceOnUse">
      <stop offset="0" stop-color="#64681e"/>
      <stop offset=".8556" stop-color="#64681e"/>
      <stop offset="1" stop-color="#64681e" stop-opacity="0"/>
    </linearGradient>
    <linearGradient id="linear-gradient-5" x1="199.22039" y1="272.50611" x2="183.2229" y2="291.57118" gradientTransform="translate(25.8005 -15.72622) rotate(5.12854)" gradientUnits="userSpaceOnUse">
      <stop offset="0" stop-color="#c6c359"/>
      <stop offset=".69406" stop-color="#c6c359"/>
      <stop offset="1" stop-color="#c6c359" stop-opacity="0"/>
    </linearGradient>
    <linearGradient id="linear-gradient-6" x1="151.48598" y1="257.88122" x2="167.45351" y2="285.53778" gradientTransform="translate(-17.89496 11.51144) rotate(-3.73727)" gradientUnits="userSpaceOnUse">
      <stop offset="0" stop-color="#c6c359"/>
      <stop offset=".83115" stop-color="#c6c359"/>
      <stop offset="1" stop-color="#c6c359" stop-opacity="0"/>
    </linearGradient>
    <linearGradient id="linear-gradient-7" x1="172.62962" y1="317.12966" x2="185.06761" y2="317.12966" gradientUnits="userSpaceOnUse">
      <stop offset="0" stop-color="#c6c359" stop-opacity="0"/>
      <stop offset=".1469" stop-color="#c6c359" stop-opacity="0"/>
      <stop offset=".64784" stop-color="#c6c359"/>
      <stop offset="1" stop-color="#c6c359"/>
    </linearGradient>
    <linearGradient id="linear-gradient-8" x1="163.89623" y1="317.20282" x2="173.09896" y2="317.20282" gradientUnits="userSpaceOnUse">
      <stop offset="0" stop-color="#c6c359"/>
      <stop offset=".35216" stop-color="#c6c359"/>
      <stop offset=".8531" stop-color="#c6c359" stop-opacity="0"/>
      <stop offset="1" stop-color="#c6c359" stop-opacity="0"/>
    </linearGradient>
    <linearGradient id="linear-gradient-9" x1="200.91288" y1="273.94088" x2="185.03328" y2="292.86545" gradientTransform="translate(25.8005 -15.72622) rotate(5.12854)" gradientUnits="userSpaceOnUse">
      <stop offset="0" stop-color="#cfd16b"/>
      <stop offset=".70208" stop-color="#cfd16b"/>
      <stop offset="1" stop-color="#cfd16b" stop-opacity="0"/>
    </linearGradient>
    <linearGradient id="linear-gradient-10" x1="148.86442" y1="259.39663" x2="164.8745" y2="287.1269" gradientTransform="translate(-17.89496 11.51144) rotate(-3.73727)" gradientUnits="userSpaceOnUse">
      <stop offset="0" stop-color="#cfd16b"/>
      <stop offset=".77605" stop-color="#cfd16b"/>
      <stop offset="1" stop-color="#cfd16b" stop-opacity="0"/>
    </linearGradient>
    <linearGradient id="linear-gradient-11" x1="172.92264" y1="335.22197" x2="172.92264" y2="331.20767" gradientUnits="userSpaceOnUse">
      <stop offset="0" stop-color="#fff"/>
      <stop offset=".34875" stop-color="#fff"/>
      <stop offset=".90496" stop-color="#fff" stop-opacity="0"/>
      <stop offset="1" stop-color="#fff" stop-opacity="0"/>
    </linearGradient>
  </defs>
  <g id="CASE_11_Plants_LL_WH_CH" data-name="CASE 11 Plants LL WH CH">
    <g id="Day_28" data-name="Day 28">
      <g id="rectangle">
        <rect width="346" height="469" fill="none"/>
      </g>
      <g id="ROOTS_BACK" data-name="ROOTS BACK">
        <path d="m192.84673,343.12671c-.59955-.60938-1.21509-1.12659-1.83875-1.60901.57684.18188,1.22028-.01758,1.55115-.55646,1.24805-2.33606-3.87549-3.23645-5.26959-3.59088-1.43524-.27869-2.87299-.40631-4.19678-.56171-1.02106-.4397-2.07904-.79614-3.19989-1.00098-1.61542-.25604-3.5387-.3963-5.01471-1.11011-.00104-.0415-.00214-.08423-.00317-.12573-.00992-2.12605-3.03931-2.56541-3.65662-.55035-.33893.31952-.79541.65002-1.15088.88593-1.99274,1.42987-4.57751,1.85278-6.87103,2.38599-1.78778.57684-3.40314,1.29553-5.01343,2.12799-1.29767.81177-6.37732,3.10968-4.6239,5.07184.52728.5528,1.41272.55237,1.94415.0058.73438-.70398,1.74524-1.34119,2.80994-1.91083-.60449,1.19922-1.11963,2.42737-1.5224,3.75946-.20874.69342.16779,1.435.85895,1.66919,1.14522.36297,1.71097-.60041,1.98175-1.55902.39789.18256.88507.17419,1.35016-.17938.92188-.63892,2.06403-1.1452,3.27179-1.52411-2.38873,2.15039-6.69818,6.52234-4.13043,7.91107.68848.28528,1.47791-.0415,1.76312-.7301,1.37347-2.97559,4.68207-5.25183,7.4834-7.33179-.19434.33398-.39563.65424-.62994.93427-3.41078,2.46572-5.81616,6.10813-8.66516,9.09741-1.43464,1.11014.17582,3.25892,1.63043,2.15213,1.54722-1.36099,2.62979-2.79706,4.0254-4.29605-.03455.10938-.06409.22198-.10193.32928-.2998.46881-.29083.93329-.10657,1.30609-.58368.50684-1.12634,1.05499-1.62012,1.59784-.23199.24225-.44879.45178-.6413.61841-.16412.15015-.36047.20587-.16241.17065-.74335.05804-1.29889.7077-1.24084,1.45093.28687,1.84741,2.30389,1.25031,3.11816.48816.23889-.20422.47723-.42963.71613-.66119-.55054,1.49164-.95465,3.04486-1.40161,4.59766-.39263,1.72298,2.15376,2.36248,2.61926.65479.79987-2.53394,1.66797-5.56903,3.36749-7.57751.26593-.19916.50537-.42987.72943-.67786.02722.61792.06006,1.23053.09613,1.84039-.93622,2.65393-3.27679,4.78729-3.77765,7.74231-.25842,1.75366,2.33728,2.18695,2.66321.44373.27179-.91602.72974-1.73657,1.24371-2.53229.02716,3.02716.09131,6.04938.68817,9.164.36377,1.71307,2.90912,1.24176,2.65723-.47284-.27972-2.09546-.36218-4.25903-.36371-6.44641.6947.95074,1.32098,1.86377,1.7301,2.80603.29944.69781,1.1225,1.01172,1.81049.68958.72083-.37823.85071-.98566.6416-1.71729.8638.23744,1.73172-.53385,1.63147-1.41888-.00433-.06207-.18152-1.91443-.19-2.02814-.0058-.04657-.01196-.09375-.01776-.14038.01044.01678.021.03406.03143.05078.27673.38306.43579.73889,1.07983,1.28424,1.42804,1.05719,3.03125-1.04211,1.6427-2.14264-.98401-1.4743-1.86511-3.09113-2.91937-4.59149.41159.01689.85093-.19391,1.08337-.54175.02954.1283.07019.25983.09546.38654.1156.71411.77728,1.21368,1.50092,1.12262,2.05298-.33942.98102-3.57153-.31934-6.14935,1.4762.62482,2.91949,1.36633,3.87958,2.39453.50195.53729,1.34399.57434,1.89148.07928,1.06946-1.22772-.07111-2.47369-1.8606-3.58447.1795-.03589.35492-.10266.51398-.21527,1.33807-1.09155.03748-2.57764-1.72815-3.88379.43853-.08219.85975-.42089.97766-.87231.64771.70599,1.22272,1.43628,1.66168,2.14056.31934.69287,1.15411.9989,1.84113.64905,2.97845-1.60345-4.49396-7.90192-6.48792-8.8819,2.85413,1.29828,5.95239,2.98029,8.19617,5.03357,1.25381,1.28221,3.18224-.56466,1.94775-1.86981Zm-15.49152,3.0274c.46338.32556.87042.79065,1.25934,1.30127-.01324-.00586-.0274-.00824-.04077-.01367-.81763-.6286-1.73621-1.19067-2.55017-1.7644.44275.18109.88983.34058,1.3316.47681Zm-.26971,8.30353c-1.14325-1.16925-1.92566-2.33746-2.6535-3.89185.03479-.68671.08813-1.37311.14563-2.05804.14771.08636.29285.17108.43561.2536.98612,1.91417,1.45194,4.08577,2.39764,5.97375-.10553-.09479-.21552-.1861-.32538-.27747Zm4.37469-15.02106c-1.2218-.37518-2.63239-.46075-3.9267-.71552.67889.07184,1.36035.12714,2.04218.18817.65344.07031,1.25122.27582,1.88452.52734Zm-18.00287.97772c.11731-.0354.2337-.06824.35089-.10077.41535-.10082.83187-.22313,1.24384-.29089,2.11853-.25513,4.23608-.82312,6.11487-1.82965.00336.17151.00623.34406.00964.51501-.62311.85138-1.48962,1.51007-2.3161,2.22498-.82269-.01874-1.73285.17566-2.32886.27142-1.79883.38092-3.48682.84015-5.09998,1.64526.61835-.98566,1.30444-1.85516,2.0257-2.43536Zm6.76862,7.84808c.11487-.08307.22437-.17438.34125-.25439.14014-.09033.26343-.20093.38617-.31207-.00812.23688-.00787.47522-.01379.71265-.69421,1.32208-1.10614,2.5943-1.78845,3.76788-.16089.03217-.31622.0788-.47253.12384.38745-1.42847.58752-2.85333,1.54736-4.0379Zm4.0636,11.80286c.039-1.37036.07654-2.73682.09723-4.09424.00287.00275.00525.00623.00812.00891,2.22105,1.94897,2.40446,5.36809,2.82751,8.17743-1.00769-1.42218-2.34003-2.93408-2.93286-4.0921Zm8.74854-10.54315c.02026-.09058.02917-.18329.02875-.27765.36528.23146.78209.5356,1.07324.80261-.36499-.18097-.7348-.35657-1.10199-.52496Zm-2.70776-5.30328c-1.61023-.95837-3.51495-1.35712-4.88861-2.62115.73887.19318,1.45815.3087,2.19781.38513,1.36444.41632,2.60541,1.68854,3.86646,2.9165-.50604-.28943-.92487-.52393-1.17566-.68048Z" fill="#4c4c4c"/>
      </g>
      <path d="m205.51317,277.49854c-.28186-.54425-1.85144-1.82623-3.76727-2.67761-1.99094-.8429-5.64695-1.42518-7.79755-.54578-.1383.0327-.28606.07872-.42676.12524-.55298-.18434-1.32491-.27337-1.5885-.27136-.81276.02224-1.52739.52369-1.94232.83374-.5187-.10355-1.22517-.15035-1.68121.14742-.62045.3747-.8335,1.34365-1.36133,1.91038-.51908.14104-1.49423.17993-1.91681.34581-.72365.17457-.98258,1.43197-1.28979,2.37501-.50576.6064-.83872.74043-1.20594,1.0675-.59369.51791-.90074,1.91448-1.18606,3.01223-.32012.72116-1.28405.97003-1.4327,1.84648-.12359.66289.3032,1.16481.40862,1.78442-.34009.48682-.64545.98865-.76178,1.4964-1.1261,2.0578-2.11694,4.15729-3.02777,6.28906-.97699,2.4231-1.92505,4.86334-2.75537,7.33575-.88552-5.87906-1.94007-11.89649-4.87891-17.16003.06836-.56299-.1297-1.25635-.49158-2.48792-.10187-.34674-.00464-.57843.16248-.92786.74791-1.1739-.48272-2.42278-.41479-3.72359.18892-1.89348.51548-5.79157.08438-6.01607-.19478-.40202-.68941-.79085-.9935-1.19022-.10848-2.29893.0147-3.31039-2.39294-3.2121-.27338-.12065-.56195-.6863-.57569-1.0853-.0059-.49285-.46463-1.13586-.8977-1.3345-.00518-.20291-.00195-.60339-.33673-1.00623-.24909-.2948-.48542-.45251-.69971-.54816-.33812-.83933-.6296-2.0373-1.83172-2.05964-.52631-.01589-.9202.2934-1.41834.14631-.38424-.64234-.79926-1.3933-1.67383-1.43799-.24983-.01536-.66601.0033-.8393-.08673-.59181-.4947-1.07446-1.28866-2.05879-1.2918-.62951-.00915-1.0981.4037-1.58221.69115-1.50836-.82581-2.84784-1.00287-3.71869-1.00287-.95709,0-1.62286.18713-1.97876.55621-1.04592,1.08938-.44046,2.77796-.34284,4.16754-.07006.52332-.55212.8163-.4305,1.53486.05355.34313.18795.58434.27474.72301-.00195.05145-.00879.13654-.02905.26611-1.01047,1.58566-.21132,2.27589,1.32727,3.3681.0136.41091-.07735.84002.416,1.33479.32642.29944.85849.46749,1.27766.7506.0725.92934-.44456,2.01061.18493,2.8219.53168.74675,3.0973,1.28706,3.78553,1.9892.41914.6939,1.06059,3.22711,1.57128,3.59503.34559.33112.73823.39264,1.3888.49463,1.7429.18949,4.21033.93241,4.33257,3.08212-.02537,1.07767.9491,1.60131,1.90326,1.72103.3609.07502.85529.17768,1.07776.32593,1.26168.81511,1.18709.90225,2.26056,1.44586,3.94085,8.25214,4.3402,17.99806,4.81189,27.03186-1.77399-1.60834-4.17206-2.6546-6.98706-2.89575l-.27734,3.23828c3.88293.3327,6.52637,2.51538,7.15643,5.72394-.21434,4.76966-.12206,9.60117.17877,14.38495.03235,2.53943,3.73621,2.51636,3.75024.00006-.16876-4.08362-.18176-8.44073-.14606-12.69879.85888-4.40159,5.38197-8.57286,9.93707-7.58936l.65234-3.18359c-3.72935-.83378-7.95337.85775-10.53381,3.83527-.0011-.03339-.00256-.06665-.00366-.1001.73082-8.25771,3.57497-16.29118,7.13019-23.72998.61261-.1026,1.23785-.24854,1.73694-.49097.4787-.20366,1.53907-.23621,2.02588-.3194,1.54418-.21961,2.39285-2.2354,3.96241-2.36118.47567.0002.79934.1926,1.26591.19615,1.14485.04963,1.7563-1.58054,2.5531-2.36084.42949.02595.85553.1973,1.2854.19329,1.09722-.01552,1.68196-1.11679,2.40942-2.03332.39-.08841.76215-.08305,1.09247-.22778.46014-.20227.63782-.58533.72015-.8208.59262-.07077,1.34775-.04966,1.72046-.88287.13744-.24013.32606-.56838.42548-.80267.74127.0528,1.44112-.19021,1.71062-.764.13081-.2562.25502-.43363.38155-.55118.80337-.19115,1.81889-.06365,2.323-.99493.2138-.40924.20983-.88831-.01093-1.31439Z" fill="#2e541a"/>
      <g id="stem_1_right_back_yellow" data-name="stem 1 right back yellow">
        <path d="m174.60619,322.38959l-3.21191-.49512c.85876-6.42148,7.38218-12.3169,13.92432-10.86621l-.65234,3.18359c-4.77344-1.01762-9.44194,3.54121-10.06006,8.17773Z" fill="url(#linear-gradient)"/>
      </g>
      <g id="stem_1_left_back_yellow" data-name="stem 1 left back yellow">
        <path d="m174.34154,322.05023l-3.24805-.1123c.14502-4.19189-2.72217-7.1543-7.30371-7.54688l.27734-3.23828c6.25244.53564,10.47754,5.01709,10.27441,10.89746Z" fill="url(#linear-gradient-2)"/>
      </g>
      <g id="ROOTS">
        <path d="m191.94505,343.99213c-2.34814-2.17047-5.06097-3.96881-7.95984-5.35565,2.61502.0924,5.21543.6378,7.51715,1.67639-2.34002-1.8654-5.96035-1.87364-8.87012-2.28577-.71594-.30463-1.43793-.59332-2.17065-.84692-2.18793-.40588-4.37213-.47595-6.36945-1.44543-.16907-.08679-.32715-.19763-.44556-.30579-.00732-.28546-.01447-.57239-.02161-.85712-.00647-.83026-1.26082-.7989-1.24994.01184-2.19708,2.40564-5.64618,3.25165-8.73389,3.88922-.0127.00128-.02283-.00244-.03625.00043-.01562.00385-.02686.01233-.0423.01636-.00482.00098-.00989.00214-.01471.00311-3.27228,1.16052-6.55133,2.58704-9.09241,5.00397-.09711.0946.06226.23157.14447.13812,2.04913-1.82208,4.61664-3.03204,7.21777-3.96405-.11334.12518-.2254.25134-.33435.37555-1.5722,1.98029-2.73505,4.26758-3.49841,6.67084-.03845.12488.15527.1795.19098.05914.82709-2.32343,2.05811-4.55212,3.65808-6.42828.38879-.43701.84174-.87866,1.31903-1.13367.18451-.05994.36957-.12286.55341-.18066,3.05957-.51074,6.24341-1.12939,8.67865-3.12042.01025,1.05341.0282,2.10364.0484,3.14905-.6741,1.22996-2.09956,2.21769-3.16901,3.16071-.83639-.12434-1.71006.09496-2.52234.2135-2.35107.48615-4.73132,1.2121-6.65802,2.70319-.10242.08118.02588.23651.12372.15692,2.42578-1.65625,5.49188-2.44055,8.42053-2.54321-3.06012,2.50671-6.50507,4.90259-8.08051,8.62689-.04584.12451.14795.18658.18756.06903,2.39616-4.94858,7.92124-7.28055,11.71881-10.95782.00922.66742.00983,1.33417.00671,1.99982-1.23718.85083-1.68195,2.36017-2.46576,3.50269-.98358,1.07349-2.3075,1.84094-3.25269,2.97144-2.08722,2.1084-3.8396,4.57843-5.91327,6.66608-.1178.08209.02051.24652.12079.15948,2.17963-2.06219,3.95654-4.43823,6.12079-6.49921.37109-.4176.79291-.77118,1.22406-1.11243-.32654.63843-.57886,1.31195-.73401,2.00146-.29553,1.13611-.32184,2.34497-.88867,3.32721-.07251.10834.09784.21704.16724.11011,1.06879-2.02197.93683-4.5777,2.57892-6.31836.37164-.29163.7359-.59174,1.06653-.93134.71942-.90833,1.15729-2.06268,1.96924-2.82178-.00116.05804.00012.11621-.00116.17426-.16083,1.63208-.23248,3.32416-.26801,5.02661-.84887,1.5134-1.31591,3.15204-2.27667,4.56085-2.16681.20557-3.73065,1.79877-5.11786,3.29529-.4765.47247-.96478,1.04901-1.59521,1.15601-.14508.00214-.12433.22351.01556.1994.7691-.14856,1.24438-.72656,1.74811-1.18866,1.27631-1.31061,2.74823-2.72778,4.58844-3.01709-.3938.3949-.8772.81299-1.1463,1.30194-1.42926,2.36334-2.20044,4.99512-2.89862,7.63684-.03198.12854.16577.16931.19391.04852.89771-2.8183,1.74371-5.90594,3.70697-8.16864,1.35315-1.04144,2.00488-2.71478,2.75055-4.258-.00391,2.17133.07635,4.33783.20557,6.44061-.81812,2.77277-3.25891,4.92456-3.802,7.82202-.00653.05249.02869.10461.0816.11401.75275-2.3656,2.60388-4.29205,3.77783-6.53693.00922.30426.0199.60834.026.91296-.00079.01782-.00684.03259-.00452.05206.00146.00879.00525.01636.00671.02509.07758,4.02954-.06934,8.08777.70227,12.06805.0238.13043.22223.08099.19623-.03754-.45703-3.41388-.41724-6.87469-.32288-10.33575,1.0481,2.14441,3.0921,3.78009,4.06311,5.9834.05402.11731.23267.0321.18237-.08173-1.01672-2.6637-3.74829-4.70197-4.20184-7.51831.08855-2.32966.08935-4.64685.08496-6.96143.76526,1.30225,1.72839,2.54474,2.82867,3.52338,2.01233,2.58905,2.14624,6.06018,2.61975,9.20563.01746.12878.21179.09546.19666-.02588-.33295-2.76477-.43042-5.82117-1.75439-8.34351,1.83881,1.90045,2.96088,4.41333,4.65082,6.44116.10559.09509.2348-.08209.12152-.15857-1.90741-2.43951-3.09332-5.55103-5.60138-7.55157-1.33313-1.32794-2.26233-2.79236-3.03571-4.51453.06628-1.53839.20941-3.07275.34631-4.60132.70728.63916,1.51465,1.10516,2.32642,1.56158,1.59653,2.46893,1.90721,6.11775,3.84942,8.28723.04682-.02942.06086-.09119.0315-.13794-1.49764-2.37644-1.93487-5.06723-3.05035-7.66882.29559.17688.58777.35925.86768.56238,2.30768,2.08606,3.94843,5.06146,4.51935,8.12347.01947.13031.21271.09851.19849-.02545-.42029-2.73407-1.64124-5.38208-3.44873-7.49573,2.79239,1.17909,5.89733,2.23806,8.12567,4.23779-1.92914-2.71667-6.18536-3.4248-8.95117-5.17041-.01685-.01257-.0379-.00592-.05664-.01318-.01959-.0191-.03693-.04047-.05664-.05945-1.38428-1.10815-3.20715-1.86633-4.27209-3.23499.03986-.48254.08301-.96558.11285-1.44684.00769-.3042.00696-.60767.01147-.91162,1.20421,1.20014,2.80192,1.67044,4.33374,2.28955,1.48218,1.03345,2.29681,2.92169,3.57825,4.20557.09159.09385.23627-.05404.13922-.14355-1.00708-1.08209-1.69098-2.52301-2.70026-3.62903,2.37952,1.04993,4.67346,2.34955,6.47186,4.16919.07373.1181.2439-.00403.16675-.11072-2.03497-2.33624-4.89111-3.73236-7.61115-5.12152-1.69507-.64697-3.26941-1.40717-4.34595-2.91321-.00458-.00598-.01172-.00842-.01654-.0141.00165-.69098-.00409-1.38055-.01312-2.06927,1.23358.85883,2.75647,1.10413,4.28748,1.27026,2.60492.73529,4.2066,3.76276,6.49646,4.91443.03339-.04407.02472-.10675-.01929-.14014-1.8086-1.37651-3.15688-3.32493-5.04803-4.62219.44153.05048.87671.10803,1.29675.18842,3.17157,1.0957,5.95782,3.72498,7.73279,6.54028.05713.12231.23553.02771.18066-.08636-1.73163-2.97028-4.52057-5.78644-7.78979-7.00281-2.3479-.59888-5.53131-.46655-7.1593-2.38995-.01068-.53802-.02081-1.07581-.034-1.61176,2.08136.91956,4.45502.883,6.64606,1.19122,2.53253.68579,4.90625,1.98511,7.18835,3.2793,1.51178.91296,3.02313,1.87012,4.29095,3.09375.0965.09485.22876-.04865.14441-.13867Z" fill="#fff"/>
      </g>
      <path d="m187.90035,309.99905c-2.33725-.01157-3.95928.70655-5.41776,2.02496l.40509.88541c.48232,1.00896,1.24088,1.46675,1.47254,2.69938.96904,4.56476,6.0776,7.37678,9.29083,6.17904,2.02555-.91526,1.85421-2.59827,1.65702-3.45694,1.29663-.4813,1.8088-2.06732,1.31504-3.44084-1.44666-3.33321-4.41089-4.74084-8.72277-4.89101h0Z" fill="#64681e"/>
      <path d="m159.09645,308.83685c-2.88031-.04937-6.19951,1.33588-7.70814,3.42692-.75737,1.05779-.76895,1.9731-.64531,2.55465.50996,2.09628,2.39577,1.97965,3.49684,2.04843.04023,1.84141.77389,4.00638,3.35877,4.00526,2.23009.00005,4.46565-1.96055,5.59978-3.12925,1.06448-1.09692,1.35715-2.01001,1.57083-2.67673.18481-.57663.27759-.86606.86378-1.31393l1.15149-.87979c-2.11681-2.3018-4.92244-4.15859-7.68803-4.03555h0Z" fill="#64681e"/>
      <path d="m196.15619,273.8237c-1.00267.00674-1.78166.30247-2.20786.45145-.13829.03271-.28608.07872-.42676.12527-.55298-.18434-1.32488-.27336-1.58849-.27136-.81279.02221-1.52737.52369-1.94235.83371-.51869-.10353-1.22516-.15036-1.68119.14742-.62044.37472-.8335,1.34365-1.36132,1.91041-.51907.14103-1.49425.17989-1.9168.34578-.7237.17461-.9826,1.43201-1.28979,2.37504-.50582.60638-.83873.74042-1.20595,1.0675-.5937.51788-.90073,1.91452-1.18608,3.01223-.32009.72116-1.28405.97003-1.43267,1.84645-.1236.66292.30315,1.16485.40861,1.78442-.65988.94452-1.20358,1.94498-.44762,2.93732l.13736.33453c.25096.12743.64347.32674.89325.45358.90382-.11937,1.95523-.25516,2.73968-.63498.47837-.20352,1.53932-.23625,2.02591-.3194,1.54419-.21963,2.3928-2.23538,3.96237-2.36115.47569.0002.79935.19255,1.26591.19612,1.14526.04955,1.75604-1.58044,2.55312-2.36081.42951.02591.85553.19731,1.28543.19326,1.09718-.01553,1.682-1.11679,2.40941-2.03332.39002-.08836.76216-.08305,1.09247-.22775.46013-.20231.63779-.58536.72012-.82084.59264-.07069,1.34776-.04967,1.72046-.88284.13746-.24018.3261-.56835.42549-.8027.74129.05279,1.44117-.19018,1.7106-.764.13086-.2562.25507-.4336.38155-.55118.80346-.19102,1.81883-.06373,2.323-.99493.2138-.40921.20983-.88827-.01088-1.31439-.28188-.54425-1.85147-1.82623-3.7673-2.67761-1.66592-.74375-3.45941-.89822-5.58969-.99722h0Z" fill="url(#linear-gradient-3)"/>
      <path d="m149.22304,258.83974c-3.17986-.1419-2.63048,2.56457-2.32143,4.72382-.07041.52336-.55216.81618-.43063,1.53481.05352.34313.18792.58434.27471.72298-.00195.05145-.0088.13654-.02907.26611-1.01043,1.5856-.21131,2.27597,1.3273,3.3681.01359.41094-.07735.84.41598,1.33482.3264.29939.8585.46748,1.27765.7506.07256.9293-.44456,2.01059.18493,2.8219.53173.74669,3.09729,1.28707,3.78553,1.9892.41914.69388,1.06064,3.22711,1.5713,3.595.34559.33112.73826.39267,1.3888.49463,1.74369.1898,4.20991.93217,4.3326,3.08212-.02507,1.07817.94879,1.60107,1.90323,1.72103.36092.07505.85529.17771,1.07775.32596,1.30889.85687,1.33547,1.0006,2.50375,1.57007.351.02607.92673.0689,1.28224.09534.1263-.14949.45503-.59601.57808-.72224.83806-.9555.67417-1.5133.06435-3.58871-.18997-.59547.34008-1.02735.40876-1.64377.0719-.9443-.72416-1.96037-.661-3.00767.1888-1.89077.51526-5.79347.08431-6.01604-.19476-.40213-.6894-.7908-.99347-1.19025-.1085-2.29889.01463-3.31038-2.39296-3.2121-.27341-.12064-.56191-.68627-.57572-1.08527-.00585-.49288-.46458-1.13586-.8977-1.33453-.00518-.20289-.00191-.60336-.33671-1.0062-.24909-.2948-.48539-.45254-.69973-.54816-.33805-.83934-.62958-2.03729-1.83167-2.05964-.52632-.01589-.92021.29339-1.41837.14628-.38421-.64237-.7993-1.39326-1.67384-1.43796-.24979-.01538-.66604.00332-.83925-.08676-.59186-.49462-1.07445-1.28868-2.0588-1.29177-.62957-.00915-1.09811.40367-1.58221.69115-1.50836-.82581-2.84784-1.00288-3.71872-1.00288h0Z" fill="url(#linear-gradient-4)"/>
      <path d="m204.40324,278.07343c-.06647-.1283-1.25964-1.26349-3.16498-2.11023-1.29101-.66314-5.31697-1.29121-6.97082-.47857-.33814.06952-.72388.29339-1.07905.12585-.25507-.12024-1.08905-.23938-1.23712-.23102-.63837.03613-1.28815.69031-1.5708.82983-.26959.13306-1.12262-.20758-1.43488-.02307-.10358.06122-.85382,1.75714-1.47534,1.98102-.54944.19788-1.80389.2915-1.97491.35986-.14075.05627-.5459,1.70386-.68042,1.875-.66211.84247-1.30206,1.19861-1.40106,1.29639-.39532.39026-.62701,1.63007-.86102,2.46143-.25079.89069-1.37573,1.56042-1.40521,1.72638-.04395.24744.77081,1.47845.26178,2.19751-.51105.72186-.65173,1.06836-.64777,1.2771-1.13879,2.06146-2.14551,4.18964-3.06946,6.35181-1.75586,4.34094-3.44061,8.79877-4.45966,13.38678-.77166-8.02028-1.6225-16.47487-5.66687-23.60657.20441-.29663.1261-.57849-.35486-2.21527-.32977-1.12231.32391-1.8327.36975-2.1662.0307-.22357-.72418-1.6532-.67163-2.89062.04907-1.15503.5354-4.75391.21198-5.41095-.08105-.16461-.73126-.72974-1.0401-1.23309-.15265-.24884-.09961-2.26599-.24792-2.39441-.18024-.15601-.7746.03552-1.36493-.13599-.21686-.06305-.70325-.34991-1.08002-.97577-.32172-.53455-.33307-1.26685-.40387-1.35956-.20471-.26801-.58136-.29572-.67682-.51239-.2724-.61829-.11511-.84259-.21631-.96234-.30511-.36115-.38599-.1496-.65991-.42786-.28729-.29175-.58545-1.73914-.91815-1.73682-.61212.15635-1.64156.32884-2.23285-.10283-.167-.09798-.63935-1.17653-.91962-1.19038-.38281-.0188-.91772.01294-1.37756-.23859-.55756-.30505-1.0827-1.22455-1.52228-1.1319-.43964.09265-1.22308,1.04498-1.9696.61505-2.28925-1.31848-4.21466-.89642-4.3468-.7594-.51917.53839-.10669,1.83423.0033,3.19952.06067.75336-.46552,1.28815-.44147,1.44238.06396.40973.42365.30505.2373,1.4267-.06384.38428-.44409.76801-.42291,1.05682.01221.16656,1.11725.90735,1.53961,1.28607.34833.31238.18634,1.13965.25031,1.19904.15991.14844,1.49628.65106,1.61499,1.16858.23047,1.00458-.21936,2.29059-.01495,2.55414.24933.32153,3.31427,1.14899,3.85541,2.09332.54114.94427,1.12695,3.1134,1.37842,3.35437s3.86224.1922,5.30396,2.29279c.96472,1.40564.7298,2.13232.84357,2.36725.15619.32257,1.58215.29224,2.38318.82599,1.87408,1.24884,1.26123.92603,2.15472,1.38245l.203.01508c1.85236,3.30023,2.7486,7.09442,3.50659,10.78778,1.14203,6.15808,1.68268,12.44928,1.7796,18.71393-.04523.7326-.07483,1.46753-.07239,2.20679.0022.03589.01788.06042.02441.0929-1.36719-2.98444-4.34912-4.99182-8.31012-5.33112l-.06445.74707c4.51501.3869,7.65942,3.09882,8.31866,6.95453-.11426,4.81207-.19434,9.65472.1601,14.39996-.00385.84698,1.26013.81189,1.25024.00006-.1911-4.29486-.20667-8.51184-.16211-12.74213.89771-5.14778,6.1618-9.92929,11.4541-8.77063l.15039-.73438c-4.7514-1.07374-9.77548,2.45934-11.5733,6.90558.01941-1.21942.03973-2.43872.06427-3.66583-.00671-.25342-.01849-.50665-.02655-.76007.75859-8.66786,3.75305-17.08786,7.55896-24.86438l.03668.01862c.60181-.08081,1.45123-.21454,1.97437-.46869.65277-.31708,2.04846-.3678,2.33832-.42297.70392-.13403,1.36591-.99316,2.41504-1.76392,1.56787-1.15186,2.86505-.32196,3.10913-.43384.24408-.11194,1.14136-1.59241,1.76636-2.13538s1.88208.11945,2.14343-.05011c.21423-.13904.97937-1.01837,1.38672-1.67719.20984-.33942,1.32465-.38184,1.47876-.44958.06158-.0271.13458-.65234.46771-.79218.40381-.16943,1.27411-.13306,1.32227-.24841.0835-.20007.46606-.76758.50848-1.05536.12378-.8399,1.52911-.33209,1.67285-.60791.05408-.10376.30573-.63141.76318-.99603.54614-.43542,2.19012-.20752,1.92896-.71179Z" fill="#95c172"/>
      <path d="m187.90021,311.24905c1.45848-.00003,2.89944.3204,3.89035.68301,2.50191.91553,4.47533,3.45868,3.52254,4.89722-.20244.30563-.7574.39771-1.30775.80154-.4498.33005,1.13538,2.11221-.86888,3.01773-2.6662.82951-6.74823-1.61231-7.54984-5.28108-.31167-1.58364-1.22634-2.24395-1.56227-2.97814,1.05028-.84305,2.47119-1.14029,3.87585-1.14029" fill="#c6c359"/>
      <path d="m159.09645,310.08685c1.46219,0,3.46632.4259,5.77766,2.67206-1.74854,1.33594-.80376,2.2905-2.5728,4.11343-1.20106,1.19825-3.7226,3.50599-5.76444,2.49464-1.35428-.71718-.78102-2.78563-1.29455-3.45067-.53807-.69681-2.93233.26169-3.27666-1.35785-.42753-2.30861,4.21684-4.64119,7.13078-4.47162" fill="#c6c359"/>
      <path d="m204.40325,278.07345c.26118.50425-1.38284.27637-1.92897.71176-.45742.36467-.70909.89227-.76319.99606-.14375.2758-1.54903-.23199-1.67284.60792-.04242.2878-.42498.8553-.50847,1.05535-.04813.11533-.91846.07897-1.32228.24844-.33311.13979-.40608.76507-.46772.79216-.15411.06774-1.2689.11016-1.47876.44957-.40735.65881-1.17246,1.53815-1.38671,1.67716-.26135.16957-1.51843-.49283-2.14342.05013s-1.52227,2.02346-1.76637,2.13535-1.54128-.71796-3.10913.43389c-1.04913.77076-1.71111,1.62986-2.41502,1.7639-.28984.05519-1.68557.10591-2.33834.423-.52311.2541-1.37257.38785-1.97437.46866l-.1324-.06723c-.14151-.34465-.62356-.26993.41414-1.73573.50904-.71905-.30573-1.9501-.26176-2.19755.02948-.16591,1.15441-.83569,1.40517-1.72636.23406-.83134.46575-2.07118.86103-2.46143.09905-.09779.73899-.45393,1.4011-1.2964.13451-.17114.53966-1.81873.68042-1.87498.17102-.06834,1.42549-.16199,1.97491-.35989.62151-.22387,1.37174-1.91975,1.47532-1.98096.31227-.18455,1.16529.15607,1.43488.02302.28268-.13951.93247-.79369,1.57084-.8298.14803-.00837.98201.11076,1.23706.23103.35522.1675.74096-.05638,1.07905-.12587,1.66111-.81005,5.66317-.18318,6.97079.4786,1.90538.84669,3.09859,1.98191,3.16504,2.11021Z" fill="url(#linear-gradient-5)"/>
      <path d="m148.14416,260.26361c-.51918.53839-.10668,1.83427.0033,3.19953.06069.75339-.46555,1.28818-.44148,1.44238.06397.40976.42364.30509.2373,1.42669-.06385.38432-.44407.768-.42289,1.05687.01221.16653,1.11725.90735,1.53956,1.28606.34836.31239.18634,1.13964.25031,1.19901.15994.14844,1.4963.65105,1.61503,1.16858.23046,1.00456-.21936,2.29061-.01498,2.55418.24931.32153,3.31429,1.14897,3.85541,2.09327s1.12694,3.11341,1.37843,3.35439,3.86222.19224,5.30394,2.29282c.96473,1.4056.72978,2.13232.84356,2.36725.15621.32254,1.58218.29223,2.3832.826,1.8741,1.24882,1.26122.926,2.1547,1.38242l.36609.02722c.57618-.73443.68745-.37464.01518-2.66257-.32978-1.12235.3239-1.83274.3697-2.1662.03071-.22358-.72414-1.65323-.67158-2.89067.04906-1.15501.53538-4.7539.21193-5.4109-.08105-.16463-.73124-.72976-1.04006-1.23312-.15265-.24881-.09963-2.26598-.24797-2.39438-.18023-.15601-.77458.03549-1.36488-.13602-.21689-.06302-.7033-.34989-1.08004-.97579-.32173-.5345-.33308-1.26685-.40385-1.3595-.20473-.26805-.58138-.29572-.67685-.51243-.27239-.6183-.11509-.84254-.21629-.96232-.30513-.36112-.38598-.14962-.65993-.42785-.28725-.29174-.58545-1.73913-.91814-1.73681-.60916.15596-1.64352.32889-2.23282-.10283-.16705-.098-.6394-1.17656-.91961-1.19036-.38285-.01885-.91776.01294-1.37758-.23862-.55759-.30505-1.0827-1.22454-1.5223-1.13188s-1.22307,1.04496-1.96958.61503c-2.28926-1.31845-4.21471-.89639-4.34681-.7594Z" fill="url(#linear-gradient-6)"/>
      <g id="stem_1_right_yellow" data-name="stem 1 right yellow">
        <path d="m173.37083,322.19916l-.74121-.11426c.76505-5.73364,6.57827-11.12074,12.43799-9.83203l-.15039.73438c-5.45513-1.18643-10.83531,3.88858-11.54639,9.21191Z" fill="url(#linear-gradient-7)"/>
      </g>
      <g id="stem_1_left_yellow" data-name="stem 1 left yellow">
        <path d="m173.09251,322.00726l-.75-.02637c.16748-4.8374-3.22705-8.38818-8.44629-8.83545l.06445-.74707c5.64355.4834,9.31348,4.34473,9.13184,9.60889Z" fill="url(#linear-gradient-8)"/>
      </g>
      <g id="leaf_2_right_hi" data-name="leaf 2 right hi">
        <path d="m204.40325,278.07345c.26118.50425-1.38284.27637-1.92897.71176-.45742.36467-.70909.89227-.76319.99606-.14375.2758-1.54903-.23199-1.67284.60792-.04242.2878-.42498.8553-.50847,1.05535-.04813.11533-.91846.07897-1.32228.24844-.33311.13979-.40608.76507-.46772.79216-.15411.06774-1.2689.11016-1.47876.44957-.40735.65881-1.17246,1.53815-1.38671,1.67716-.26135.16957-1.51843-.49283-2.14342.05013s-1.52227,2.02346-1.76637,2.13535-1.54128-.71796-3.10913.43389c-1.04913.77076-1.71111,1.62986-2.41502,1.7639-.28984.05519-1.61564.23255-2.33834.423-1.69084.44559-1.86617.399-1.86617.399,2.32204-3.96416,7.18134-7.39124,8.22672-8.20634,7.31646-5.70472,14.87422-3.66565,14.94067-3.53735Z" fill="#a6d67c"/>
      </g>
      <g id="leaf_2_left_hi" data-name="leaf 2 left hi">
        <path d="m148.14416,260.26361c-.51918.53839-.10668,1.83427.0033,3.19953.06069.75339-.46555,1.28818-.44148,1.44238.06397.40976.42364.30509.2373,1.42669-.06385.38432-.44407.768-.42289,1.05687.01221.16653,1.11725.90735,1.53956,1.28606.34836.31239.18634,1.13964.25031,1.19901.15994.14844,1.4963.65105,1.61503,1.16858.23046,1.00456-.21936,2.29061-.01498,2.55418.24931.32153,3.31429,1.14897,3.85541,2.09327s1.12694,3.11341,1.37843,3.35439,3.86222.19224,5.30394,2.29282c.96473,1.4056.72978,2.13232.84356,2.36725.15621.32254,1.58218.29223,2.3832.826,1.8741,1.24882,2.5698,1.48119,2.5698,1.48119-1.99949-6.42753-4.05079-11.53967-9.27038-15.93342-4.84338-4.07706-6.63263-6.86265-9.83012-9.81477Z" fill="#a6d67c"/>
      </g>
      <g id="leaf_1_right_hi" data-name="leaf 1 right hi">
        <path d="m184.02435,312.38936c3.23589.18092,5.62965,1.26783,7.07341,2.03648,2.6823,1.42804,3.45793,2.80117,2.90757,3.20499-.44979.33004,1.13538,2.11222-.86888,3.01774-1.9245.86949-6.76231-1.28137-7.54977-5.28122-.31174-1.5835-1.22641-2.24381-1.56234-2.97799Z" fill="#cfd16b"/>
      </g>
      <g id="leaf_1_left_hi" data-name="leaf 1 left hi">
        <path d="m164.87411,312.75891c-2.25393-.10348-3.9224.17145-5.74117.86634-1.9525.74598-4.42868,1.59428-3.89062,2.29109.51354.66504-.05972,2.73348,1.29454,3.45062,1.92527,1.01952,4.5691-1.2628,5.76446-2.4946,1.76903-1.82296.82426-2.77752,2.57279-4.11345Z" fill="#cfd16b"/>
      </g>
      <g id="leaf_2_right_hi_yellow" data-name="leaf 2 right hi yellow">
        <path d="m204.40325,278.07345c.26118.50425-1.38284.27637-1.92897.71176-.45742.36467-.70909.89227-.76319.99606-.14375.2758-1.54903-.23199-1.67284.60792-.04242.2878-.42498.8553-.50847,1.05535-.04813.11533-.91846.07897-1.32228.24844-.33311.13979-.40608.76507-.46772.79216-.15411.06774-1.2689.11016-1.47876.44957-.40735.65881-1.17246,1.53815-1.38671,1.67716-.26135.16957-1.51843-.49283-2.14342.05013s-1.52227,2.02346-1.76637,2.13535-1.54128-.71796-3.10913.43389c-1.04913.77076-1.71111,1.62986-2.41502,1.7639-.28984.05519-1.61564.23255-2.33834.423-1.69084.44559-1.86617.399-1.86617.399,2.32204-3.96416,7.18134-7.39124,8.22672-8.20634,7.31646-5.70472,14.87422-3.66565,14.94067-3.53735Z" fill="url(#linear-gradient-9)"/>
      </g>
      <g id="leaf_2_left_hi_yellow" data-name="leaf 2 left hi yellow">
        <path d="m148.14416,260.26361c-.51918.53839-.10668,1.83427.0033,3.19953.06069.75339-.46555,1.28818-.44148,1.44238.06397.40976.42364.30509.2373,1.42669-.06385.38432-.44407.768-.42289,1.05687.01221.16653,1.11725.90735,1.53956,1.28606.34836.31239.18634,1.13964.25031,1.19901.15994.14844,1.4963.65105,1.61503,1.16858.23046,1.00456-.21936,2.29061-.01498,2.55418.24931.32153,3.31429,1.14897,3.85541,2.09327s1.12694,3.11341,1.37843,3.35439,3.86222.19224,5.30394,2.29282c.96473,1.4056.72978,2.13232.84356,2.36725.15621.32254,1.58218.29223,2.3832.826,1.8741,1.24882,2.5698,1.48119,2.5698,1.48119-1.99949-6.42753-4.05079-11.53967-9.27038-15.93342-4.84338-4.07706-6.63263-6.86265-9.83012-9.81477Z" fill="url(#linear-gradient-10)"/>
      </g>
      <path id="root_main_fade" data-name="root main fade" d="m172.375,334.57266l-.15218-2.67834c-.07058-.87667,1.267-.97478,1.32277-.09566.00683.01579.07459,2.75478.07942,2.77236.01504.83823-1.25859.83948-1.25001.00165Z" fill="url(#linear-gradient-11)"/>
    </g>
  </g>
</svg>