<?xml version="1.0" encoding="UTF-8"?>
<svg id="Layer_2" data-name="Layer 2" xmlns="http://www.w3.org/2000/svg" xmlns:xlink="http://www.w3.org/1999/xlink" viewBox="0 0 394 469">
  <defs>
    <linearGradient id="linear-gradient" x1="173.0422" y1="335.22273" x2="173.0422" y2="331.12504" gradientUnits="userSpaceOnUse">
      <stop offset="0" stop-color="#fff"/>
      <stop offset=".34875" stop-color="#fff"/>
      <stop offset=".90496" stop-color="#fff" stop-opacity="0"/>
      <stop offset="1" stop-color="#fff" stop-opacity="0"/>
    </linearGradient>
  </defs>
  <g id="CASE_5_Plants_LL_WL_CH" data-name="CASE 5 Plants LL WL CH">
    <g id="Day_12" data-name="Day 12">
      <g id="rectangle">
        <rect width="394" height="469" fill="none"/>
      </g>
      <g id="ROOTS_BACK" data-name="ROOTS BACK">
        <path d="m190.59306,340.96875c-.97253-.95984-2.0354-1.75226-3.16052-2.42273.06873-.56177-.18542-1.1582-.89178-1.40985-1.00024-.38245-2.65979-.76807-3.64838-.57495-.7207-.2251-1.45099-.42865-2.19403-.60052-1.95441-.34082-4.04205-.42188-5.82715-1.21161-.00012-.06097.00433-.11578.00378-.17725-.07587-2.30994-3.27667-2.44562-3.70013-.37347-1.22162,1.3678-3.05267,2.19257-4.90668,2.44189-.90326.15399-2.3208-.02753-3.79199.20776-1.54303.16687-5.6709,1.94214-4.07483,3.97284.85094.84135,1.72281.26689,2.43921-.3941.00391.34198.1438.67133.46954.96674.57355.4762,1.4245.39722,1.90063-.17639.60971-.72876,1.24129-1.35039,2.06842-1.50226.83453.0331,1.82187-.04432,2.6814-.23468-1.29614.73987-2.59644,1.56787-3.61407,2.70868-.89008,1.11011-3.06995,3.72833-1.08148,4.74261.68811.2865,1.47827-.03906,1.76483-.72711.75238-1.98145,2.59259-3.13776,4.52319-4.11707-.22626.32324-.42883.6452-.59998.94153-.28253.43481-.44604.65308-.74823.89386-2.40253,1.91193-4.32806,4.30737-5.48041,7.1897-.59796,1.63989,1.80371,2.60229,2.50452,1.00732.35614-.82812.84363-1.6311,1.39844-2.39191,1.07721.91675,2.26556-.16852,2.62787-1.30109.28601-.83191.1593-1.32593.51294-1.91345.54828-.43536,1.10114-.89038,1.49512-1.39606.00421.12323.00531.24969.00873.3736-.88379,1.62091-1.29694,3.31769-2.39459,4.67999-.96954.78387-1.78027,1.79211-2.37805,2.86108-.56525,1.28668-2.55176,4.26038-.44373,5.0368.73352.21649,1.50122-.2265,1.68872-.96625.38794-1.29022,1.11871-2.70935,2.03674-3.73828.31067-.36176.7027-.6618,1.06873-.95435.25183-.23425.47327-.48877.68005-.75262-.00195.06598-.00336.13171-.00586.198-.59094,1.95453-2.87378,3.9079-3.0741,6.20447-.23114,1.72961,2.32196,2.15625,2.66321.44373.03827-.16992.10834-.33368.17017-.49902.06976,1.11127.25537,2.20581.69446,3.24872.5954,1.64575,3.06594.8327,2.5636-.84735-.05658-.16132-.10022-.32446-.14447-.48761.08673.12341.1731.24567.26001.38776.70734,1.0777,2.10986.61542,2.42932-.31921.33151,1.57606,2.65982,1.31888,2.63971-.29675.00092-.13043-.02124-.73413-.01886-.86639-.00677-.33026-.0235-.65961-.04614-.98804,2.87967-1.03128-.50116-4.21696-1.77826-5.29633-1.34271-1.51312-2.3302-2.617-3.18988-4.50568.01392-.30255.02985-.60632.04889-.91125.00891.0271.01202.05682.02185.08337.31537.91522.7536,1.51776,1.0542,2.33368.46052,1.23533,2.34121,1.0643,2.57367-.21924.51624.63531.63477,1.43848.82446,2.44788.29913,1.72192,2.86475,1.35535,2.67224-.38092-.05908-.46667-.12408-.94769-.23077-1.44263.30505-.04364.59772-.21765.87897-.61926.40607-.83148.17438-1.3775-.33344-1.77405.42761.23145.96039.24335,1.39246-.04926,1.8338-1.52911-1.15314-3.51849-2.18829-4.2901-.12646-.09973-.26379-.17798-.39514-.26813.3963-.13239.71521-.45282.86707-.84064.90723.39905,1.63885.94958,2.14343,2.0033.3222.64172,1.09943.92279,1.76178.62329,1.87494-1.06189-.04633-3.44031-1.53961-4.5752,1.65222.67157,3.20966,1.56409,4.43494,2.71771,1.27118,1.19946,3.10168-.62939,1.91357-1.90326Zm-15.64337,15.43219c-.54553-.53778-.59485-.72095-.6601-1.32703.07538-.60919.16064-1.22076.23804-1.8324.36951.41357.7486.80536,1.12708,1.16412.95435,1.17706,1.25726,2.97363,1.32727,4.51691.00073.00946.00085.01715.00146.02637-.00604-.0116-.00848-.02289-.01489-.03455-.46857-.89587-1.30627-1.87604-2.01886-2.51343Zm6.76074-9.27887c.07843.11926.18445.20636.29028.29199-.71417-.45355-1.78485-.70154-2.51599-1.0058-.71375-.56201-1.50909-1.02765-2.22821-1.52905-.56158-.35162-1.37036-.84711-2.00403-1.35614,2.20533.94652,4.95754,1.75963,6.45795,3.599Zm-5.42218-6.52362c.3985.08289.79596.159,1.19232.2345.24664.21887.53516.47076.83856.72968-.69733-.29449-1.38397-.59833-2.03088-.96417Z" fill="#4c4c4c"/>
      </g>
      <path d="m192.23595,311.86652c-2.81008-4.03863-8.5857-2.59196-11.51324,1.11133-1.83732.37828-3.78684,1.85751-5.06812,3.50378.12439-.47772.24951-.95264.39764-1.41571.19238-.117.37854-.24225.53662-.38501.25968-.18301.86924-.37108,1.12366-.4986.81439-.40967,1.16569-1.29817,1.7182-1.99426.24701-.31586.40124-.31586.57989-.31586.30581-.00987.64426.05112,1.12806-.33165.40231-.30671.65932-1.22991.95061-1.82222.36841-.01083.90447-.00041,1.34662-.49536.25805-.29535.58996-1.00342.79101-1.51111.45264-.13585.98592-.60307,1.0282-1.03528.32379-.12897.86652-.38953.9917-1.0575.041-.12724.09966-.33044.13257-.46112.33905-.10889.84229-.35461,1.00958-.98743.03931-.15332.07758-.25464.10901-.32129.9489-.29033,1.92771-1.22922,1.1805-2.36828-.36623-.52406-1.71822-1.19703-2.95229-1.46961-1.49247-.32319-4.07195-.0186-5.29236.97467-.03778.02185-.07599.04535-.11444.06989-.10072.00133-.63884-.0109-1.07541.12236-.53671.18061-.91244.584-1.16397.89491-.32623.03662-.76453.13025-1.11469.50049-.3972.43276-.3812.99455-.63525,1.55914-.36643.18906-.83447.33285-1.09766.54248-.53327.33959-.5495,1.23484-.63519,2.02948-.08026.16425-.16083.29572-.23383.40363.13044-1.2216-.0279-1.56891-.63995-2.37122.10004-1.54218-.00015-2.60944-1.56683-2.66943-.10137-.11687-.12339-.36354-.1347-.5235.01509-.32391-.21544-.8826-.50892-1.1109.05367-.34604-.30692-1.02275-.63501-1.22534-.16365-.64477-.41456-1.68456-1.48676-1.74811-.20828-.00968-.41288.02408-.57513.05707-.2196-.47791-.53699-1.05231-1.2486-1.16138-.09536-.01389-.23934-.03015-.33112-.04712-.34668-.46966-.79674-1.15981-1.71063-1.12689-.32348.02102-.63897.16676-.85004.30084-1.56584-.95306-3.07521-1.19454-3.99909-.4395-.84974.84257-.52215,2.08824-.51842,3.1801-.27715.41351-.49869,1.06474-.21088,1.63519-.00244.01532-.00549.03284-.00934.05292-.14977.25613-.35436.55925-.36133,1.06067-.02179.62985.50312,1.09377,1.03425,1.6214-.00006.00061-.00012.00122-.00018.00177-.01611.21112-.04974.65039.28217,1.0528.20109.24352.44189.36309.70691.56396-.60145,2.67269.58496,2.32296,2.35602,3.68109.27139.67024.48686,2.28451.87432,2.70013.29023.3631.66352.466,1.09577.5852.59015.16266,1.6886.46552,2.05884,1.177.27319.52502.27356.78046.2738.96692-.0986.89314.74134,1.51823,1.40912,1.66022.15234.05102.43609.14587.51782.21149.45047.39749.62552.56165.78302.70648.06711.74398.07536,1.59167.07147,2.39026-1.33784-1.54541-3.37568-2.99512-5.03723-3.38287-5.78266-10.19784-19.56072-.2568-11.25128,3.10052-.78665,4.54585,4.55178,5.70075,7.86293,3.60462,1.71973-1.06095,1.90672-2.34416,2.77355-3.5149,2.45258.8416,4.99138,4.12015,5.71533,6.38983.05524,3.38019.112,6.81995.02173,10.01221.03552,2.42859,3.57581,2.52399,3.74506.10596l.00494-.1059s.12921-2.74841.12915-2.74841c.09534-2.19312.04718-4.43402-.04761-6.66742.81773-2.89984,2.79935-7.50969,6.07867-8.7865.34332.35577.69623.77222.98706,1.33563,1.2547,2.43109,4.17194,4.26428,6.78571,4.26428,3.31926.09255,4.57943-3.36928,3.13916-5.41406,1.0235-1.49614,1.34882-3.01111.28882-4.617Z" fill="#2e541a"/>
      <g id="ROOTS">
        <path d="m189.69139,341.83435c-1.75751-1.70959-3.94189-2.97003-6.27295-3.80194.00751.00049.01904-.00171.02539-.00043.89655-.05511,1.78101.22223,2.63843.47974.12149.04034.18612-.14971.06323-.18964-1.05762-.41357-2.25769-.63391-3.37463-.49945-2.86762-1.04736-6.10776-.74154-8.84113-2.12848-.12451-.07043-.23206-.15448-.32135-.23883.00647-.29431.01996-.58624.0166-.88348-.01111-.80646-1.22559-.80432-1.24945-.01141-.0033.04932-.00507.1012-.0083.15063-1.41522,1.77429-3.6416,2.8692-5.9538,3.17096-2.38843.15369-5.3988-.15466-7.14105,1.96808-.08929.09332.05994.22815.14453.13837,1.34387-1.43036,3.08081-1.56885,4.87024-1.55707-.8764.39838-1.63574,1.0694-2.19275,1.86121-.07971.10223.07916.22516.15729.12366.77826-1.0163,1.82281-1.77606,3.05347-1.97083.39301.00616.78552.00964,1.17389-.00226,2.08887-.18219,4.19623-.97711,5.81543-2.41272-.03198.60132-.05402,1.20422-.07172,1.81604-.82953,1.59845-3.12567,2.24792-4.59802,3.28192-1.73688,1.04413-3.2702,2.58551-3.93817,4.53296-.04401.12262.14594.18756.18768.06915.74927-1.8584,2.26801-3.23773,4.00568-4.172,1.41388-.89368,3.10938-1.28906,4.31525-2.45288-.00488.69086.01373,1.3808.04071,2.0719-1.0213.5672-1.67657,1.61029-2.24988,2.55518-.5603.98779-1.54004,1.51758-2.31122,2.30249-1.60815,1.5788-2.96417,3.43335-3.78687,5.53406-.04785.12329.1427.19043.18616.07312.93508-2.13046,2.42413-4.01265,4.18201-5.5144-.37937.83044-.13245,1.84725-.82202,2.53333-.0854.0956.06289.23001.14874.13379.85925-.85352.51514-2.22662,1.25952-3.14575.60901-.46954,1.22339-.93701,1.6286-1.58618.54456-.80383,1.07373-1.54626,1.79388-2.02417.05042.81067.12634,1.61676.23938,2.41034.00354.45685.00867.92645.01538,1.39795-1.02689,1.69086-1.48128,3.84111-2.81592,5.26147-1.73608,1.39435-2.8125,3.51416-3.36603,5.64191-.03082.1275.16528.17035.19403.04852.63525-2.05096,1.7381-4.03198,3.49194-5.32733,1.22754-1.22186,1.77789-2.828,2.52576-4.30713.03638,1.31219.10254,2.63165.24799,3.87146.01459.30884.01306.61804.00427.92749-.50525,2.28558-2.80457,3.89008-3.11865,6.30145-.02075.12701.17706.1568.19727.03284.35394-1.91815,1.88666-3.20245,2.82281-4.83984-.30518,2.46661-.4591,5.04132.46163,7.40264.04041.11879.22904.05878.18992-.0628-.52637-1.4826-.5625-2.98029-.44135-4.4856.66016,1.24744,2.11389,2.03937,2.79816,3.32446.06616.1109.23694.01074.1734-.09961-.74298-1.64978-2.78986-2.51056-2.84894-4.43323.22131-1.82367.54254-3.65576.39569-5.48358.31732.56641.65411,1.12653,1.04877,1.64709.60242.88904,1.52209,1.57465,2.17047,2.38757,1.35004,1.71686,1.45599,3.92969,1.6402,6.04736.01392.12744.20728.10175.19623-.01984-.08624-1.82715-.14996-3.84039-1.03223-5.51843.13245.12408.3891.36456.3891.36456.5415.56262,1.22681,1.11401,1.45264,1.87549.03065.1254.22777.07624.19378-.04945-.46338-1.27976-1.49876-1.90558-2.57544-3.02611-1.41089-1.54236-2.65338-3.08258-3.47217-5.03967.04816-1.22278.13293-2.45599.16095-3.68787.69196.61603,1.48346,1.08484,2.28607,1.53949-.04584,1.07703.79016,1.96466,1.09821,2.95972.01978.04999.07593.07599.12701.05768.14148-.63837-.96252-1.9353-.95282-2.86285.47113.26721.94043.53796,1.3877.84259.81305.508,1.63208.96814,2.09045,1.76941.46381.78998.65802,1.73578.80939,2.66418.01947.1283.21265.09967.19836-.02539-.112-.94641-.25604-1.91705-.71936-2.8028-.18073-.28394-.38965-.53802-.61194-.77789.70196.19137,1.41157.37756,2.03528.7447.04663.02697.10681.01232.13544-.03394-.40161-.62769-1.73395-.76709-2.64917-1.16064-1.62097-1.43652-3.85834-2.21661-5.2287-3.89032-.00751-.83514-.05023-1.6684-.16962-2.49524-.0025-.0553.00116-.11151-.00079-.16687.50543.46173,1.06317.87695,1.67596,1.18042,2.7016,1.15881,5.73901,1.89728,7.63641,4.28723.07507.10693.23511-.00519.16669-.11066-1.17639-1.66382-3.02557-2.65338-4.81207-3.53284-1.78503-.72198-3.48792-1.38428-4.67242-2.93115.00818-.5058.02582-1.01514.05286-1.52728.73566.46283,1.57654.71649,2.35394.8913.66779.16498,1.37842.30212,2.1004.44379.98737.61481,2.23889,2.08325,2.78094,2.06396.03351-.04388.02515-.10663-.01874-.1402-.54694-.41803-1.07666-.85614-1.57233-1.32782-.14514-.15033-.30151-.30243-.46387-.45032,2.61102.5343,5.24365,1.2738,6.48334,3.75836.06049.11548.23181.0282.18054-.08624-1.50494-3.5614-6.03052-4.03333-9.31-4.97217-.94293-.25549-1.84119-.62878-2.48132-1.24207.01477-.26404.02948-.52765.04193-.79382.33984.16492.71252.27905,1.07544.41022,2.23657.69897,4.58148.53503,6.83551,1.06476,2.90265.75281,5.85138,1.93451,8.05438,4.02454.0946.09387.22833-.04816.14441-.13861Z" fill="#fff"/>
      </g>
      <path d="m191.48235,314.74066c.82318-1.92773-1.59717-4.2381-4.29688-4.08026-1.73962.10168-4.43762,1.48773-5.73126,3.45251-3.93404.62115-6.52736,5.12346-7.8598,8.66248-.0246-.47333-.04865-.94739-.07294-1.42151.2896-2.38492.68688-4.84402,1.5152-7.15277.26349-.13062.53052-.28186.71436-.44788.36823-.33252,1.22638-.60034,1.39954-.6875.42053-.21173.73322-.92877,1.29553-1.64777.84027-1.07446,1.73688-.70367,1.87531-.8233s.52661-1.31482.85211-1.80237,1.17834-.22839,1.32098-.39166c.11688-.13385.49115-.88232.66882-1.41553.09161-.27472.77679-.48999.8645-.56348.0351-.02936.00964-.48328.20001-.63745.23083-.18683.77362-.30579.79034-.39532.02911-.15521.20178-.61975.19556-.8302-.01825-.61401.90887-.48877.96667-.70758.02179-.08228.11798-.49695.35992-.83063.28882-.39838,1.33209-.51062,1.11346-.82349-.0556-.07965-.9223-.68347-2.1972-.96503-.91077-.20123-1.74213-.08691-3.13104.18921-1.03695.22596-1.21631.8786-1.8911.89953-.17147-.04266-.70107.01178-.79177.0423-.39105.13159-.7193.70184-.87854.84741-.15179.13879-.71826.03986-.89069.22217-.05719.06049-.33002,1.38348-.68939,1.64496-.31769.23114-1.08356.5058-1.1817.58252-.08075.06311-.14545,1.29462-.20935,1.43793-.3147.70532-.67053,1.06329-.72076,1.14886-.20062.34143-.20398,1.25598-.25494,1.88232-.05463.67102-.67523,1.33124-.67474,1.45337.00073.18213.64404.91656.41016,1.50922-.2876.72894-.29456.96729-.22833,1.09192-.56458,1.39739-.83288,2.21286-1.01099,2.79706-.08026-.91968-.21075-1.85828-.48822-2.74188-.03412-.19183-.07617-.41449-.13501-.71735-.1593-.82007.29144-1.28503.33606-1.51965.02991-.15735-.38721-1.22296-.29669-2.10101.08447-.81958.56091-3.35236.38428-3.84058-.04431-.12238-.4342-.56561-.60858-.94348-.08618-.18683.04047-1.62018-.04852-1.72095-.10809-.12244-.49707-.02332-.8667-.1825-.13586-.05847-.43378-.29327-.64594-.7627-.18121-.40088-.15485-.92322-.19586-.99365-.11859-.20374-.35822-.24707-.4093-.40741-.14581-.45746-.03491-.6073-.09412-.69897-.17859-.27631-.23999-.13074-.40247-.34613-.17029-.22577-.29449-1.27539-.50739-1.29456-.12494-.01129-.30878.05396-.53998.06775-.32202.01923-.64905-.09692-.88342-.28094-.10229-.08038-.35486-.87817-.53345-.90558-.24396-.03741-.58759-.04834-.87012-.25635-.34259-.2522-.63617-.94006-.92163-.90161-.2854.03839-.83026.66754-1.28796.31451-1.40363-1.08258-2.65454-.90271-2.7453-.81342-.35681.35089-.15253,1.29974-.14496,2.27905.00421.54041-.35699.88831-.34863.99963.02203.2959.2569.2439.08618,1.03107-.05853.26971-.31934.51917-.31903.7262.00012.11938.67285.71631.92554,1.01251.2085.24438.06683.82343.10498.86969.09552.11578.92712.55756.97925.93359.10126.72998-.24554,1.61774-.12695,1.8183.14465.24463,2.06696,1.02612,2.36969,1.73267.30267.70648.57764,2.28815.72742,2.47559.14978.18738,2.46143.37909,3.28699,1.96564.55243,1.06158.36877,1.56445.43073,1.73895.08508.2395.99854.30731,1.48633.73773.93542.82532.8562.7973,1.09839.96899.37305,2.22766.08093,4.65985.15649,6.94592-1.27209-2.52959-4.36925-5.83807-7.11108-6.16272-1.51508-3.04999-3.90948-4.21039-5.95526-4.3515-2.61755-.18048-5.72327,1.70984-5.7688,3.44177-.04016,1.52808,2.14252,1.53912,2.48242,2.27826.32446.70544-.4187,2.25012.66449,3.17853,1.53986,1.31976,4.00702.85699,5.37256,0,1.87689-1.17804,1.63727-2.89667,3.11145-3.80457,3.16534.46781,6.57952,4.84889,7.32086,7.70221.09247,3.13171.03241,7.10565-.00714,10.04816-.00677.81018,1.21423.83051,1.24866.03314.16227-3.14308.23966-6.43064.06958-9.59784.92659-3.53901,3.53648-9.16297,7.69135-10.05688.48535.49011,1.20013,1.11938,1.74847,2.18164,1.64117,3.17987,6.58099,4.83606,7.87817,2.46808.93958-1.71527-.72522-2.81458-.44189-3.2193.34668-.49524.78467-1.26746.91302-1.56812Z" fill="#95c172"/>
      <g id="leaf_1_right_hi" data-name="leaf 1 right hi">
        <path d="m181.13877,314.6171c2.17282-.99954,4.25833-1.07358,6.09833-.64064,1.69371.39852,3.67888,1.83708,3.3322,2.33233-.28333.40475,1.38149,1.50406.44189,3.2193-1.29717,2.36799-6.23696.7118-7.87817-2.46804-.64974-1.25887-1.5373-1.91219-1.99424-2.44295Z" fill="#a6d67c"/>
      </g>
      <g id="leaf_1_left_hi" data-name="leaf 1 left hi">
        <path d="m165.42981,316.55434c-2.50915-1.47769-3.55693-1.63512-5.36163-1.40895-2.6034.32626-4.49532,1.49108-4.1554,2.23022.32443.70544-.4187,2.25016.66447,3.17852,1.53989,1.3198,4.007.85705,5.37255,0,2.0209-1.26836,1.58483-3.16497,3.48001-3.99978Z" fill="#a6d67c"/>
      </g>
      <g id="leaf_2_left_hi" data-name="leaf 2 left hi">
        <path d="m161.55309,295.93428c-.35681.35091-.15254,1.29976-.14495,2.27906.00419.5404-.35697.88831-.34866.99965.02208.29586.25693.24386.0862,1.03103-.0585.26972-.31932.51916-.31906.72623.00015.11938.67288.71631.92558,1.01253.20845.24434.0668.82339.10499.86969.09548.11575.9271.55753.97925.93358.10123.72995-.24558,1.61772-.12698,1.81827.14468.24464,2.06698,1.02617,2.36968,1.73267s.57768,2.28817.72746,2.47558,2.46142.3791,3.28698,1.96563c.55242,1.06163.36876,1.5645.43073,1.73895.08509.23952.99852.30735,1.48631.73775,1.14126,1.00698,1.57555,1.21611,1.57555,1.21611-1.85094-4.24609-2.80645-8.90107-4.9557-11.83326-2.5892-3.53241-4.59003-5.28546-6.07737-7.70346Z" fill="#a6d67c"/>
      </g>
      <g id="leaf_2_right_hi" data-name="leaf 2 right hi">
        <path d="m187.65382,302.19696c.2186.31289-.82467.42511-1.11352.82352-.24193.3337-.33811.74832-.35987.83064-.05782.21876-.98494.09353-.96672.70758.00624.2104-.16644.67497-.19552.8302-.01677.08949-.55954.20845-.79034.39531-.19038.15414-.16494.60808-.20002.63746-.08774.07348-.77292.28873-.86448.56343-.17772.53321-.55196,1.2817-.66886,1.41553-.14261.16326-.99546-.09586-1.32097.39167s-.71366,1.68275-.85211,1.80238-1.03503-.25114-1.87534.82332c-.56229.71897-.87499,1.43603-1.29552,1.64773-.17316.08717-.97371.43284-1.3995.68752-.99619.59587-1.10997.59209-1.10997.59209.98949-3.18695,4.37699-7.57557,4.93196-8.32525,3.88412-5.24688,8.02516-3.90276,8.08078-3.82315Z" fill="#a6d67c"/>
      </g>
      <path id="root_main_fade" data-name="root main fade" d="m172.375,334.57266l.00827-2.80002c.00108-.36615.2988-.66211.66496-.66104.3756.00022.67732.31661.66049.69168-.00515.04053-.08041,2.75149-.0844,2.79012-.02663.80561-1.2493.78506-1.24932-.02074Z" fill="url(#linear-gradient)"/>
    </g>
  </g>
</svg>