<?xml version="1.0" encoding="UTF-8"?>
<svg id="Layer_2" data-name="Layer 2" xmlns="http://www.w3.org/2000/svg" xmlns:xlink="http://www.w3.org/1999/xlink" viewBox="0 0 394 469">
  <defs>
    <linearGradient id="linear-gradient" x1="173.00962" y1="335.22256" x2="173.00962" y2="331.14848" gradientUnits="userSpaceOnUse">
      <stop offset="0" stop-color="#fff"/>
      <stop offset=".34875" stop-color="#fff"/>
      <stop offset=".90496" stop-color="#fff" stop-opacity="0"/>
      <stop offset="1" stop-color="#fff" stop-opacity="0"/>
    </linearGradient>
  </defs>
  <g id="CASE_5_Plants_LL_WL_CH" data-name="CASE 5 Plants LL WL CH">
    <g id="Day_24" data-name="Day 24">
      <g id="rectangle">
        <rect width="394" height="469" fill="none"/>
      </g>
      <g id="ROOTS_BACK" data-name="ROOTS BACK">
        <path d="m191.83092,342.27844c-.51892-.48199-1.05707-.93555-1.60425-1.37512,1.12006-.23398,1.40266-1.86452.39807-2.45117-2.1582-1.5578-5.42908-1.59106-7.7962-1.77075-.8869-.32745-1.79126-.61755-2.72253-.84497-1.62762-.21069-3.16241-.40851-4.64655-.88446-.20276-.07184-.40228-.14185-.58002-.22064-.00287-.05304-.00146-.10651-.00446-.15948-.01333-2.07588-2.9492-2.55752-3.63184-.61987-1.66101,1.61517-4.33386,2.67065-6.61902,2.9939-.302.02295-.79999.13495-1.41589.3158-.45972.03986-.91858.19934-1.29865.42438-3.66943,1.30566-9.14117,4.06354-7.34772,6.10272.53241.55243,1.42236.54352,1.94989-.01062.48999-.47491,1.10217-.90448,1.76947-1.29608-.40002.91125-.73926,1.85272-1.04871,2.78833-.47193,1.68873,2.01348,2.46221,2.57916.79828.12762-.33411.26685-.68573.41223-1.04163.03033.06085.04987.1203.09021.18237.96204,1.18368,1.9606.1697,2.94214-.35901-1.24146,1.21991-2.30847,2.59821-2.97455,4.30688-.55528,1.65797,1.87816,2.56114,2.53353.93329,1.24165-2.76067,4.21241-4.54723,6.67179-6.26209-.36566.70905-.64154,1.33466-1.33984,1.8443-1.42487,1.14771-9.1571,8.22107-6.04907,9.69452.71857.33417,1.56195-.03546,1.83679-.77094.40613-.87762,1.36889-2.06376,2.21747-2.96851-.00873.56732.05939,1.08038.45038,1.41022-.68262.38434-1.34784.80615-1.97247,1.31641-.50513.4693-1.12885.96362-1.4549,2.12256-.31214,1.21518,1.25588,2.14995,2.17407,1.32605-.26898.7771-.50922,1.58026-.75275,2.42859-.39648,1.72602,2.15448,2.36707,2.61938.65485.71709-2.23721,1.73793-5.00855,3.61609-6.40729.11676-.11932.21967-.25336.32697-.38269.03113.48993.05914.97504.08478,1.45691-.82581,2.0697-3.284,4.17633-3.56995,6.64374-.23737,1.73486,2.3255,2.16376,2.66321.44373.17273-.64349.52136-1.25366.93939-1.85638-.01819,2.6322.01562,5.26978.56116,7.9826.14429.70612.82257,1.18097,1.54028,1.0639.74365-.12036,1.24469-.83002,1.11169-1.57092-.24554-1.50525-.29987-3.07214-.28339-4.66821.54114.5918,1.01733,1.14636,1.38788,1.75452.72095,1.14514,2.22803.61786,2.47394-.39886.76202.00671,1.52106-.5661,1.32043-1.65924.03088.14282-.00055-.08069.00262-.19031.00061-.12305-.00653-.35901-.0141-.60364.95698.78642,2.48329-.25245,2.08876-1.4475-.15602-.53993-.28413-.8047-.43483-1.15693-.7066-1.53461-1.54327-2.95892-2.55853-4.28088.30603.08722.6416.05688,1.01202-.14575.39612-.24219.59833-.6579.61945-1.08917.12592.40479.23389.81189.30011,1.21918.26489,1.7442,2.86084,1.40863,2.67816-.34332-.16876-1.27509-.52502-2.50549-1.04779-3.65289.94574.38574,1.823.88007,2.54346,1.67847,1.21313,1.25159,3.12671-.48688,1.99823-1.81494-.64423-.78571-1.42346-1.35419-2.2583-1.82391.65143-.32953,1.0661-1.14258.54193-1.9494-.4826-.62061-1.00983-1.17627-1.57263-1.68109.64453.14777,1.23499-.23724,1.49341-.77826,1.08365.94539,1.41853,3.23868,3.16855,2.53773.67154-.3235.95365-1.13002.63034-1.80165-1.38062-2.5285-3.02148-4.45337-5.36804-5.90552,2.46838,1.02704,4.87421,2.49042,6.71417,4.13129,1.27722,1.1972,3.10077-.64337,1.90533-1.91138Zm-15.4209,3.06042c.16882.06384.33606.14435.50458.21362.41266.29309.75275.67175,1.07129,1.09619-.73547-.50507-1.6488-1.0293-2.40344-1.58594.27557.10388.55188.19922.82758.27612Zm-.50201,5.90869c.20721.53308.49817,1.50269.90344,2.39819-1.09058-1.10431-1.69611-2.15967-2.38226-3.59491-.00073-.6142.00378-1.21796.0127-1.81317.01141-.03558.02527-.07129.03394-.10657.16449.09595.33014.19122.4964.28461.39587.72186.72766,2.15979.93579,2.83185Zm-11.26923-9.9892c-.71637.2605-2.2384.77197-3.33215,1.49518.54144-.94318,1.19464-1.77759,1.99103-2.33673,1.21338-.30756,2.44348-.51172,3.69196-.70111,1.49127-.39337,2.87756-.84979,4.16364-1.521.00049.03528.0011.07062.00159.1059-.64431.91188-1.6812,1.58152-2.5885,2.29755-1.36963-.02686-3.06702.47528-3.92755.66022Zm4.30115,9.4364c.03021-1.12738.42786-1.75989,1.13287-2.64514.11627-.08765.22833-.18201.34589-.26752.14246-.09515.28149-.21808.41797-.35754.00159.21924.00409.43835.00854.65808-.66541,1.30762-1.06848,2.54083-1.79041,3.76587-.06738.02863-.13446.05798-.20172.08698.0697-.42114.08099-.86719.08685-1.24072Zm5.46924,7.74756c-.00055-.00867-.0033-.01562-.00397-.02423.03296-.90399.0462-1.83118.04968-2.76758.0097-.04456.01086-.08551.0174-.12872,1.8133,1.56142,1.97346,4.23392,2.1499,6.58246-.98108-1.13965-2.02478-2.14508-2.21301-3.66193Zm5.013-5.72198c.03497.06702.07532.13129.10876.19897-.03485-.06677-.07617-.13141-.10876-.19897Zm-1.914-10.25934c-.89148-.32819-1.62402-.6908-2.27905-1.23059.72028.18365,1.46545.29736,2.20856.38354,1.48694.45508,2.50702,1.63538,3.64331,2.75305-1.13171-.71423-2.33661-1.32745-3.57281-1.90601Z" fill="#4c4c4c"/>
      </g>
      <path d="m197.90434,293.66321c-1.16196-2.43489-6.07376-4.21719-8.89691-3.03485-.07135.01794-.14478.03986-.21912.06354-.46824-.15382-.97896-.21738-1.1983-.2157-.65325.01688-1.2326.38825-1.60059.65796-.42611-.09376-.98958-.07175-1.36004.16951-.53498.32852-.74663,1.06699-1.20575,1.5728-.45871.10693-1.09188.12192-1.44867.26965-.61649.15898-.93535,1.21459-1.25763,2.01038-.43443.4971-.69711.60341-1.00519.87615-.50315.43412-.86816,1.59577-1.18974,2.51467-.31755.6009-1.06336.80268-1.25611,1.53124-.13489.51057.03743.84934.1104,1.31762-1.37213,1.86853-2.45508,3.89105-3.28925,6.01562-.31641-1.11035-.71967-2.19836-1.22064-3.26007-.03796-.27216-.09125-.58112-.15729-.95551-.06722-.39769.30784-.67503.37394-1.12068.12967-.73025-.35391-1.54024-.25641-2.32079.3292-2.57538,1.04788-4.20189-.16672-5.54553.01501-.81855.16512-1.82664-.29141-2.26341-.44422-.49702-.9187-.4912-1.27909-.52974-.121-.1306-.15512-.4256-.16081-.6106.02129-.3506-.21298-.91488-.51491-1.15423.07951-.33071-.29882-1.09132-.63892-1.29138-.16649-.70925-.39444-1.76273-1.48901-1.83972l-.10706-.00195c-.21561.00108-.34897.03313-.52393.05945-.2171-.50128-.52808-1.12634-1.26343-1.2522-.10585-.01762-.26747-.03747-.36682-.05994-.38005-.49793-.79505-1.23411-1.75977-1.21014-.34315.01809-.66894.17509-.89148.31152-1.21234-.84021-2.30066-.97406-2.87024-.97406-.58032,0-.98743.13-1.28119.40906-.88625.84874-.56594,2.1602-.58313,3.28924-.14091.34323-.41018.55937-.38304,1.12879.01458.25506.07988.45055.13366.57952-.00391.02319-.00928.052-.01678.0871-.16209.2687-.37866.56972-.39582,1.08612-.04183.63298.51428,1.1373,1.06129,1.70032-.02342.25837-.07476.66719.26037,1.09717.20908.26165.47225.39383.75031.61731-.68032,2.84351.56169,2.41623,2.40009,3.9101.27356.69541.47368,2.41342.86553,2.85169.28578.37054.649.47748,1.10883.61291.62738.18469,1.79523.52856,2.18439,1.30927.28491.57147.28046.84937.27728,1.05231-.10868.92343.71559,1.53909,1.40863,1.70979.16608.05877.47541.16821.56153.24383.79681.70769.75142.77603,1.44684,1.27313,1.09482,3.45948,1.27351,7.18846,1.21265,10.82977-1.82021-2.02929-4.30811-3.24425-6.72028-3.39563-9.34824-7.34287-18.28437,7.39075-9.24939,7.19769,1.1512,4.62202,6.58979,3.27989,8.64774.18804,1.07679-1.58556.8798-2.71303,1.08469-4.06139,2.8679.48322,5.51799,3.60715,6.08856,6.38617-.0661,3.53156-.20544,7.53815-.24121,11.00482.06549,2.47974,3.68219,2.47253,3.75.00006.1264-1.94562.28259-5.88605.31958-7.83636-.01324-.54224-.01849-1.08893-.01965-1.638.85545-3.20136,4.14049-8.25701,8.44849-9.27325.32489.35773.65533.77374.92358,1.32849,1.20416,2.49091,4.19464,4.44208,6.80804,4.44208,3.24435.08738,4.49773-3.31489,3.14349-5.33197,2.75041-3.32039-.67602-7.24742-4.46295-7.19798-2.17035.01047-5.07567,1.3971-6.76465,3.50865-2.82488.48909-5.85217,2.63409-7.77679,5.14581.24118-4.39761,1.18068-8.86734,3.28839-12.74396.46826-.08356.96771-.20544,1.37683-.40887.36302-.14402,1.1377-.16169,1.48401-.22675.99207-.19663,1.6696-1.08641,2.48743-1.67272.78897-.57561,1.05344.01654,1.87475-.08582l.29834-.1272c.52306-.20777,1.17076-1.2836,1.66937-1.80469,1.45178.54198,2.12904-.42446,3.00702-1.54974.61353-.0375,1.28466-.30684,1.47174-.85034.40629-.03951,1.06328-.09334,1.40173-.77307.11117-.1753.26982-.42447.36176-.59863,1.07345.03429,1.29873-.61091,1.6983-1.11084.64864-.12499,1.37767-.07114,1.86842-.82726.22021-.35804.2647-.797.12212-1.20435Z" fill="#2e541a"/>
      <g id="ROOTS">
        <path d="m190.92918,343.14416c-2.04584-1.90875-4.43542-3.50079-7.00763-4.66272,2.06415-.03076,4.15006.1126,5.95512,1.21272.04628.02642.10585.01208.1346-.03352-1.836-1.72095-4.97083-1.45709-7.34662-1.73907-.01746-.0025-.03015.0116-.04712.01276-.87286-.33545-1.76062-.62854-2.66351-.85712-2.00653-.28705-4.10602-.47253-5.92303-1.3775-.14038-.07532-.26617-.16809-.36835-.25995-.01385-.28931-.01685-.57874-.03766-.86792-.01182-.82105-1.25182-.79405-1.25.0094-2.0968,2.21881-5.23792,3.28314-8.22699,3.72516-.19598.05365-.39136.11444-.5871.17151-.01941-.0025-.03558-.00958-.0575-.00836-.39099.03003-.71869.1662-1.0152.34192-2.5824.85168-5.07001,2.05756-7.02429,3.96442-.09229.09637.06177.22974.14447.13812,1.65833-1.50342,3.7287-2.52429,5.87366-3.24915-.00458.005-.01001.00995-.01459.01495-1.46478,1.71936-2.38062,3.82733-3.04083,5.96021-.03802.12396.15485.17908.19104.05908.88025-2.33797,1.96565-4.89618,4.03448-6.40021.539-.15472,1.07855-.29889,1.61432-.42249,2.84772-.30981,5.83649-1.12964,8.11212-2.9726.00604.90912.01831,1.81561.03015,2.71698-.59771,1.26586-2.26733,2.31552-3.47504,3.26727-2.71259.00342-5.47443.75195-7.60852,2.45209-.10114.08026.02576.23529.12378.15704,1.93713-1.41772,4.38538-2.05701,6.77075-2.07623-2.6842,1.97632-5.51929,4.00653-6.76508,7.1684-.04559.12201.14673.18506.18762.06909,1.63855-3.64899,5.43134-5.58899,8.55597-7.81812.77411-.57611,1.56256-1.06384,2.21375-1.73871-.00128.71887-.02032,1.43408-.05432,2.14557-1.45734.98511-1.78564,2.59082-2.76129,3.80017-2.64966,2.33533-5.45502,4.77045-7.01111,8.01898-.05334.11896.13434.1936.18268.08051,1.25739-2.39362,3.22333-4.30798,5.28741-6.06201-.76253,1.17968-.57779,2.66364-.67422,3.94668-.01633.12821.18142.15324.19809.02702.15765-.93231.03381-1.88287.3139-2.73132.25342-.81384.76233-1.52954,1.31226-2.20013.27838-.22827.55695-.45587.83337-.68121.84338-.92712,1.38153-2.29706,2.25507-3.11707-.19775,1.63464-.23376,3.3324-.19037,5.0448-.45532.85083-.80499,1.72546-1.19135,2.57257-.3042.70813-.6416,1.3512-1.08014,1.93127-1.98322.9292-4.48792,1.74414-5.43585,3.86847-.03711.13251.17529.17517.19556.04144.82117-1.75189,2.9137-2.56055,4.70642-3.30524-.12677.12457-.2442.25385-.3891.36957-1.6524,1.90771-2.43848,4.30481-3.09961,6.68311-.03125.12823.16559.1701.19397.04852.8302-2.53375,1.79749-5.29352,3.94415-6.98706.99622-1.07416,1.56451-2.46814,2.20599-3.78564.09265,1.99664.25305,3.98938.3504,5.8963-.76538,2.36713-3.17688,4.12427-3.59686,6.6958-.01881.12634.17614.16027.19727.03284.48407-2.15265,2.32092-3.60919,3.42908-5.46033.05212,3.85474-.24457,7.74738.5321,11.55719.0235.12927.22162.08105.19647-.03754-.45142-2.78259-.33032-5.5896-.19238-8.3999.85016,1.72961,2.65619,2.9552,3.6084,4.62872.06506.11072.23474.00885.1734-.09967-1.04871-2.1203-3.55029-3.60504-3.68817-6.08142-.00079-.03009-.01062-.05298-.01819-.07764.04349-1.04598.08298-1.95149.07196-3.0163.03222-.07105.02358-.15451-.00208-.21234-.00897-.93463-.02686-2.79529-.03333-3.45801.37775.65826.78992,1.30609,1.27563,1.89526.7572.97015,1.80957,1.62646,2.29785,2.79486,1.04584,2.24084,1.02631,4.73218,1.22845,7.17804.01178.12793.20544.10419.19611-.01685-.1333-2.23474-.02985-4.7804-.8739-6.92853,1.14294,1.42621,2.09656,3.02484,2.75519,4.70404.02763.13133.23431.0808.19378-.04945-.8489-2.37364-2.2318-4.52798-3.94989-6.36669-.07697-.09692-.13483-.2027-.21893-.29626-1.30365-1.23969-2.15479-2.73553-2.90802-4.36804.00189-.80969.01801-1.61914.0509-2.42822.01093-.04614.01135-.0932.00476-.13947.02808-.66309.06183-1.32599.1012-1.98865.74463.70996,1.62604,1.20648,2.50427,1.70081,1.23096,1.85846,1.32947,5.36273,3.00433,6.94281.04688-.02924.0611-.09094.03186-.13782-.66211-1.07184-1.138-2.24249-1.45319-3.46112-.27435-.94977-.42041-1.96674-.84497-2.91614.68524.40607,1.3446.84705,1.90057,1.43878,1.61682,1.646,2.80847,3.78381,3.16638,6.09869.01923.12946.21191.09802.19836-.02539-.26764-2.29761-1.33514-4.45911-2.86304-6.20557.96881.38873,1.98315.62115,2.96014,1.0047,1.32544.4873,2.59155,1.17999,3.55591,2.21887.03662.03937.09882.0434.13965.00775-1.52637-2.46033-5.13629-2.7157-7.49127-4.13367-.0235-.0174-.05212-.01105-.0788-.01813-1.51617-1.27832-3.53656-2.03058-4.66425-3.62225.04651-.72937.09186-1.45856.13641-2.18738.5329.44623,1.11664.83832,1.74634,1.1134.76343.28412,1.53772.58093,2.30377.90509,1.28442.90643,2.00592,2.51929,3.1322,3.63647.09343.08876.23349-.05374.13916-.14355-.83704-.90063-1.42981-2.09161-2.25134-3.03912,1.89117.88232,3.67535,1.98114,5.04449,3.54388.07275.11304.23901-.00525.16669-.11066-1.35364-1.79401-3.33105-2.92657-5.2453-4.02747-1.73694-.88739-3.68213-1.44904-4.97357-2.95538.03912-.71844.06982-1.43665.09149-2.15448,1.23163.7804,2.75171,1.00818,4.2204,1.17346,2.31628.64008,3.7005,3.37012,5.75037,4.33972.03363-.04382.02533-.10663-.01849-.14026-1.59298-1.18691-2.73206-2.90695-4.37671-4.05237,3.48401.29797,6.28094,3.14783,8.00409,6.02667.06036.11743.23224.02747.1806-.08618-1.37347-2.60577-3.50342-4.86761-6.21722-6.1214-2.40393-.83789-5.66541-.48199-7.52313-2.32898.00531-.49341.01068-.98688.00092-1.47998,1.94879.83374,4.10291.92303,6.16827,1.10907,2.40771.41766,4.6991,1.58521,6.85449,2.73419,1.44122.81885,2.86206,1.71423,4.05011,2.86737.09558.0943.22845-.04846.14447-.13867Z" fill="#fff"/>
      </g>
      <path d="m194.54533,292.28888c-.91198-.58211-3.98015-1.10711-5.20038-.45591-.26117.05527-.573.23905-.82422.09635-.18042-.10248-.79663-.20868-.90881-.20288-.48395.02496-1.03583.56586-1.26202.68005-.21564.10889-.82489-.18237-1.0777-.03082-.0838.05029-.8114,1.46008-1.30066,1.64191-.43256.16083-1.38568.22882-1.52094.28448-.11133.04584-.57458,1.41809-.69226,1.55988-.57928.698-1.09515.99017-1.17908,1.07104-.33502.32257-.62854,1.35583-.88458,2.04797-.27429.74158-1.1853,1.29169-1.22345,1.42993-.03638.13208.15118.60376.17365,1.08258-2.44446,3.32239-3.8363,7.2561-4.82007,11.26038-.31622-2.89264-.98712-5.74377-2.18506-8.37903-.03241-.22815-.08563-.53271-.16125-.96149-.15265-.8656.33002-1.34656.38123-1.59259.03436-.16492-.38495-1.29358-.27374-2.21564.10382-.86066.65131-3.51648.4743-4.03333-.04431-.12952-.44641-.60297-.62292-1.00366-.08728-.19812.07208-1.70374-.01971-1.81134-.11145-.1308-.52246-.03357-.90845-.20776-.14178-.06403-.45093-.31647-.66559-.81421-.18335-.42499-.14606-.974-.18787-1.04889-.12109-.21649-.37238-.26642-.42322-.43604-.14502-.48395-.02563-.63953-.08624-.73706-.1828-.29395-.25012-.14197-.41705-.37146-.17505-.24066-.28656-1.34711-.51013-1.37122-.13129-.0141-.32587.05115-.56934.06146-.33911.01434-.68103-.11383-.92419-.31171-.1062-.08636-.3573-.9303-.54468-.9624-.25604-.04382-.61725-.06152-.91071-.28552-.35583-.27161-.65216-1.00055-.95312-.96533s-.88562.68713-1.36072.30737c-1.45685-1.16449-2.77606-.99811-2.87323-.90582-.38177.36261-.18414,1.36456-.19409,2.39496-.00543.56854-.39172.92798-.38501,1.04523.01782.31165.26587.26123.07184,1.08624-.06641.28271-.3454.54034-.34888.75818-.00201.12561.69482.76587.95526,1.08209.21484.26086.05524.86743.09454.91681.09833.12354.96515.60345,1.01318,1,.09314.76978-.2879,1.69739-.16681,1.91052.14777.26001,2.15576,1.11725,2.4613,1.86603s.56598,2.41772.72015,2.61761c.15411.19989,2.58252.44373,3.42206,2.12787.56177,1.12689.35938,1.65259.42139,1.83722.08514.25354,1.04486.34155,1.55017.80328,1.18219,1.08014.79034.79095,1.36249,1.20197l.05768.01154c1.81782,5.07618,1.7756,10.54431,1.60028,15.86469-1.34228-3.27847-4.91376-6.28418-8.3891-6.21454-2.61047-2.22241-5.2821-2.31659-7.22308-1.63159-2.47424.87311-4.57471,3.84082-3.92914,5.44855.56964,1.41858,2.57739.56244,3.18274,1.10596.57776.51874.50873,2.23151,1.8714,2.65375,1.93726.60028,4.01807-.80359,4.93134-2.1322,1.24469-1.81085.36987-3.28357,1.32312-4.69116,3.80046.01009,7.51524,4.00925,8.13928,7.65063-.17328,3.69507-.39362,7.39624-.25006,11.09308.02051.81122,1.24097.78717,1.24939-.00781.04828-2.6861.1488-6.07635.24591-9.37738.78786-3.76755,4.85607-10.00595,10.20032-10.72833.46875.49066,1.1109,1.12048,1.60156,2.13544,1.5575,3.22168,6.45227,5.00647,7.81091,2.67322.98413-1.69006-.65137-2.83252-.35754-3.22974.3595-.48602.81757-1.24652.9538-1.5437.87329-1.90552-1.48584-4.27838-4.18872-4.19128-1.77478.05725-4.57837,1.42163-5.89319,3.41254-4.28426.42344-8.48501,5.06415-10.05176,8.87964.04358-1.81528.11293-3.35962.112-4.98877.74017-4.78076,1.62683-9.64447,3.9054-13.89337.00494.01294.01172.02368.01538.03815l.0932.05719c.46069-.06262,1.11285-.16742,1.53094-.37531.52179-.25946,1.57709-.29053,1.80054-.33423.5426-.1062,1.12341-.81812,1.98706-1.45312,1.29065-.94897,2.18719-.24567,2.38165-.3371s1.01208-1.32019,1.53461-1.76843c.52258-.4483,1.40503.11493,1.61798-.02454.17462-.11432.83496-.84229,1.20483-1.38904.19055-.28162,1.03363-.30804,1.15613-.36334.04901-.02216.164-.54358.42816-.65759.32019-.13818.97168-.10083,1.01904-.19672.08203-.16632.4245-.63702.48407-.87695.17389-.7002,1.18274-.26489,1.31744-.49402.05066-.08618.29077-.52466.6701-.82538.45282-.35913,1.66827-.15558,1.52014-.57867-.03766-.1076-.8266-1.06506-2.1792-1.78735Z" fill="#95c172"/>
      <g id="leaf_1_right_hi" data-name="leaf 1 right hi">
        <path d="m183.74267,314.04258c2.19822-.94238,4.28494-.96186,6.11299-.48096,1.68271.44267,3.62958,1.93265,3.27007,2.41866-.29381.39721,1.34169,1.53967.35756,3.22976-1.35865,2.33326-6.25344.54847-7.81094-2.6732-.6166-1.27543-1.48678-1.95173-1.92968-2.49426Z" fill="#a6d67c"/>
      </g>
      <g id="leaf_1_left_hi" data-name="leaf 1 left hi">
        <path d="m164.76959,315.40991c-2.88954-.36051-3.91374-.08917-5.48047.83466-2.26011,1.3327-3.53436,3.15271-2.92901,3.69623.57775.51875.50872,2.23153,1.87138,2.65376,1.93722.60027,4.01806-.80363,4.93131-2.13224,1.35154-1.96624.19857-3.53402,1.60678-5.05242Z" fill="#a6d67c"/>
      </g>
      <g id="leaf_2_left_hi" data-name="leaf 2 left hi">
        <path d="m160.08314,284.70819c-.38177.36265-.18419,1.36458-.19408,2.39495-.00546.56859-.39175.92799-.38504,1.04528.01783.31165.26585.26124.07187,1.08623-.06647.28268-.3454.54033-.3489.75818-.00202.12559.6948.76584.95524,1.08208.21483.26086.05525.86743.09458.91683.09833.12352.96514.60344,1.01314,1.00001.09317.76976-.28788,1.69737-.16677,1.91052.14774.26,2.15576,1.11726,2.4613,1.86603s.56597,2.41772.72011,2.61761,2.58251.44374,3.42206,2.12785c.56178,1.12692.35938,1.65259.4214,1.83726.08514.25353,1.04484.34156,1.55015.80324,1.18224,1.08018,1.6353,1.30811,1.6353,1.30811-1.86972-4.5007-2.78998-9.41522-4.99749-12.53913-2.6594-3.76338-4.73229-5.64412-6.25287-8.21502Z" fill="#a6d67c"/>
      </g>
      <g id="leaf_2_right_hi" data-name="leaf 2 right hi">
        <path d="m196.72453,294.07627c.14811.4231-1.0673.21955-1.52017.57863-.37931.30076-.61942.7392-.6701.82541-.13469.22909-1.14353-.20621-1.31742.49401-.05958.23993-.40204.71063-.4841.87697-.04731.0959-.69883.0585-1.01904.19672-.26413.11402-.37914.63545-.42813.65757-.1225.05531-.96558.08171-1.15613.36338-.36988.54673-1.03022,1.27468-1.20482,1.38901-.21299.13946-1.09543-.42373-1.61799.02452s-1.34013,1.67702-1.53459,1.76846-1.09099-.61187-2.38167.3371c-.86366.635-1.44443,1.34689-1.98708,1.4531-.22344.04373-1.2383.18108-1.80051.33424-1.31537.35834-1.44285.31803-1.44285.31803,2.12853-3.29079,7.34969-7.18101,8.21479-7.85306,6.05466-4.70355,10.31214-1.87173,10.34982-1.76408Z" fill="#a6d67c"/>
      </g>
      <path id="root_main_fade" data-name="root main fade" d="m172.375,334.57266l-.02831-2.77789c-.00351-.8793,1.33842-.87375,1.32577.00697-.00029.00644-.04734,2.76945-.04757,2.77527-.01614.80625-1.23924.80156-1.24989-.00435Z" fill="url(#linear-gradient)"/>
    </g>
  </g>
</svg>