<?xml version="1.0" encoding="UTF-8"?>
<svg id="Layer_2" data-name="Layer 2" xmlns="http://www.w3.org/2000/svg" xmlns:xlink="http://www.w3.org/1999/xlink" viewBox="0 0 346 469">
  <defs>
    <linearGradient id="linear-gradient" x1="193.81197" y1="322.19111" x2="187.18802" y2="310.71809" gradientUnits="userSpaceOnUse">
      <stop offset="0" stop-color="#64681e"/>
      <stop offset=".31808" stop-color="#64681e"/>
      <stop offset=".85115" stop-color="#64681e" stop-opacity="0"/>
      <stop offset="1" stop-color="#64681e" stop-opacity="0"/>
    </linearGradient>
    <linearGradient id="linear-gradient-2" x1="152.50435" y1="323.30442" x2="165.40191" y2="315.858" gradientUnits="userSpaceOnUse">
      <stop offset="0" stop-color="#64681e"/>
      <stop offset=".20624" stop-color="#64681e"/>
      <stop offset=".75666" stop-color="#64681e" stop-opacity="0"/>
      <stop offset="1" stop-color="#64681e" stop-opacity="0"/>
    </linearGradient>
    <linearGradient id="linear-gradient-3" x1="158.87" y1="283.22434" x2="171.96317" y2="305.90238" gradientUnits="userSpaceOnUse">
      <stop offset="0" stop-color="#64681e"/>
      <stop offset=".48806" stop-color="#64681e"/>
      <stop offset=".87132" stop-color="#64681e" stop-opacity="0"/>
      <stop offset="1" stop-color="#64681e" stop-opacity="0"/>
    </linearGradient>
    <linearGradient id="linear-gradient-4" x1="194.70517" y1="290.63504" x2="180.93439" y2="307.04642" gradientUnits="userSpaceOnUse">
      <stop offset="0" stop-color="#64681e"/>
      <stop offset=".20624" stop-color="#64681e"/>
      <stop offset=".61945" stop-color="#64681e" stop-opacity="0"/>
      <stop offset="1" stop-color="#64681e" stop-opacity="0"/>
    </linearGradient>
    <linearGradient id="linear-gradient-5" x1="193.18818" y1="321.09954" x2="187.81003" y2="311.78432" gradientUnits="userSpaceOnUse">
      <stop offset="0" stop-color="#c6c359"/>
      <stop offset=".327" stop-color="#c6c359"/>
      <stop offset=".86107" stop-color="#c6c359" stop-opacity="0"/>
      <stop offset="1" stop-color="#c6c359" stop-opacity="0"/>
    </linearGradient>
    <linearGradient id="linear-gradient-6" x1="153.57876" y1="322.6769" x2="163.97899" y2="316.67233" gradientUnits="userSpaceOnUse">
      <stop offset="0" stop-color="#c6c359"/>
      <stop offset=".20125" stop-color="#c6c359"/>
      <stop offset=".75611" stop-color="#c6c359" stop-opacity="0"/>
      <stop offset="1" stop-color="#c6c359" stop-opacity="0"/>
    </linearGradient>
    <linearGradient id="linear-gradient-7" x1="159.48496" y1="284.30595" x2="171.23536" y2="304.65825" gradientUnits="userSpaceOnUse">
      <stop offset="0" stop-color="#c6c359"/>
      <stop offset=".45034" stop-color="#c6c359"/>
      <stop offset=".87851" stop-color="#c6c359" stop-opacity="0"/>
      <stop offset="1" stop-color="#c6c359" stop-opacity="0"/>
    </linearGradient>
    <linearGradient id="linear-gradient-8" x1="193.90352" y1="291.59363" x2="181.75761" y2="306.06856" gradientUnits="userSpaceOnUse">
      <stop offset="0" stop-color="#c6c359"/>
      <stop offset=".20125" stop-color="#c6c359"/>
      <stop offset=".62294" stop-color="#c6c359" stop-opacity="0"/>
      <stop offset="1" stop-color="#c6c359" stop-opacity="0"/>
    </linearGradient>
    <linearGradient id="linear-gradient-9" x1="191.98982" y1="321.79142" x2="186.80232" y2="312.80641" gradientUnits="userSpaceOnUse">
      <stop offset=".3177" stop-color="#cfd16b"/>
      <stop offset=".84202" stop-color="#cfd16b" stop-opacity="0"/>
      <stop offset="1" stop-color="#cfd16b" stop-opacity="0"/>
    </linearGradient>
    <linearGradient id="linear-gradient-10" x1="156.55716" y1="322.92157" x2="164.82953" y2="318.14551" gradientUnits="userSpaceOnUse">
      <stop offset="0" stop-color="#cfd16b"/>
      <stop offset=".19853" stop-color="#cfd16b"/>
      <stop offset=".74644" stop-color="#cfd16b" stop-opacity="0"/>
      <stop offset="1" stop-color="#cfd16b" stop-opacity="0"/>
    </linearGradient>
    <linearGradient id="linear-gradient-11" x1="157.54885" y1="285.42721" x2="169.32978" y2="305.83238" gradientUnits="userSpaceOnUse">
      <stop offset="0" stop-color="#cfd16b"/>
      <stop offset=".40431" stop-color="#cfd16b"/>
      <stop offset=".87688" stop-color="#cfd16b" stop-opacity="0"/>
      <stop offset="1" stop-color="#cfd16b" stop-opacity="0"/>
    </linearGradient>
    <linearGradient id="linear-gradient-12" x1="194.46337" y1="292.4043" x2="182.55217" y2="306.59951" gradientUnits="userSpaceOnUse">
      <stop offset="0" stop-color="#cfd16b"/>
      <stop offset=".15877" stop-color="#cfd16b"/>
      <stop offset=".61696" stop-color="#cfd16b" stop-opacity="0"/>
      <stop offset="1" stop-color="#cfd16b" stop-opacity="0"/>
    </linearGradient>
    <linearGradient id="linear-gradient-13" x1="172.97169" y1="335.22242" x2="172.97169" y2="331.1439" gradientUnits="userSpaceOnUse">
      <stop offset="0" stop-color="#fff"/>
      <stop offset=".34875" stop-color="#fff"/>
      <stop offset=".90496" stop-color="#fff" stop-opacity="0"/>
      <stop offset="1" stop-color="#fff" stop-opacity="0"/>
    </linearGradient>
  </defs>
  <g id="CASE_5_Plants_LL_WL_CH" data-name="CASE 5 Plants LL WL CH">
    <g id="Day_28" data-name="Day 28">
      <g id="rectangle">
        <rect width="346" height="469" fill="none"/>
      </g>
      <g id="ROOTS_BACK" data-name="ROOTS BACK">
        <path d="m192.40752,342.7345c-.49152-.50189-.9975-.93512-1.50928-1.34485.39484-.04529.76855-.24213.995-.60571,1.59808-3.06256-7.32318-3.93744-9.06512-4.10211-.75446-.30304-1.53485-.57062-2.36609-.77917-1.93842-.33185-3.84467-.4303-5.58252-1.19189-.00122-.04584-.00336-.09314-.00452-.13892-.00068-2.13735-3.04715-2.58155-3.65942-.55243-1.87273,1.66858-4.41937,2.65698-6.90033,2.97797-.28973.06348-.56824.15027-.85095.22839-.67603.05585-1.19135.24908-1.63043.52667-1.09106.40875-2.14362.88898-3.16815,1.39996-1.18835.74646-6.23804,3.02979-4.48889,5.00507.5332.55579,1.42743.54517,1.95514-.01245.62549-.55554,1.35516-1.06378,2.13794-1.52954-.41234,1.3376-2.33016,4.00738-.34053,4.81822.71363.24227,1.48896-.14964,1.71858-.86692.09241-.25281.19293-.51599.29828-.78308.4668.51746,1.25452.61316,1.81647.17743.59943-.4278,1.28851-.78741,2.01819-1.09027-1.61847,1.48358-3.03076,3.15552-3.90948,5.29877-.57211,1.66839,1.88451,2.57715,2.53339.93335,1.40472-2.92169,4.34387-4.86505,7.04462-6.79504-.26154.50842-.50739.96002-.94397,1.33441-2.99834,2.4201-5.26568,5.70482-7.97382,8.37775-1.2608,1.16449.38116,3.10303,1.7384,2.05548,1.44941-1.23685,2.50756-2.5561,3.81903-3.92114-.22751.49697-.42259,1.07324-.15643,1.5033-.8761.72131-1.65564,1.57831-2.34454,2.4353-.09589.11053-.18262.20209-.23987.25647-.00409.00446-.00153.00122-.00458.00446-1.32654.50305-1.00464,2.70758.62079,2.59424.68821-.07143,1.20863-.55084,1.62762-1.04187-.42596,1.17224-.7674,2.3786-1.11896,3.66229-.39434,1.72429,2.1541,2.36444,2.61938.65485.32751-1.15192.75836-2.37415,1.23187-3.50726.58997-1.3244,1.13837-2.63654,2.0882-3.49225.15173-.11536.35339-.29681.54285-.48865.01422.55365.02393,1.10663.05371,1.66278-.85315,2.43738-3.17206,4.32104-3.56714,7.07056-.24158,1.71539,2.2843,2.17255,2.65607.4787.18469-.72797.57397-1.41974,1.03296-2.10565.03082,2.79279.1048,5.58295.6861,8.453.37585,1.70752,2.91345,1.22235,2.65503-.48834-.29553-1.79578-.35815-3.66187-.34747-5.56079.6933.7677,1.32733,1.48071,1.78253,2.22882.6476,1.1465,2.48076.68656,2.487-.62976.76593-.00739,1.53046-.65771,1.32874-1.7135-.03766-.51331-.07263-1.03418-.1098-1.55695.75867,1.07379,1.6557,1.72473,2.72308.67102.45361-.59167.34167-1.43909-.25-1.89276-1.00161-1.55942-1.89381-3.58011-3.10577-5.07623.53034.37494,1.36782.17222,1.71216-.4198.06989.26453.13617.5293.18323.7926.09705.72919.76709,1.25354,1.50385,1.16156,1.97778-.34192,1.08502-3.26514-.15631-5.71472,1.24756.50543,2.41986,1.10388,3.34821,2.07928,1.2063,1.30341,3.17218-.45764,2.01276-1.7995-.60547-.69067-1.28845-1.23682-2.01379-1.70001.72528-.28711,1.22845-1.16199.65442-2.0177-.6358-.77991-1.33856-1.44653-2.08148-2.04999.53179-.01355,1.06923-.39739,1.20349-.93677.62427.69257,1.17639,1.41119,1.59607,2.09833.79016,1.61945,3.2005.46307,2.43671-1.1629-.82953-1.67407-1.90186-2.82819-3.04639-3.99567-.89935-.84692-1.93353-1.77301-3.1001-2.47363,2.65759,1.1427,5.2641,2.73395,7.27393,4.51282,1.27583,1.19435,3.10572-.64692,1.90039-1.91559Zm-28.93634,13.57599c.08569-.03351.17706-.06104.2594-.05212-.09302.0097-.17743.02966-.2594.05212Zm13.74677-10.33649c.0578.02405.11505.05365.17285.07819.4823.34296.90076.83002,1.29883,1.36462-.89221-.67383-1.92029-1.27393-2.78363-1.90643.44897.18854.89343.34631,1.31195.46362Zm-12.78864-4.36578c-.63916.25055-2.03491.7207-3.16455,1.37122.57056-1.00153,1.23724-1.89374,1.99359-2.51068.53815-.16022,1.07172-.30603,1.58655-.41937,2.20221-.24817,4.41364-.82202,6.36279-1.87384.00427.11969.00787.24017.01215.35968-.20465.30029-.45453.55829-.73956.84235-.53186.48804-1.08923.95526-1.65747,1.41406-1.49121-.05695-3.45844.59113-4.39349.81659Zm5.76813,6.60693c.13843-.11066.27313-.22711.414-.33398.17273-.12604.32953-.26788.47504-.42047-.01129.20972-.01892.41925-.02942.62885-.74548,1.37585-1.13849,2.7041-1.87006,3.92828-.07599.01508-.15479.0224-.22961.04028.29968-1.35388.33099-2.70392,1.24005-3.84296Zm4.0307,10.76764c.02087-1.08325.0451-2.16925.06934-3.25946.21948.22723.44159.44409.66766.63483,1.4817,1.79911,1.70055,4.52962,1.96051,6.84778-1.15112-1.40033-2.45081-2.71478-2.69751-4.22314Zm2.91083-4.64508c-1.23804-1.20282-1.90448-2.2558-2.63568-3.77411.04279-.69574.09137-1.38983.15363-2.07996.17206.10022.34424.2005.51709.29755.70233,1.13226,1.55206,4.33069,2.69226,6.23029-.23047-.23309-.47357-.45715-.72729-.67377Zm5.73602-5.02191c.01367-.04236.02423-.08508.03357-.12866.14221.09744.28023.21177.40649.31519-.14612-.0639-.29315-.12469-.44006-.18652Zm-4.46771-6.1687c-1.25525-.49286-2.14539-.8833-2.96826-1.67114.78461.20239,1.60101.32196,2.41809.41693,1.11894.37425,2.43643,1.83423,3.44617,2.79407-.93866-.53912-1.90955-1.03906-2.896-1.53986Zm1.21967-4.22253c.09143.00928.1842.01752.27509.02728.03339.00909.06769.02179.10114.03107-.12268-.02087-.25055-.03912-.37622-.05835Z" fill="#4c4c4c"/>
      </g>
      <path d="m199.35912,295.19928c-.93158-2.50829-5.66487-4.73824-8.59674-3.80267-.07324.01172-.14899.02728-.22571.04456-.4427-.18968-.98206-.31625-1.2381-.32294-.62669-.01794-1.19796.28145-1.58698.51782-.39707-.12664-.97472-.16211-1.36975.04976-.56152.28039-.83721.99749-1.33881,1.4611-.46631.06624-1.0985.02579-1.4668.14165-.62781.10418-1.03807,1.12795-1.42883,1.89246-.47621.45709-.74733.53998-1.07813.78472-.53925.38837-1.00463,1.51355-1.40544,2.40078-.36901.57071-1.1296.70646-1.38551,1.41527-.20477.54258.01124.9822.00268,1.50036-.48584.54193-.89862,1.08868-.95239,1.7005-1.16425,1.78613-2.15308,3.66718-2.95868,5.62427-.43207-1.66547-1.03912-3.29559-1.85663-4.88251-.06171-.33221-.16406-.72363-.30243-1.23657-.10229-.39021.24677-.69977.27298-1.14954.06419-.7388-.48935-1.50271-.46155-2.28876.09915-2.59419.67053-4.2784-.65854-5.50884-.05795-.81693.00234-1.83393-.49136-2.22862-.53296-.47669-.96131-.40013-1.32096-.41402-.13217-.11928-.1923-.41018-.21446-.59388-.00992-.35119-.29331-.89235-.61537-1.10394.04983-.33645-.39447-1.06044-.75104-1.22961-.23512-.67501-.50466-1.66449-1.57947-1.69891-.31717.0027-.47387.05952-.69049.11206-.26074-.48004-.62592-1.07495-1.36951-1.13507-.10709-.0081-.26978-.01359-.37085-.0271-.41428-.4659-.89443-1.1175-1.78876-1.06122l-.164.03021c-.32538.06775-.56958.23022-.76782.3714-1.40034-.86079-3.52472-.99955-4.18531-.19394-.80723.92395-.37168,2.20181-.28858,3.32785.00293.03693-.05712.15717-.08935.22174-.22635.27826-.27716,1.13464-.00732,1.50201-.00183.02338-.00464.05255-.00897.0882-.13765.28202-.32653.60113-.2978,1.117.01451.63419.61326,1.08712,1.20808,1.59937-.00031.25935-.01521.67111.35668,1.06964.23172.24207.50533.35044.80225.54822-.42503,2.89258.77394,2.35697,2.73792,3.68158.33421.66834.68607,2.36182,1.11535,2.76355.31745.34369.68879.41791,1.15888.51196.6413.1283,1.83502.36707,2.29199,1.11011.33453.54401.35486.82117.36963,1.02356-.02614.92942.84939,1.46945,1.55492,1.57788.17066.04388.48847.12536.58094.19305.82294.6088.80804.6924,1.48242,1.0968,1.43129,3.9604,1.75121,8.31305,1.62067,12.52075-2.04968-1.86578-4.77429-2.99121-7.51544-3.09253-10.24661-6.62232-17.65304,9.37946-8.58478,8.09778,1.71305,4.45829,6.95067,2.43911,8.60634-.86671.8189-1.61881.59329-2.66823.56938-3.9265,2.79413.32013,5.79608,2.30588,6.63855,5.02173-.25256,3.68768-.51605,7.37573-.18848,11.01825.14777,2.42804,3.69629,2.34863,3.74744-.07336-.13049-2.94562.02356-5.9657.19043-8.99884.5893-3.16397,4.35323-8.72125,8.95392-9.34235.19989.35193.38745.745.51752,1.22369.82513,3.03638,3.96741,5.69989,6.72449,5.69989,2.8179.0517,4.03334-2.91334,3.22101-4.74432,3.3801-2.81322.55993-7.40074-3.2456-7.92713-2.42211-.2964-5.34589.60395-7.37763,2.49445-2.9485.30379-6.08587,2.20628-8.21838,4.7674.47154-4.53231,1.92898-9.08208,4.24304-13.02283.29596-.04816.58911-.11346.84949-.21558.37427-.1117,1.14753-.06138,1.49823-.09589.68408-.07251,1.23456-.47247,1.81732-.89593.39447-.26389.92687-.74473,1.4057-.75795.44447.04775.82424.33272,1.34382.26528l.24066-.08148c.53956-.16102,1.27921-1.1765,1.82178-1.65192,1.35769.6663,2.16384-.22498,3.13086-1.27997.61449.01652,1.30665-.19342,1.54059-.71814.40813-.00377,1.06744.0002,1.46417-.64746.12612-.16485.30614-.39945.41296-.56482,1.00924.15139,1.37806-.51304,1.78876-.9574.65714-.0677,1.37866.04987,1.93378-.66039.25073-.33741.33349-.77076.2271-1.18903Z" fill="#2e541a"/>
      <g id="ROOTS">
        <path d="m191.50591,343.59998c-2.2428-2.07623-4.85004-3.79718-7.64587-5.08057,2.36354.14274,4.7771.43049,6.85351,1.64669.04639.02659.10639.01218.13508-.03372-2.14479-1.76082-5.59881-1.93556-8.30627-2.17792-.75928-.30396-1.52637-.586-2.30615-.82239-2.1084-.34668-4.25427-.47363-6.17145-1.4126-.15607-.08228-.30005-.18542-.4118-.28668-.00952-.28705-.02069-.57532-.02795-.86096-.00296-.83365-1.26329-.80425-1.24982.01068-2.14209,2.30463-5.44263,3.28558-8.47668,3.79602-.1026.03259-.20459.06921-.30713.1026-.02783-.00604-.05444-.01385-.08795-.0116-.43817.04193-.79022.20795-1.10095.4201-2.67822.96857-5.26196,2.26514-7.3183,4.25323-.09259.09692.06177.23016.14447.13812,1.77594-1.59973,3.97791-2.71234,6.2511-3.53418-.02234.02539-.0473.05121-.06934.07635-1.48151,1.85773-2.44653,4.0661-3.14752,6.31488-.03827.12427.15497.17914.19098.05914.92387-2.47247,2.06378-5.10718,4.12769-6.82483.48651-.15564.97333-.30371,1.45789-.43726,2.91675-.37628,6.01764-1.12506,8.35803-3.03528.0199.98987.04913,1.97534.08435,2.95459-.65599,1.28478-2.15671,2.2622-3.2688,3.21399-.01379-.00183-.02417-.00818-.03925-.00818-2.97363.06708-5.94446.95496-8.30865,2.76215-.10162.08057.02582.23578.12378.15704,2.15698-1.53101,4.90509-2.29803,7.53955-2.35913-2.88989,2.27203-6.06354,4.50732-7.48413,7.98145-.0459.12335.1474.18561.18756.06909,1.76801-3.83295,5.71851-5.97491,8.95129-8.45319.81726-.65039,1.65338-1.18951,2.34418-1.93561.02167.68463.03394,1.36884.04156,2.05188-1.25421.78705-1.77325,2.22693-2.49274,3.38904-.80841,1.13733-2.07605,1.85663-2.97369,2.92877-1.9809,2.00879-3.69763,4.31567-5.70801,6.26801-.11572.08118.02081.2442.12079.15948,2.11206-1.92053,3.86078-4.13751,5.91962-6.09698.26398-.29395.55682-.55859.85889-.8136-.26508.55835-.46118,1.14752-.55804,1.75189-.21344,1.07672-.12048,2.21442-.66418,3.12384-.06848.10938.09656.21606.16699.10999.61737-.94781.5647-2.11877.81598-3.17041.19641-.97583.63544-1.86987,1.24127-2.6413.47095-.38678.92822-.7854,1.29901-1.26642.68488-.99341,1.18726-2.08356,1.98444-2.73828-.00018.03522.00134.07037.0011.10559-.05475,1.69122-.20752,3.37885-.31506,5.06836-.55469.98987-.95807,2.01581-1.41602,3.00098-.25092.66736-.57104,1.18634-.94293,1.66235-2.31683.22906-3.99353,2.05811-5.38739,3.76056-.2038.23212-.44861.50128-.68011.56787-.15424.01111-.13245.23035.01733.19922.40039-.11725.58264-.40002.81653-.62787,1.30811-1.52148,2.84698-3.17126,4.89508-3.5036-.29285.33606-.60217.66748-.93994,1.02899-1.50525,2.19897-2.26141,4.7356-2.94208,7.2713-.03168.12842.16565.16968.19403.04858.9256-3.065,2.01898-6.2923,4.49536-8.42139.74261-1.00745,1.25092-2.17822,1.80237-3.30121-.07126,2.12106.11148,4.2467.1004,6.36719-.71338,2.51617-3.14996,4.42719-3.60291,7.10919-.01867.12674.17622.16091.19727.0329.50537-2.21973,2.32709-3.79163,3.41888-5.74182.03241,4.04993.05548,8.08905.75366,12.09485.02344.12958.22162.08044.19647-.03754-.51031-3.08533-.37851-6.22656-.29919-9.35126.98364,1.92517,2.97101,3.31256,4.04883,5.18036.06512.11127.23517.00897.17334-.09967-1.18341-2.30579-3.82635-4.01257-4.1889-6.64325.04578-2.3324.08789-4.67041.19214-7.0036.87115,1.94386,2.83578,3.04866,3.70618,4.95331,1.03979,2.33398,1.15979,4.90125,1.44409,7.43097.01495.12848.20911.09937.19653-.02185-.24921-2.64856-.24396-5.61835-1.50317-8.04242,1.70251,1.78943,2.64514,4.15961,4.19281,6.07812.09491.08844.22821-.06329.13403-.14691-1.7478-2.31061-2.71869-5.26373-5.09845-7.14935-.00183-.00232-.00299-.00494-.00482-.00726-1.34247-1.27057-2.23187-2.74316-3.0011-4.40808.05573-.95978.11902-1.91882.21179-2.87421.09003-.55334.1618-1.10919.21863-1.66681.71692.64362,1.5329,1.11243,2.35461,1.57446,1.4649,2.2027,1.80927,5.4574,3.6098,7.39893.04675-.02942.06085-.09113.03149-.13788-.71906-1.16388-1.26666-2.42102-1.71588-3.71484-.38165-1.02753-.66901-2.10144-1.17639-3.11517.2644.15637.52667.31683.78113.492,2.34473,1.90387,4.03052,4.76312,4.56683,7.74194.01941.12994.21259.09851.19849-.02545-.37122-2.5473-1.54156-4.99725-3.25726-6.93622,2.72699,1.04814,5.41732,1.88091,7.58728,3.82141-1.8017-2.63354-5.6947-3.08954-8.32446-4.69678-.04468-.03326-.09839-.03796-.14996-.03473-.10339-.09601-.20001-.19971-.30646-.29211-1.35052-1.02899-3.08881-1.79712-4.1203-3.10553.05627-.79999.09332-1.60187.10333-2.40558.64978.57983,1.39038,1.07727,2.18829,1.39655.68573.25232,1.37579.52417,2.06171.81281,1.40582.99097,2.19135,2.7735,3.41559,3.99481.09159.09298.23553-.05411.13922-.14355-.94086-1.01007-1.5929-2.34894-2.52466-3.39606,2.18317,1.00354,4.26288,2.25531,5.89038,3.98053.07324.11615.24194-.00458.16675-.11072-1.91809-2.28833-4.63025-3.72437-7.26093-5.05017-1.59973-.59198-3.03918-1.35974-4.0769-2.72864-.00635-.71014-.02087-1.41998-.04407-2.12866.41675.26025.8457.46265,1.06525.55017.99573.3623,2.02484.52899,3.06055.65216,2.48236.68549,3.97467,3.33307,6.09296,4.72424.1021.07445.22214-.08448.11864-.16102-1.70691-1.28687-2.92496-3.15254-4.68773-4.3944.36597.04059.73138.0835,1.0946.13763,3.14349.89026,5.82947,3.54578,7.52521,6.2804.05713.12122.23468.02747.18066-.0863-1.64813-2.89258-4.35284-5.75122-7.60907-6.75702-2.25726-.5163-5.31458-.48065-6.89038-2.28937-.01996-.50714-.03979-1.01257-.05951-1.51703.39758.17328.83282.28577,1.2514.42615,1.68823.44946,3.49146.53149,5.18365.71484,4.0683,1.10742,8.05377,3.23889,11.23364,6.0163.09613.0946.22864-.04858.14441-.13867Z" fill="#fff"/>
      </g>
      <path d="m190.32832,310.34555c-2.51905-.02522-5.92576,1.35958-7.51987,3.76953.55163,1.16492,1.3315,1.88845,1.72853,3.26744.82511,3.03639,3.96738,5.69987,6.72444,5.69987,2.81627.05161,4.03411-2.91198,3.22101-4.74429,3.69756-3.10768-.01827-8.11312-4.15411-7.99255h0Z" fill="url(#linear-gradient)"/>
      <path d="m159.08768,313.655c-3.31856-.07721-6.4217,2.28285-7.42239,5.43875-.91491,2.79695.79369,4.88972,3.8366,4.23285,1.71296,4.45806,6.95034,2.43949,8.60631-.86668.69935-1.34297.63868-2.46739.58993-3.3709-.04448-.82458-.04967-1.2092.29396-1.68484l.72397-1.00204c-1.93126-1.58338-4.34279-2.82007-6.62839-2.74713h0Z" fill="url(#linear-gradient-2)"/>
      <path d="m158.60175,283.83163c-2.66075.06091-2.0425,2.15587-1.87598,3.86429.00295.03692-.05708.15719-.08932.22177-.22669.27882-.27689,1.13425-.00734,1.50198-.0018.02341-.00461.05258-.00894.08823-.13766.28197-.32655.60114-.29783,1.117.01452.63414.61329,1.08712,1.20811,1.59937-.00039.25934-.01519.67111.35667,1.06961.23169.24212.50536.3504.80227.54825-.42509,2.89268.774,2.35685,2.73788,3.68158.33423.66834.68607,2.36185,1.11539,2.76352.31745.34369.68876.41794,1.15885.51199.64131.1283,1.83504.36707,2.29202,1.11011.33453.54398.35481.82117.36961,1.02353-.02619.92948.8494,1.46946,1.55492,1.57791.17068.04385.48846.12536.58094.19302.90526.68484.9805.82607,1.81776,1.29535.31726.0345.92078.10012,1.24442.13531.08416-.10323.44582-.64331.5243-.72601.65281-.81714.52126-1.30478.08539-2.92059-.10229-.39002.24672-.69992.27295-1.14954.06423-.73908-.48934-1.50248-.46155-2.28873.09811-2.59975.67288-4.2715-.65854-5.50887-.05791-.81694.00236-1.83395-.49136-2.22862-.53292-.47668-.96128-.40007-1.32096-.41402-.13212-.1193-.19229-.41015-.21443-.59388-.00995-.35114-.29335-.89233-.61537-1.10394.04982-.33639-.39448-1.06046-.75107-1.22958-.23509-.67503-.50466-1.66451-1.57945-1.69894-.31717.00269-.47386.05952-.69048.11206-.26074-.48001-.62593-1.07495-1.36951-1.13507-.10707-.0081-.2698-.01358-.37085-.0271-.41431-.46585-.89441-1.1175-1.78876-1.06122l-.164.03021c-.32539.06778-.56961.23022-.76784.37143-1.04968-.59674-1.97775-.73041-2.59793-.73041h0Z" fill="url(#linear-gradient-3)"/>
      <path d="m189.25044,291.11777c-.62099,0-1.15579.28799-1.53888.51831-.39703-.12664-.97476-.1621-1.3697.04976-.56153.28032-.83724.99747-1.33881,1.46107-.46632.0663-1.09847.02574-1.4668.14169-.62785.10414-1.03806,1.12794-1.42886,1.89243-.47625.45711-.74731.54001-1.07814.78472-.53922.38837-1.00455,1.51358-1.40544,2.40078-.36896.57077-1.12963.70645-1.38546,1.4153-.20481.54253.01126.98219.00265,1.50036-.68262.76141-1.23494,1.52982-.82475,2.47925l.06261.38544c.2331.17282.62178.46105.85393.63318.77102-.03789,1.64211-.05529,2.4006-.34567.37428-.11165,1.1475-.06139,1.4982-.09589.68411-.07248,1.23456-.47244,1.81732-.8959.3945-.26391.92688-.74477,1.40573-.75795.44447.04771.82426.33272,1.34383.26528l.24065-.08148c.53954-.16103,1.27922-1.17653,1.82176-1.65192,1.35776.66621,2.1638-.22494,3.13086-1.28.61446.01655,1.3067-.1934,1.54059-.71811.40816-.00377,1.06747.00017,1.46416-.64746.12616-.16484.30616-.39946.41296-.56485,1.00927.1514,1.37806-.51308,1.7888-.95737.65811-.06679,1.37793.04915,1.93377-.66042.25069-.33738.33349-.77073.22712-1.18901-.15471-.60843-1.21327-1.84268-2.54253-2.71014-1.50422-.9355-4.22306-1.66673-6.05426-1.09256-.07324.01175-.14894.02728-.22571.04456-.44265-.18968-.98202-.31617-1.23805-.32294l-.04814-.00046h0Z" fill="url(#linear-gradient-4)"/>
      <path d="m196.13347,293.53595c-.85652-.66084-3.8686-1.45079-5.14044-.90977-.26495.03214-.59174.1879-.82947.02372-.17072-.11786-.77527-.27765-.88757-.28168-.48425-.01752-1.08142.47296-1.31671.56689-.22437.08954-.80579-.25397-1.07086-.12512-.08789.04272-.93622,1.3833-1.43958,1.52161-.44489.12231-1.40033.10657-1.53998.15015-.11493.03589-.69659,1.3623-.82629,1.49323-.63818.64459-1.17761.89038-1.26831.96356-.362.29205-.74493,1.29559-1.06061,1.96265-.33826.71472-1.29395,1.18286-1.34406,1.31726-.07471.20044.3277,1.27423-.17499,1.82849-.63953.70514-.73425.96002-.70361,1.12366-2.09235,3.12085-3.51526,6.65051-4.53601,10.27911-.32263-3.32587-1.14484-6.57318-2.74799-9.51263-.04578-.23578-.13391-.57117-.28296-1.12366-.22894-.84863.20911-1.37054.23828-1.62018.01953-.1673-.49835-1.25427-.46948-2.18256.02698-.86652.33643-3.56042.11426-4.05957-.05566-.125-.49817-.56091-.70959-.94434-.10455-.18958-.07953-1.70337-.18048-1.80243-.12268-.12036-.52338.01294-.92334-.12628-.14691-.05115-.47723-.27521-.73529-.75183-.22034-.4071-.23193-.95721-.28027-1.02808-.13977-.2049-.39453-.23236-.46027-.39679-.18744-.46912-.08228-.6347-.15131-.72644-.20819-.27655-.26172-.1192-.44843-.33295-.19574-.22418-.40503-1.31635-.62988-1.3205-.4155.11157-1.11809.21238-1.50988-.11665-.11341-.07659-.43848-.89488-.628-.9102-.25885-.02087-.62024-.00647-.93243-.20349-.37854-.23895-.7384-.93872-1.0351-.87689-.29663.06177-.82111.76306-1.328.427-1.5545-1.03052-2.85376-.74762-2.94232-.64709-.34808.39514-.06232,1.37555.01935,2.40271.04504.56683-.3078.95911-.29065,1.07538.04541.30884.28796.23657.16803,1.0755-.04108.28748-.29608.56891-.28021.78619.00916.12531.76007.70111,1.04761.99298.23712.24072.13202.85907.1756.90479.10889.11432,1.01489.51538,1.09796.90607.16113.75848-.13599,1.71625.00354,1.91779.17029.24585,2.24646.92139,2.61731,1.64008s.77844,2.35791.94971,2.54333c.17133.18542,2.61175.21265,3.59753,1.81555.65967,1.07257.50476,1.61414.58289,1.79254.10736.245,1.07104.24744,1.61536.66241,1.2735.97089.85748.71765,1.46393,1.07617l.06915.00751c.79242,1.93561,1.39276,3.93756,1.71875,5.99243.67029,3.57611.40179,7.16742.12146,10.77142-1.72837-3.12303-5.41929-5.0783-8.94-5.08508-2.93561-2.03003-5.67853-1.81201-7.56348-.87494-2.34943,1.16803-4.07275,4.36945-3.23615,5.8866.73816,1.33862,2.62671.24432,3.29376.71008.6366.44446.77673,2.15289,2.18066,2.40601,1.99591.35986,3.89026-1.28705,4.63489-2.71704.98029-1.88257.03613-3.21106.66846-4.66315,3.66666-.0443,7.72996,2.40114,8.84155,5.9585-.28816,3.76831-.29525,7.56802-.13434,11.33691.03693.81384,1.25702.76819,1.24964-.02991-.03619-2.97113-.01019-5.93207.09937-8.89313.65783-4.03013,5.27567-10.35729,10.8963-10.83612.36438.55511.84442,1.27478,1.12274,2.29901.93842,3.45312,5.42145,6.10773,7.18604,4.06415,1.2782-1.48022-.11926-2.90399.24255-3.24042.44275-.41156,1.0329-1.07489,1.22144-1.34192,1.20886-1.7124-.67358-4.4787-3.34644-4.89014-1.78595-.2749-4.8703.58331-6.50812,2.36102-5.34119.68287-8.66179,4.67448-10.68048,8.71338.00189-.03424.00287-.06848.00482-.10278.15576-1.49701.25989-3.02393.2923-4.55719.86979-5.06407,2.16539-10.17248,4.86768-14.56879.42004-.02881.90668-.08521,1.25403-.22144.54248-.21271,1.5965-.15118,1.82288-.17517.54987-.05829,1.1908-.71655,2.10675-1.27344,1.3689-.83228,2.20032-.0531,2.40204-.12714.20178-.07404,1.12384-1.22644,1.68365-1.6272s1.38953.23755,1.61389.11731c.18396-.09857.90558-.76587,1.3219-1.27808.21454-.26392,1.05664-.21637,1.18353-.26068.05072-.01776.211-.5271.48413-.61755.33105-.10962.97681-.01532,1.03235-.10669.09631-.15851.4787-.59741.55902-.83118.23462-.68231,1.20142-.16028,1.35565-.37671.05804-.08142.33563-.49713.73987-.76349.48254-.31805,1.67548-.00879,1.565-.44324-.02808-.11053-.7301-1.13342-2.01422-1.97144Z" fill="#95c172"/>
      <path d="m184.30519,314.24812c1.56614-1.94881,4.87337-2.88931,6.74161-2.60171,2.67284.41146,4.55527,3.17775,3.34642,4.89014-.18853.26706-.77865.93035-1.22142,1.34195-.36186.33639,1.03562,1.76017-.24256,3.24042-1.76461,2.04358-6.24764-.61102-7.18604-4.06419-.3715-1.36708-1.10245-2.19189-1.43802-2.80662Z" fill="url(#linear-gradient-5)"/>
      <path d="m163.97888,316.67215c-3.0443-2.25129-5.90574-2.04298-7.85255-1.07512-2.34944,1.16803-4.07276,4.36945-3.23616,5.8866.73815,1.33861,2.6267.24429,3.29375.71003.63664.44451.77675,2.15294,2.18069,2.40605,1.99591.35983,3.89025-1.28707,4.63487-2.71703,1.10198-2.11622-.23338-3.53189.97939-5.21052Z" fill="url(#linear-gradient-6)"/>
      <path d="m157.95248,285.19417c-.34806.39512-.06228,1.37554.01938,2.40272.04506.56682-.30779.95912-.29069,1.07534.04544.30884.288.2366.16805,1.07555-.0411.28747-.29605.56887-.28019.78617.00914.12527.76007.70111,1.04757.99297.23715.24075.13207.8591.17562.90481.10891.1143,1.01492.51535,1.09795.90608.16117.75844-.136,1.71623.00356,1.91778.17025.24586,2.24646.9214,2.6173,1.64007s.77845,2.35791.94973,2.54331,2.61172.21263,3.59751,1.81553c.65964,1.07258.50473,1.61415.5829,1.79257.10732.24497,1.07105.24742,1.61536.6624,1.2735.97092.85749.71767,1.46389,1.0762l.24761.02691c.38554-.54133.46268-.26918-.00401-1.99917-.22893-.84864.20912-1.37055.23829-1.62015.01956-.16735-.49834-1.25428-.46945-2.1826.02697-.86648.33642-3.56043.11425-4.05952-.05567-.12506-.4982-.56094-.70964-.94438-.10452-.18954-.07949-1.70338-.18045-1.80242-.12266-.12034-.52339.01296-.92332-.12627-.14695-.05116-.47728-.27518-.73529-.75185-.22034-.40706-.23194-.95721-.28027-1.02804-.13982-.20491-.39457-.23235-.46027-.39677-.18744-.46912-.08231-.63474-.15136-.72647-.20819-.27657-.26171-.11918-.44838-.33296-.19573-.22416-.40506-1.31634-.62993-1.32047-.41381.11056-1.11928.21309-1.50983-.11669-.11345-.07655-.43852-.89484-.628-.91015-.25889-.02092-.62029-.00651-.93246-.20354-.37854-.23893-.73842-.9387-1.03507-.87689s-.82114.76309-1.32805.42703c-1.5545-1.03055-2.85375-.74764-2.94231-.6471Z" fill="url(#linear-gradient-7)"/>
      <path d="m198.14769,295.5074c.11047.43445-1.08243.12519-1.56502.44322-.4042.26637-.6818.68209-.73984.76353-.15424.21641-1.12107-.30561-1.35564.37668-.08038.23379-.46275.67267-.55907.83118-.05553.09138-.70127-.00295-1.03236.10669-.27311.09044-.43336.59979-.4841.61753-.12687.04436-.96902-.0032-1.18352.26069-.41636.51222-1.13794,1.17952-1.32188,1.27811-.22439.12026-1.0541-.51808-1.61391-.11733s-1.4819,1.55316-1.68363,1.62721-1.03319-.7051-2.40205.12713c-.91597.55689-1.55688,1.21516-2.10675,1.27342-.22642.02399-1.2804-.03753-1.82287.1752-.43472.17048-1.09357.21773-1.55797.23973l-.08781-.06514c-.04779-.2942-.42147-.26836.60331-1.39829.50271-.55429.10032-1.62803.17504-1.82849.0501-.1344,1.00579-.60255,1.34402-1.31724.3157-.66708.69861-1.67062,1.06058-1.96264.0907-.07317.63017-.31901,1.26836-.96358.12965-.13094.71134-1.45732.82627-1.49322.13964-.04361,1.09506-.02788,1.54-.15015.50332-.13831,1.35164-1.47892,1.43956-1.52165.26506-.12882.84646.21471,1.07085.12513.23529-.09393.83246-.5844,1.31671-.5669.11229.00406.71683.16384.88756.28173.23777.16418.56451.00842.82947-.02378,1.27694-.53828,4.27122.24878,5.14037.90983,1.28418.838,1.9862,1.86086,2.01431,1.9714Z" fill="url(#linear-gradient-8)"/>
      <g id="leaf_1_right_hi" data-name="leaf 1 right hi">
        <path d="m184.30519,314.24812c2.33404-.52201,4.38875-.15737,6.09717.65155,1.57258.7446,3.21221,2.56723,2.76945,2.97884-.36186.33639,1.03562,1.76017-.24256,3.24042-1.76461,2.04358-6.24764-.61102-7.18604-4.06419-.3715-1.36708-1.10245-2.19189-1.43802-2.80662Z" fill="#a6d67c"/>
      </g>
      <g id="leaf_1_left_hi" data-name="leaf 1 left hi">
        <path d="m163.97888,316.67215c-2.91193-.00585-3.89546.38822-5.33799,1.49601-2.08094,1.59807-3.12402,3.55974-2.45697,4.02549.63664.44451.77675,2.15294,2.18069,2.40605,1.99591.35983,3.89025-1.28707,4.63487-2.71703,1.10198-2.11622-.23338-3.53189.97939-5.21052Z" fill="#a6d67c"/>
      </g>
      <g id="leaf_2_left_hi" data-name="leaf 2 left hi">
        <path d="m157.95248,285.19417c-.34806.39512-.06228,1.37554.01938,2.40272.04506.56682-.30779.95912-.29069,1.07534.04544.30884.288.2366.16805,1.07555-.0411.28747-.29605.56887-.28019.78617.00914.12527.76007.70111,1.04757.99297.23715.24075.13207.8591.17562.90481.10891.1143,1.01492.51535,1.09795.90608.16117.75844-.136,1.71623.00356,1.91778.17025.24586,2.24646.9214,2.6173,1.64007s.77845,2.35791.94973,2.54331,2.61172.21263,3.59751,1.81553c.65964,1.07258.50473,1.61415.5829,1.79257.10732.24497,1.07105.24742,1.61536.6624,1.2735.97092,1.74501,1.15771,1.74501,1.15771-2.26203-4.31687-3.6151-9.13025-6.09133-12.04577-2.98311-3.51233-5.21484-5.20155-6.95772-7.62725Z" fill="#a6d67c"/>
      </g>
      <g id="leaf_2_right_hi" data-name="leaf 2 right hi">
        <path d="m198.14769,295.5074c.11047.43445-1.08243.12519-1.56502.44322-.4042.26637-.6818.68209-.73984.76353-.15424.21641-1.12107-.30561-1.35564.37668-.08038.23379-.46275.67267-.55907.83118-.05553.09138-.70127-.00295-1.03236.10669-.27311.09044-.43336.59979-.4841.61753-.12687.04436-.96902-.0032-1.18352.26069-.41636.51222-1.13794,1.17952-1.32188,1.27811-.22439.12026-1.0541-.51808-1.61391-.11733s-1.4819,1.55316-1.68363,1.62721-1.03319-.7051-2.40205.12713c-.91597.55689-1.55688,1.21516-2.10675,1.27342-.22642.02399-1.24941.07189-1.82287.1752-1.34171.24172-1.46517.19039-1.46517.19039,2.40866-3.09165,7.95058-6.50946,8.87123-7.10313,6.44347-4.15499,10.43647-.96105,10.46458-.85051Z" fill="#a6d67c"/>
      </g>
      <g id="leaf_1_right_hi_yellow" data-name="leaf 1 right hi yellow">
        <path d="m184.30519,314.24812c2.33404-.52201,4.38875-.15737,6.09717.65155,1.57258.7446,3.21221,2.56723,2.76945,2.97884-.36186.33639,1.03562,1.76017-.24256,3.24042-1.76461,2.04358-6.24764-.61102-7.18604-4.06419-.3715-1.36708-1.10245-2.19189-1.43802-2.80662Z" fill="url(#linear-gradient-9)"/>
      </g>
      <g id="leaf_1_left_hi_yellow" data-name="leaf 1 left hi yellow">
        <path d="m163.97888,316.67215c-2.91193-.00585-3.89546.38822-5.33799,1.49601-2.08094,1.59807-3.12402,3.55974-2.45697,4.02549.63664.44451.77675,2.15294,2.18069,2.40605,1.99591.35983,3.89025-1.28707,4.63487-2.71703,1.10198-2.11622-.23338-3.53189.97939-5.21052Z" fill="url(#linear-gradient-10)"/>
      </g>
      <g id="leaf_2_left_hi_yellow" data-name="leaf 2 left hi yellow">
        <path d="m157.95248,285.19417c-.34806.39512-.06228,1.37554.01938,2.40272.04506.56682-.30779.95912-.29069,1.07534.04544.30884.288.2366.16805,1.07555-.0411.28747-.29605.56887-.28019.78617.00914.12527.76007.70111,1.04757.99297.23715.24075.13207.8591.17562.90481.10891.1143,1.01492.51535,1.09795.90608.16117.75844-.136,1.71623.00356,1.91778.17025.24586,2.24646.9214,2.6173,1.64007s.77845,2.35791.94973,2.54331,2.61172.21263,3.59751,1.81553c.65964,1.07258.50473,1.61415.5829,1.79257.10732.24497,1.07105.24742,1.61536.6624,1.2735.97092,1.74501,1.15771,1.74501,1.15771-2.26203-4.31687-3.6151-9.13025-6.09133-12.04577-2.98311-3.51233-5.21484-5.20155-6.95772-7.62725Z" fill="url(#linear-gradient-11)"/>
      </g>
      <path id="leaf_2_right_hi_yellow" data-name="leaf 2 right hi yellow" d="m198.14769,295.5074c.11047.43445-1.08243.12519-1.56502.44322-.4042.26637-.6818.68209-.73984.76353-.15424.21641-1.12107-.30561-1.35564.37668-.08038.23379-.46275.67267-.55907.83118-.05553.09138-.70127-.00295-1.03236.10669-.27311.09044-.43336.59979-.4841.61753-.12687.04436-.96902-.0032-1.18352.26069-.41636.51222-1.13794,1.17952-1.32188,1.27811-.22439.12026-1.0541-.51808-1.61391-.11733s-1.4819,1.55316-1.68363,1.62721-1.03319-.7051-2.40205.12713c-.91597.55689-1.55688,1.21516-2.10675,1.27342-.22642.02399-1.24941.07189-1.82287.1752-1.34171.24172-1.46517.19039-1.46517.19039,2.40866-3.09165,7.95058-6.50946,8.87123-7.10313,6.44347-4.15499,10.43647-.96105,10.46458-.85051Z" fill="url(#linear-gradient-12)"/>
      <path id="root_main_fade" data-name="root main fade" d="m172.375,334.57266l-.06648-2.76953c-.02284-.86588,1.29517-.90763,1.32539-.04049.00621.01915-.01296,2.78717-.0089,2.80837-.00583.81345-1.24244.81487-1.25001.00165Z" fill="url(#linear-gradient-13)"/>
    </g>
  </g>
</svg>