<?xml version="1.0" encoding="UTF-8"?>
<svg id="Layer_2" data-name="Layer 2" xmlns="http://www.w3.org/2000/svg" xmlns:xlink="http://www.w3.org/1999/xlink" viewBox="0 0 394 469">
  <defs>
    <linearGradient id="linear-gradient" x1="173.0422" y1="335.22273" x2="173.0422" y2="331.12504" gradientUnits="userSpaceOnUse">
      <stop offset="0" stop-color="#fff"/>
      <stop offset=".34875" stop-color="#fff"/>
      <stop offset=".90496" stop-color="#fff" stop-opacity="0"/>
      <stop offset="1" stop-color="#fff" stop-opacity="0"/>
    </linearGradient>
  </defs>
  <g id="CASE_5_Plants_LL_WL_CH" data-name="CASE 5 Plants LL WL CH">
    <g id="Day_20" data-name="Day 20">
      <g id="rectangle">
        <rect width="394" height="469" fill="none"/>
      </g>
      <g id="ROOTS_BACK" data-name="ROOTS BACK">
        <path d="m191.02422,341.46893c-.37299-.3642-.75708-.70612-1.14935-1.03174.70866-.54603.59564-1.70152-.16321-2.15186-1.93304-1.42102-4.69104-1.61981-7.01282-1.75073-.01093-.00134-.02026.00031-.03113-.00079-.54211-.18475-1.0896-.36011-1.64703-.51843-2.02917-.44232-4.2746-.46143-6.14734-1.31238,0-.04395.00183-.08716.00165-.13116-.05573-2.23767-3.0351-2.44904-3.63831-.61456-1.66626,1.61371-4.31378,2.66132-6.591,2.98413-3.38171.5611-6.58044,1.53363-9.10687,4.06604-.4928.52362-.49146,1.34967.01544,1.8692,1.18987,1.14125,2.14763-.35456,3.17194-.92242-1.00269,1.60297-1.93134,3.66412-.31335,4.28821.71667.24493,1.49652-.15222,1.72302-.87427.7218-1.9646,2.43542-4.41418,4.40918-5.28174,2.23804-.25334,4.43966-.76384,6.38995-1.77643-.01068.19275-.02106.38562-.03082.57886-.08551.08002-.17657.16229-.27679.24896-.57104.43329-1.17224.84436-1.78412,1.24945-.01019-.00073-.01849-.00378-.02881-.00433-2.24622-.27557-5.24475.5437-6.9577,2.16309-1.09796.92078-.21198,2.46484.92542,2.40009-.89678,1.10875-3.40614,3.81811-1.22602,4.87817.70429.25861,1.48554-.10834,1.73676-.81494.88599-2.3421,3.3598-4.09668,5.68872-5.64301.23871-.03076.44336-.11096.61517-.22565-.42389.74603-.76862,1.54388-1.23468,2.02179-1.43231,1.14227-2.82001,2.42725-3.98572,3.86835-.75037,1.10846-3.49091,3.98785-1.383,5.11328.68201.30042,1.47839-.00891,1.77875-.69086.33508-.70471.78406-1.37256,1.2937-2.01062.05115.47333.34045.90765.81061,1.10425.03833.0127.07111.01593.10809.02625-.59875.29156-1.185.62054-1.71582,1.05707-1.15341.76925-2.13253,3.49422.18115,3.55933-.36564,1.11768-1.28925,3.01369.35436,3.54255.71638.2061,1.46424-.20759,1.67036-.92396.57477-2.00702,1.65515-4.3288,3.3197-5.49286.31049-.31567.57922-.67896.83044-1.06018.01514.44403.0199.88721.01385,1.32941-.67395,1.90814-3.31372,3.76892-3.49414,6.12262-.22601,1.7254,2.31879,2.15051,2.66321.44366.10809-.41724.30823-.81293.56061-1.19867-.10583,2.38586-.05151,4.78662.71997,7.2514.5838,1.65222,3.04993.85052,2.57245-.81775-.33099-1.10107-.45477-2.2536-.46619-3.43494,1.14935.92642,1.72715,3.26146,3.36792,2.43976.62732-.44348.75891-.97266.61218-1.54938.15436.01727.31342.01605.47809-.02924.72247-.1842,1.15881-.91919.97467-1.64166.01349.00018.0166.06805.01422.01843l-.00403-.15582c.00006-.19287-.00391-.39044-.00421-.58527.8924.28229,2.05981-.40735,1.75037-1.62836-.69611-2.09198-1.97052-3.83417-3.45245-5.40363-.05579-.07593-.09515-.16345-.15442-.23663-.07874-.07898-.14917-.15558-.22443-.23346,1.05963.52332,2.49438-.6604,1.73822-1.92664-.27002-.35785-.45667-.73499-.6131-1.11932.79669.9502,1.32916,2.0672,1.51868,3.35773.11554.70569.76611,1.2038,1.48456,1.12225,1.78979-.3443,1.20581-2.46057.54565-4.01697.52008.28308,1.00348.64532,1.42902,1.14679,1.21033,1.24463,3.11957-.48273,2.00092-1.81232-.58478-.6748-1.3089-1.24896-2.07922-1.71881.12921-.03662.25916-.07422.37732-.15228,1.41144-1.17126.06677-2.54437-1.17633-3.52826.56085-.06793,1.02051-.513,1.16168-1.04663,1.21052.98854,1.60891,3.57452,3.35834,2.82794,2.20123-1.17285-1.07556-4.45978-2.02637-5.57056-.50726-.53467-1.14398-1.07678-1.85608-1.54999,2.11163.81592,4.11108,2.00128,5.69824,3.41687,1.27307,1.19525,3.09821-.63501,1.91028-1.90643Zm-14.68774,3.84259c-.27832-.1767-.53705-.35663-.78296-.53729.59412.24719,1.19745.4812,1.79633.72125.38715.3161.69293.703.98553,1.14282-.66229-.48737-1.3429-.92969-1.9989-1.32678Zm5.19812,2.57214c.091.07928.17926.15729.25714.23492-.11017-.04016-.22028-.08069-.32935-.11816.02661-.03735.04944-.07697.0722-.11676Zm-6.07098-6.77502c.74658.18036,1.51086.2962,2.26038.38226.59961.18567.97314.54523,1.50916,1.1106.22522.25159.47687.52179.73975.79498-1.52759-.77753-3.17316-1.30774-4.50928-2.28784Zm-6.35065,8.03827c.07135-.32288.35669-.77997.72034-1.24719.50515-.3665,1.02633-.7863,1.36591-1.28052.01111.17236.02216.3446.03198.51874-.88434,1.45923-1.4201,3.32458-2.25452,4.57983-.12427.04907-.2467.09857-.37238.14813.4032-.80145.44507-2.02209.50867-2.71899Zm5.43658,8.92059c.09839-.90082.1908-1.80121.24506-2.69342.06836.06641.1344.13763.2041.20093,1.74805,1.48676,1.83362,4.02042,1.914,6.21851-1.08264-1.29889-2.41815-2.6369-2.36316-3.72601Zm.23138-8.19635c.01245-.60376.02838-1.20923.04022-1.81628.03894.02209.0777.04456.11664.06659.32837.62457.36102,1.30884.59381,2.12537.26422,1.03516.73364,2.00647,1.26654,2.87146-.81848-.97058-1.42322-1.95886-2.01721-3.24713Z" fill="#4c4c4c"/>
      </g>
      <path d="m196.05498,291.4986c-.27472-.5647-1.56104-1.55927-3.03815-2.13989-1.50718-.62024-4.70895-.74139-6.15021.15466-.06842.026-.13855.05609-.20935.08807-1.14458-.2849-2.0661.08215-2.72998.76367-.40173-.00092-.72645-.08181-1.33107.3254-.49344.3882-.61823,1.14635-1.01574,1.70188-.44324.15928-1.07056.24738-1.40784.43548-.59374.22908-.78844,1.31465-1.01648,2.14228-.374.54411-.62266.68-.89716.98663-.44947.48936-.67762,1.6856-.89078,2.63539-.2459.63368-.96342.92038-1.07051,1.66644-.09093.57259.20976.95956.30602,1.46875-.3299.56671-.60309,1.12531-.60266,1.67664-.75494,1.21289-1.43048,2.46613-2.01233,3.76093-.26947-.96478-.61511-1.90857-1.03491-2.83014-.01685-.25549-.04187-.53851-.07422-.88013-.03514-.40182.36109-.64815.46262-1.08711.18775-.71733-.22932-1.56372-.06958-2.33379.5341-2.52345,1.37895-4.12272.27841-5.54114.08064-.81483.31094-1.80759-.10916-2.27959-.40277-.53093-.87629-.56313-1.23233-.63045-.11019-.1398-.12051-.43671-.11137-.62153.04928-.3477-.13892-.92901-.42073-1.19177.10574-.32323-.21033-1.11174-.53333-1.3385-.09287-1.03501-.54497-2.19378-1.97046-1.94678-.17621-.51703-.4361-1.16473-1.15881-1.34906-.10415-.02601-.26361-.0588-.3609-.08917-.34678-.52303-.68869-1.32777-1.72168-1.34607-.33543.00453-.62647.12885-.84924.23798-1.36981-1.11914-2.65985-1.2121-3.04535-1.2121-.44745,0-.78009.10034-1.04688.31573-.95176.77537-.73741,2.10794-.84522,3.23211-.16787.33082-.45364.52462-.47228,1.09431-.00593.25555.04351.45568.08678.58849-.00574.02283-.01343.05109-.02368.08551-.18325.25472-.42317.53763-.4817,1.05096-.09241.62748.4216,1.17488.92158,1.77985-.04402.2555-.12797.65906.1715,1.11444.1875.27761.43916.43049.69849.67548-.90593,2.77977.36584,2.45342,2.07892,4.08997.21692.71509.27864,2.44367.63415,2.91187.25514.39227.60859.52801,1.0561.69983.6106.23444,1.74707.67078,2.07245,1.48022.23816.59247.21149.86914.19202,1.07111-.18245.91177.58985,1.59148,1.26703,1.81721.16083.07195.46039.2058.54016.28807.75508.79315.74371.89682,1.43933,1.46906,1.02409,3.44162,1.08296,7.12895.92627,10.72992-1.49854-1.81927-3.41144-3.35474-5.55347-4.17181-7.10051-9.75082-19.71234,2.26779-10.89343,4.42834-.08593,4.79004,5.55096,4.84939,8.30339,2.42339,1.413-1.22704,1.55067-2.32332,2.05397-3.54192,2.75177,1.34735,5.09503,4.43695,5.87006,7.08032-.03113,3.61023-.01562,7.51917.09174,11.06195.01776,1.00104.82745,1.82092,1.83954,1.83942,1.03552.01959,1.89087-.80396,1.91046-1.83942.06219-3.07312.05042-6.40973.00311-9.59656.63804-3.10264,3.95492-9.28101,8.13586-10.0094.36115.30872.73352.67273,1.06396,1.17761,1.37683,2.10345,4.09344,3.57257,6.60626,3.57257,3.63779.10021,4.96342-3.58112,3.14758-5.73785,2.11906-3.35939-1.03094-6.62724-4.60339-6.61101-2.59385.03446-5.44281,1.88381-7.04578,4.46983-2.76304.56103-5.50536,2.8343-7.18195,5.28955.36863-4.26383,1.67096-8.62203,3.84131-12.34033.29858-.11108.59125-.24194.84027-.40417.34443-.18538,1.11118-.29213,1.44794-.39704.96257-.31008,1.53263-1.27223,2.27716-1.94921.36163-.33692.60186-.33686.69232-.33686.46416.05522,1.02179.17023,1.44128-.12602.49658-.26743,1.014-1.41025,1.44971-1.98598,1.46709.38149,2.08578-.67677,2.80743-1.88708.60509-.10814,1.24057-.45367,1.36346-1.01489.39891-.08616,1.04534-.21574,1.30286-.93005.09028-.18704.21902-.45315.29022-.63678.3714-.04102,1.00824-.17188,1.30676-.84833.09955-.2301.1853-.36737.25146-.45117.62984-.19931,1.3602-.23003,1.7602-1.0379.17724-.38111.17071-.82227-.01808-1.21033Z" fill="#2e541a"/>
      <g id="ROOTS">
        <path d="m190.12248,342.33453c-1.80029-1.71857-3.96674-3.09949-6.29584-4.06055,1.81804-.04937,3.57501.27822,5.13694,1.25339.10878.06511.21405-.10522.10317-.17123-1.88489-1.37598-4.31146-1.41241-6.51495-1.5802-.013-.00195-.0224.00897-.0351.0094-.97363-.32788-1.96741-.58539-2.96912-.76178-1.87787-.27191-3.87695-.4754-5.56708-1.35339-.14551-.07971-.2724-.17834-.36731-.27356.00586-.27423.01245-.54816.01178-.82477-.00439-.82422-1.2467-.80786-1.24976,0-.00024.00354-.00037.00708-.00061.01062-1.92767,2.0274-4.84607,3.19257-7.59216,3.60144-3.01855.48871-6.15179,1.45605-8.34033,3.68762-.09137.09497.06165.22852.14447.13818,1.61377-1.51117,3.72388-2.35156,5.88666-2.82855-.04553.03729-.09473.07251-.1391.11017-1.67755,1.51263-2.90155,3.50525-3.58337,5.64819-.03851.12457.15533.18018.19098.05908.90976-2.38816,2.44211-4.89744,4.79095-6.05933,3.02374-.3199,6.14323-1.02849,8.55994-2.98291-.04968.86584-.09216,1.74121-.12421,2.62085-.60217,1.21484-2.2876,2.18539-3.48041,3.05109-2.16052-.20142-4.427.42474-6.05756,1.89941-.10034.08008.02509.23523.12384.15723,1.5282-1.23615,3.37701-1.74121,5.29626-1.61658-2.48779,1.71191-5.03363,3.55194-6.11829,6.4397-.04504.12195.14648.18542.18762.06909,1.48834-3.42621,5.04755-5.15369,8.03601-7.08899.65601-.45111,1.36139-.85559,1.97363-1.44586-.01184.68011-.01672,1.36102-.00446,2.04193-.99927.70361-1.51154,1.79248-2.00507,2.70349-.50403,1.12854-1.44147,1.69324-2.32172,2.48035-1.73914,1.60657-3.42603,3.38373-4.35101,5.59894-.04724.12292.14227.19073.1861.07312.98969-2.05829,2.60547-3.72479,4.36755-5.17981-.17841.33374-.32794.68433-.40497,1.0683-.13751.8515.04211,1.66125-.30255,2.46362-.04608.11963.13959.19037.1861.07312.37524-.76294.25629-1.68524.4101-2.4751.16632-.69659.59814-1.30829,1.05939-1.88464.18988-.14606.37952-.29321.57025-.43542,1.11963-.91064,1.62109-2.54285,2.64026-3.47003.04779,1.20312.13867,2.40204.30499,3.58484.01172.21625.02368.48547.03595.77502-1.10369,1.6927-1.55707,3.6624-2.68933,5.27478-1.64435.73053-3.90247,1.20416-4.55139,3.08496-.03345.12891.17242.17194.19525.04272.58307-1.56744,2.3775-2.06201,3.88904-2.62781-.03351.03027-.05878.0697-.09363.09851-1.78424,1.58014-2.5791,3.86761-3.1723,6.08759-.03101.12714.16504.16937.19397.04846.64697-2.0816,1.56378-4.35321,3.28619-5.73901,1.53058-1.32098,2.06586-3.26874,2.99622-4.94513.05927,1.45087.13513,3.10083.25616,3.97455.06946.63965.09668,1.28229.10028,1.92657-.55597,2.31335-3.19934,3.74683-3.53345,6.22632-.02063.12659.17688.15631.19727.0329.40967-2.04535,2.26233-3.20624,3.31042-4.90857-.14673,3.61426-.81055,7.26349.38989,10.77435.03973.12543.23157.05206.18994-.06274-.71869-2.40875-.56976-4.86298-.31372-7.32715.79022,1.84906,2.70374,3.11292,3.68811,4.85846.06488.11133.23523.00909.17334-.09961-1.05927-2.12183-3.56494-3.59357-3.71301-6.07941-.00012-.00494-.00476-.00598-.00513-.01074.19763-1.80292.38013-3.60791.2511-5.401-.01721-.36981-.02594-.7403-.02948-1.11121.35162.62396.73206,1.24115,1.17963,1.80682.65649.92865,1.66931,1.58014,2.24426,2.55334,1.19659,1.97784,1.12494,4.32703,1.28217,6.59045.01068.12726.20367.10608.19574-.01483-.06195-2.02325.0296-4.22394-.79901-6.15039.98932,1.14178,1.84271,2.40894,2.35962,3.81427.02832.13053.23205.07885.19385-.04944-.63568-1.83331-1.79999-3.42169-3.12378-4.82806-1.42973-1.58211-2.70835-3.15644-3.52264-5.16986.02704-1.47186.08783-2.94812.03925-4.42072.56476.47369,1.18182.8584,1.78937,1.21277.16437.08331.32532.17871.48846.26727.56879.8045.65094,1.80725.90057,2.75183.2641,1.02582.74762,1.97949,1.32166,2.85291.03003.04498.091.05865.13696.0296.04669-.02948.06061-.09125.03113-.13794-.54541-.87567-.99146-1.81311-1.22314-2.81183-.18091-.77875-.26562-1.62396-.59271-2.37018,2.47992,1.46423,4.65051,3.57635,5.01398,6.56641.01917.12848.21179.09827.1983-.02539-.18079-1.93994-1.12512-3.75092-2.49939-5.12201.7774.26685,1.57159.44141,2.31769.72186,1.18976.40741,2.27203,1.09271,3.12726,2.01886.08482.09523.23525-.03782.14899-.13312-1.6015-2.10535-4.48987-2.34045-6.61676-3.50513-1.49341-1.20776-3.42236-2.00787-4.60797-3.47302-.02588-.32123-.05493-.64227-.09698-.96277-.03729-.508-.05029-1.01434-.05444-1.52039.53448.47552,1.12585.8988,1.77136,1.19745.92499.37054,1.8869.7265,2.83502,1.11725,1.04747.72807,1.59261,1.89535,2.30829,2.93384.07042.10683.23926-.00319.16656-.11053-.50684-.84741-1.0379-1.7594-1.72253-2.49988,1.66882.74054,3.24701,1.64661,4.42542,3.05188.07257.1109.23718-.00562.16669-.11066-1.25995-1.72241-3.18524-2.75366-5.03503-3.72449-1.7865-.79352-3.69153-1.44379-4.90344-3.06903.01843-.64911.04889-1.29932.08649-1.9519,1.4019,1.00053,3.02324,1.17574,4.62476,1.36639,1.94519.58502,2.88507,3.03418,4.66815,3.76465.03363-.04382.02533-.10657-.01855-.1402-1.3497-.95812-2.1534-2.4673-3.4552-3.48901.49213.05676.97949.11847,1.4516.20709,2.55878.74365,4.65289,2.99158,5.92285,5.29712.05902.11652.23169.02698.1806-.08618-1.25964-2.49158-3.23132-4.81311-5.9657-5.74847-2.4549-.65894-5.62097-.44049-7.33508-2.4472.02118-.37018.03973-.742.05634-1.11536,1.86017.84949,3.91492.95416,5.90833,1.1377,2.32397.21173,4.53558,1.16644,6.62463,2.18182,1.39246.7168,2.74585,1.54913,3.86829,2.64185.09497.09369.22815-.04834.14441-.13873Z" fill="#fff"/>
      </g>
      <path d="m194.93089,292.04529c-.04987-.10254-.94427-.96228-2.3714-1.52325-.97381-.47356-4.08107-.63847-5.2182.14883-.25299.08506-.54145.30375-.8075.19102-.19104-.08087-.81543-.11511-.92621-.09637-.47778.08081-.96338.68195-1.1748.82153-.20166.13312-.84052-.08569-1.07404.09406-.07745.05963-.63708,1.54413-1.10199,1.78137-.41107.20972-1.34991.38757-1.47784.45856-.10529.05841-.40668,1.47504-.50714,1.62946-.49463.76038-.97321,1.11023-1.04724,1.20026-.29541.35919-.46741,1.41943-.64166,2.1366-.18671.76831-1.02795,1.4201-1.0498,1.56183-.03265.21143.57861,1.18158.19843,1.82611-.4884.82794-.52545,1.09363-.45966,1.24695-1.6319,2.6167-2.88404,5.47477-3.7569,8.42963-.24774-2.5368-.77258-5.01587-1.79401-7.37518-.01324-.23279-.04285-.5509-.08575-1.00427-.08276-.87506.43689-1.31573.50769-1.55688.04749-.16168-.28003-1.32025-.09528-2.23047.17249-.84955.93109-3.45294.79614-3.98236-.03381-.13263-.39661-.63678-.54047-1.05035-.07111-.20441.20844-1.69244.12561-1.80707-.10065-.13928-.51813-.07538-.88892-.27991-.13623-.0752-.42413-.35162-.59821-.86493-.14862-.43835-.06744-.9826-.10315-1.06061-.10333-.22552-.34985-.29541-.3869-.46857-.10577-.49402.02576-.63953-.02686-.74158-.15869-.30768-.23792-.16156-.38593-.40369-.15521-.25397-.17767-1.36578-.39862-1.40771-.1297-.0246-.32886.0249-.57245.01562-.33911-.01294-.66962-.16803-.89618-.38477-.09894-.09467-.28156-.95599-.46576-1.00299-.25171-.06421-.61035-.11084-.88489-.3576-.33295-.29926-.56982-1.04962-.87268-1.0387-.3028.01099-.93787.61395-1.38098.19733-1.35876-1.27753-2.68713-1.21741-2.79132-1.13324-.40967.33087-.29303,1.3454-.3855,2.3717-.05103.56628-.46484.89355-.46759,1.01105-.0072.31207.24408.28168-.01544,1.08844-.08893.27649-.38757.51093-.40857.72778-.01208.12506.63116.81909.86542,1.15521.19324.27722-.01447.86902.02081.92145.08807.13098.91364.67883.92969,1.078.03119.77472-.42303,1.66882-.3194,1.89099.12646.271,2.05927,1.2865,2.30383,2.05731.24451.77087.3703,2.45532.50793,2.66693s2.53864.64935,3.24048,2.39532c.4696,1.16833.22571,1.67609.27277,1.86511.06451.25958,1.0141.42426,1.48071.92493,1.09186,1.17151.72443.85181,1.26184,1.30731l.07031.02002c1.71021,5.09938,1.42971,10.51075,1.19598,15.82202-1.42804-3.07196-4.26489-6.1579-7.48083-7.27484-1.94739-2.84564-4.50671-3.65692-6.56555-3.49805-2.61597.2019-5.41394,2.52356-5.20728,4.24371.18237,1.51776,2.34351,1.21136,2.78723,1.89325.42352.65082-.08716,2.28711,1.11945,3.04816,1.71539,1.08197,4.08905.2655,5.31549-.78094,1.65259-1.41003,1.22009-3.03748,2.45203-4.14917,3.505,1.29877,6.58246,5.20111,7.51508,8.47717-.08453,2.72586.04679,6.49575.13556,9.2124.01562.6806.0401,1.39539-.02344,1.96948-.07861.80719,1.13708.93274,1.23993.14117.15582-1.30591.05566-2.8877.06482-4.16003,0,0-.07397-4.03436-.0741-4.03436-.01105-.48444-.01526-.97168-.01544-1.46075.72537-3.86815,4.81957-10.91514,9.81152-11.35004.51038.40912,1.15955.93622,1.71997,1.79236,1.95978,2.99408,7.04376,4.13306,8.09033,1.6441.75806-1.80286-1.01105-2.72498-.77087-3.15674.29388-.52826.65009-1.34149.74683-1.65375.62036-2.0022-2.0249-4.05121-4.69403-3.61633-1.78986.29156-4.47137,2.07251-5.47113,4.28027-4.35734.59923-7.99084,5.61861-9.39819,9.41559.03448-1.56097.0816-3.13293.09552-4.70331.22083-4.84332,1.75836-9.66284,4.19818-13.89294.37885-.11017.79401-.25513,1.07953-.4411.48822-.31805,1.5329-.47101,1.74976-.54028.52673-.16827,1.02124-.94257,1.8056-1.67322,1.17224-1.09192,2.1441-.49707,2.32672-.61041.18256-.11334.85248-1.42841,1.3197-1.93414.46716-.50568,1.40881-.04834,1.60425-.21149.16022-.13379.73187-.93323,1.03607-1.5191.15668-.30182.99103-.4256,1.10632-.49469.04608-.02765.09998-.55884.34918-.7027.30206-.17432.95355-.21252.98944-.31329.06226-.17468.34796-.68188.37939-.92706.09167-.71564,1.1441-.39996,1.2514-.64313.04034-.09149.22815-.55475.57013-.8974.40826-.40906,1.63904-.34747,1.44299-.75061Z" fill="#95c172"/>
      <g id="leaf_1_right_hi" data-name="leaf 1 right hi">
        <path d="m182.88867,313.16234c2.05841-1.21787,4.12521-1.50616,6-1.2649,1.72573.22208,3.84842,1.44868,3.55455,1.97698-.24016.43177,1.52895,1.35388.77088,3.15672-1.04656,2.48893-6.13058,1.34995-8.09035-1.64409-.77585-1.18531-1.72595-1.74381-2.23509-2.22472Z" fill="#a6d67c"/>
      </g>
      <g id="leaf_1_left_hi" data-name="leaf 1 left hi">
        <path d="m165.15949,314.48568c-2.69729-1.09727-3.75683-1.10073-5.50948-.61463-2.52833.70122-4.23084,2.12867-3.78709,2.81055.42352.65079-.08717,2.28712,1.11944,3.04817,1.71538,1.08195,4.08902.26549,5.31548-.78094,1.81507-1.54864,1.10794-3.36172,2.86165-4.46315Z" fill="#a6d67c"/>
      </g>
      <g id="leaf_2_left_hi" data-name="leaf 2 left hi">
        <path d="m161.77602,284.01393c-.40962.33088-.29299,1.34542-.38545,2.37168-.05102.56632-.46488.8936-.4676,1.01104-.00721.31208.24405.28171-.01544,1.08849-.08891.27645-.38761.5109-.40856.72777-.01208.12502.63117.81908.86542,1.15517.19323.27724-.01447.86907.02077.92146.08811.131.91366.67887.92971,1.07801.03116.77475-.42302,1.66883-.31939,1.891.12642.27101,2.05926,1.28648,2.30379,2.05734s.37033,2.45531.50795,2.66691,2.53863.64934,3.24047,2.39533c.46963,1.16833.22574,1.67609.27275,1.86513.06454.25954,1.0141.42422,1.48077.92493,1.09184,1.17148,1.52517,1.43499,1.52517,1.43499-1.5029-4.6361-2.02621-9.60858-3.97619-12.89941-2.34914-3.96446-4.2646-6.00532-5.57418-8.68985Z" fill="#a6d67c"/>
      </g>
      <g id="leaf_2_right_hi" data-name="leaf 2 right hi">
        <path d="m194.93089,292.04532c.19607.40312-1.03473.34155-1.44302.75061-.34196.34262-.52974.80589-.57011.89739-.10728.24314-1.15971-.07253-1.25142.6431-.03143.24521-.31712.75237-.37939.92709-.0359.10073-.68737.13896-.98944.3133-.24917.14381-.30308.67505-.34918.70268-.11528.06911-.94964.19287-1.10633.49469-.30415.58585-.87583,1.38531-1.03603,1.51907-.19543.16316-1.1371-.29415-1.60429.21154s-1.13711,1.8208-1.31969,1.93413-1.15446-.48154-2.32668.61037c-.78439.73065-1.2789,1.50495-1.80562,1.67323-.21688.06929-1.20904.32313-1.74975.5403-1.26508.50811-1.39637.48282-1.39637.48282,1.73352-3.51495,6.46955-7.98309,7.25109-8.75071,5.46984-5.37244,10.02635-3.05219,10.07623-2.94962Z" fill="#a6d67c"/>
      </g>
      <path id="root_main_fade" data-name="root main fade" d="m172.375,334.57266l.00827-2.80002c.00108-.36615.2988-.66211.66496-.66104.3756.00022.67732.31661.66049.69168-.00515.04053-.08041,2.75149-.0844,2.79012-.02663.80561-1.2493.78506-1.24932-.02074Z" fill="url(#linear-gradient)"/>
    </g>
  </g>
</svg>